<svg width="102" height="86" viewBox="0 0 102 86" fill="none" xmlns="http://www.w3.org/2000/svg">
<path d="M87.6945 8.06084C87.9245 8.64656 88.3743 9.11644 88.9456 9.36782C89.517 9.61921 90.1635 9.63166 90.7439 9.40247L92.2127 13.1806C91.9244 13.2954 91.6612 13.4665 91.4383 13.6841C91.2153 13.9017 91.0369 14.1616 90.9133 14.449C90.7896 14.7363 90.7232 15.0455 90.7176 15.3588C90.7121 15.6721 90.7677 15.9835 90.8811 16.2751C90.9946 16.5667 91.1637 16.8329 91.3789 17.0584C91.5941 17.2839 91.851 17.4643 92.1351 17.5894C92.4192 17.7145 92.7249 17.7817 93.0347 17.7873C93.3445 17.7928 93.6524 17.7367 93.9407 17.6219L95.4146 21.4001C95.1173 21.5079 94.8446 21.6751 94.6124 21.8916C94.3803 22.1081 94.1935 22.3696 94.0631 22.6605C93.9328 22.9514 93.8615 23.2659 93.8536 23.5852C93.8457 23.9045 93.9013 24.2221 94.017 24.5193C94.1328 24.8164 94.3063 25.0871 94.5275 25.3151C94.7486 25.5431 95.0127 25.7239 95.3042 25.8467C95.5957 25.9696 95.9087 26.0319 96.2245 26.0301C96.5402 26.0283 96.8524 25.9623 97.1426 25.8362L98.53 29.4344L-1.1137 69.0974L-2.50625 65.5454C-1.92622 65.3138 -1.46048 64.8593 -1.21094 64.2813C-0.961396 63.7033 -0.94836 63.0489 -1.17469 62.4612C-1.40473 61.8754 -1.85421 61.4052 -2.42532 61.153C-2.99642 60.9008 -3.64291 60.8869 -4.22407 61.1144L-5.70302 57.3208C-5.12299 57.0893 -4.65725 56.6348 -4.40771 56.0568C-4.15817 55.4788 -4.14513 54.8243 -4.37146 54.2366C-4.60041 53.65 -5.04978 53.1789 -5.62125 52.9265C-6.19273 52.6741 -6.83978 52.6609 -7.42084 52.8899L-8.89471 49.1066C-8.31381 48.8761 -7.84719 48.4217 -7.59748 47.8433C-7.34777 47.265 -7.33542 46.6099 -7.56315 46.0223C-7.7921 45.4357 -8.24147 44.9646 -8.81295 44.7122C-9.38442 44.4598 -10.0315 44.4467 -10.6125 44.6756L-12 41.1082L87.6386 1.3938L89.0261 4.99205C88.4498 5.22371 87.9869 5.67567 87.7376 6.25005C87.4884 6.82443 87.4729 7.47499 87.6945 8.06084Z" fill="#F9B84E" stroke="#043866" stroke-miterlimit="10"/>
<path d="M77.3709 9.61141L1.0166 40.0161L9.1417 60.8891L85.496 30.4844L77.3709 9.61141Z" fill="#1471D0" stroke="#043866" stroke-miterlimit="10"/>
<path d="M95.7597 48.7937C95.8408 49.4177 96.1625 49.984 96.6547 50.3692C97.1469 50.7543 97.7696 50.9271 98.3872 50.8499L98.8955 54.885C98.5831 54.9166 98.28 55.0109 98.0041 55.1624C97.7283 55.314 97.4851 55.5198 97.2888 55.7676C97.0926 56.0155 96.9473 56.3005 96.8614 56.6059C96.7755 56.9114 96.7508 57.2311 96.7887 57.5463C96.8266 57.8615 96.9264 58.1659 97.0821 58.4416C97.2379 58.7173 97.4465 58.9588 97.6957 59.1519C97.945 59.345 98.2298 59.4858 98.5336 59.566C98.8374 59.6463 99.1539 59.6644 99.4647 59.6193L99.9729 63.6493C99.6605 63.6809 99.3575 63.7752 99.0816 63.9267C98.8057 64.0783 98.5625 64.2841 98.3663 64.5319C98.1701 64.7798 98.0248 65.0648 97.9389 65.3703C97.853 65.6757 97.8283 65.9954 97.8662 66.3106C97.9041 66.6258 98.0038 66.9302 98.1596 67.2059C98.3153 67.4816 98.5239 67.7231 98.7732 67.9162C99.0224 68.1093 99.3073 68.2501 99.611 68.3303C99.9148 68.4106 100.231 68.4287 100.542 68.3836L101 72.1926L-5.32742 85.2491L-5.78483 81.4401C-5.16784 81.358 -4.60794 81.0327 -4.22714 80.5349C-3.84634 80.037 -3.67552 79.4072 -3.75191 78.7825C-3.8318 78.1589 -4.15246 77.5926 -4.64383 77.2074C-5.13521 76.8221 -5.75736 76.6492 -6.37438 76.7264L-6.88261 72.6912C-6.26604 72.6104 -5.70615 72.2861 -5.32524 71.7891C-4.94433 71.2921 -4.77336 70.6629 -4.84969 70.0388C-4.88619 69.7277 -4.98306 69.427 -5.13473 69.1538C-5.28641 68.8807 -5.4899 68.6406 -5.73354 68.4471C-5.97718 68.2537 -6.25618 68.1109 -6.55453 68.0267C-6.85289 67.9426 -7.16472 67.9189 -7.47216 67.957L-7.98039 63.9269C-7.3634 63.8449 -6.80349 63.5195 -6.42269 63.0217C-6.04189 62.5239 -5.87107 61.894 -5.94746 61.2693C-6.02377 60.6422 -6.34249 60.0712 -6.83392 59.681C-7.32535 59.2909 -7.94951 59.1135 -8.56994 59.1875L-9.02734 55.3836L97.2945 42.3271L97.7519 46.1361C97.143 46.2292 96.5939 46.5591 96.2218 47.0554C95.8497 47.5518 95.6839 48.1755 95.7597 48.7937V48.7937Z" fill="#66CCB4" stroke="#043866" stroke-miterlimit="10"/>
<path d="M85.3889 47.6651L3.92773 57.6648L6.59996 79.9339L88.0611 69.9342L85.3889 47.6651Z" fill="#1471D0" stroke="#043866" stroke-miterlimit="10"/>
</svg>
