<svg width="144" height="52" viewBox="0 0 144 52" fill="none" xmlns="http://www.w3.org/2000/svg">
<g clip-path="url(#clip0_566_8224)">
<path d="M137.358 8.63451C137.43 9.44476 137.82 10.1934 138.444 10.7159C139.067 11.2385 139.872 11.4921 140.683 11.4213L141.138 16.626C140.727 16.6485 140.325 16.7534 139.956 16.9345C139.586 17.1155 139.257 17.369 138.987 17.6799C138.718 17.9907 138.514 18.3525 138.387 18.7439C138.26 19.1352 138.213 19.5481 138.249 19.9579C138.285 20.3678 138.403 20.7662 138.596 21.1296C138.788 21.493 139.052 21.8139 139.372 22.0732C139.691 22.3325 140.059 22.5249 140.455 22.6391C140.85 22.7532 141.264 22.7867 141.673 22.7376L142.129 27.9487C141.718 27.9713 141.316 28.0762 140.946 28.2573C140.577 28.4383 140.248 28.6918 139.978 29.0026C139.709 29.3135 139.504 29.6753 139.377 30.0667C139.251 30.458 139.204 30.8709 139.239 31.2807C139.275 31.6906 139.393 32.089 139.586 32.4524C139.779 32.8158 140.043 33.1366 140.362 33.396C140.682 33.6553 141.05 33.8477 141.445 33.9619C141.841 34.076 142.255 34.1095 142.663 34.0604L143.093 38.9767L4.28423 51.1209L3.85411 46.2046C4.2649 46.1821 4.66695 46.0771 5.03638 45.8961C5.4058 45.715 5.73506 45.4616 6.00457 45.1507C6.27409 44.8399 6.47836 44.4781 6.60524 44.0867C6.73212 43.6954 6.77903 43.2825 6.74317 42.8727C6.70732 42.4628 6.58943 42.0644 6.39652 41.701C6.2036 41.3376 5.9396 41.0167 5.62021 40.7574C5.30081 40.4981 4.93254 40.3057 4.53729 40.1915C4.14204 40.0774 3.72787 40.0439 3.31941 40.093L2.86405 34.8883C3.27484 34.8657 3.6769 34.7608 4.04632 34.5797C4.41575 34.3987 4.745 34.1452 5.01452 33.8344C5.28403 33.5235 5.4883 33.1617 5.61518 32.7703C5.74207 32.379 5.78898 31.9661 5.75312 31.5563C5.71726 31.1464 5.59938 30.748 5.40646 30.3846C5.21355 30.0212 4.94955 29.7004 4.63015 29.4411C4.31076 29.1817 3.94249 28.9893 3.54724 28.8751C3.15198 28.761 2.73782 28.7275 2.32935 28.7766L1.874 23.5719C2.28479 23.5493 2.68684 23.4444 3.05627 23.2633C3.42569 23.0823 3.75495 22.8288 4.02446 22.518C4.29398 22.2071 4.49825 21.8453 4.62513 21.454C4.75201 21.0626 4.79892 20.6497 4.76306 20.2399C4.72721 19.8301 4.60932 19.4316 4.41641 19.0682C4.22349 18.7049 3.95949 18.384 3.6401 18.1247C3.3207 17.8654 2.95243 17.6729 2.55718 17.5588C2.16193 17.4446 1.74776 17.4111 1.3393 17.4602L0.90918 12.5439L139.718 0.39972L140.148 5.31598C139.339 5.38683 138.59 5.77602 138.067 6.39817C137.544 7.02031 137.289 7.82459 137.358 8.63451V8.63451Z" fill="#005DAA" stroke="#043866" stroke-width="0.643422" stroke-miterlimit="10"/>
<path d="M123.919 6.73511L17.5684 16.0396L20.0835 44.7872L126.434 35.4827L123.919 6.73511Z" fill="#66CCB4" stroke="#043866" stroke-width="0.643422" stroke-miterlimit="10"/>
<path d="M41.7617 28.7639C41.4753 28.6101 41.1989 28.5167 40.9324 28.4835C40.666 28.4503 40.4907 28.4374 40.4066 28.4448C40.3693 28.448 40.3047 28.4631 40.2129 28.49C40.1297 28.5067 40.0554 28.5179 39.99 28.5236L39.7262 28.5749L39.8008 29.1049C39.8554 29.5143 39.9074 29.8392 39.9567 30.0796C39.9941 30.2928 40.0243 30.4219 40.047 30.467C40.0791 30.5113 40.1419 30.5293 40.2353 30.5211C40.3568 30.5105 40.5726 30.4493 40.8828 30.3374C41.2024 30.2247 41.457 30.1225 41.6466 30.0306C41.8355 29.9293 42.0117 29.7916 42.1752 29.6172C42.3124 29.464 42.379 29.3641 42.3749 29.3174C42.3725 29.2894 42.3548 29.2485 42.3218 29.195C42.2434 29.0512 42.0567 28.9075 41.7617 28.7639ZM40.6809 25.2864C40.3681 25.1537 40.0296 25.1033 39.6653 25.1352C39.5999 25.1409 39.5213 25.1572 39.4295 25.1841L39.2651 25.2408L39.3941 26.232C39.4879 26.8732 39.5462 27.2164 39.5689 27.2615L39.5829 27.2603C39.6577 27.2537 39.9129 27.1043 40.3485 26.8121C40.7842 26.5198 41.0667 26.3068 41.1962 26.1731L41.4672 25.8812L41.2502 25.6601C41.0657 25.488 40.8759 25.3634 40.6809 25.2864ZM38.2154 24.2173C38.3433 24.0649 38.4633 23.9838 38.5754 23.974C38.6501 23.9675 38.737 23.9928 38.8362 24.05C38.9259 24.108 39.1954 24.1221 39.6446 24.0922C40.5414 24.0138 41.3152 24.252 41.9662 24.8068C42.3124 25.106 42.501 25.4331 42.5321 25.788C42.5451 25.9375 42.5298 26.0847 42.486 26.2297C42.4414 26.3654 42.3343 26.5395 42.1646 26.752C42.0035 26.9544 41.8514 27.0994 41.7085 27.1872C41.5656 27.2751 41.5059 27.3462 41.5295 27.4006C41.5344 27.4566 41.6784 27.5429 41.9616 27.6593C42.4084 27.8178 42.7672 28.0453 43.0379 28.3416C43.317 28.6278 43.4705 28.9297 43.4983 29.2473C43.5187 29.4809 43.4632 29.7069 43.3317 29.9255C43.2173 30.1238 43.0332 30.3328 42.7795 30.5527C42.5343 30.7624 42.2756 30.9262 42.0036 31.0441C41.4339 31.3105 40.9503 31.4846 40.5527 31.5664C40.2383 31.6316 40.0369 31.6962 39.9484 31.7605C39.8522 31.8442 39.7527 31.8905 39.65 31.8995C39.4912 31.9134 39.3445 31.8509 39.21 31.7121C39.0747 31.5639 39.0029 31.4431 38.9948 31.3497C38.9694 31.0602 38.832 30.0274 38.5825 28.2514C38.3322 26.4661 38.1687 25.3509 38.0921 24.9058C38.0754 24.8225 38.0626 24.7295 38.0536 24.6268C38.0422 24.496 38.0961 24.3595 38.2154 24.2173ZM44.7702 25.4651C44.8376 25.3745 44.946 25.3227 45.0955 25.3096C45.3103 25.2908 45.485 25.3508 45.6195 25.4897C45.6931 25.5774 45.7523 25.7698 45.7971 26.0671C45.8505 26.3542 45.941 27.0664 46.0687 28.2036L46.3631 30.7616L46.1945 30.9316C46.0913 31.0442 45.9744 31.1062 45.8436 31.1176C45.6475 31.1348 45.4839 31.0408 45.3531 30.8358C45.2888 30.7473 45.1539 29.8508 44.9483 28.1463C44.8378 27.2053 44.7678 26.5666 44.7383 26.2303C44.6999 25.7913 44.7106 25.5362 44.7702 25.4651ZM44.3965 23.7753C44.5175 23.6518 44.6387 23.5847 44.7601 23.5741C44.9095 23.561 45.0503 23.6099 45.1824 23.7207C45.3144 23.8315 45.387 23.9616 45.4001 24.1111C45.4131 24.2605 45.3647 24.406 45.2547 24.5474C45.1285 24.7184 44.9813 24.8113 44.8131 24.826C44.5983 24.8448 44.4254 24.7517 44.2945 24.5467C44.2405 24.4667 44.209 24.3753 44.2 24.2726C44.1853 24.1044 44.2508 23.9387 44.3965 23.7753ZM50.0956 27.5265C50.1897 27.3112 50.2261 27.0821 50.2049 26.8392C50.1869 26.6337 50.1251 26.465 50.0194 26.3331C49.9138 26.2011 49.7768 26.1425 49.6087 26.1572C49.4779 26.1687 49.3125 26.2678 49.1123 26.4548C48.9207 26.6316 48.7689 26.8331 48.657 27.0594C48.4066 27.5331 48.3039 28.0268 48.3489 28.5406C48.3799 28.8955 48.4842 29.0653 48.6617 29.0497C48.8391 29.0342 49.0915 28.8521 49.4186 28.5035C49.7543 28.1447 49.98 27.819 50.0956 27.5265ZM49.0032 25.2077C49.2778 25.1178 49.4757 25.0676 49.5972 25.057C49.8961 25.0308 50.2247 25.1291 50.5831 25.3519C50.7728 25.4765 50.891 25.5367 50.9377 25.5327C50.9938 25.5278 51.1022 25.5842 51.2631 25.7019C51.4232 25.8102 51.5082 25.9204 51.518 26.0325C51.5196 26.0512 51.5184 26.1454 51.5145 26.3152C51.5057 26.6454 51.4648 26.9314 51.3919 27.1731C51.342 27.3563 51.32 27.5888 51.3258 27.8707C51.341 28.1517 51.4046 28.9321 51.5165 30.2119C51.6342 31.557 51.6911 32.4227 51.6873 32.8089C51.6842 33.2045 51.6253 33.5532 51.5105 33.8551C51.3941 34.1382 51.1946 34.3863 50.912 34.5993C50.6388 34.8114 50.3527 34.9306 50.0538 34.9567C49.5868 34.9976 49.1793 34.8591 48.8315 34.5413C48.658 34.387 48.5663 34.2538 48.5565 34.1417C48.5508 34.0764 48.5506 34.0199 48.5558 33.9724C48.5687 33.6889 48.6825 33.5377 48.8974 33.5189C49.0468 33.5059 49.2215 33.5659 49.4214 33.699C49.6018 33.8244 49.7761 33.8797 49.9442 33.865C50.2431 33.8389 50.4438 33.6048 50.5464 33.1629C50.6015 32.9322 50.5943 32.4198 50.5248 31.6258L50.4697 30.9953L50.2835 29.1902L49.9553 29.4731C49.7101 29.6828 49.4927 29.8336 49.303 29.9255C49.0955 30.0283 48.9934 30.0985 48.9967 30.1358C49 30.1732 48.8942 30.2013 48.6793 30.2201C48.2964 30.2536 47.9573 30.0903 47.6623 29.7302C47.429 29.4305 47.2927 29.0566 47.2535 28.6082C47.1938 27.9263 47.3316 27.2412 47.6667 26.553C48.0103 25.8547 48.4558 25.4062 49.0032 25.2077ZM56.101 22.0171C56.1818 21.9724 56.2689 21.946 56.3623 21.9378C56.5024 21.9255 56.6351 21.9892 56.7603 22.1289C56.8322 22.1979 56.8794 22.3067 56.9018 22.4553C56.9327 22.5938 56.9694 22.9059 57.0119 23.3917C57.0749 24.1109 57.125 24.4689 57.1624 24.4657C57.2091 24.4616 57.4626 24.2935 57.923 23.9614C58.3928 23.6286 58.7192 23.3788 58.9023 23.2122C59.0334 23.0972 59.263 22.87 59.591 22.5307C59.8236 22.2844 60.0193 22.1544 60.1781 22.1405C60.2995 22.1298 60.4173 22.1854 60.5315 22.3072C60.6254 22.412 60.6768 22.5157 60.6858 22.6185C60.7021 22.8053 60.5471 23.0777 60.2208 23.4357C59.7649 23.9274 59.0583 24.5116 58.101 25.1883C57.712 25.4765 57.5188 25.6346 57.5212 25.6626C57.5253 25.7093 57.6828 25.8415 57.9936 26.059C58.263 26.2331 58.7625 26.6177 59.4923 27.2127C60.2221 27.8077 60.589 28.1286 60.5931 28.1753C60.5955 28.2033 60.6949 28.317 60.8912 28.5163C61.0765 28.6978 61.1769 28.8772 61.1924 29.0547C61.2178 29.3443 61.0576 29.5042 60.712 29.5344C60.5812 29.5459 60.4713 29.5272 60.3824 29.4786C60.3027 29.429 60.1402 29.2927 59.8948 29.0694C59.486 28.7004 59.003 28.2909 58.446 27.8407C57.8974 27.3805 57.5998 27.1524 57.5531 27.1564C57.5251 27.1589 57.5233 27.3002 57.5478 27.5805C57.6059 28.2437 57.679 28.7032 57.7673 28.959C57.7681 28.9684 57.7689 28.9777 57.7697 28.9871C57.7799 28.9956 57.7854 29.0045 57.7862 29.0139C57.7944 29.1073 57.7473 29.2149 57.645 29.3368C57.5521 29.4579 57.4461 29.5378 57.3271 29.5764C57.1996 29.6252 57.0652 29.5946 56.9238 29.4846C56.7824 29.3747 56.6716 29.1302 56.5913 28.7513C56.3458 27.5586 56.1172 25.7525 55.9055 23.3332C55.8508 22.7073 55.8337 22.3511 55.8544 22.2646C55.8844 22.1773 55.9666 22.0948 56.101 22.0171ZM62.4217 23.9208C62.489 23.8302 62.5974 23.7784 62.7469 23.7653C62.9617 23.7465 63.1364 23.8065 63.2709 23.9454C63.3445 24.0331 63.4037 24.2255 63.4485 24.5228C63.5019 24.8099 63.5924 25.5221 63.7202 26.6593L64.0145 29.2173L63.8459 29.3873C63.7428 29.4999 63.6258 29.5619 63.4951 29.5733C63.2989 29.5905 63.1354 29.4965 63.0045 29.2915C62.9403 29.203 62.8053 28.3065 62.5997 26.602C62.4892 25.661 62.4192 25.0223 62.3898 24.686C62.3514 24.247 62.362 23.9919 62.4217 23.9208ZM62.0479 22.231C62.1689 22.1075 62.2901 22.0404 62.4115 22.0298C62.561 22.0167 62.7017 22.0656 62.8338 22.1764C62.9658 22.2872 63.0384 22.4173 63.0515 22.5668C63.0646 22.7162 63.0161 22.8617 62.9061 23.0031C62.7799 23.1741 62.6327 23.267 62.4646 23.2817C62.2497 23.3005 62.0769 23.2074 61.946 23.0024C61.8919 22.9224 61.8604 22.831 61.8514 22.7283C61.8367 22.5601 61.9022 22.3944 62.0479 22.231ZM67.3347 25.1429C67.1856 25.0524 67.0223 25.0149 66.8449 25.0305C66.6113 25.0509 66.4106 25.1767 66.2425 25.4079C66.0838 25.6383 65.9886 25.9478 65.9567 26.3365C65.9417 26.4884 65.9424 26.6578 65.9588 26.8446C65.9947 27.2556 66.0847 27.6384 66.2287 27.9929C66.3726 28.3474 66.5147 28.5185 66.6548 28.5062C66.935 28.4817 67.2244 28.1317 67.523 27.4561C67.8207 26.7711 67.9561 26.2745 67.9292 25.9663C67.9161 25.8168 67.8512 25.6672 67.7346 25.5174C67.6265 25.3574 67.4932 25.2326 67.3347 25.1429ZM68.1517 21.5699C68.1287 21.0919 68.1679 20.7873 68.2694 20.656C68.3708 20.5248 68.4963 20.4526 68.6458 20.4396C68.8139 20.4248 68.9551 20.4784 69.0693 20.6002C69.1428 20.6879 69.1916 20.8154 69.2157 20.9827C69.2491 21.1492 69.3009 21.6341 69.3712 22.4375C69.5804 24.8288 69.9218 26.7944 70.3954 28.3343C70.4926 28.6929 70.5421 28.8815 70.5437 28.9002C70.5486 28.9562 70.5241 29.0525 70.4702 29.189C70.3898 29.3466 70.3088 29.4431 70.2272 29.4785C70.2094 29.4895 70.1817 29.4966 70.1444 29.4999C70.0323 29.5097 69.9118 29.4779 69.7831 29.4044C69.6636 29.3301 69.5799 29.2339 69.5319 29.1158C69.4603 28.9432 69.3519 28.6185 69.2067 28.1418C69.0699 27.6549 68.9967 27.3554 68.9869 27.2433C68.9762 27.1218 68.9522 27.0628 68.9149 27.066C68.8588 27.0709 68.7572 27.254 68.6099 27.6151C68.1074 28.8639 67.4918 29.5202 66.7632 29.5839C66.5857 29.5994 66.3952 29.5737 66.1917 29.5068C65.861 29.3852 65.5721 29.0951 65.3249 28.6367C65.0871 28.1775 64.942 27.6489 64.8897 27.0511C64.8717 26.8456 64.8677 26.6389 64.8778 26.4309C64.9006 25.723 65.0897 25.1417 65.4453 24.687C65.8008 24.2323 66.2401 23.9821 66.7633 23.9363C67.0902 23.9077 67.4054 23.9601 67.7089 24.0936C67.9225 24.169 68.0574 24.2043 68.1134 24.1994L68.1415 24.197C68.1756 24.1563 68.1906 23.8444 68.1867 23.2612C68.192 22.6771 68.1804 22.1134 68.1517 21.5699ZM76.7883 20.4331C76.8809 20.4156 77.1654 20.386 77.6418 20.3443C79.51 20.1809 80.5119 20.1215 80.6476 20.1661C80.735 20.1961 80.8116 20.2647 80.8774 20.3719C80.9424 20.4697 80.9795 20.57 80.9884 20.6728C80.9934 20.7288 80.992 20.7666 80.9842 20.7861C80.9421 20.9498 80.8717 21.0595 80.773 21.1152C80.6743 21.1709 80.4662 21.2126 80.1486 21.2404C80.1019 21.2445 80.0225 21.2514 79.9104 21.2613C79.7975 21.2617 79.7084 21.2648 79.643 21.2705L78.5896 21.3344L79.1352 27.5696L78.9677 27.7537C78.8569 27.8858 78.7408 27.9571 78.6193 27.9677C78.4886 27.9792 78.3572 27.9295 78.2251 27.8187L78.0258 27.6385L77.851 25.4794C77.8338 25.2833 77.8073 24.9797 77.7713 24.5687C77.7447 24.1569 77.7232 23.8575 77.7069 23.6707C77.6881 23.4559 77.6609 23.1994 77.6255 22.9013C77.5993 22.6024 77.5838 22.4249 77.5789 22.3688L77.4967 21.4301L77.0801 21.5089C76.8864 21.5541 76.4938 21.6402 75.9026 21.7672C75.5797 21.8425 75.3529 21.8859 75.2221 21.8973C74.9325 21.9227 74.7367 21.8363 74.6347 21.6381C74.6095 21.565 74.5952 21.5098 74.5919 21.4724C74.5813 21.351 74.6038 21.2314 74.6594 21.1135C74.715 20.9957 74.7886 20.9234 74.8804 20.8965C75.2195 20.7916 75.8555 20.6371 76.7883 20.4331ZM82.7413 22.1431C82.8087 22.0525 82.9171 22.0006 83.0666 21.9876C83.2814 21.9688 83.4561 22.0288 83.5906 22.1676C83.6642 22.2553 83.7234 22.4478 83.7682 22.7451C83.8215 23.0322 83.9121 23.7443 84.0398 24.8815L84.3342 27.4395L84.1655 27.6096C84.0624 27.7221 83.9455 27.7841 83.8147 27.7956C83.6186 27.8127 83.455 27.7188 83.3241 27.5138C83.2599 27.4253 83.125 26.5287 82.9194 24.8242C82.8088 23.8832 82.7388 23.2446 82.7094 22.9083C82.671 22.4693 82.6816 22.2142 82.7413 22.1431ZM82.3676 20.4533C82.4885 20.3297 82.6097 20.2627 82.7312 20.252C82.8806 20.239 83.0214 20.2878 83.1535 20.3986C83.2855 20.5095 83.3581 20.6396 83.3712 20.789C83.3842 20.9385 83.3358 21.0839 83.2258 21.2253C83.0996 21.3964 82.9524 21.4893 82.7842 21.504C82.5694 21.5228 82.3965 21.4297 82.2656 21.2246C82.2116 21.1446 82.18 21.0533 82.1711 20.9505C82.1563 20.7824 82.2218 20.6166 82.3676 20.4533ZM86.5547 20.9623C86.6542 20.916 86.7646 20.8875 86.8861 20.8769C87.185 20.8507 87.4801 20.9425 87.7714 21.1524C88.0713 21.352 88.3373 21.6488 88.5694 22.0427C88.7356 22.3293 88.8225 22.5147 88.8298 22.5987C88.8364 22.6735 88.7765 22.7964 88.6503 22.9674C88.5232 23.1291 88.4224 23.2133 88.3476 23.2198C88.1421 23.2378 87.8823 23.0111 87.5681 22.5397C87.3392 22.1832 87.1547 22.0111 87.0146 22.0234C86.9025 22.0332 86.773 22.1669 86.6261 22.4244C86.2828 23.0192 86.1541 23.807 86.2399 24.7879C86.2546 24.956 86.2703 25.0817 86.287 25.165C86.3685 25.6661 86.47 26.0196 86.5916 26.2255C86.7123 26.422 86.8754 26.5112 87.0809 26.4933C87.3518 26.4696 87.7205 26.2726 88.187 25.9023C88.4687 25.68 88.661 25.5644 88.7637 25.5554C88.8105 25.5513 88.8482 25.5527 88.8771 25.5596C89.0298 25.5839 89.1505 25.6721 89.2391 25.8244C89.3049 25.9316 89.3399 26.0085 89.344 26.0553C89.3481 26.102 89.3266 26.1791 89.2795 26.2868C89.1554 26.5894 88.7659 26.9247 88.111 27.2926C87.7971 27.4707 87.4907 27.5728 87.1918 27.599C86.8088 27.6325 86.4619 27.5405 86.1511 27.3229C85.8496 27.1046 85.6092 26.7773 85.4298 26.3412C85.3237 26.0964 85.24 25.6236 85.1787 24.9231C85.1084 24.1197 85.1345 23.4492 85.2568 22.9113C85.3877 22.3634 85.6279 21.8811 85.9774 21.4646C86.2075 21.1904 86.4 21.0229 86.5547 20.9623ZM89.975 18.3899C90.0858 18.2579 90.2159 18.1853 90.3654 18.1722C90.4961 18.1608 90.6174 18.202 90.7291 18.2957C90.8206 18.3724 90.8969 18.7611 90.9582 19.4617L91.0305 20.2884L91.1936 22.1519L91.3556 22.0671C91.8063 21.8395 92.3487 21.4767 92.9829 20.9788C93.371 20.6813 93.6538 20.5248 93.8313 20.5093C93.9621 20.4978 94.0693 20.5402 94.153 20.6364C94.2554 20.731 94.3124 20.8437 94.3238 20.9744C94.3418 21.18 94.1979 21.4184 93.8922 21.6899C93.5951 21.9512 93.0888 22.2967 92.3734 22.7264C91.7923 23.0784 91.4809 23.2845 91.4391 23.3447C91.4306 23.3548 91.4272 23.3692 91.4288 23.3879C91.4337 23.444 91.5899 23.5621 91.8975 23.7422C92.5313 24.101 93.3065 24.6779 94.2232 25.4731C94.6101 25.8063 94.861 26.0385 94.976 26.1696C95.1003 26.2999 95.167 26.4165 95.176 26.5192C95.1891 26.6687 95.1487 26.7993 95.055 26.911C94.9697 27.0126 94.8524 27.0699 94.7029 27.083C94.6002 27.092 94.4586 27.0338 94.2782 26.9084C94.0978 26.783 93.7236 26.4863 93.1555 26.0183C92.303 25.3116 91.7738 24.9108 91.5678 24.8159L91.3186 24.7106L91.4899 26.0228L91.6472 27.3362L91.4809 27.5343C91.3701 27.6664 91.2493 27.7381 91.1186 27.7496C90.9224 27.7667 90.7534 27.6639 90.6115 27.441C90.5457 27.3338 90.4519 26.5843 90.3301 25.1924C90.2386 24.1462 90.1149 22.571 89.959 20.4668C89.896 19.5311 89.8618 18.9787 89.8564 18.8098C89.8595 18.6307 89.8991 18.4907 89.975 18.3899ZM98.6148 21.2626C98.5055 21.1969 98.3902 21.1693 98.2687 21.18C98.1286 21.1922 97.9798 21.2664 97.8223 21.4026C97.7021 21.5354 97.5753 21.7536 97.4418 22.0571C97.3169 22.3504 97.2571 22.5815 97.2625 22.7505L97.2693 22.9899L97.7165 22.9367C97.9951 22.8935 98.2377 22.8158 98.4444 22.7035C98.6043 22.5954 98.7478 22.4605 98.8749 22.2988C99.0011 22.1277 99.0601 21.9955 99.052 21.9021C99.043 21.7993 98.9903 21.6816 98.894 21.5488C98.807 21.4152 98.7139 21.3198 98.6148 21.2626ZM96.8831 20.8352C97.2667 20.3781 97.692 20.1291 98.1591 20.0883C98.3739 20.0695 98.5929 20.0974 98.8159 20.172C99.1161 20.2681 99.3546 20.4119 99.5313 20.6036C99.7175 20.7944 99.8825 21.067 100.026 21.4215C100.074 21.5303 100.104 21.6595 100.117 21.8089C100.157 22.2666 99.9882 22.705 99.6107 23.1239C99.2332 23.5429 98.7449 23.8256 98.1459 23.9721C97.925 24.0291 97.7491 24.0633 97.6184 24.0748C97.5343 24.0821 97.4778 24.0823 97.449 24.0755L97.1779 24.0427L97.2318 24.6592C97.2686 25.0796 97.352 25.3876 97.4821 25.5833C97.5606 25.727 97.6248 25.8155 97.6747 25.8488C97.7239 25.8727 97.824 25.8875 97.9751 25.8931L98.0872 25.8833C98.274 25.867 98.5631 25.7287 98.9545 25.4686C99.391 25.1857 99.684 25.0377 99.8334 25.0246C99.9455 25.0148 100.048 25.0529 100.14 25.139C100.252 25.2327 100.313 25.345 100.325 25.4758C100.351 25.7747 100.015 26.1335 99.3176 26.5522C99.0309 26.7185 98.8285 26.8256 98.7104 26.8736C98.5914 26.9122 98.3918 26.9438 98.1115 26.9683C97.8407 26.992 97.653 26.999 97.5486 26.9894C97.4528 26.9695 97.3303 26.9143 97.1812 26.8238C96.9736 26.7102 96.7667 26.4977 96.5606 26.1863C96.4094 25.9642 96.3141 25.789 96.2746 25.6607C96.2352 25.5324 96.1907 25.2397 96.1414 24.7829L96.1119 24.4466C95.9697 22.8212 96.2268 21.6174 96.8831 20.8352ZM102.904 18.4872C102.922 18.3726 102.989 18.2773 103.105 18.2013C103.22 18.1253 103.344 18.0816 103.474 18.0702C103.699 18.0505 103.89 18.1374 104.048 18.3306C104.111 18.4098 104.146 18.482 104.152 18.5474C104.156 18.5941 104.148 18.6701 104.129 18.7753C104.096 18.9382 104.084 19.1699 104.091 19.4704L104.1 19.8932L104.503 19.8157C104.567 19.8006 104.646 19.789 104.74 19.7808C104.861 19.7702 104.986 19.8063 105.116 19.8891C105.256 19.9804 105.334 20.1194 105.35 20.3063C105.358 20.3903 105.351 20.4756 105.33 20.5621C105.271 20.7462 105.001 20.8874 104.52 20.986L104.119 21.0776L104.114 21.5016C104.086 22.69 104.125 23.8961 104.232 25.1198C104.277 25.6335 104.296 25.952 104.288 26.075C104.279 26.1887 104.236 26.2913 104.159 26.3828C104.058 26.514 103.942 26.5853 103.811 26.5968C103.69 26.6074 103.559 26.5624 103.418 26.4617C103.317 26.3858 103.253 26.302 103.227 26.2102C103.2 26.1184 103.158 25.8585 103.102 25.4305L103.076 25.1362C103.032 24.6318 102.993 23.967 102.958 23.1417C102.933 22.3156 102.929 21.7841 102.946 21.5473L102.966 21.2914L102.578 21.3818C102.283 21.4453 102.052 21.4984 101.886 21.5412C101.85 21.5538 101.799 21.5629 101.733 21.5687C101.631 21.5777 101.518 21.531 101.396 21.4287C101.254 21.3094 101.174 21.147 101.156 20.9415C101.136 20.7173 101.184 20.5672 101.3 20.4912C101.415 20.4058 101.7 20.3291 102.155 20.261C102.638 20.1812 102.888 20.1311 102.905 20.1108C102.931 20.0896 102.933 19.8401 102.91 19.362C102.887 18.884 102.885 18.5924 102.904 18.4872Z" fill="black"/>
</g>
<defs>
<clipPath id="clip0_566_8224">
<rect width="139.983" height="39.3677" fill="white" transform="translate(0.55957 12.2515) rotate(-5)"/>
</clipPath>
</defs>
</svg>
