<svg width="761" height="742" viewBox="0 0 761 742" fill="none" xmlns="http://www.w3.org/2000/svg">
<path d="M567.703 107.759C561.077 100.192 558.922 89.1238 563.124 79.8625C565.979 73.6506 566.733 66.6481 565.387 59.928C563.986 53.2079 560.538 47.1654 555.527 42.7042C553.372 40.7841 551.864 38.1864 551.163 35.3064C550.463 32.4263 550.625 29.3769 551.648 26.6097C552.564 24.0685 552.941 21.3014 552.726 18.5908C552.51 15.8801 551.756 13.226 550.463 10.8542C549.17 8.48234 547.392 6.44936 545.291 4.81168C543.136 3.23048 540.712 2.15753 538.18 1.64928C535.594 1.14104 532.954 1.25397 530.475 1.9881C527.943 2.66576 525.627 3.96463 523.579 5.71525C521.586 7.46587 519.97 9.66824 518.838 12.153C517.707 14.6377 517.168 17.3484 517.168 20.059C517.168 22.7132 517.707 25.3674 518.784 27.7956C521.263 33.4993 519.862 39.9935 515.606 44.3983C511.296 48.8596 508.44 54.6197 507.309 60.888C506.232 67.1564 506.986 73.5941 509.518 79.3542C511.565 83.9849 512.212 89.1238 511.511 94.0933C510.757 99.1193 508.656 103.806 505.37 107.534C498.15 115.665 494.11 126.282 494.002 137.407C493.786 161.069 511.942 181.285 534.462 182.415C542.867 182.867 551.217 180.608 558.437 176.09C565.656 171.516 571.421 164.796 574.976 156.833C578.532 148.814 579.771 139.892 578.478 131.139C577.131 122.386 573.414 114.254 567.703 107.759Z" fill="#5A8A15" stroke="#043866" stroke-miterlimit="10" stroke-linecap="round"/>
<path d="M536.4 52.1349V249.503V52.1349Z" fill="#5A8A15"/>
<path d="M536.4 52.1349V249.503" stroke="#043866" stroke-miterlimit="10" stroke-linecap="round"/>
<path d="M536.401 159.261L513.02 134.696L536.401 159.261Z" fill="#5A8A15"/>
<path d="M536.401 159.261L513.02 134.696" stroke="#043866" stroke-miterlimit="10" stroke-linecap="round"/>
<path d="M536.4 128.767L550.408 114.084L536.4 128.767Z" fill="#5A8A15"/>
<path d="M536.4 128.767L550.408 114.084" stroke="#043866" stroke-miterlimit="10" stroke-linecap="round"/>
<path d="M536.401 75.5706L524.01 62.5822L536.401 75.5706Z" fill="#5A8A15"/>
<path d="M536.401 75.5706L524.01 62.5822" stroke="#043866" stroke-miterlimit="10" stroke-linecap="round"/>
<path d="M536.4 75.5706L550.246 61.0574L536.4 75.5706Z" fill="#5A8A15"/>
<path d="M536.4 75.5706L550.246 61.0574" stroke="#043866" stroke-miterlimit="10" stroke-linecap="round"/>
<path d="M47.7032 137.759C41.0766 130.192 38.9216 119.124 43.1238 109.862C45.9792 103.651 46.7334 96.6481 45.3865 89.928C43.9858 83.2079 40.5378 77.1654 35.5274 72.7042C33.3724 70.7841 31.8639 68.1864 31.1635 65.3063C30.4631 62.4263 30.6247 59.3769 31.6484 56.6097C32.5642 54.0685 32.9414 51.3014 32.7259 48.5908C32.5104 45.8801 31.7561 43.226 30.4631 40.8542C29.1701 38.4823 27.3923 36.4494 25.2911 34.8117C23.1361 33.2305 20.7117 32.1575 18.1796 31.6493C15.5936 31.141 12.9537 31.254 10.4755 31.9881C7.94332 32.6658 5.62666 33.9646 3.5794 35.7152C1.58602 37.4659 -0.030264 39.6682 -1.16164 42.153C-2.29302 44.6377 -2.83176 47.3484 -2.83176 50.059C-2.83176 52.7132 -2.29301 55.3674 -1.21551 57.7956C1.26275 63.4993 -0.138014 69.9935 -4.39416 74.3983C-8.70417 78.8596 -11.5595 84.6197 -12.6909 90.888C-13.7684 97.1564 -13.0141 103.594 -10.482 109.354C-8.43476 113.985 -7.78828 119.124 -8.48866 124.093C-9.24291 129.119 -11.3441 133.806 -14.6304 137.534C-21.8497 145.665 -25.8904 156.282 -25.9981 167.407C-26.2136 191.069 -8.05767 211.285 14.4622 212.415C22.8667 212.867 31.2174 210.608 38.4366 206.09C45.6559 201.516 51.4206 194.796 54.9764 186.833C58.5321 178.814 59.7713 169.892 58.4783 161.139C57.1314 152.386 53.414 144.254 47.7032 137.759Z" fill="#5A8A15" stroke="#043866" stroke-miterlimit="10" stroke-linecap="round"/>
<path d="M16.4004 82.1349V279.503Z" fill="#5A8A15"/>
<path d="M16.4004 82.1349V279.503" stroke="#043866" stroke-miterlimit="10" stroke-linecap="round"/>
<path d="M16.4014 189.261L-6.98047 164.696Z" fill="#5A8A15"/>
<path d="M16.4014 189.261L-6.98047 164.696" stroke="#043866" stroke-miterlimit="10" stroke-linecap="round"/>
<path d="M16.4004 158.767L30.4079 144.084Z" fill="#5A8A15"/>
<path d="M16.4004 158.767L30.4079 144.084" stroke="#043866" stroke-miterlimit="10" stroke-linecap="round"/>
<path d="M16.4011 105.571L4.00977 92.5822Z" fill="#5A8A15"/>
<path d="M16.4011 105.571L4.00977 92.5822" stroke="#043866" stroke-miterlimit="10" stroke-linecap="round"/>
<path d="M16.4004 105.571L30.2463 91.0574Z" fill="#5A8A15"/>
<path d="M16.4004 105.571L30.2463 91.0574" stroke="#043866" stroke-miterlimit="10" stroke-linecap="round"/>
<path d="M615.874 122.161C617.995 117.877 619.122 113.04 618.99 108.202C618.658 92.9999 606.726 80.2851 592.141 79.6631C587.236 79.4558 582.397 80.5615 578.088 82.9109C573.712 85.2604 570.066 88.7847 567.415 93.069C564.763 97.3533 563.238 102.26 563.039 107.373C562.774 112.487 563.835 117.531 566.022 122.092C569.801 129.693 568.21 139.16 561.979 144.688C556.94 149.111 552.83 154.639 550.112 160.927C547.328 167.147 545.936 173.988 546.002 180.898C546.201 205.429 565.094 226.091 588.562 227.404C597.975 227.957 607.322 225.4 615.277 220.079C623.232 214.758 629.398 207.019 632.845 197.828C636.292 188.707 636.955 178.618 634.635 169.082C632.314 159.545 627.21 150.977 619.918 144.688C613.753 139.022 612.162 129.693 615.874 122.161Z" fill="#50741C" stroke="#043866" stroke-miterlimit="10" stroke-linecap="round"/>
<path d="M591.015 104.125V268.036" stroke="#043866" stroke-miterlimit="10" stroke-linecap="round"/>
<path d="M591.015 201.007L614.018 177.028" stroke="#043866" stroke-miterlimit="10" stroke-linecap="round"/>
<path d="M591.015 173.02L574.376 155.676" stroke="#043866" stroke-miterlimit="10" stroke-linecap="round"/>
<path d="M591.015 123.474L602.748 111.243" stroke="#043866" stroke-miterlimit="10" stroke-linecap="round"/>
<path d="M746.054 68.7011C747.935 64.9025 748.934 60.6138 748.816 56.3251C748.522 42.8464 737.943 31.5732 725.012 31.0218C720.663 30.838 716.372 31.8183 712.552 33.9014C708.673 35.9844 705.44 39.1091 703.089 42.9076C700.738 46.7062 699.386 51.0561 699.21 55.5899C698.975 60.1237 699.915 64.5962 701.855 68.6398C705.205 75.3792 703.794 83.7728 698.269 88.6742C693.802 92.5953 690.158 97.4966 687.749 103.072C685.28 108.586 684.046 114.651 684.105 120.778C684.281 142.528 701.032 160.847 721.838 162.011C730.184 162.501 738.472 160.234 745.525 155.517C752.578 150.799 758.044 143.937 761.1 135.789C764.157 127.701 764.744 118.756 762.687 110.301C760.63 101.847 756.104 94.2495 749.639 88.6742C744.173 83.6503 742.762 75.3792 746.054 68.7011Z" fill="#50741C" stroke="#043866" stroke-miterlimit="10" stroke-linecap="round"/>
<path d="M724 53L724 228" stroke="#043866" stroke-miterlimit="10" stroke-linecap="round"/>
<path d="M724.014 138.607L744.409 117.347" stroke="#043866" stroke-miterlimit="10" stroke-linecap="round"/>
<path d="M724.013 113.794L709.261 98.4156" stroke="#043866" stroke-miterlimit="10" stroke-linecap="round"/>
<path d="M724.014 69.8651L734.417 59.0208" stroke="#043866" stroke-miterlimit="10" stroke-linecap="round"/>
<path d="M194.362 82.161C196.484 77.8767 197.611 73.0396 197.478 68.2024C197.147 52.9999 185.214 40.2851 170.63 39.6631C165.724 39.4558 160.885 40.5615 156.576 42.9109C152.201 45.2604 148.555 48.7847 145.903 53.069C143.251 57.3533 141.726 62.2596 141.528 67.3732C141.262 72.4867 142.323 77.5312 144.511 82.092C148.289 89.6932 146.698 99.1602 140.467 104.688C135.429 109.111 131.319 114.639 128.601 120.927C125.816 127.147 124.424 133.988 124.491 140.898C124.689 165.429 143.583 186.091 167.05 187.404C176.463 187.957 185.811 185.4 193.766 180.079C201.721 174.758 207.886 167.019 211.333 157.828C214.78 148.707 215.443 138.618 213.123 129.082C210.803 119.545 205.698 110.977 198.406 104.688C192.241 99.022 190.65 89.6932 194.362 82.161Z" fill="#50741C" stroke="#043866" stroke-miterlimit="10" stroke-linecap="round"/>
<path d="M169.503 64.1254V228.036" stroke="#043866" stroke-miterlimit="10" stroke-linecap="round"/>
<path d="M169.503 161.007L192.506 137.028" stroke="#043866" stroke-miterlimit="10" stroke-linecap="round"/>
<path d="M169.504 133.02L152.864 115.676" stroke="#043866" stroke-miterlimit="10" stroke-linecap="round"/>
<path d="M169.503 83.4739L181.237 71.2428" stroke="#043866" stroke-miterlimit="10" stroke-linecap="round"/>
<path d="M787.595 374.602L787.14 374.643V375.1V740H-38.8599V411.72V411.44L-39.0979 411.294C-49.8998 404.651 -58.8191 395.351 -65.0044 384.281C-71.1898 373.211 -74.4346 360.741 -74.4297 348.06C-74.4297 328.368 -66.6071 309.482 -52.6826 295.557C-38.758 281.633 -19.872 273.81 -0.17968 273.81H-0.179146C18.171 273.79 35.8728 280.595 49.485 292.901L50.1548 293.506L50.3126 292.617C54.8467 267.079 68.2261 243.953 88.1049 227.292C107.984 210.632 133.093 201.5 159.03 201.5C187.811 201.498 215.454 212.736 236.069 232.819C256.682 252.901 268.638 280.238 269.39 309.006V309.011V309.017V309.022V309.028V309.033V309.039V309.045V309.05V309.056V309.061V309.067V309.072V309.078V309.083V309.089V309.095V309.1V309.106V309.111V309.117V309.122V309.128V309.134V309.139V309.145V309.15V309.156V309.161V309.167V309.173V309.178V309.184V309.189V309.195V309.2V309.206V309.211V309.217V309.223V309.228V309.234V309.239V309.245V309.25V309.256V309.262V309.267V309.273V309.278V309.284V309.289V309.295V309.301V309.306V309.312V309.317V309.323V309.328V309.334V309.34V309.345V309.351V309.356V309.362V309.367V309.373V309.379V309.384V309.39V309.395V309.401V309.406V309.412V309.417V309.423V309.429V309.434V309.44V309.445V309.451V309.456V309.462V309.468V309.473V309.479V309.484V309.49V309.495V309.501V309.507V309.512V309.518V309.523V309.529V309.534V309.54V309.546V309.551V309.557V309.562V309.568V309.573V309.579V309.585V309.59V309.596V309.601V309.607V309.612V309.618V309.624V309.629V309.635V309.64V309.646V309.651V309.657V309.662V309.668V309.674V309.679V309.685V309.69V309.696V309.701V309.707V309.713V309.718V309.724V309.729V309.735V309.74V309.746V309.752V309.757V309.763V309.768V309.774V309.779V309.785V309.791V309.796V309.802V309.807V309.813V309.818V309.824V309.83V309.835V309.841V309.846V309.852V309.857V309.863V309.869V309.874V309.88V309.885V309.891V309.896V309.902V309.908V309.913V309.919V309.924V309.93V309.935V309.941V309.947V309.952V309.958V309.963V309.969V309.974V309.98V309.986V309.991V309.997V310.002V310.008V310.014V310.019V310.025V310.03V310.036V310.041V310.047V310.053V310.058V310.064V310.069V310.075V310.08V310.086V310.092V310.097V310.103V310.108V310.114V310.119V310.125V310.131V310.136V310.142V310.147V310.153V310.158V310.164V310.17V310.175V310.181V310.186V310.192V310.197V310.203V310.209V310.214V310.22V310.225V310.231V310.237V310.242V310.248V310.253V310.259V310.264V310.27V310.276V310.281V310.287V310.292V310.298V310.303V310.309V310.315V310.32V310.326V310.331V310.337V310.343V310.348V310.354V310.359V310.365V310.37V310.376V310.382V310.387V310.393V310.398V310.404V310.409V310.415V310.421V310.426V310.432V310.437V310.443V310.449V310.454V310.46V310.465V310.471V310.476V310.482V310.488V310.493V310.499V310.504V310.51V310.516V310.521V310.527V310.532V310.538V310.543V310.549V310.555V310.56V310.566V310.571V310.577V310.583V310.588V310.594V310.599V310.605V310.61V310.616V310.622V310.627V310.633V310.638V310.644V310.65V310.655V310.661V310.666V310.672V310.677V310.683V310.689V310.694V310.7V310.705V310.711V310.717V310.722V310.728V310.733V310.739V310.745V310.75V310.756V310.761V310.767V310.772V310.778V310.784V310.789V310.795V310.8V310.806V310.812V310.817V310.823V310.828V310.834V310.84V310.845V310.851V310.856V310.862V310.868V310.873V310.879V310.884V310.89V310.895V310.901V310.907V310.912V310.918V310.923V310.929V310.935V310.94V310.946V310.951V310.957V310.963V310.968V310.974V310.979V310.985V310.991V310.996V311.002V311.007V311.013V311.019V311.024V311.03V311.035V311.041V311.047V311.052V311.058V311.063V311.069V311.075V311.08V311.086V311.091V311.097V311.103V311.108V311.114V311.119V311.125V311.131V311.136V311.142V311.147V311.153V311.159V311.164V311.17V311.175V311.181V311.187V311.192V311.198V311.203V311.209V311.215V311.22V311.226V311.231V311.237V311.243V311.248V311.254V311.259V311.265V311.271V311.276V311.282V311.287V311.293V311.299V311.304V311.31V311.315V311.321V311.327V311.332V311.338V311.343V311.349V311.355V311.36V311.366V311.371V311.377V311.383V311.388V311.394V311.399V311.405V311.411V311.416V311.422V311.428V311.433V311.439V311.444V311.45V311.456V311.461V311.467V311.472V311.478V311.484V311.489V311.495V311.5V311.506V311.512V311.517V311.523V311.528V311.534V311.54V311.545V311.551V311.557V311.562V311.568V311.573V311.579V311.585V311.59V311.596V311.601V311.607V311.613V311.618V311.624V311.63V311.635V311.641V311.646V311.652V311.658V311.663V311.669V311.674V311.68V311.686V311.691V311.697V311.703V311.708V311.714V311.719V311.725V311.731V311.736V311.742V311.748V311.753V311.759V311.764V311.77V311.776V311.781V311.787V311.793V311.798V311.804V311.809V311.815V311.821V311.826V311.832V311.837V311.843V311.849V311.854V311.86C269.391 316.697 269.078 321.529 268.454 326.325L268.339 327.21L269.154 326.847C276.327 323.644 284.095 321.992 291.95 322H291.951C301.961 321.991 311.789 324.675 320.406 329.77L320.836 330.025L321.091 329.594C325.619 321.925 331.43 315.089 338.27 309.384L338.271 309.384C352.201 297.733 369.79 291.362 387.949 291.39H387.951C405.239 291.376 422.032 297.163 435.642 307.824L436.072 308.16L436.369 307.703C448.792 288.606 465.789 272.916 485.817 262.058C505.845 251.2 528.268 245.519 551.05 245.53H551.051C574.266 245.496 597.103 251.395 617.397 262.667L617.922 262.959L618.114 262.39C623.078 247.664 632.538 234.867 645.16 225.802C657.782 216.737 672.93 211.861 688.47 211.86C704.793 211.862 720.661 217.241 733.619 227.167C746.577 237.093 755.904 251.011 760.157 266.77L760.306 267.322L760.834 267.101C767.7 264.218 775.073 262.739 782.519 262.75C789.881 262.747 797.17 264.195 803.972 267.01C810.773 269.825 816.953 273.953 822.159 279.157C827.365 284.361 831.495 290.539 834.312 297.34C837.13 304.14 838.58 311.429 838.58 318.79C838.58 332.778 833.349 346.26 823.915 356.587C814.481 366.914 801.526 373.34 787.595 374.602Z" fill="#D2D9A5" stroke="#043866"/>
<path d="M132.874 342.518C134.995 338.21 136.122 333.346 135.99 328.482C135.658 313.195 123.726 300.409 109.141 299.784C104.236 299.575 99.3966 300.687 95.0876 303.05C90.7123 305.412 87.0663 308.956 84.4146 313.264C81.7629 317.572 80.2381 322.506 80.0393 327.648C79.7741 332.79 80.8348 337.863 83.0224 342.449C86.801 350.092 85.2101 359.612 78.9786 365.171C73.9404 369.618 69.8303 375.177 67.1123 381.5C64.3281 387.754 62.936 394.633 63.0023 401.582C63.2011 426.25 82.0943 447.026 105.562 448.346C114.975 448.902 124.322 446.331 132.277 440.981C140.232 435.63 146.398 427.848 149.845 418.606C153.292 409.434 153.955 399.289 151.635 389.7C149.314 380.11 144.21 371.494 136.918 365.171C130.753 359.473 129.162 350.092 132.874 342.518Z" fill="#50741C" stroke="#043866" stroke-miterlimit="10" stroke-linecap="round"/>
<path d="M108.015 324.382V489.205" stroke="#043866" stroke-miterlimit="10" stroke-linecap="round"/>
<path d="M108.015 421.803L131.018 397.691" stroke="#043866" stroke-miterlimit="10" stroke-linecap="round"/>
<path d="M108.015 393.66L91.376 376.219" stroke="#043866" stroke-miterlimit="10" stroke-linecap="round"/>
<path d="M108.015 343.838L119.748 331.539" stroke="#043866" stroke-miterlimit="10" stroke-linecap="round"/>
<path d="M718.202 367.764C710.092 358.502 707.455 344.956 712.598 333.622C716.092 326.019 717.015 317.449 715.367 309.225C713.653 301 709.433 293.605 703.301 288.145C700.663 285.795 698.817 282.616 697.96 279.091C697.103 275.566 697.301 271.834 698.553 268.448C699.674 265.338 700.136 261.951 699.872 258.634C699.608 255.316 698.685 252.068 697.103 249.165C695.52 246.262 693.345 243.774 690.773 241.77C688.136 239.835 685.169 238.522 682.07 237.9C678.905 237.278 675.674 237.416 672.641 238.314C669.542 239.144 666.707 240.733 664.201 242.876C661.761 245.018 659.783 247.714 658.399 250.755C657.014 253.796 656.355 257.113 656.355 260.431C656.355 263.679 657.014 266.927 658.333 269.899C661.366 276.88 659.651 284.828 654.443 290.219C649.168 295.678 645.673 302.728 644.288 310.4C642.97 318.071 643.893 325.95 646.992 333C649.497 338.667 650.289 344.956 649.431 351.038C648.508 357.189 645.937 362.926 641.915 367.487C633.079 377.44 628.134 390.433 628.002 404.048C627.739 433.007 649.959 457.749 677.52 459.131C687.806 459.684 698.026 456.92 706.861 451.391C715.697 445.793 722.752 437.568 727.104 427.823C731.455 418.009 732.972 407.089 731.389 396.377C729.741 385.664 725.192 375.712 718.202 367.764Z" fill="#5A8A15" stroke="#043866" stroke-miterlimit="10" stroke-linecap="round"/>
<path d="M679.893 299.687V541.238V299.687Z" fill="#5A8A15"/>
<path d="M679.893 299.687V541.238" stroke="#043866" stroke-miterlimit="10" stroke-linecap="round"/>
<path d="M679.893 430.795L651.277 400.731L679.893 430.795Z" fill="#5A8A15"/>
<path d="M679.893 430.795L651.277 400.731" stroke="#043866" stroke-miterlimit="10" stroke-linecap="round"/>
<path d="M679.893 393.474L697.036 375.504L679.893 393.474Z" fill="#5A8A15"/>
<path d="M679.893 393.474L697.036 375.504" stroke="#043866" stroke-miterlimit="10" stroke-linecap="round"/>
<path d="M679.893 328.369L664.728 312.473L679.893 328.369Z" fill="#5A8A15"/>
<path d="M679.893 328.369L664.728 312.473" stroke="#043866" stroke-miterlimit="10" stroke-linecap="round"/>
<path d="M679.893 328.369L696.838 310.607L679.893 328.369Z" fill="#5A8A15"/>
<path d="M679.893 328.369L696.838 310.607" stroke="#043866" stroke-miterlimit="10" stroke-linecap="round"/>
<path d="M787.236 623.148L787.11 623.29V623.48V739.5H-37.8604V620.16V619.821L-38.1752 619.696C-49.7911 615.065 -59.7509 607.056 -66.7668 596.704C-73.7827 586.353 -77.5321 574.135 -77.5303 561.63C-77.5303 545.054 -70.9456 529.157 -59.2246 517.436C-47.5035 505.715 -31.6063 499.13 -15.0303 499.13L-15.0288 499.13C-0.209892 499.087 14.1384 504.332 25.4362 513.921L25.7708 514.205L26.0957 513.91C53.5204 489.028 89.2387 475.268 126.269 475.32H126.269C156.63 475.324 186.268 484.578 211.237 501.849C236.205 519.12 255.319 543.589 266.032 571.996L266.175 572.375L266.575 572.314C269.723 571.835 272.904 571.596 276.089 571.6H276.091C287.257 571.58 298.223 574.568 307.835 580.25C310.382 581.756 312.818 583.44 315.127 585.29L315.464 585.561L315.78 585.266C317.678 583.497 319.666 581.817 321.745 580.216L321.746 580.215C336.878 568.478 355.489 562.115 374.639 562.13H374.64C393.815 562.1 412.452 568.464 427.603 580.215C435.46 586.315 442.215 593.713 447.578 602.09L448.5 603.528V601.82C448.5 601.455 448.484 601.089 448.469 600.733L448.469 600.728C448.454 600.367 448.439 600.018 448.439 599.67C448.432 592.96 449.655 586.307 452.047 580.038C456.028 569.618 463.078 560.652 472.266 554.326C481.453 548 492.345 544.612 503.5 544.61C511.405 544.595 519.22 546.285 526.412 549.565L527.251 549.948L527.114 549.036C526.521 545.088 526.222 541.102 526.22 537.11C526.222 515.73 534.718 495.227 549.836 480.11C564.955 464.993 585.46 456.5 606.84 456.5C624.466 456.503 641.606 462.282 655.635 472.953C669.664 483.623 679.809 498.598 684.518 515.584L684.72 516.314L685.312 515.841C698.446 505.342 714.765 499.631 731.579 499.65C751.282 499.642 770.181 507.46 784.12 521.384C798.059 535.308 805.896 554.198 805.91 573.9C805.938 592.052 799.292 609.579 787.236 623.148Z" fill="#7F9B4E" stroke="#043866"/>
<path d="M176.43 618.589C170.727 612.076 168.873 602.55 172.489 594.58C174.946 589.234 175.596 583.207 174.436 577.424C173.231 571.641 170.264 566.44 165.951 562.601C164.097 560.948 162.799 558.713 162.196 556.234C161.593 553.756 161.732 551.131 162.613 548.75C163.401 546.563 163.726 544.181 163.54 541.849C163.355 539.516 162.706 537.231 161.593 535.19C160.48 533.149 158.95 531.399 157.142 529.99C155.287 528.629 153.201 527.706 151.022 527.268C148.796 526.831 146.524 526.928 144.391 527.56C142.212 528.143 140.218 529.261 138.457 530.768C136.741 532.274 135.35 534.17 134.376 536.308C133.403 538.446 132.939 540.779 132.939 543.112C132.939 545.396 133.403 547.681 134.33 549.77C136.463 554.679 135.257 560.268 131.594 564.059C127.885 567.898 125.428 572.856 124.454 578.25C123.527 583.645 124.176 589.185 126.355 594.143C128.117 598.128 128.673 602.55 128.071 606.827C127.421 611.153 125.613 615.186 122.785 618.394C116.572 625.393 113.094 634.529 113.002 644.104C112.816 664.467 128.441 681.866 147.822 682.838C155.055 683.227 162.242 681.283 168.455 677.395C174.668 673.458 179.629 667.675 182.69 660.822C185.75 653.921 186.816 646.242 185.703 638.709C184.544 631.176 181.345 624.178 176.43 618.589Z" fill="#5A8A15" stroke="#043866" stroke-miterlimit="10" stroke-linecap="round"/>
<path d="M149.49 570.717V740.576V570.717Z" fill="#5A8A15"/>
<path d="M149.49 570.717V740.576" stroke="#043866" stroke-miterlimit="10" stroke-linecap="round"/>
<path d="M149.492 662.912L129.369 641.771L149.492 662.912Z" fill="#5A8A15"/>
<path d="M149.492 662.912L129.369 641.771" stroke="#043866" stroke-miterlimit="10" stroke-linecap="round"/>
<path d="M149.49 636.668L161.545 624.032L149.49 636.668Z" fill="#5A8A15"/>
<path d="M149.49 636.668L161.545 624.032" stroke="#043866" stroke-miterlimit="10" stroke-linecap="round"/>
<path d="M149.49 590.886L138.826 579.708L149.49 590.886Z" fill="#5A8A15"/>
<path d="M149.49 590.886L138.826 579.708" stroke="#043866" stroke-miterlimit="10" stroke-linecap="round"/>
<path d="M149.49 590.886L161.406 578.396L149.49 590.886Z" fill="#5A8A15"/>
<path d="M149.49 590.886L161.406 578.396" stroke="#043866" stroke-miterlimit="10" stroke-linecap="round"/>
<path d="M678.874 594.759C680.995 590.451 682.122 585.587 681.99 580.723C681.658 565.436 669.726 552.65 655.141 552.025C650.236 551.816 645.397 552.928 641.088 555.291C636.712 557.653 633.066 561.197 630.415 565.505C627.763 569.813 626.238 574.747 626.039 579.889C625.774 585.031 626.835 590.103 629.022 594.69C632.801 602.333 631.21 611.853 624.979 617.412C619.94 621.859 615.83 627.418 613.112 633.741C610.328 639.995 608.936 646.874 609.002 653.823C609.201 678.491 628.094 699.267 651.562 700.587C660.975 701.143 670.322 698.572 678.277 693.222C686.232 687.871 692.398 680.089 695.845 670.847C699.292 661.675 699.955 651.53 697.635 641.941C695.314 632.351 690.21 623.735 682.918 617.412C676.753 611.714 675.162 602.333 678.874 594.759Z" fill="#50741C" stroke="#043866" stroke-miterlimit="10" stroke-linecap="round"/>
<path d="M654.015 576.623V741.446" stroke="#043866" stroke-miterlimit="10" stroke-linecap="round"/>
<path d="M654.015 674.044L677.018 649.932" stroke="#043866" stroke-miterlimit="10" stroke-linecap="round"/>
<path d="M654.015 645.901L637.376 628.46" stroke="#043866" stroke-miterlimit="10" stroke-linecap="round"/>
<path d="M654.015 596.079L665.748 583.78" stroke="#043866" stroke-miterlimit="10" stroke-linecap="round"/>
<path d="M93.17 629.925C94.7538 626.709 95.5952 623.077 95.4962 619.445C95.2488 608.031 86.3396 598.485 75.4506 598.018C71.7879 597.863 68.1747 598.693 64.9575 600.457C61.6908 602.221 58.9686 604.867 56.9888 608.083C55.0089 611.3 53.8705 614.983 53.722 618.823C53.524 622.662 54.316 626.449 55.9493 629.873C58.7706 635.58 57.5827 642.688 52.9301 646.838C49.1684 650.159 46.0997 654.309 44.0704 659.03C41.9916 663.7 40.9522 668.836 41.0017 674.024C41.1502 692.442 55.2564 707.954 72.7778 708.94C79.8061 709.355 86.785 707.435 92.7245 703.44C98.664 699.445 103.267 693.635 105.841 686.735C108.415 679.886 108.91 672.312 107.177 665.152C105.445 657.993 101.634 651.559 96.1892 646.838C91.5861 642.584 90.3982 635.58 93.17 629.925Z" fill="#50741C" stroke="#043866" stroke-miterlimit="10" stroke-linecap="round"/>
<path d="M74.6094 616.384V739.446" stroke="#043866" stroke-miterlimit="10" stroke-linecap="round"/>
<path d="M74.6094 689.121L91.7843 671.119" stroke="#043866" stroke-miterlimit="10" stroke-linecap="round"/>
<path d="M74.6099 668.11L62.1865 655.087" stroke="#043866" stroke-miterlimit="10" stroke-linecap="round"/>
<path d="M74.6094 630.911L83.3701 621.728" stroke="#043866" stroke-miterlimit="10" stroke-linecap="round"/>
</svg>
