<svg width="161" height="279" viewBox="0 0 161 279" fill="none" xmlns="http://www.w3.org/2000/svg">
<g id="chairlift">
<path id="Vector" d="M135.315 190.023H25.1033C19.0775 190.023 14.2568 194.904 14.2568 200.87V230.155C14.2568 236.181 19.1377 241.002 25.1033 241.002H135.255C141.281 241.002 146.101 236.121 146.101 230.155V200.93C146.162 194.904 141.281 190.023 135.315 190.023Z" fill="#66CCB4" stroke="#043866" stroke-miterlimit="10" stroke-linecap="round"/>
<path id="Vector_2" d="M97.4732 88.3681H77.8291V80.7153H97.4732C103.559 80.7153 114.767 79.5704 121.456 71.7971C126.578 65.8918 128.265 57.0339 126.518 45.4644C124.71 33.5333 123.324 21.9638 121.938 10.816C121.335 5.81462 120.673 0.632434 120.07 -4.42924C118.563 -16.3603 114.345 -29.6773 98.1361 -59.3243L104.945 -63C117.72 -39.6802 125.553 -22.7477 127.723 -5.39336C128.386 -0.331692 128.988 4.91075 129.591 9.91217C130.916 20.9996 132.363 32.4487 134.11 44.3195C136.219 58.1788 133.869 69.0855 127.241 76.7985C120.853 84.2705 110.308 88.3681 97.4732 88.3681Z" fill="#7C848C" stroke="#043866" stroke-miterlimit="10" stroke-linecap="round"/>
<path id="Vector_3" d="M134.23 254.198H26.1276C19.439 254.198 13.0516 251.547 8.35148 246.847C3.65136 242.147 1 235.759 1 229.071V207.799C1 201.593 1.60257 195.386 2.68722 189.24L15.8837 118.497C17.3299 110.844 21.3672 103.915 27.393 98.9735C33.3585 93.9721 40.9511 91.2605 48.7243 91.2605H111.754C119.527 91.2605 127.06 93.9721 133.086 98.9735C139.051 103.975 143.149 110.844 144.595 118.497L157.791 189.24C158.936 195.386 159.479 201.593 159.539 207.799V229.071C159.539 235.759 156.887 242.147 152.187 246.847C147.306 251.547 140.919 254.198 134.23 254.198ZM48.7243 97.9491C42.5178 97.9491 36.492 100.118 31.6713 104.095C26.911 108.072 23.657 113.616 22.5121 119.702L9.3156 190.445C8.23095 196.17 7.68862 201.954 7.68862 207.799V229.071C7.68862 233.951 9.61688 238.652 13.1118 242.086C16.5465 245.521 21.2467 247.509 26.1276 247.509H134.23C139.111 247.509 143.811 245.581 147.246 242.086C150.681 238.591 152.669 233.951 152.669 229.071V207.799C152.669 201.954 152.127 196.17 151.042 190.445L137.846 119.702C136.701 113.616 133.447 108.072 128.687 104.095C123.926 100.118 117.9 97.9491 111.634 97.9491H48.7243V97.9491Z" fill="#7C848C" stroke="#043866" stroke-miterlimit="10" stroke-linecap="round"/>
<path id="Vector_4" d="M88.6756 80.7153H71.7432V104.517H88.6756V80.7153Z" fill="#7C848C" stroke="#043866" stroke-miterlimit="10" stroke-linecap="round"/>
<path id="Vector_5" d="M75.3582 86.259L73.4299 85.536L73.0684 83.4872L74.6351 82.1615L76.5634 82.8846L76.9249 84.9334L75.3582 86.259Z" fill="#AFB6BC" stroke="#043866" stroke-miterlimit="10" stroke-linecap="round"/>
<path id="Vector_6" d="M74.9966 85.1141C75.4787 85.1141 75.9005 84.6923 75.9005 84.2103C75.9005 83.7282 75.4787 83.3064 74.9966 83.3064C74.5146 83.3064 74.0928 83.7282 74.0928 84.2103C74.0928 84.6923 74.5146 85.1141 74.9966 85.1141Z" fill="#7C848C" stroke="#043866" stroke-miterlimit="10" stroke-linecap="round"/>
<path id="Vector_7" d="M84.277 86.0181L83.1924 84.2706L84.1565 82.4628L86.2053 82.4026L87.2899 84.1501L86.3258 85.9578L84.277 86.0181Z" fill="#AFB6BC" stroke="#043866" stroke-miterlimit="10" stroke-linecap="round"/>
<path id="Vector_8" d="M85.2408 85.1141C85.7228 85.1141 86.1447 84.6923 86.1447 84.2103C86.1447 83.7282 85.7228 83.3064 85.2408 83.3064C84.7587 83.3064 84.3369 83.7282 84.3369 84.2103C84.3369 84.6923 84.7587 85.1141 85.2408 85.1141Z" fill="#7C848C" stroke="#043866" stroke-miterlimit="10" stroke-linecap="round"/>
<path id="Vector_9" d="M86.084 90.0553H74.2734V101.866H86.084V90.0553Z" fill="white" stroke="#043866" stroke-miterlimit="10" stroke-linecap="round"/>
<path id="Vector_10" d="M76.9248 93.972C76.9248 94.3336 77.0453 94.6349 77.2261 94.9362C77.2864 94.9964 77.3466 95.1169 77.4069 95.1772C77.5876 95.4182 77.8889 95.6593 78.1902 95.7798C78.4915 95.9003 78.7928 95.9606 79.1544 95.9606H79.2146H79.3954H79.5159H79.5762H79.6364H79.6967H79.7569L79.8775 95.9003H79.9377L79.9979 95.84C79.9979 95.84 80.0582 95.84 80.0582 95.7798H80.1185L80.1788 95.7195L80.239 95.6593L80.2992 95.599C80.2992 95.599 80.2993 95.599 80.3595 95.5388L80.4198 95.4785C80.4198 95.4785 80.4198 95.4182 80.48 95.4182L80.5403 95.358V95.2977L80.6005 95.2375V95.1772V95.1169V95.0567V94.9964C80.6005 94.9964 80.6005 94.9964 80.6005 94.9362C80.6005 94.9362 80.6005 94.9362 80.6005 94.8759V94.8157V94.7554V94.6951V94.6349V94.5746C80.6005 94.2131 80.48 93.9118 80.239 93.6105C79.998 93.3695 79.6967 93.1887 79.3351 93.1284H79.2146H78.7325H78.6723H78.7325H78.6723H78.5518H78.4313H78.3107C78.1902 93.3092 78.13 93.49 78.13 93.731C78.13 93.8515 78.1299 93.972 78.1902 94.0926H78.2505L78.371 94.0323H78.4915L78.6723 93.972H78.7325H78.7928H78.8531H79.1544C79.2749 93.972 79.3954 94.0323 79.5159 94.1528C79.5761 94.2733 79.6364 94.3938 79.6364 94.5144V94.5746C79.6364 94.6349 79.5762 94.7554 79.5762 94.8157L79.5159 94.8759H79.4556H79.3954H79.3351H79.2749H79.2146H79.0941C78.9133 94.8759 78.7326 94.8157 78.5518 94.7554C78.371 94.6951 78.2505 94.5144 78.13 94.3939C78.0697 94.3336 78.0094 94.2131 78.0094 94.1528C77.9492 93.972 77.9492 93.8515 77.9492 93.6708C77.9492 93.49 77.9492 93.3695 78.0094 93.1887C78.0697 93.0682 78.13 92.9477 78.2505 92.8271C78.4313 92.5861 78.7325 92.4656 79.0338 92.4053C79.0941 92.4053 79.2146 92.4053 79.2749 92.4053C79.5159 92.4053 79.7569 92.4053 79.9979 92.4656C80.239 92.5259 80.48 92.5259 80.7211 92.5861C80.6608 92.2848 80.6608 91.9233 80.6005 91.622C80.1787 91.5617 79.8172 91.5015 79.3954 91.5015C79.0941 91.5015 78.7928 91.5617 78.4915 91.622C78.1299 91.6822 77.8287 91.863 77.5876 92.0438C77.2261 92.4053 77.0453 92.8271 76.985 93.3092C76.985 93.3695 76.985 93.49 76.985 93.5502C76.9248 93.8515 76.9248 93.9118 76.9248 93.972Z" fill="#66CCB4"/>
<path id="Vector_11" d="M84.5783 91.9835L83.5539 93.0079L84.036 94.3939C84.036 94.3939 84.036 94.4541 83.9757 94.4541L81.5654 92.5861L84.5783 91.9835C84.5783 91.9233 84.5783 91.9233 84.5783 91.9835C84.5783 91.9233 84.5783 91.9233 84.5783 91.9835C84.5783 91.9835 84.5783 91.9233 84.5783 91.9835Z" fill="#F9B84E"/>
<path id="Vector_12" d="M82.0472 99.2146C81.8664 99.2146 81.6857 99.2748 81.5049 99.2748V100.179H82.4088V99.1543L82.0472 99.2146Z" fill="#043866"/>
<path id="Vector_13" d="M84.4575 96.9247C84.3973 96.5631 84.2165 96.2619 83.9755 96.0811C83.7345 95.8401 83.3729 95.7195 83.0113 95.7798C82.6498 95.7798 82.2883 95.9003 81.987 96.1413L81.9267 96.2016C81.6857 96.4426 81.5049 96.8042 81.5049 97.1657C81.5049 97.226 81.5049 97.226 81.5049 97.2862V97.9491C81.6254 97.9491 81.7459 97.9491 81.8062 97.8888C81.987 97.8888 82.1677 97.8286 82.3485 97.7683V97.2862V97.226C82.3485 97.1657 82.3485 97.1055 82.4088 96.985C82.4088 96.9247 82.469 96.8644 82.5293 96.8042V96.7439C82.6498 96.6837 82.7703 96.6234 82.9511 96.6234C83.0114 96.6234 83.0716 96.6234 83.1319 96.6234C83.1921 96.6234 83.2524 96.6837 83.3126 96.7439C83.3729 96.8042 83.4331 96.8644 83.4331 96.9247C83.4934 96.985 83.4934 97.0452 83.4934 97.1055C83.4934 97.226 83.4934 97.3465 83.4331 97.467C83.3729 97.5875 83.2524 97.6478 83.1319 97.7081C82.9511 97.7683 82.7703 97.8286 82.5896 97.8888L82.2883 97.9491C82.1075 98.0093 81.9267 98.0093 81.7459 98.0696L81.3844 98.1299C81.2639 98.1299 81.2036 98.1299 81.0831 98.1299C80.601 98.1901 80.0587 98.1901 79.5767 98.1299H79.4561H79.3356H79.2754C78.7933 98.0696 78.3112 97.9491 77.8894 97.7081C77.5881 97.5875 77.3471 97.4068 77.1663 97.226C76.9856 96.985 76.8048 96.7439 76.7445 96.4426C76.6843 96.2016 76.6843 96.0208 76.7445 95.7798C76.8048 95.5388 76.865 95.358 76.9855 95.1772C76.9855 95.117 76.9253 95.117 76.9253 95.0567C76.7445 94.7554 76.6843 94.4541 76.624 94.1528C76.5035 94.2733 76.383 94.3939 76.3227 94.5746C76.0817 94.8759 75.9612 95.2375 75.9009 95.599C75.8406 95.9606 75.8407 96.3221 75.9612 96.6837C75.9612 96.7439 76.0214 96.8042 76.0214 96.8644C76.1419 97.226 76.383 97.5875 76.624 97.8286C76.9253 98.1299 77.2266 98.3106 77.5881 98.4914C78.0099 98.6722 78.4317 98.7927 78.9138 98.9132C79.2753 98.9735 79.6369 99.0337 79.9984 99.0337C80.1792 99.0337 80.4202 99.0337 80.601 99.0337C80.7818 99.0337 81.0228 99.0337 81.2036 99.0337H81.5049C81.6857 99.0337 81.8664 98.9735 82.0472 98.9735L82.469 98.9132L82.7703 98.853C83.0716 98.7927 83.3729 98.6722 83.6742 98.5517C83.9755 98.4312 84.2165 98.1901 84.3973 97.8888C84.4576 97.5875 84.5178 97.2862 84.4575 96.9247Z" fill="#1471D0"/>
<path id="Vector_14" d="M83.0112 254.198H77.4072V274.324H83.0112V254.198Z" fill="#AFB6BC" stroke="#043866" stroke-miterlimit="10" stroke-linecap="round"/>
<path id="Vector_15" d="M85.7232 274.324H74.6357V277.397H85.7232V274.324Z" fill="#AFB6BC" stroke="#043866" stroke-miterlimit="10" stroke-linecap="round"/>
<path id="Vector_16" d="M113.562 273.722H85.7227V278H113.562V273.722Z" fill="#043866" stroke="#043866" stroke-miterlimit="10" stroke-linecap="round"/>
<path id="Vector_17" d="M74.6351 273.722H46.7959V278H74.6351V273.722Z" fill="#043866" stroke="#043866" stroke-miterlimit="10" stroke-linecap="round"/>
<path id="Vector_18" d="M63.5484 184.781C66.0792 188.035 67.1036 190.566 67.3446 192.795C67.5856 195.025 67.1036 196.893 66.4407 198.761C66.3202 199.122 66.1997 199.424 66.0792 199.785C65.5369 201.352 64.9343 202.979 64.6933 204.787C64.392 207.016 64.6933 209.487 66.1997 212.56C69.2729 218.887 68.7306 226.419 65.5971 232.204C62.4637 237.989 56.7392 242.086 49.2672 241.664C41.7952 241.243 36.7336 237.446 34.263 232.204C31.7924 226.961 31.8526 220.213 34.8053 213.765L34.504 213.644L34.8053 213.765C37.6374 207.558 37.2759 203.039 36.9143 198.942C36.9143 198.64 36.8541 198.279 36.8541 197.977C36.6733 195.808 36.6131 193.82 37.0951 191.65C37.5772 189.541 38.6618 187.312 40.8311 184.721C43.1209 182.069 47.4595 180.382 51.9788 180.201C56.4982 180.081 61.0175 181.467 63.5484 184.781Z" fill="#F48E9F" stroke="#043866" stroke-linecap="round"/>
<g id="Group">
<g id="Group_2">
<path id="Vector_19" d="M45.0476 187.191C45.4091 187.191 45.7104 186.769 45.7104 186.227C45.7104 185.685 45.4091 185.263 45.0476 185.263C44.686 185.263 44.3848 185.685 44.3848 186.227C44.3848 186.769 44.686 187.191 45.0476 187.191Z" fill="#043866"/>
<path id="Vector_20" d="M48.8434 187.191C49.2049 187.191 49.5062 186.769 49.5062 186.227C49.5062 185.685 49.2049 185.263 48.8434 185.263C48.4818 185.263 48.1805 185.685 48.1805 186.227C48.1203 186.769 48.4216 187.191 48.8434 187.191Z" fill="#043866"/>
</g>
</g>
<path id="Vector_21" d="M110.73 183.033C114.104 185.383 115.731 187.492 116.454 189.541C117.177 191.59 116.997 193.578 116.635 195.627C116.575 196.049 116.454 196.471 116.394 196.893C116.093 198.58 115.731 200.327 115.792 202.195C115.852 204.545 116.575 207.016 118.624 209.788C122.842 215.392 123.806 222.864 121.878 229.191C119.949 235.518 115.068 240.64 107.717 241.604C100.305 242.628 94.5807 239.917 91.146 235.217C87.7113 230.517 86.4458 223.888 88.1331 217.019C89.6998 210.39 88.4344 205.992 87.3497 202.075C87.2292 201.774 87.169 201.472 87.1087 201.171C86.5061 199.122 86.0241 197.134 86.1446 194.964C86.2048 192.795 86.8677 190.385 88.4946 187.492C91.8691 181.346 101.45 176.586 110.73 183.033Z" fill="#1471D0" stroke="#043866" stroke-linecap="round"/>
<g id="Group_3">
<g id="Group_4">
<path id="Vector_22" d="M91.3884 189.18C91.75 189.18 92.0512 188.758 92.0512 188.216C92.0512 187.673 91.75 187.251 91.3884 187.251C91.0269 187.251 90.7256 187.673 90.7256 188.216C90.7256 188.758 91.0269 189.18 91.3884 189.18Z" fill="white"/>
<path id="Vector_23" d="M95.1843 189.18C95.5459 189.18 95.8472 188.758 95.8472 188.216C95.8472 187.673 95.5459 187.251 95.1843 187.251C94.8228 187.251 94.5215 187.673 94.5215 188.216C94.5215 188.758 94.8228 189.18 95.1843 189.18Z" fill="white"/>
</g>
</g>
<g id="Group_5">
<path id="Vector_24" d="M9.49677 247.57C18.2342 264.141 32.1538 271.793 52.4005 271.552C63.2469 271.432 65.3559 266.792 78.7935 267.093C93.1349 267.395 94.6413 272.637 106.572 272.758C124.77 272.878 138.449 260.827 142.727 257.03C149.536 251.065 158.696 242.99 159.057 230.939C159.358 219.67 151.706 211.535 146.644 206.173C144.234 203.581 130.736 189.24 110.61 188.216C94.8824 187.372 92.7733 195.567 74.5152 195.266C59.4507 194.965 58.0045 188.818 45.1695 190.144C37.2155 190.988 22.8138 191.831 11.6058 207.438C2.44658 220.152 3.47097 236.121 9.49677 247.57ZM99.3415 216.838C107.838 214.006 118.925 215.874 121.938 220.815C124.168 224.491 121.456 229.01 116.214 231.842C108.922 235.699 100.125 234.313 99.5222 234.253C98.4376 234.072 92.472 233.048 90.2425 229.673C87.5309 225.455 91.5682 219.429 99.3415 216.838ZM36.7334 223.105C40.2284 219.972 46.7362 219.49 48.544 219.369C49.7491 219.249 60.3545 218.586 64.4521 223.467C67.3445 226.901 65.9585 231.722 60.7161 234.494C53.9069 238.109 43.6631 236.663 38.8424 233.469C35.1064 231.059 32.8769 226.54 36.7334 223.105Z" fill="#FFB35C" stroke="#043866" stroke-miterlimit="10" stroke-linecap="round"/>
<path id="Vector_25" d="M124.77 249.498C124.951 249.317 125.192 249.197 125.372 249.016C127.421 247.208 128.265 243.292 124.71 242.508C122.179 241.966 118.503 243.954 116.394 245.22C114.405 246.425 112.236 247.389 110.308 248.654C109.404 249.257 108.5 249.92 108.078 250.944C107.898 251.426 107.837 251.969 107.898 252.451C107.958 252.993 108.139 253.475 108.44 253.897C110.308 256.368 113.261 255.283 115.611 254.439C118.865 253.294 122.058 251.667 124.77 249.498Z" fill="#66CCB4" stroke="#043866" stroke-miterlimit="10" stroke-linecap="round"/>
<path id="Vector_26" d="M128.868 210.21C130.134 209.426 130.736 207.558 130.375 206.112C129.953 204.546 128.206 203.702 126.94 202.798C124.891 201.352 122.843 199.966 120.673 198.701C119.167 197.797 117.359 196.35 115.551 196.35C112.659 196.411 109.405 199.363 111.514 202.256C112.478 203.581 114.226 204.666 115.491 205.63C117.178 206.896 118.986 208.041 120.794 209.125C123.506 210.692 125.916 212.018 128.868 210.21Z" fill="#66CCB4" stroke="#043866" stroke-miterlimit="10" stroke-linecap="round"/>
<path id="Vector_27" d="M73.1296 209.065C71.9244 212.018 69.1526 211.355 64.5729 209.487C60.4754 207.8 55.7753 206.896 54.6906 205.088C53.606 203.34 53.847 199.665 58.2459 199.183C61.4395 198.821 68.0076 202.135 70.4782 203.883C72.8885 205.63 73.9129 207.016 73.1296 209.065Z" fill="#66CCB4" stroke="#043866" stroke-miterlimit="10" stroke-linecap="round"/>
<path id="Vector_28" d="M74.6957 243.231C73.4303 240.279 70.5981 241.062 66.1391 243.111C62.1018 244.918 57.4619 246.063 56.4375 247.871C55.4131 249.679 55.8349 253.355 60.2338 253.656C63.4275 253.897 69.8751 250.342 72.2854 248.474C74.6957 246.606 75.5393 245.22 74.6957 243.231Z" fill="#66CCB4" stroke="#043866" stroke-miterlimit="10" stroke-linecap="round"/>
</g>
</g>
</svg>
