<svg width="15" height="19" viewBox="0 0 15 19" fill="none" xmlns="http://www.w3.org/2000/svg">
<path d="M14.1715 11.4595L5.70117 11.0459C5.6685 11.0526 5.6379 11.0677 5.61255 11.0897C5.58721 11.1118 5.56801 11.1399 5.55679 11.1714L1.16211 18.5087C1.03577 18.6185 0.835804 18.6072 0.816331 18.439L0.0962883 0.551156C0.0896712 0.518324 0.0920145 0.484041 0.103144 0.451973C0.114273 0.419905 0.133691 0.391147 0.159482 0.368729C0.185274 0.346312 0.216485 0.331066 0.24979 0.324513C0.283096 0.317959 0.317371 0.320415 0.348961 0.331541L14.3449 11.1852C14.3588 11.2138 14.3651 11.2456 14.3631 11.2777C14.3611 11.3098 14.351 11.3411 14.3336 11.3685C14.3162 11.396 14.2922 11.4187 14.2638 11.4347C14.2354 11.4506 14.2037 11.4592 14.1715 11.4595Z" fill="#F9B84E"/>
</svg>
