<svg width="357" height="228" viewBox="0 0 357 228" fill="none" xmlns="http://www.w3.org/2000/svg">
<g id="fyghero-prizessvg">
<g id="polaroids" clip-path="url(#clip0_566_8469)">
<path id="Vector" d="M180.991 63.5439L130.162 66.3656L134.677 147.703L185.507 144.881L180.991 63.5439Z" fill="#66CCB4" stroke="#043866" stroke-miterlimit="10"/>
<path id="Vector_2" d="M177.95 71.0327L134.378 73.4515L137.659 132.549L181.231 130.13L177.95 71.0327Z" fill="white" stroke="#043866" stroke-miterlimit="10"/>
<path id="Vector_3" d="M211.759 60.9745L161.212 54.9269L151.535 135.813L202.082 141.86L211.759 60.9745Z" fill="#F9B84E" stroke="#043866" stroke-miterlimit="10"/>
<path id="Vector_4" d="M207.46 67.8191L164.13 62.6349L157.099 121.404L200.429 126.589L207.46 67.8191Z" fill="white" stroke="#043866" stroke-miterlimit="10"/>
<path id="Vector_5" d="M205.128 150.79L245.879 181.301L294.703 116.09L253.951 85.5795L205.128 150.79Z" fill="#1471D0" stroke="#043866" stroke-miterlimit="10"/>
<path id="Vector_6" d="M216.861 140.883L251.794 167.038L287.268 119.658L252.335 93.5031L216.861 140.883Z" fill="white" stroke="#043866" stroke-miterlimit="10"/>
<path id="Vector_7" d="M192.996 139.094L238.427 162.065L275.185 89.367L229.755 66.396L192.996 139.094Z" fill="white" stroke="#043866" stroke-miterlimit="10"/>
<path id="Vector_8" d="M202.832 127.297L241.776 146.989L268.484 94.1682L229.54 74.4768L202.832 127.297Z" fill="white" stroke="#043866" stroke-miterlimit="10"/>
<path id="Vector_9" d="M245.987 67.4761L197.258 52.7429L173.682 130.719L222.411 145.453L245.987 67.4761Z" fill="#F48E9F" stroke="#043866" stroke-miterlimit="10"/>
<path id="Vector_10" d="M240.566 73.4722L198.794 60.8425L181.664 117.498L223.436 130.128L240.566 73.4722Z" fill="white" stroke="#043866" stroke-miterlimit="10"/>
<path id="Vector_11" d="M145.872 97.0704L96.0059 107.313L112.397 187.11L162.263 176.867L145.872 97.0704Z" fill="white" stroke="#043866" stroke-miterlimit="10"/>
<path id="Vector_12" d="M143.961 104.919L101.214 113.7L113.123 171.678L155.87 162.897L143.961 104.919Z" fill="white" stroke="#043866" stroke-miterlimit="10"/>
<path id="Vector_13" d="M175.934 90.0361L125.047 91.4641L127.332 172.895L178.22 171.467L175.934 90.0361Z" fill="#F9B84E" stroke="#043866" stroke-miterlimit="10"/>
<path id="Vector_14" d="M172.684 97.4369L129.062 98.661L130.722 157.826L174.344 156.602L172.684 97.4369Z" fill="white" stroke="#043866" stroke-miterlimit="10"/>
<path id="Vector_15" d="M182.423 179.855L227.207 204.062L265.943 132.399L221.159 108.191L182.423 179.855Z" fill="#F48E9F" stroke="#043866" stroke-miterlimit="10"/>
<path id="Vector_16" d="M192.581 168.337L230.971 189.088L259.115 137.019L220.725 116.268L192.581 168.337Z" fill="white" stroke="#043866" stroke-miterlimit="10"/>
<path id="Vector_17" d="M168.712 170.078L217.02 186.14L242.723 108.839L194.416 92.7763L168.712 170.078Z" fill="#66CCB4" stroke="#043866" stroke-miterlimit="10"/>
<path id="Vector_18" d="M176.714 156.963L218.124 170.733L236.8 114.568L195.389 100.798L176.714 156.963Z" fill="white" stroke="#043866" stroke-miterlimit="10"/>
<path id="Vector_19" d="M210.745 91.4505L160.383 84.0203L148.493 164.611L198.855 172.041L210.745 91.4505Z" fill="#1471D0" stroke="#043866" stroke-miterlimit="10"/>
<path id="Vector_20" d="M206.262 98.1742L163.09 91.8048L154.451 150.36L197.623 156.729L206.262 98.1742Z" fill="white" stroke="#043866" stroke-miterlimit="10"/>
</g>
<g id="suitcase" clip-path="url(#clip1_566_8469)">
<path id="Vector_21" d="M134.588 129.323C134.584 135.313 134.09 141.293 133.11 147.203C133.047 147.623 132.834 148.006 132.511 148.281C132.188 148.557 131.776 148.706 131.352 148.702L130.545 148.7L130.547 147.401L131.733 147.396C131.795 147.35 131.848 147.293 131.888 147.227C131.929 147.162 131.956 147.088 131.968 147.012C133.91 135.302 133.909 123.352 131.967 111.642C131.955 111.565 131.929 111.491 131.889 111.425C131.848 111.358 131.796 111.301 131.733 111.255L130.547 111.26L130.55 109.96L131.351 109.964C131.775 109.958 132.186 110.106 132.51 110.379C132.834 110.653 133.048 111.034 133.114 111.453C134.092 117.359 134.585 123.336 134.588 129.323V129.323Z" fill="#66CCB4" stroke="#043866" stroke-miterlimit="10"/>
<path id="Vector_22" d="M114.657 52.3098L43.7192 52.5056C34.3323 52.5315 26.7437 60.1621 26.7696 69.549L27.0996 189.118C27.1255 198.504 34.7561 206.093 44.143 206.067L115.081 205.871C124.468 205.845 132.057 198.215 132.031 188.828L131.701 69.2594C131.675 59.8725 124.044 52.2839 114.657 52.3098Z" fill="#F9B84E" stroke="#043866" stroke-miterlimit="10"/>
<path id="Vector_23" d="M67.3712 16.2242L60.1865 16.2239L60.1848 52.5349L67.3695 52.5352L67.3712 16.2242Z" fill="#AFB6BC" stroke="#043866" stroke-miterlimit="10"/>
<path id="Vector_24" d="M95.965 16.2297L88.7803 16.2294L88.7785 52.5404L95.9632 52.5408L95.965 16.2297Z" fill="#AFB6BC" stroke="#043866" stroke-miterlimit="10"/>
<path id="Vector_25" d="M60.3413 10.8739L95.8541 10.8756C96.7881 10.8757 97.6839 11.2468 98.3444 11.9073C99.0049 12.5678 99.3759 13.4637 99.3758 14.3977L99.3758 15.1726C99.3758 15.4839 99.2521 15.7825 99.0319 16.0027C98.8117 16.2228 98.5131 16.3465 98.2018 16.3465L57.9462 16.3445C57.6348 16.3445 57.3362 16.2208 57.1161 16.0006C56.8959 15.7805 56.7722 15.4818 56.7723 15.1705L56.7723 14.3956C56.7723 13.9292 56.8649 13.4673 57.0449 13.037C57.2248 12.6066 57.4885 12.2162 57.8205 11.8886C58.1526 11.5609 58.5464 11.3025 58.9791 11.1283C59.4119 10.9542 59.8749 10.8677 60.3413 10.8739V10.8739Z" fill="#66CCB4" stroke="#043866" stroke-miterlimit="10"/>
<g id="Group 65">
<path id="Vector_26" d="M56.1572 223.408L52.1302 223.408L50.5657 206.352L57.7181 206.352L56.1572 223.408Z" fill="#AFB6BC" stroke="#043866" stroke-miterlimit="10"/>
<path id="Vector_27" d="M104.012 223.409L99.9847 223.409L98.4202 206.353L105.578 206.352L104.012 223.409Z" fill="#AFB6BC" stroke="#043866" stroke-miterlimit="10"/>
<path id="Vector_28" d="M62.3574 206.116L66.6424 206.116L66.6419 217.111C66.6419 217.679 66.4161 218.224 66.0143 218.626C65.6125 219.027 65.0675 219.253 64.4993 219.253C63.9311 219.253 63.3861 219.027 62.9843 218.625C62.5826 218.224 62.3569 217.679 62.3569 217.11L62.3574 206.116Z" fill="#AFB6BC" stroke="#043866" stroke-miterlimit="10"/>
<path id="Vector_29" d="M67.4727 206.114L71.7518 206.114L71.7513 217.096C71.7512 217.665 71.5255 218.21 71.1237 218.611C70.7218 219.013 70.1769 219.239 69.6087 219.239C69.0404 219.239 68.4955 219.013 68.0937 218.611C67.6919 218.209 67.4662 217.664 67.4663 217.096L67.4668 206.114L67.4727 206.114Z" fill="#AFB6BC" stroke="#043866" stroke-miterlimit="10"/>
<path id="Vector_30" d="M84.375 206.124L88.6542 206.124L88.6536 217.107C88.6544 217.39 88.599 217.671 88.4905 217.932C88.3821 218.194 88.2228 218.432 88.0219 218.632C87.821 218.831 87.5825 218.989 87.3201 219.096C87.0577 219.203 86.7768 219.257 86.4934 219.255V219.255C85.9252 219.255 85.3803 219.029 84.9785 218.627C84.5767 218.225 84.351 217.68 84.351 217.112L84.3516 206.124L84.375 206.124Z" fill="#AFB6BC" stroke="#043866" stroke-miterlimit="10"/>
<path id="Vector_31" d="M91.0332 205.966L95.3117 205.954L95.342 216.935C95.3436 217.503 95.1194 218.049 94.7187 218.452C94.3181 218.854 93.7739 219.082 93.2057 219.083C92.6386 219.083 92.0946 218.858 91.693 218.458C91.2915 218.057 91.0651 217.514 91.0635 216.947L91.0332 205.966Z" fill="#AFB6BC" stroke="#043866" stroke-miterlimit="10"/>
</g>
</g>
<g id="tng" clip-path="url(#clip2_566_8469)">
<path id="Vector_32" d="M308.135 216.993L288.811 209.217L266.571 200.268C265.992 200.033 265.53 199.578 265.285 199.003C265.041 198.428 265.035 197.78 265.268 197.2L293.714 126.458C293.947 125.878 294.401 125.415 294.975 125.171C295.55 124.926 296.198 124.919 296.777 125.152L338.343 141.885C338.63 142 338.891 142.171 339.112 142.387C339.332 142.603 339.508 142.861 339.629 143.145C339.749 143.429 339.813 143.735 339.816 144.044C339.819 144.352 339.76 144.659 339.645 144.945L317.188 200.77L311.188 215.686C310.955 216.262 310.503 216.724 309.931 216.969C309.359 217.214 308.714 217.222 308.135 216.993V216.993Z" fill="url(#paint0_linear_566_8469)" stroke="#043866" stroke-miterlimit="10"/>
<path id="Vector_33" d="M294.359 210.045L273.675 212.534L249.875 215.395C249.255 215.468 248.632 215.293 248.141 214.906C247.651 214.52 247.334 213.955 247.26 213.335L238.159 137.637C238.085 137.018 238.26 136.394 238.645 135.903C239.031 135.412 239.595 135.094 240.215 135.019L284.703 129.672C285.323 129.599 285.947 129.775 286.437 130.161C286.927 130.547 287.244 131.112 287.318 131.732L294.5 191.469L296.419 207.43C296.492 208.05 296.317 208.673 295.93 209.164C295.544 209.654 294.979 209.971 294.359 210.045V210.045Z" fill="#F48E9F" stroke="#043866" stroke-miterlimit="10"/>
<path id="Vector_34" d="M294.359 210.045L273.674 212.534C273.605 212.007 273.557 211.468 273.544 210.936C273.315 205.975 275.067 201.126 278.412 197.456C281.757 193.786 286.423 191.594 291.384 191.362C292.431 191.316 293.48 191.357 294.521 191.484L296.439 207.445C296.508 208.066 296.328 208.688 295.937 209.176C295.547 209.663 294.979 209.976 294.359 210.045V210.045Z" fill="white" stroke="#043866" stroke-miterlimit="10"/>
<path id="Vector_35" d="M289.64 198.607L281.114 199.511C280.254 199.602 279.631 200.374 279.722 201.234L280.075 204.567C280.167 205.428 280.938 206.051 281.798 205.96L290.324 205.055C291.184 204.964 291.808 204.193 291.716 203.332L291.363 199.999C291.271 199.139 290.5 198.515 289.64 198.607Z" fill="#005DAA" stroke="white" stroke-width="0.443233" stroke-miterlimit="10"/>
</g>
<g id="tickets" clip-path="url(#clip3_566_8469)">
<path id="Vector_36" d="M227.384 142.121C227.621 142.717 228.085 143.195 228.673 143.451C229.262 143.707 229.928 143.72 230.526 143.486L232.039 147.332C231.742 147.449 231.471 147.623 231.241 147.844C231.011 148.066 230.828 148.331 230.7 148.623C230.573 148.915 230.504 149.23 230.499 149.549C230.493 149.868 230.55 150.185 230.667 150.482C230.784 150.779 230.958 151.049 231.18 151.279C231.401 151.509 231.666 151.692 231.959 151.819C232.251 151.947 232.566 152.015 232.885 152.021C233.205 152.027 233.522 151.969 233.819 151.853L235.337 155.698C235.031 155.808 234.75 155.978 234.511 156.198C234.272 156.419 234.079 156.685 233.945 156.981C233.811 157.277 233.737 157.597 233.729 157.922C233.721 158.247 233.778 158.571 233.897 158.873C234.017 159.176 234.195 159.451 234.423 159.683C234.651 159.915 234.923 160.099 235.223 160.224C235.524 160.349 235.846 160.413 236.171 160.411C236.497 160.409 236.818 160.342 237.117 160.213L238.546 163.876L135.902 204.247L134.467 200.631C135.065 200.396 135.544 199.933 135.801 199.345C136.059 198.756 136.072 198.09 135.839 197.492C135.602 196.896 135.139 196.417 134.551 196.161C133.962 195.904 133.296 195.89 132.698 196.121L131.174 192.26C131.772 192.024 132.251 191.562 132.508 190.973C132.766 190.385 132.779 189.719 132.546 189.121C132.31 188.524 131.847 188.044 131.258 187.787C130.67 187.53 130.003 187.517 129.405 187.75L127.886 183.899C128.485 183.665 128.965 183.202 129.223 182.613C129.48 182.025 129.493 181.358 129.258 180.76C129.022 180.163 128.559 179.683 127.971 179.426C127.382 179.17 126.715 179.156 126.117 179.389L124.688 175.758L227.327 135.335L228.756 138.997C228.162 139.233 227.686 139.693 227.429 140.278C227.172 140.862 227.156 141.525 227.384 142.121Z" fill="#F9B84E" stroke="#043866" stroke-miterlimit="10"/>
<path id="Vector_37" d="M216.75 143.699L138.096 174.646L146.465 195.892L225.119 164.945L216.75 143.699Z" fill="#1471D0" stroke="#043866" stroke-miterlimit="10"/>
<path id="free ticket" d="M161.12 172.44C161.183 172.381 161.244 172.339 161.303 172.316C161.512 172.234 161.723 172.224 161.936 172.286C162.104 172.34 162.305 172.489 162.538 172.733C162.779 172.973 162.965 173.227 163.096 173.493C163.136 173.572 163.175 173.66 163.213 173.757C163.26 173.876 163.261 173.978 163.218 174.064C163.165 174.171 163.087 174.245 162.983 174.286C162.856 174.336 162.725 174.331 162.59 174.273C162.453 174.206 162.349 174.097 162.28 173.943C162.211 173.79 162.121 173.649 162.01 173.521C161.907 173.389 161.829 173.334 161.777 173.355C161.71 173.381 161.701 173.501 161.751 173.713C161.797 173.918 161.925 174.307 162.133 174.878L162.526 175.974L162.982 175.756C163.17 175.665 163.271 175.617 163.286 175.611C163.397 175.567 163.531 175.579 163.687 175.646C163.842 175.714 163.935 175.785 163.964 175.86C163.988 175.919 163.979 176.017 163.938 176.154C163.908 176.251 163.864 176.325 163.806 176.373C163.752 176.412 163.631 176.476 163.444 176.568L163.032 176.768L163.107 177.022C163.126 177.092 163.235 177.303 163.434 177.655C163.632 178.006 163.839 178.368 164.054 178.739C164.266 179.102 164.378 179.299 164.39 179.329C164.393 179.336 164.397 179.347 164.403 179.362C164.416 179.374 164.425 179.384 164.428 179.391C164.472 179.503 164.466 179.621 164.412 179.746C164.363 179.86 164.282 179.939 164.17 179.983C163.947 180.071 163.744 179.991 163.561 179.745C163.481 179.631 163.296 179.325 163.006 178.829C162.721 178.322 162.506 177.93 162.362 177.651L162.136 177.211L161.779 177.352C161.444 177.484 161.196 177.542 161.036 177.528C160.873 177.507 160.754 177.403 160.681 177.217C160.622 177.068 160.627 176.95 160.696 176.862C160.765 176.775 160.937 176.677 161.213 176.569L161.693 176.38L161.367 175.554C161.049 174.725 160.869 174.073 160.829 173.599C160.793 173.115 160.89 172.728 161.12 172.44ZM164.908 174.856C164.977 174.726 165.067 174.639 165.179 174.595C165.298 174.548 165.42 174.552 165.544 174.606C165.658 174.655 165.734 174.729 165.773 174.825C165.778 174.84 165.806 174.932 165.856 175.102L165.976 175.506L166.206 174.977C166.337 174.676 166.461 174.455 166.578 174.315C166.702 174.172 166.872 174.057 167.087 173.972C167.177 173.937 167.249 173.913 167.304 173.9C167.838 173.75 168.226 173.774 168.467 173.971C168.571 174.059 168.613 174.167 168.595 174.295C168.561 174.514 168.455 174.659 168.276 174.73C168.179 174.768 168.077 174.791 167.968 174.799C167.751 174.816 167.59 174.845 167.486 174.886C167.248 174.98 167.099 175.279 167.04 175.784C167.015 176.026 167.036 176.404 167.101 176.92C167.172 177.426 167.248 177.782 167.33 177.991C167.336 178.006 167.343 178.024 167.352 178.047C167.365 178.059 167.373 178.068 167.376 178.076C167.395 178.103 167.414 178.138 167.431 178.183C167.461 178.257 167.453 178.368 167.407 178.515C167.358 178.672 167.262 178.779 167.121 178.834C166.934 178.907 166.743 178.858 166.546 178.686C166.246 178.426 165.843 177.708 165.336 176.532C165.169 176.151 165.067 175.915 165.032 175.826C164.923 175.551 164.861 175.348 164.843 175.217C164.834 175.083 164.855 174.963 164.908 174.856ZM171.537 172.621C171.432 172.593 171.331 172.599 171.234 172.637C171.122 172.681 171.018 172.777 170.923 172.927C170.856 173.065 170.806 173.274 170.77 173.554C170.739 173.825 170.746 174.028 170.791 174.165L170.855 174.359L171.208 174.207C171.425 174.105 171.605 173.982 171.747 173.84C171.852 173.713 171.936 173.568 172.001 173.405C172.063 173.235 172.079 173.112 172.05 173.038C172.017 172.956 171.946 172.872 171.835 172.787C171.731 172.699 171.632 172.643 171.537 172.621ZM170.017 172.69C170.22 172.224 170.507 171.917 170.879 171.77C171.051 171.703 171.236 171.673 171.437 171.68C171.706 171.686 171.936 171.746 172.127 171.86C172.326 171.971 172.527 172.154 172.73 172.409C172.795 172.486 172.851 172.585 172.898 172.704C173.042 173.068 173.01 173.468 172.803 173.902C172.596 174.336 172.265 174.685 171.81 174.95C171.643 175.05 171.508 175.121 171.404 175.162C171.337 175.188 171.291 175.202 171.265 175.204L171.036 175.243L171.229 175.734C171.361 176.069 171.504 176.3 171.658 176.429C171.757 176.528 171.831 176.584 171.88 176.599C171.926 176.607 172.011 176.595 172.136 176.563L172.226 176.528C172.375 176.469 172.578 176.286 172.835 175.979C173.123 175.641 173.327 175.449 173.446 175.403C173.535 175.367 173.628 175.374 173.725 175.422C173.839 175.472 173.916 175.548 173.957 175.653C174.051 175.891 173.864 176.266 173.395 176.777C173.2 176.982 173.061 177.119 172.976 177.187C172.888 177.247 172.732 177.322 172.509 177.409C172.293 177.494 172.141 177.546 172.053 177.563C171.97 177.57 171.856 177.554 171.713 177.517C171.515 177.474 171.294 177.35 171.05 177.145C170.873 177 170.752 176.88 170.689 176.785C170.625 176.689 170.518 176.461 170.367 176.099L170.261 175.831C169.751 174.536 169.669 173.489 170.017 172.69ZM175.735 170.968C175.63 170.941 175.529 170.946 175.432 170.984C175.32 171.028 175.217 171.125 175.121 171.274C175.055 171.412 175.004 171.621 174.968 171.902C174.937 172.172 174.944 172.375 174.99 172.512L175.053 172.707L175.406 172.555C175.624 172.452 175.803 172.33 175.945 172.188C176.05 172.061 176.134 171.916 176.199 171.752C176.261 171.582 176.277 171.46 176.248 171.385C176.216 171.303 176.144 171.22 176.033 171.134C175.929 171.046 175.83 170.991 175.735 170.968ZM174.215 171.038C174.418 170.571 174.705 170.264 175.078 170.118C175.249 170.05 175.435 170.02 175.635 170.027C175.904 170.033 176.134 170.093 176.325 170.207C176.524 170.318 176.725 170.501 176.929 170.756C176.994 170.834 177.049 170.932 177.096 171.051C177.24 171.416 177.208 171.815 177.001 172.249C176.794 172.683 176.463 173.033 176.008 173.298C175.842 173.398 175.706 173.468 175.602 173.509C175.535 173.536 175.489 173.55 175.463 173.551L175.234 173.59L175.427 174.081C175.559 174.416 175.702 174.648 175.856 174.776C175.955 174.875 176.029 174.932 176.078 174.947C176.124 174.955 176.21 174.942 176.335 174.91L176.424 174.875C176.573 174.817 176.776 174.633 177.033 174.326C177.321 173.989 177.525 173.797 177.644 173.75C177.734 173.715 177.826 173.721 177.923 173.769C178.037 173.819 178.115 173.896 178.156 174C178.249 174.238 178.062 174.613 177.593 175.124C177.398 175.33 177.259 175.466 177.174 175.534C177.086 175.595 176.93 175.669 176.707 175.757C176.491 175.842 176.339 175.893 176.251 175.91C176.168 175.917 176.055 175.902 175.911 175.864C175.713 175.821 175.493 175.697 175.248 175.493C175.071 175.348 174.95 175.227 174.887 175.132C174.824 175.037 174.716 174.808 174.565 174.446L174.46 174.178C173.949 172.883 173.867 171.836 174.215 171.038ZM181.363 166.56C181.35 166.462 181.381 166.368 181.458 166.278C181.534 166.188 181.624 166.122 181.728 166.081C181.907 166.011 182.084 166.035 182.261 166.155C182.332 166.205 182.377 166.255 182.398 166.307C182.413 166.345 182.425 166.409 182.435 166.499C182.448 166.64 182.493 166.833 182.572 167.077L182.682 167.421L182.993 167.26C183.042 167.232 183.104 167.203 183.178 167.174C183.275 167.136 183.386 167.135 183.512 167.171C183.649 167.212 183.746 167.307 183.805 167.456C183.831 167.523 183.847 167.594 183.851 167.67C183.847 167.835 183.66 168.016 183.291 168.213L182.985 168.385L183.083 168.733C183.349 169.712 183.673 170.689 184.058 171.664C184.219 172.073 184.311 172.329 184.335 172.432C184.355 172.527 184.345 172.621 184.304 172.714C184.253 172.846 184.175 172.933 184.071 172.974C183.974 173.012 183.856 173.007 183.717 172.959C183.616 172.921 183.543 172.868 183.499 172.799C183.455 172.731 183.358 172.528 183.208 172.192L183.116 171.957C182.957 171.555 182.764 171.021 182.536 170.354C182.315 169.685 182.182 169.251 182.139 169.053L182.093 168.839L181.798 169.007C181.572 169.13 181.396 169.23 181.271 169.305C181.244 169.324 181.204 169.344 181.152 169.364C181.07 169.396 180.967 169.385 180.842 169.331C180.697 169.268 180.592 169.155 180.528 168.991C180.457 168.812 180.46 168.678 180.536 168.588C180.61 168.49 180.824 168.358 181.18 168.192C181.556 168.01 181.748 167.909 181.757 167.888C181.773 167.864 181.714 167.66 181.58 167.274C181.445 166.889 181.372 166.651 181.363 166.56ZM185.054 166.835C185.087 166.745 185.164 166.676 185.283 166.629C185.454 166.562 185.611 166.568 185.755 166.649C185.836 166.703 185.932 166.846 186.04 167.079C186.154 167.301 186.4 167.861 186.781 168.761L187.642 170.782L187.545 170.962C187.488 171.079 187.407 171.158 187.303 171.199C187.147 171.26 186.99 171.223 186.833 171.087C186.759 171.03 186.432 170.329 185.85 168.985C185.531 168.242 185.319 167.737 185.214 167.469C185.076 167.119 185.023 166.908 185.054 166.835ZM184.339 165.543C184.408 165.413 184.491 165.329 184.587 165.291C184.707 165.244 184.834 165.25 184.968 165.308C185.103 165.367 185.194 165.456 185.241 165.575C185.288 165.694 185.284 165.825 185.228 165.967C185.166 166.138 185.068 166.249 184.934 166.302C184.763 166.369 184.599 166.335 184.442 166.199C184.379 166.147 184.331 166.08 184.299 165.998C184.246 165.864 184.259 165.712 184.339 165.543ZM187.888 164.946C187.958 164.884 188.041 164.834 188.138 164.796C188.376 164.702 188.64 164.706 188.929 164.807C189.223 164.897 189.513 165.076 189.798 165.342C190.003 165.536 190.119 165.666 190.146 165.733C190.169 165.793 190.15 165.908 190.088 166.078C190.024 166.241 189.961 166.335 189.902 166.358C189.738 166.423 189.471 166.3 189.099 165.991C188.826 165.754 188.633 165.658 188.521 165.702C188.432 165.737 188.358 165.878 188.301 166.124C188.164 166.694 188.25 167.37 188.558 168.151C188.611 168.285 188.654 168.384 188.688 168.448C188.876 168.838 189.045 169.103 189.194 169.242C189.341 169.373 189.496 169.407 189.659 169.342C189.875 169.257 190.129 169.007 190.421 168.591C190.598 168.341 190.727 168.2 190.809 168.168C190.846 168.153 190.877 168.145 190.902 168.144C191.033 168.127 191.153 168.17 191.263 168.273C191.343 168.344 191.39 168.399 191.405 168.436C191.419 168.473 191.42 168.542 191.408 168.641C191.38 168.919 191.142 169.287 190.696 169.747C190.482 169.969 190.256 170.126 190.018 170.22C189.713 170.34 189.407 170.349 189.1 170.246C188.8 170.141 188.524 169.931 188.272 169.618C188.126 169.443 187.942 169.077 187.722 168.519C187.47 167.879 187.329 167.324 187.299 166.854C187.273 166.374 187.352 165.922 187.537 165.496C187.659 165.216 187.776 165.033 187.888 164.946ZM190.062 162.014C190.121 161.879 190.21 161.788 190.329 161.741C190.433 161.7 190.542 161.704 190.656 161.754C190.75 161.794 190.906 162.094 191.126 162.652L191.386 163.311L191.971 164.796L192.083 164.687C192.397 164.392 192.753 163.964 193.151 163.403C193.396 163.065 193.59 162.869 193.731 162.813C193.835 162.772 193.933 162.781 194.025 162.839C194.132 162.892 194.206 162.97 194.247 163.074C194.311 163.238 194.251 163.468 194.067 163.764C193.887 164.05 193.557 164.455 193.076 164.98C192.686 165.408 192.481 165.652 192.461 165.712C192.457 165.722 192.458 165.735 192.463 165.75C192.481 165.794 192.637 165.853 192.933 165.926C193.538 166.066 194.312 166.35 195.255 166.778C195.652 166.957 195.914 167.087 196.04 167.166C196.173 167.242 196.256 167.322 196.288 167.403C196.335 167.523 196.334 167.639 196.284 167.753C196.239 167.857 196.157 167.932 196.038 167.979C195.956 168.011 195.826 167.998 195.648 167.939C195.47 167.88 195.092 167.728 194.514 167.483C193.645 167.111 193.115 166.912 192.923 166.884L192.694 166.858L193.152 167.89L193.599 168.926L193.512 169.129C193.453 169.263 193.371 169.351 193.267 169.392C193.111 169.454 192.948 169.411 192.778 169.263C192.698 169.191 192.439 168.601 192.002 167.492C191.674 166.658 191.19 165.4 190.553 163.716C190.274 162.966 190.112 162.523 190.067 162.386C190.026 162.238 190.024 162.114 190.062 162.014ZM197.827 162.271C197.722 162.244 197.621 162.249 197.524 162.287C197.412 162.331 197.309 162.428 197.213 162.577C197.147 162.715 197.096 162.924 197.06 163.205C197.029 163.475 197.036 163.679 197.082 163.816L197.145 164.01L197.498 163.858C197.716 163.755 197.895 163.633 198.037 163.491C198.142 163.364 198.226 163.219 198.291 163.056C198.353 162.885 198.369 162.763 198.34 162.688C198.308 162.606 198.236 162.523 198.125 162.438C198.021 162.349 197.922 162.294 197.827 162.271ZM196.307 162.341C196.51 161.874 196.797 161.567 197.17 161.421C197.341 161.353 197.527 161.323 197.727 161.33C197.996 161.336 198.226 161.396 198.417 161.51C198.616 161.621 198.817 161.804 199.021 162.059C199.086 162.137 199.141 162.235 199.188 162.354C199.332 162.719 199.3 163.118 199.093 163.552C198.886 163.986 198.555 164.336 198.1 164.601C197.934 164.701 197.798 164.772 197.694 164.813C197.627 164.839 197.581 164.853 197.555 164.854L197.326 164.893L197.519 165.384C197.651 165.719 197.794 165.951 197.948 166.079C198.047 166.178 198.121 166.235 198.17 166.25C198.216 166.258 198.302 166.246 198.427 166.214L198.516 166.178C198.665 166.12 198.868 165.937 199.125 165.629C199.413 165.292 199.617 165.1 199.736 165.053C199.826 165.018 199.918 165.024 200.015 165.072C200.129 165.122 200.207 165.199 200.248 165.303C200.341 165.541 200.154 165.916 199.685 166.428C199.49 166.633 199.351 166.77 199.266 166.837C199.178 166.898 199.022 166.972 198.799 167.06C198.583 167.145 198.431 167.196 198.343 167.213C198.26 167.22 198.147 167.205 198.003 167.167C197.805 167.124 197.585 167.001 197.34 166.796C197.163 166.651 197.042 166.531 196.979 166.435C196.916 166.34 196.808 166.111 196.657 165.749L196.552 165.481C196.041 164.186 195.959 163.14 196.307 162.341ZM200.663 158.962C200.65 158.864 200.682 158.77 200.758 158.68C200.834 158.59 200.925 158.524 201.029 158.483C201.207 158.413 201.385 158.437 201.561 158.557C201.632 158.607 201.678 158.657 201.698 158.709C201.713 158.747 201.725 158.811 201.735 158.901C201.748 159.042 201.794 159.235 201.873 159.479L201.983 159.823L202.293 159.662C202.342 159.634 202.404 159.605 202.479 159.576C202.575 159.538 202.687 159.537 202.813 159.573C202.949 159.614 203.047 159.709 203.106 159.858C203.132 159.925 203.147 159.996 203.151 160.072C203.147 160.237 202.961 160.418 202.591 160.615L202.285 160.787L202.384 161.135C202.649 162.114 202.974 163.091 203.358 164.066C203.52 164.475 203.612 164.731 203.635 164.834C203.655 164.929 203.645 165.023 203.605 165.116C203.554 165.248 203.476 165.335 203.372 165.376C203.275 165.414 203.157 165.409 203.017 165.361C202.916 165.323 202.844 165.27 202.8 165.201C202.755 165.133 202.658 164.93 202.509 164.594L202.416 164.359C202.258 163.957 202.064 163.423 201.836 162.756C201.615 162.087 201.483 161.653 201.439 161.455L201.394 161.241L201.099 161.409C200.872 161.532 200.696 161.632 200.571 161.707C200.544 161.726 200.505 161.746 200.453 161.766C200.371 161.799 200.268 161.788 200.143 161.733C199.998 161.67 199.893 161.557 199.828 161.393C199.758 161.214 199.761 161.08 199.837 160.99C199.91 160.892 200.125 160.76 200.481 160.594C200.856 160.412 201.048 160.311 201.057 160.29C201.074 160.266 201.015 160.062 200.88 159.676C200.745 159.291 200.673 159.053 200.663 158.962Z" fill="white"/>
<path id="Vector_38" d="M235.693 183.58C235.776 184.215 236.108 184.792 236.615 185.184C237.122 185.576 237.763 185.752 238.4 185.673L238.923 189.78C238.601 189.812 238.289 189.908 238.005 190.062C237.721 190.217 237.47 190.426 237.268 190.678C237.066 190.931 236.916 191.221 236.828 191.532C236.739 191.843 236.714 192.168 236.753 192.489C236.792 192.81 236.895 193.119 237.055 193.4C237.216 193.681 237.43 193.927 237.687 194.123C237.944 194.32 238.237 194.463 238.55 194.545C238.863 194.626 239.189 194.645 239.509 194.599L240.033 198.701C239.711 198.733 239.399 198.829 239.115 198.983C238.831 199.137 238.58 199.347 238.378 199.599C238.176 199.851 238.026 200.142 237.938 200.452C237.849 200.763 237.824 201.089 237.863 201.41C237.902 201.73 238.005 202.04 238.165 202.321C238.325 202.601 238.54 202.847 238.797 203.044C239.054 203.24 239.347 203.384 239.66 203.465C239.973 203.547 240.299 203.565 240.619 203.52L241.09 207.397L131.561 220.686L131.09 216.809C131.726 216.726 132.303 216.394 132.695 215.888C133.087 215.381 133.263 214.74 133.184 214.104C133.102 213.469 132.772 212.893 132.266 212.501C131.759 212.109 131.118 211.933 130.483 212.011L129.959 207.904C130.594 207.822 131.171 207.492 131.564 206.986C131.956 206.48 132.132 205.84 132.053 205.204C132.016 204.888 131.916 204.582 131.76 204.304C131.604 204.026 131.394 203.781 131.143 203.584C130.892 203.387 130.605 203.242 130.297 203.156C129.99 203.071 129.669 203.047 129.352 203.085L128.828 198.983C129.464 198.9 130.041 198.569 130.433 198.062C130.825 197.555 131.001 196.914 130.923 196.278C130.844 195.64 130.516 195.059 130.009 194.662C129.503 194.265 128.86 194.084 128.221 194.159L127.75 190.288L237.274 176.998L237.745 180.875C237.118 180.97 236.552 181.305 236.169 181.811C235.786 182.316 235.615 182.951 235.693 183.58V183.58Z" fill="#66CCB4" stroke="#043866" stroke-miterlimit="10"/>
<path id="Vector_39" d="M225.009 182.432L141.095 192.61L143.847 215.277L227.762 205.099L225.009 182.432Z" fill="#1471D0" stroke="#043866" stroke-miterlimit="10"/>
<path id="free ticket_2" d="M161.253 196.002C161.328 195.96 161.398 195.936 161.461 195.928C161.684 195.901 161.89 195.944 162.082 196.057C162.23 196.152 162.387 196.346 162.553 196.64C162.726 196.933 162.842 197.225 162.902 197.516C162.921 197.603 162.937 197.697 162.949 197.801C162.965 197.928 162.941 198.027 162.877 198.1C162.8 198.19 162.706 198.242 162.594 198.255C162.459 198.272 162.334 198.235 162.218 198.144C162.101 198.046 162.028 197.914 162 197.748C161.971 197.582 161.92 197.423 161.844 197.271C161.777 197.118 161.716 197.045 161.66 197.052C161.589 197.061 161.55 197.174 161.545 197.393C161.539 197.603 161.565 198.011 161.623 198.616L161.73 199.776L162.226 199.679C162.43 199.638 162.54 199.616 162.556 199.614C162.675 199.599 162.802 199.644 162.936 199.749C163.069 199.853 163.141 199.945 163.151 200.025C163.159 200.088 163.126 200.181 163.052 200.303C162.998 200.39 162.937 200.45 162.869 200.482C162.807 200.506 162.674 200.539 162.47 200.58L162.022 200.671L162.03 200.936C162.031 201.008 162.084 201.24 162.188 201.63C162.293 202.02 162.402 202.422 162.518 202.835C162.632 203.24 162.691 203.458 162.695 203.49C162.696 203.498 162.698 203.51 162.7 203.526C162.71 203.541 162.715 203.552 162.716 203.56C162.731 203.679 162.696 203.792 162.613 203.899C162.536 203.997 162.438 204.053 162.319 204.068C162.081 204.097 161.904 203.97 161.788 203.686C161.74 203.555 161.637 203.213 161.481 202.66C161.331 202.098 161.221 201.664 161.151 201.358L161.043 200.876L160.662 200.923C160.305 200.966 160.05 200.961 159.899 200.908C159.746 200.846 159.657 200.716 159.633 200.517C159.613 200.358 159.648 200.245 159.736 200.178C159.825 200.111 160.016 200.059 160.309 200.023L160.822 199.96L160.713 199.079C160.612 198.196 160.602 197.521 160.681 197.051C160.767 196.573 160.958 196.224 161.253 196.002ZM164.316 199.289C164.415 199.18 164.524 199.118 164.643 199.104C164.77 199.088 164.887 199.122 164.994 199.206C165.093 199.282 165.148 199.372 165.161 199.476C165.163 199.491 165.166 199.588 165.172 199.764L165.188 200.186L165.543 199.731C165.745 199.472 165.92 199.29 166.068 199.183C166.224 199.075 166.417 199.007 166.647 198.979C166.742 198.967 166.818 198.962 166.875 198.963C167.43 198.951 167.799 199.071 167.983 199.322C168.061 199.434 168.075 199.549 168.026 199.668C167.938 199.872 167.799 199.986 167.608 200.009C167.505 200.022 167.4 200.019 167.293 200C167.078 199.961 166.916 199.949 166.805 199.963C166.55 199.994 166.332 200.247 166.148 200.72C166.064 200.949 165.988 201.32 165.923 201.836C165.865 202.343 165.849 202.708 165.876 202.93C165.878 202.946 165.881 202.966 165.884 202.99C165.894 203.005 165.899 203.016 165.9 203.024C165.912 203.055 165.921 203.094 165.927 203.142C165.936 203.221 165.901 203.326 165.82 203.457C165.733 203.597 165.614 203.676 165.463 203.694C165.264 203.719 165.091 203.623 164.944 203.407C164.718 203.08 164.507 202.284 164.311 201.019C164.244 200.608 164.205 200.355 164.193 200.259C164.157 199.966 164.147 199.753 164.163 199.622C164.187 199.49 164.238 199.379 164.316 199.289ZM171.293 198.783C171.198 198.73 171.099 198.71 170.996 198.723C170.877 198.737 170.752 198.805 170.622 198.926C170.523 199.043 170.422 199.233 170.317 199.495C170.219 199.749 170.175 199.948 170.185 200.092L170.198 200.296L170.578 200.237C170.814 200.192 171.019 200.118 171.191 200.017C171.325 199.92 171.443 199.8 171.546 199.659C171.649 199.509 171.695 199.395 171.685 199.315C171.675 199.228 171.626 199.129 171.54 199.019C171.462 198.907 171.38 198.829 171.293 198.783ZM169.804 198.47C170.117 198.069 170.472 197.844 170.869 197.795C171.052 197.773 171.239 197.79 171.432 197.847C171.691 197.92 171.898 198.036 172.055 198.194C172.219 198.351 172.368 198.578 172.502 198.876C172.545 198.968 172.575 199.077 172.59 199.204C172.638 199.593 172.508 199.972 172.199 200.34C171.889 200.709 171.481 200.964 170.975 201.107C170.788 201.162 170.64 201.197 170.528 201.21C170.457 201.219 170.409 201.221 170.384 201.216L170.152 201.196L170.216 201.72C170.26 202.077 170.341 202.338 170.458 202.501C170.529 202.621 170.586 202.694 170.63 202.721C170.673 202.74 170.758 202.75 170.887 202.75L170.983 202.738C171.141 202.719 171.384 202.592 171.71 202.359C172.073 202.105 172.319 201.97 172.446 201.954C172.541 201.943 172.629 201.972 172.711 202.043C172.809 202.119 172.865 202.213 172.878 202.324C172.91 202.578 172.634 202.894 172.052 203.272C171.813 203.422 171.643 203.52 171.544 203.564C171.444 203.601 171.274 203.634 171.036 203.663C170.806 203.691 170.646 203.703 170.557 203.697C170.474 203.683 170.368 203.64 170.238 203.567C170.058 203.477 169.875 203.302 169.69 203.042C169.554 202.857 169.468 202.711 169.43 202.603C169.393 202.494 169.346 202.246 169.29 201.858L169.255 201.572C169.085 200.191 169.268 199.157 169.804 198.47ZM175.771 198.233C175.676 198.18 175.577 198.16 175.474 198.173C175.355 198.188 175.23 198.255 175.1 198.376C175.001 198.493 174.9 198.683 174.795 198.945C174.697 199.199 174.653 199.398 174.663 199.542L174.676 199.746L175.056 199.687C175.292 199.642 175.497 199.569 175.669 199.467C175.803 199.37 175.921 199.251 176.024 199.109C176.127 198.959 176.173 198.845 176.163 198.765C176.153 198.678 176.104 198.579 176.018 198.469C175.94 198.358 175.858 198.279 175.771 198.233ZM174.282 197.92C174.595 197.519 174.95 197.294 175.347 197.246C175.53 197.223 175.718 197.24 175.91 197.297C176.169 197.37 176.377 197.486 176.533 197.644C176.697 197.801 176.846 198.029 176.98 198.327C177.023 198.418 177.053 198.527 177.069 198.654C177.117 199.043 176.986 199.422 176.677 199.79C176.367 200.159 175.96 200.415 175.453 200.557C175.267 200.612 175.118 200.647 175.006 200.661C174.935 200.669 174.887 200.671 174.862 200.666L174.63 200.646L174.694 201.17C174.738 201.528 174.819 201.788 174.936 201.951C175.007 202.071 175.064 202.145 175.108 202.171C175.151 202.19 175.236 202.2 175.365 202.2L175.461 202.189C175.62 202.169 175.862 202.043 176.188 201.809C176.551 201.555 176.797 201.42 176.924 201.404C177.019 201.393 177.107 201.422 177.189 201.493C177.287 201.569 177.343 201.663 177.356 201.774C177.388 202.029 177.112 202.344 176.53 202.722C176.291 202.872 176.121 202.97 176.022 203.014C175.922 203.051 175.752 203.084 175.514 203.113C175.284 203.141 175.124 203.153 175.035 203.148C174.952 203.134 174.846 203.09 174.717 203.017C174.536 202.927 174.353 202.752 174.168 202.492C174.033 202.307 173.946 202.161 173.908 202.053C173.871 201.944 173.824 201.696 173.768 201.308L173.733 201.022C173.563 199.641 173.746 198.607 174.282 197.92ZM182.323 195.373C182.335 195.275 182.389 195.192 182.485 195.124C182.582 195.056 182.685 195.015 182.797 195.001C182.987 194.978 183.153 195.046 183.293 195.206C183.35 195.272 183.381 195.332 183.388 195.388C183.393 195.427 183.389 195.492 183.376 195.583C183.353 195.723 183.349 195.92 183.365 196.176L183.385 196.537L183.726 196.459C183.78 196.444 183.847 196.432 183.927 196.422C184.03 196.409 184.138 196.436 184.251 196.503C184.373 196.577 184.444 196.693 184.463 196.852C184.472 196.923 184.469 196.996 184.454 197.07C184.409 197.229 184.183 197.358 183.776 197.456L183.437 197.546L183.445 197.908C183.457 198.922 183.527 199.949 183.655 200.989C183.709 201.426 183.734 201.697 183.731 201.802C183.727 201.899 183.694 201.988 183.631 202.068C183.548 202.183 183.452 202.247 183.34 202.261C183.237 202.273 183.124 202.239 183.001 202.157C182.913 202.096 182.856 202.026 182.83 201.949C182.805 201.871 182.761 201.651 182.701 201.287L182.67 201.037C182.617 200.609 182.563 200.043 182.509 199.34C182.463 198.637 182.443 198.184 182.45 197.981L182.46 197.763L182.132 197.851C181.882 197.914 181.687 197.966 181.547 198.008C181.516 198.019 181.473 198.029 181.417 198.036C181.33 198.046 181.233 198.01 181.126 197.926C181.001 197.829 180.928 197.693 180.906 197.518C180.883 197.328 180.919 197.198 181.016 197.13C181.111 197.054 181.352 196.98 181.738 196.908C182.147 196.826 182.358 196.776 182.372 196.758C182.394 196.739 182.388 196.526 182.354 196.119C182.32 195.712 182.309 195.464 182.323 195.373ZM185.828 196.563C185.883 196.484 185.974 196.436 186.101 196.421C186.283 196.398 186.434 196.444 186.553 196.559C186.618 196.631 186.675 196.794 186.722 197.046C186.776 197.289 186.875 197.894 187.018 198.859L187.346 201.031L187.207 201.181C187.123 201.281 187.025 201.337 186.914 201.351C186.747 201.371 186.605 201.296 186.487 201.125C186.429 201.051 186.287 200.291 186.061 198.844C185.938 198.045 185.859 197.502 185.824 197.217C185.778 196.843 185.779 196.626 185.828 196.563ZM185.458 195.134C185.558 195.025 185.659 194.964 185.762 194.951C185.889 194.936 186.011 194.973 186.127 195.064C186.243 195.154 186.309 195.263 186.324 195.39C186.34 195.517 186.303 195.642 186.214 195.766C186.111 195.916 185.988 195.999 185.845 196.017C185.663 196.039 185.513 195.965 185.395 195.794C185.346 195.728 185.317 195.651 185.306 195.563C185.288 195.42 185.339 195.277 185.458 195.134ZM189.044 195.443C189.128 195.4 189.221 195.373 189.324 195.36C189.578 195.329 189.833 195.398 190.087 195.569C190.349 195.73 190.585 195.975 190.795 196.304C190.945 196.543 191.025 196.699 191.033 196.77C191.041 196.834 190.994 196.94 190.891 197.09C190.788 197.232 190.704 197.306 190.641 197.314C190.466 197.336 190.238 197.15 189.956 196.758C189.75 196.46 189.587 196.319 189.468 196.334C189.373 196.346 189.267 196.463 189.149 196.687C188.874 197.205 188.788 197.88 188.891 198.714C188.909 198.857 188.926 198.964 188.942 199.034C189.027 199.459 189.124 199.757 189.234 199.929C189.343 200.093 189.485 200.164 189.659 200.143C189.89 200.115 190.198 199.936 190.585 199.606C190.818 199.408 190.979 199.304 191.066 199.293C191.106 199.288 191.138 199.288 191.163 199.293C191.294 199.31 191.399 199.381 191.48 199.508C191.539 199.598 191.571 199.662 191.576 199.702C191.581 199.742 191.565 199.808 191.528 199.901C191.431 200.163 191.109 200.461 190.562 200.794C190.3 200.955 190.041 201.051 189.787 201.082C189.462 201.122 189.163 201.054 188.892 200.878C188.628 200.701 188.413 200.429 188.247 200.062C188.149 199.857 188.064 199.456 187.99 198.861C187.906 198.178 187.908 197.605 187.996 197.143C188.091 196.672 188.282 196.254 188.567 195.888C188.755 195.648 188.914 195.499 189.044 195.443ZM191.883 193.148C191.973 193.032 192.082 192.966 192.209 192.951C192.32 192.937 192.425 192.968 192.523 193.045C192.603 193.108 192.68 193.437 192.754 194.032L192.84 194.735L193.035 196.319L193.171 196.242C193.548 196.034 194 195.709 194.526 195.265C194.848 195 195.084 194.858 195.235 194.84C195.346 194.826 195.439 194.859 195.513 194.939C195.603 195.016 195.655 195.111 195.669 195.222C195.691 195.397 195.575 195.604 195.323 195.845C195.077 196.076 194.656 196.386 194.059 196.774C193.574 197.091 193.315 197.276 193.281 197.329C193.274 197.338 193.271 197.35 193.273 197.366C193.279 197.413 193.416 197.509 193.684 197.654C194.235 197.941 194.913 198.41 195.719 199.06C196.059 199.333 196.28 199.523 196.382 199.632C196.492 199.739 196.552 199.837 196.563 199.924C196.578 200.051 196.548 200.164 196.471 200.262C196.402 200.351 196.303 200.403 196.176 200.419C196.089 200.429 195.967 200.384 195.809 200.282C195.651 200.181 195.323 199.939 194.825 199.557C194.077 198.98 193.613 198.654 193.435 198.579L193.219 198.497L193.405 199.61L193.578 200.726L193.443 200.899C193.352 201.015 193.251 201.08 193.14 201.094C192.973 201.114 192.826 201.032 192.698 200.846C192.639 200.756 192.537 200.12 192.391 198.937C192.281 198.048 192.128 196.708 191.932 194.919C191.85 194.123 191.804 193.653 191.795 193.509C191.792 193.356 191.821 193.236 191.883 193.148ZM199.337 195.34C199.241 195.287 199.142 195.267 199.039 195.28C198.92 195.294 198.795 195.362 198.665 195.483C198.567 195.6 198.465 195.789 198.36 196.052C198.263 196.306 198.219 196.505 198.228 196.649L198.241 196.852L198.621 196.794C198.857 196.749 199.062 196.675 199.235 196.573C199.368 196.476 199.486 196.357 199.59 196.215C199.692 196.066 199.738 195.951 199.729 195.872C199.718 195.785 199.669 195.686 199.583 195.575C199.505 195.464 199.423 195.386 199.337 195.34ZM197.847 195.027C198.16 194.626 198.516 194.401 198.913 194.352C199.095 194.33 199.283 194.347 199.475 194.404C199.734 194.477 199.942 194.592 200.098 194.751C200.263 194.908 200.412 195.135 200.545 195.433C200.589 195.525 200.618 195.634 200.634 195.761C200.682 196.15 200.551 196.529 200.242 196.897C199.933 197.265 199.525 197.521 199.018 197.664C198.832 197.719 198.683 197.753 198.572 197.767C198.5 197.776 198.452 197.778 198.427 197.773L198.195 197.753L198.26 198.277C198.304 198.634 198.384 198.894 198.501 199.057C198.572 199.178 198.63 199.251 198.673 199.278C198.716 199.297 198.802 199.307 198.931 199.307L199.026 199.295C199.185 199.276 199.427 199.149 199.753 198.916C200.117 198.661 200.362 198.527 200.489 198.511C200.584 198.499 200.673 198.529 200.754 198.599C200.852 198.676 200.908 198.77 200.922 198.881C200.953 199.135 200.677 199.451 200.095 199.829C199.856 199.979 199.686 200.076 199.587 200.121C199.487 200.157 199.318 200.19 199.079 200.219C198.849 200.248 198.689 200.259 198.6 200.254C198.518 200.24 198.412 200.197 198.282 200.124C198.101 200.033 197.919 199.858 197.733 199.599C197.598 199.414 197.511 199.267 197.474 199.159C197.436 199.051 197.389 198.803 197.334 198.415L197.298 198.129C197.128 196.747 197.311 195.713 197.847 195.027ZM202.91 192.846C202.922 192.747 202.976 192.664 203.073 192.596C203.169 192.528 203.273 192.487 203.384 192.473C203.575 192.45 203.74 192.518 203.881 192.678C203.937 192.744 203.969 192.804 203.976 192.86C203.981 192.9 203.977 192.965 203.964 193.055C203.941 193.195 203.937 193.393 203.952 193.649L203.972 194.009L204.313 193.931C204.368 193.916 204.435 193.904 204.514 193.894C204.618 193.881 204.726 193.908 204.839 193.975C204.961 194.049 205.031 194.165 205.051 194.324C205.06 194.395 205.057 194.468 205.042 194.543C204.997 194.701 204.771 194.83 204.364 194.928L204.024 195.018L204.032 195.38C204.045 196.394 204.115 197.421 204.243 198.461C204.297 198.898 204.322 199.169 204.319 199.274C204.315 199.371 204.281 199.46 204.219 199.54C204.136 199.655 204.039 199.719 203.928 199.733C203.825 199.746 203.712 199.711 203.589 199.63C203.501 199.568 203.444 199.498 203.418 199.421C203.392 199.343 203.349 199.123 203.288 198.76L203.257 198.51C203.205 198.081 203.151 197.515 203.097 196.812C203.05 196.109 203.031 195.656 203.038 195.454L203.047 195.235L202.72 195.323C202.469 195.386 202.274 195.438 202.134 195.48C202.104 195.492 202.06 195.501 202.005 195.508C201.918 195.519 201.82 195.482 201.713 195.399C201.588 195.301 201.515 195.165 201.494 194.99C201.47 194.8 201.507 194.67 201.603 194.602C201.698 194.526 201.939 194.452 202.325 194.38C202.734 194.298 202.946 194.248 202.96 194.23C202.982 194.211 202.976 193.998 202.942 193.591C202.908 193.184 202.897 192.936 202.91 192.846Z" fill="white"/>
</g>
</g>
<defs>
<linearGradient id="paint0_linear_566_8469" x1="301.765" y1="115.246" x2="266.086" y2="213.432" gradientUnits="userSpaceOnUse">
<stop stop-color="#FFB35C"/>
<stop offset="1" stop-color="#F9D43A"/>
</linearGradient>
<clipPath id="clip0_566_8469">
<rect width="186.124" height="168.454" fill="white" transform="translate(137.838 15) rotate(25.2426)"/>
</clipPath>
<clipPath id="clip1_566_8469">
<rect width="125.4" height="219.839" fill="white" transform="translate(0 17.9012) rotate(-8.2072)"/>
</clipPath>
<clipPath id="clip2_566_8469">
<rect width="106.154" height="112.676" fill="white" transform="translate(270.188 92) rotate(35.9745)"/>
</clipPath>
<clipPath id="clip3_566_8469">
<rect width="117" height="86" fill="white" transform="translate(124.326 135)"/>
</clipPath>
</defs>
</svg>
