<svg width="105" height="100" viewBox="0 0 105 100" fill="none" xmlns="http://www.w3.org/2000/svg">
<path d="M12.9805 26.0921C13.119 30.1672 14.2249 34.1509 16.2069 37.7144V37.7144C16.7244 38.6837 17.3279 39.6045 18.01 40.4658V40.4658C20.4696 43.5376 23.6114 45.9943 27.1858 47.6411C30.7602 49.288 34.6691 50.0797 38.6028 49.9535H39.1722H41.0702H42.4936H43.1105H43.5374H44.1542L44.9135 49.7163H45.2457C45.5304 49.7163 46.4317 49.1944 46.5266 49.0995L47.0485 48.8623L47.7129 48.4354C48.0139 48.2897 48.2999 48.115 48.5669 47.9136L49.0416 47.5816L49.6109 47.1546L50.4175 46.443L50.7971 46.0635C50.967 45.9175 51.1255 45.759 51.2715 45.5892H51.5087L51.9358 45.0673C52.1087 44.8735 52.2672 44.6674 52.4102 44.4506L52.7899 43.9288L53.1221 43.3596L53.5492 42.648L53.8339 42.0313V41.7941L54.0711 41.2723L54.3558 40.5607C54.3558 40.5607 54.3557 40.1337 54.593 39.8965C54.6199 39.7715 54.6199 39.6422 54.593 39.5171C54.6135 39.4233 54.6135 39.3262 54.593 39.2324C54.6152 39.091 54.6152 38.9469 54.593 38.8055V38.1888V37.3823C54.6132 37.1297 54.6132 36.876 54.593 36.6234C54.593 36.6234 54.593 36.1015 54.593 35.8644V35.0104C54.5887 30.8514 53.0366 26.8427 50.2388 23.7649C47.4409 20.687 43.5975 18.7603 39.4568 18.3597H37.8435H34.4273H33.5258H34.4273H33.3836H32.2921H31.1533L30.0621 18.5969C28.5305 20.615 27.7128 23.0845 27.7372 25.6177C27.7109 27.1384 27.9683 28.6506 28.4962 30.0769V30.0769H29.1131L30.3943 29.65L31.5805 29.3179L33.7155 28.8435H34.5698H35.471H36.3726H39.5993C41.1265 28.9851 42.5462 29.6903 43.5814 30.8217C44.6166 31.9532 45.193 33.4296 45.1982 34.963V35.3425C45.1982 35.3425 45.1982 35.5797 45.1982 35.6746C45.0974 36.645 44.7547 37.5747 44.2017 38.3786V38.3786C44.2234 38.4882 44.2234 38.601 44.2017 38.7106L43.917 39.0427C43.622 39.3213 43.3046 39.5752 42.968 39.8017V39.8017H42.5883L42.1615 40.0389H41.6396H41.2599H40.8328H40.5009H39.0297C36.7374 40.0786 34.4711 39.549 32.434 38.4975C30.3968 37.446 28.6527 35.9056 27.3575 34.0143V34.0143C26.7469 33.1497 26.2523 32.2087 25.8866 31.2154V31.2154C25.2025 29.3472 24.8648 27.3699 24.8901 25.3805C24.8837 23.4503 25.2379 21.5358 25.9341 19.7354V19.7354C26.5405 18.2063 27.4073 16.7939 28.4962 15.5609V15.5609C30.8944 12.9758 34.113 11.2998 37.6063 10.8171C38.5546 10.7674 39.5051 10.7674 40.4534 10.8171C43.2988 10.871 46.1367 11.1246 48.9466 11.5761C51.6511 11.9556 54.4031 12.43 57.2501 12.9044C56.8705 9.01444 56.5384 5.31427 56.1588 1.56667C51.4628 0.669692 46.703 0.146225 41.9243 0.00120279C38.282 -0.027789 34.6545 0.46747 31.1533 1.47177C27.161 2.28101 23.4099 4.00194 20.1927 6.50019C16.2052 10.6176 13.7444 15.9734 13.2179 21.6804V21.6804C13.1707 22.5811 13.1707 23.4837 13.2179 24.3844C13.2179 24.8587 13.2179 25.3331 13.2179 25.8075L12.9805 26.0921Z" fill="#66CCB4"/>
<path d="M103.936 2.42092L91.9787 14.5652C91.9454 14.6228 91.9278 14.6883 91.9278 14.755C91.9278 14.8216 91.9454 14.887 91.9787 14.9447L97.3879 31.0737C97.3879 31.4058 97.1033 31.6905 96.8186 31.5007L68.3494 9.29948C68.2901 9.26667 68.2405 9.21854 68.206 9.16014C68.1716 9.10175 68.1533 9.03524 68.1533 8.96745C68.1533 8.89966 68.1716 8.83309 68.206 8.77469C68.2405 8.71629 68.2901 8.66817 68.3494 8.63535L103.746 1.8042C103.808 1.82057 103.866 1.85264 103.912 1.89736C103.959 1.94208 103.994 1.99796 104.013 2.05972C104.032 2.12148 104.034 2.1871 104.021 2.25031C104.008 2.31352 103.978 2.37224 103.936 2.42092Z" fill="#F9B84E"/>
<path d="M73.5688 88.6623C71.4336 88.9944 69.2033 89.279 66.9258 89.5161V100H77.5547V87.9507L73.5688 88.6623Z" fill="#1471D0"/>
<path d="M102.229 61.2432C101.617 57.2011 99.5469 53.5226 96.4091 50.9011C93.2713 48.2796 89.2829 46.8963 85.1954 47.0118C80.7592 46.8268 76.4126 48.2979 73.001 51.139L72.7164 51.3762L72.0995 51.9454C68.9911 55.0279 67.1323 59.1504 66.8803 63.5203C66.8803 63.8998 66.8803 64.2793 66.8803 64.6113V72.3912C68.2088 72.3912 69.4899 72.1065 70.7236 71.8693C72.7639 71.5373 75.1362 71.0629 77.4612 70.5411V64.7537V64.1369C77.4699 63.2505 77.6548 62.3746 78.0051 61.5603C78.3554 60.7459 78.8639 60.0092 79.5015 59.3931L79.8337 59.0137C81.1834 57.9478 82.8587 57.3783 84.5785 57.4008C85.4054 57.309 86.2424 57.3829 87.0404 57.6181C87.8385 57.8532 88.5817 58.245 89.2267 58.7706C89.8716 59.2961 90.4052 59.9449 90.7966 60.6789C91.188 61.413 91.4293 62.2176 91.5061 63.0459C91.6697 64.6039 91.3469 66.1743 90.5823 67.5418C89.8177 68.9092 88.6488 70.0066 87.2356 70.6834C85.0313 71.5783 82.7633 72.3078 80.4505 72.8656L77.1765 73.672C74.9939 74.1938 72.8588 74.6207 71.0083 74.9054L66.5956 75.5221C65.5043 75.5221 64.413 75.7593 63.3216 75.8067C57.3375 76.3013 51.3226 76.3013 45.3384 75.8067H43.9625H42.2069H41.1629C35.478 75.0113 29.9348 73.4141 24.6984 71.0629C21.4689 69.7446 18.5698 67.7305 16.2078 65.1641C13.8458 62.5976 12.079 59.542 11.0332 56.2148C10.3707 53.6512 10.2736 50.9743 10.7488 48.3695C11.224 45.7647 12.2602 43.2943 13.7853 41.1296C13.548 40.7501 13.3107 40.3705 13.1209 39.991C11.2647 36.7173 10.0868 33.1035 9.65726 29.365C8.24335 30.8466 6.94272 32.4323 5.76643 34.1088C3.12955 37.6333 1.33149 41.7127 0.509263 46.0367C-0.312963 50.3606 -0.13769 54.8151 1.02157 59.0611C1.21637 59.7861 1.45386 60.4989 1.73313 61.1958C3.4269 65.5636 5.97922 69.5477 9.23907 72.9128C12.4989 76.2778 16.4002 78.9555 20.7126 80.7877C25.7286 82.9752 30.9838 84.5673 36.3706 85.5315C40.6923 86.2323 45.0477 86.7074 49.4189 86.9546V86.9546C51.7914 86.9546 54.164 86.9546 56.4415 86.9546C58.7191 86.9546 61.1862 86.9546 63.6535 86.9546L66.9275 86.67C69.0627 86.67 71.1031 86.1956 73.0485 85.911L77.7934 85.0571L81.0674 84.3455C84.7934 83.5109 88.4436 82.3685 91.9805 80.93C95.6405 79.2617 98.6374 76.4177 100.495 72.8504C102.352 69.2832 102.962 65.1974 102.229 61.2432Z" fill="#1471D0"/>
</svg>
