<svg width="133" height="50" viewBox="0 0 133 50" fill="none" xmlns="http://www.w3.org/2000/svg">
<path d="M31.4561 11.9228H39.5064V7.73945H31.4561V4.79371H40.0833V0.616821H27.1133V19.7609H40.5111V15.5776H31.4561V11.9228Z" fill="#2567B1"/>
<path d="M57.8227 0.616821H42.2988V4.79371H47.8926V19.7609H52.2354V4.79371H57.8227V0.616821Z" fill="#2567B1"/>
<path d="M63.4621 0.616843L54.9775 19.7351H59.8192L61.5628 15.6034H68.4595L70.1771 19.7351H75.071L66.8843 0.591064L63.4621 0.616843ZM63.339 11.4458L65.0825 7.33983L66.7419 11.4458H63.339Z" fill="#2567B1"/>
<path d="M93.6944 0.616821L90.6155 11.6069L87.3617 0.616821H83.3689L80.1021 11.5812L77.088 0.616821H72.4082L78.0409 19.7609H81.9883L85.3394 8.40982L88.671 19.7609H92.5925L98.2511 0.616821H93.6944Z" fill="#2567B1"/>
<path d="M104.039 0.616843L95.5605 19.7351H100.396L102.139 15.6034H109.036L110.754 19.7351H115.647L107.461 0.591064L104.039 0.616843ZM103.916 11.4458L105.659 7.33983L107.325 11.4458H103.916Z" fill="#2567B1"/>
<path d="M126.472 0.616821L122.232 7.19801L118.117 0.616821H112.743L120.042 11.6972V19.7609H124.391V11.6972L131.689 0.616821H126.472Z" fill="#2567B1"/>
<path d="M56.6891 28.0051H52.3398V47.1492H64.4283V42.9723H56.6891V28.0051Z" fill="#2567B1"/>
<path d="M101.588 28.0051V39.5045L93.5307 28.0051H89.2139V47.1492H93.5631V35.6563L101.62 47.1492H105.937V28.0051H101.588Z" fill="#2567B1"/>
<path d="M85.9216 48.7413L76.6398 43.0626C76.6038 43.0403 76.5622 43.0285 76.5198 43.0285C76.4774 43.0285 76.4359 43.0403 76.3999 43.0626L67.1311 48.7349C67.0883 48.7599 67.0383 48.7708 66.9889 48.7658C66.9395 48.7608 66.8932 48.7403 66.8563 48.7072C66.8195 48.6741 66.7942 48.6303 66.7842 48.5819C66.7741 48.5336 66.7797 48.4833 66.8003 48.4384L76.4841 27.4701C76.5022 27.4287 76.5322 27.3935 76.5701 27.3687C76.6081 27.344 76.6526 27.3308 76.698 27.3308C76.7434 27.3308 76.7879 27.344 76.8259 27.3687C76.8639 27.3935 76.8938 27.4287 76.912 27.4701L86.2586 48.4061C86.3033 48.4506 86.3286 48.5109 86.3286 48.5737C86.3286 48.6366 86.3033 48.6969 86.2586 48.7413C86.2139 48.7858 86.1535 48.8107 86.0903 48.8107C86.0271 48.8107 85.9663 48.7858 85.9216 48.7413Z" fill="#FAB15E"/>
<path d="M37.956 43.2108C37.1221 43.3483 36.2471 43.4578 35.3311 43.5395V47.6648H39.5183V42.9336C38.7664 43.069 38.2024 43.1656 37.956 43.2108Z" fill="#6EBCAB"/>
<path d="M45.1249 39.9943C43.7227 40.5553 42.2768 41.0015 40.8016 41.3286L39.5052 41.6122C38.8571 41.7411 38.2672 41.8507 37.7357 41.9409C36.9644 42.0698 36.1607 42.173 35.318 42.2503L34.0217 42.3535C33.0948 42.4115 32.1355 42.4437 31.1568 42.4437C23.4694 42.4437 14.304 40.5809 7.60181 35.9012C5.44281 34.3846 3.69238 32.363 2.50438 30.0148C1.31637 27.6666 0.72742 25.0638 0.789618 22.4359C0.789618 22.2489 0.789618 22.0684 0.789618 21.888C0.954956 18.9622 1.94802 16.1424 3.65451 13.7533C4.09299 13.1428 4.57395 12.5634 5.09361 12.0194C5.32096 13.6239 5.88867 15.1619 6.75931 16.5315L6.54536 16.886C6.34442 17.2276 6.16287 17.5757 5.99434 17.9302C5.92953 18.0656 5.87133 18.2074 5.81299 18.3492C5.75466 18.491 5.73526 18.5361 5.70285 18.6328C5.6828 18.6746 5.66543 18.7177 5.65095 18.7617C5.61854 18.8455 5.59253 18.9358 5.56012 19.026L5.52119 19.1356L5.42402 19.445V19.5223C5.39121 19.6127 5.36514 19.7053 5.34617 19.7995C5.34617 19.8575 5.31387 19.9155 5.30091 19.98C5.28794 20.0445 5.25547 20.1605 5.23603 20.2507C5.21658 20.341 5.23603 20.2894 5.23603 20.3087C5.23603 20.3281 5.19059 20.5279 5.17115 20.6375L5.11291 20.9791C5.11291 21.0951 5.08062 21.2112 5.06765 21.3272C5.0642 21.355 5.0642 21.3831 5.06765 21.411C5.06765 21.5463 5.03504 21.6881 5.02208 21.8235C5.00911 21.9589 5.02208 22.12 5.02208 22.2683C5.01887 22.3004 5.01887 22.3328 5.02208 22.365C5.02208 22.4488 5.02208 22.5325 5.02208 22.6163V22.713C5.01616 23.4173 5.07475 24.1207 5.1971 24.8144C5.45677 26.3458 6.0196 27.8107 6.85299 29.1241C7.68638 30.4375 8.77389 31.5733 10.0521 32.4656C16.8709 37.2226 26.6519 38.6922 34.0347 38.1572C34.4754 38.1572 34.9032 38.0799 35.331 38.0348C35.9273 37.9703 36.5105 37.8929 37.0679 37.7963C37.8004 37.6802 38.656 37.5126 39.5116 37.3193C39.9459 37.2226 40.3801 37.113 40.8079 37.0034C41.7172 36.7801 42.6096 36.4936 43.4785 36.1461C44.0371 35.876 44.4989 35.4419 44.8014 34.9024C45.104 34.3629 45.2327 33.7441 45.1702 33.1295C44.9044 31.6534 44.0553 30.9766 42.4284 30.925C42.0412 30.9032 41.6537 30.96 41.2893 31.0919C40.9249 31.2237 40.5913 31.4279 40.3088 31.6921C39.8243 32.1699 39.5395 32.8124 39.5116 33.4904V33.5871C39.5084 33.6193 39.5084 33.6517 39.5116 33.6838V33.7354V35.9914C38.5847 36.2106 37.6516 36.3911 36.8543 36.5264C36.3617 36.6038 35.8494 36.6747 35.3244 36.7327V33.6774C35.3244 33.5356 35.3244 33.3938 35.3244 33.252C35.4109 31.5305 36.1441 29.9041 37.3791 28.6948C38.0672 28.0408 38.8815 27.5323 39.7727 27.2C40.6639 26.8676 41.6136 26.7183 42.5645 26.761C46.1619 26.8706 48.6834 28.9784 49.2991 32.4011C49.5438 33.9475 49.2671 35.5309 48.512 36.9044C47.7569 38.278 46.566 39.3644 45.1249 39.9943Z" fill="#6EBCAB"/>
<path d="M23.2885 13.6567C23.2877 15.0965 22.8115 16.4962 21.9333 17.6408C21.0551 18.7855 19.8234 19.6118 18.4272 19.993L18.2262 20.0381L17.6819 20.1219L16.9169 20.1799H16.677C15.1459 20.2189 13.6262 19.908 12.235 19.271C10.8438 18.634 9.61831 17.688 8.65265 16.5058C8.37324 16.1518 8.12175 15.7768 7.90066 15.3842C7.87438 15.3404 7.85066 15.2952 7.82945 15.2488C7.08819 13.8709 6.67158 12.3434 6.61095 10.7819C6.60755 10.739 6.60755 10.6959 6.61095 10.653C6.61095 10.4983 6.61095 10.3371 6.61095 10.1824C6.60858 9.82722 6.62594 9.47216 6.66286 9.11886C6.84963 6.85338 7.82614 4.72393 9.42394 3.09846C10.5971 1.97148 12.0205 1.13464 13.5789 0.655495C14.963 0.259108 16.3969 0.0615836 17.8373 0.0689228C19.7442 0.132828 21.6431 0.348376 23.5155 0.713505C23.6581 2.19604 23.8006 3.6528 23.9497 5.16112C22.8154 4.98709 21.7395 4.80016 20.6636 4.6519C19.5526 4.47442 18.4308 4.37106 17.3059 4.34251C16.9309 4.3396 16.5562 4.3633 16.1845 4.41341C14.7825 4.61001 13.4961 5.2953 12.5547 6.34716C12.1185 6.83067 11.7717 7.38714 11.5305 7.99084C11.248 8.69615 11.105 9.44902 11.1093 10.2082C11.1009 10.9827 11.2372 11.7521 11.5112 12.4771C11.5112 12.4771 11.5112 12.5094 11.5112 12.5287C11.6704 12.9294 11.8723 13.3119 12.1138 13.6696C12.6472 14.4391 13.3701 15.0599 14.2131 15.4728C15.0562 15.8858 15.9914 16.0772 16.9299 16.0288H17.1049H17.2347H17.3059H17.4097H17.442C17.4974 16.0229 17.5519 16.0099 17.604 15.9901L17.7594 15.9385C17.829 15.9173 17.8964 15.8892 17.9604 15.8547L18.1224 15.7709L18.2845 15.6743C18.4177 15.5837 18.5417 15.48 18.6541 15.3649C18.6963 15.3272 18.7351 15.2863 18.7706 15.2424L18.8681 15.1199L18.9393 15.0232C19.1543 14.705 19.2897 14.3404 19.3346 13.9597C19.3381 13.9168 19.3381 13.8736 19.3346 13.8307C19.3346 13.7792 19.3346 13.7276 19.3346 13.6761C19.3295 13.036 19.0706 12.4239 18.6143 11.9725C18.1579 11.5211 17.5412 11.267 16.8976 11.2653H16.4827H16.2624H15.8408C15.7242 11.2653 15.6075 11.2653 15.4908 11.304L15.1411 11.3491L14.7974 11.4071C14.5122 11.4587 14.2269 11.5231 13.9482 11.6005H13.9159C13.5141 11.6972 13.1123 11.8197 12.7234 11.955C12.5285 11.3955 12.4318 10.8068 12.4379 10.2146C12.4258 9.21856 12.7502 8.24721 13.3586 7.45583C14.4457 7.22725 15.5529 7.10848 16.664 7.10132C18.4143 7.10467 20.0926 7.79539 21.3333 9.02312C22.5739 10.2509 23.2766 11.9162 23.2885 13.6567Z" fill="#6EBCAB"/>
</svg>
