<svg width="200" height="105" viewBox="0 0 200 105" fill="none" xmlns="http://www.w3.org/2000/svg">
<g clip-path="url(#clip0_544_4839)">
<path d="M46.848 18.2044H59.1394V11.7764H46.848V7.2501H60.0209V0.832031H40.2021V30.2482H60.6746V23.8202H46.848V18.2044Z" fill="white"/>
<path d="M87.1292 0.832031H63.418V7.2501H71.9556V30.2482H78.5915V7.2501H87.1292V0.832031Z" fill="white"/>
<path d="M95.756 0.831603L82.791 30.2081H90.1896L92.8538 23.8594H103.392L106.017 30.2081H113.485L100.986 0.791992L95.756 0.831603ZM95.5676 17.471L98.2321 11.1619L100.767 17.471H95.5676Z" fill="white"/>
<path d="M141.94 0.832031L137.236 17.7191L132.264 0.832031H126.163L121.171 17.6795L116.565 0.832031H109.424L118.021 30.2482H124.053L129.173 12.8065L134.264 30.2482H140.257L148.903 0.832031H141.94Z" fill="white"/>
<path d="M157.758 0.831603L144.792 30.2081H152.191L154.856 23.8594H165.394L168.019 30.2081H175.496L162.987 0.791992L157.758 0.831603ZM157.57 17.471L160.234 11.1619L162.779 17.471H157.57Z" fill="white"/>
<path d="M192.027 0.832031L185.549 10.9444L179.26 0.832031H171.049L182.202 17.8577V30.2482H188.848V17.8577L200 0.832031H192.027Z" fill="white"/>
<path d="M85.3959 42.916H78.75V72.3321H97.2217V65.9141H85.3959V42.916Z" fill="white"/>
<path d="M154.004 42.916V60.5855L141.693 42.916H135.096V72.3321H141.742V54.6726L154.053 72.3321H160.65V42.916H154.004Z" fill="white"/>
<path d="M130.075 74.7787L115.891 66.0529C115.835 66.0189 115.77 66.0009 115.703 66.0009C115.637 66.0009 115.572 66.0189 115.515 66.0529L101.362 74.7688C101.296 74.8043 101.22 74.8187 101.146 74.81C101.072 74.8014 101.001 74.7701 100.945 74.7205C100.889 74.6708 100.85 74.6052 100.832 74.5324C100.814 74.4595 100.819 74.383 100.847 74.3132L115.703 42.1535C115.729 42.0892 115.773 42.034 115.831 41.9952C115.888 41.9563 115.956 41.9355 116.025 41.9355C116.094 41.9355 116.162 41.9563 116.22 41.9952C116.277 42.034 116.321 42.0892 116.347 42.1535L130.59 74.3033C130.634 74.3738 130.652 74.4574 130.641 74.5399C130.63 74.6223 130.591 74.6983 130.529 74.7547C130.468 74.8111 130.389 74.8444 130.306 74.8488C130.223 74.8532 130.141 74.8284 130.075 74.7787Z" fill="white"/>
<path d="M44.7682 94.1121C45.1399 94.1051 45.5104 94.072 45.8774 94.013C46.0699 93.9569 46.2441 93.851 46.3825 93.706C46.4937 93.6075 46.5836 93.4872 46.6466 93.3526C46.7096 93.2181 46.7446 93.0721 46.7491 92.9235C46.7441 92.7798 46.7077 92.6389 46.6427 92.5106C46.5777 92.3824 46.4855 92.2698 46.3726 92.1807C46.2197 92.0499 46.0354 91.9611 45.8377 91.9232C45.4629 91.8811 45.0858 91.8646 44.7087 91.8737H43.7183V90.6257C43.7183 89.9522 43.7183 89.5362 43.7183 89.3381C43.7026 89.133 43.6149 88.9401 43.4707 88.7934C43.3824 88.7021 43.276 88.6303 43.1583 88.5825C43.0406 88.5347 42.9143 88.5121 42.7873 88.5161C42.4857 88.512 42.1943 88.6257 41.9751 88.833C41.7955 88.9604 41.6713 89.1518 41.6284 89.3678C41.6284 89.5263 41.579 89.9819 41.5493 90.7743V92.151H41.3411C40.9647 92.151 40.5192 92.151 40.0041 92.2203H39.2316V91.2299C39.2522 90.9001 39.2522 90.5693 39.2316 90.2394C39.1879 90.0359 39.0962 89.8458 38.9641 89.6848C38.8647 89.5528 38.7361 89.4457 38.5884 89.3718C38.4406 89.2979 38.2775 89.2593 38.1122 89.2589C37.9634 89.2557 37.8158 89.2861 37.6804 89.3478C37.5449 89.4096 37.4252 89.501 37.33 89.6155C37.1913 89.764 37.0328 90.0909 37.0328 91.2992V92.4481H36.8249C36.3222 92.4411 35.8264 92.5676 35.3885 92.8146C35.2125 92.9127 35.0662 93.0565 34.9651 93.2308C34.864 93.4051 34.8119 93.6035 34.8142 93.805C34.8001 93.9424 34.8146 94.0812 34.8573 94.2125C34.8999 94.3439 34.9697 94.4648 35.0618 94.5677C35.3194 94.8054 35.8144 94.845 36.6365 94.7261L37.0328 94.6667V95.4789L36.2999 95.5581L35.0916 95.6671C34.8367 95.7113 34.609 95.8535 34.4576 96.0632C34.311 96.2611 34.2312 96.5004 34.2298 96.7466C34.2282 96.9021 34.2632 97.0557 34.3321 97.1951C34.4009 97.3344 34.5018 97.4557 34.6261 97.5489C34.8533 97.7374 35.1433 97.833 35.4381 97.8163H36.1217L37.0328 97.7569L37.0824 98.1333C37.1251 98.4616 37.1448 98.7926 37.1416 99.1237C37.141 99.3083 37.1778 99.491 37.2492 99.6612C37.3207 99.8313 37.4256 99.9854 37.5578 100.114C37.653 100.229 37.7744 100.319 37.9115 100.376C38.0487 100.434 38.1976 100.458 38.3461 100.447C38.4945 100.435 38.6382 100.388 38.7646 100.31C38.8911 100.231 38.9969 100.123 39.0732 99.9953C39.2612 99.7822 39.3633 99.5069 39.3602 99.2227C39.3602 99.2227 39.3602 99.0445 39.3602 98.4007L39.301 97.4598L40.2914 97.3805C40.9352 97.3805 41.3708 97.3013 41.6184 97.2617C41.6615 97.6828 41.6781 98.1062 41.668 98.5294C41.635 99.0982 41.6852 99.6688 41.8167 100.223C41.8741 100.375 41.9733 100.508 42.103 100.606C42.2327 100.704 42.3876 100.764 42.5496 100.778C42.6281 100.793 42.7089 100.793 42.7873 100.778C43.0278 100.759 43.253 100.654 43.4211 100.481L43.8172 100.144V100.055C43.8172 99.6982 43.8172 99.1534 43.8668 98.4601C43.9163 97.7668 43.8668 97.3904 43.8668 97.0537H44.7286C45.6596 97.0537 46.2539 96.8556 46.5213 96.4693C46.62 96.324 46.6654 96.1491 46.65 95.9741C46.6638 95.8166 46.6416 95.6581 46.5849 95.5105C46.5283 95.3629 46.4387 95.2301 46.323 95.1223C46.1809 94.9963 46.0056 94.9138 45.8179 94.8846C45.4898 94.8401 45.1584 94.8236 44.8275 94.8351H43.8965V94.1715L44.7682 94.1121ZM41.4601 94.3498V94.5875C41.4713 94.7028 41.4713 94.8189 41.4601 94.9341C41.0473 95.0039 40.6304 95.0469 40.2121 95.0629L39.1423 95.1223V94.4191H39.5979C39.8189 94.407 40.0406 94.407 40.2617 94.4191H40.9252L41.4601 94.3498Z" fill="white"/>
<path d="M50.4433 96.1423C50.5511 96.165 50.6622 96.165 50.77 96.1423C51.0662 96.1357 51.3613 96.1025 51.6516 96.0432C52.5987 95.9166 53.484 95.5017 54.1872 94.8547C54.4945 94.5865 54.7414 94.2564 54.9121 93.886C55.0828 93.5156 55.1734 93.1132 55.1776 92.7054C55.1819 92.4777 55.1518 92.2507 55.0884 92.0319C54.9424 91.5166 54.7078 91.0306 54.3951 90.5958C54.0822 90.2285 53.6843 89.9429 53.2362 89.7638C52.6623 89.5226 52.0262 89.4723 51.4216 89.6204C50.8171 89.7684 50.2762 90.1069 49.8787 90.5859C48.6901 91.7645 48.0958 93.7058 48.0958 96.3403V96.8851C48.0917 97.3686 48.1216 97.8518 48.1851 98.3311C48.2775 98.6553 48.4141 98.9653 48.5911 99.2522C48.8102 99.7065 49.1323 100.103 49.5319 100.411C49.7239 100.562 49.9423 100.676 50.1759 100.748C50.4802 100.798 50.7887 100.818 51.0969 100.807C51.4295 100.819 51.7622 100.789 52.0873 100.718C52.4463 100.608 52.7945 100.466 53.1274 100.292C54.3753 99.688 54.9794 99.1235 54.9794 98.5589C54.9795 98.4331 54.9542 98.3085 54.9049 98.1927C54.8555 98.077 54.7832 97.9724 54.6923 97.8854C54.6182 97.7969 54.5258 97.7254 54.4215 97.6758C54.3172 97.6263 54.2035 97.5998 54.0881 97.5982C53.5341 97.6808 53.006 97.8874 52.5429 98.2024C52.1369 98.4704 51.6773 98.6462 51.196 98.7174H51.0374C50.9004 98.7175 50.7651 98.6871 50.6413 98.6283C50.5507 98.5158 50.4804 98.3884 50.4334 98.2519C50.2361 97.8072 50.1511 97.3208 50.1858 96.8356V96.063L50.4433 96.1423ZM50.9385 92.8441C51.1022 92.5098 51.3158 92.2026 51.5723 91.9329C51.7495 91.7782 51.9718 91.6845 52.2063 91.6654C52.3611 91.6645 52.5115 91.717 52.6321 91.814C52.7824 91.9305 52.9042 92.0795 52.9886 92.2498C53.088 92.3968 53.1464 92.5678 53.1571 92.745C53.1571 92.7946 53.1571 92.9332 52.8698 93.2204C52.6764 93.444 52.4451 93.6318 52.1865 93.7751C51.8313 93.9241 51.4521 94.008 51.0672 94.0227H50.5422V93.8345C50.6096 93.4821 50.7443 93.1458 50.9385 92.8441Z" fill="white"/>
<path d="M63.8144 95.4787C63.4816 95.1647 63.1044 94.9011 62.6951 94.6963C62.0751 94.4369 61.427 94.2508 60.7638 94.1417C59.7734 93.9535 59.2187 93.8247 59.0206 93.7752L58.892 93.7257C58.892 93.5969 59.1493 93.2998 59.9516 92.7352C60.7538 92.1707 61.1204 92.0221 61.2888 92.0221H61.3582C61.3693 92.1109 61.3693 92.2007 61.3582 92.2895C61.3485 92.6109 61.4497 92.9257 61.6452 93.1809C61.7374 93.2945 61.8536 93.3863 61.9854 93.4497C62.1173 93.5131 62.2616 93.5464 62.4079 93.5474C62.5361 93.5537 62.6643 93.5335 62.7843 93.488C63.3093 93.3196 63.5768 92.7649 63.5768 91.8636C63.5931 91.5872 63.5512 91.3104 63.4539 91.051C63.3567 90.7917 63.2062 90.5557 63.0121 90.3582C62.6132 90.0396 62.1301 89.8437 61.622 89.7945C61.1138 89.7453 60.6023 89.8447 60.1496 90.0808C59.4378 90.3628 58.7705 90.7465 58.1687 91.2199C57.6636 91.6081 57.2369 92.0887 56.9111 92.6362C56.7122 93.0463 56.6137 93.4978 56.6238 93.9535C56.6039 94.3439 56.7042 94.7311 56.9111 95.0628C57.0994 95.3348 57.3432 95.5638 57.6266 95.7345C57.91 95.9053 58.2266 96.0139 58.5551 96.0532C59.6638 96.1502 60.7538 96.4002 61.7939 96.796C62.3386 97.0833 62.6161 97.3903 62.6161 97.7172C62.6161 98.044 62.2693 98.1728 61.9721 98.3015C61.4943 98.5107 60.9783 98.6187 60.4567 98.6185C60.2629 98.6236 60.0695 98.6002 59.8824 98.5491C59.6114 98.4926 59.369 98.3417 59.1988 98.1232C59.1088 97.9361 58.9685 97.7777 58.7936 97.6657C58.6186 97.5538 58.416 97.4927 58.2084 97.4893C57.9284 97.487 57.6585 97.5936 57.4556 97.7865C57.3493 97.8824 57.2649 98.0003 57.2085 98.1319C57.1521 98.2636 57.1251 98.4059 57.129 98.5491C57.1208 98.6678 57.1208 98.787 57.129 98.9057C57.2912 99.3948 57.5918 99.8263 57.9944 100.148C58.397 100.47 58.8843 100.668 59.3971 100.718C59.7218 100.797 60.0536 100.844 60.3876 100.857C60.7199 100.838 61.0507 100.798 61.378 100.738C63.0816 100.451 64.2006 99.8268 64.6859 98.8958C64.8191 98.5832 64.88 98.2447 64.8641 97.9053C64.8831 97.4605 64.8019 97.0171 64.6264 96.6078C64.4225 96.1877 64.1479 95.8057 63.8144 95.4787Z" fill="white"/>
<path d="M72.312 96.9743C72.2332 96.9628 72.1531 96.9628 72.0743 96.9743C71.9356 96.9743 71.6882 97.0337 71.0147 97.4695C70.5097 97.8708 69.9089 98.1336 69.2715 98.2321C69.1453 98.2329 69.022 98.1942 68.919 98.1214C68.8159 98.0485 68.7383 97.9453 68.697 97.8261C68.4932 97.2943 68.3825 96.7314 68.3701 96.1621C68.3701 96.0433 68.3701 95.8452 68.3701 95.5778C68.3005 94.3145 68.6185 93.0601 69.2814 91.9825C69.6182 91.4971 69.7764 91.4773 69.8061 91.4773C69.8359 91.4773 70.0539 91.4773 70.46 92.2796C70.8661 93.0819 71.3514 93.5573 71.7575 93.5573C71.9358 93.5573 72.1338 93.4285 72.4111 93.1314C72.6085 92.9595 72.7412 92.7254 72.7874 92.4678C72.7352 92.1188 72.6177 91.7827 72.4409 91.4773C72.1681 90.8641 71.7621 90.3194 71.2524 89.8827C70.8453 89.5115 70.3175 89.3004 69.7667 89.2885C69.5642 89.2841 69.3625 89.3177 69.1724 89.3875C68.7658 89.5579 68.4033 89.8187 68.1125 90.1502C67.4776 90.7804 67.0053 91.5553 66.7359 92.4084C66.4235 93.462 66.2799 94.5584 66.3101 95.657C66.2732 96.4453 66.3431 97.2349 66.5181 98.0043C66.7054 98.6732 67.0798 99.2745 67.5975 99.7376C68.0715 100.152 68.6813 100.378 69.3109 100.372C69.8599 100.36 70.4004 100.232 70.8957 99.9951C71.7269 99.7183 72.4508 99.1884 72.9658 98.4798C73.0539 98.3462 73.1082 98.1932 73.1242 98.0341C73.1127 97.8723 73.0618 97.7159 72.9758 97.5785C72.9205 97.4326 72.8316 97.3019 72.7163 97.1969C72.601 97.0919 72.4624 97.0156 72.312 96.9743Z" fill="white"/>
<path d="M82.0581 96.7462C81.936 95.6046 81.8733 94.4575 81.87 93.3094C81.8849 93.0236 81.8616 92.7371 81.8006 92.4576C81.7543 92.2843 81.6619 92.1268 81.5331 92.002C81.432 91.8869 81.3069 91.7953 81.1666 91.7337C81.0263 91.6721 80.8741 91.642 80.7209 91.6454C80.4114 91.6198 80.1111 91.5286 79.8395 91.378C79.245 91.0785 78.5612 91.008 77.9181 91.1799C77.0526 91.4654 76.3157 92.0478 75.8381 92.824C75.1967 93.705 74.7663 94.7216 74.5802 95.7954C74.5325 96.1001 74.5092 96.4081 74.5108 96.7165C74.4998 97.5242 74.6515 98.3258 74.9567 99.0737C75.1262 99.4532 75.3763 99.7911 75.6896 100.064C75.9586 100.342 76.3029 100.535 76.6801 100.619H76.9773C77.5099 100.627 78.0329 100.479 78.4825 100.193C78.995 99.8317 79.4324 99.3742 79.7701 98.8459C79.9484 98.5785 80.0575 98.42 80.1268 98.3309C80.1536 98.4418 80.1735 98.5543 80.1863 98.6676C80.2389 99.072 80.3523 99.466 80.5229 99.8364C80.6333 100.132 80.839 100.383 81.1073 100.549C81.2175 100.607 81.3395 100.637 81.4637 100.639C81.7377 100.635 82.0011 100.533 82.2066 100.351C82.314 100.26 82.4007 100.146 82.4605 100.018C82.5203 99.8894 82.5519 99.75 82.5533 99.6086C82.5749 99.4907 82.5749 99.3699 82.5533 99.252C82.3021 98.4361 82.1361 97.5963 82.0581 96.7462ZM77.0464 98.42C77.0464 98.42 76.9772 98.42 76.9376 98.3507C76.8217 98.1497 76.7476 97.9274 76.7197 97.697C76.645 97.372 76.6051 97.04 76.6008 96.7066C76.6105 95.978 76.8011 95.2633 77.1555 94.6266C77.4203 94.0567 77.866 93.5901 78.4233 93.2994C78.661 93.1905 78.7202 93.1905 78.7202 93.1806C78.7202 93.1707 78.7896 93.1806 79.0273 93.3193C79.4037 93.5173 79.4038 93.7253 79.4038 93.7947C79.3774 94.1299 79.3175 94.4617 79.2253 94.7851C79.044 95.6175 78.7333 96.4163 78.3043 97.1523C77.6209 98.2616 77.2247 98.42 77.1059 98.42H77.0464Z" fill="white"/>
<path d="M90.6252 91.0711C90.1387 90.6492 89.5161 90.4171 88.8721 90.4174C88.6275 90.4128 88.3836 90.4463 88.1491 90.5165C87.7639 90.6336 87.3998 90.8108 87.0697 91.0414C86.7489 91.2313 86.4665 91.48 86.2376 91.7743L86.1387 91.9031C86.1071 91.6271 85.9683 91.3746 85.7523 91.1999C85.5631 90.9894 85.3013 90.8585 85.0194 90.8334C84.851 90.8334 84.6332 90.9522 84.3063 91.2395C84.2047 91.3206 84.1199 91.421 84.057 91.5348C83.9942 91.6487 83.9543 91.7738 83.9398 91.9031C83.9273 91.9984 83.9273 92.095 83.9398 92.1903C83.9398 92.2695 83.9894 92.943 84.0488 96.4987C84.0488 99.2224 84.1182 101.362 84.1182 102.877V103.501C84.141 103.797 84.2754 104.073 84.4945 104.274C84.5841 104.388 84.6963 104.484 84.824 104.553C84.9518 104.623 85.0924 104.666 85.2373 104.68C85.5146 104.642 85.7702 104.509 85.9603 104.303L86.4059 103.917V101.5V99.3017L86.8717 99.2522C87.8967 99.1381 88.8839 98.7999 89.7637 98.2617C90.5555 97.783 91.2023 97.0984 91.6355 96.2808C91.8672 95.754 91.9789 95.1823 91.9624 94.607V94.3594C91.9711 93.8642 91.9077 93.3704 91.7743 92.8935C91.5902 92.1813 91.1885 91.5443 90.6252 91.0711ZM89.7736 94.4485C89.7548 94.7537 89.6707 95.0512 89.5272 95.3212C89.3837 95.5911 89.184 95.8272 88.9415 96.0134C88.3514 96.5326 87.6274 96.8758 86.8518 97.0039H86.6141V96.9543C86.6496 96.4858 86.7426 96.0234 86.8913 95.5776C87.0342 95.0522 87.2266 94.5415 87.4658 94.0523C87.6783 93.4902 88.0815 93.0205 88.6049 92.7251C88.7098 92.6708 88.824 92.6372 88.9415 92.6261C88.9415 92.6261 89.0604 92.6261 89.2189 92.8143C89.3943 93.0295 89.5227 93.2792 89.5954 93.5472C89.7012 93.8366 89.7613 94.1406 89.7736 94.4485Z" fill="white"/>
<path d="M95.5481 96.1423C95.6558 96.165 95.767 96.165 95.8747 96.1423C96.1709 96.1357 96.4661 96.1025 96.7564 96.0432C97.7035 95.9166 98.5885 95.5017 99.2917 94.8547C99.6089 94.5912 99.8666 94.2633 100.048 93.8928C100.229 93.5223 100.329 93.1176 100.342 92.7054C100.343 92.4772 100.31 92.2501 100.243 92.0319C100.097 91.5166 99.8619 91.0306 99.5492 90.5958C99.2363 90.2285 98.8386 89.9429 98.3905 89.7638C97.8167 89.5226 97.1806 89.4723 96.576 89.6204C95.9714 89.7684 95.4305 90.1069 95.033 90.5859C93.8445 91.7645 93.2502 93.7058 93.2502 96.3403V96.8851C93.2474 97.3689 93.2804 97.8522 93.3491 98.3311C93.4327 98.6568 93.5664 98.9676 93.7454 99.2522C93.9757 99.7138 94.3158 100.112 94.7358 100.411C94.9237 100.563 95.1387 100.677 95.3696 100.748C95.674 100.798 95.9826 100.818 96.2909 100.807C96.6234 100.817 96.9559 100.787 97.2813 100.718C97.6227 100.604 97.954 100.461 98.2718 100.292C99.5098 99.688 100.114 99.1235 100.114 98.5589C100.114 98.4331 100.089 98.3085 100.039 98.1927C99.9898 98.077 99.9175 97.9724 99.8266 97.8854C99.7525 97.7969 99.6603 97.7254 99.556 97.6758C99.4517 97.6263 99.338 97.5998 99.2226 97.5982C98.6686 97.6808 98.1405 97.8874 97.6774 98.2024C97.2714 98.4704 96.8115 98.6462 96.3303 98.7174H96.1719C96.0351 98.7154 95.9003 98.685 95.7758 98.6283C95.6852 98.5158 95.6147 98.3884 95.5676 98.2519C95.3704 97.8072 95.2854 97.3208 95.32 96.8356V96.063L95.5481 96.1423ZM96.0433 92.8441C96.2069 92.5098 96.4206 92.2026 96.677 91.9329C96.8543 91.7782 97.0764 91.6845 97.3108 91.6654C97.4684 91.6662 97.6216 91.7183 97.7468 91.814C97.8971 91.9305 98.0188 92.0795 98.1032 92.2498C98.2027 92.3968 98.261 92.5678 98.2718 92.745C98.2718 92.7946 98.2717 92.9332 97.9845 93.2204C97.7911 93.444 97.5595 93.6318 97.3009 93.7751C96.9457 93.9241 96.5667 94.008 96.1818 94.0227H95.6569V93.8345C95.7213 93.4828 95.8525 93.1466 96.0433 92.8441Z" fill="white"/>
<path d="M108.473 90.2495C108.277 90.0889 108.033 89.9983 107.78 89.992H107.384L106.948 90.0415V89.576C106.961 89.2186 107.011 88.8635 107.097 88.5162C107.136 88.3842 107.159 88.2478 107.166 88.1102C107.161 87.9427 107.105 87.7806 107.007 87.6446C106.903 87.4751 106.757 87.3345 106.584 87.2359C106.411 87.1372 106.216 87.0836 106.017 87.0801C105.774 87.0792 105.536 87.1406 105.324 87.2584C105.216 87.3084 105.12 87.3813 105.043 87.4719C104.966 87.5625 104.91 87.6688 104.878 87.7833C104.801 88.2581 104.761 88.7384 104.759 89.2194C104.753 89.5707 104.727 89.9212 104.68 90.2693C104.571 90.2693 104.294 90.3188 103.6 90.3783C103.099 90.3588 102.599 90.4466 102.134 90.6358C101.997 90.7296 101.888 90.8599 101.819 91.012C101.751 91.1641 101.726 91.3322 101.748 91.4975C101.743 91.6693 101.774 91.8404 101.837 92.0003C101.9 92.1603 101.994 92.3059 102.115 92.4285C102.195 92.5217 102.294 92.5978 102.404 92.6522C102.515 92.7067 102.635 92.7384 102.758 92.7454C102.85 92.7577 102.944 92.7577 103.036 92.7454C103.303 92.7454 103.67 92.6464 104.155 92.5869H104.541V92.7454C104.482 93.1317 104.412 93.9637 104.353 95.3008C104.294 96.6379 104.244 97.6877 104.244 98.49V98.9753C104.254 99.4027 104.287 99.8292 104.343 100.253C104.391 100.462 104.506 100.65 104.67 100.788C104.865 100.976 105.122 101.085 105.393 101.095C105.634 101.066 105.86 100.961 106.038 100.795C106.216 100.63 106.337 100.412 106.384 100.174C106.433 99.6603 106.45 99.1442 106.433 98.6286C106.433 96.7094 106.539 94.7917 106.75 92.8841L106.799 92.3492L107.305 92.2799C108.166 92.1809 108.652 91.963 108.8 91.5965C108.85 91.4498 108.877 91.296 108.879 91.1409C108.895 90.9699 108.866 90.7978 108.794 90.6415C108.723 90.4852 108.612 90.3501 108.473 90.2495Z" fill="white"/>
<path d="M117.229 91.5067C116.826 91.0859 116.331 90.7639 115.783 90.5658C115.224 90.3309 114.626 90.2032 114.02 90.1895C113.847 90.1953 113.675 90.2118 113.505 90.239C113.027 90.331 112.581 90.5422 112.207 90.853C111.785 91.2342 111.448 91.6999 111.217 92.2199C110.808 93.0257 110.531 93.8917 110.395 94.7851C110.323 95.2905 110.283 95.8 110.276 96.3104C110.251 97.338 110.471 98.3568 110.92 99.2817C111.205 99.861 111.648 100.348 112.197 100.688C112.733 101.019 113.35 101.194 113.98 101.193C114.456 101.198 114.928 101.093 115.357 100.886C115.709 100.703 116.041 100.484 116.347 100.233C116.882 99.8165 116.991 99.6581 116.991 99.5194C117.022 99.3636 117.09 99.2176 117.189 99.0935C117.424 98.6792 117.629 98.2489 117.803 97.806C117.94 97.4899 118.034 97.1567 118.081 96.8155C118.133 96.2757 118.156 95.7335 118.15 95.1912C118.176 94.4308 118.116 93.67 117.972 92.9231C117.837 92.3998 117.583 91.9149 117.229 91.5067ZM114 98.8954C113.71 98.9115 113.425 98.8117 113.208 98.6181C112.716 98.0068 112.475 97.2314 112.534 96.4491C112.521 96.2809 112.521 96.112 112.534 95.9439C112.568 95.321 112.667 94.7035 112.831 94.1017C112.956 93.8137 113.042 93.5107 113.089 93.2004C113.089 93.2004 113.089 93.1113 113.297 92.8537C113.409 92.6986 113.555 92.5701 113.723 92.4774C113.85 92.3989 113.999 92.3609 114.148 92.3684C114.451 92.3959 114.745 92.487 115.01 92.6358C115.332 92.7609 115.599 92.996 115.763 93.2994C115.924 93.8256 116.001 94.3737 115.991 94.9238C115.991 95.0129 115.991 95.1318 115.991 95.2704C115.991 95.4091 115.991 95.4982 115.991 95.5477C115.999 95.9309 115.942 96.3127 115.822 96.6769L115.634 97.2414C115.575 97.4395 115.535 97.5782 115.505 97.6574C115.459 97.7614 115.402 97.8609 115.337 97.9545C115.225 98.1104 115.098 98.2562 114.961 98.3903C114.811 98.5555 114.641 98.7019 114.456 98.8261C114.309 98.8762 114.155 98.8997 114 98.8954Z" fill="white"/>
<path d="M125.816 97.0137C125.624 97.0172 125.435 97.0472 125.251 97.1029L124.023 97.4594C123.641 97.5553 123.248 97.6019 122.854 97.5981C122.082 97.5981 121.864 97.4693 121.775 97.4C121.686 97.3307 121.596 97.1524 121.577 95.7559C121.577 95.5875 121.577 95.3498 121.577 95.0626C121.56 94.7904 121.58 94.5173 121.636 94.2504C122.189 94.1527 122.749 94.1063 123.31 94.1117C124.835 94.0523 125.172 93.9533 125.291 93.8443C125.378 93.7564 125.445 93.6508 125.488 93.5346C125.531 93.4183 125.548 93.2943 125.538 93.1708C125.545 93.0301 125.525 92.8895 125.477 92.7569C125.429 92.6243 125.356 92.5024 125.261 92.3983C124.828 92.0706 124.286 91.9216 123.746 91.9823H123.389H122.953H121.785V91.7347C121.785 91.3187 121.785 90.7442 121.725 90.0905L121.646 89.0308L123.627 88.8624C124.568 88.7732 125.162 88.7039 125.459 88.6445C125.716 88.6141 125.958 88.5071 126.153 88.3375C126.348 88.162 126.465 87.9162 126.48 87.654C126.476 87.5236 126.445 87.3953 126.389 87.2776C126.332 87.1599 126.252 87.0553 126.153 86.9706C126.018 86.8536 125.86 86.7659 125.69 86.713C125.519 86.6602 125.339 86.6433 125.162 86.6636H124.855C124.558 86.6636 124.053 86.723 123.379 86.7924C122.741 86.8581 122.1 86.8912 121.458 86.8914C120.141 86.8914 119.843 87.04 119.715 87.1687C119.639 87.2436 119.58 87.3333 119.541 87.4322C119.502 87.531 119.483 87.6369 119.487 87.7432C119.475 87.8485 119.475 87.9548 119.487 88.0601C119.487 88.3672 119.556 89.1397 119.556 90.3679C119.556 90.8235 119.556 92.2695 119.556 94.7852C119.556 95.3102 119.556 95.9044 119.556 96.5581C119.522 97.0811 119.603 97.6053 119.794 98.0933C120.102 98.6275 120.56 99.0595 121.111 99.3359C121.662 99.6123 122.282 99.721 122.894 99.6483C123.481 99.6865 124.07 99.6498 124.647 99.5394C125.836 99.262 126.519 98.9154 126.737 98.4796C126.81 98.3619 126.857 98.2303 126.876 98.0933C126.876 98.0141 126.876 97.915 126.658 97.6179C126.574 97.4588 126.454 97.3213 126.308 97.2165C126.162 97.1116 125.993 97.0422 125.816 97.0137Z" fill="white"/>
<path d="M132.313 91.5366C131.763 91.5233 131.218 91.4401 130.689 91.289C130.616 91.258 130.555 91.2051 130.514 91.1375C130.473 91.07 130.455 90.9913 130.461 90.9126C130.595 90.2513 130.943 89.6526 131.451 89.209C131.76 88.8747 132.13 88.6024 132.541 88.4068C132.894 88.2239 133.283 88.1192 133.68 88.0997C133.835 88.0845 133.99 88.1268 134.116 88.2186C134.276 88.3925 134.397 88.5984 134.472 88.8228C134.537 89.0391 134.667 89.2303 134.844 89.3703C135.021 89.5103 135.237 89.5923 135.463 89.6052C135.594 89.6047 135.723 89.5781 135.844 89.5271C135.965 89.4761 136.074 89.4017 136.166 89.3081C136.364 89.089 136.467 88.8007 136.453 88.5058C136.467 88.4072 136.467 88.3073 136.453 88.2087C136.36 87.6821 136.108 87.1965 135.731 86.8176C135.354 86.4386 134.87 86.1843 134.344 86.0891C134.081 86.0137 133.813 85.9606 133.541 85.9307C133.204 85.9619 132.872 86.0317 132.551 86.1387C131.628 86.3719 130.786 86.8511 130.114 87.5253C129.595 87.9558 129.168 88.488 128.862 89.0893C128.555 89.6905 128.375 90.348 128.331 91.0215C128.325 91.3331 128.387 91.6422 128.512 91.9278C128.637 92.2133 128.822 92.4684 129.054 92.6756C129.364 93.0005 129.754 93.2394 130.184 93.3689C130.898 93.5213 131.623 93.614 132.353 93.6462C135.116 93.8542 136.513 94.5574 136.513 95.7063C136.523 95.815 136.523 95.9245 136.513 96.0332C136.265 96.8674 135.709 97.5758 134.957 98.0141C134.604 98.267 134.222 98.4765 133.819 98.638C133.469 98.747 133.105 98.8005 132.739 98.7965C132.454 98.8278 132.167 98.7739 131.913 98.6416C131.659 98.5094 131.45 98.3048 131.313 98.0537C130.996 97.4594 130.619 97.1524 130.184 97.1524C130.049 97.1459 129.914 97.1691 129.789 97.2204C129.664 97.2718 129.552 97.35 129.461 97.4495C129.282 97.6625 129.19 97.9347 129.203 98.2122C129.211 98.5334 129.292 98.8486 129.441 99.1333C129.724 99.7035 130.191 100.161 130.768 100.431C131.419 100.747 132.134 100.906 132.858 100.896C133.665 100.866 134.459 100.676 135.192 100.335C135.924 99.9953 136.582 99.5126 137.127 98.9154C137.592 98.5062 137.965 98.0037 138.223 97.4405C138.48 96.8774 138.616 96.2662 138.622 95.6469C138.633 95.216 138.557 94.7874 138.397 94.3872C138.237 93.987 137.996 93.6236 137.691 93.3194C136.681 92.3685 134.888 91.7545 132.313 91.5366Z" fill="white"/>
<path d="M144.991 88.0795C144.706 87.9488 144.393 87.8877 144.08 87.9013C143.692 87.8862 143.306 87.9715 142.961 88.1489C142.529 88.4068 142.15 88.7426 141.841 89.1393C141.455 89.5909 141.122 90.0862 140.851 90.6151C140.236 91.9386 139.931 93.3851 139.959 94.8443C139.932 95.7085 140.073 96.5697 140.375 97.3798C140.593 97.9764 140.953 98.5104 141.425 98.9348C141.896 99.2767 142.469 99.4479 143.05 99.4201H143.119C143.687 99.4172 144.247 99.2816 144.753 99.0239C145.133 98.8737 145.472 98.6362 145.743 98.3306C145.87 98.1426 145.942 97.9232 145.951 97.6967C145.959 97.4273 145.864 97.1652 145.684 96.9638C145.328 96.5775 144.783 96.5478 144.109 96.9638C143.84 97.1516 143.526 97.2644 143.198 97.2907C142.911 97.2907 142.654 97.053 142.406 96.5775C142.305 96.3999 142.238 96.2052 142.208 96.0031C142.184 95.5577 142.184 95.1114 142.208 94.666C142.183 93.8928 142.263 93.1199 142.446 92.3682C142.638 91.7771 142.925 91.2217 143.297 90.724C143.773 90.1001 144.02 90.001 144.129 90.001C144.129 90.001 144.238 90.0901 144.238 90.6349C144.227 90.8742 144.247 91.1139 144.297 91.348C144.374 91.5288 144.489 91.691 144.635 91.8234C145.189 92.3088 145.625 92.279 146.001 91.8234C146.129 91.6999 146.224 91.5468 146.278 91.3777C146.328 91.1234 146.348 90.8641 146.338 90.6052C146.377 90.0997 146.271 89.5935 146.032 89.1461C145.794 88.6987 145.433 88.3287 144.991 88.0795Z" fill="white"/>
<path d="M154.935 90.8137C154.826 89.7633 154.425 88.7647 153.776 87.9315C153.474 87.6352 153.07 87.4652 152.647 87.4561C152.404 87.4606 152.168 87.5326 151.964 87.664C151.132 88.2484 150.29 89.9024 149.388 92.7153C148.972 93.993 148.576 95.3598 148.23 96.786C147.967 97.709 147.788 98.6537 147.695 99.6088C147.696 99.9356 147.82 100.25 148.042 100.49C148.141 100.613 148.266 100.712 148.408 100.78C148.55 100.849 148.706 100.885 148.864 100.886C149.008 100.898 149.154 100.873 149.285 100.812C149.417 100.751 149.531 100.658 149.616 100.54C149.788 100.192 149.877 99.8087 149.874 99.4206C149.903 98.9265 149.976 98.4359 150.092 97.9547L150.538 96.1521C150.706 95.4885 150.785 95.2211 150.815 95.1617C151.072 95.1617 151.597 95.1617 152.36 95.2409L153.35 95.3202C153.35 95.5282 153.429 96.0927 153.558 97.5388C153.569 98.4224 153.692 99.3011 153.925 100.154C154.014 100.296 154.138 100.414 154.286 100.495C154.433 100.577 154.598 100.619 154.767 100.619C154.938 100.62 155.106 100.577 155.255 100.493C155.404 100.41 155.529 100.29 155.618 100.144C155.752 99.9206 155.808 99.6591 155.777 99.4008C155.777 99.0046 155.777 98.4103 155.688 97.5289C155.553 95.2789 155.302 93.0375 154.935 90.8137ZM153.182 92.9926H153.132H152.36C152.104 92.9991 151.848 92.9759 151.597 92.9233C151.597 92.9233 151.597 92.9233 151.597 92.854C151.604 92.6487 151.651 92.4467 151.736 92.2597L152.043 91.5466C152.221 91.1108 152.389 90.7542 152.528 90.4769C152.564 90.4001 152.607 90.3271 152.657 90.259L152.726 90.4868C152.815 90.7938 152.924 91.3188 153.063 92.0517C153.132 92.6064 153.172 92.854 153.182 92.9926Z" fill="white"/>
<path d="M164.889 88.2782C164.548 87.8941 164.125 87.5908 163.653 87.3903C163.18 87.1899 162.668 87.0973 162.155 87.1194C161.922 87.1152 161.689 87.1385 161.462 87.1887C160.658 87.3907 159.955 87.8761 159.481 88.5555L159.184 88.922C159.178 88.8065 159.178 88.6908 159.184 88.5753C159.206 88.3819 159.188 88.1859 159.13 87.9999C159.072 87.814 158.975 87.6423 158.847 87.4958C158.76 87.4092 158.658 87.3406 158.545 87.2937C158.432 87.2469 158.311 87.2228 158.189 87.2228C158.066 87.2228 157.945 87.2469 157.832 87.2937C157.719 87.3406 157.616 87.4092 157.53 87.4958C157.354 87.6177 157.23 87.8016 157.183 88.0108C157.183 88.8131 157.124 89.8728 157.124 91.1604C157.124 92.9135 157.124 94.6666 157.223 96.3701C157.186 97.3439 157.269 98.3186 157.471 99.2721C157.551 99.5042 157.7 99.7062 157.898 99.8513C158.096 99.9964 158.334 100.078 158.579 100.084H158.709C158.888 100.043 159.051 99.9482 159.175 99.8118C159.299 99.6755 159.378 99.5044 159.402 99.3216C159.537 98.5533 159.6 97.7741 159.59 96.9941V95.1618H159.679C159.926 95.218 160.179 95.2413 160.432 95.2311C161.138 95.2457 161.843 95.1522 162.522 94.9538C163.466 94.6541 164.321 94.1229 165.008 93.4087C165.609 92.8348 165.964 92.0502 165.998 91.2198C165.975 90.699 165.85 90.1877 165.632 89.7144C165.457 89.2011 165.207 88.717 164.889 88.2782ZM160.789 93.1314C160.584 93.1363 160.38 93.1096 160.184 93.0521C160.098 93.0241 160.015 92.9876 159.936 92.9432C159.926 92.9009 159.926 92.8567 159.936 92.8144C159.973 92.5115 160.04 92.213 160.135 91.923C160.321 91.1999 160.658 90.5247 161.125 89.9422C161.267 89.7389 161.453 89.5702 161.669 89.4484C161.885 89.3267 162.126 89.2551 162.373 89.2389C162.608 89.2405 162.839 89.3092 163.036 89.437C163.315 89.6087 163.55 89.8433 163.722 90.1219C163.894 90.4005 163.998 90.7154 164.027 91.0415C164.038 91.137 164.038 91.2333 164.027 91.3288C164.027 91.4179 164.027 91.6061 163.67 91.9726C163.31 92.344 162.874 92.6344 162.393 92.8243C161.884 93.0343 161.339 93.1388 160.789 93.1314Z" fill="white"/>
<path d="M174.585 97.559C174.498 97.4088 174.378 97.2807 174.234 97.1845C174.09 97.0883 173.925 97.0267 173.753 97.0043C173.562 97.0078 173.372 97.0378 173.188 97.0934L171.96 97.45C171.578 97.5448 171.185 97.5913 170.792 97.5887C170.009 97.5887 169.802 97.4599 169.702 97.3906C169.603 97.3213 169.534 97.143 169.514 95.7464C169.501 95.5155 169.501 95.2841 169.514 95.0531C169.498 94.781 169.518 94.5079 169.573 94.241C170.126 94.145 170.686 94.0986 171.247 94.1023C172.782 94.0429 173.109 93.9438 173.228 93.8349C173.314 93.7465 173.38 93.6406 173.421 93.5243C173.462 93.408 173.477 93.2842 173.466 93.1614C173.478 93.0203 173.459 92.8783 173.411 92.745C173.363 92.6118 173.287 92.4903 173.188 92.3888C172.755 92.0611 172.213 91.9122 171.673 91.9729H171.317H170.881H169.722V91.7253C169.722 91.3093 169.722 90.7348 169.653 90.0811L169.573 89.0213L171.554 88.853C172.495 88.7638 173.099 88.6945 173.387 88.6351C173.647 88.6066 173.892 88.4995 174.09 88.328C174.281 88.1509 174.396 87.9053 174.407 87.6446C174.396 87.384 174.281 87.1384 174.09 86.9612C173.954 86.8462 173.796 86.7597 173.626 86.707C173.456 86.6542 173.277 86.6363 173.099 86.6542H172.802C172.495 86.6542 172 86.7136 171.317 86.7829C170.678 86.849 170.037 86.8821 169.395 86.882C168.088 86.882 167.781 87.0306 167.662 87.1593C167.585 87.2334 167.524 87.3227 167.483 87.4216C167.442 87.5205 167.422 87.6268 167.424 87.7338C167.412 87.8391 167.412 87.9454 167.424 88.0507C167.424 88.3577 167.484 89.1303 167.484 90.3584C167.484 90.814 167.484 92.2601 167.484 94.7758C167.484 95.3007 167.484 95.895 167.484 96.5487C167.446 97.0727 167.531 97.5982 167.731 98.0839C168.038 98.6189 168.496 99.0517 169.047 99.3283C169.599 99.6048 170.219 99.7129 170.831 99.6389C171.436 99.6415 172.039 99.5649 172.624 99.4111C173.803 99.1338 174.486 98.7871 174.714 98.3513C174.783 98.2329 174.827 98.1013 174.843 97.965C174.803 97.965 174.773 97.866 174.585 97.559Z" fill="white"/>
<path d="M56.7822 66.2804C55.5046 66.4884 54.1575 66.6567 52.761 66.7855V73.1243H59.1592V65.8545C58.0202 66.0625 57.1586 66.211 56.7822 66.2804Z" fill="white"/>
<path d="M67.7364 61.3377C65.5938 62.1997 63.3844 62.8854 61.1302 63.3879L59.1493 63.8237C58.1589 64.0218 57.2574 64.1902 56.4452 64.3289C55.2666 64.527 54.0384 64.6854 52.7509 64.8043L50.77 64.9627C49.3636 65.0519 47.8978 65.1014 46.4022 65.1014C34.6556 65.1014 20.6506 62.239 10.3995 55.0484C7.10358 52.7157 4.43137 49.6088 2.61795 46.0009C0.804532 42.3931 -0.0945117 38.3949 -9.79276e-05 34.3581V33.5162C0.255995 29.0197 1.77711 24.6869 4.38774 21.0168C5.05774 20.0786 5.79243 19.1884 6.58649 18.3525C6.92943 20.819 7.7975 23.1832 9.13199 25.2856C9.02304 25.4738 8.90411 25.6521 8.80507 25.8304C8.49725 26.3505 8.21616 26.886 7.9631 27.4349C7.86405 27.6429 7.77488 27.8608 7.68574 28.0787L7.50753 28.5145C7.50753 28.5838 7.45794 28.6432 7.43813 28.7126C7.41832 28.7819 7.3392 28.98 7.29958 29.1186L7.24009 29.287L7.09162 29.7624V29.8813C7.04148 30.0201 7.00164 30.1625 6.97265 30.3072C6.94374 30.3981 6.92075 30.4907 6.9035 30.5845C6.9035 30.7232 6.83407 30.8618 6.80436 31.0005C6.77464 31.1392 6.80436 31.0599 6.80436 31.0896C6.80436 31.1193 6.73493 31.4264 6.70522 31.5948C6.6755 31.7631 6.64594 31.9414 6.61623 32.1197C6.58652 32.298 6.56664 32.4762 6.54683 32.6545C6.52702 32.8328 6.54683 32.7338 6.54683 32.7833L6.48735 33.4172C6.48735 33.645 6.48735 33.8728 6.48735 34.1006V34.2491C6.48735 34.3779 6.48735 34.5067 6.48735 34.6354V34.784C6.4783 35.8661 6.56783 36.9469 6.75479 38.0128C7.15158 40.3659 8.0116 42.6168 9.28506 44.635C10.5585 46.6531 12.22 48.3983 14.1732 49.7694C24.5926 57.0788 39.5384 59.337 50.8196 58.515C51.4931 58.515 52.1467 58.3961 52.8004 58.3268C53.7116 58.2277 54.603 58.1089 55.4548 57.9603C56.574 57.782 57.8715 57.5245 59.1887 57.2274C59.8523 57.0788 60.5159 56.9104 61.1696 56.7421C62.559 56.3989 63.9226 55.9588 65.2504 55.4248C66.104 55.0106 66.8092 54.3433 67.2699 53.5139C67.7307 52.6844 67.9246 51.7331 67.8254 50.7895C67.4193 48.5214 66.1317 47.4814 63.6457 47.4022C63.0541 47.3681 62.4618 47.4551 61.905 47.6577C61.3481 47.8604 60.8383 48.1745 60.407 48.5808C59.6666 49.3151 59.2314 50.3023 59.1887 51.3442C59.1887 51.3937 59.1887 51.4432 59.1887 51.4927V51.7205V55.1871C57.7724 55.5238 56.3463 55.8012 55.1281 56.0092C54.3753 56.128 53.5928 56.2369 52.7905 56.3261V51.6314C52.7905 51.4135 52.7905 51.1956 52.7905 50.9777C52.9227 48.3326 54.0434 45.8336 55.9304 43.9753C56.9819 42.9705 58.2261 42.1892 59.588 41.6785C60.9498 41.1678 62.401 40.9383 63.8539 41.004C69.3509 41.1723 73.1937 44.4111 74.1346 49.6703C74.507 52.0487 74.0812 54.4835 72.9236 56.5943C71.7661 58.7051 69.9421 60.3731 67.7364 61.3377Z" fill="white"/>
<path d="M34.3686 20.8681C34.3666 23.0817 33.6377 25.2334 32.2939 26.9924C30.95 28.7514 29.0656 30.0204 26.9303 30.6042L26.6332 30.6735L25.7912 30.8023L24.6225 30.8914H24.2659C21.9261 30.9529 19.6037 30.4757 17.4776 29.4969C15.3516 28.518 13.4789 27.0635 12.0043 25.2459C11.5774 24.702 11.1933 24.1258 10.8555 23.5225C10.8153 23.4553 10.7788 23.3858 10.7464 23.3145C9.61376 21.1972 8.97716 18.8502 8.88452 16.4508C8.87931 16.3848 8.87931 16.3186 8.88452 16.2527C8.88452 16.015 8.88452 15.7673 8.88452 15.5296C8.88452 14.975 8.88436 14.4302 8.96359 13.8954C9.25738 10.4146 10.7525 7.14421 13.1928 4.64468C14.9855 2.91301 17.1602 1.62714 19.5414 0.890904C21.6563 0.281163 23.8477 -0.0223596 26.0487 -0.0104022C28.9626 0.0877916 31.864 0.418996 34.725 0.98004C34.9429 3.25806 35.1607 5.49646 35.3885 7.81409C33.6453 7.54667 32.0113 7.25944 30.3672 7.03164C28.6695 6.75893 26.9553 6.60011 25.2365 6.55623C24.6635 6.55178 24.0909 6.58818 23.523 6.66518C21.3798 6.96478 19.4135 8.01821 17.9767 9.63651C17.3101 10.3795 16.7803 11.2345 16.4117 12.1621C15.9801 13.2459 15.7616 14.4027 15.768 15.5693C15.757 16.7583 15.9616 17.9396 16.3721 19.0556V19.1348C16.6074 19.7542 16.9168 20.3428 17.2934 20.8879C18.1068 22.0695 19.2091 23.0229 20.4956 23.6575C21.7821 24.2921 23.2098 24.5866 24.6424 24.513H24.9098H25.1178H25.2169H25.3852C25.4697 24.5025 25.5528 24.4826 25.6328 24.4535L25.8705 24.3743C25.9755 24.3381 26.0782 24.2951 26.1776 24.2455L26.4252 24.1168L26.6629 23.9682C26.8646 23.8265 27.0534 23.6675 27.2273 23.4928L27.4057 23.3046L27.5542 23.1164C27.5906 23.0693 27.6238 23.0196 27.6534 22.9679C27.9888 22.4817 28.1996 21.9205 28.2673 21.3336C28.2727 21.2677 28.2727 21.2015 28.2673 21.1355C28.2673 21.0563 28.2673 20.9771 28.2673 20.8978C28.2595 19.9144 27.8641 18.9738 27.1668 18.2802C26.4696 17.5866 25.5267 17.1962 24.5432 17.1936H23.9095H23.5726H22.919C22.7407 17.1936 22.5624 17.1936 22.394 17.253L21.8592 17.3223L21.3342 17.4115C20.8885 17.4907 20.4628 17.5898 20.027 17.7086H19.9774C19.3634 17.8572 18.7591 18.0454 18.1648 18.2534C17.8637 17.3942 17.713 16.4895 17.7192 15.5792C17.7036 14.0475 18.2023 12.5548 19.1355 11.3401C20.7966 10.9888 22.489 10.8063 24.1868 10.7953C26.8715 10.7848 29.4509 11.8392 31.3595 13.7273C33.2681 15.6155 34.3502 18.1834 34.3686 20.8681Z" fill="white"/>
</g>
<defs>
<clipPath id="clip0_544_4839">
<rect width="200" height="104.63" fill="white"/>
</clipPath>
</defs>
</svg>
