<svg width="761" height="555" viewBox="0 0 761 555" fill="none" xmlns="http://www.w3.org/2000/svg">
<g id="hpn-cal-svg">
<g id="tubby racer">
<g id="Group 12">
<path id="Vector" d="M858.483 98.0563L794.919 71.4995C772.256 110.267 643.667 269.611 607.289 305.328C574.474 337.549 494.357 405.909 447.141 434.859L367.896 498.639L592.905 574.403C610.175 539.43 642.293 472.962 666.997 420.049C692.58 365.303 837.413 133.873 858.483 98.0563Z" fill="#1471D0" stroke="#043866" stroke-miterlimit="10"/>
<path id="Vector_2" d="M808.419 61.5002L793.665 50.881C638.419 262.5 574.919 303 514.81 354.725C382.28 460.157 352.651 474.292 350.024 479.174L372.206 505.94C419.431 476.988 578.25 341.023 611.572 309.461C657.196 266.259 785.757 100.261 808.419 61.5002Z" fill="#66CCB4" stroke="#043866" stroke-miterlimit="10"/>
<path id="Vector_3" d="M719.751 372.158C739.601 329.379 799.29 206.983 799.29 206.983L793.419 183C772.358 218.818 701.522 344.278 666.998 420.062C642.777 473.229 610.172 539.445 592.905 574.415L636.734 590.071C662.65 503.372 694.847 425.768 719.751 372.158Z" fill="#66CCB4" stroke="#043866" stroke-miterlimit="10"/>
</g>
<g id="tubbies">
<g id="tubby_4" filter="url(#filter0_d_545_7506)">
<path id="Vector_4" d="M655.786 305.667C666.18 305.667 669.932 307.188 669.932 309.064C669.932 310.94 663.595 312.461 655.786 312.461C647.978 312.461 641.64 310.94 641.64 309.064C641.64 307.188 646.203 305.667 655.786 305.667ZM699.696 311.143C699.696 310.89 699.645 310.636 699.594 310.332C699.594 310.23 699.594 310.18 699.544 310.078C699.493 309.926 699.493 309.723 699.442 309.571C699.442 309.419 699.392 309.216 699.341 309.013C699.341 308.912 699.29 308.861 699.29 308.76C699.29 308.659 699.24 308.608 699.24 308.506C699.189 308.354 699.138 308.152 699.087 307.999L699.037 307.746C698.986 307.644 698.986 307.594 698.935 307.492L698.834 307.239C698.783 307.087 698.733 306.935 698.682 306.783C698.58 306.529 698.479 306.275 698.378 306.022L698.276 305.768C698.225 305.667 698.175 305.616 698.175 305.515C698.124 305.414 698.124 305.363 698.073 305.312L698.023 305.261C697.921 305.109 697.871 304.957 697.769 304.805C697.718 304.704 697.668 304.653 697.617 304.552C697.566 304.45 697.566 304.399 697.516 304.349C697.262 303.943 697.009 303.537 696.755 303.132C696.654 302.98 696.552 302.828 696.451 302.675C696.248 302.422 696.096 302.219 695.893 302.016C695.842 301.966 695.792 301.864 695.69 301.814C695.538 301.661 695.386 301.509 695.234 301.357C695.183 301.306 695.133 301.256 695.082 301.205C694.93 301.053 694.778 300.901 694.626 300.749C694.473 300.597 694.372 300.495 694.22 300.394C694.068 300.292 693.916 300.09 693.763 299.988C693.611 299.836 693.459 299.735 693.307 299.583L693.054 299.38L692.851 299.228C692.648 299.075 692.445 298.923 692.242 298.771L692.04 298.619C691.634 298.366 691.228 298.061 690.823 297.808L690.569 297.656L690.214 297.453L689.91 297.301C688.795 296.692 687.679 296.135 686.513 295.628C686.259 295.526 686.006 295.425 685.752 295.323C685.6 295.273 685.448 295.222 685.296 295.121L684.586 294.867C684.028 294.664 683.521 294.461 682.913 294.309L682.507 294.157L682.101 294.005L681.747 293.904L681.24 293.752L680.783 293.65L680.378 293.549C679.769 293.397 679.11 293.245 678.451 293.042L677.944 292.94C677.335 292.788 676.727 292.687 676.068 292.535L675.51 292.433L675.054 292.332C674.496 292.23 673.938 292.129 673.33 292.028L672.772 291.926L671.606 291.774L670.997 291.723C669.831 291.571 668.614 291.419 667.347 291.318L666.738 291.267C666.535 291.267 666.333 291.216 666.079 291.216L665.42 291.166L664.761 291.115H664.457L663.899 291.064C662.783 291.014 661.668 290.963 660.502 290.912H659.792H659.234H658.575H658.423H657.713H657.409C657.054 290.912 656.699 290.912 656.344 290.912H654.772C654.417 290.912 654.113 290.912 653.758 290.912H653.504H652.845H652.186H651.527C650.766 290.912 650.006 290.963 649.296 291.014L648.789 291.064L648.13 291.115L647.572 291.166C646.71 291.216 645.848 291.267 645.037 291.368C644.834 291.368 644.631 291.419 644.428 291.419L643.82 291.47C643.414 291.521 643.009 291.571 642.654 291.571L641.792 291.673L641.386 291.723L640.828 291.774C640.271 291.825 639.764 291.926 639.256 292.028H639.206C638.648 292.129 638.141 292.18 637.634 292.281L637.076 292.383L636.113 292.585H636.011C635.657 292.636 635.302 292.737 634.997 292.788C634.49 292.89 633.983 292.991 633.476 293.143C633.324 293.194 633.172 293.194 632.969 293.245L632.513 293.346L632.056 293.447C631.6 293.549 631.144 293.701 630.637 293.853L630.231 293.954L630.028 294.005C629.775 294.056 629.521 294.157 629.319 294.208L628.862 294.36L628.457 294.512C627.899 294.715 627.341 294.918 626.783 295.121L626.378 295.273L625.972 295.425C625.718 295.526 625.465 295.628 625.211 295.729L624.502 296.033L624.096 296.236L623.741 296.388L623.386 296.54L623.031 296.692L622.676 296.895L622.321 297.098L621.966 297.301L621.612 297.504L621.307 297.706L621.003 297.909L620.699 298.112C620.496 298.264 620.293 298.366 620.09 298.518C619.786 298.721 619.482 298.923 619.178 299.126C618.975 299.278 618.772 299.38 618.62 299.532C618.417 299.684 618.265 299.785 618.062 299.937C617.859 300.09 617.707 300.242 617.555 300.343C616.997 300.85 616.44 301.357 615.933 301.864L615.73 302.067L615.527 302.321L615.324 302.574L615.121 302.828C615.071 302.929 615.02 302.98 614.918 303.081L614.716 303.335C614.665 303.436 614.614 303.487 614.513 303.588C614.462 303.69 614.361 303.74 614.31 303.842C614.259 303.943 614.209 303.994 614.158 304.044C614.056 304.197 613.955 304.349 613.854 304.552L613.702 304.805L613.549 305.059L613.397 305.312L613.245 305.566C613.195 305.667 613.144 305.718 613.093 305.819C613.042 305.921 612.992 305.971 612.992 306.073C612.941 306.174 612.89 306.225 612.89 306.326C612.687 306.732 612.485 307.188 612.333 307.644L612.18 308.152C612.13 308.354 612.079 308.506 612.028 308.709L611.978 308.963C611.927 309.064 611.927 309.166 611.927 309.267C611.876 309.368 611.876 309.419 611.876 309.47C611.876 309.521 611.826 309.571 611.826 309.673C611.826 309.723 611.775 309.825 611.775 309.926L611.724 310.078C611.724 310.129 611.724 310.23 611.673 310.281L611.623 310.535C611.623 310.585 611.623 310.687 611.572 310.737C611.572 310.788 611.572 310.89 611.521 310.94C611.471 310.991 611.521 311.143 611.471 311.244C611.42 311.65 611.42 312.056 611.42 312.512C611.42 328.89 620.09 342.833 655.38 342.833C690.924 342.833 699.341 325.999 699.341 312.512C699.747 312.005 699.747 311.549 699.696 311.143Z" fill="#66CCB4" stroke="#043866" stroke-miterlimit="10" stroke-linecap="round"/>
<path id="Vector_5" d="M699.746 312.411C699.746 324.327 680.073 334.011 655.786 334.011C631.498 334.011 611.825 324.327 611.825 312.411C611.825 312.006 611.825 311.549 611.876 311.144C612.991 322.603 632.259 331.729 655.786 331.729C679.363 331.729 698.631 322.603 699.696 311.144C699.746 311.549 699.746 312.006 699.746 312.411Z" fill="#005DAA" stroke="#043866" stroke-miterlimit="10" stroke-linecap="round"/>
<path id="Vector_6" d="M655.786 310.332C647.978 310.332 641.64 308.811 641.64 306.935C641.64 305.059 646.203 303.537 655.786 303.537C666.181 303.537 669.933 305.059 669.933 306.935C669.933 308.811 663.595 310.332 655.786 310.332ZM699.645 310.332C699.645 310.23 699.645 310.18 699.595 310.078C699.544 309.926 699.544 309.723 699.493 309.571C699.493 309.419 699.443 309.216 699.392 309.013C699.392 308.912 699.341 308.861 699.341 308.76C699.341 308.659 699.29 308.608 699.29 308.506C699.24 308.354 699.189 308.152 699.138 307.999L699.088 307.746C699.037 307.644 699.037 307.594 698.986 307.492L698.885 307.239C698.834 307.087 698.783 306.935 698.733 306.783C698.631 306.529 698.53 306.275 698.429 306.022L698.327 305.768C698.276 305.667 698.226 305.616 698.226 305.515C698.175 305.414 698.175 305.363 698.124 305.312L698.073 305.261C697.972 305.109 697.921 304.957 697.82 304.805C697.769 304.704 697.719 304.653 697.668 304.552C697.617 304.45 697.617 304.399 697.566 304.349C697.313 303.943 697.059 303.537 696.806 303.132C696.704 302.98 696.603 302.828 696.502 302.675C696.299 302.422 696.147 302.219 695.944 302.016C695.893 301.966 695.843 301.864 695.741 301.814C695.589 301.661 695.437 301.509 695.285 301.357C695.234 301.306 695.183 301.256 695.133 301.205C694.981 301.053 694.828 300.901 694.676 300.749L694.271 300.394C694.119 300.242 693.966 300.09 693.814 299.988C693.662 299.836 693.51 299.735 693.358 299.583L693.105 299.38L692.902 299.228C692.699 299.075 692.496 298.923 692.293 298.771L692.09 298.619C691.685 298.366 691.279 298.061 690.874 297.808L690.62 297.656L690.265 297.453L689.961 297.301C688.845 296.692 687.73 296.135 686.564 295.628C686.31 295.526 686.057 295.425 685.803 295.323C685.651 295.273 685.499 295.222 685.347 295.121L684.637 294.867C684.079 294.664 683.572 294.461 682.964 294.309L682.558 294.157L682.152 294.005L681.798 293.904L681.29 293.752L680.834 293.65L680.429 293.549C679.82 293.397 679.161 293.245 678.502 293.042L677.995 292.94C677.386 292.788 676.778 292.687 676.119 292.535L675.561 292.433L675.105 292.332C674.547 292.23 673.989 292.129 673.381 292.028L672.823 291.926L671.657 291.774L671.048 291.723C669.882 291.571 668.665 291.419 667.397 291.318L666.789 291.267C666.586 291.267 666.383 291.216 666.13 291.216L665.471 291.166L664.812 291.115H664.507L663.95 291.064C662.834 291.014 661.719 290.963 660.552 290.912H659.843H659.285H658.626H658.474H657.764H657.46C657.105 290.912 656.75 290.912 656.395 290.912H654.823C654.468 290.912 654.164 290.912 653.809 290.912H653.555H652.896H652.237H651.578C650.817 290.912 650.057 290.963 649.347 291.014L648.84 291.064L648.181 291.115L647.623 291.166C646.761 291.216 645.899 291.267 645.088 291.368C644.885 291.368 644.682 291.419 644.479 291.419L643.871 291.47C643.465 291.521 643.059 291.571 642.705 291.571L641.843 291.673L641.437 291.723L640.879 291.774C640.322 291.825 639.814 291.926 639.307 292.028H639.257C638.699 292.129 638.192 292.18 637.685 292.281L637.127 292.383L636.164 292.585H636.062C635.707 292.636 635.353 292.737 635.048 292.788C634.541 292.89 634.034 292.991 633.527 293.143C633.375 293.194 633.223 293.194 633.02 293.245L632.564 293.346L632.107 293.447C631.651 293.549 631.195 293.701 630.688 293.853L630.282 293.954L630.079 294.005C629.826 294.056 629.572 294.157 629.369 294.208L628.913 294.36L628.507 294.512C627.95 294.715 627.392 294.918 626.834 295.121L626.429 295.273L626.023 295.425C625.769 295.526 625.516 295.628 625.262 295.729C625.009 295.83 624.806 295.932 624.552 296.033L624.147 296.236L623.792 296.388L623.437 296.54L623.082 296.692L622.727 296.895L622.372 297.098L622.017 297.301L621.662 297.504L621.358 297.706L621.054 297.909L620.75 298.112C620.547 298.264 620.344 298.366 620.141 298.518C619.837 298.721 619.533 298.923 619.228 299.126C619.026 299.278 618.823 299.38 618.671 299.532C618.468 299.684 618.316 299.785 618.113 299.937C617.91 300.09 617.758 300.242 617.606 300.343C617.048 300.85 616.491 301.357 615.983 301.864L615.781 302.067L615.578 302.321L615.375 302.574L615.172 302.828C615.121 302.929 615.071 302.98 614.969 303.081L614.767 303.335C614.716 303.436 614.665 303.487 614.564 303.588C614.513 303.69 614.412 303.74 614.361 303.842C614.31 303.943 614.26 303.994 614.209 304.044C614.107 304.197 614.006 304.349 613.905 304.552L613.753 304.805L613.6 305.059L613.448 305.312L613.296 305.566C613.245 305.667 613.195 305.718 613.144 305.819C613.093 305.921 613.043 305.971 613.043 306.073C612.992 306.174 612.941 306.225 612.941 306.326C612.738 306.732 612.536 307.188 612.383 307.644C612.333 307.797 612.282 307.999 612.231 308.152C612.181 308.304 612.13 308.506 612.079 308.709L612.029 308.963C611.978 309.064 611.978 309.166 611.978 309.267C611.927 309.368 611.927 309.419 611.927 309.47C611.927 309.521 611.876 309.571 611.876 309.673C611.876 309.723 611.826 309.825 611.826 309.926L611.775 310.078C611.775 310.129 611.775 310.23 611.724 310.281L611.674 310.535C611.674 310.585 611.674 310.687 611.623 310.737C611.623 310.788 611.623 310.89 611.572 310.94C611.522 310.991 611.572 311.143 611.521 311.244C612.688 322.704 631.905 331.78 655.431 331.78C678.958 331.78 698.276 322.653 699.341 311.194C699.696 310.89 699.696 310.636 699.645 310.332Z" fill="#F9D43A" stroke="#043866" stroke-miterlimit="10" stroke-linecap="round"/>
<path id="Vector_7" d="M669.831 269.515C671.758 270.479 673.33 272 674.445 273.825C676.22 276.969 676.321 281.126 675.865 284.98C675.713 286.298 675.459 287.566 675.256 288.884C675.155 289.493 675.054 290.152 674.952 290.76C674.648 292.687 674.394 294.614 674.394 296.591C674.394 298.467 674.597 300.394 674.8 302.27C674.851 302.929 674.952 303.588 675.003 304.248C675.256 306.783 675.358 309.267 674.8 311.65C674.242 314.033 673.025 316.163 671.656 317.988C664.761 327.115 653.352 329.853 643.262 327.419C640.321 326.71 637.38 325.543 635.251 323.16C631.346 318.8 631.042 313.577 632.513 308.608C633.983 303.639 637.279 298.974 640.575 295.881C644.023 292.636 645.746 288.073 647.369 283.662C647.521 283.205 647.673 282.8 647.876 282.343C649.701 277.476 651.679 272.862 656.141 270.225C660.248 267.639 665.47 267.183 669.831 269.515Z" fill="#66CCB4" stroke="#043866" stroke-linecap="round"/>
<g id="Group">
<g id="Group_2">
<path id="Vector_8" d="M654.162 278.455C654.229 278.119 654.43 277.851 654.766 277.649C655.034 277.448 655.37 277.314 655.773 277.381C656.108 277.381 656.444 277.515 656.712 277.783C656.981 278.052 657.115 278.32 657.182 278.656" stroke="#043866" stroke-miterlimit="10" stroke-linecap="round"/>
<path id="Vector_9" d="M660.269 278.924C660.336 278.589 660.604 278.32 660.873 278.119C661.141 277.918 661.477 277.783 661.879 277.85C662.215 277.85 662.55 277.985 662.819 278.253C663.087 278.454 663.221 278.79 663.289 279.126" stroke="#043866" stroke-miterlimit="10" stroke-linecap="round"/>
</g>
</g>
</g>
<g id="tubby_3" filter="url(#filter1_d_545_7506)">
<path id="Vector_10" d="M614.02 349.025C625.885 349.025 630.245 350.749 630.245 352.879C630.245 355.008 622.994 356.732 614.02 356.732C605.045 356.732 597.794 355.008 597.794 352.879C597.794 350.749 603.017 349.025 614.02 349.025ZM664.318 355.312C664.268 355.008 664.268 354.704 664.217 354.4C664.217 354.298 664.217 354.197 664.166 354.096C664.116 353.893 664.116 353.69 664.065 353.538C664.014 353.335 664.014 353.132 663.963 352.929L663.913 352.625C663.913 352.524 663.862 352.422 663.862 352.321C663.811 352.118 663.761 351.915 663.71 351.712C663.659 351.611 663.659 351.51 663.609 351.408C663.558 351.307 663.558 351.205 663.507 351.104C663.456 351.003 663.456 350.901 663.406 350.8C663.355 350.597 663.304 350.445 663.203 350.242C663.101 349.938 662.949 349.684 662.848 349.38L662.747 349.076C662.696 348.974 662.645 348.873 662.645 348.772L662.544 348.518L662.493 348.467C662.392 348.315 662.29 348.112 662.24 347.96L662.087 347.707L661.935 347.453C661.682 346.997 661.378 346.541 661.073 346.084C660.972 345.932 660.82 345.729 660.718 345.577C660.516 345.324 660.313 345.07 660.11 344.817C660.059 344.715 659.958 344.665 659.907 344.563C659.755 344.36 659.552 344.208 659.4 344.005L659.197 343.803C658.994 343.6 658.842 343.448 658.639 343.245C658.487 343.093 658.335 342.991 658.234 342.839C658.082 342.687 657.879 342.535 657.676 342.332C657.473 342.18 657.321 342.028 657.118 341.876C657.017 341.774 656.916 341.724 656.814 341.673C656.713 341.622 656.662 341.572 656.611 341.521C656.408 341.369 656.155 341.166 655.952 341.014L655.699 340.862C655.242 340.558 654.786 340.253 654.279 339.949C654.178 339.898 654.076 339.848 654.025 339.797L653.62 339.543L653.316 339.341C652.048 338.631 650.73 337.972 649.411 337.414L648.549 337.059L648.042 336.856C647.789 336.755 647.535 336.653 647.282 336.552C646.673 336.349 646.014 336.096 645.355 335.893L644.848 335.741L644.341 335.589L643.935 335.487L643.327 335.335L642.82 335.183L642.364 335.081C641.654 334.879 640.893 334.727 640.132 334.524L639.575 334.422C638.865 334.27 638.155 334.118 637.445 333.966L636.837 333.865L636.279 333.763C635.62 333.662 634.961 333.56 634.301 333.408L633.642 333.307C633.186 333.256 632.78 333.205 632.324 333.104L631.665 333.003C630.296 332.85 628.927 332.698 627.456 332.546L626.747 332.496L625.986 332.445L625.225 332.394L624.465 332.343H624.059L623.451 332.293C622.183 332.242 620.916 332.141 619.597 332.141H618.837H618.178C617.924 332.141 617.671 332.141 617.417 332.141H617.214H616.403H616.099H614.882H613.056C612.651 332.141 612.296 332.141 611.89 332.141H611.586H610.876H610.116H609.406C608.544 332.141 607.682 332.191 606.871 332.242L606.262 332.293L605.502 332.343L604.842 332.394C603.879 332.445 602.865 332.546 601.902 332.597L601.242 332.648L600.533 332.698C600.076 332.749 599.62 332.8 599.164 332.85C598.859 332.901 598.504 332.901 598.2 332.952L597.744 333.003L597.135 333.104C596.527 333.205 595.918 333.256 595.31 333.358H595.259C594.651 333.459 594.042 333.56 593.434 333.662L592.775 333.763C592.42 333.814 592.014 333.915 591.659 333.966H591.558C591.152 334.067 590.747 334.118 590.392 334.219C589.834 334.321 589.225 334.473 588.668 334.625L588.11 334.777L587.552 334.929L586.995 335.081C586.437 335.234 585.93 335.386 585.423 335.538L584.966 335.69L584.713 335.741L583.902 335.994L583.395 336.146L582.887 336.298C582.228 336.501 581.569 336.755 580.961 337.008L580.504 337.16L580.048 337.363L579.186 337.718C578.933 337.819 578.628 337.972 578.375 338.073L577.918 338.276L577.513 338.479L577.107 338.681L576.702 338.884L576.296 339.087L575.89 339.29L575.485 339.493L575.079 339.696L574.724 339.898L574.369 340.101L574.014 340.304C573.761 340.456 573.558 340.608 573.304 340.76C572.95 340.963 572.595 341.217 572.29 341.47C572.088 341.622 571.834 341.774 571.631 341.927C571.428 342.079 571.226 342.231 571.023 342.434C570.82 342.586 570.617 342.738 570.414 342.941C569.755 343.498 569.147 344.107 568.538 344.715L568.285 344.969C568.183 345.07 568.133 345.121 568.031 345.222L567.778 345.476C567.676 345.577 567.626 345.628 567.575 345.729C567.524 345.831 567.423 345.932 567.372 345.983L567.169 346.236C567.118 346.338 567.017 346.439 566.966 346.49L566.764 346.794L566.561 347.048C566.459 347.25 566.307 347.403 566.206 347.605C566.155 347.707 566.104 347.808 566.054 347.91C566.003 348.011 565.952 348.112 565.902 348.214L565.749 348.518L565.597 348.822C565.547 348.924 565.496 349.025 565.445 349.127C565.395 349.228 565.344 349.329 565.293 349.431C565.242 349.532 565.192 349.634 565.141 349.735C564.888 350.242 564.685 350.698 564.533 351.205C564.482 351.408 564.38 351.611 564.33 351.763C564.279 351.966 564.228 352.169 564.127 352.422L564.026 352.727C563.975 352.828 563.975 352.98 563.924 353.081C563.873 353.183 563.873 353.234 563.873 353.335C563.873 353.436 563.823 353.487 563.823 353.538C563.823 353.588 563.772 353.741 563.772 353.842C563.772 353.943 563.772 353.943 563.721 354.045C563.721 354.096 563.671 354.197 563.671 354.298C563.671 354.349 563.62 354.45 563.62 354.552C563.62 354.653 563.62 354.704 563.569 354.805C563.569 354.907 563.569 354.958 563.569 355.059L563.519 355.414C563.468 355.87 563.468 356.377 563.468 356.834C563.468 375.594 573.457 391.566 613.868 391.566C654.583 391.566 664.268 372.248 664.268 356.834C664.369 356.276 664.318 355.769 664.318 355.312Z" fill="#F48E9F" stroke="#043866" stroke-miterlimit="10" stroke-linecap="round"/>
<path id="Vector_11" d="M664.369 356.784C664.369 370.474 641.806 381.528 613.969 381.528C586.133 381.528 563.62 370.423 563.62 356.784C563.62 356.277 563.62 355.821 563.671 355.364C564.989 368.446 586.995 378.891 613.969 378.891C640.944 378.891 663.051 368.446 664.268 355.313C664.319 355.77 664.369 356.277 664.369 356.784Z" fill="#F9D43A" stroke="#043866" stroke-miterlimit="10" stroke-linecap="round"/>
<path id="Vector_12" d="M614.021 354.35C605.046 354.35 597.795 352.626 597.795 350.497C597.795 348.367 603.018 346.643 614.021 346.643C625.886 346.643 630.246 348.367 630.246 350.497C630.195 352.626 622.945 354.35 614.021 354.35ZM664.218 354.401C664.218 354.299 664.167 354.198 664.167 354.097C664.117 353.894 664.117 353.691 664.066 353.539C664.015 353.336 664.015 353.133 663.964 352.93L663.914 352.626C663.914 352.525 663.863 352.423 663.863 352.322C663.812 352.119 663.762 351.916 663.711 351.713C663.66 351.612 663.66 351.511 663.61 351.409C663.559 351.308 663.559 351.206 663.508 351.105C663.457 351.004 663.457 350.902 663.407 350.801C663.356 350.598 663.305 350.446 663.204 350.243C663.102 349.939 662.95 349.685 662.849 349.381L662.748 349.077C662.697 348.975 662.646 348.874 662.595 348.823L662.494 348.57L662.443 348.519C662.342 348.367 662.24 348.164 662.19 348.012L662.038 347.759L661.886 347.505C661.632 347.049 661.328 346.592 661.024 346.136C660.922 345.984 660.77 345.781 660.669 345.629C660.466 345.375 660.263 345.122 660.06 344.868C660.01 344.767 659.908 344.716 659.857 344.615C659.705 344.412 659.553 344.26 659.35 344.057L659.148 343.854C658.945 343.652 658.793 343.499 658.59 343.297C658.438 343.144 658.286 343.043 658.133 342.891C657.981 342.739 657.779 342.536 657.576 342.384C657.373 342.232 657.221 342.08 657.018 341.928C656.917 341.826 656.815 341.775 656.714 341.725C656.612 341.674 656.562 341.623 656.511 341.573C656.308 341.421 656.055 341.218 655.852 341.066L655.598 340.913C655.142 340.609 654.686 340.305 654.179 340.001C654.077 339.95 653.976 339.899 653.925 339.849L653.519 339.595L653.215 339.392C651.948 338.683 650.629 338.023 649.311 337.466C649.057 337.364 648.753 337.212 648.449 337.111L647.942 336.908C647.688 336.806 647.435 336.705 647.181 336.604C646.573 336.401 645.914 336.147 645.255 335.944L644.798 335.792L644.291 335.64L643.886 335.539L643.277 335.387L642.77 335.235L642.314 335.133C641.604 334.93 640.843 334.778 640.083 334.575L639.525 334.474C638.815 334.322 638.105 334.17 637.395 334.018L636.787 333.916L636.229 333.815C635.57 333.714 634.911 333.612 634.252 333.46L633.593 333.359C633.136 333.308 632.731 333.257 632.274 333.156L631.615 333.054C630.246 332.902 628.877 332.75 627.407 332.598L626.697 332.547L625.987 332.497L625.226 332.446L624.466 332.395H624.06L623.452 332.344C622.184 332.294 620.917 332.192 619.598 332.192H618.838H618.179C617.925 332.192 617.672 332.192 617.418 332.192H617.215H616.404H616.1H614.883H613.057C612.652 332.192 612.297 332.192 611.891 332.192H611.587H610.877H610.117H609.407C608.545 332.192 607.683 332.243 606.872 332.294L606.263 332.344L605.553 332.395L604.894 332.446C603.88 332.497 602.917 332.598 601.953 332.649L601.243 332.699L600.534 332.75C600.077 332.801 599.621 332.852 599.165 332.902C598.86 332.953 598.505 332.953 598.201 333.004L597.745 333.054L597.136 333.156C596.528 333.257 595.919 333.308 595.311 333.409H595.26C594.652 333.511 594.043 333.612 593.435 333.714L592.776 333.815C592.421 333.866 592.066 333.967 591.66 334.018H591.559C591.153 334.119 590.748 334.17 590.393 334.271C589.835 334.373 589.226 334.525 588.669 334.677L588.111 334.829L587.553 334.981L586.996 335.133C586.438 335.285 585.931 335.437 585.424 335.59L584.967 335.742L584.714 335.792L583.903 336.046L583.396 336.198L582.888 336.35C582.229 336.553 581.57 336.806 580.962 337.06L580.505 337.212L580.049 337.415C579.745 337.516 579.491 337.668 579.187 337.77C578.934 337.871 578.629 338.023 578.376 338.125L577.919 338.328L577.514 338.53L577.108 338.733L576.703 338.936L576.297 339.139L575.891 339.342L575.486 339.544L575.08 339.747L574.725 339.95L574.37 340.153L574.015 340.356C573.762 340.508 573.559 340.66 573.305 340.812C572.951 341.015 572.596 341.268 572.291 341.522C572.089 341.674 571.835 341.826 571.632 341.978C571.429 342.13 571.227 342.283 571.024 342.485C570.821 342.637 570.618 342.79 570.415 342.992C569.756 343.55 569.148 344.159 568.539 344.767L568.286 345.021C568.184 345.122 568.134 345.173 568.032 345.274L567.779 345.528C567.677 345.629 567.627 345.68 567.576 345.781C567.525 345.883 567.424 345.984 567.373 346.035L567.17 346.288C567.12 346.39 567.018 346.491 566.967 346.542L566.765 346.846L566.562 347.099C566.46 347.302 566.308 347.454 566.207 347.657C566.156 347.759 566.105 347.86 566.055 347.961C566.004 348.063 565.953 348.164 565.903 348.266L565.75 348.57L565.598 348.874C565.548 348.975 565.497 349.077 565.446 349.178C565.396 349.28 565.345 349.381 565.294 349.483C565.243 349.584 565.193 349.685 565.142 349.787C564.889 350.294 564.686 350.75 564.534 351.257C564.483 351.46 564.381 351.663 564.331 351.815C564.28 352.018 564.229 352.221 564.128 352.474L564.027 352.778C563.976 352.88 563.976 353.032 563.925 353.133C563.874 353.235 563.874 353.285 563.874 353.387C563.874 353.488 563.824 353.539 563.824 353.59C563.824 353.64 563.773 353.792 563.773 353.894C563.773 353.995 563.773 353.995 563.722 354.097C563.722 354.147 563.672 354.249 563.672 354.35C563.672 354.401 563.621 354.502 563.621 354.604C563.621 354.705 563.621 354.756 563.57 354.857C563.57 354.959 563.57 355.009 563.57 355.111L563.52 355.466C564.838 368.547 586.843 378.992 613.818 378.992C640.843 378.992 662.9 368.547 664.117 355.415C664.269 355.009 664.269 354.705 664.218 354.401Z" fill="#66CCB4" stroke="#043866" stroke-miterlimit="10" stroke-linecap="round"/>
<path id="Vector_13" d="M596.375 309.73C599.164 309.78 601.851 310.794 604.336 312.113C608.392 314.293 611.84 317.335 615.237 320.58C615.897 321.189 616.556 321.797 617.215 322.456C619.953 325.093 622.691 327.73 625.682 329.961L625.834 329.758L625.682 329.961C626.849 330.873 628.116 331.685 629.333 332.546C629.942 332.952 630.601 333.408 631.209 333.814C633.035 335.082 634.809 336.451 636.381 338.023C639.525 341.217 641.654 345.78 640.589 350.039C639.677 353.639 636.634 356.327 633.339 358.051C627.051 361.397 618.989 362.361 610.978 361.549C603.018 360.738 595.108 358.101 589.226 354.299C584.764 351.408 582.128 346.439 580.86 340.862C579.592 335.335 579.694 329.301 580.759 324.383C581.57 320.682 583.497 316.98 586.184 314.192C588.973 311.454 592.421 309.628 596.375 309.73Z" fill="#F48E9F" stroke="#043866" stroke-linecap="round"/>
<g id="Group_3">
<g id="Group_4">
<path id="Vector_14" d="M598.21 322.448C598.741 322.448 599.183 321.829 599.183 321.033C599.183 320.237 598.741 319.618 598.21 319.618C597.679 319.618 597.237 320.237 597.237 321.033C597.237 321.829 597.679 322.448 598.21 322.448Z" fill="#043866"/>
<path id="Vector_15" d="M603.87 322.448C604.401 322.448 604.843 321.829 604.843 321.033C604.843 320.237 604.401 319.618 603.87 319.618C603.339 319.618 602.897 320.237 602.897 321.033C602.809 321.829 603.251 322.448 603.87 322.448Z" fill="#043866"/>
</g>
</g>
</g>
<g id="tubby_2" filter="url(#filter2_d_545_7506)">
<path id="Vector_16" d="M594.276 392.723C607.662 392.723 612.53 394.701 612.53 397.084C612.53 399.518 604.366 401.444 594.276 401.444C584.186 401.444 576.023 399.467 576.023 397.084C575.972 394.65 581.905 392.723 594.276 392.723ZM650.913 399.771C650.862 399.416 650.862 399.112 650.812 398.757C650.812 398.656 650.761 398.554 650.761 398.453C650.71 398.25 650.71 397.996 650.659 397.794C650.609 397.591 650.558 397.337 650.558 397.084L650.507 396.78C650.507 396.678 650.457 396.577 650.457 396.475C650.406 396.272 650.355 396.019 650.304 395.816C650.254 395.715 650.254 395.613 650.203 395.512C650.152 395.411 650.152 395.309 650.102 395.208C650.051 395.106 650.051 395.005 650 394.853C649.95 394.65 649.848 394.447 649.797 394.244C649.696 393.889 649.544 393.585 649.392 393.281L649.24 392.977C649.189 392.875 649.138 392.774 649.088 392.672C649.037 392.571 648.986 392.47 648.935 392.419L648.885 392.318C648.783 392.115 648.682 391.912 648.581 391.76C648.53 391.658 648.479 391.557 648.428 391.456L648.276 391.202C647.972 390.695 647.668 390.188 647.262 389.681C647.11 389.478 646.958 389.275 646.857 389.123C646.654 388.819 646.4 388.515 646.147 388.261C646.045 388.16 645.995 388.058 645.893 387.957C645.69 387.754 645.538 387.551 645.336 387.349L645.133 387.146C644.93 386.943 644.727 386.74 644.524 386.537C644.372 386.385 644.22 386.233 644.017 386.081C643.865 385.929 643.612 385.726 643.409 385.523C643.206 385.32 643.003 385.168 642.8 385.016L642.496 384.763L642.243 384.56C641.989 384.357 641.736 384.205 641.482 384.002C641.381 383.951 641.279 383.85 641.228 383.799C640.721 383.444 640.164 383.089 639.657 382.734L639.352 382.532L638.896 382.278L638.541 382.075C637.121 381.264 635.651 380.554 634.13 379.895C633.826 379.743 633.521 379.642 633.167 379.489L632.558 379.236C632.254 379.134 632 379.033 631.696 378.881C630.986 378.627 630.276 378.374 629.567 378.12L629.009 377.968L628.451 377.816L627.995 377.664L627.336 377.461L626.778 377.309L626.271 377.157C625.459 376.954 624.648 376.751 623.786 376.549L623.178 376.396C622.366 376.244 621.555 376.042 620.744 375.889L620.034 375.737L619.426 375.636C618.716 375.484 617.955 375.382 617.195 375.281L616.485 375.18C615.978 375.129 615.521 375.027 614.964 374.977L614.203 374.875C612.682 374.673 611.11 374.52 609.488 374.368L608.676 374.318L607.865 374.267C607.612 374.267 607.307 374.216 607.054 374.216L606.192 374.165L605.786 374.115L605.076 374.064C603.657 373.963 602.186 373.912 600.716 373.861L599.854 373.811H599.144H598.282H598.079H597.167H596.812H595.443H593.414C592.958 373.811 592.553 373.811 592.096 373.811H591.792H590.981H590.119H589.307C588.344 373.861 587.381 373.861 586.417 373.912L585.758 373.963L584.947 374.013L584.237 374.064C583.122 374.115 582.006 374.216 580.941 374.318L580.181 374.368L579.42 374.419L577.899 374.571C577.544 374.622 577.138 374.673 576.783 374.723L576.276 374.774L575.567 374.875C574.857 374.977 574.198 375.078 573.488 375.18H573.437C572.778 375.281 572.068 375.382 571.409 375.534L570.699 375.687C570.293 375.788 569.888 375.839 569.482 375.94H569.381C568.924 376.042 568.468 376.143 568.062 376.194C567.403 376.346 566.744 376.498 566.136 376.65L565.527 376.802L564.919 376.954L564.31 377.106C563.702 377.258 563.093 377.411 562.485 377.613L561.978 377.765L561.724 377.867L560.812 378.171L560.254 378.374L559.696 378.577C558.986 378.83 558.226 379.084 557.567 379.337L557.06 379.54L556.502 379.692C556.198 379.844 555.843 379.946 555.538 380.098H555.488C555.183 380.25 554.879 380.351 554.575 380.503C554.372 380.605 554.22 380.656 554.068 380.757L553.612 380.96L553.155 381.163L552.699 381.416L552.243 381.67L551.786 381.923L551.33 382.177L550.874 382.43L550.468 382.684L550.062 382.937L549.657 383.191C549.403 383.343 549.15 383.546 548.845 383.698C548.44 383.951 548.085 384.205 547.679 384.458L546.969 384.965C546.716 385.168 546.513 385.32 546.26 385.523C546.057 385.726 545.803 385.878 545.6 386.081H545.55C544.84 386.689 544.13 387.349 543.471 388.058L543.167 388.363L542.913 388.667C542.812 388.768 542.761 388.87 542.66 388.971C542.558 389.073 542.508 389.174 542.406 389.275L542.153 389.58C542.051 389.681 542 389.782 541.899 389.884C541.848 389.985 541.747 390.087 541.646 390.188C541.595 390.289 541.493 390.391 541.392 390.543C541.291 390.644 541.24 390.746 541.189 390.847C541.037 391.05 540.885 391.253 540.783 391.456C540.733 391.557 540.631 391.658 540.581 391.76L540.378 392.064C540.327 392.165 540.276 392.267 540.175 392.368L540.023 392.672C539.972 392.774 539.922 392.875 539.871 392.977C539.82 393.078 539.769 393.18 539.719 393.281C539.668 393.382 539.617 393.484 539.567 393.585C539.313 394.143 539.06 394.701 538.857 395.258C538.806 395.461 538.705 395.664 538.654 395.918C538.603 396.12 538.502 396.374 538.451 396.627C538.4 396.729 538.4 396.83 538.35 396.982C538.299 397.084 538.299 397.236 538.248 397.388C538.198 397.54 538.198 397.591 538.198 397.692C538.147 397.794 538.147 397.844 538.147 397.946C538.147 398.047 538.096 398.149 538.096 398.301L538.045 398.503C538.045 398.605 537.995 398.656 537.995 398.757C537.995 398.858 537.944 398.96 537.944 399.061C537.944 399.163 537.944 399.264 537.893 399.315C537.893 399.416 537.893 399.518 537.843 399.568C537.843 399.67 537.792 399.822 537.792 399.974C537.741 400.532 537.741 401.039 537.741 401.596C537.741 422.74 548.998 440.74 594.479 440.74C640.367 440.74 651.217 418.988 651.217 401.596C651.014 400.887 650.964 400.329 650.913 399.771Z" fill="#005DAA" stroke="#043866" stroke-miterlimit="10" stroke-linecap="round"/>
<path id="Vector_17" d="M651.014 401.445C651.014 416.859 625.611 429.332 594.276 429.332C562.941 429.332 537.538 416.859 537.538 401.445C537.538 400.887 537.538 400.38 537.589 399.822C539.059 414.577 563.854 426.34 594.276 426.34C624.699 426.34 649.544 414.577 650.963 399.771C650.963 400.329 651.014 400.887 651.014 401.445Z" fill="#F9D43A" stroke="#043866" stroke-miterlimit="10" stroke-linecap="round"/>
<path id="Vector_18" d="M594.276 398.706C584.186 398.706 576.023 396.729 576.023 394.346C576.023 391.912 581.905 389.985 594.276 389.985C607.662 389.985 612.53 391.963 612.53 394.346C612.53 396.78 604.367 398.706 594.276 398.706ZM650.862 398.757C650.862 398.656 650.812 398.554 650.812 398.453C650.761 398.25 650.761 397.996 650.71 397.794C650.659 397.591 650.609 397.337 650.609 397.084L650.558 396.78C650.558 396.678 650.507 396.577 650.507 396.475C650.457 396.272 650.406 396.019 650.355 395.816C650.305 395.715 650.305 395.613 650.254 395.512C650.203 395.411 650.203 395.309 650.153 395.208C650.102 395.106 650.102 395.005 650.051 394.853C650 394.65 649.899 394.447 649.848 394.244C649.747 393.889 649.595 393.585 649.443 393.281L649.29 392.977C649.24 392.875 649.189 392.774 649.138 392.672C649.088 392.571 649.037 392.47 648.986 392.419L648.936 392.318C648.834 392.115 648.733 391.912 648.631 391.76C648.581 391.658 648.53 391.557 648.479 391.456L648.327 391.202C648.023 390.695 647.719 390.188 647.313 389.681C647.161 389.478 647.009 389.275 646.907 389.123C646.705 388.819 646.451 388.515 646.198 388.261C646.096 388.16 646.045 388.058 645.944 387.957C645.741 387.754 645.589 387.551 645.386 387.349L645.183 387.146C644.981 386.943 644.778 386.74 644.575 386.537C644.423 386.385 644.271 386.233 644.068 386.081C643.916 385.929 643.662 385.726 643.459 385.523C643.257 385.32 643.054 385.168 642.851 385.016L642.547 384.763L642.293 384.56C642.04 384.357 641.786 384.205 641.533 384.002C641.431 383.951 641.33 383.85 641.279 383.799C640.772 383.444 640.214 383.089 639.707 382.734L639.403 382.532L638.947 382.278L638.592 382.075C637.172 381.264 635.702 380.554 634.181 379.895C633.876 379.743 633.572 379.642 633.217 379.489L632.609 379.236C632.305 379.134 632.051 379.033 631.747 378.881C631.037 378.627 630.327 378.374 629.617 378.12L629.06 377.968L628.502 377.816L628.045 377.664L627.386 377.461L626.829 377.309L626.322 377.157C625.51 376.954 624.699 376.751 623.837 376.549L623.229 376.396C622.417 376.244 621.606 376.042 620.795 375.889L620.085 375.737L619.476 375.636C618.767 375.484 618.006 375.382 617.245 375.281L616.536 375.18C616.029 375.129 615.572 375.027 615.014 374.977L614.254 374.875C612.733 374.673 611.161 374.52 609.538 374.368L608.727 374.318L607.916 374.267C607.612 374.267 607.358 374.216 607.105 374.216L606.243 374.165L605.837 374.115L605.127 374.064C603.707 373.963 602.237 373.912 600.767 373.861L599.905 373.811H599.195H598.333H598.13H597.217H596.862H595.493H593.465C593.009 373.811 592.603 373.811 592.147 373.811H591.843H591.031H590.169H589.358C588.395 373.861 587.431 373.861 586.468 373.912L585.809 373.963L584.998 374.013L584.288 374.064C583.172 374.115 582.057 374.216 580.992 374.318L580.231 374.368L579.471 374.419L577.95 374.571C577.595 374.622 577.189 374.673 576.834 374.723L576.327 374.774L575.617 374.875C574.908 374.977 574.248 375.078 573.538 375.18H573.488C572.829 375.281 572.119 375.382 571.46 375.534L570.75 375.687C570.344 375.788 569.939 375.839 569.533 375.94H569.431C568.975 376.042 568.519 376.143 568.113 376.194C567.454 376.346 566.795 376.498 566.186 376.65L565.578 376.802L564.97 376.954L564.361 377.106C563.753 377.258 563.144 377.411 562.536 377.613L562.029 377.765L561.775 377.867L560.862 378.171L560.305 378.374L559.747 378.577C559.037 378.83 558.277 379.084 557.617 379.337L557.11 379.54L556.553 379.692C556.248 379.844 555.893 379.946 555.589 380.098H555.538C555.234 380.25 554.93 380.351 554.626 380.503C554.423 380.605 554.271 380.656 554.119 380.757L553.662 380.96L553.206 381.163L552.75 381.416L552.293 381.67L551.837 381.923L551.381 382.177L550.924 382.43L550.519 382.684L550.113 382.937L549.707 383.191C549.454 383.343 549.2 383.546 548.896 383.698C548.491 383.951 548.136 384.205 547.73 384.458L547.02 384.965C546.767 385.168 546.564 385.32 546.31 385.523C546.108 385.726 545.854 385.878 545.651 386.081H545.6C544.891 386.689 544.181 387.349 543.522 388.058L543.217 388.363L542.964 388.667C542.862 388.768 542.812 388.87 542.71 388.971C542.609 389.073 542.558 389.174 542.457 389.275L542.203 389.58C542.102 389.681 542.051 389.782 541.95 389.884C541.899 389.985 541.798 390.087 541.696 390.188C541.646 390.289 541.544 390.391 541.443 390.543C541.341 390.644 541.291 390.746 541.24 390.847C541.088 391.05 540.936 391.253 540.834 391.456C540.784 391.557 540.682 391.658 540.632 391.76L540.429 392.064C540.378 392.165 540.327 392.267 540.226 392.368L540.074 392.672C540.023 392.774 539.972 392.875 539.922 392.977C539.871 393.078 539.82 393.18 539.769 393.281C539.719 393.382 539.668 393.484 539.617 393.585C539.364 394.143 539.11 394.701 538.907 395.258C538.806 395.461 538.755 395.664 538.705 395.918C538.654 396.12 538.553 396.374 538.502 396.627C538.451 396.729 538.451 396.83 538.4 396.982C538.35 397.084 538.35 397.236 538.299 397.388C538.248 397.54 538.248 397.591 538.248 397.692C538.198 397.794 538.198 397.844 538.198 397.946C538.198 398.047 538.147 398.149 538.147 398.301L538.096 398.503C538.096 398.605 538.046 398.656 538.046 398.757C538.046 398.858 537.995 398.96 537.995 399.061C537.995 399.163 537.995 399.264 537.944 399.315C537.944 399.416 537.944 399.518 537.893 399.568C537.893 399.67 537.843 399.822 537.843 399.974C539.313 414.729 564.158 426.492 594.53 426.492C624.952 426.492 649.798 414.729 651.217 399.923C650.913 399.416 650.862 399.061 650.862 398.757Z" fill="#F48E9F" stroke="#043866" stroke-miterlimit="10" stroke-linecap="round"/>
<path id="Vector_19" d="M580.028 406.921C577.899 405.907 575.313 405.349 572.625 404.944C571.256 404.741 569.887 404.589 568.468 404.437C568.366 404.437 568.214 404.386 568.113 404.386C566.845 404.234 565.578 404.082 564.31 403.93C558.733 403.169 553.611 401.901 550.721 397.794C549.758 396.375 549.403 394.955 549.606 393.485C549.758 392.014 550.417 390.493 551.431 388.972C553.409 385.93 556.704 382.938 559.899 380.301C560.659 379.693 561.369 379.085 562.079 378.476C562.13 378.425 562.18 378.375 562.282 378.324C562.941 377.817 563.549 377.31 564.107 376.803C565.375 375.738 566.44 374.775 567.2 374.014C568.823 372.24 570.395 370.313 571.916 368.386L572.068 368.234C573.589 366.358 575.059 364.482 576.631 362.758C579.876 359.158 583.425 356.065 587.887 354.544C595.087 352.059 603.758 354.797 608.372 360.983C609.842 362.961 610.907 365.192 611.972 367.473C612.124 367.828 612.276 368.183 612.479 368.589C613.341 370.516 614.203 372.493 615.268 374.318L615.47 374.166L615.268 374.318C616.434 376.245 617.803 378.07 619.223 379.845C619.679 380.454 620.186 381.062 620.642 381.721C622.468 384.155 624.09 386.589 624.952 389.479C627.183 396.73 623.532 404.994 617.397 409.304C611.769 413.259 605.33 414.02 598.839 413.107C592.197 412.144 585.707 409.558 580.028 406.921Z" fill="#1471D0" stroke="#043866" stroke-linecap="round"/>
<g id="Group_5">
<g id="Group_6">
<path id="Vector_20" d="M583.224 367.347C583.373 366.975 583.596 366.676 583.895 366.453C584.193 366.229 584.64 366.154 585.013 366.154C585.386 366.154 585.759 366.378 586.057 366.602C586.355 366.9 586.505 367.198 586.579 367.646" stroke="white" stroke-width="1.2304" stroke-miterlimit="10" stroke-linecap="round"/>
<path id="Vector_21" d="M590.01 368.169C590.159 367.796 590.383 367.498 590.681 367.274C590.979 367.05 591.352 366.976 591.799 366.976C592.247 366.976 592.545 367.199 592.843 367.423C593.142 367.721 593.291 368.02 593.365 368.467" stroke="white" stroke-width="1.2304" stroke-miterlimit="10" stroke-linecap="round"/>
</g>
</g>
</g>
<g id="tubby_1" filter="url(#filter3_d_545_7506)">
<path id="Vector_22" d="M554.288 434.821C569.195 434.821 574.621 437.002 574.621 439.689C574.621 442.376 565.545 444.557 554.288 444.557C543.083 444.557 533.956 442.376 533.956 439.689C533.956 437.002 540.497 434.821 554.288 434.821ZM617.364 442.681C617.314 442.275 617.314 441.92 617.263 441.565C617.263 441.464 617.212 441.312 617.212 441.21C617.212 441.21 617.212 441.21 617.212 441.159C617.162 440.906 617.162 440.703 617.111 440.45C617.06 440.196 617.01 439.943 616.959 439.689C616.959 439.588 616.908 439.436 616.857 439.334C616.807 439.233 616.807 439.081 616.756 438.979C616.705 438.726 616.655 438.472 616.553 438.269C616.502 438.168 616.502 438.016 616.452 437.914C616.401 437.813 616.401 437.661 616.35 437.559C616.3 437.458 616.249 437.306 616.249 437.205C616.198 437.002 616.097 436.748 615.995 436.545C615.843 436.19 615.691 435.836 615.539 435.43L615.387 435.075C615.336 434.974 615.286 434.821 615.235 434.72C615.184 434.619 615.133 434.517 615.083 434.416L615.032 434.314C614.931 434.112 614.829 433.909 614.677 433.655C614.626 433.554 614.576 433.452 614.474 433.3C614.424 433.199 614.373 433.098 614.322 432.996C613.967 432.438 613.612 431.83 613.207 431.272C613.055 431.069 612.902 430.867 612.75 430.664C612.497 430.359 612.243 430.005 611.939 429.7L611.686 429.396C611.483 429.143 611.28 428.94 611.077 428.737C610.976 428.636 610.925 428.585 610.824 428.483C610.621 428.281 610.367 428.027 610.164 427.824C609.962 427.672 609.81 427.469 609.607 427.317C609.404 427.165 609.15 426.912 608.897 426.709C608.643 426.506 608.44 426.303 608.187 426.151L607.832 425.847L607.528 425.644C607.274 425.441 606.97 425.238 606.666 425.036L606.362 424.833C605.804 424.427 605.195 424.072 604.587 423.667L604.232 423.464C604.08 423.362 603.928 423.261 603.725 423.159L603.319 422.906C601.747 421.993 600.074 421.182 598.401 420.472C598.046 420.32 597.691 420.168 597.336 420.016C597.134 419.914 596.88 419.864 596.677 419.762C596.373 419.661 596.018 419.509 595.714 419.407C594.953 419.103 594.142 418.85 593.331 418.596L592.722 418.393L592.114 418.19L591.607 418.038L590.897 417.836L590.238 417.633L589.68 417.481C588.767 417.227 587.855 417.024 586.891 416.771C586.688 416.72 586.435 416.669 586.181 416.619C585.319 416.416 584.407 416.213 583.494 416.061C583.241 416.01 582.987 415.959 582.734 415.909C582.48 415.858 582.277 415.807 582.074 415.807C581.263 415.655 580.452 415.503 579.59 415.402L578.779 415.3C578.221 415.199 577.663 415.148 577.105 415.047L576.294 414.945C574.621 414.743 572.846 414.54 571.021 414.388L570.108 414.286L569.196 414.185L568.283 414.134L567.319 414.083L566.863 414.033L566.052 413.982C564.48 413.881 562.857 413.83 561.184 413.779L560.221 413.729H559.41C559.105 413.729 558.801 413.729 558.446 413.729H558.193C557.838 413.729 557.533 413.729 557.179 413.729H556.773H555.252H553.021H551.55H551.196C550.891 413.729 550.587 413.729 550.283 413.729H549.319H548.407C547.342 413.779 546.277 413.83 545.212 413.83L544.452 413.881L543.539 413.931L542.728 413.982C541.46 414.083 540.243 414.134 539.077 414.286L538.215 414.388L537.353 414.489C536.796 414.54 536.238 414.59 535.68 414.692L534.463 414.844L533.905 414.895L533.094 414.996C532.333 415.098 531.573 415.199 530.812 415.351H530.762C530.001 415.452 529.241 415.605 528.531 415.706L527.719 415.858C527.263 415.959 526.807 416.01 526.35 416.112H526.249C525.742 416.213 525.286 416.314 524.779 416.416C524.069 416.568 523.308 416.72 522.649 416.923C522.396 416.974 522.193 417.024 521.939 417.075L521.229 417.227L520.52 417.379C519.86 417.582 519.15 417.734 518.542 417.937L517.934 418.089L517.629 418.19L516.615 418.495L516.007 418.698L515.398 418.9C514.587 419.205 513.776 419.458 513.015 419.762L512.457 419.965L511.849 420.219L510.784 420.675H510.734C510.379 420.827 510.024 420.979 509.719 421.131L509.111 421.385L508.604 421.638C508.401 421.74 508.249 421.79 508.097 421.892L507.59 422.145L507.083 422.399L506.576 422.652L506.069 422.906L505.612 423.159L505.156 423.413L504.7 423.667L504.243 423.92C503.939 424.123 503.635 424.275 503.331 424.478C502.874 424.782 502.469 425.036 502.063 425.34C501.81 425.543 501.505 425.745 501.252 425.948C500.998 426.151 500.745 426.354 500.491 426.557C500.238 426.759 499.984 426.962 499.731 427.165H499.68C498.869 427.875 498.108 428.585 497.348 429.396L497.043 429.7C496.942 429.802 496.841 429.903 496.739 430.055C496.638 430.157 496.536 430.258 496.435 430.41L496.131 430.765L495.826 431.12C495.725 431.221 495.674 431.323 495.573 431.475C495.472 431.576 495.421 431.728 495.319 431.83C495.218 431.931 495.117 432.083 495.066 432.185C494.965 432.286 494.914 432.388 494.812 432.489C494.66 432.743 494.508 432.945 494.356 433.199C494.305 433.3 494.204 433.452 494.153 433.554C494.103 433.655 494.001 433.807 493.95 433.909C493.9 434.01 493.798 434.162 493.748 434.264C493.697 434.365 493.595 434.517 493.545 434.619C493.494 434.72 493.393 434.872 493.342 434.974C493.291 435.075 493.241 435.227 493.139 435.328C493.089 435.43 493.038 435.582 492.936 435.683C492.632 436.292 492.379 436.9 492.176 437.559C492.074 437.813 492.024 438.016 491.922 438.269C491.821 438.523 491.77 438.776 491.669 439.081C491.618 439.182 491.618 439.334 491.567 439.486C491.517 439.638 491.466 439.79 491.466 439.943C491.415 440.095 491.415 440.145 491.415 440.247C491.365 440.348 491.365 440.45 491.365 440.5L491.314 440.855C491.314 440.957 491.263 441.007 491.263 441.109C491.263 441.159 491.212 441.312 491.212 441.413C491.212 441.514 491.162 441.616 491.162 441.768C491.162 441.869 491.162 441.971 491.111 442.072C491.111 442.174 491.111 442.275 491.06 442.376C491.06 442.528 491.01 442.681 491.01 442.833C490.959 443.441 490.908 444.05 490.908 444.607C490.908 468.134 503.381 488.112 554.035 488.112C605.043 488.112 617.162 463.926 617.162 444.607C617.415 443.897 617.364 443.289 617.364 442.681Z" fill="#F9D43A" stroke="#043866" stroke-miterlimit="10" stroke-linecap="round"/>
<path id="Vector_23" d="M617.415 444.557C617.415 461.695 589.123 475.588 554.289 475.588C519.404 475.588 491.162 461.695 491.162 444.557C491.162 443.948 491.213 443.34 491.263 442.782C492.886 459.21 520.52 472.292 554.34 472.292C588.21 472.292 615.844 459.16 617.415 442.731C617.365 443.289 617.415 443.898 617.415 444.557Z" fill="#66CCB4" stroke="#043866" stroke-miterlimit="10" stroke-linecap="round"/>
<path id="Vector_24" d="M554.289 441.513C543.084 441.513 533.957 439.333 533.957 436.646C533.957 433.958 540.498 431.778 554.289 431.778C569.196 431.778 574.622 433.958 574.622 436.646C574.622 439.333 565.495 441.513 554.289 441.513ZM617.264 441.513C617.264 441.412 617.213 441.26 617.213 441.158C617.213 441.158 617.213 441.158 617.213 441.108C617.162 440.854 617.162 440.651 617.112 440.398C617.061 440.144 617.01 439.891 616.96 439.637C616.96 439.536 616.909 439.384 616.909 439.282C616.858 439.181 616.858 439.029 616.807 438.927C616.757 438.674 616.706 438.42 616.605 438.218C616.554 438.116 616.554 437.964 616.503 437.863C616.452 437.761 616.452 437.609 616.402 437.508C616.351 437.406 616.3 437.254 616.3 437.153C616.25 436.95 616.148 436.696 616.047 436.494C615.895 436.139 615.743 435.784 615.591 435.378L615.438 435.023C615.388 434.922 615.337 434.77 615.286 434.668C615.236 434.567 615.185 434.465 615.134 434.364L615.084 434.263C614.982 434.06 614.881 433.857 614.729 433.603C614.678 433.502 614.627 433.401 614.526 433.249C614.475 433.147 614.424 433.046 614.374 432.944C614.019 432.387 613.664 431.778 613.258 431.22C613.106 431.018 612.954 430.815 612.802 430.612C612.548 430.308 612.295 429.953 611.991 429.649L611.737 429.344C611.534 429.091 611.331 428.888 611.129 428.685C611.078 428.584 610.976 428.533 610.875 428.432C610.672 428.229 610.419 427.975 610.216 427.773L609.658 427.265C609.455 427.063 609.202 426.86 608.948 426.657C608.745 426.454 608.492 426.251 608.289 426.099L607.934 425.795L607.63 425.592C607.376 425.389 607.072 425.187 606.768 424.984L606.464 424.781C605.906 424.375 605.298 424.02 604.689 423.615L604.334 423.412C604.182 423.311 604.03 423.209 603.878 423.108L603.472 422.854C601.9 421.942 600.227 421.13 598.554 420.42C598.199 420.268 597.844 420.116 597.489 419.964C597.286 419.863 597.033 419.812 596.83 419.711C596.526 419.609 596.171 419.457 595.867 419.356C595.106 419.051 594.295 418.798 593.484 418.544L592.875 418.342L592.267 418.139L591.76 417.987L591.05 417.784L590.391 417.581L589.833 417.429C588.92 417.175 588.007 416.973 587.095 416.719C586.841 416.668 586.638 416.618 586.385 416.567C585.523 416.364 584.61 416.161 583.698 416.009C583.444 415.958 583.191 415.908 582.937 415.857C582.684 415.806 582.481 415.756 582.278 415.756C581.467 415.604 580.655 415.451 579.793 415.35L578.982 415.249C578.424 415.147 577.867 415.096 577.309 414.995L576.447 414.894C574.774 414.691 572.999 414.488 571.174 414.336L570.261 414.235L569.348 414.133L568.436 414.082L567.472 414.032L567.016 413.981L566.205 413.93C564.633 413.829 563.01 413.778 561.337 413.727L560.374 413.677H559.562C559.258 413.677 558.954 413.677 558.599 413.677H558.346C557.991 413.677 557.686 413.677 557.331 413.677H556.926H555.405H553.174H551.754H551.399C551.095 413.677 550.791 413.677 550.486 413.677H549.523H548.61C547.546 413.727 546.481 413.778 545.416 413.778L544.655 413.829L543.743 413.88L542.932 413.93C541.664 414.032 540.447 414.082 539.281 414.235L538.419 414.336L537.557 414.437C536.999 414.488 536.441 414.539 535.884 414.64L534.667 414.792L534.109 414.843L533.298 414.944C532.537 415.046 531.777 415.147 531.016 415.299H530.965C530.205 415.401 529.495 415.553 528.734 415.654L527.923 415.806C527.467 415.908 527.01 415.958 526.554 416.06H526.453C525.946 416.161 525.489 416.263 524.982 416.364C524.272 416.516 523.562 416.668 522.853 416.871C522.599 416.922 522.396 416.973 522.143 417.023L521.433 417.175L520.723 417.327C520.064 417.53 519.405 417.682 518.746 417.885L518.137 418.037L517.833 418.139L516.819 418.443L516.21 418.646L515.602 418.849C514.791 419.153 513.979 419.406 513.219 419.711L512.661 419.913L512.053 420.167C511.698 420.319 511.343 420.471 510.988 420.623H510.937C510.582 420.775 510.227 420.927 509.923 421.08L509.315 421.333L508.808 421.587C508.655 421.688 508.453 421.739 508.301 421.84L507.793 422.094L507.286 422.347L506.779 422.601L506.323 422.854L505.867 423.108L505.41 423.361L504.954 423.615L504.498 423.868C504.193 424.071 503.889 424.223 503.585 424.426C503.129 424.73 502.723 424.984 502.317 425.288C502.064 425.491 501.76 425.694 501.506 425.896C501.253 426.099 500.999 426.302 500.746 426.505C500.492 426.708 500.239 426.911 499.985 427.113H499.934C499.123 427.823 498.362 428.533 497.602 429.344L497.298 429.649C497.196 429.75 497.095 429.851 496.993 430.004C496.892 430.105 496.791 430.206 496.689 430.358L496.385 430.713L496.132 431.068C496.03 431.17 495.929 431.271 495.878 431.423C495.777 431.525 495.726 431.677 495.624 431.778C495.523 431.88 495.472 432.032 495.371 432.133C495.27 432.234 495.219 432.336 495.168 432.437C495.016 432.691 494.864 432.894 494.712 433.147C494.61 433.249 494.56 433.401 494.509 433.502C494.458 433.603 494.357 433.756 494.306 433.857C494.255 433.958 494.154 434.111 494.103 434.212C494.053 434.313 493.951 434.465 493.901 434.567C493.85 434.668 493.748 434.82 493.698 434.922C493.647 435.023 493.596 435.175 493.495 435.277C493.444 435.378 493.394 435.53 493.343 435.632C493.039 436.24 492.785 436.849 492.582 437.508C492.481 437.761 492.43 437.964 492.329 438.218C492.227 438.471 492.177 438.725 492.075 439.029C492.024 439.13 492.025 439.282 491.974 439.434C491.923 439.587 491.872 439.739 491.872 439.891C491.822 440.043 491.822 440.094 491.822 440.195C491.771 440.296 491.771 440.398 491.771 440.449L491.72 440.803C491.72 440.905 491.67 440.956 491.67 441.057C491.67 441.108 491.619 441.26 491.619 441.361C491.619 441.463 491.568 441.564 491.568 441.716C491.568 441.818 491.517 441.919 491.517 442.02C491.517 442.122 491.517 442.223 491.467 442.325C491.467 442.477 491.416 442.629 491.416 442.781C492.988 459.209 520.622 472.291 554.441 472.291C588.312 472.291 615.945 459.158 617.517 442.73C617.314 442.274 617.264 441.919 617.264 441.513Z" fill="#005DAA" stroke="#043866" stroke-miterlimit="10" stroke-linecap="round"/>
<path id="Vector_25" d="M584.153 431.728C581.567 436.088 577.156 440.196 572.187 443.745C567.218 447.294 561.742 450.184 557.077 452.06C545.922 456.573 533.094 457.232 521.685 453.379C516.615 451.655 511.697 449.018 508.35 444.911C505.004 440.804 503.483 434.973 505.409 430.055C506.626 426.962 508.959 424.629 511.747 422.804C514.536 420.979 517.781 419.66 520.773 418.697C521.432 418.494 522.04 418.291 522.649 418.089C525.235 417.227 527.415 416.517 529.494 415.553C532.029 414.336 534.361 412.663 537.049 409.773C538.621 408.049 540.193 406.224 541.156 404.094C541.511 403.334 541.764 402.522 542.018 401.762C542.069 401.61 542.119 401.407 542.17 401.255C542.373 400.646 542.576 400.038 542.778 399.429C545.516 392.179 550.942 388.477 557.077 387.514C563.263 386.551 570.209 388.274 575.888 391.874C581.669 395.525 585.37 402.624 586.84 410.331C588.412 417.886 587.55 426.049 584.153 431.728Z" fill="#F9D43A" stroke="#043866" stroke-linecap="round"/>
<g id="Group_7">
<g id="Group_8">
<path id="Vector_26" d="M549.826 399.918C549.901 399.545 550.125 399.246 550.497 399.023C550.796 398.799 551.169 398.65 551.616 398.724C551.989 398.724 552.362 398.874 552.66 399.172C552.958 399.47 553.107 399.768 553.182 400.141" stroke="#043866" stroke-miterlimit="10" stroke-linecap="round"/>
<path id="Vector_27" d="M556.611 400.44C556.686 400.067 556.984 399.769 557.282 399.545C557.581 399.322 557.953 399.172 558.401 399.247C558.774 399.247 559.147 399.396 559.445 399.694C559.743 399.918 559.892 400.291 559.967 400.664" stroke="#043866" stroke-miterlimit="10" stroke-linecap="round"/>
</g>
</g>
</g>
</g>
</g>
<g id="speed racer">
<g id="racer-4" filter="url(#filter4_d_545_7506)">
<path id="Vector_28" d="M201.969 262.033C203.453 261.394 205.282 261.441 206.972 262.006C208.667 262.52 210.223 263.551 211.179 264.671C212.453 266.165 213.309 267.96 214.115 269.755C214.198 269.966 214.281 270.177 214.414 270.389C215.133 272.024 215.852 273.66 216.834 275.094C218.93 278.174 221.879 280.441 224.836 282.604C224.927 282.711 225.072 282.766 225.212 282.874C228.074 284.983 230.891 287.038 232.961 289.804C234.58 291.985 235.723 294.57 235.664 297.333C235.583 299.731 234.701 301.586 233.273 302.801C231.842 304.068 229.864 304.695 227.685 304.691C224.074 304.65 222.254 302.516 220.073 299.903C219.8 299.583 219.527 299.263 219.208 298.89C212.738 291.42 207.166 283.19 201.643 274.962C200.438 273.209 199.256 271.144 198.819 269.046C198.382 266.948 198.736 264.871 200.557 263.04C200.885 262.631 201.406 262.28 201.969 262.033Z" fill="#1471D0" stroke="#043866" stroke-linecap="round"/>
<g id="Group_9">
<g id="Group_10">
<path id="Vector_29" d="M229.42 291.246C229.662 291.077 229.888 290.994 230.171 290.997C230.383 290.999 230.635 291.174 230.731 291.432C230.828 291.69 230.924 291.948 230.934 292.291C230.875 292.633 230.815 292.975 230.628 293.23" stroke="white" stroke-miterlimit="10" stroke-linecap="round"/>
<path id="Vector_30" d="M232.892 295.386C233.135 295.217 233.362 295.134 233.645 295.137C233.928 295.14 234.111 295.313 234.207 295.572C234.304 295.83 234.4 296.088 234.411 296.431C234.421 296.775 234.29 297.116 234.104 297.371" stroke="white" stroke-miterlimit="10" stroke-linecap="round"/>
</g>
</g>
<path id="Vector_31" d="M236.531 307.057L239.485 311.06L238.096 313.089L234.802 308.508C234.063 307.507 233.776 306.209 233.966 304.923C234.155 303.636 234.817 302.414 235.831 301.615L239.946 298.212L240.279 300.855L237.18 303.407C236.926 303.607 236.717 303.859 236.551 304.165C236.386 304.47 236.268 304.777 236.242 305.138C236.215 305.499 236.193 305.808 236.265 306.12C236.235 306.532 236.356 306.845 236.531 307.057Z" fill="#F9D43A" stroke="#043866" stroke-miterlimit="10" stroke-linecap="round"/>
<path id="Vector_32" d="M235.322 321.967C233.884 321.982 232.397 321.317 231.152 320.084C219.262 308.138 191.549 267.963 187.257 261.745C187.125 261.533 187.095 261.272 187.11 261.063C187.179 260.804 187.294 260.598 187.503 260.447L191.752 257.321C191.962 257.17 192.213 257.124 192.461 257.13C192.704 257.189 192.894 257.298 193.027 257.51C196.957 263.249 222.174 299.705 234.404 313.07C234.495 313.177 234.636 313.285 234.78 313.341C234.925 313.397 235.073 313.4 235.275 313.353C235.427 313.305 235.579 313.257 235.69 313.103C235.797 313.002 235.907 312.848 235.969 312.693C236.558 310.777 237.004 308.805 237.301 306.83C237.899 302.826 238.024 299.176 237.78 297.134C237.747 296.924 237.816 296.665 237.93 296.459C238.045 296.254 238.254 296.102 238.506 296.057L243.512 294.725C243.615 294.675 243.763 294.679 243.912 294.683C244.011 294.685 244.155 294.741 244.25 294.796C244.345 294.851 244.436 294.957 244.527 295.064C244.569 295.17 244.611 295.275 244.648 295.433C245.124 298.994 244.726 304.307 244.033 308.256C242.858 315.324 240.955 319.555 238.151 321.257C237.225 321.703 236.262 321.991 235.322 321.967Z" fill="#F9D43A" stroke="#043866" stroke-miterlimit="10" stroke-linecap="round"/>
</g>
<g id="pink-slide">
<path id="Vector_33" d="M-51.1904 1C-18.8026 1 280.926 376.147 337.822 447.421C416.362 534.198 478.937 534.197 509.432 534.197H714.146V554.05H463.741C420.608 554.05 370.466 523.299 316.588 457.705C272.995 404.697 -39.5759 24.3827 -51.1393 24.3827" fill="#F48E9F"/>
<path id="Vector_34" d="M-51.1904 1C-18.8026 1 280.926 376.147 337.822 447.421C416.362 534.198 478.937 534.197 509.432 534.197H714.146V554.05H463.741C420.608 554.05 370.466 523.299 316.588 457.705C272.995 404.697 -39.5759 24.3827 -51.1393 24.3827" stroke="#043866" stroke-miterlimit="10" stroke-linecap="round"/>
</g>
<g id="racer-3" filter="url(#filter5_d_545_7506)">
<path id="Vector_35" d="M207.476 297.621C210.09 301.7 212.943 305.72 216.508 309.09C220.073 312.459 224.233 315.119 228.333 317.721C228.867 318.016 229.343 318.371 229.878 318.666C234.512 321.622 238.969 324.696 242.475 328.775C243.96 330.489 245.208 332.499 244.97 334.628C244.792 336.46 243.425 338.115 241.702 338.943C239.979 339.83 237.899 340.007 235.938 339.771C229.878 339.12 224.708 335.16 220.133 331.081C210.506 322.45 202.069 312.696 194.938 302.055C193.75 300.341 193.096 298.39 192.858 296.321C192.74 295.316 192.858 294.252 193.037 293.247C193.571 290.823 194.998 289.582 196.721 289.286C198.444 288.991 200.524 289.582 202.247 291C204.327 292.656 205.753 294.902 207.238 297.148C207.298 297.385 207.417 297.503 207.476 297.621Z" fill="#66CCB4" stroke="#043866" stroke-linecap="round"/>
<g id="Group_11">
<g id="Group_12">
<path id="Vector_36" d="M234.458 328.73C234.739 329.011 235.394 328.918 235.769 328.543C236.237 328.075 236.331 327.513 235.956 327.232C235.675 326.951 235.02 327.045 234.645 327.513C234.271 327.794 234.084 328.356 234.458 328.73Z" fill="#043866"/>
<path id="Vector_37" d="M237.643 331.726C237.924 332.007 238.579 331.913 238.954 331.539C239.422 331.07 239.515 330.509 239.141 330.228C238.86 329.947 238.205 330.041 237.83 330.415C237.456 330.883 237.362 331.445 237.643 331.726Z" fill="#043866"/>
</g>
</g>
<path id="Vector_38" d="M241.058 342.782L244.486 346.671L243.156 348.718L239.267 344.266C238.398 343.294 237.988 342.015 238.091 340.736C238.193 339.457 238.807 338.229 239.83 337.41L243.975 333.931L244.538 336.54L241.416 339.15C240.905 339.61 240.547 340.224 240.495 340.889C240.342 341.606 240.598 342.271 241.058 342.782Z" fill="#1471D0" stroke="#043866" stroke-miterlimit="10" stroke-linecap="round"/>
<path id="Vector_39" d="M242.185 357.517C240.701 357.568 239.166 356.954 237.785 355.778C224.584 344.368 192.861 305.686 187.898 299.7C187.744 299.495 187.693 299.24 187.693 299.035C187.745 298.779 187.847 298.574 188.051 298.421L192.196 295.249C192.401 295.095 192.656 295.044 192.912 295.044C193.168 295.095 193.373 295.197 193.526 295.402C198.029 300.928 226.886 336.028 240.548 348.819C240.65 348.921 240.803 349.024 240.957 349.075C241.11 349.126 241.264 349.126 241.469 349.075C241.622 349.024 241.775 348.973 241.878 348.819C241.98 348.717 242.082 348.563 242.134 348.41C242.594 346.517 242.901 344.572 243.055 342.628C243.362 338.688 243.208 335.107 242.799 333.111C242.748 332.907 242.799 332.651 242.901 332.446C243.003 332.241 243.208 332.088 243.464 332.037L248.529 330.604C248.632 330.553 248.785 330.553 248.939 330.553C249.092 330.553 249.194 330.604 249.297 330.655C249.399 330.706 249.501 330.809 249.604 330.911C249.706 331.013 249.757 331.116 249.757 331.269C250.525 334.749 250.525 339.967 250.115 343.856C249.45 350.815 247.813 355.01 245.05 356.75C244.18 357.21 243.208 357.466 242.185 357.517Z" fill="#1471D0" stroke="#043866" stroke-miterlimit="10" stroke-linecap="round"/>
</g>
<g id="yellow-slide">
<path id="Vector_40" d="M-79.126 1C-46.7381 1 252.99 376.147 309.887 447.421C388.426 534.198 451.002 534.197 481.496 534.197H714.147V554.05H435.857C392.724 554.05 342.582 523.299 288.653 457.705C245.06 404.697 -67.5113 24.3827 -79.0748 24.3827" fill="#F9D43A"/>
<path id="Vector_41" d="M-79.126 1C-46.7381 1 252.99 376.147 309.887 447.421C388.426 534.198 451.002 534.197 481.496 534.197H714.147V554.05H435.857C392.724 554.05 342.582 523.299 288.653 457.705C245.06 404.697 -67.5113 24.3827 -79.0748 24.3827" stroke="#043866" stroke-miterlimit="10" stroke-linecap="round"/>
</g>
<g id="racer-2" filter="url(#filter6_d_545_7506)">
<path id="Vector_42" d="M237.034 361.075C236.917 362.894 236.302 364.701 235.089 366.547C233.547 368.855 231.124 370.154 228.362 370.562C225.646 371.023 222.692 370.542 220.13 369.393L216.671 367.496C215.526 366.742 214.533 365.94 213.898 364.99C213.535 364.462 213.171 363.933 212.803 363.457C211.937 362.241 211.021 361.025 210.104 359.808C208.312 357.531 206.678 355.102 205.196 352.625C202.101 347.406 199.732 341.735 198.224 335.823C198.181 335.718 198.141 335.561 198.102 335.404C197.825 334.306 197.468 332.893 197.354 331.59C197.203 330.078 197.396 328.625 198.255 327.656C199.813 325.869 201.717 325.65 203.671 326.214C205.627 326.725 207.587 327.964 209.209 329.04C213.501 331.892 217.313 335.253 221.072 338.666C221.638 339.146 222.201 339.679 222.767 340.16C226.34 343.36 230.672 347.148 233.586 351.323C235.319 353.754 236.549 356.278 236.934 358.784C237.082 359.567 237.085 360.296 237.034 361.075Z" fill="#F48E9F" stroke="#043866" stroke-linecap="round"/>
<g id="Group_13">
<g id="Group_14">
<path id="Vector_43" d="M231.482 357.529C231.674 357.457 231.928 357.386 232.099 357.461C232.27 357.536 232.429 357.685 232.507 357.979C232.595 358.201 232.612 358.495 232.568 358.789C232.524 359.082 232.369 359.301 232.215 359.52" stroke="#043866" stroke-miterlimit="10" stroke-linecap="round"/>
<path id="Vector_44" d="M233.841 361.718C234.034 361.646 234.287 361.575 234.458 361.65C234.629 361.726 234.789 361.874 234.866 362.169C234.954 362.39 234.971 362.684 234.927 362.978C234.883 363.272 234.729 363.491 234.575 363.71" stroke="#043866" stroke-miterlimit="10" stroke-linecap="round"/>
</g>
</g>
<path id="Vector_45" d="M235.48 374.005L238.455 377.991L237.074 380.023L233.702 375.46C232.946 374.463 232.643 373.167 232.82 371.882C232.998 370.597 233.653 369.374 234.667 368.571L238.784 365.157L239.147 367.795L236.047 370.356C235.794 370.556 235.585 370.809 235.421 371.115C235.257 371.421 235.142 371.728 235.119 372.088C235.048 372.448 235.077 372.758 235.153 373.069C235.127 373.481 235.304 373.743 235.48 374.005Z" fill="#66CCB4" stroke="#043866" stroke-miterlimit="10" stroke-linecap="round"/>
<path id="Vector_46" d="M234.601 388.892C233.156 388.913 231.706 388.256 230.441 387.032C218.368 375.162 190.047 335.198 185.719 329.015C185.583 328.803 185.551 328.543 185.564 328.335C185.631 328.076 185.743 327.87 185.952 327.719L190.186 324.585C190.395 324.434 190.647 324.387 190.895 324.392C191.14 324.45 191.332 324.558 191.468 324.769C195.479 330.478 221.202 366.742 233.582 380.023C233.674 380.129 233.817 380.237 233.963 380.292C234.108 380.347 234.257 380.35 234.41 380.302C234.562 380.253 234.715 380.204 234.824 380.05C234.93 379.949 235.04 379.795 235.1 379.64C235.671 377.727 236.097 375.759 236.374 373.788C236.931 369.793 237.017 366.152 236.75 364.116C236.714 363.907 236.781 363.649 236.894 363.443C237.006 363.237 237.215 363.086 237.467 363.039L242.481 361.692C242.584 361.642 242.733 361.646 242.882 361.649C243.031 361.652 243.127 361.706 243.223 361.76C243.319 361.815 243.412 361.921 243.505 362.027C243.548 362.132 243.591 362.237 243.63 362.394C244.147 365.944 243.804 371.244 243.151 375.185C242.048 382.238 240.182 386.465 237.384 388.173C236.509 388.622 235.545 388.913 234.601 388.892Z" fill="#66CCB4" stroke="#043866" stroke-miterlimit="10" stroke-linecap="round"/>
</g>
<g id="blue-slide">
<path id="Vector_47" d="M-107.06 1C-74.6717 1 225.057 376.147 281.953 447.421C360.492 534.198 423.068 534.197 453.563 534.197H714.149V554.05H407.872C364.739 554.05 314.597 523.299 260.719 457.705C217.126 404.697 -95.445 24.3827 -107.008 24.3827" fill="#1471D0"/>
<path id="Vector_48" d="M-107.06 1C-74.6717 1 225.057 376.147 281.953 447.421C360.492 534.198 423.068 534.197 453.563 534.197H714.149V554.05H407.872C364.739 554.05 314.597 523.299 260.719 457.705C217.126 404.697 -95.445 24.3827 -107.008 24.3827" stroke="#043866" stroke-miterlimit="10" stroke-linecap="round"/>
</g>
<g id="racer-1" filter="url(#filter7_d_545_7506)">
<path id="Vector_49" d="M140.158 295.605C141.693 293.917 143.893 293.149 146.247 293.201C148.6 293.252 151.056 294.019 152.95 295.298C154.894 296.629 156.48 298.317 157.964 300.159C158.68 301.08 159.396 302.052 160.113 302.973C160.164 303.076 160.215 303.127 160.317 303.229C160.982 304.099 161.596 304.969 162.313 305.839C165.945 310.443 170.704 315.714 176.588 317.607C177.304 317.811 178.021 318.016 178.686 318.169C178.788 318.221 178.942 318.221 179.044 318.272C179.863 318.476 180.681 318.681 181.398 318.988C184.263 320.114 186.258 322.672 187.128 325.589C187.998 328.505 187.691 331.78 186.002 334.338C182.677 339.454 175.053 341.143 169.374 338.533C166.764 337.357 164.615 335.412 162.517 333.468C156.838 328.198 151.619 322.467 146.861 316.379C146.298 315.714 145.735 314.946 145.121 314.23C143.484 312.234 141.642 309.983 140.209 307.681C138.265 304.457 137.242 301.08 138.674 297.959C139.084 297.038 139.595 296.271 140.158 295.605Z" fill="#F9D43A" stroke="#043866" stroke-linecap="round"/>
<g id="Group_15">
<g id="Group_16">
<path id="Vector_50" d="M179.044 324.586C179.268 324.436 179.493 324.361 179.792 324.361C180.091 324.361 180.316 324.511 180.465 324.735C180.615 324.96 180.765 325.184 180.84 325.484C180.84 325.783 180.84 326.082 180.69 326.307" stroke="#043866" stroke-miterlimit="10" stroke-linecap="round"/>
<path id="Vector_51" d="M182.336 328.252C182.56 328.102 182.785 328.027 183.084 328.027C183.383 328.027 183.608 328.177 183.757 328.401C183.907 328.626 184.057 328.85 184.132 329.15C184.206 329.449 184.132 329.748 183.982 329.973" stroke="#043866" stroke-miterlimit="10" stroke-linecap="round"/>
</g>
</g>
<path id="Vector_52" d="M184.314 342.575L187.742 346.464L186.412 348.511L182.523 344.059C181.653 343.087 181.244 341.808 181.346 340.529C181.449 339.25 182.063 338.022 183.086 337.203L187.231 333.724L187.793 336.333L184.672 338.943C184.416 339.147 184.212 339.403 184.058 339.71C183.905 340.017 183.802 340.324 183.802 340.682C183.802 341.04 183.802 341.347 183.905 341.654C184.007 341.961 184.109 342.319 184.314 342.575Z" fill="#F48E9F" stroke="#043866" stroke-miterlimit="10" stroke-linecap="round"/>
<path id="Vector_53" d="M185.491 357.311C184.008 357.362 182.473 356.748 181.04 355.572C167.839 344.162 136.117 305.48 131.205 299.494C131.102 299.392 131.051 299.289 131.051 299.187C131 299.085 131 298.931 131 298.829C131 298.726 131.051 298.573 131.102 298.471C131.153 298.368 131.256 298.266 131.358 298.215L135.451 295.043C135.656 294.889 135.912 294.838 136.168 294.838C136.424 294.889 136.628 294.991 136.782 295.196C141.284 300.722 170.142 335.822 183.752 348.613C183.854 348.715 184.008 348.818 184.161 348.869C184.315 348.92 184.468 348.92 184.622 348.869C184.775 348.818 184.929 348.767 185.031 348.613C185.133 348.511 185.236 348.357 185.287 348.204C185.747 346.311 186.054 344.366 186.208 342.422C186.515 338.482 186.361 334.901 185.952 332.905C185.901 332.7 185.952 332.445 186.054 332.24C186.157 332.035 186.361 331.882 186.617 331.831L191.683 330.398C191.785 330.347 191.938 330.347 192.092 330.347C192.194 330.347 192.348 330.398 192.45 330.449C192.552 330.5 192.655 330.603 192.757 330.705C192.808 330.807 192.859 330.91 192.91 331.063C193.678 334.542 193.678 339.761 193.269 343.65C192.603 350.608 190.966 354.804 188.203 356.544C187.487 357.004 186.464 357.26 185.491 357.311Z" fill="#F48E9F" stroke="#043866" stroke-miterlimit="10" stroke-linecap="round"/>
</g>
<g id="green-slide">
<path id="Vector_54" d="M-135 1C-102.612 1 197.116 376.147 254.013 447.421C332.552 534.198 395.128 534.198 425.622 534.198H764.5V554.05H379.931C336.799 554.05 286.656 523.299 232.779 457.705C189.186 404.697 -123.437 24.4339 -135 24.4339" fill="#66CCB4"/>
<path id="Vector_55" d="M-135 1C-102.612 1 197.116 376.147 254.013 447.421C332.552 534.198 395.128 534.198 425.622 534.198H769V554.05H379.931C336.799 554.05 286.656 523.299 232.779 457.705C189.186 404.697 -123.437 24.4339 -135 24.4339" stroke="#043866" stroke-miterlimit="10" stroke-linecap="round"/>
</g>
</g>
</g>
<defs>
<filter id="filter0_d_545_7506" x="600.92" y="257.5" width="119.326" height="105.833" filterUnits="userSpaceOnUse" color-interpolation-filters="sRGB">
<feFlood flood-opacity="0" result="BackgroundImageFix"/>
<feColorMatrix in="SourceAlpha" type="matrix" values="0 0 0 0 0 0 0 0 0 0 0 0 0 0 0 0 0 0 127 0" result="hardAlpha"/>
<feOffset dx="5" dy="5"/>
<feGaussianBlur stdDeviation="7.5"/>
<feComposite in2="hardAlpha" operator="out"/>
<feColorMatrix type="matrix" values="0 0 0 0 0 0 0 0 0 0 0 0 0 0 0 0 0 0 0.15 0"/>
<feBlend mode="normal" in2="BackgroundImageFix" result="effect1_dropShadow_545_7506"/>
<feBlend mode="normal" in="SourceGraphic" in2="effect1_dropShadow_545_7506" result="shape"/>
</filter>
<filter id="filter1_d_545_7506" x="552.968" y="299.226" width="131.901" height="112.84" filterUnits="userSpaceOnUse" color-interpolation-filters="sRGB">
<feFlood flood-opacity="0" result="BackgroundImageFix"/>
<feColorMatrix in="SourceAlpha" type="matrix" values="0 0 0 0 0 0 0 0 0 0 0 0 0 0 0 0 0 0 127 0" result="hardAlpha"/>
<feOffset dx="5" dy="5"/>
<feGaussianBlur stdDeviation="7.5"/>
<feComposite in2="hardAlpha" operator="out"/>
<feColorMatrix type="matrix" values="0 0 0 0 0 0 0 0 0 0 0 0 0 0 0 0 0 0 0.15 0"/>
<feBlend mode="normal" in2="BackgroundImageFix" result="effect1_dropShadow_545_7506"/>
<feBlend mode="normal" in="SourceGraphic" in2="effect1_dropShadow_545_7506" result="shape"/>
</filter>
<filter id="filter2_d_545_7506" x="527.038" y="343.132" width="144.692" height="118.108" filterUnits="userSpaceOnUse" color-interpolation-filters="sRGB">
<feFlood flood-opacity="0" result="BackgroundImageFix"/>
<feColorMatrix in="SourceAlpha" type="matrix" values="0 0 0 0 0 0 0 0 0 0 0 0 0 0 0 0 0 0 127 0" result="hardAlpha"/>
<feOffset dx="5" dy="5"/>
<feGaussianBlur stdDeviation="7.5"/>
<feComposite in2="hardAlpha" operator="out"/>
<feColorMatrix type="matrix" values="0 0 0 0 0 0 0 0 0 0 0 0 0 0 0 0 0 0 0.15 0"/>
<feBlend mode="normal" in2="BackgroundImageFix" result="effect1_dropShadow_545_7506"/>
<feBlend mode="normal" in="SourceGraphic" in2="effect1_dropShadow_545_7506" result="shape"/>
</filter>
<filter id="filter3_d_545_7506" x="480.408" y="376.75" width="157.619" height="131.861" filterUnits="userSpaceOnUse" color-interpolation-filters="sRGB">
<feFlood flood-opacity="0" result="BackgroundImageFix"/>
<feColorMatrix in="SourceAlpha" type="matrix" values="0 0 0 0 0 0 0 0 0 0 0 0 0 0 0 0 0 0 127 0" result="hardAlpha"/>
<feOffset dx="5" dy="5"/>
<feGaussianBlur stdDeviation="7.5"/>
<feComposite in2="hardAlpha" operator="out"/>
<feColorMatrix type="matrix" values="0 0 0 0 0 0 0 0 0 0 0 0 0 0 0 0 0 0 0.15 0"/>
<feBlend mode="normal" in2="BackgroundImageFix" result="effect1_dropShadow_545_7506"/>
<feBlend mode="normal" in="SourceGraphic" in2="effect1_dropShadow_545_7506" result="shape"/>
</filter>
<filter id="filter4_d_545_7506" x="176.605" y="246.631" width="88.752" height="95.8359" filterUnits="userSpaceOnUse" color-interpolation-filters="sRGB">
<feFlood flood-opacity="0" result="BackgroundImageFix"/>
<feColorMatrix in="SourceAlpha" type="matrix" values="0 0 0 0 0 0 0 0 0 0 0 0 0 0 0 0 0 0 127 0" result="hardAlpha"/>
<feOffset dx="5" dy="5"/>
<feGaussianBlur stdDeviation="7.5"/>
<feComposite in2="hardAlpha" operator="out"/>
<feColorMatrix type="matrix" values="0 0 0 0 0 0 0 0 0 0 0 0 0 0 0 0 0 0 0.15 0"/>
<feBlend mode="normal" in2="BackgroundImageFix" result="effect1_dropShadow_545_7506"/>
<feBlend mode="normal" in="SourceGraphic" in2="effect1_dropShadow_545_7506" result="shape"/>
</filter>
<filter id="filter5_d_545_7506" x="177.193" y="278.712" width="93.6943" height="99.3086" filterUnits="userSpaceOnUse" color-interpolation-filters="sRGB">
<feFlood flood-opacity="0" result="BackgroundImageFix"/>
<feColorMatrix in="SourceAlpha" type="matrix" values="0 0 0 0 0 0 0 0 0 0 0 0 0 0 0 0 0 0 127 0" result="hardAlpha"/>
<feOffset dx="5" dy="5"/>
<feGaussianBlur stdDeviation="7.5"/>
<feComposite in2="hardAlpha" operator="out"/>
<feColorMatrix type="matrix" values="0 0 0 0 0 0 0 0 0 0 0 0 0 0 0 0 0 0 0.15 0"/>
<feBlend mode="normal" in2="BackgroundImageFix" result="effect1_dropShadow_545_7506"/>
<feBlend mode="normal" in="SourceGraphic" in2="effect1_dropShadow_545_7506" result="shape"/>
</filter>
<filter id="filter6_d_545_7506" x="175.061" y="313.893" width="89.3213" height="95.5" filterUnits="userSpaceOnUse" color-interpolation-filters="sRGB">
<feFlood flood-opacity="0" result="BackgroundImageFix"/>
<feColorMatrix in="SourceAlpha" type="matrix" values="0 0 0 0 0 0 0 0 0 0 0 0 0 0 0 0 0 0 127 0" result="hardAlpha"/>
<feOffset dx="5" dy="5"/>
<feGaussianBlur stdDeviation="7.5"/>
<feComposite in2="hardAlpha" operator="out"/>
<feColorMatrix type="matrix" values="0 0 0 0 0 0 0 0 0 0 0 0 0 0 0 0 0 0 0.15 0"/>
<feBlend mode="normal" in2="BackgroundImageFix" result="effect1_dropShadow_545_7506"/>
<feBlend mode="normal" in="SourceGraphic" in2="effect1_dropShadow_545_7506" result="shape"/>
</filter>
<filter id="filter7_d_545_7506" x="120.5" y="282.698" width="93.541" height="95.1162" filterUnits="userSpaceOnUse" color-interpolation-filters="sRGB">
<feFlood flood-opacity="0" result="BackgroundImageFix"/>
<feColorMatrix in="SourceAlpha" type="matrix" values="0 0 0 0 0 0 0 0 0 0 0 0 0 0 0 0 0 0 127 0" result="hardAlpha"/>
<feOffset dx="5" dy="5"/>
<feGaussianBlur stdDeviation="7.5"/>
<feComposite in2="hardAlpha" operator="out"/>
<feColorMatrix type="matrix" values="0 0 0 0 0 0 0 0 0 0 0 0 0 0 0 0 0 0 0.15 0"/>
<feBlend mode="normal" in2="BackgroundImageFix" result="effect1_dropShadow_545_7506"/>
<feBlend mode="normal" in="SourceGraphic" in2="effect1_dropShadow_545_7506" result="shape"/>
</filter>
</defs>
</svg>
