<?xml version="1.0" encoding="utf-8"?>
<!-- Generator: Adobe Illustrator 25.3.1, SVG Export Plug-In . SVG Version: 6.00 Build 0)  -->
<svg version="1.1" xmlns="http://www.w3.org/2000/svg" xmlns:xlink="http://www.w3.org/1999/xlink" x="0px" y="0px" width="700px"
	 height="273.8818px" viewBox="0 0 700 273.8818" style="enable-background:new 0 0 700 273.8818;" xml:space="preserve">
<style type="text./css">
	.st0{display:none;}
	.st1{display:inline;}
	.st2{fill:#F48E9F;}
	.st3{fill:#FFD7C5;stroke:#043866;stroke-width:1.0589;stroke-miterlimit:10;}
	.st4{fill:#FFFFFF;stroke:#043866;stroke-width:1.0589;stroke-miterlimit:10;}
	.st5{fill:#FFD7C5;stroke:#043866;stroke-width:1.3746;stroke-miterlimit:10;}
	.st6{fill:#FFFFFF;stroke:#043866;stroke-width:1.3746;stroke-miterlimit:10;}
	.st7{fill:none;stroke:#043866;stroke-width:2;stroke-miterlimit:10;}
	.st8{fill:#FFFFFF;stroke:#043866;stroke-miterlimit:10;}
	.st9{fill:#043866;stroke:#FFFFFF;stroke-miterlimit:10;}
	.st10{fill:#FFFFFF;}
	.st11{fill:none;stroke:#043866;stroke-miterlimit:10;}
	.st12{fill:none;stroke:#043866;stroke-width:6;stroke-miterlimit:10;}
	.st13{fill:none;stroke:#043866;stroke-width:6;stroke-miterlimit:10;stroke-dasharray:10.074,5.037;}
	.st14{fill:none;}
	.st15{display:inline;fill:#F48E9F;}
	.st16{fill:#D2D9A5;}
	.st17{fill:#7F9B4E;}
	.st18{clip-path:url(#SVGID_2_);fill:#D2D9A5;stroke:#043866;stroke-miterlimit:10;}
	.st19{clip-path:url(#SVGID_2_);fill:#7F9B4E;stroke:#043866;stroke-miterlimit:10;}
	.st20{clip-path:url(#SVGID_2_);}
	.st21{fill:#5A8A15;stroke:#043866;stroke-linecap:round;stroke-miterlimit:10;}
	.st22{fill:#5A8A15;stroke:#043866;stroke-miterlimit:10;}
	.st23{fill:none;stroke:#043866;stroke-linecap:round;stroke-miterlimit:10;}
	.st24{fill:#50741C;stroke:#043866;stroke-linecap:round;stroke-miterlimit:10;}
	.st25{clip-path:url(#SVGID_4_);}
	.st26{clip-path:url(#SVGID_6_);}
	.st27{fill:#043866;}
	.st28{clip-path:url(#SVGID_6_);fill:#7F9B4E;stroke:#043866;stroke-miterlimit:10;}
	.st29{clip-path:url(#SVGID_8_);}
</style>
<g id="Layer_1_copy">
</g>
<g id="editable" class="st0">
</g>
<g id="Layer_2">
	<g id="landing-forest_1_">
		<defs>
			<rect id="SVGID_5_" x="0" y="-13.4866" width="700" height="287.3684"/>
		</defs>
		<clipPath id="SVGID_2_">
			<use xlink:href="#SVGID_5_"  style="overflow:visible;"/>
		</clipPath>
		<g class="st20">
			<path class="st16" d="M283.2366,281.2298c-12.3701,0-24.3584-2.4629-35.6338-7.3193H-0.5036V20.261l0.668,0.2383
				c5.9014,2.1055,11.373,5.5537,15.8613,9.9912C28.0687,12.2688,48.22,1.4104,70.056,1.4104
				c35.6982,0,64.7402,29.042,64.7402,64.7393c0,4.4082-0.4443,8.7998-1.3213,13.0605
				c27.207,1.9688,49.3809,23.6963,51.8955,50.8672c1.5391-0.1309,3.1133-0.1973,4.6855-0.1973
				c7.9482,0,15.6309,1.623,22.8408,4.8252c17.2158-21.4629,42.8301-33.7656,70.3398-33.7656
				c29.0732,0,56.4404,14.0967,73.3604,37.748c7.6953-11.7168,20.5879-18.6875,34.6396-18.6875
				c20.9902,0,38.4404,15.4229,41.0947,36.0791c14.7012-19.0586,41.6064-30.8496,70.585-30.8496
				c6.9209,0,13.7998,0.667,20.4629,1.9824c-4.4473-8.7344-6.793-18.5273-6.793-28.3926c0-34.5225,28.0918-62.6094,62.6201-62.6094
				c10.9854,0,21.7539,2.8721,31.1846,8.3105c3.7637-10.6143,13.7637-17.7012,25.0752-17.7012
				c6.3018,0,12.3838,2.2344,17.1846,6.3018c8.251-9.6289,20.2178-15.1416,32.916-15.1416c5.0107,0,9.9258,0.8477,14.6074,2.5195
				l0.332,0.1182v253.293H318.8694C307.595,278.7669,295.6068,281.2298,283.2366,281.2298z"/>
			<path class="st27" d="M70.0564,1.9101c35.48,0,64.2402,28.76,64.2402,64.24c0,4.64-0.4902,9.16-1.4302,13.52
				c27.6101,1.71,49.76,23.51,52.05,50.95c1.6899-0.1599,3.4099-0.24,5.1399-0.24c8.2002,0,15.98,1.77,22.9902,4.9401
				c16.4199-20.65,41.7598-33.88,70.1899-33.88c30.3398,0,57.1602,15.0699,73.3799,38.1399
				c7.25-11.47,20.0498-19.0798,34.6201-19.0798c21.2397,0,38.7002,16.1799,40.7397,36.8799
				c13.9604-18.8899,40.5-31.6499,70.9399-31.6499c7.4004,0,14.5703,0.76,21.3901,2.1799
				c-4.6099-8.6799-7.2197-18.5801-7.2197-29.09c0-34.3,27.8101-62.11,62.1196-62.11c11.4902,0,22.2402,3.11,31.46,8.5499
				c3.4302-10.42,13.2402-17.9399,24.8003-17.9399c6.6099,0,12.6401,2.46,17.2397,6.5099
				c7.8501-9.3799,19.6602-15.3499,32.8604-15.3499c5.0698,0,9.9297,0.8799,14.4399,2.49v80.73v171.7099H318.7664
				c-10.8999,4.71-22.9099,7.3201-35.5298,7.3201c-12.6201,0-24.6301-2.6101-35.53-7.3201h-247.71V101.7001v-80.73
				c6.1399,2.1899,11.6299,5.75,16.1099,10.3099C27.5564,13.6,47.4366,1.9101,70.0564,1.9101 M70.0564,0.9101
				c-21.8027,0-41.9392,10.7439-54.1128,28.8025c-4.457-4.2858-9.8303-7.6224-15.6111-9.6843l-1.3359-0.4764v1.4183v80.73v171.7099
				v1h1h247.5037c11.3115,4.8577,23.333,7.3201,35.7363,7.3201c12.4031,0,24.4246-2.4624,35.7361-7.3201h381.0339h1v-1V101.7001
				v-80.73v-0.7048l-0.6636-0.2371c-4.7368-1.6908-9.708-2.5481-14.7764-2.5481c-12.6797,0-24.6396,5.4338-32.9727,14.9437
				c-4.8306-3.9432-10.873-6.1038-17.1274-6.1038c-11.3247,0-21.3579,6.9716-25.3413,17.4731
				c-9.3833-5.2916-20.0464-8.0831-30.9189-8.0831c-34.8042,0-63.1196,28.311-63.1196,63.11c0,9.6039,2.2056,19.139,6.394,27.7098
				c-6.3818-1.1948-12.9531-1.7998-19.5645-1.7998c-28.6616,0-55.3145,11.4866-70.2559,30.1229
				c-1.48-9.3673-6.103-17.9622-13.1802-24.4144c-7.7373-7.0537-17.7676-10.9385-28.2437-10.9385
				c-13.9785,0-26.8242,6.8168-34.6553,18.3115c-17.0449-23.4281-44.3516-37.3716-73.3447-37.3716
				c-27.5349,0-53.1804,12.2552-70.488,33.6534c-7.1738-3.1283-14.8037-4.7135-22.6921-4.7135
				c-1.4189,0-2.8394,0.0535-4.2356,0.1594c-1.3328-13.151-7.2515-25.4596-16.7341-34.7572
				c-9.4636-9.2787-21.8569-14.9436-35.0105-16.0275c0.8101-4.1184,1.2205-8.353,1.2205-12.6047
				C135.2967,30.1767,106.0301,0.9101,70.0564,0.9101L70.0564,0.9101z"/>
		</g>
		<path class="st19" d="M687.9666,154.6c-3.8301,0-7.5103,0.6501-10.9399,1.8501c-1.04-37.64-31.8799-67.8401-69.77-67.8401
			c-13.6802,0-26.4502,3.9401-37.2202,10.74c-7.2397-6.6699-16.8999-10.74-27.52-10.74c-12.7397,0-24.1099,5.8701-31.5498,15.04
			c-9.7002-9.59-23.04-15.52-37.77-15.52c-29.6802,0-53.7402,24.0601-53.7402,53.73c0,5.79,0.9102,11.3601,2.6104,16.5801
			c-15.02,0.52-27.8799,9.54-33.9404,22.3899c-9.1499-11.3199-23.1396-18.5499-38.8198-18.5499
			c-13.95,0-26.5598,5.7201-35.6099,14.9501c-4.8601-2.78-10.49-4.3701-16.49-4.3701c-2.1301,0-4.21,0.2001-6.23,0.5901
			c-5.4202-43.92-42.8701-77.92-88.26-77.92c-28.26,0-53.4399,13.1801-69.73,33.73c-9.4399-8.24-21.78-13.23-35.29-13.23
			c-29.6802,0-53.74,24.0599-53.74,53.73c0,0.6,0.01,1.1901,0.03,1.79c-3.3701-1.16-6.99-1.79-10.75-1.79
			c-5.51,0-10.71,1.34-15.28,3.7201C14.3165,165.9,7.8865,159.91-0.0034,156.84v61.9801v54.59h699.9998v-54.59V156.84
			C696.2664,155.39,692.2064,154.6,687.9666,154.6z"/>
		<g id="tree-3_7_" class="st20">
			<path id="Vector_11_" class="st21" d="M263.8121,163.0587c-5.2814-5.7536-6.9989-14.1693-3.6497-21.211
				c2.2757-4.7232,2.8768-10.0475,1.8034-15.1571c-1.1164-5.1096-3.8644-9.704-7.8577-13.0961
				c-1.7175-1.4599-2.9198-3.435-3.478-5.6249c-0.5582-2.1898-0.4294-4.5085,0.3864-6.6124
				c0.7299-1.9322,1.0305-4.0362,0.8587-6.0972c-0.1717-2.061-0.7728-4.0791-1.8034-5.8825
				c-1.0305-1.8034-2.4474-3.3492-4.122-4.5944c-1.7175-1.2023-3.6497-2.0181-5.6678-2.4045
				c-2.061-0.3864-4.1649-0.3006-6.1401,0.2576c-2.0181,0.5153-3.8644,1.5028-5.496,2.8339
				c-1.5887,1.3311-2.8769,3.0056-3.7786,4.8949c-0.9017,1.8893-1.3311,3.9503-1.3311,6.0113c0,2.0181,0.4294,4.0362,1.2881,5.8825
				c1.9752,4.3367,0.8587,9.2746-2.5333,12.6237c-3.435,3.3922-5.7107,7.7718-6.6124,12.5379
				c-0.8587,4.7662-0.2576,9.661,1.7604,14.0407c1.6317,3.5209,2.1469,7.4283,1.5887,11.2068
				c-0.6011,3.8218-2.2757,7.3855-4.8949,10.2193c-5.7537,6.1831-8.974,14.2557-9.0599,22.714
				c-0.1718,17.9908,14.2984,33.3629,32.2464,34.2219c6.6983,0.3435,13.3537-1.3746,19.1074-4.8092
				c5.7537-3.4777,10.348-8.5874,13.1819-14.6422c2.834-6.0971,3.8215-12.8811,2.791-19.5367
				C271.3263,174.1801,268.3635,167.997,263.8121,163.0587z"/>
			<g id="Vector_2_11_">
				<path class="st22" d="M238.8644,120.7651v150.0683V120.7651z"/>
				<path class="st23" d="M238.8644,120.7651v150.0683"/>
			</g>
			<g id="Vector_3_11_">
				<path class="st22" d="M238.8651,202.2182l-18.6351-18.6777L238.8651,202.2182z"/>
				<path class="st23" d="M238.8651,202.2182l-18.6351-18.6777"/>
			</g>
			<g id="Vector_4_11_">
				<path class="st22" d="M238.8644,179.0317l11.1639-11.1638L238.8644,179.0317z"/>
				<path class="st23" d="M238.8644,179.0317l11.1639-11.1638"/>
			</g>
			<g id="Vector_5_11_">
				<path class="st22" d="M238.8643,138.5844l-9.8758-9.8758L238.8643,138.5844z"/>
				<path class="st23" d="M238.8643,138.5844l-9.8758-9.8758"/>
			</g>
			<g id="Vector_6_7_">
				<path class="st22" d="M238.8644,138.5844l11.035-11.035L238.8644,138.5844z"/>
				<path class="st23" d="M238.8644,138.5844l11.035-11.035"/>
			</g>
		</g>
		<g id="tree-3_6_" class="st20">
			<path id="Vector_10_" class="st21" d="M496.9814,183.4391c-4.5806-4.9902-6.0703-12.2893-3.1655-18.3968
				c1.9738-4.0965,2.4951-8.7144,1.5641-13.1461c-0.9683-4.4317-3.3517-8.4165-6.8151-11.3585
				c-1.4896-1.2662-2.5324-2.9793-3.0165-4.8786c-0.4842-1.8993-0.3724-3.9103,0.3351-5.7351
				c0.6331-1.6759,0.8938-3.5007,0.7448-5.2882c-0.149-1.7876-0.6703-3.5379-1.5641-5.102
				c-0.8937-1.5641-2.1227-2.9048-3.5751-3.9848c-1.4896-1.0427-3.1655-1.7503-4.9158-2.0855
				c-1.7876-0.3352-3.6123-0.2607-5.3254,0.2234c-1.7503,0.4469-3.3517,1.3034-4.7668,2.4579
				c-1.3779,1.1545-2.4952,2.6069-3.2772,4.2454c-0.782,1.6386-1.1544,3.4262-1.1544,5.2137c0,1.7504,0.3724,3.5007,1.1172,5.1021
				c1.7131,3.7613,0.7448,8.0441-2.1972,10.9488c-2.9793,2.9421-4.953,6.7407-5.7351,10.8744
				c-0.7448,4.1338-0.2234,8.3792,1.5269,12.1778c1.4152,3.0538,1.8621,6.4427,1.3779,9.7199
				c-0.5214,3.3147-1.9738,6.4056-4.2455,8.8634c-4.9903,5.3627-7.7833,12.3642-7.8578,19.7003
				c-0.149,15.6038,12.4013,28.9363,27.968,29.6814c5.8096,0.2979,11.5819-1.1922,16.5723-4.1712
				c4.9903-3.0163,8.9751-7.448,11.433-12.6995c2.4579-5.2881,3.3144-11.172,2.4207-16.9446
				C503.4987,193.0849,500.929,187.7222,496.9814,183.4391z"/>
			<g id="Vector_2_10_">
				<path class="st22" d="M475.3438,146.7569v130.1574V146.7569z"/>
				<path class="st23" d="M475.3438,146.7569v130.1574"/>
			</g>
			<g id="Vector_3_10_">
				<path class="st22" d="M475.3444,217.4029l-16.1626-16.1996L475.3444,217.4029z"/>
				<path class="st23" d="M475.3444,217.4029l-16.1626-16.1996"/>
			</g>
			<g id="Vector_4_10_">
				<path class="st22" d="M475.3438,197.2928l9.6827-9.6826L475.3438,197.2928z"/>
				<path class="st23" d="M475.3438,197.2928l9.6827-9.6826"/>
			</g>
			<g id="Vector_5_10_">
				<path class="st22" d="M475.3437,162.212l-8.5655-8.5655L475.3437,162.212z"/>
				<path class="st23" d="M475.3437,162.212l-8.5655-8.5655"/>
			</g>
			<g id="Vector_6_6_">
				<path class="st22" d="M475.3438,162.2119l9.5709-9.5709L475.3438,162.2119z"/>
				<path class="st23" d="M475.3438,162.2119l9.5709-9.5709"/>
			</g>
		</g>
		<g id="tree-2_3_" class="st20">
			<path id="Vector_9_" class="st24" d="M118.0022,138.1021c1.6499-3.1967,2.5264-6.806,2.4233-10.4152
				c-0.2578-11.3433-9.5387-20.8304-20.882-21.2945c-3.8155-0.1547-7.5794,0.6703-10.9308,2.4233
				c-3.403,1.7531-6.2388,4.3826-8.3012,7.5794c-2.0624,3.1967-3.2484,6.8575-3.403,10.673
				c-0.2063,3.8154,0.6187,7.5794,2.3202,10.9824c2.9389,5.6716,1.7015,12.7354-3.1452,16.8602
				c-3.9186,3.2999-7.1153,7.4247-9.2293,12.1167c-2.1655,4.6404-3.2483,9.7449-3.1967,14.901
				c0.1547,18.3039,14.8493,33.7206,33.1017,34.7006c7.3216,0.412,14.5916-1.496,20.7789-5.466
				c6.1872-3.97,10.9824-9.7448,13.6635-16.6023c2.6812-6.806,3.1967-14.3338,1.3921-21.4492
				c-1.8046-7.1153-5.7747-13.5088-11.4464-18.2008C116.3522,150.6828,115.1148,143.7222,118.0022,138.1021z"/>
			<path id="Vector_2_9_" class="st23" d="M98.6557,124.263v150.1111"/>
			<path id="Vector_3_9_" class="st23" d="M98.6664,196.9325l17.8915-17.8914"/>
			<path id="Vector_4_9_" class="st23" d="M98.6677,176.0506L85.726,163.109"/>
			<path id="Vector_5_9_" class="st23" d="M98.6664,139.0818l9.1262-9.1262"/>
		</g>
		<g id="tree-2_2_" class="st20">
			<path id="Vector_8_" class="st24" d="M443.4381,175.7876c1.2908-2.501,1.9766-5.3249,1.8959-8.1487
				c-0.2017-8.8748-7.4629-16.2973-16.3377-16.6604c-2.9852-0.121-5.93,0.5244-8.552,1.896
				c-2.6624,1.3716-4.8811,3.4289-6.4947,5.93c-1.6136,2.501-2.5415,5.3652-2.6624,8.3503c-0.1614,2.9851,0.4841,5.93,1.8153,8.5924
				c2.2993,4.4373,1.3312,9.9639-2.4607,13.1911c-3.0658,2.5818-5.5669,5.8089-7.2208,9.4799
				c-1.6943,3.6306-2.5414,7.6242-2.5011,11.6582c0.121,14.3206,11.6178,26.3823,25.8981,27.149
				c5.7283,0.3223,11.4162-1.1704,16.257-4.2765c4.8408-3.106,8.5924-7.6241,10.6901-12.9893
				c2.0977-5.3249,2.501-11.2145,1.0891-16.7814c-1.4119-5.5669-4.518-10.569-8.9554-14.2399
				C442.1472,185.6305,441.179,180.1847,443.4381,175.7876z"/>
			<path id="Vector_2_8_" class="st23" d="M428.3018,164.9602v117.4439"/>
			<path id="Vector_3_8_" class="st23" d="M428.3102,221.8153l13.998-13.9979"/>
			<path id="Vector_4_8_" class="st23" d="M428.3112,205.4778l-10.1253-10.1252"/>
			<path id="Vector_5_8_" class="st23" d="M428.3102,176.5541l7.1402-7.1402"/>
		</g>
		<g class="st20">
			<defs>
				<rect id="SVGID_7_" x="0" y="-13.4866" width="700" height="287.3684"/>
			</defs>
			<clipPath id="SVGID_4_">
				<use xlink:href="#SVGID_7_"  style="overflow:visible;"/>
			</clipPath>
			<g id="tree-3_5_" class="st25">
				<path id="Vector_7_" class="st21" d="M712.7224,156.6279c-5.612-6.1138-7.4371-15.0562-3.8782-22.5388
					c2.4182-5.0189,3.0569-10.6765,1.9163-16.1059c-1.1863-5.4295-4.1063-10.3114-8.3495-13.9158
					c-1.825-1.5513-3.1026-3.65-3.6957-5.977c-0.5931-2.3269-0.4562-4.7907,0.4106-7.0263c0.7756-2.0532,1.095-4.2889,0.9125-6.4789
					c-0.1825-2.19-0.8212-4.3344-1.9163-6.2507c-1.095-1.9163-2.6006-3.5588-4.3801-4.882c-1.825-1.2775-3.8782-2.1444-6.0226-2.555
					c-2.1901-0.4106-4.4257-0.3194-6.5245,0.2737c-2.1443,0.5475-4.1063,1.5969-5.8401,3.0113
					c-1.6881,1.4144-3.0569,3.1938-4.0151,5.2013c-0.9581,2.0076-1.4144,4.1976-1.4144,6.3876c0,2.1445,0.4562,4.2889,1.3687,6.2508
					c2.0988,4.6082,0.9125,9.8552-2.6919,13.4139c-3.6501,3.6045-6.0682,8.2583-7.0264,13.3227
					c-0.9125,5.0645-0.2737,10.2658,1.8707,14.9196c1.7338,3.7413,2.2813,7.8933,1.6881,11.9084
					c-0.6387,4.061-2.4182,7.8479-5.2014,10.859c-6.1138,6.5702-9.5357,15.148-9.627,24.1358
					c-0.1826,19.1169,15.1934,35.4513,34.2649,36.3641c7.1176,0.365,14.1896-1.4606,20.3035-5.1103
					c6.1138-3.6954,10.9958-9.1249,14.0071-15.5587c3.0113-6.4787,4.0606-13.6874,2.9656-20.7597
					C720.7068,168.4456,717.5587,161.8754,712.7224,156.6279z"/>
				<g id="Vector_2_7_">
					<path class="st22" d="M686.213,111.6869v159.4622V111.6869z"/>
					<path class="st23" d="M686.213,111.6869v159.4622"/>
				</g>
				<g id="Vector_3_7_">
					<path class="st22" d="M686.2137,198.2388l-19.8016-19.8469L686.2137,198.2388z"/>
					<path class="st23" d="M686.2137,198.2388l-19.8016-19.8469"/>
				</g>
				<g id="Vector_4_7_">
					<path class="st22" d="M686.213,173.6008l11.8627-11.8626L686.213,173.6008z"/>
					<path class="st23" d="M686.213,173.6008l11.8627-11.8626"/>
				</g>
				<g id="Vector_5_7_">
					<path class="st22" d="M686.2128,130.6217l-10.494-10.494L686.2128,130.6217z"/>
					<path class="st23" d="M686.2128,130.6217l-10.494-10.494"/>
				</g>
				<g id="Vector_6_5_">
					<path class="st22" d="M686.213,130.6216l11.7258-11.7258L686.213,130.6216z"/>
					<path class="st23" d="M686.213,130.6216l11.7258-11.7258"/>
				</g>
			</g>
			<g id="tree-3_4_" class="st25">
				<path id="Vector_6_" class="st21" d="M12.7223,156.6279c-5.612-6.1138-7.437-15.0562-3.8782-22.5388
					c2.4182-5.0189,3.0569-10.6765,1.9163-16.1059c-1.1863-5.4295-4.1063-10.3114-8.3495-13.9158
					c-1.825-1.5513-3.1026-3.65-3.6957-5.977c-0.5932-2.3269-0.4562-4.7907,0.4106-7.0263
					c0.7756-2.0532,1.0951-4.2889,0.9125-6.4789c-0.1825-2.19-0.8212-4.3344-1.9163-6.2507
					c-1.095-1.9163-2.6006-3.5588-4.3801-4.882c-1.825-1.2775-3.8782-2.1444-6.0226-2.555c-2.19-0.4106-4.4256-0.3194-6.5244,0.2737
					c-2.1444,0.5475-4.1063,1.5969-5.8401,3.0113c-1.6881,1.4144-3.057,3.1938-4.0151,5.2013
					c-0.9581,2.0076-1.4144,4.1976-1.4144,6.3876c0,2.1445,0.4562,4.2889,1.3687,6.2508c2.0988,4.6082,0.9125,9.8552-2.6919,13.4139
					c-3.6501,3.6045-6.0682,8.2583-7.0263,13.3227c-0.9125,5.0645-0.2738,10.2658,1.8706,14.9196
					c1.7338,3.7413,2.2813,7.8933,1.6881,11.9084c-0.6387,4.061-2.4182,7.8479-5.2014,10.859
					c-6.1138,6.5702-9.5357,15.148-9.627,24.1358c-0.1825,19.1169,15.1934,35.4513,34.2649,36.3641
					c7.1176,0.365,14.1896-1.4606,20.3035-5.1103c6.1138-3.6954,10.9958-9.1249,14.0071-15.5587
					c3.0113-6.4787,4.0607-13.6874,2.9657-20.7597C20.7069,168.4456,17.5586,161.8754,12.7223,156.6279z"/>
			</g>
		</g>
	</g>
</g>
</svg>
