<svg width="124" height="100" viewBox="0 0 124 100" fill="none" xmlns="http://www.w3.org/2000/svg">
<path d="M81.1295 97.3604C81.3437 97.4355 81.5771 97.4355 81.7913 97.3604L120.718 83.711C121.119 83.5704 121.387 83.1921 121.387 82.7673V3.5835C121.387 3.2593 121.23 2.95522 120.965 2.76771C120.701 2.58021 120.362 2.53256 120.056 2.63987L81.4604 16.1783L42.8648 2.63987C42.6505 2.5647 42.417 2.56471 42.2028 2.63988L3.28126 16.2944C2.88053 16.435 2.6123 16.8133 2.6123 17.238V96.4167C2.6123 96.7409 2.76946 97.045 3.03391 97.2325C3.29837 97.42 3.63732 97.4676 3.94324 97.3604L42.5338 83.827L81.1295 97.3604Z" fill="white" stroke="#043866" stroke-width="2" stroke-miterlimit="10" stroke-linejoin="round"/>
<path d="M98.111 82.1851L92.1678 81.7765C92.1445 81.7749 92.1212 81.7799 92.1005 81.7907C92.0798 81.8015 92.0625 81.8178 92.0504 81.8378L89.0124 86.9461C88.9989 86.9711 88.9774 86.9909 88.9513 87.0024C88.9253 87.0138 88.8961 87.0162 88.8685 87.0091C88.8409 87.0021 88.8165 86.986 88.7991 86.9635C88.7817 86.941 88.7723 86.9132 88.7725 86.8848L88.124 74.2366C88.1242 74.2124 88.1311 74.1886 88.1438 74.168C88.1566 74.1474 88.1747 74.1306 88.1963 74.1196C88.2178 74.1085 88.242 74.1036 88.2662 74.1053C88.2903 74.107 88.3136 74.1153 88.3334 74.1293L98.1927 81.9757C98.2076 81.9932 98.2175 82.0145 98.2213 82.0373C98.2251 82.06 98.2227 82.0833 98.2143 82.1048C98.2059 82.1263 98.1919 82.1451 98.1737 82.1592C98.1555 82.1733 98.1338 82.1823 98.111 82.1851Z" fill="#F9B84E"/>
<path d="M43.5146 20.7729C30.3978 24.7319 26.7624 35.0762 30.3365 43.0503C34.3292 51.9745 44.0762 51.3308 49.5241 48.0922C54.972 44.8535 54.6861 39.781 53.0011 36.5678C46.8282 24.8187 20.8755 45.0834 30.4233 63.2792C42.5394 86.3687 98.5398 57.2054 90.5339 41.9673C88.1086 37.3698 83.5134 35.7505 78.7905 38.228C73.2865 41.1193 74.083 47.566 76.3142 51.8161L84.6469 67.6978" stroke="#66CCB4" stroke-width="6" stroke-miterlimit="10" stroke-dasharray="10.07 5.04"/>
</svg>
