<svg width="340" height="199" viewBox="0 0 340 199" fill="none" xmlns="http://www.w3.org/2000/svg">
<g id="modal-bg">
<path id="river-forest-front" d="M-1.18133 220.61C21.4566 220.927 28.341 249.411 37.1575 229.968C44.0172 234.336 65.2864 229.846 73.9999 229.968C91.9394 230.219 102.111 245.073 109.5 229.968C120.594 285.832 174.419 268.353 233.619 269.182C269.755 269.688 302.521 254.511 325.422 229.968C337.597 239.11 352.728 244.705 369.13 244.934C410.22 245.51 444.002 212.66 444.578 171.57C445.153 130.48 412.303 96.6972 371.213 96.1218C363.525 96.0142 356.162 97.1073 349.127 99.1448C330.947 55.058 287.809 23.78 237.151 23.0706C202.724 22.5886 171.517 36.2497 148.816 58.7451C140.598 53.7598 131.07 50.8067 120.733 50.662C90.236 50.2349 65.1154 74.6616 64.6883 105.159C64.6823 105.586 64.6776 105.928 64.6716 106.355C53.3582 108.845 43.6095 115.544 37.1575 124.767C27.4567 115.83 14.6328 110.268 0.452043 110.069C-30.0451 109.642 -55.1656 134.069 -55.5926 164.566C-56.0196 195.063 -31.6785 220.183 -1.18133 220.61Z" fill="#7F9B4E" stroke="#043866"/>
<g id="tree">
<path id="Vector" d="M76.4017 86.9608C70.7912 80.8486 68.9666 71.9082 72.5245 64.4275C74.9421 59.4099 75.5807 53.7538 74.4403 48.3257C73.2543 42.8976 70.3351 38.0169 66.093 34.4134C64.2684 32.8625 62.9912 30.7642 62.3982 28.4379C61.8052 26.1116 61.942 23.6485 62.8087 21.4134C63.5841 19.3607 63.9034 17.1256 63.721 14.9362C63.5385 12.7467 62.9 10.6028 61.8052 8.68701C60.7105 6.77122 59.2052 5.12911 57.4263 3.8063C55.6017 2.5291 53.549 1.66245 51.4052 1.25192C49.2157 0.841391 46.9806 0.932608 44.8824 1.52559C42.7385 2.07296 40.7771 3.1221 39.0438 4.53614C37.356 5.95018 35.9876 7.72911 35.0297 9.73613C34.0718 11.7432 33.6157 13.9326 33.6157 16.1221C33.6157 18.266 34.0718 20.4098 34.9841 22.3712C37.0823 26.9783 35.8964 32.2239 32.2929 35.7818C28.6437 39.3853 26.2262 44.038 25.2683 49.1011C24.356 54.1643 24.9946 59.3643 27.1385 64.0169C28.8718 67.7573 29.4192 71.9082 28.8262 75.9222C28.1876 79.9819 26.4086 83.7678 23.6262 86.7784C17.5139 93.3468 14.0928 101.922 14.0016 110.908C13.8192 130.021 29.1911 146.35 48.2578 147.263C55.3736 147.628 62.4438 145.803 68.5561 142.154C74.6684 138.459 79.5491 133.031 82.5596 126.599C85.5702 120.122 86.6193 112.915 85.5246 105.845C84.3842 98.7749 81.2368 92.2065 76.4017 86.9608Z" fill="#5A8A15" stroke="#043866" stroke-miterlimit="10" stroke-linecap="round"/>
<g id="Vector_2">
<path d="M49.8994 42.031V201.452Z" fill="#5A8A15"/>
<path d="M49.8994 42.031V201.452" stroke="#043866" stroke-miterlimit="10" stroke-linecap="round"/>
</g>
<g id="Vector_3">
<path d="M49.9001 128.561L30.1035 108.719Z" fill="#5A8A15"/>
<path d="M49.9001 128.561L30.1035 108.719" stroke="#043866" stroke-miterlimit="10" stroke-linecap="round"/>
</g>
<g id="Vector_4">
<path d="M49.8994 103.929L61.7591 92.0696Z" fill="#5A8A15"/>
<path d="M49.8994 103.929L61.7591 92.0696" stroke="#043866" stroke-miterlimit="10" stroke-linecap="round"/>
</g>
<g id="Vector_5">
<path d="M49.8994 60.9608L39.4082 50.4696Z" fill="#5A8A15"/>
<path d="M49.8994 60.9608L39.4082 50.4696" stroke="#043866" stroke-miterlimit="10" stroke-linecap="round"/>
</g>
<g id="Vector_6">
<path d="M49.8994 60.9609L61.6222 49.238Z" fill="#5A8A15"/>
<path d="M49.8994 60.9609L61.6222 49.238" stroke="#043866" stroke-miterlimit="10" stroke-linecap="round"/>
</g>
</g>
<g id="tree_2">
<path id="Vector_7" d="M304.41 104.765C306.062 101.564 306.939 97.951 306.836 94.3376C306.578 82.9811 297.286 73.4829 285.93 73.0184C282.11 72.8635 278.341 73.6894 274.986 75.4445C271.579 77.1996 268.74 79.8323 266.675 83.0327C264.61 86.2332 263.423 89.8982 263.268 93.7181C263.062 97.5381 263.888 101.306 265.591 104.713C268.533 110.392 267.295 117.464 262.442 121.593C258.519 124.897 255.319 129.027 253.202 133.724C251.034 138.37 249.95 143.48 250.002 148.642C250.157 166.967 264.868 182.402 283.142 183.383C290.472 183.796 297.751 181.886 303.945 177.911C310.14 173.936 314.94 168.155 317.624 161.289C320.309 154.475 320.825 146.939 319.018 139.815C317.211 132.692 313.237 126.291 307.559 121.593C302.758 117.36 301.519 110.392 304.41 104.765Z" fill="#50741C" stroke="#043866" stroke-miterlimit="10" stroke-linecap="round"/>
<path id="Vector_8" d="M285.052 91.292V213.736" stroke="#043866" stroke-miterlimit="10" stroke-linecap="round"/>
<path id="Vector_9" d="M285.052 163.664L302.964 145.751" stroke="#043866" stroke-miterlimit="10" stroke-linecap="round"/>
<path id="Vector_10" d="M285.052 142.758L272.096 129.801" stroke="#043866" stroke-miterlimit="10" stroke-linecap="round"/>
<path id="Vector_11" d="M285.052 105.746L294.189 96.6089" stroke="#043866" stroke-miterlimit="10" stroke-linecap="round"/>
</g>
<g id="leaf">
<path id="Vector_12" d="M300.957 61.1478C297.696 57.2186 299.141 51.8681 303.816 46.7177C309.001 40.9947 314.557 39.0117 317.616 41.561C320.626 44.1087 320.361 49.3983 314.757 55.991C310.172 61.3896 303.746 64.4735 300.957 61.1478Z" fill="#A4C673" stroke="#043866" stroke-miterlimit="10" stroke-linecap="round"/>
<path id="Vector_13" d="M317.616 41.5607L301.006 61.149" stroke="#043866" stroke-miterlimit="10" stroke-linecap="round"/>
<path id="Vector_14" d="M318.949 49.0598L311.3 48.9656" stroke="#043866" stroke-miterlimit="10" stroke-linecap="round"/>
<path id="Vector_15" d="M315.318 55.3221L305.237 56.1322" stroke="#043866" stroke-miterlimit="10" stroke-linecap="round"/>
<path id="Vector_16" d="M311.203 41.1628L309.364 51.2592" stroke="#043866" stroke-miterlimit="10" stroke-linecap="round"/>
<path id="Vector_17" d="M302.239 48.5325L303.455 58.1857" stroke="#043866" stroke-miterlimit="10" stroke-linecap="round"/>
</g>
<g id="leaf_2">
<path id="Vector_18" d="M20.7203 162.258C23.3662 159.051 27.8962 159.412 32.7469 162.379C38.1187 165.706 40.524 169.875 38.9205 172.681C37.3169 175.488 33.0275 176.089 26.8939 172.561C21.8829 169.675 18.4353 164.984 20.7203 162.258Z" fill="#A4C673" stroke="#043866" stroke-miterlimit="10" stroke-linecap="round"/>
<path id="Vector_19" d="M38.9208 172.681L20.7207 162.218" stroke="#043866" stroke-miterlimit="10" stroke-linecap="round"/>
<path id="Vector_20" d="M33.1078 174.926L32.0254 168.753" stroke="#043866" stroke-miterlimit="10" stroke-linecap="round"/>
<path id="Vector_21" d="M27.5349 172.922L25.3701 164.944" stroke="#043866" stroke-miterlimit="10" stroke-linecap="round"/>
<path id="Vector_22" d="M38.3189 167.51L29.9404 167.55" stroke="#043866" stroke-miterlimit="10" stroke-linecap="round"/>
<path id="Vector_23" d="M31.0631 161.417L23.4863 163.862" stroke="#043866" stroke-miterlimit="10" stroke-linecap="round"/>
</g>
<g id="leaf_3">
<path id="Vector_24" d="M97.6607 19.6733C101.723 20.5599 103.473 24.7536 103.053 30.4239C102.55 36.7228 99.9422 40.7682 96.7134 40.6253C93.4845 40.4824 90.9883 36.9426 91.3211 29.8747C91.5966 24.0984 94.1915 18.8877 97.6607 19.6733Z" fill="#A4C673" stroke="#043866" stroke-miterlimit="10" stroke-linecap="round"/>
<path id="Vector_25" d="M96.7133 40.6253L97.6963 19.655" stroke="#043866" stroke-miterlimit="10" stroke-linecap="round"/>
<path id="Vector_26" d="M92.0592 36.4821L97.0547 32.6965" stroke="#043866" stroke-miterlimit="10" stroke-linecap="round"/>
<path id="Vector_27" d="M91.2936 30.61L97.3984 25.037" stroke="#043866" stroke-miterlimit="10" stroke-linecap="round"/>
<path id="Vector_28" d="M101.037 37.7259L97.1704 30.293" stroke="#043866" stroke-miterlimit="10" stroke-linecap="round"/>
<path id="Vector_29" d="M103.138 28.4864L97.4991 22.8664" stroke="#043866" stroke-miterlimit="10" stroke-linecap="round"/>
</g>
</g>
</svg>
