<svg width="241" height="213" viewBox="0 0 241 213" fill="none" xmlns="http://www.w3.org/2000/svg">
<g id="polaroids" clip-path="url(#clip0_566_7678)">
<path id="Vector" d="M114.991 48.5439L64.1621 51.3656L68.6774 132.703L119.507 129.881L114.991 48.5439Z" fill="#66CCB4" stroke="#043866" stroke-miterlimit="10"/>
<path id="Vector_2" d="M111.95 56.0327L68.3779 58.4515L71.6586 117.549L115.231 115.13L111.95 56.0327Z" fill="white" stroke="#043866" stroke-miterlimit="10"/>
<path id="Vector_3" d="M145.759 45.9745L95.2119 39.9269L85.5345 120.813L136.082 126.86L145.759 45.9745Z" fill="#F9B84E" stroke="#043866" stroke-miterlimit="10"/>
<path id="Vector_4" d="M141.46 52.8191L98.1299 47.6349L91.0986 106.404L134.429 111.589L141.46 52.8191Z" fill="white" stroke="#043866" stroke-miterlimit="10"/>
<path id="Vector_5" d="M139.128 135.79L179.879 166.301L228.703 101.09L187.951 70.5795L139.128 135.79Z" fill="#1471D0" stroke="#043866" stroke-miterlimit="10"/>
<path id="Vector_6" d="M150.861 125.883L185.794 152.038L221.268 104.658L186.335 78.5031L150.861 125.883Z" fill="white" stroke="#043866" stroke-miterlimit="10"/>
<path id="Vector_7" d="M126.996 124.094L172.427 147.065L209.185 74.367L163.755 51.396L126.996 124.094Z" fill="white" stroke="#043866" stroke-miterlimit="10"/>
<path id="Vector_8" d="M136.832 112.297L175.776 131.989L202.484 79.1682L163.54 59.4768L136.832 112.297Z" fill="white" stroke="#043866" stroke-miterlimit="10"/>
<path id="Vector_9" d="M179.987 52.4761L131.258 37.7429L107.682 115.719L156.411 130.453L179.987 52.4761Z" fill="#F48E9F" stroke="#043866" stroke-miterlimit="10"/>
<path id="Vector_10" d="M174.566 58.4722L132.794 45.8425L115.664 102.498L157.436 115.128L174.566 58.4722Z" fill="white" stroke="#043866" stroke-miterlimit="10"/>
<path id="Vector_11" d="M79.8724 82.0704L30.0059 92.3132L46.3965 172.11L96.2631 161.867L79.8724 82.0704Z" fill="white" stroke="#043866" stroke-miterlimit="10"/>
<path id="Vector_12" d="M77.961 89.9193L35.2139 98.6998L47.1229 156.678L89.87 147.897L77.961 89.9193Z" fill="white" stroke="#043866" stroke-miterlimit="10"/>
<path id="Vector_13" d="M109.934 75.0361L59.0469 76.4641L61.332 157.895L112.22 156.467L109.934 75.0361Z" fill="#F9B84E" stroke="#043866" stroke-miterlimit="10"/>
<path id="Vector_14" d="M106.684 82.4369L63.0615 83.661L64.7218 142.826L108.344 141.602L106.684 82.4369Z" fill="white" stroke="#043866" stroke-miterlimit="10"/>
<path id="Vector_15" d="M116.423 164.855L161.207 189.062L199.943 117.399L155.159 93.1915L116.423 164.855Z" fill="#F48E9F" stroke="#043866" stroke-miterlimit="10"/>
<path id="Vector_16" d="M126.581 153.337L164.971 174.088L193.115 122.019L154.725 101.268L126.581 153.337Z" fill="white" stroke="#043866" stroke-miterlimit="10"/>
<path id="Vector_17" d="M102.712 155.078L151.02 171.14L176.723 93.8389L128.416 77.7763L102.712 155.078Z" fill="#66CCB4" stroke="#043866" stroke-miterlimit="10"/>
<path id="Vector_18" d="M110.714 141.963L152.124 155.733L170.8 99.5676L129.389 85.7982L110.714 141.963Z" fill="white" stroke="#043866" stroke-miterlimit="10"/>
<path id="Vector_19" d="M144.745 76.4505L94.3828 69.0203L82.4929 149.611L132.855 157.041L144.745 76.4505Z" fill="#1471D0" stroke="#043866" stroke-miterlimit="10"/>
<path id="Vector_20" d="M140.262 83.1742L97.0898 76.8048L88.451 135.36L131.623 141.729L140.262 83.1742Z" fill="white" stroke="#043866" stroke-miterlimit="10"/>
</g>
<defs>
<clipPath id="clip0_566_7678">
<rect width="186.124" height="168.454" fill="white" transform="translate(71.8379) rotate(25.2426)"/>
</clipPath>
</defs>
</svg>
