<svg width="152" height="126" viewBox="0 0 152 126" fill="none" xmlns="http://www.w3.org/2000/svg">
<path d="M151 58.963V1.07483H17.5498V58.963H151Z" fill="#F9B84E" stroke="#043866" stroke-miterlimit="10" stroke-linecap="round"/>
<path d="M144.11 7.73987H24.4395V52.298H144.11V7.73987Z" fill="#1471D0" stroke="#043866" stroke-miterlimit="10" stroke-linecap="round"/>
<g opacity="0.5">
<path opacity="0.5" d="M24.2891 7.73999V52.0735" stroke="#043866" stroke-miterlimit="10" stroke-linecap="round"/>
<path opacity="0.5" d="M39.2666 7.73999V52.0735" stroke="#043866" stroke-miterlimit="10" stroke-linecap="round"/>
<path opacity="0.5" d="M54.3184 7.73999V52.0735" stroke="#043866" stroke-miterlimit="10" stroke-linecap="round"/>
<path opacity="0.5" d="M69.2959 7.73999V52.0735" stroke="#043866" stroke-miterlimit="10" stroke-linecap="round"/>
<path opacity="0.5" d="M84.2734 7.73999V52.0735" stroke="#043866" stroke-miterlimit="10" stroke-linecap="round"/>
<path opacity="0.5" d="M99.251 7.73999V52.0735" stroke="#043866" stroke-miterlimit="10" stroke-linecap="round"/>
<path opacity="0.5" d="M114.305 7.73999V52.0735" stroke="#043866" stroke-miterlimit="10" stroke-linecap="round"/>
<path opacity="0.5" d="M129.281 7.73999V52.0735" stroke="#043866" stroke-miterlimit="10" stroke-linecap="round"/>
<path opacity="0.5" d="M144.259 7.73999V52.0735" stroke="#043866" stroke-miterlimit="10" stroke-linecap="round"/>
</g>
<path d="M34.7745 29.5321V29.1577H34.1754C34.1005 29.1577 33.9507 29.1577 33.6512 29.1577C33.4265 29.1577 33.2018 29.1577 33.1269 29.1577H32.6776V29.9815L33.6512 29.9066C34.3251 29.8317 34.6247 29.8317 34.6996 29.7568C34.7745 29.9066 34.7745 29.7568 34.7745 29.5321ZM35.074 25.0389C35.2238 24.8891 35.3736 24.8142 35.5982 24.8142C35.748 24.8142 35.8978 24.8891 36.0476 24.964C36.1225 25.0389 36.1973 25.1887 36.1973 25.3384C36.1973 25.4882 36.1973 25.7878 36.1973 26.312V27.4353H37.1709C37.6202 27.4353 37.9197 27.4353 37.9946 27.4353C38.1444 27.4353 38.2193 27.5102 38.3691 27.5851C38.5189 27.7348 38.5937 27.8846 38.5937 28.0344C38.5937 28.1841 38.5189 28.4088 38.3691 28.5586C38.2942 28.6335 38.1444 28.7084 38.0695 28.7832C37.9198 28.7832 37.6951 28.8582 37.2458 28.8582H36.2722V29.2326V29.607H37.1709C37.5453 29.607 37.8449 29.607 37.9198 29.607C38.0695 29.607 38.1444 29.6819 38.2193 29.7568C38.3691 29.9066 38.444 30.0564 38.444 30.3559C38.444 30.5057 38.444 30.5806 38.3691 30.6554C38.1444 30.955 37.77 31.0299 37.096 31.0299H36.2722C36.2722 31.3294 36.2722 31.7039 36.2722 32.303C36.2722 32.8272 36.2722 33.2765 36.2722 33.5761L35.9727 33.8007C35.8229 33.9505 35.6731 34.0254 35.5982 34.0254C35.5233 34.0254 35.5233 34.0254 35.4485 34.0254C35.2238 33.9505 34.9991 33.8756 34.9242 33.6509C34.8494 33.4263 34.8494 33.0519 34.8494 32.3779C34.8494 31.629 34.8494 31.1797 34.7745 31.1797C34.6247 31.1797 34.2503 31.2546 33.726 31.2546L32.8274 31.3294L32.9023 32.2281C32.9023 32.6025 32.9023 32.8272 32.9023 32.8272C32.9023 33.0519 32.8274 33.2016 32.6776 33.3514C32.5278 33.5761 32.3032 33.6509 32.1534 33.6509C32.0036 33.6509 31.8539 33.5761 31.7041 33.4263C31.4794 33.2016 31.4045 32.977 31.4045 32.7523C31.4045 32.4528 31.4045 32.2281 31.3296 32.0035L31.2547 31.5541L30.431 31.629C30.2812 31.629 30.1314 31.629 29.9068 31.629C29.6821 31.629 29.4574 31.5541 29.3826 31.4792C29.2328 31.3295 29.083 31.1797 29.083 30.955C29.083 30.8052 29.1579 30.6555 29.2328 30.5057C29.3077 30.3559 29.4574 30.281 29.6821 30.2061C29.6821 30.2061 29.9817 30.2062 30.6557 30.1313L31.3296 30.0563V29.0828L30.8803 29.1577C30.6556 29.1577 30.431 29.2326 30.2812 29.2326C30.0566 29.2326 29.8319 29.1577 29.757 29.0828C29.6821 29.0079 29.6072 28.8581 29.6072 28.5586C29.6072 28.259 29.757 28.0344 29.9817 27.8846C30.2063 27.7349 30.5808 27.66 31.0301 27.5851H31.3296V26.5366C31.3296 25.8626 31.4045 25.4133 31.5543 25.2636C31.7041 25.1138 31.8539 25.0389 32.0785 25.0389C32.3032 25.0389 32.5278 25.1138 32.6776 25.3384C32.7525 25.4882 32.8274 25.5631 32.8274 25.7129C32.8274 25.8626 32.8274 26.0873 32.8274 26.5366V27.4353L33.5763 27.3604C33.9507 27.3604 34.3251 27.2855 34.6247 27.2855H34.9242V26.0873C34.9242 25.4882 34.9991 25.1138 34.9991 24.964C34.8494 25.2635 34.9242 25.1138 35.074 25.0389ZM43.5363 27.2106C43.3866 27.1357 43.2368 27.0608 43.087 27.0608C42.9372 27.0608 42.7126 27.1357 42.4879 27.2855C42.3381 27.4353 42.1135 27.7348 41.9637 28.0344C41.739 28.4088 41.6641 28.6335 41.6641 28.8582V29.1577H42.2632C42.6377 29.1577 42.9372 29.0828 43.2368 28.933C43.4614 28.7833 43.6112 28.6335 43.8359 28.4837C43.9857 28.2591 44.1354 28.1093 44.1354 28.0344C44.1354 27.8846 44.0605 27.7348 43.9857 27.5851C43.761 27.3604 43.6112 27.2855 43.5363 27.2106ZM41.3646 26.4618C41.8888 25.9375 42.4879 25.638 43.0121 25.638C43.3117 25.638 43.5363 25.7129 43.8359 25.7877C44.2103 25.9375 44.5099 26.1622 44.6596 26.3869C44.8843 26.6115 45.0341 26.986 45.1839 27.4353C45.2587 27.5851 45.2588 27.7348 45.2588 27.9595C45.2588 28.5586 45.0341 29.0828 44.5099 29.5321C43.9857 29.9815 43.3117 30.281 42.5628 30.4308C42.2632 30.5057 42.0386 30.5057 41.8888 30.5057C41.8139 30.5057 41.739 30.5057 41.6641 30.5057L41.3646 30.4308V31.1797C41.3646 31.7039 41.4395 32.0783 41.5892 32.3779C41.6641 32.6026 41.739 32.6774 41.8139 32.7523C41.8888 32.7523 41.9637 32.8272 42.1884 32.8272H42.3381C42.5628 32.8272 42.9372 32.6774 43.4614 32.3779C44.0605 32.0783 44.435 31.9285 44.5848 31.9285C44.7345 31.9285 44.8843 32.0034 44.9592 32.0783C45.109 32.2281 45.1839 32.3779 45.1839 32.5276C45.1839 32.9021 44.7345 33.3514 43.8359 33.8007C43.4614 33.9505 43.1619 34.1003 43.0121 34.1003C42.8623 34.1003 42.6377 34.1752 42.2632 34.1752C41.8888 34.1752 41.6641 34.1752 41.5892 34.1752C41.4395 34.1752 41.2897 34.0254 41.1399 33.9505C40.9153 33.8007 40.6906 33.5012 40.4659 33.0519C40.3162 32.7523 40.1664 32.5277 40.1664 32.3779C40.1664 32.2281 40.0915 31.8537 40.0915 31.2546V30.8052C40.0166 28.8581 40.4659 27.3604 41.3646 26.4618ZM49.4525 26.0124C49.8269 25.8627 50.1264 25.7877 50.5009 25.7877C50.9502 25.7877 51.3246 25.9375 51.5493 26.1622C51.8489 26.3868 51.9237 26.7613 51.9237 27.2106C51.9237 27.8846 51.774 28.2591 51.3995 28.3339C51.3246 28.3339 51.2498 28.3339 51.1749 28.3339C50.9502 28.3339 50.8004 28.2591 50.6507 28.1093C50.5009 27.9595 50.426 27.7349 50.426 27.5102C50.426 27.3604 50.426 27.2855 50.426 27.2106C50.426 27.1357 50.3511 27.1358 50.2762 27.1358C50.0516 27.1358 49.6771 27.3604 49.1529 27.7348C48.6287 28.1093 48.3291 28.4088 48.2543 28.6335C48.2543 28.7084 48.3291 28.7832 48.4789 28.7832C48.6287 28.7832 49.078 28.933 49.8269 29.0828C50.5009 29.2326 51.0251 29.3824 51.3246 29.5321C51.6242 29.6819 51.9238 29.9066 52.1484 30.1313C52.448 30.3559 52.5977 30.6555 52.7475 30.8801C52.8973 31.1048 52.8973 31.4043 52.8973 31.8537C52.8973 32.1532 52.8224 32.3779 52.7475 32.6025C52.3731 33.2765 51.5493 33.7259 50.2013 33.9505C49.8269 34.0254 49.6022 34.0254 49.4525 34.0254C49.3027 34.0254 49.078 34.0254 48.7036 33.9505C47.8049 33.7259 47.2058 33.3514 47.056 32.6025C47.056 32.4528 47.056 32.3779 47.056 32.3779C47.056 32.1532 47.1309 32.0034 47.2807 31.8537C47.4305 31.7039 47.5803 31.629 47.8049 31.629C48.1045 31.629 48.3291 31.7788 48.4789 32.0783C48.6287 32.303 48.7785 32.3779 49.078 32.4528C49.2278 32.4528 49.3776 32.5276 49.6022 32.5276C50.0516 32.5276 50.426 32.4528 50.8753 32.303C51.2498 32.1532 51.4744 31.9286 51.4744 31.7039C51.4744 31.4043 51.2498 31.1048 50.7255 30.8801C50.2762 30.6555 49.4525 30.4308 48.1045 30.281C47.5803 30.2061 47.2058 29.9815 46.9063 29.607C46.7565 29.3824 46.6816 29.1577 46.6816 28.7832C46.6816 28.4088 46.7565 28.1093 46.9063 27.8097C47.1309 27.4353 47.4305 27.1358 47.8798 26.7613C48.3291 26.5367 48.8534 26.2371 49.4525 26.0124ZM56.4919 25.4882C56.6417 25.4133 56.7914 25.4133 56.9412 25.4133C57.3157 25.4133 57.6901 25.5631 57.9897 25.8627C58.3641 26.1622 58.6636 26.5366 58.8883 27.0608C59.0381 27.4353 59.1879 27.6599 59.1879 27.8097C59.1879 27.8846 59.113 28.0344 58.8883 28.2591C58.7385 28.4837 58.5888 28.5586 58.5139 28.5586C58.2892 28.5586 57.9897 28.2591 57.6152 27.5851C57.3906 27.1357 57.1659 26.9111 57.0161 26.9111C56.8663 26.9111 56.7166 27.0609 56.4919 27.3604C55.9677 28.0344 55.743 29.0079 55.743 30.281C55.743 30.5057 55.743 30.6555 55.743 30.7304C55.8179 31.3295 55.8928 31.8537 56.0426 32.0783C56.1923 32.303 56.3421 32.4528 56.6417 32.4528C57.0161 32.4528 57.4654 32.2281 58.0645 31.8537C58.439 31.629 58.6636 31.4792 58.8134 31.4792C58.8883 31.4792 58.8883 31.4792 58.9632 31.4792C59.1878 31.5541 59.2627 31.629 59.4125 31.8537C59.4874 32.0034 59.4874 32.0783 59.4874 32.1532C59.4874 32.2281 59.4874 32.303 59.4125 32.4528C59.1879 32.8272 58.6636 33.2016 57.8399 33.5761C57.3905 33.8007 57.0161 33.8756 56.6417 33.8756C56.1923 33.8756 55.743 33.7258 55.3686 33.4263C54.9941 33.1267 54.7695 32.6774 54.5448 32.1532C54.4699 31.8536 54.395 31.2546 54.395 30.3559C54.395 29.3075 54.4699 28.4837 54.6946 27.8097C54.9193 27.1357 55.2937 26.5366 55.743 26.0873C56.0426 25.7129 56.2672 25.5631 56.4919 25.4882ZM64.3551 28.3339C64.2053 28.2591 64.1304 28.1842 64.0555 28.1842C63.9807 28.1842 63.9058 28.1842 63.756 28.2591C63.3816 28.4088 63.0071 28.7833 62.7076 29.3824C62.408 29.9066 62.2583 30.5057 62.2583 31.1048C62.2583 31.3295 62.2582 31.629 62.3331 31.9285C62.408 32.2281 62.4829 32.3779 62.5578 32.5276C62.6327 32.6025 62.6327 32.6025 62.7825 32.6025C63.082 32.6025 63.4565 32.2281 63.9058 31.5541C64.2053 31.0299 64.43 30.4308 64.6547 29.607C64.7295 29.2326 64.8044 28.933 64.8044 28.7832C64.6547 28.6335 64.5798 28.4837 64.3551 28.3339ZM63.3816 26.9111C63.6062 26.8362 63.756 26.8362 63.9807 26.8362C64.2802 26.8362 64.5798 26.9111 64.8044 27.0608C65.104 27.2106 65.3286 27.2855 65.5533 27.2855C65.778 27.2855 65.9277 27.3604 66.0775 27.5102C66.1524 27.5851 66.2273 27.7348 66.2273 27.8097C66.2273 27.8846 66.3022 28.1093 66.3022 28.4088C66.3022 29.2326 66.3771 30.1313 66.452 31.1048C66.5268 32.0783 66.6766 32.7523 66.7515 33.0519C66.7515 33.1267 66.7515 33.2016 66.7515 33.2765C66.7515 33.5012 66.6766 33.651 66.5268 33.7259C66.3771 33.8756 66.2273 33.9505 66.0026 33.9505C65.9277 33.9505 65.8529 33.9505 65.778 33.8756C65.6282 33.8008 65.4784 33.651 65.4035 33.3514C65.2538 33.1268 65.1789 32.8272 65.1789 32.4528C65.1789 32.1532 65.104 32.0035 65.0291 32.0035C64.9542 32.0035 64.8044 32.1532 64.5798 32.5276C64.2802 32.977 63.9058 33.3514 63.6062 33.5761C63.3067 33.8007 62.9322 33.8756 62.4829 33.8756H62.2583C62.1085 33.8756 61.8838 33.7259 61.5843 33.5012C61.2847 33.2765 61.1349 33.0519 61.06 32.8272C60.8354 32.303 60.7605 31.7039 60.7605 31.0299C60.7605 30.8052 60.7605 30.5806 60.8354 30.3559C60.9852 29.5322 61.2847 28.7833 61.8089 28.1093C62.3331 27.5102 62.8574 27.0608 63.3816 26.9111ZM72.3681 27.9595C72.2183 27.8097 72.1434 27.7348 72.0685 27.7348C71.9936 27.7348 71.9188 27.7348 71.769 27.8097C71.3945 27.9595 71.095 28.3339 70.7954 28.933C70.6457 29.2326 70.4959 29.607 70.3461 30.2061C70.1963 30.7303 70.1215 31.1048 70.1215 31.3294C70.1215 31.4043 70.1214 31.4792 70.1963 31.4792C70.1963 31.4792 70.3461 31.4792 70.4959 31.4792C71.1699 31.3295 71.769 31.1048 72.2183 30.7304C72.6676 30.281 72.8923 29.9066 72.8923 29.3824C72.8923 29.1577 72.8174 28.9331 72.7425 28.6335C72.5928 28.334 72.5179 28.1093 72.3681 27.9595ZM71.4694 26.3869C71.6192 26.312 71.769 26.312 71.9936 26.312C72.443 26.312 72.8923 26.4618 73.2667 26.8362C73.6412 27.1357 73.9407 27.5851 74.0905 28.1093C74.1654 28.4088 74.2403 28.7833 74.2403 29.2326V29.4573C74.2403 29.9815 74.1654 30.3559 74.0156 30.7304C73.7161 31.3295 73.2667 31.8537 72.5928 32.303C71.9188 32.6774 71.2448 32.977 70.3461 33.0519L69.8219 33.1268V34.999V36.8712L69.5224 37.1707C69.2977 37.3205 69.1479 37.4702 69.073 37.4702C68.9232 37.4702 68.7735 37.3953 68.6237 37.1707C68.4739 36.946 68.3241 36.7962 68.3241 36.6465V36.1971C68.3241 34.9989 68.3242 33.3514 68.2493 31.1797C68.2493 29.0079 68.1744 27.8846 68.1744 27.7348C68.1744 27.66 68.1744 27.5851 68.1744 27.5102C68.1744 27.3604 68.2493 27.2855 68.399 27.0608C68.6237 26.8362 68.7735 26.7613 68.8484 26.7613C68.9981 26.7613 69.1479 26.8362 69.2977 27.0608C69.4475 27.2106 69.5972 27.3604 69.5972 27.5102C69.5972 27.66 69.5972 27.7348 69.6721 27.7348C69.747 27.7348 69.8219 27.66 69.8968 27.5102C70.0466 27.3604 70.1963 27.1357 70.4959 26.986C70.9452 26.6115 71.2448 26.4618 71.4694 26.3869ZM79.108 27.2106C78.9582 27.1357 78.8084 27.0608 78.6586 27.0608C78.5089 27.0608 78.2842 27.1357 78.0595 27.2855C77.9098 27.4353 77.6851 27.7348 77.5353 28.0344C77.3107 28.4088 77.2358 28.6335 77.2358 28.8582V29.1577H77.8349C78.2093 29.1577 78.5089 29.0828 78.8084 28.933C79.0331 28.7833 79.1829 28.6335 79.4075 28.4837C79.5573 28.2591 79.7071 28.1093 79.7071 28.0344C79.7071 27.8846 79.6322 27.7348 79.5573 27.5851C79.3326 27.3604 79.1829 27.2855 79.108 27.2106ZM76.9362 26.4618C77.4604 25.9375 78.0596 25.638 78.5838 25.638C78.8833 25.638 79.108 25.7129 79.4075 25.7877C79.782 25.9375 80.0815 26.1622 80.2313 26.3869C80.456 26.6115 80.6057 26.986 80.7555 27.4353C80.8304 27.5851 80.8304 27.7348 80.8304 27.9595C80.8304 28.5586 80.6057 29.0828 80.0815 29.5321C79.5573 29.9815 78.8833 30.281 78.1344 30.4308C77.8349 30.5057 77.6102 30.5057 77.4604 30.5057C77.3856 30.5057 77.3107 30.5057 77.2358 30.5057L76.9362 30.4308V31.1797C76.9362 31.7039 77.0111 32.0783 77.1609 32.3779C77.2358 32.6026 77.3107 32.6774 77.3856 32.7523C77.4604 32.7523 77.5353 32.8272 77.76 32.8272H77.9098C78.1344 32.8272 78.5089 32.6774 79.0331 32.3779C79.6322 32.0783 80.0066 31.9285 80.1564 31.9285C80.3062 31.9285 80.456 32.0034 80.5308 32.0783C80.6806 32.2281 80.7555 32.3779 80.7555 32.5276C80.7555 32.9021 80.3062 33.3514 79.4075 33.8007C79.0331 33.9505 78.7335 34.1003 78.5838 34.1003C78.434 34.1003 78.2093 34.1752 77.8349 34.1752C77.4604 34.1752 77.2358 34.1752 77.1609 34.1752C77.0111 34.1752 76.8613 34.0254 76.7116 33.9505C76.4869 33.8007 76.2622 33.5012 76.0376 33.0519C75.8878 32.7523 75.738 32.5277 75.738 32.3779C75.738 32.2281 75.6631 31.8537 75.6631 31.2546V30.8052C75.5883 28.8581 76.0376 27.3604 76.9362 26.4618ZM84.7246 24.2151C84.7246 24.0653 84.8743 23.9904 85.0241 23.9156C85.1739 23.8407 85.3237 23.7658 85.4734 23.7658C85.773 23.7658 85.9976 23.9156 86.1474 24.1403C86.2223 24.2151 86.2223 24.3649 86.2223 24.4398C86.2223 24.5147 86.2223 24.5896 86.1474 24.7393C86.0725 24.964 86.0725 25.2636 85.9976 25.638V26.1622L86.5219 26.0873C86.5967 26.0873 86.6716 26.0873 86.8214 26.0873C86.9712 26.0873 87.121 26.1622 87.2707 26.2371C87.4205 26.3869 87.4954 26.5367 87.4954 26.7613C87.4954 26.8362 87.4954 26.986 87.4205 27.0608C87.3456 27.2855 86.9712 27.4353 86.3721 27.5102L85.8479 27.5851L85.773 28.1093C85.6232 29.607 85.5483 31.1048 85.5483 32.6774C85.5483 33.3514 85.5483 33.7259 85.5483 33.8756C85.5483 34.0254 85.4734 34.1752 85.3237 34.2501C85.1739 34.3999 85.0241 34.4747 84.8743 34.4747C84.7246 34.4747 84.5748 34.3999 84.425 34.2501C84.2752 34.1752 84.2003 34.0254 84.2003 33.9505C84.2003 33.8007 84.1255 33.5012 84.1255 32.977V32.6025C84.1255 32.0034 84.1255 31.1048 84.2003 30.0563C84.2752 29.0079 84.2752 28.3339 84.3501 28.0344L84.425 27.7348L83.9008 27.8097C83.5263 27.8846 83.2268 27.8846 83.0021 27.9595C82.9272 27.9595 82.9272 27.9595 82.7775 27.9595C82.6277 27.9595 82.4779 27.8846 82.403 27.7348C82.2533 27.5851 82.1784 27.3604 82.1784 27.1358C82.1784 26.8362 82.2533 26.6864 82.403 26.6115C82.5528 26.5366 82.9272 26.4618 83.5263 26.3869C84.1254 26.312 84.425 26.312 84.4999 26.312C84.4999 26.312 84.5748 26.0124 84.5748 25.3384C84.7246 24.6644 84.7246 24.29 84.7246 24.2151ZM92.6626 27.8097C92.3631 27.6599 92.1384 27.5851 91.9138 27.5851C91.764 27.5851 91.6142 27.585 91.5393 27.6599C91.3895 27.7348 91.3147 27.8097 91.1649 27.9595C91.0151 28.1093 90.9402 28.2591 90.9402 28.3339C90.9402 28.4088 90.8653 28.6335 90.7156 29.0079C90.5658 29.3824 90.4909 29.8317 90.4909 30.5057C90.4909 30.5806 90.4909 30.7304 90.4909 30.8801C90.4909 31.7039 90.7156 32.303 91.09 32.6774C91.2398 32.8272 91.5393 32.977 91.8389 32.977C92.0635 32.977 92.2133 32.977 92.2882 32.9021C92.3631 32.8272 92.5129 32.7523 92.7375 32.5276C92.8873 32.3779 92.9622 32.303 93.0371 32.1532C93.112 32.0034 93.1869 31.9286 93.1869 31.8537C93.1869 31.7788 93.2617 31.7039 93.2617 31.5541C93.3366 31.4043 93.3366 31.2546 93.4115 31.1048C93.4864 30.8801 93.5613 30.5057 93.5613 30.1313C93.5613 30.0564 93.5613 29.9815 93.5613 29.9066C93.5613 29.8317 93.5613 29.6819 93.5613 29.607C93.5613 28.9331 93.4864 28.4837 93.3366 28.2591C93.2617 28.1842 93.0371 27.9595 92.6626 27.8097ZM91.4644 26.1622C91.6142 26.1622 91.764 26.1622 91.8389 26.1622C92.2882 26.1622 92.6626 26.2371 93.1869 26.4618C93.6362 26.6864 94.0106 26.9111 94.3102 27.1358C94.6097 27.5102 94.8344 27.8097 94.9093 28.1842C94.9842 28.5586 95.0591 29.1577 95.0591 29.9066C95.0591 30.5806 95.0591 30.955 94.9842 31.1797C94.9842 31.4043 94.9093 31.629 94.7595 31.9285C94.5348 32.3779 94.3851 32.7523 94.3102 32.9021C94.1604 33.1267 94.1604 33.2016 94.1604 33.2765C94.1604 33.3514 94.0106 33.5012 93.7111 33.7259C93.4115 33.9505 93.1869 34.1003 92.9622 34.2501C92.6626 34.3999 92.2882 34.4747 91.9138 34.4747C91.4644 34.4747 91.0151 34.325 90.5658 34.1003C90.1165 33.8756 89.8169 33.5012 89.5923 33.0519C89.2927 32.3779 89.068 31.629 89.068 30.8052C89.068 30.5057 89.068 30.0564 89.1429 29.607C89.2178 28.9331 89.4425 28.3339 89.8169 27.6599C90.0416 27.2106 90.2662 26.8362 90.4909 26.6115C90.7156 26.4618 91.09 26.312 91.4644 26.1622ZM97.6801 23.616C98.1294 23.616 98.6537 23.616 99.1779 23.5411C99.7021 23.4662 100.077 23.4662 100.376 23.4662H100.601C100.9 23.4662 101.125 23.5411 101.275 23.6909C101.424 23.8407 101.499 23.9905 101.499 24.1403C101.499 24.29 101.424 24.4398 101.275 24.5896C101.2 24.6644 101.05 24.7393 100.825 24.8142C100.601 24.8142 100.151 24.8891 99.4025 24.964L97.6801 25.1138L97.755 26.0873C97.755 26.6115 97.8299 27.0609 97.8299 27.3604V27.6599H98.8783C98.9532 27.6599 99.103 27.6599 99.1779 27.6599C99.3277 27.6599 99.4025 27.6599 99.4774 27.6599C100.002 27.6599 100.376 27.7348 100.601 27.9595C100.751 28.1093 100.751 28.2591 100.751 28.4837C100.751 28.7084 100.676 28.8581 100.601 28.933C100.526 29.0079 100.002 29.0828 99.103 29.0828C98.2043 29.0828 97.755 29.1577 97.6801 29.2326C97.6052 29.3075 97.6052 29.5322 97.6052 29.9815C97.6052 30.2061 97.6052 30.4308 97.6052 30.5806C97.6052 31.4043 97.6801 31.8537 97.8299 31.9285C97.9797 32.0783 98.2792 32.1532 98.8034 32.1532C99.1779 32.1532 99.4774 32.1532 99.777 32.0783C100.151 32.0034 100.451 31.8536 100.751 31.7788C100.9 31.7039 101.05 31.7039 101.125 31.7039C101.275 31.7039 101.499 31.8537 101.649 32.0783C101.724 32.2281 101.799 32.303 101.799 32.3779C101.799 32.4528 101.799 32.5277 101.724 32.6025C101.574 32.9021 101.05 33.1268 100.151 33.3514C99.7021 33.5012 99.2528 33.5012 98.8034 33.5012C97.6801 33.5012 96.8564 33.1268 96.4819 32.3779C96.3321 32.1532 96.3321 31.7788 96.3321 31.2546C96.3321 30.7304 96.3321 30.281 96.3321 29.8317C96.3321 27.8846 96.3321 26.6864 96.3321 26.312C96.3321 25.3384 96.3321 24.7393 96.2572 24.4398C96.2572 24.3649 96.2572 24.29 96.2572 24.2151C96.2572 24.0653 96.3321 23.9905 96.407 23.8407C96.5568 23.6909 96.9312 23.616 97.6801 23.616ZM106.442 22.942C106.816 22.8671 107.116 22.7922 107.191 22.7922C107.266 22.7922 107.416 22.8671 107.79 22.942C108.689 23.1667 109.213 23.6909 109.363 24.5147C109.363 24.5896 109.363 24.6645 109.363 24.7393C109.363 24.964 109.288 25.1138 109.138 25.2636C108.988 25.4133 108.838 25.4882 108.689 25.4882C108.389 25.4882 108.164 25.3384 108.015 24.964C107.865 24.6644 107.79 24.5147 107.715 24.4398C107.64 24.3649 107.49 24.29 107.266 24.29C106.966 24.29 106.667 24.3649 106.292 24.5896C105.918 24.7393 105.618 24.964 105.394 25.2636C104.869 25.8627 104.57 26.312 104.57 26.6864C104.57 26.9111 104.645 27.0609 104.869 27.1358C105.019 27.2106 105.468 27.2855 106.217 27.3604C108.239 27.5102 109.587 27.9595 110.336 28.7832C110.785 29.2326 111.01 29.8317 111.01 30.5057C111.01 31.4044 110.636 32.2281 109.887 32.977C108.838 33.9505 107.79 34.4747 106.592 34.4747C105.993 34.4747 105.468 34.325 105.019 34.1003C104.57 33.8756 104.27 33.5761 104.046 33.1268C103.896 32.9021 103.896 32.6774 103.896 32.4528C103.896 32.2281 103.971 32.0783 104.046 31.9285C104.195 31.7788 104.345 31.7039 104.495 31.7039C104.794 31.7039 105.019 31.9286 105.244 32.3779C105.468 32.8272 105.918 33.0519 106.517 33.0519C106.891 33.0519 107.191 32.977 107.416 32.9021C107.64 32.8272 108.015 32.6026 108.389 32.3779C109.138 31.8537 109.587 31.3295 109.662 30.7304C109.662 30.5806 109.662 30.5057 109.662 30.4308C109.662 29.4572 108.539 28.8582 106.217 28.6335C105.394 28.5586 104.794 28.4837 104.57 28.4088C104.27 28.3339 103.971 28.1842 103.746 27.8846C103.372 27.5851 103.222 27.1357 103.222 26.6864C103.222 25.7878 103.671 24.8891 104.57 24.0653C105.169 23.4662 105.768 23.1667 106.442 22.942ZM114.68 24.5147C114.904 24.3649 115.129 24.3649 115.503 24.3649C115.803 24.3649 116.028 24.4398 116.177 24.5147C116.776 24.8142 117.151 25.4882 117.151 26.4618C117.151 26.7613 117.151 26.9111 117.076 27.0608C117.076 27.1357 117.001 27.2855 116.926 27.3604C116.776 27.5102 116.627 27.5851 116.552 27.5851C116.402 27.5851 116.252 27.5102 116.102 27.3604C115.953 27.2106 115.878 27.1357 115.878 27.0608C115.878 26.986 115.878 26.7613 115.878 26.5366C115.878 26.1622 115.803 26.0124 115.728 25.9375C115.503 25.9375 115.279 26.1622 114.979 26.5366C114.68 26.9859 114.455 27.3604 114.305 27.8846C114.155 28.334 114.081 28.9331 114.081 29.7568C114.081 30.281 114.081 30.6555 114.081 30.8052C114.081 30.955 114.155 31.1048 114.23 31.3294C114.455 31.7788 114.68 32.0035 114.979 32.0035C115.204 32.0035 115.503 31.9286 115.803 31.7039C116.028 31.5541 116.252 31.4792 116.402 31.4792C116.552 31.4792 116.702 31.5541 116.851 31.7039C117.001 31.8537 117.001 32.0034 117.001 32.1532C117.001 32.303 116.926 32.4528 116.851 32.6025C116.776 32.7523 116.552 32.9021 116.177 33.1268C115.803 33.3514 115.354 33.4263 114.979 33.4263H114.904C114.38 33.4263 114.006 33.2765 113.706 33.0519C113.407 32.8272 113.182 32.4528 112.957 31.8537C112.733 31.3295 112.658 30.7303 112.658 29.9066C112.658 28.6335 112.882 27.5851 113.332 26.6115C113.556 26.2371 113.781 25.8627 114.081 25.4882C114.155 24.8891 114.455 24.6645 114.68 24.5147ZM122.468 26.1622C122.393 25.9375 122.318 25.7877 122.318 25.7877C122.243 25.7877 122.168 25.8626 122.019 26.0873C121.944 26.312 121.794 26.6115 121.644 26.9111C121.494 27.2855 121.42 27.4353 121.42 27.4353C121.345 27.6599 121.27 27.8097 121.27 27.9595C121.27 28.0344 121.27 28.1093 121.345 28.1842C121.42 28.1842 121.644 28.2591 122.019 28.2591C122.318 28.2591 122.543 28.2591 122.618 28.2591H122.767C122.767 28.2591 122.767 27.9595 122.618 27.3604C122.618 26.8362 122.543 26.4617 122.468 26.1622ZM121.794 24.1403C121.944 24.0654 122.093 23.9905 122.243 23.9905C122.543 23.9905 122.767 24.0653 123.067 24.29C123.441 24.6644 123.741 25.4133 123.966 26.5366C124.19 27.6599 124.415 29.3824 124.565 31.7788C124.64 32.4527 124.64 32.9021 124.64 33.2765C124.64 33.5012 124.64 33.7258 124.565 33.8007C124.415 34.0254 124.265 34.1003 123.966 34.1003C123.666 34.1003 123.516 34.0254 123.441 33.8007C123.367 33.651 123.292 32.977 123.142 31.7788C123.067 30.5806 122.992 29.9066 122.992 29.9066C122.992 29.9066 122.693 29.9066 122.019 29.8317C121.42 29.7568 121.045 29.7568 120.82 29.7568H120.746C120.746 29.7568 120.596 30.1312 120.446 30.6554L120.072 32.0783C119.997 32.4528 119.922 32.9021 119.922 33.2765C119.922 33.6509 119.847 33.9505 119.772 34.1003C119.697 34.2501 119.547 34.325 119.323 34.325C119.098 34.325 118.948 34.25 118.798 34.0254C118.649 33.8756 118.574 33.651 118.574 33.4263C118.574 33.1267 118.724 32.3779 118.948 31.2546C119.248 30.1313 119.547 29.0828 119.847 28.0344C120.521 25.8626 121.195 24.5896 121.794 24.1403ZM130.481 25.2636C130.256 25.1138 130.106 25.1138 129.882 25.1138C129.507 25.1138 129.133 25.3384 128.759 25.7129C128.459 26.0873 128.159 26.6864 128.01 27.3604C127.935 27.7348 127.86 27.9595 127.86 28.1093C127.86 28.1842 127.86 28.2591 127.935 28.3339C128.01 28.3339 128.085 28.4088 128.159 28.4088C128.309 28.4837 128.459 28.4837 128.684 28.4837C129.058 28.4837 129.507 28.4088 129.957 28.1842C130.406 27.9595 130.78 27.7349 131.005 27.5102C131.23 27.2855 131.305 27.0608 131.305 26.9111C131.305 26.8362 131.305 26.7613 131.305 26.6864C131.23 26.0124 130.93 25.5631 130.481 25.2636ZM129.283 23.7658C129.432 23.7658 129.582 23.6909 129.807 23.6909C130.631 23.6909 131.38 23.9905 131.829 24.5896C132.054 24.8891 132.278 25.1887 132.503 25.638C132.728 26.0873 132.802 26.4618 132.802 26.7613C132.802 27.2855 132.578 27.8846 132.054 28.4088C131.529 28.933 130.93 29.3075 130.181 29.607C129.732 29.7568 129.208 29.8317 128.609 29.8317C128.384 29.8317 128.159 29.8317 128.085 29.7568L127.86 29.6819V31.3294C127.86 32.2281 127.785 32.8272 127.71 33.1268C127.635 33.4263 127.485 33.5761 127.261 33.6509C127.261 33.6509 127.261 33.6509 127.186 33.6509H127.111C126.811 33.6509 126.512 33.4263 126.362 33.0519C126.287 32.9021 126.212 32.1532 126.137 30.8052C126.063 29.4572 126.063 28.1093 126.063 26.6864C126.063 25.638 126.063 24.8142 126.137 24.2151C126.137 24.1402 126.212 23.9904 126.362 23.9156C126.512 23.7658 126.662 23.7658 126.737 23.7658C126.886 23.7658 127.036 23.8407 127.186 23.9905C127.336 24.1402 127.411 24.3649 127.411 24.7393C127.411 25.1138 127.411 25.2636 127.485 25.2636C127.56 25.2636 127.71 25.1138 127.935 24.8142C128.159 24.29 128.684 23.9156 129.283 23.7658ZM135.498 23.616C135.948 23.616 136.472 23.616 136.996 23.5411C137.52 23.4662 137.895 23.4662 138.194 23.4662H138.419C138.719 23.4662 138.943 23.5411 139.093 23.6909C139.243 23.8407 139.318 23.9905 139.318 24.1403C139.318 24.29 139.243 24.4398 139.093 24.5896C139.018 24.6644 138.868 24.7393 138.644 24.8142C138.419 24.8142 137.97 24.8891 137.221 24.964L135.498 25.1138L135.573 26.0873C135.573 26.6115 135.648 27.0609 135.648 27.3604V27.6599H136.697C136.771 27.6599 136.921 27.6599 136.996 27.6599C137.146 27.6599 137.221 27.6599 137.296 27.6599C137.82 27.6599 138.194 27.7348 138.419 27.9595C138.569 28.1093 138.569 28.2591 138.569 28.4837C138.569 28.7084 138.494 28.8581 138.419 28.933C138.344 29.0079 137.82 29.0828 136.921 29.0828C136.023 29.0828 135.573 29.1577 135.498 29.2326C135.424 29.3075 135.424 29.5322 135.424 29.9815C135.424 30.2061 135.424 30.4308 135.424 30.5806C135.424 31.4043 135.498 31.8537 135.648 31.9285C135.798 32.0783 136.098 32.1532 136.622 32.1532C136.996 32.1532 137.296 32.1532 137.595 32.0783C137.97 32.0034 138.269 31.8536 138.569 31.7788C138.719 31.7039 138.868 31.7039 138.943 31.7039C139.093 31.7039 139.318 31.8537 139.467 32.0783C139.542 32.2281 139.617 32.303 139.617 32.3779C139.617 32.4528 139.617 32.5277 139.542 32.6025C139.393 32.9021 138.868 33.1268 137.97 33.3514C137.52 33.5012 137.071 33.5012 136.622 33.5012C135.498 33.5012 134.675 33.1268 134.3 32.3779C134.15 32.1532 134.15 31.7788 134.15 31.2546C134.15 30.7304 134.15 30.281 134.15 29.8317C134.15 27.8846 134.15 26.6864 134.15 26.312C134.15 25.3384 134.15 24.7393 134.076 24.4398C134.076 24.3649 134.076 24.29 134.076 24.2151C134.076 24.0653 134.15 23.9905 134.225 23.8407C134.3 23.6909 134.75 23.616 135.498 23.616Z" fill="white"/>
<path d="M17.5497 15.2286H9.68652V22.2681H17.5497V15.2286Z" fill="#1471D0" stroke="#043866" stroke-miterlimit="10" stroke-linecap="round"/>
<path d="M17.5497 37.5452H9.68652V44.5846H17.5497V37.5452Z" fill="#1471D0" stroke="#043866" stroke-miterlimit="10" stroke-linecap="round"/>
<path d="M9.23764 1H1V125.314H9.23764V1Z" fill="#F9B84E" stroke="#043866" stroke-miterlimit="10" stroke-linecap="round"/>
</svg>
