<svg width="1647" height="842" viewBox="0 0 1647 842" fill="none" xmlns="http://www.w3.org/2000/svg">
<g id="prompt-bg">
<path id="forest2" d="M1652.67 269.268H1652.67C1679.4 269.268 1705.04 279.872 1723.95 298.747C1742.86 317.622 1753.49 343.224 1753.5 369.925C1753.49 393.559 1745.17 416.438 1729.97 434.559C1714.78 452.68 1693.7 464.888 1670.4 469.048L1669.99 469.121V469.54V691.5H1239.97L1306.45 576.744L1305.73 576.084C1290.33 586.832 1272.12 592.838 1253.33 593.36C1234.55 593.882 1216.03 588.898 1200.06 579.022C1184.08 569.146 1171.35 554.812 1163.44 537.791C1155.53 520.77 1152.78 501.807 1155.54 483.244C1158.3 464.682 1166.45 447.334 1178.97 433.342C1191.49 419.351 1207.84 409.33 1226 404.517C1244.16 399.704 1263.33 400.311 1281.15 406.261C1298.97 412.211 1314.65 423.245 1326.26 437.999L1326.76 438.628L1327.1 437.908C1332.25 427.278 1340.29 418.311 1350.31 412.038C1360.32 405.764 1371.9 402.437 1383.72 402.439C1387.17 402.447 1390.62 402.732 1394.02 403.291L1395.08 403.465L1394.53 402.543C1385.87 387.946 1381.31 371.288 1381.33 354.321V354.321C1381.33 341.864 1383.79 329.529 1388.57 318.023C1393.35 306.516 1400.35 296.062 1409.17 287.258C1417.99 278.454 1428.47 271.472 1439.99 266.712C1451.52 261.952 1463.87 259.507 1476.34 259.515H1476.34C1499.74 259.488 1522.32 268.122 1539.71 283.749L1540.49 284.446L1540.55 283.405C1541.24 271.004 1546.65 259.338 1555.69 250.801C1564.72 242.265 1576.68 237.505 1589.11 237.5C1599.24 237.512 1609.11 240.678 1617.34 246.556C1625.58 252.434 1631.78 260.733 1635.07 270.295L1635.21 270.695L1635.63 270.626C1641.26 269.691 1646.96 269.237 1652.67 269.268Z" fill="#D2D9A5" stroke="#043866"/>
<path id="forest2_2" d="M497.143 541.717L497.07 542.28L497.638 542.282C517.245 542.334 536.032 550.168 549.878 564.066C563.724 577.963 571.5 596.79 571.5 616.418C571.5 631.088 567.153 645.429 559.008 657.626C550.863 669.822 539.287 679.326 525.745 684.935L525.437 685.063V685.397V916.5H-20.516V588.42V587.839L-21.0909 587.926C-25.6522 588.617 -30.2589 588.964 -34.872 588.963C-46.7735 588.963 -58.5583 586.617 -69.5537 582.057C-80.5492 577.498 -90.5399 570.816 -98.9555 562.392C-115.952 545.379 -125.5 522.304 -125.5 498.243C-125.5 474.181 -115.952 451.105 -98.9564 434.089C-81.9607 417.074 -58.9092 407.513 -34.872 407.509H-34.8717C-22.6437 407.498 -10.5407 409.971 0.70459 414.779C11.9499 419.587 22.1035 426.63 30.5506 435.48L31.2515 436.214L31.4064 435.211C33.0883 424.321 38.6071 414.393 46.9649 407.222C55.3226 400.05 65.9677 396.109 76.9756 396.11H76.9767C84.071 396.096 91.0727 397.723 97.4347 400.866C103.797 404.008 109.347 408.581 113.651 414.226L114.087 414.797L114.471 414.19C126.858 394.665 143.973 378.588 164.226 367.454C184.479 356.319 207.214 350.488 230.32 350.5C258.792 350.517 286.554 359.394 309.763 375.902C332.972 392.41 350.479 415.733 359.862 442.642L360.046 443.171L360.551 442.927C376.105 435.431 393.392 432.279 410.587 433.806C427.782 435.333 444.246 441.481 458.239 451.601C472.231 461.721 483.233 475.437 490.081 491.299C496.929 507.162 499.369 524.581 497.143 541.717Z" fill="#D2D9A5" stroke="#043866"/>
<g id="tree">
<path id="Vector" d="M244.977 585.774C238.596 578.822 236.521 568.653 240.567 560.144C243.317 554.437 244.044 548.004 242.746 541.83C241.398 535.656 238.077 530.104 233.252 526.005C231.177 524.241 229.724 521.855 229.049 519.209C228.375 516.563 228.531 513.761 229.516 511.219C230.398 508.884 230.762 506.342 230.554 503.851C230.347 501.361 229.62 498.922 228.375 496.743C227.13 494.564 225.418 492.697 223.394 491.192C221.319 489.739 218.984 488.753 216.546 488.287C214.055 487.82 211.513 487.923 209.126 488.598C206.688 489.22 204.457 490.414 202.485 492.022C200.566 493.63 199.009 495.654 197.92 497.937C196.83 500.22 196.311 502.71 196.311 505.2C196.311 507.639 196.83 510.077 197.868 512.308C200.255 517.548 198.906 523.515 194.807 527.562C190.656 531.661 187.906 536.953 186.817 542.712C185.779 548.471 186.506 554.385 188.944 559.677C190.916 563.932 191.538 568.653 190.864 573.219C190.137 577.836 188.114 582.142 184.949 585.567C177.997 593.038 174.106 602.792 174.002 613.013C173.794 634.752 191.279 653.326 212.966 654.363C221.059 654.778 229.101 652.703 236.054 648.552C243.006 644.35 248.557 638.176 251.982 630.86C255.406 623.493 256.599 615.296 255.354 607.254C254.057 599.212 250.477 591.741 244.977 585.774Z" fill="#5A8A15" stroke="#043866" stroke-miterlimit="10" stroke-linecap="round"/>
<g id="Vector_2">
<path d="M215 535L215 734Z" fill="#5A8A15"/>
<path d="M215 535L215 734" stroke="#043866" stroke-miterlimit="10" stroke-linecap="round"/>
</g>
<g id="Vector_3">
<path d="M214.834 633.091L192.316 610.522Z" fill="#5A8A15"/>
<path d="M214.834 633.091L192.316 610.522" stroke="#043866" stroke-miterlimit="10" stroke-linecap="round"/>
</g>
<g id="Vector_4">
<path d="M214.833 605.075L228.323 591.585Z" fill="#5A8A15"/>
<path d="M214.833 605.075L228.323 591.585" stroke="#043866" stroke-miterlimit="10" stroke-linecap="round"/>
</g>
<g id="Vector_5">
<path d="M214.832 556.201L202.899 544.268Z" fill="#5A8A15"/>
<path d="M214.832 556.201L202.899 544.268" stroke="#043866" stroke-miterlimit="10" stroke-linecap="round"/>
</g>
<g id="Vector_6">
<path d="M214.833 556.201L228.167 542.867Z" fill="#5A8A15"/>
<path d="M214.833 556.201L228.167 542.867" stroke="#043866" stroke-miterlimit="10" stroke-linecap="round"/>
</g>
</g>
<g id="tree_2">
<path id="Vector_7" d="M451.844 612.685C454.688 607.175 456.199 600.955 456.021 594.734C455.577 575.183 439.581 558.831 420.03 558.032C413.454 557.765 406.966 559.187 401.19 562.208C395.325 565.23 390.437 569.762 386.882 575.272C383.327 580.782 381.283 587.091 381.017 593.668C380.661 600.244 382.083 606.731 385.016 612.596C390.081 622.372 387.949 634.547 379.595 641.656C372.841 647.344 367.331 654.453 363.688 662.54C359.955 670.538 358.089 679.336 358.178 688.223C358.444 719.771 383.772 746.342 415.231 748.031C427.85 748.742 440.381 745.454 451.045 738.611C461.709 731.768 469.973 721.815 474.595 709.995C479.216 698.265 480.104 685.29 476.994 673.027C473.884 660.763 467.041 649.743 457.265 641.656C449.001 634.369 446.868 622.372 451.844 612.685Z" fill="#50741C" stroke="#043866" stroke-miterlimit="10" stroke-linecap="round"/>
<path id="Vector_8" d="M418 590L418 817" stroke="#043866" stroke-miterlimit="10" stroke-linecap="round"/>
<path id="Vector_9" d="M418.518 714.083L449.355 683.246" stroke="#043866" stroke-miterlimit="10" stroke-linecap="round"/>
<path id="Vector_10" d="M418.521 678.092L396.215 655.786" stroke="#043866" stroke-miterlimit="10" stroke-linecap="round"/>
<path id="Vector_11" d="M418.518 614.374L434.247 598.644" stroke="#043866" stroke-miterlimit="10" stroke-linecap="round"/>
</g>
<g id="tree_3">
<path id="Vector_12" d="M1560.66 475.954C1554.39 469.131 1552.36 459.152 1556.33 450.801C1559.03 445.2 1559.74 438.887 1558.47 432.828C1557.14 426.768 1553.88 421.32 1549.15 417.298C1547.11 415.567 1545.69 413.224 1545.02 410.628C1544.36 408.031 1544.52 405.281 1545.48 402.787C1546.35 400.495 1546.7 398 1546.5 395.556C1546.3 393.112 1545.58 390.719 1544.36 388.581C1543.14 386.442 1541.46 384.609 1539.47 383.133C1537.44 381.707 1535.15 380.739 1532.75 380.281C1530.31 379.823 1527.81 379.925 1525.47 380.587C1523.08 381.198 1520.89 382.369 1518.96 383.947C1517.07 385.526 1515.54 387.511 1514.47 389.752C1513.41 391.992 1512.9 394.436 1512.9 396.88C1512.9 399.273 1513.41 401.666 1514.42 403.856C1516.77 408.998 1515.44 414.854 1511.42 418.825C1507.35 422.848 1504.65 428.041 1503.58 433.693C1502.56 439.345 1503.27 445.149 1505.67 450.343C1507.6 454.518 1508.21 459.152 1507.55 463.632C1506.84 468.164 1504.85 472.39 1501.75 475.751C1494.92 483.083 1491.1 492.655 1491 502.686C1490.8 524.02 1507.96 542.248 1529.24 543.266C1537.18 543.674 1545.08 541.637 1551.9 537.564C1558.72 533.439 1564.17 527.38 1567.53 520.201C1570.89 512.971 1572.06 504.926 1570.84 497.034C1569.57 489.142 1566.05 481.81 1560.66 475.954Z" fill="#5A8A15" stroke="#043866" stroke-miterlimit="10" stroke-linecap="round"/>
<g id="Vector_13">
<path d="M1531.07 425.801V603.756Z" fill="#5A8A15"/>
<path d="M1531.07 425.801V603.756" stroke="#043866" stroke-miterlimit="10" stroke-linecap="round"/>
</g>
<g id="Vector_14">
<path d="M1531.07 522.39L1508.98 500.242Z" fill="#5A8A15"/>
<path d="M1531.07 522.39L1508.98 500.242" stroke="#043866" stroke-miterlimit="10" stroke-linecap="round"/>
</g>
<g id="Vector_15">
<path d="M1531.07 494.895L1544.31 481.657Z" fill="#5A8A15"/>
<path d="M1531.07 494.895L1544.31 481.657" stroke="#043866" stroke-miterlimit="10" stroke-linecap="round"/>
</g>
<g id="Vector_16">
<path d="M1531.07 446.932L1519.36 435.221Z" fill="#5A8A15"/>
<path d="M1531.07 446.932L1519.36 435.221" stroke="#043866" stroke-miterlimit="10" stroke-linecap="round"/>
</g>
<g id="Vector_17">
<path d="M1531.07 446.932L1544.16 433.846Z" fill="#5A8A15"/>
<path d="M1531.07 446.932L1544.16 433.846" stroke="#043866" stroke-miterlimit="10" stroke-linecap="round"/>
</g>
</g>
<g id="tree_4">
<path id="Vector_18" d="M1497.03 475.771C1499 471.966 1500.04 467.669 1499.92 463.372C1499.61 449.868 1488.56 438.574 1475.06 438.022C1470.51 437.838 1466.03 438.82 1462.04 440.907C1457.99 442.994 1454.62 446.124 1452.16 449.93C1449.71 453.736 1448.29 458.094 1448.11 462.636C1447.86 467.178 1448.85 471.659 1450.87 475.71C1454.37 482.462 1452.9 490.871 1447.13 495.782C1442.46 499.71 1438.66 504.621 1436.14 510.206C1433.56 515.731 1432.27 521.808 1432.34 527.946C1432.52 549.736 1450.01 568.089 1471.74 569.255C1480.46 569.746 1489.11 567.475 1496.48 562.749C1503.84 558.023 1509.55 551.148 1512.74 542.984C1515.94 534.882 1516.55 525.92 1514.4 517.449C1512.25 508.979 1507.53 501.368 1500.78 495.782C1495.07 490.749 1493.59 482.462 1497.03 475.771Z" fill="#50741C" stroke="#043866" stroke-miterlimit="10" stroke-linecap="round"/>
<path id="Vector_19" d="M1474 459.296L1474 638" stroke="#043866" stroke-miterlimit="10" stroke-linecap="round"/>
<path id="Vector_20" d="M1474.01 545.808L1495.31 524.508" stroke="#043866" stroke-miterlimit="10" stroke-linecap="round"/>
<path id="Vector_21" d="M1474.01 520.948L1458.61 505.542" stroke="#043866" stroke-miterlimit="10" stroke-linecap="round"/>
<path id="Vector_22" d="M1474.01 476.938L1484.88 466.073" stroke="#043866" stroke-miterlimit="10" stroke-linecap="round"/>
</g>
<g id="forest1">
<path d="M-9.95255 851.316L1669.7 849.686V757.198C1689.27 756.278 1708.24 750.229 1724.74 739.655C1741.24 729.081 1754.67 714.353 1763.7 696.944C1772.73 679.536 1777.04 660.058 1776.19 640.458C1775.35 620.859 1769.38 601.826 1758.88 585.263C1748.39 568.7 1733.73 555.188 1716.39 546.08C1699.04 536.971 1679.61 532.585 1660.04 533.361C1640.47 534.136 1621.45 540.045 1604.87 550.498C1588.3 560.95 1574.76 575.578 1565.6 592.92C1562.1 588.443 1557.66 584.788 1552.6 582.211C1547.54 579.634 1541.97 578.198 1536.3 578.004C1530.62 577.81 1524.97 578.861 1519.75 581.086C1514.52 583.31 1509.84 586.653 1506.04 590.88C1498.21 581.575 1487.97 574.606 1476.45 570.737C1464.92 566.868 1452.56 566.247 1440.71 568.942C1428.86 571.637 1417.98 577.544 1409.25 586.017C1400.53 594.491 1394.3 605.205 1391.24 616.987H1383.25C1375.9 612.214 1367.42 609.476 1358.68 609.05C1349.93 608.625 1341.23 610.527 1333.46 614.563C1333.07 596.928 1328.54 579.633 1320.22 564.086C1311.9 548.54 1300.03 535.181 1285.58 525.097C1271.13 515.014 1254.51 508.491 1237.07 506.061C1219.63 503.63 1201.86 505.36 1185.21 511.109C1174.03 492.738 1156.54 479.087 1136.02 472.718C1115.5 466.35 1093.36 467.702 1073.77 476.521C1054.18 485.339 1038.47 501.019 1029.6 520.615C1020.72 540.212 1019.3 562.378 1025.58 582.954C1015.65 581.898 1005.61 582.99 996.132 586.157C986.019 589.529 976.804 595.16 969.182 602.624C961.561 610.087 955.733 619.188 952.138 629.239C948.504 639.248 947.223 649.962 948.393 660.548L948.475 661.123L947.915 661.041C934.878 658.692 921.439 661.484 910.41 668.832C899.381 676.18 891.615 687.516 888.738 700.467L888.574 701.193L888.082 700.631C874.282 686.09 855.49 677.334 835.497 676.13C815.504 674.925 795.799 681.363 780.36 694.143L779.799 694.54L779.553 694.786L779.307 694.54C775.246 691.133 770.515 688.619 765.422 687.161C760.314 685.671 754.953 685.256 749.678 685.942H749.35L749.268 685.627C740.253 650.89 718.231 620.964 687.773 602.059C657.314 583.155 620.758 576.725 585.692 584.103C550.626 591.481 519.743 612.102 499.452 641.684C479.162 671.267 471.023 707.54 476.724 742.974V743.138L476.56 743.303C461.392 759.102 449.624 777.852 441.982 798.391L441.818 798.801L441.408 798.637C425.715 792.904 408.979 790.598 392.324 791.876C375.668 793.153 359.478 797.984 344.839 806.043C346.974 797.306 348.052 788.343 348.05 779.348C348.052 764.636 345.161 750.067 339.541 736.474C333.922 722.881 325.684 710.53 315.299 700.126C304.914 689.722 292.585 681.47 279.015 675.839C265.446 670.208 250.902 667.31 236.215 667.31C219.752 667.296 203.491 670.933 188.599 677.961C183.961 671.98 178.017 667.143 171.222 663.821C164.428 660.498 156.964 658.779 149.403 658.795C145.122 658.794 140.859 659.346 136.72 660.438C134.144 652.672 129.194 645.915 122.571 641.124C115.949 636.333 107.989 633.751 99.8195 633.743C93.2169 633.713 86.7159 635.372 80.9319 638.562C71.5175 620.308 57.2702 605 39.7503 594.315C22.2303 583.631 2.11305 577.981 -18.3986 577.984C-48.0606 577.984 -76.5079 589.786 -97.4833 610.794C-118.459 631.803 -130.244 660.296 -130.248 690.008C-130.248 719.722 -118.464 748.22 -97.4881 769.231C-76.5123 790.242 -48.063 802.046 -18.3986 802.046C-15.5286 802.046 -12.6996 801.895 -9.88421 801.69V851.302" fill="#7F9B4E"/>
<path d="M-9.95255 851.316L1669.7 849.686V757.198C1689.27 756.278 1708.24 750.229 1724.74 739.655C1741.24 729.081 1754.67 714.353 1763.7 696.944C1772.73 679.536 1777.04 660.058 1776.19 640.458C1775.35 620.859 1769.38 601.826 1758.88 585.263C1748.39 568.7 1733.73 555.188 1716.39 546.08C1699.04 536.971 1679.61 532.585 1660.04 533.361C1640.47 534.136 1621.45 540.045 1604.87 550.498C1588.3 560.95 1574.76 575.578 1565.6 592.92C1562.1 588.443 1557.66 584.788 1552.6 582.211C1547.54 579.634 1541.97 578.198 1536.3 578.004C1530.62 577.81 1524.97 578.861 1519.75 581.086C1514.52 583.31 1509.84 586.653 1506.04 590.88C1498.21 581.575 1487.97 574.606 1476.45 570.737C1464.92 566.868 1452.56 566.247 1440.71 568.942C1428.86 571.637 1417.98 577.544 1409.25 586.017C1400.53 594.491 1394.3 605.205 1391.24 616.987H1383.25C1375.9 612.214 1367.42 609.476 1358.68 609.05C1349.93 608.625 1341.23 610.527 1333.46 614.563C1333.07 596.928 1328.54 579.633 1320.22 564.086C1311.9 548.54 1300.03 535.181 1285.58 525.097C1271.13 515.014 1254.51 508.491 1237.07 506.061C1219.63 503.63 1201.86 505.36 1185.21 511.109C1174.03 492.738 1156.54 479.087 1136.02 472.718C1115.5 466.35 1093.36 467.702 1073.77 476.521C1054.18 485.339 1038.47 501.019 1029.6 520.615C1020.72 540.212 1019.3 562.378 1025.58 582.954C1015.65 581.898 1005.61 582.99 996.132 586.157C986.019 589.529 976.804 595.16 969.182 602.624C961.561 610.087 955.733 619.188 952.138 629.239C948.504 639.248 947.223 649.962 948.393 660.548L948.475 661.123L947.915 661.041C934.878 658.692 921.439 661.484 910.41 668.832C899.381 676.18 891.615 687.516 888.738 700.467L888.574 701.193L888.082 700.631C874.282 686.09 855.49 677.334 835.497 676.13C815.504 674.925 795.799 681.363 780.36 694.143L779.799 694.54L779.553 694.786L779.307 694.54C775.246 691.133 770.515 688.619 765.422 687.161C760.314 685.671 754.953 685.256 749.678 685.942H749.35L749.268 685.627C740.253 650.89 718.231 620.964 687.773 602.059C657.314 583.155 620.758 576.725 585.692 584.103C550.626 591.481 519.743 612.102 499.452 641.684C479.162 671.267 471.023 707.54 476.724 742.974V743.138L476.56 743.303C461.392 759.102 449.624 777.852 441.982 798.391L441.818 798.801L441.408 798.637C425.715 792.904 408.979 790.598 392.324 791.876C375.668 793.153 359.478 797.984 344.839 806.043C346.974 797.306 348.052 788.343 348.05 779.348C348.052 764.636 345.161 750.067 339.541 736.474C333.922 722.881 325.684 710.53 315.299 700.126C304.914 689.722 292.585 681.47 279.015 675.839C265.446 670.208 250.902 667.31 236.215 667.31C219.752 667.296 203.491 670.933 188.599 677.961C183.961 671.98 178.017 667.143 171.222 663.821C164.428 660.498 156.964 658.779 149.403 658.795C145.122 658.794 140.859 659.346 136.72 660.438C134.144 652.672 129.194 645.915 122.571 641.124C115.949 636.333 107.989 633.751 99.8195 633.743C93.2169 633.713 86.7159 635.372 80.9319 638.562C71.5175 620.308 57.2702 605 39.7503 594.315C22.2303 583.631 2.11305 577.981 -18.3986 577.984C-48.0606 577.984 -76.5079 589.786 -97.4833 610.794C-118.459 631.803 -130.244 660.296 -130.248 690.008C-130.248 719.722 -118.464 748.22 -97.4881 769.231C-76.5123 790.242 -48.063 802.046 -18.3986 802.046C-15.5286 802.046 -12.6996 801.895 -9.88421 801.69V851.302" stroke="#043866" stroke-linecap="round"/>
</g>
<g id="tree_5">
<path id="Vector_23" d="M692.202 688.257C684.092 679.422 681.455 666.499 686.598 655.685C690.092 648.432 691.015 640.256 689.367 632.41C687.653 624.563 683.433 617.508 677.301 612.299C674.663 610.058 672.817 607.025 671.96 603.662C671.103 600.299 671.301 596.739 672.553 593.508C673.674 590.541 674.136 587.31 673.872 584.145C673.608 580.98 672.685 577.881 671.103 575.112C669.52 572.342 667.345 569.969 664.773 568.057C662.136 566.21 659.169 564.958 656.07 564.364C652.905 563.771 649.674 563.903 646.641 564.76C643.542 565.551 640.707 567.068 638.201 569.112C635.761 571.156 633.783 573.727 632.399 576.628C631.014 579.529 630.355 582.694 630.355 585.859C630.355 588.958 631.014 592.057 632.333 594.892C635.366 601.552 633.651 609.134 628.443 614.277C623.168 619.486 619.673 626.212 618.288 633.531C616.97 640.85 617.893 648.366 620.992 655.092C623.497 660.498 624.289 666.499 623.431 672.301C622.508 678.169 619.937 683.642 615.915 687.994C607.079 697.488 602.134 709.884 602.002 722.874C601.739 750.501 623.959 774.106 651.52 775.424C661.806 775.952 672.026 773.314 680.861 768.039C689.697 762.699 696.752 754.852 701.104 745.555C705.455 736.192 706.972 725.775 705.389 715.555C703.741 705.335 699.192 695.84 692.202 688.257Z" fill="#5A8A15" stroke="#043866" stroke-miterlimit="10" stroke-linecap="round"/>
<g id="Vector_24">
<path d="M653.893 623.311V853.756Z" fill="#5A8A15"/>
<path d="M653.893 623.311V853.756" stroke="#043866" stroke-miterlimit="10" stroke-linecap="round"/>
</g>
<g id="Vector_25">
<path d="M653.893 748.391L625.277 719.709Z" fill="#5A8A15"/>
<path d="M653.893 748.391L625.277 719.709" stroke="#043866" stroke-miterlimit="10" stroke-linecap="round"/>
</g>
<g id="Vector_26">
<path d="M653.893 712.785L671.036 695.642Z" fill="#5A8A15"/>
<path d="M653.893 712.785L671.036 695.642" stroke="#043866" stroke-miterlimit="10" stroke-linecap="round"/>
</g>
<g id="Vector_27">
<path d="M653.893 650.674L638.728 635.509Z" fill="#5A8A15"/>
<path d="M653.893 650.674L638.728 635.509" stroke="#043866" stroke-miterlimit="10" stroke-linecap="round"/>
</g>
<g id="Vector_28">
<path d="M653.893 650.674L670.838 633.729Z" fill="#5A8A15"/>
<path d="M653.893 650.674L670.838 633.729" stroke="#043866" stroke-miterlimit="10" stroke-linecap="round"/>
</g>
</g>
<g id="tree_6">
<path id="Vector_29" d="M59.0553 724.531C52.2327 717.098 50.014 706.227 54.3405 697.13C57.2803 691.028 58.0568 684.15 56.6701 677.549C55.2279 670.949 51.678 665.014 46.5195 660.632C44.3008 658.746 42.7476 656.194 42.0265 653.365C41.3054 650.536 41.4718 647.541 42.5257 644.823C43.4687 642.327 43.857 639.609 43.6351 636.947C43.4132 634.284 42.6367 631.677 41.3055 629.348C39.9742 627.018 38.1438 625.021 35.9805 623.413C33.7618 621.859 31.2657 620.806 28.6587 620.306C25.9962 619.807 23.2783 619.918 20.7268 620.639C18.1198 621.305 15.7346 622.581 13.6268 624.3C11.5745 626.02 9.91045 628.183 8.74561 630.623C7.58078 633.064 7.02612 635.726 7.02612 638.389C7.02612 640.996 7.5808 643.603 8.69016 645.988C11.2417 651.59 9.79951 657.969 5.41753 662.296C0.980072 666.678 -1.95969 672.335 -3.12452 678.492C-4.23388 684.649 -3.45734 690.973 -0.850336 696.631C1.25745 701.179 1.92304 706.227 1.20196 711.108C0.425404 716.044 -1.73787 720.648 -5.12143 724.309C-12.5542 732.297 -16.7143 742.725 -16.8252 753.652C-17.0471 776.893 1.64569 796.751 24.8314 797.86C33.4844 798.304 42.082 796.085 49.5147 791.647C56.9474 787.155 62.8826 780.554 66.5435 772.733C70.2044 764.856 71.4801 756.092 70.1489 747.495C68.7622 738.897 64.9349 730.91 59.0553 724.531Z" fill="#5A8A15" stroke="#043866" stroke-miterlimit="10" stroke-linecap="round"/>
<g id="Vector_30">
<path d="M27 670L27 842Z" fill="#5A8A15"/>
<path d="M27 670L27 842" stroke="#043866" stroke-miterlimit="10" stroke-linecap="round"/>
</g>
<g id="Vector_31">
<path d="M26.8281 775.118L2.75488 750.989Z" fill="#5A8A15"/>
<path d="M26.8281 775.118L2.75488 750.989" stroke="#043866" stroke-miterlimit="10" stroke-linecap="round"/>
</g>
<g id="Vector_32">
<path d="M26.8281 745.165L41.2498 730.743Z" fill="#5A8A15"/>
<path d="M26.8281 745.165L41.2498 730.743" stroke="#043866" stroke-miterlimit="10" stroke-linecap="round"/>
</g>
<g id="Vector_33">
<path d="M26.827 692.914L14.0693 680.156Z" fill="#5A8A15"/>
<path d="M26.827 692.914L14.0693 680.156" stroke="#043866" stroke-miterlimit="10" stroke-linecap="round"/>
</g>
<g id="Vector_34">
<path d="M26.8281 692.914L41.0834 678.659Z" fill="#5A8A15"/>
<path d="M26.8281 692.914L41.0834 678.659" stroke="#043866" stroke-miterlimit="10" stroke-linecap="round"/>
</g>
</g>
<g id="tree_7">
<path id="Vector_35" d="M1045.48 741.952C1039.41 735.343 1037.44 725.675 1041.28 717.586C1043.9 712.161 1044.59 706.044 1043.36 700.175C1042.07 694.305 1038.92 689.028 1034.33 685.131C1032.36 683.454 1030.98 681.185 1030.33 678.67C1029.69 676.154 1029.84 673.491 1030.78 671.074C1031.62 668.854 1031.96 666.437 1031.76 664.07C1031.57 661.702 1030.88 659.384 1029.69 657.312C1028.51 655.241 1026.88 653.465 1024.96 652.035C1022.99 650.653 1020.77 649.716 1018.45 649.272C1016.08 648.828 1013.66 648.927 1011.39 649.568C1009.08 650.16 1006.95 651.295 1005.08 652.824C1003.26 654.353 1001.78 656.276 1000.74 658.447C999.704 660.617 999.211 662.984 999.211 665.352C999.211 667.67 999.704 669.989 1000.69 672.109C1002.96 677.091 1001.68 682.763 997.781 686.611C993.835 690.507 991.221 695.538 990.185 701.013C989.198 706.488 989.889 712.111 992.207 717.142C994.081 721.187 994.673 725.675 994.032 730.016C993.342 734.406 991.418 738.5 988.409 741.755C981.8 748.858 978.1 758.131 978.002 767.848C977.804 788.514 994.427 806.172 1015.04 807.159C1022.74 807.553 1030.38 805.58 1036.99 801.635C1043.6 797.639 1048.88 791.77 1052.14 784.815C1055.39 777.811 1056.53 770.018 1055.34 762.373C1054.11 754.727 1050.71 747.625 1045.48 741.952Z" fill="#5A8A15" stroke="#043866" stroke-miterlimit="10" stroke-linecap="round"/>
<g id="Vector_36">
<path d="M1016.82 693.368V865.756Z" fill="#5A8A15"/>
<path d="M1016.82 693.368V865.756" stroke="#043866" stroke-miterlimit="10" stroke-linecap="round"/>
</g>
<g id="Vector_37">
<path d="M1016.82 786.936L995.413 765.48Z" fill="#5A8A15"/>
<path d="M1016.82 786.936L995.413 765.48" stroke="#043866" stroke-miterlimit="10" stroke-linecap="round"/>
</g>
<g id="Vector_38">
<path d="M1016.82 760.301L1029.64 747.477Z" fill="#5A8A15"/>
<path d="M1016.82 760.301L1029.64 747.477" stroke="#043866" stroke-miterlimit="10" stroke-linecap="round"/>
</g>
<g id="Vector_39">
<path d="M1016.82 713.838L1005.47 702.493Z" fill="#5A8A15"/>
<path d="M1016.82 713.838L1005.47 702.493" stroke="#043866" stroke-miterlimit="10" stroke-linecap="round"/>
</g>
<g id="Vector_40">
<path d="M1016.82 713.838L1029.5 701.161Z" fill="#5A8A15"/>
<path d="M1016.82 713.838L1029.5 701.161" stroke="#043866" stroke-miterlimit="10" stroke-linecap="round"/>
</g>
</g>
<g id="tree_8">
<path id="Vector_41" d="M1373.01 702.963C1365.77 695.073 1363.42 683.533 1368.01 673.876C1371.13 667.399 1371.95 660.098 1370.48 653.091C1368.95 646.084 1365.18 639.784 1359.71 635.132C1357.35 633.13 1355.7 630.421 1354.94 627.419C1354.17 624.416 1354.35 621.236 1355.47 618.351C1356.47 615.701 1356.88 612.816 1356.65 609.99C1356.41 607.163 1355.59 604.396 1354.17 601.923C1352.76 599.45 1350.82 597.33 1348.52 595.623C1346.16 593.974 1343.52 592.855 1340.75 592.325C1337.92 591.795 1335.04 591.913 1332.33 592.678C1329.56 593.385 1327.03 594.739 1324.79 596.565C1322.61 598.39 1320.85 600.686 1319.61 603.277C1318.37 605.868 1317.78 608.694 1317.78 611.521C1317.78 614.288 1318.37 617.055 1319.55 619.587C1322.26 625.534 1320.73 632.306 1316.08 636.898C1311.37 641.55 1308.25 647.556 1307.01 654.092C1305.83 660.628 1306.66 667.34 1309.42 673.346C1311.66 678.174 1312.37 683.533 1311.6 688.714C1310.78 693.955 1308.48 698.842 1304.89 702.728C1297 711.207 1292.58 722.277 1292.46 733.876C1292.23 758.547 1312.07 779.627 1336.68 780.805C1345.87 781.276 1355 778.92 1362.89 774.21C1370.78 769.441 1377.08 762.434 1380.96 754.131C1384.85 745.77 1386.2 736.467 1384.79 727.34C1383.32 718.214 1379.26 709.735 1373.01 702.963Z" fill="#5A8A15" stroke="#043866" stroke-miterlimit="10" stroke-linecap="round"/>
<g id="Vector_42">
<path d="M1338.8 644.965V850.756Z" fill="#5A8A15"/>
<path d="M1338.8 644.965V850.756" stroke="#043866" stroke-miterlimit="10" stroke-linecap="round"/>
</g>
<g id="Vector_43">
<path d="M1338.8 756.663L1313.25 731.05Z" fill="#5A8A15"/>
<path d="M1338.8 756.663L1313.25 731.05" stroke="#043866" stroke-miterlimit="10" stroke-linecap="round"/>
</g>
<g id="Vector_44">
<path d="M1338.8 724.867L1354.11 709.558Z" fill="#5A8A15"/>
<path d="M1338.8 724.867L1354.11 709.558" stroke="#043866" stroke-miterlimit="10" stroke-linecap="round"/>
</g>
<g id="Vector_45">
<path d="M1338.8 669.401L1325.26 655.858Z" fill="#5A8A15"/>
<path d="M1338.8 669.401L1325.26 655.858" stroke="#043866" stroke-miterlimit="10" stroke-linecap="round"/>
</g>
<g id="Vector_46">
<path d="M1338.8 669.401L1353.94 654.268Z" fill="#5A8A15"/>
<path d="M1338.8 669.401L1353.94 654.268" stroke="#043866" stroke-miterlimit="10" stroke-linecap="round"/>
</g>
</g>
<g id="tree_9">
<path id="Vector_47" d="M974.874 726.793C976.995 722.683 978.122 718.043 977.99 713.402C977.658 698.818 965.726 686.62 951.141 686.024C946.236 685.825 941.397 686.885 937.088 689.139C932.712 691.393 929.066 694.774 926.415 698.884C923.763 702.994 922.238 707.701 922.039 712.607C921.774 717.512 922.835 722.352 925.022 726.727C928.801 734.019 927.21 743.101 920.979 748.404C915.94 752.647 911.83 757.95 909.112 763.983C906.328 769.949 904.936 776.512 905.002 783.141C905.201 806.675 924.094 826.496 947.562 827.756C956.975 828.286 966.322 825.833 974.277 820.729C982.232 815.624 988.398 808.2 991.845 799.383C995.292 790.632 995.955 780.954 993.635 771.805C991.314 762.657 986.21 754.437 978.918 748.404C972.753 742.968 971.162 734.019 974.874 726.793Z" fill="#50741C" stroke="#043866" stroke-miterlimit="10" stroke-linecap="round"/>
<path id="Vector_48" d="M950.014 709.491V866.735" stroke="#043866" stroke-miterlimit="10" stroke-linecap="round"/>
<path id="Vector_49" d="M950.014 802.432L973.017 779.429" stroke="#043866" stroke-miterlimit="10" stroke-linecap="round"/>
<path id="Vector_50" d="M950.015 775.584L933.376 758.945" stroke="#043866" stroke-miterlimit="10" stroke-linecap="round"/>
<path id="Vector_51" d="M950.014 728.053L961.747 716.319" stroke="#043866" stroke-miterlimit="10" stroke-linecap="round"/>
</g>
<g id="tree_10">
<path id="Vector_52" d="M131.844 646.685C134.688 641.175 136.199 634.955 136.021 628.734C135.577 609.183 119.581 592.831 100.03 592.032C93.4536 591.765 86.9663 593.187 81.1899 596.208C75.3246 599.23 70.4369 603.762 66.8822 609.272C63.3275 614.782 61.2834 621.091 61.0168 627.668C60.6613 634.244 62.0832 640.731 65.0159 646.596C70.0813 656.372 67.9485 668.547 59.5949 675.656C52.841 681.344 47.3312 688.453 43.6876 696.54C39.9551 704.538 38.089 713.336 38.1778 722.223C38.4444 753.771 63.7717 780.342 95.2309 782.031C107.85 782.742 120.381 779.454 131.045 772.611C141.709 765.768 149.973 755.815 154.595 743.995C159.216 732.265 160.104 719.29 156.994 707.027C153.884 694.763 147.041 683.743 137.265 675.656C129.001 668.369 126.868 656.372 131.844 646.685Z" fill="#50741C" stroke="#043866" stroke-miterlimit="10" stroke-linecap="round"/>
<path id="Vector_53" d="M98 624L98 851" stroke="#043866" stroke-miterlimit="10" stroke-linecap="round"/>
<path id="Vector_54" d="M98.5176 748.083L129.355 717.246" stroke="#043866" stroke-miterlimit="10" stroke-linecap="round"/>
<path id="Vector_55" d="M98.5206 712.092L76.2148 689.786" stroke="#043866" stroke-miterlimit="10" stroke-linecap="round"/>
<path id="Vector_56" d="M98.5176 648.374L114.247 632.644" stroke="#043866" stroke-miterlimit="10" stroke-linecap="round"/>
</g>
<g id="tree_11">
<path id="Vector_57" d="M1545.35 726.728C1547 723.531 1547.87 719.922 1547.77 716.313C1547.51 704.97 1538.23 695.482 1526.89 695.018C1523.07 694.864 1519.31 695.689 1515.96 697.442C1512.55 699.195 1509.72 701.824 1507.66 705.021C1505.59 708.218 1504.41 711.879 1504.25 715.694C1504.05 719.51 1504.87 723.273 1506.57 726.676C1509.51 732.348 1508.27 739.412 1503.43 743.537C1499.51 746.837 1496.31 750.961 1494.2 755.653C1492.03 760.294 1490.95 765.398 1491 770.554C1491.16 788.858 1505.85 804.275 1524.1 805.255C1531.43 805.667 1538.7 803.759 1544.88 799.789C1551.07 795.819 1555.86 790.044 1558.55 783.187C1561.23 776.381 1561.74 768.853 1559.94 761.738C1558.13 754.622 1554.16 748.229 1548.49 743.537C1543.7 739.309 1542.46 732.348 1545.35 726.728Z" fill="#50741C" stroke="#043866" stroke-miterlimit="10" stroke-linecap="round"/>
<path id="Vector_58" d="M1526 712.889L1526 863" stroke="#043866" stroke-miterlimit="10" stroke-linecap="round"/>
<path id="Vector_59" d="M1526.01 785.558L1543.9 767.667" stroke="#043866" stroke-miterlimit="10" stroke-linecap="round"/>
<path id="Vector_60" d="M1526.01 764.677L1513.07 751.735" stroke="#043866" stroke-miterlimit="10" stroke-linecap="round"/>
<path id="Vector_61" d="M1526.01 727.708L1535.14 718.581" stroke="#043866" stroke-miterlimit="10" stroke-linecap="round"/>
</g>
<g id="leaf">
<path id="Vector_62" d="M986.957 632.148C983.696 628.219 985.141 622.868 989.816 617.718C995.001 611.995 1000.56 610.012 1003.62 612.561C1006.63 615.109 1006.36 620.398 1000.76 626.991C996.172 632.39 989.746 635.473 986.957 632.148Z" fill="#A4C673" stroke="#043866" stroke-miterlimit="10" stroke-linecap="round"/>
<path id="Vector_63" d="M1003.62 612.561L987.006 632.149" stroke="#043866" stroke-miterlimit="10" stroke-linecap="round"/>
<path id="Vector_64" d="M1004.95 620.06L997.3 619.966" stroke="#043866" stroke-miterlimit="10" stroke-linecap="round"/>
<path id="Vector_65" d="M1001.32 626.322L991.237 627.132" stroke="#043866" stroke-miterlimit="10" stroke-linecap="round"/>
<path id="Vector_66" d="M997.203 612.163L995.364 622.259" stroke="#043866" stroke-miterlimit="10" stroke-linecap="round"/>
<path id="Vector_67" d="M988.239 619.532L989.455 629.186" stroke="#043866" stroke-miterlimit="10" stroke-linecap="round"/>
</g>
<g id="leaf_2">
<path id="Vector_68" d="M572.694 102.211C577.743 102.976 580.223 107.931 580.158 114.887C580.095 122.609 577.265 127.786 573.285 127.918C569.343 128.018 566.022 123.892 565.821 115.241C565.653 108.16 568.399 101.583 572.694 102.211Z" fill="#A4C673" stroke="#043866" stroke-miterlimit="10" stroke-linecap="round"/>
<path id="Vector_69" d="M573.285 127.918L572.657 102.243" stroke="#043866" stroke-miterlimit="10" stroke-linecap="round"/>
<path id="Vector_70" d="M567.301 123.205L573.075 118.187" stroke="#043866" stroke-miterlimit="10" stroke-linecap="round"/>
<path id="Vector_71" d="M565.847 116.114L572.835 108.802" stroke="#043866" stroke-miterlimit="10" stroke-linecap="round"/>
<path id="Vector_72" d="M578.338 123.948L572.995 115.186" stroke="#043866" stroke-miterlimit="10" stroke-linecap="round"/>
<path id="Vector_73" d="M580.129 112.483L572.8 106.084" stroke="#043866" stroke-miterlimit="10" stroke-linecap="round"/>
</g>
<g id="leaf_3">
<path id="Vector_74" d="M334.514 287.621C336.641 282.979 342.088 281.96 348.757 283.94C356.162 286.13 360.358 290.277 359.388 294.139C358.397 297.956 353.516 300.011 345.145 297.82C338.292 296.029 332.727 291.577 334.514 287.621Z" fill="#A4C673" stroke="#043866" stroke-miterlimit="10" stroke-linecap="round"/>
<path id="Vector_75" d="M359.388 294.139L334.534 287.666" stroke="#043866" stroke-miterlimit="10" stroke-linecap="round"/>
<path id="Vector_76" d="M353.209 298.592L349.977 291.658" stroke="#043866" stroke-miterlimit="10" stroke-linecap="round"/>
<path id="Vector_77" d="M345.991 298.035L340.889 289.302" stroke="#043866" stroke-miterlimit="10" stroke-linecap="round"/>
<path id="Vector_78" d="M356.966 288.187L347.071 290.908" stroke="#043866" stroke-miterlimit="10" stroke-linecap="round"/>
<path id="Vector_79" d="M346.437 283.305L338.266 288.587" stroke="#043866" stroke-miterlimit="10" stroke-linecap="round"/>
</g>
<g id="leaf_4">
<path id="Vector_80" d="M316.321 529.462C311.28 528.653 308.842 523.676 308.968 516.721C309.099 509 311.974 503.848 315.955 503.751C319.898 503.685 323.183 507.84 323.308 516.492C323.414 523.574 320.611 530.127 316.321 529.462Z" fill="#A4C673" stroke="#043866" stroke-miterlimit="10" stroke-linecap="round"/>
<path id="Vector_81" d="M315.955 503.751L316.359 529.43" stroke="#043866" stroke-miterlimit="10" stroke-linecap="round"/>
<path id="Vector_82" d="M321.897 508.515L316.08 513.483" stroke="#043866" stroke-miterlimit="10" stroke-linecap="round"/>
<path id="Vector_83" d="M323.29 515.619L316.238 522.869" stroke="#043866" stroke-miterlimit="10" stroke-linecap="round"/>
<path id="Vector_84" d="M310.867 507.676L316.133 516.484" stroke="#043866" stroke-miterlimit="10" stroke-linecap="round"/>
<path id="Vector_85" d="M308.976 519.126L316.249 525.588" stroke="#043866" stroke-miterlimit="10" stroke-linecap="round"/>
</g>
<g id="leaf_5">
<path id="Vector_86" d="M1069.17 340.133C1065.56 336.516 1066.51 331.057 1070.7 325.503C1075.35 319.333 1080.7 316.854 1083.98 319.115C1087.21 321.379 1087.42 326.671 1082.44 333.745C1078.36 339.538 1072.25 343.192 1069.17 340.133Z" fill="#A4C673" stroke="#043866" stroke-miterlimit="10" stroke-linecap="round"/>
<path id="Vector_87" d="M1083.98 319.115L1069.21 340.13" stroke="#043866" stroke-miterlimit="10" stroke-linecap="round"/>
<path id="Vector_88" d="M1085.99 326.462L1078.36 327.062" stroke="#043866" stroke-miterlimit="10" stroke-linecap="round"/>
<path id="Vector_89" d="M1082.94 333.028L1072.97 334.75" stroke="#043866" stroke-miterlimit="10" stroke-linecap="round"/>
<path id="Vector_90" d="M1077.55 319.301L1076.64 329.523" stroke="#043866" stroke-miterlimit="10" stroke-linecap="round"/>
<path id="Vector_91" d="M1069.3 327.454L1071.38 336.957" stroke="#043866" stroke-miterlimit="10" stroke-linecap="round"/>
</g>
<g id="leaf_6">
<path id="Vector_92" d="M1469.95 73.3008C1472.07 68.6584 1477.52 67.6387 1484.19 69.6173C1491.59 71.8057 1495.79 75.9522 1494.82 79.8143C1493.83 83.6316 1488.95 85.6874 1480.58 83.4979C1473.73 81.7083 1468.16 77.2567 1469.95 73.3008Z" fill="#A4C673" stroke="#043866" stroke-miterlimit="10" stroke-linecap="round"/>
<path id="Vector_93" d="M1494.82 79.8142L1469.97 73.3455" stroke="#043866" stroke-miterlimit="10" stroke-linecap="round"/>
<path id="Vector_94" d="M1488.64 84.2684L1485.41 77.3351" stroke="#043866" stroke-miterlimit="10" stroke-linecap="round"/>
<path id="Vector_95" d="M1481.42 83.713L1476.32 74.9805" stroke="#043866" stroke-miterlimit="10" stroke-linecap="round"/>
<path id="Vector_96" d="M1492.4 73.863L1482.5 76.5855" stroke="#043866" stroke-miterlimit="10" stroke-linecap="round"/>
<path id="Vector_97" d="M1481.87 68.9827L1473.7 74.2659" stroke="#043866" stroke-miterlimit="10" stroke-linecap="round"/>
</g>
<g id="leaf_7">
<path id="Vector_98" d="M758.72 767.258C761.366 764.051 765.896 764.412 770.747 767.379C776.119 770.706 778.524 774.875 776.92 777.681C775.317 780.488 771.027 781.089 764.894 777.561C759.883 774.675 756.435 769.984 758.72 767.258Z" fill="#A4C673" stroke="#043866" stroke-miterlimit="10" stroke-linecap="round"/>
<path id="Vector_99" d="M776.921 777.681L758.721 767.218" stroke="#043866" stroke-miterlimit="10" stroke-linecap="round"/>
<path id="Vector_100" d="M771.108 779.926L770.025 773.753" stroke="#043866" stroke-miterlimit="10" stroke-linecap="round"/>
<path id="Vector_101" d="M765.535 777.922L763.37 769.944" stroke="#043866" stroke-miterlimit="10" stroke-linecap="round"/>
<path id="Vector_102" d="M776.319 772.51L767.94 772.55" stroke="#043866" stroke-miterlimit="10" stroke-linecap="round"/>
<path id="Vector_103" d="M769.063 766.417L761.486 768.862" stroke="#043866" stroke-miterlimit="10" stroke-linecap="round"/>
</g>
<g id="leaf_8">
<path id="Vector_104" d="M596.64 446.144C600.298 448.119 600.822 452.633 598.851 457.966C596.627 463.881 593.002 467.048 589.939 466.018C586.875 464.988 585.454 460.897 587.727 454.196C589.589 448.721 593.523 444.43 596.64 446.144Z" fill="#A4C673" stroke="#043866" stroke-miterlimit="10" stroke-linecap="round"/>
<path id="Vector_105" d="M589.938 466.018L596.679 446.136" stroke="#043866" stroke-miterlimit="10" stroke-linecap="round"/>
<path id="Vector_106" d="M586.61 460.75L592.457 458.492" stroke="#043866" stroke-miterlimit="10" stroke-linecap="round"/>
<path id="Vector_107" d="M587.498 454.895L594.905 451.226" stroke="#043866" stroke-miterlimit="10" stroke-linecap="round"/>
<path id="Vector_108" d="M594.896 464.427L593.234 456.215" stroke="#043866" stroke-miterlimit="10" stroke-linecap="round"/>
<path id="Vector_109" d="M599.468 456.128L595.602 449.168" stroke="#043866" stroke-miterlimit="10" stroke-linecap="round"/>
</g>
<g id="leaf_9">
<path id="Vector_110" d="M1246.43 425.499C1248.43 421.855 1252.95 421.365 1258.27 423.375C1264.17 425.643 1267.31 429.29 1266.26 432.346C1265.2 435.402 1261.1 436.793 1254.42 434.47C1248.96 432.569 1244.7 428.604 1246.43 425.499Z" fill="#A4C673" stroke="#043866" stroke-miterlimit="10" stroke-linecap="round"/>
<path id="Vector_111" d="M1266.26 432.346L1246.42 425.46" stroke="#043866" stroke-miterlimit="10" stroke-linecap="round"/>
<path id="Vector_112" d="M1260.96 435.636L1258.75 429.772" stroke="#043866" stroke-miterlimit="10" stroke-linecap="round"/>
<path id="Vector_113" d="M1255.12 434.705L1251.5 427.271" stroke="#043866" stroke-miterlimit="10" stroke-linecap="round"/>
<path id="Vector_114" d="M1264.7 427.378L1256.48 428.979" stroke="#043866" stroke-miterlimit="10" stroke-linecap="round"/>
<path id="Vector_115" d="M1256.44 422.744L1249.45 426.559" stroke="#043866" stroke-miterlimit="10" stroke-linecap="round"/>
</g>
<g id="leaf_10">
<path id="Vector_116" d="M1135.04 23.276C1137.77 20.1372 1142.29 20.6129 1147.06 23.7017C1152.35 27.1644 1154.65 31.3933 1152.97 34.1579C1151.3 36.9224 1147 37.4147 1140.95 33.7322C1136.02 30.7195 1132.69 25.9431 1135.04 23.276Z" fill="#A4C673" stroke="#043866" stroke-miterlimit="10" stroke-linecap="round"/>
<path id="Vector_117" d="M1152.97 34.1579L1135.04 23.236" stroke="#043866" stroke-miterlimit="10" stroke-linecap="round"/>
<path id="Vector_118" d="M1147.1 36.2544L1146.18 30.0553" stroke="#043866" stroke-miterlimit="10" stroke-linecap="round"/>
<path id="Vector_119" d="M1141.59 34.1092L1139.62 26.0792" stroke="#043866" stroke-miterlimit="10" stroke-linecap="round"/>
<path id="Vector_120" d="M1152.5 28.9728L1144.13 28.8001" stroke="#043866" stroke-miterlimit="10" stroke-linecap="round"/>
<path id="Vector_121" d="M1145.4 22.6971L1137.77 24.9492" stroke="#043866" stroke-miterlimit="10" stroke-linecap="round"/>
</g>
<g id="leaf_11">
<path id="Vector_122" d="M1319.42 225.083C1315.7 223.23 1315.03 218.735 1316.82 213.34C1318.85 207.356 1322.37 204.072 1325.46 205C1328.56 205.929 1330.11 209.972 1328.06 216.744C1326.38 222.277 1322.59 226.694 1319.42 225.083Z" fill="#A4C673" stroke="#043866" stroke-miterlimit="10" stroke-linecap="round"/>
<path id="Vector_123" d="M1325.46 205L1319.38 225.092" stroke="#043866" stroke-miterlimit="10" stroke-linecap="round"/>
<path id="Vector_124" d="M1328.96 210.157L1323.19 212.605" stroke="#043866" stroke-miterlimit="10" stroke-linecap="round"/>
<path id="Vector_125" d="M1328.27 216.037L1320.99 219.947" stroke="#043866" stroke-miterlimit="10" stroke-linecap="round"/>
<path id="Vector_126" d="M1320.56 206.754L1322.49 214.907" stroke="#043866" stroke-miterlimit="10" stroke-linecap="round"/>
<path id="Vector_127" d="M1316.26 215.198L1320.36 222.027" stroke="#043866" stroke-miterlimit="10" stroke-linecap="round"/>
</g>
<g id="leaf_12">
<path id="Vector_128" d="M1610.57 493.753C1608.89 497.558 1604.43 498.441 1598.96 496.902C1592.89 495.158 1589.44 491.798 1590.22 488.662C1591 485.526 1594.97 483.783 1601.83 485.513C1607.43 486.931 1612.03 490.509 1610.57 493.753Z" fill="#A4C673" stroke="#043866" stroke-miterlimit="10" stroke-linecap="round"/>
<path id="Vector_129" d="M1590.22 488.662L1610.58 493.792" stroke="#043866" stroke-miterlimit="10" stroke-linecap="round"/>
<path id="Vector_130" d="M1595.21 484.924L1597.92 490.572" stroke="#043866" stroke-miterlimit="10" stroke-linecap="round"/>
<path id="Vector_131" d="M1601.11 485.34L1605.36 492.43" stroke="#043866" stroke-miterlimit="10" stroke-linecap="round"/>
<path id="Vector_132" d="M1592.2 493.476L1600.26 491.163" stroke="#043866" stroke-miterlimit="10" stroke-linecap="round"/>
<path id="Vector_133" d="M1600.84 497.371L1607.47 492.961" stroke="#043866" stroke-miterlimit="10" stroke-linecap="round"/>
</g>
<g id="leaf_13">
<path id="Vector_134" d="M328.738 1.08014C332.302 3.2201 332.619 7.75342 330.406 12.9911C327.914 18.7977 324.148 21.7957 321.135 20.6269C318.121 19.4581 316.889 15.3056 319.467 8.716C321.577 3.33171 325.703 -0.774498 328.738 1.08014Z" fill="#A4C673" stroke="#043866" stroke-miterlimit="10" stroke-linecap="round"/>
<path id="Vector_135" d="M321.135 20.6269L328.777 1.07422" stroke="#043866" stroke-miterlimit="10" stroke-linecap="round"/>
<path id="Vector_136" d="M318.051 15.2119L323.995 13.2242" stroke="#043866" stroke-miterlimit="10" stroke-linecap="round"/>
<path id="Vector_137" d="M319.205 9.40372L326.772 6.07764" stroke="#043866" stroke-miterlimit="10" stroke-linecap="round"/>
<path id="Vector_138" d="M326.16 19.2638L324.875 10.9844" stroke="#043866" stroke-miterlimit="10" stroke-linecap="round"/>
<path id="Vector_139" d="M331.107 11.1828L327.563 4.05353" stroke="#043866" stroke-miterlimit="10" stroke-linecap="round"/>
</g>
<g id="leaf_14">
<path id="Vector_140" d="M95.4564 242.784C91.3159 243.161 88.385 239.688 87.0801 234.154C85.6649 227.995 86.9352 223.353 90.0575 222.518C93.1799 221.683 96.6252 224.308 98.4339 231.148C99.9086 236.74 99.0013 242.49 95.4564 242.784Z" fill="#A4C673" stroke="#043866" stroke-miterlimit="10" stroke-linecap="round"/>
<path id="Vector_141" d="M90.0573 222.518L95.4277 242.812" stroke="#043866" stroke-miterlimit="10" stroke-linecap="round"/>
<path id="Vector_142" d="M95.7426 225.069L92.1172 230.182" stroke="#043866" stroke-miterlimit="10" stroke-linecap="round"/>
<path id="Vector_143" d="M98.2395 230.439L94.0938 237.59" stroke="#043866" stroke-miterlimit="10" stroke-linecap="round"/>
<path id="Vector_144" d="M86.8061 226.584L92.7297 232.509" stroke="#043866" stroke-miterlimit="10" stroke-linecap="round"/>
<path id="Vector_145" d="M87.5812 236.027L94.6498 239.691" stroke="#043866" stroke-miterlimit="10" stroke-linecap="round"/>
</g>
</g>
</svg>
