<svg width="107" height="71" viewBox="0 0 107 71" fill="none" xmlns="http://www.w3.org/2000/svg">
<path d="M91.7909 7.66949C92.0335 8.25013 92.493 8.71171 93.0693 8.95365C93.6455 9.19558 94.2918 9.19825 94.8672 8.96107L96.4202 12.72C96.1271 12.8327 95.8596 13.0034 95.6334 13.2223C95.4072 13.4412 95.2268 13.7037 95.1027 13.9945C94.9787 14.2853 94.9136 14.5985 94.9112 14.9158C94.9088 15.2331 94.9691 15.548 95.0887 15.8421C95.2083 16.1362 95.3847 16.4036 95.6075 16.6285C95.8304 16.8535 96.0952 17.0315 96.3865 17.1521C96.6778 17.2728 96.9897 17.3336 97.3039 17.331C97.6181 17.3284 97.9282 17.2625 98.2161 17.1372L99.7677 20.8911C99.4747 21.0038 99.2072 21.1746 98.9809 21.3935C98.7547 21.6123 98.5743 21.8749 98.4503 22.1657C98.3263 22.4565 98.2611 22.7697 98.2587 23.087C98.2563 23.4042 98.3167 23.7191 98.4362 24.0132C98.5558 24.3074 98.7322 24.5747 98.9551 24.7997C99.1779 25.0246 99.4428 25.2027 99.7341 25.3233C100.025 25.4439 100.337 25.5047 100.651 25.5022C100.966 25.4996 101.276 25.4337 101.564 25.3084L103.008 28.8624L3.873 69.4597L2.42863 65.9056C3.00222 65.664 3.45667 65.2026 3.69293 64.6221C3.92919 64.0416 3.9281 63.389 3.6899 62.8065C3.4486 62.226 2.99013 61.7641 2.41464 61.5219C1.83915 61.2796 1.19342 61.2766 0.618514 61.5136L-0.934459 57.7547C-0.360937 57.5144 0.0937794 57.0541 0.330359 56.4743C0.566939 55.8945 0.566155 55.2425 0.328174 54.6605C0.211031 54.3701 0.0383817 54.1054 -0.179867 53.8819C-0.398117 53.6584 -0.657672 53.4803 -0.94365 53.3578C-1.22963 53.2354 -1.5364 53.1711 -1.84638 53.1685C-2.15635 53.1659 -2.46342 53.2252 -2.74998 53.3428L-4.3016 49.5889C-3.72801 49.3473 -3.27356 48.8859 -3.0373 48.3054C-2.80104 47.7249 -2.80213 47.0722 -3.04033 46.4898C-3.2791 45.9049 -3.73695 45.4379 -4.31378 45.191C-4.8906 44.9441 -5.53946 44.9372 -6.11848 45.1721L-7.56151 41.6229L91.5686 1.02699L93.013 4.58106C92.45 4.83122 92.0073 5.294 91.779 5.87086C91.5507 6.44772 91.555 7.09307 91.7909 7.66949V7.66949Z" fill="#66CCB4" stroke="#043866" stroke-miterlimit="10"/>
<path d="M81.4882 9.31228L5.53613 40.4121L13.9787 61.1913L89.9307 30.0915L81.4882 9.31228Z" fill="#1471D0" stroke="#043866" stroke-miterlimit="10"/>
</svg>
