<svg width="156" height="228" viewBox="0 0 156 228" fill="none" xmlns="http://www.w3.org/2000/svg">
<g id="suitcase" clip-path="url(#clip0_566_7699)">
<path id="Vector" d="M134.588 129.323C134.584 135.313 134.09 141.293 133.11 147.203C133.047 147.623 132.834 148.006 132.511 148.281C132.188 148.557 131.776 148.706 131.352 148.702L130.545 148.7L130.547 147.401L131.733 147.396C131.795 147.35 131.848 147.293 131.888 147.227C131.929 147.162 131.956 147.088 131.968 147.012C133.91 135.302 133.909 123.352 131.967 111.642C131.955 111.565 131.929 111.491 131.889 111.425C131.848 111.358 131.796 111.301 131.733 111.255L130.547 111.26L130.55 109.96L131.351 109.964C131.775 109.958 132.186 110.106 132.51 110.379C132.834 110.653 133.048 111.034 133.114 111.453C134.092 117.359 134.585 123.336 134.588 129.323V129.323Z" fill="#66CCB4" stroke="#043866" stroke-miterlimit="10"/>
<path id="Vector_2" d="M114.657 52.3098L43.7192 52.5056C34.3323 52.5315 26.7437 60.1621 26.7696 69.549L27.0996 189.118C27.1255 198.504 34.7561 206.093 44.143 206.067L115.081 205.871C124.468 205.845 132.057 198.215 132.031 188.828L131.701 69.2594C131.675 59.8725 124.044 52.2839 114.657 52.3098Z" fill="#F9B84E" stroke="#043866" stroke-miterlimit="10"/>
<path id="Vector_3" d="M67.3712 16.2242L60.1865 16.2239L60.1848 52.5349L67.3695 52.5352L67.3712 16.2242Z" fill="#AFB6BC" stroke="#043866" stroke-miterlimit="10"/>
<path id="Vector_4" d="M95.965 16.2297L88.7803 16.2294L88.7785 52.5404L95.9632 52.5408L95.965 16.2297Z" fill="#AFB6BC" stroke="#043866" stroke-miterlimit="10"/>
<path id="Vector_5" d="M60.3413 10.8739L95.8541 10.8756C96.7881 10.8757 97.6839 11.2468 98.3444 11.9073C99.0049 12.5678 99.3759 13.4637 99.3758 14.3977L99.3758 15.1726C99.3758 15.4839 99.2521 15.7825 99.0319 16.0027C98.8117 16.2228 98.5131 16.3465 98.2018 16.3465L57.9462 16.3445C57.6348 16.3445 57.3362 16.2208 57.1161 16.0006C56.8959 15.7805 56.7722 15.4818 56.7723 15.1705L56.7723 14.3956C56.7723 13.9292 56.8649 13.4673 57.0449 13.037C57.2248 12.6066 57.4885 12.2162 57.8205 11.8886C58.1526 11.5609 58.5464 11.3025 58.9791 11.1283C59.4119 10.9542 59.8749 10.8677 60.3413 10.8739V10.8739Z" fill="#66CCB4" stroke="#043866" stroke-miterlimit="10"/>
<g id="Group 65">
<path id="Vector_6" d="M56.1572 223.408L52.1302 223.408L50.5657 206.352L57.7181 206.352L56.1572 223.408Z" fill="#AFB6BC" stroke="#043866" stroke-miterlimit="10"/>
<path id="Vector_7" d="M104.012 223.409L99.9847 223.409L98.4202 206.353L105.578 206.352L104.012 223.409Z" fill="#AFB6BC" stroke="#043866" stroke-miterlimit="10"/>
<path id="Vector_8" d="M62.3574 206.116L66.6424 206.116L66.6419 217.111C66.6419 217.679 66.4161 218.224 66.0143 218.626C65.6125 219.027 65.0675 219.253 64.4993 219.253C63.9311 219.253 63.3861 219.027 62.9843 218.625C62.5826 218.224 62.3569 217.679 62.3569 217.11L62.3574 206.116Z" fill="#AFB6BC" stroke="#043866" stroke-miterlimit="10"/>
<path id="Vector_9" d="M67.4727 206.114L71.7518 206.114L71.7513 217.096C71.7512 217.665 71.5255 218.21 71.1237 218.611C70.7218 219.013 70.1769 219.239 69.6087 219.239C69.0404 219.239 68.4955 219.013 68.0937 218.611C67.6919 218.209 67.4662 217.664 67.4663 217.096L67.4668 206.114L67.4727 206.114Z" fill="#AFB6BC" stroke="#043866" stroke-miterlimit="10"/>
<path id="Vector_10" d="M84.375 206.124L88.6542 206.124L88.6536 217.107C88.6544 217.39 88.599 217.671 88.4905 217.932C88.3821 218.194 88.2228 218.432 88.0219 218.632C87.821 218.831 87.5825 218.989 87.3201 219.096C87.0577 219.203 86.7768 219.257 86.4934 219.255V219.255C85.9252 219.255 85.3803 219.029 84.9785 218.627C84.5767 218.225 84.351 217.68 84.351 217.112L84.3516 206.124L84.375 206.124Z" fill="#AFB6BC" stroke="#043866" stroke-miterlimit="10"/>
<path id="Vector_11" d="M91.0332 205.966L95.3117 205.954L95.342 216.935C95.3436 217.503 95.1194 218.049 94.7187 218.452C94.3181 218.854 93.7739 219.082 93.2057 219.083C92.6386 219.083 92.0946 218.858 91.693 218.458C91.2915 218.057 91.0651 217.514 91.0635 216.947L91.0332 205.966Z" fill="#AFB6BC" stroke="#043866" stroke-miterlimit="10"/>
</g>
</g>
<defs>
<clipPath id="clip0_566_7699">
<rect width="125.4" height="219.839" fill="white" transform="translate(0 17.9012) rotate(-8.2072)"/>
</clipPath>
</defs>
</svg>
