<svg width="300" height="67" viewBox="0 0 300 67" fill="none" xmlns="http://www.w3.org/2000/svg">
<path d="M1.54915 62.7504C2.17344 62.4073 2.78648 62.0474 3.4164 61.7099L5.32302 60.7369C5.96418 60.4276 6.59972 60.107 7.24651 59.8089L9.20374 58.9484C10.5142 58.386 11.8303 57.8236 13.1407 57.3286C13.7987 57.0587 14.4736 56.8337 15.1429 56.5975C15.8122 56.3613 16.4871 56.1251 17.162 55.9001C19.8617 55.0002 22.5782 54.1453 25.3228 53.4029C28.0674 52.6605 30.8289 51.9744 33.6129 51.3613C36.3969 50.7483 39.1978 50.1915 42.0493 49.7584L44.1696 49.4491C44.8783 49.3535 45.5926 49.2804 46.3012 49.196L48.4215 48.9767C49.1358 48.9148 49.8557 48.8754 50.57 48.8192C53.4606 48.6222 56.3605 48.5996 59.2538 48.7517C59.9893 48.8047 60.7215 48.8967 61.4473 49.0273C62.1843 49.1538 62.9131 49.3247 63.6295 49.5391C65.1292 49.9633 66.5407 50.6528 67.797 51.575L67.842 51.6088C68.0011 51.7498 68.117 51.9329 68.1762 52.137C68.2355 52.3412 68.2357 52.5579 68.1769 52.7621C68.118 52.9664 68.0025 53.1497 67.8437 53.291C67.6849 53.4323 67.4893 53.5257 67.2796 53.5604C65.8792 53.701 64.5406 53.7854 63.1964 53.8529L62.1841 53.9147C61.8522 53.9147 61.5091 53.9147 61.1717 53.9485C60.5024 53.9878 59.8275 53.9935 59.1526 54.0103H58.1346H57.1166C56.4417 54.0103 55.7556 54.0553 55.075 54.0778L53.0278 54.1903L50.9806 54.3422L46.8749 54.7021L44.8164 54.9102L42.7973 55.2083C40.0527 55.5458 37.3081 55.8832 34.5747 56.3332C29.1023 57.1937 23.6637 58.3129 18.2925 59.7077C12.9137 61.0599 7.6149 62.7123 2.42091 64.657C2.17752 64.7595 1.90393 64.764 1.65732 64.6695C1.41071 64.575 1.21018 64.3888 1.09762 64.1499C0.985065 63.911 0.969203 63.6378 1.05335 63.3875C1.1375 63.1372 1.31514 62.9291 1.54915 62.8066V62.7504Z" fill="#FFD7C5"/>
<path d="M74.8553 48.4591C75.441 48.1278 76.0666 47.8727 76.7169 47.6998C77.3544 47.5386 78.0003 47.4128 78.6516 47.323C79.9426 47.1214 81.2485 47.0311 82.5549 47.053C83.8407 47.0984 85.1184 47.2756 86.3681 47.5817C87.6181 47.876 88.8152 48.3617 89.917 49.0215L89.9676 49.0552C90.2835 49.2495 90.5094 49.5611 90.5958 49.9216C90.6823 50.2822 90.6222 50.6624 90.4288 50.9787C90.3056 51.1753 90.136 51.3385 89.935 51.4542C89.734 51.57 89.5076 51.6346 89.2758 51.6424C86.897 51.6249 84.522 51.4483 82.1668 51.1137C81.0082 50.99 79.8552 50.8156 78.7023 50.7481C77.5341 50.7229 76.3682 50.6347 75.2096 50.4838C74.989 50.449 74.7846 50.3467 74.6245 50.1909C74.4645 50.0351 74.3567 49.8336 74.3159 49.614C74.2752 49.3944 74.3036 49.1675 74.3972 48.9647C74.4908 48.7619 74.6449 48.5931 74.8384 48.4816L74.8553 48.4591Z" fill="white"/>
<path d="M277.638 21.167C273.253 18.5492 268.697 16.2304 264 14.2267C259.303 12.1795 254.495 10.3628 249.624 8.75994C244.753 7.15703 239.815 5.75659 234.787 4.66549C229.789 3.52295 224.714 2.75033 219.602 2.35393C219.442 2.35393 219.289 2.29053 219.176 2.17767C219.063 2.06481 219 1.91174 219 1.75214C219 1.59253 219.063 1.43946 219.176 1.3266C219.289 1.21375 219.442 1.15034 219.602 1.15034H219.652L221.61 1.0941C222.268 1.0941 222.926 1.03223 223.578 1.05473C224.883 1.10535 226.199 1.12222 227.515 1.19534C228.831 1.26845 230.136 1.35844 231.452 1.47655C232.768 1.59466 234.062 1.74651 235.389 1.92086L239.287 2.48329C240.58 2.70263 241.863 2.96135 243.156 3.19756L247.014 4.0187C248.297 4.29992 249.568 4.63175 250.844 4.95795C253.387 5.62724 255.906 6.34151 258.437 7.12891C259.703 7.50573 260.94 7.96129 262.194 8.38874C263.448 8.81618 264.68 9.28299 265.923 9.7498C267.166 10.2166 268.392 10.7172 269.624 11.2177C270.863 11.7189 272.071 12.2955 273.24 12.9444C275.649 14.2266 277.824 15.9055 279.674 17.9106L280.04 18.3211C280.343 18.6575 280.515 19.0923 280.524 19.5454C280.532 19.9985 280.376 20.4393 280.085 20.7866C279.794 21.1339 279.387 21.3642 278.939 21.4352C278.492 21.5061 278.034 21.4129 277.65 21.1726L277.638 21.167Z" fill="#FFD7C5"/>
<path d="M297.256 23.5292C296.221 22.275 295.197 21.0152 294.078 19.8397L293.246 18.9511L292.38 18.0962C291.817 17.5338 291.198 16.9714 290.602 16.4089C288.17 14.2273 285.533 12.2854 282.728 10.6103C277.039 7.2728 270.882 4.80817 264.461 3.29884C264.345 3.24638 264.251 3.15639 264.193 3.0435C264.135 2.9306 264.117 2.80143 264.142 2.67697C264.166 2.55252 264.233 2.4401 264.329 2.35797C264.426 2.27584 264.548 2.22885 264.675 2.22461C265.507 2.34834 266.362 2.46645 267.172 2.60706C267.982 2.74766 268.82 2.93889 269.652 3.10761L270.889 3.37195L272.121 3.69254C272.942 3.90063 273.763 4.10873 274.568 4.38432C277.839 5.37847 281.01 6.67775 284.039 8.26504L286.288 9.52487C287.014 9.98606 287.756 10.4304 288.476 10.8972C289.196 11.364 289.905 11.8702 290.591 12.3876L291.62 13.1806C291.969 13.4393 292.306 13.7037 292.633 13.9905C293.296 14.5529 293.971 15.1154 294.595 15.6778C295.256 16.2774 295.876 16.9199 296.451 17.6013C297.625 18.8986 298.563 20.3908 299.224 22.0107L299.348 22.32C299.454 22.5921 299.459 22.893 299.364 23.169C299.269 23.445 299.078 23.678 298.827 23.8267C298.576 23.9753 298.28 24.0298 297.992 23.9805C297.704 23.9312 297.443 23.7812 297.256 23.5573V23.5292Z" fill="white"/>
<path d="M30.8743 16.9807C31.4013 16.6485 31.9961 16.4387 32.6149 16.3668C33.1441 16.313 33.6761 16.4364 34.1276 16.7177C34.579 16.999 34.9243 17.4222 35.1092 17.9209C35.3275 18.4348 35.4613 18.9806 35.5055 19.5372C35.5602 19.8214 35.5553 20.1139 35.4911 20.3961C35.4269 20.6783 35.3048 20.9441 35.1325 21.1767C34.907 21.3844 34.6213 21.5151 34.3166 21.5497C34.1443 21.5615 33.9716 21.534 33.8114 21.4694C33.6513 21.4048 33.5078 21.3047 33.3919 21.1767C33.1061 20.8587 32.9268 20.4594 32.8791 20.0345C32.7625 19.4361 32.6304 19.1409 32.4673 19.1564C32.3041 19.1719 31.9233 19.4828 31.3405 20.1122C29.5171 22.1325 28.6468 24.9143 28.7297 28.4576C28.7297 28.5742 28.7297 28.7451 28.7297 28.9782C28.7297 29.2113 28.7297 29.3745 28.7297 29.4678C28.7681 30.3932 28.99 31.3018 29.3824 32.1408C29.7129 32.7965 30.2327 33.3379 30.8743 33.6949C31.2319 33.8975 31.6367 34.0021 32.0477 33.9979C32.5726 33.9221 33.067 33.7045 33.4774 33.3685C33.9302 33.0775 34.2981 32.672 34.5437 32.193C34.7893 31.714 34.904 31.1786 34.8761 30.6411C34.8522 30.3051 34.7557 29.9784 34.5934 29.6832C34.4311 29.3881 34.2068 29.1317 33.9359 28.9316C33.2873 28.4534 32.5171 28.1679 31.7135 28.1079C30.75 27.9836 30.2371 27.5562 30.1594 26.8103C30.0817 26.0643 30.6334 25.5515 31.7135 25.2562C33.8417 24.6246 36.0091 24.134 38.2018 23.7876C38.4006 23.764 38.6014 23.764 38.8001 23.7876C39.1403 23.853 39.4521 24.0212 39.6937 24.2693C39.8927 24.5973 39.9975 24.9736 39.9968 25.3572C39.9968 25.5437 39.9968 25.94 39.9968 26.5461C39.9968 26.7792 39.9968 27.2066 40.0512 27.836C40.1213 29.9445 40.4687 32.0345 41.0846 34.0523C41.2003 34.3636 41.2811 34.6867 41.3255 35.0158C41.3425 35.1904 41.3236 35.3665 41.2702 35.5335C41.2168 35.7005 41.1298 35.8549 41.0147 35.9871C40.9019 36.1247 40.7626 36.2383 40.6051 36.321C40.4476 36.4038 40.2751 36.4541 40.0978 36.4689C39.7903 36.4985 39.4835 36.4064 39.2431 36.2125C38.8468 35.9871 38.466 34.8837 37.992 32.9023L37.6812 31.4492L37.2305 32.6614C36.8482 33.4704 36.3423 34.2149 35.7308 34.8682C35.2308 35.4899 34.5957 35.9894 33.8737 36.329C33.3785 36.5383 32.8546 36.6719 32.3196 36.7253C30.9975 36.8056 29.696 36.3681 28.6908 35.5054C27.5431 34.5524 26.727 33.2602 26.3597 31.8144C26.2019 31.1886 26.1107 30.5479 26.0877 29.9029C25.9434 28.3941 25.9773 26.8736 26.1888 25.3727C26.512 23.5621 27.1232 21.8149 27.9993 20.1976C28.6609 18.8931 29.652 17.7841 30.8743 16.9807ZM37.4092 27.7738C37.4066 27.4687 37.3621 27.1654 37.2771 26.8724C37.2228 26.7636 37.1062 26.7093 36.9197 26.7248C36.4535 26.7248 36.2281 26.8802 36.2437 27.09C36.3463 27.411 36.5099 27.7091 36.7254 27.9681C36.9134 28.2966 37.1462 28.5973 37.417 28.8617C37.4784 28.5014 37.4758 28.1331 37.4092 27.7738Z" fill="#F48E9F"/>
<path d="M46.0268 21.3539C46.4208 20.8599 46.9099 20.45 47.4651 20.1483C48.0204 19.8467 48.6305 19.6595 49.2593 19.5978C49.8129 19.5764 50.3651 19.6662 50.8833 19.862C51.5562 20.0844 52.1626 20.4717 52.6472 20.9887C53.1529 21.6038 53.5402 22.3072 53.7895 23.0634C53.9086 23.3712 53.9743 23.6971 53.9837 24.027C54.0016 24.6317 53.8895 25.2332 53.6549 25.7909C53.4203 26.3485 53.0687 26.8494 52.6239 27.2595C51.6239 28.2858 50.3328 28.9802 48.9252 29.2487C48.4905 29.3522 48.0491 29.4249 47.6042 29.4663C47.465 29.4852 47.3239 29.4852 47.1846 29.4663L46.4775 29.3497L46.563 30.9038C46.5579 31.7138 46.7471 32.5131 47.1147 33.2349C47.2131 33.486 47.3703 33.7099 47.5732 33.8876C47.8166 33.999 48.0826 34.0522 48.3502 34.043H48.6299C49.4183 33.8817 50.1629 33.5531 50.8134 33.0795C51.4824 32.5979 52.2364 32.2473 53.0358 32.046C53.1798 32.0345 53.3245 32.0558 53.4591 32.1083C53.5937 32.1608 53.7146 32.2431 53.8128 32.3491C53.9397 32.4545 54.0437 32.5846 54.1185 32.7316C54.1933 32.8786 54.2374 33.0393 54.2479 33.2038C54.2868 33.9809 53.4709 34.8123 51.6604 35.7992C51.161 36.094 50.6418 36.3536 50.1063 36.5762C49.1591 36.7749 48.1888 36.8403 47.2235 36.7705C46.8948 36.6878 46.584 36.5456 46.3066 36.3509C45.6882 35.9282 45.1773 35.3667 44.8147 34.7113C44.5221 34.2762 44.2968 33.7994 44.1464 33.2971C44.0054 32.574 43.9171 31.8417 43.8822 31.1058L43.8356 30.2744C43.6076 26.2182 44.3381 23.2447 46.0268 21.3539ZM50.3006 22.5584C50.0507 22.3852 49.749 22.3029 49.4458 22.3252C49.0253 22.372 48.6306 22.5517 48.3191 22.8381C47.9157 23.3034 47.5856 23.8274 47.34 24.3922C47.0485 24.9275 46.8712 25.5176 46.8194 26.125V26.7544L47.9384 26.6611C48.5716 26.5896 49.1886 26.4137 49.7644 26.1405C50.1815 25.871 50.5516 25.5351 50.86 25.1459C51.1217 24.8902 51.2888 24.5532 51.334 24.1901C51.2944 23.87 51.1741 23.5652 50.9844 23.3043C50.8164 23.0067 50.5825 22.7515 50.3006 22.5584Z" fill="#F48E9F"/>
<path d="M61.3887 16.0405C61.4222 15.8971 61.487 15.7629 61.5783 15.6474C61.6696 15.5319 61.7853 15.438 61.917 15.3722C62.1985 15.1989 62.5193 15.1 62.8495 15.0847C63.1238 15.072 63.3967 15.1305 63.6418 15.2544C63.8869 15.3782 64.0958 15.5634 64.2482 15.7918C64.3774 15.9494 64.4584 16.141 64.4813 16.3435C64.4736 16.5326 64.4449 16.7202 64.3958 16.903C64.2826 17.471 64.2253 18.0488 64.2249 18.628V19.677L65.235 19.5294C65.43 19.4934 65.6274 19.4726 65.8256 19.4672C66.16 19.4637 66.4858 19.5732 66.7502 19.778C66.9196 19.8983 67.057 20.0582 67.1505 20.2438C67.2439 20.4293 67.2906 20.6349 67.2864 20.8426C67.2989 21.0554 67.2726 21.2686 67.2087 21.472C67.0455 21.9227 66.3617 22.249 65.1573 22.4355L64.1471 22.622L64.0617 23.6477C63.8669 26.6432 63.8358 29.647 63.9684 32.6459C64.0228 33.928 64.0384 34.7128 63.9684 34.977C63.936 35.2677 63.8106 35.5402 63.611 35.754C63.5077 35.8957 63.3752 36.0135 63.2223 36.0993C63.0694 36.1851 62.8999 36.237 62.7252 36.2513C62.3687 36.2443 62.0266 36.1091 61.7616 35.8706C61.5455 35.7117 61.3894 35.4844 61.3187 35.2256C61.2069 34.5803 61.1316 33.9291 61.0934 33.2753V32.5448C61.0364 31.286 61.0183 29.6309 61.039 27.5795C61.039 25.5204 61.0934 24.1994 61.1633 23.6166L61.2332 22.9795L60.2619 23.1659C59.5237 23.2903 58.9487 23.3991 58.5291 23.4845C58.4051 23.5192 58.2771 23.5375 58.1484 23.5389C57.9922 23.5319 57.839 23.4939 57.6976 23.4272C57.5562 23.3606 57.4295 23.2665 57.3247 23.1504C57.1542 22.9928 57.0179 22.8017 56.9244 22.5892C56.8308 22.3766 56.7819 22.1471 56.7808 21.9149C56.7423 21.7093 56.7594 21.4972 56.8305 21.3004C56.9015 21.1037 57.0239 20.9295 57.1848 20.796C57.8688 20.5147 58.598 20.3594 59.3373 20.3375C59.9685 20.2906 60.5948 20.1918 61.2099 20.0422C61.3261 19.4304 61.3575 18.8055 61.3032 18.1851C61.2797 17.4691 61.3083 16.7523 61.3887 16.0405Z" fill="#F48E9F"/>
<path d="M81.6774 19.854C82.0841 19.3719 82.5844 18.9773 83.1481 18.6942C83.7117 18.411 84.3269 18.2452 84.9565 18.2067C85.511 18.1967 86.0615 18.3026 86.5728 18.5175C87.239 18.7578 87.8328 19.1644 88.2978 19.6986C88.7853 20.3286 89.1539 21.0422 89.3857 21.8044C89.4891 22.1207 89.5441 22.4508 89.5488 22.7835C89.5424 23.388 89.4082 23.9844 89.1551 24.5334C88.902 25.0825 88.5357 25.5718 88.0802 25.9693C87.0482 26.9643 85.7353 27.618 84.3193 27.842C83.8811 27.9306 83.437 27.9878 82.9906 28.013C82.8512 28.0294 82.7104 28.0294 82.571 28.013L81.9027 27.8886V29.4427C81.8704 30.2466 82.0331 31.0464 82.3767 31.7738C82.4701 32.0263 82.6188 32.2546 82.8119 32.4421C83.0431 32.5515 83.2944 32.6123 83.5501 32.6208H83.8298C84.6486 32.4739 85.4255 32.1504 86.1065 31.6728C86.788 31.2136 87.5498 30.8868 88.3522 30.7093C88.4987 30.7016 88.6449 30.7278 88.7797 30.7857C88.9144 30.8437 89.034 30.9318 89.1292 31.0434C89.251 31.1528 89.3495 31.2854 89.4189 31.4336C89.4883 31.5818 89.5272 31.7424 89.5333 31.9059C89.5333 32.6519 88.6449 33.4885 86.868 34.4158C86.3696 34.6858 85.8498 34.9145 85.3139 35.0996C84.8118 35.2321 84.2948 35.3 83.7754 35.3016C83.3137 35.3293 82.8504 35.3111 82.3923 35.2472C82.0467 35.1492 81.7243 34.9827 81.4443 34.7577C80.8398 34.3191 80.3472 33.744 80.0068 33.0793C79.7352 32.66 79.5233 32.205 79.3773 31.7272C79.2615 30.9996 79.1966 30.2648 79.1831 29.5282V28.689C79.095 24.6328 79.9265 21.6878 81.6774 19.854ZM85.9045 21.1828C85.6574 21.0079 85.3602 20.9179 85.0575 20.9263C84.635 20.9606 84.2347 21.1295 83.9153 21.4081C83.4944 21.8694 83.1483 22.3938 82.8896 22.9622C82.5808 23.4857 82.385 24.068 82.3146 24.6717V25.2622L83.4257 25.2078C84.0633 25.1534 84.6879 24.9959 85.2751 24.7416C85.6991 24.4849 86.0794 24.1623 86.4018 23.7859C86.6586 23.5413 86.8279 23.2192 86.8836 22.8689C86.8529 22.5469 86.7434 22.2374 86.565 21.9676C86.4058 21.6602 86.1802 21.3921 85.9045 21.1828Z" fill="#F48E9F"/>
<path d="M101.298 19.9939C102.235 19.0096 102.904 18.5123 103.302 18.502C103.507 18.5211 103.708 18.5654 103.901 18.6341C104.122 18.7626 104.296 18.9586 104.398 19.1935C104.548 19.4465 104.636 19.7314 104.654 20.025C104.666 20.0944 104.666 20.1653 104.654 20.2348C104.317 20.8908 103.873 21.4868 103.341 21.9986C102.658 22.7908 102.02 23.621 101.43 24.4852C100.983 25.0425 100.607 25.6533 100.311 26.3035C100.931 27.3572 101.608 28.3766 102.339 29.3572C103.149 30.4982 103.899 31.6809 104.585 32.9005C104.641 33.0438 104.665 33.1977 104.654 33.3512C104.662 33.5256 104.631 33.6994 104.563 33.8605C104.496 34.0215 104.395 34.166 104.266 34.2837C104.009 34.5295 103.666 34.6636 103.31 34.6567C103.144 34.6693 102.978 34.6481 102.821 34.5945C102.25 34.1806 101.774 33.651 101.422 33.0404C100.769 32.139 100.155 31.261 99.5726 30.4062C98.9898 29.5515 98.6557 29.1241 98.5624 29.1241C98.0804 29.7262 97.6588 30.3743 97.3036 31.059C96.5266 32.3488 95.9982 33.3357 95.6796 34.0117C95.4997 34.4475 95.2356 34.8435 94.9026 35.1773C94.6462 35.3929 94.3206 35.5088 93.9857 35.5036C93.7916 35.5181 93.597 35.4854 93.4184 35.4083C93.2397 35.3312 93.0825 35.2119 92.96 35.0607C92.751 34.8162 92.6258 34.5112 92.6025 34.1904C92.6025 33.5843 93.4003 31.9422 94.9958 29.264C95.5946 28.3812 96.0998 27.4385 96.5033 26.4511C96.1406 25.6517 95.6729 24.9043 95.1124 24.2288C94.5453 23.4991 94.0262 22.7334 93.5583 21.9365C93.3273 21.5585 93.1963 21.128 93.1776 20.6854C93.1633 20.4552 93.2167 20.2258 93.3313 20.0255C93.446 19.8253 93.6167 19.663 93.8225 19.5587C94.044 19.4201 94.2994 19.3449 94.5607 19.3412C95.1435 19.3412 95.7262 19.8152 96.3246 20.7865C96.6757 21.3963 97.0731 21.9782 97.5134 22.527C98.0185 23.172 98.3371 23.4983 98.4537 23.4906C98.5702 23.4828 98.8344 23.1409 99.3162 22.4338C99.8988 21.5602 100.562 20.7433 101.298 19.9939Z" fill="#F48E9F"/>
<path d="M112.525 14.9357C112.568 14.7948 112.639 14.6644 112.736 14.5532C112.832 14.4421 112.951 14.3526 113.085 14.2907C113.376 14.1322 113.702 14.0493 114.033 14.0499C114.308 14.0474 114.579 14.118 114.818 14.2546C115.057 14.3911 115.255 14.5886 115.393 14.8269C115.515 14.9891 115.588 15.1835 115.602 15.3864C115.588 15.5764 115.551 15.7641 115.494 15.9458C115.351 16.508 115.267 17.0835 115.245 17.6631L115.175 18.7121L116.193 18.6033C116.39 18.5898 116.587 18.5898 116.784 18.6033C117.117 18.6149 117.437 18.738 117.693 18.953C117.855 19.0824 117.984 19.2486 118.069 19.4377C118.154 19.6269 118.193 19.8337 118.182 20.0409C118.18 20.2552 118.143 20.4677 118.073 20.6703C117.887 21.1132 117.188 21.4007 115.975 21.5406L114.957 21.6804L114.856 22.6906C114.522 25.6731 114.354 28.6719 114.351 31.6732C114.368 32.4511 114.342 33.2293 114.274 34.0043C114.237 34.2985 114.103 34.5721 113.893 34.7813C113.783 34.918 113.645 35.0295 113.488 35.1086C113.331 35.1876 113.159 35.2324 112.984 35.2398C112.628 35.2184 112.291 35.0695 112.036 34.8202C111.827 34.6489 111.68 34.4143 111.616 34.1519C111.57 33.9188 111.531 33.2661 111.484 32.1938V31.4168C111.484 30.1579 111.538 28.5028 111.647 26.4515C111.756 24.4078 111.857 23.0869 111.95 22.5041L112.059 21.8747L111.08 22.0145C110.303 22.1078 109.751 22.1855 109.332 22.2554C109.203 22.27 109.072 22.27 108.943 22.2554C108.639 22.2221 108.361 22.0715 108.166 21.8358C108.003 21.6705 107.875 21.4736 107.791 21.2571C107.707 21.0406 107.668 20.8091 107.677 20.577C107.647 20.3689 107.674 20.1567 107.755 19.9626C107.835 19.7685 107.967 19.5996 108.135 19.4736C108.83 19.2252 109.565 19.1041 110.303 19.1162C110.937 19.0982 111.569 19.0281 112.191 18.9064C112.334 18.3009 112.394 17.6787 112.37 17.057C112.371 16.3471 112.423 15.6382 112.525 14.9357Z" fill="#F48E9F"/>
<path d="M121.789 19.9255C122.068 19.6718 122.429 19.5282 122.807 19.5215C122.99 19.5232 123.17 19.5627 123.338 19.6376C123.505 19.7124 123.655 19.8211 123.778 19.9566C123.895 20.0625 123.989 20.1919 124.054 20.3365C124.118 20.4811 124.151 20.6376 124.151 20.7958C124.151 20.8425 124.151 21.1222 124.073 21.635L123.949 22.8705L125.153 21.705C125.668 21.1667 126.257 20.7037 126.902 20.3296C127.443 20.0669 128.041 19.9415 128.642 19.9644C128.863 19.9679 129.083 19.9835 129.303 20.011C130.911 20.1975 131.929 20.687 132.364 21.4874C132.454 21.6419 132.502 21.8175 132.502 21.9964C132.502 22.1752 132.454 22.3508 132.364 22.5053C132.233 22.7458 132.038 22.9454 131.801 23.0825C131.564 23.2196 131.294 23.2887 131.02 23.2824C130.714 23.2795 130.41 23.2297 130.118 23.1347C129.668 22.9726 129.197 22.8707 128.72 22.8317C127.943 22.8317 127.243 23.4611 126.529 24.7587C126.06 25.7538 125.698 26.7956 125.448 27.8669C125.141 28.8945 124.946 29.9522 124.866 31.0217C124.858 31.0732 124.858 31.1256 124.866 31.1771C124.866 31.2393 124.866 31.2781 124.866 31.3014C124.879 31.4176 124.879 31.535 124.866 31.6511C124.818 31.9803 124.665 32.2854 124.431 32.5214C124.298 32.6933 124.127 32.832 123.931 32.9264C123.736 33.0208 123.521 33.0683 123.304 33.0653C122.997 33.0491 122.702 32.9423 122.456 32.7583C122.209 32.5744 122.023 32.3216 121.921 32.0319C121.403 30.9958 121.11 28.6129 121.043 24.8831C121.043 23.6709 120.996 22.9249 121.004 22.6452C120.987 22.0237 121.047 21.4026 121.182 20.7958C121.299 20.4546 121.509 20.153 121.789 19.9255Z" fill="#F48E9F"/>
<path d="M140.5 20.795C140.867 20.7127 141.243 20.6761 141.619 20.6862C142.205 20.7085 142.777 20.8682 143.29 21.1524C143.744 21.4261 144.254 21.5935 144.782 21.642C144.979 21.6452 145.173 21.6905 145.351 21.7749C145.53 21.8594 145.688 21.9809 145.815 22.1315C145.981 22.2974 146.102 22.5035 146.165 22.7298C146.229 23.1488 146.247 23.5735 146.219 23.9964C146.178 25.7929 146.23 27.5902 146.375 29.3813C146.424 30.7089 146.603 32.0285 146.911 33.3209C146.963 33.4651 146.984 33.6187 146.973 33.7716C146.968 33.9532 146.922 34.1313 146.838 34.2927C146.755 34.4541 146.636 34.5947 146.491 34.704C146.214 34.9393 145.86 35.0663 145.496 35.0615C145.352 35.0582 145.21 35.0181 145.085 34.9449C144.726 34.7049 144.454 34.3563 144.308 33.9503C144.067 33.3889 143.912 32.7942 143.849 32.1864C143.795 31.5803 143.709 31.2695 143.593 31.2695C143.476 31.2695 143.173 31.6192 142.691 32.3263C142.163 33.098 141.494 33.7625 140.718 34.2844C140.048 34.6848 139.274 34.8768 138.495 34.8361H138.037C137.55 34.6774 137.113 34.3933 136.77 34.0125C136.323 33.6255 135.965 33.1455 135.721 32.606C135.301 31.4576 135.108 30.2382 135.154 29.0161C135.17 28.5499 135.217 28.0852 135.294 27.6252C135.64 25.9942 136.358 24.4651 137.392 23.1572C138.119 22.0296 139.219 21.1935 140.5 20.795ZM142.21 23.6778C142.03 23.5552 141.83 23.4657 141.619 23.4136C141.411 23.4465 141.209 23.5121 141.021 23.6079C140.086 24.0599 139.326 24.8085 138.861 25.737C138.254 26.7517 137.917 27.9045 137.881 29.086C137.88 29.608 137.932 30.1287 138.037 30.6401C138.081 31.044 138.205 31.4351 138.402 31.7901C138.442 31.8553 138.498 31.9094 138.565 31.9474C138.631 31.9854 138.706 32.0061 138.783 32.0077C139.366 32.0077 140.119 31.3472 141.044 29.9719C141.754 28.8146 142.278 27.5535 142.598 26.2343C142.757 25.7122 142.867 25.1763 142.924 24.6336C142.914 24.4205 142.844 24.2146 142.722 24.0399C142.599 23.8652 142.43 23.7289 142.233 23.6467L142.21 23.6778Z" fill="#F48E9F"/>
<path d="M159.786 20.9347C160.074 20.6887 160.441 20.556 160.819 20.5617C161.002 20.5685 161.182 20.6134 161.347 20.6937C161.511 20.774 161.657 20.8879 161.775 21.0279C161.887 21.1397 161.975 21.2732 162.034 21.4201C162.093 21.5671 162.121 21.7244 162.117 21.8827C162.117 21.9293 162.117 22.209 162.008 22.7141L161.845 23.9341L163.088 22.8073C163.622 22.2878 164.227 21.8458 164.883 21.4941C165.432 21.2503 166.033 21.1462 166.632 21.1911C166.853 21.198 167.074 21.2188 167.292 21.2533C168.893 21.4916 169.895 22.0096 170.299 22.8073C170.384 22.964 170.425 23.1409 170.417 23.3189C170.408 23.4969 170.352 23.6693 170.253 23.8175C170.119 24.061 169.92 24.2625 169.679 24.3997C169.438 24.5369 169.163 24.6044 168.885 24.5945C168.577 24.5783 168.273 24.5154 167.984 24.4081C167.541 24.2294 167.076 24.1143 166.601 24.0662C165.824 24.0662 165.101 24.6412 164.339 25.9155C163.837 26.9071 163.441 27.9489 163.158 29.0237C162.819 30.0326 162.588 31.0744 162.467 32.1318C162.463 32.1862 162.463 32.2407 162.467 32.295C162.467 32.3494 162.467 32.3883 162.467 32.4116C162.479 32.5304 162.479 32.6502 162.467 32.769C162.408 33.0928 162.247 33.3893 162.008 33.616C161.869 33.7836 161.692 33.9164 161.493 34.004C161.293 34.0917 161.076 34.1318 160.858 34.1211C160.553 34.0939 160.262 33.9768 160.023 33.7846C159.783 33.5924 159.606 33.3336 159.514 33.041C159.024 31.992 158.815 29.6065 158.877 25.8689C158.877 24.6567 158.877 23.9107 158.916 23.631C158.92 23.0091 159.004 22.3903 159.164 21.7894C159.281 21.4486 159.498 21.1507 159.786 20.9347Z" fill="#F48E9F"/>
<path d="M176.095 21.3152C176.541 20.868 177.074 20.5162 177.66 20.2811C178.246 20.046 178.875 19.9326 179.506 19.9476C180.049 19.9876 180.578 20.1383 181.06 20.3905C181.702 20.6877 182.258 21.1421 182.676 21.7115C183.111 22.3794 183.416 23.1226 183.578 23.9028C183.66 24.2248 183.689 24.5582 183.663 24.8896C183.609 25.4918 183.427 26.0755 183.129 26.602C182.832 27.1284 182.426 27.5857 181.938 27.9434C180.83 28.8424 179.475 29.3842 178.053 29.4975C177.61 29.5521 177.163 29.5729 176.717 29.5596C176.577 29.5575 176.439 29.5366 176.305 29.4975L175.652 29.3187L175.559 30.8728C175.467 31.6604 175.56 32.4587 175.831 33.2039C175.905 33.4644 176.035 33.7057 176.211 33.9111C176.434 34.0365 176.68 34.1158 176.934 34.1442H177.214C178.017 34.0812 178.797 33.8425 179.498 33.4448C180.22 33.0426 181.011 32.7791 181.829 32.6678C181.969 32.6771 182.104 32.7167 182.226 32.7838C182.348 32.8509 182.454 32.9439 182.537 33.0563C182.649 33.1754 182.737 33.3159 182.794 33.4693C182.851 33.6228 182.877 33.7862 182.871 33.9499C182.824 34.6959 181.868 35.4574 180.003 36.2344C179.479 36.4578 178.939 36.6423 178.387 36.7861C177.886 36.8428 177.381 36.8428 176.88 36.7861C176.42 36.7691 175.962 36.7119 175.512 36.6152C175.194 36.4942 174.902 36.315 174.65 36.0868C174.078 35.6026 173.632 34.9866 173.352 34.2918C173.118 33.8518 172.948 33.3809 172.847 32.8931C172.791 32.1586 172.791 31.4209 172.847 30.6863L172.894 29.8549C173.132 25.8713 174.199 23.0247 176.095 21.3152ZM180.198 23.0014C179.966 22.8053 179.677 22.6883 179.374 22.6673C178.952 22.672 178.542 22.8078 178.201 23.0558C177.73 23.4839 177.331 23.985 177.02 24.5399C176.669 25.0358 176.425 25.5995 176.305 26.195L176.243 26.7545H177.361C177.999 26.7653 178.633 26.6627 179.234 26.4515C179.681 26.2323 180.09 25.9438 180.446 25.5967C180.737 25.3757 180.941 25.0593 181.021 24.7031C181.022 24.3793 180.939 24.0608 180.78 23.7784C180.641 23.4917 180.442 23.2375 180.198 23.0325V23.0014Z" fill="#F48E9F"/>
<path d="M205.117 22.4731C205.27 22.4561 205.423 22.4561 205.576 22.4731C206.008 22.5136 206.42 22.674 206.766 22.9362C207.112 23.1984 207.378 23.552 207.534 23.9572C208.117 25.1228 208.311 27.0654 208.093 29.8239C208.047 30.4067 207.907 31.6188 207.674 33.476C207.316 35.9236 207.021 37.3612 206.788 37.6798C206.663 37.8648 206.494 38.0152 206.296 38.1171C206.097 38.219 205.876 38.2691 205.653 38.2625C205.416 38.2433 205.191 38.151 205.009 37.9984C204.759 37.816 204.561 37.5725 204.434 37.2912C204.318 36.9034 204.289 36.4949 204.348 36.0946C204.348 35.9081 204.465 35.1388 204.667 33.8023C204.954 31.9297 205.141 30.3445 205.242 29.0391C205.389 27.1586 205.312 26.1562 205.024 26.0397H204.993C204.76 26.0397 204.317 26.5448 203.664 27.5938C203.012 28.6428 201.885 30.6398 200.331 33.577C199.938 34.409 199.447 35.1915 198.87 35.9081C198.555 36.3114 198.105 36.5873 197.603 36.6851H197.448C197.407 36.6921 197.365 36.6921 197.324 36.6851C197.018 36.642 196.74 36.4835 196.547 36.2422C196.124 35.7822 195.867 35.1943 195.816 34.5716C195.723 33.8412 195.668 32.0592 195.653 29.2255C195.731 28.0759 195.679 26.9212 195.498 25.7833C195.491 25.7715 195.482 25.7612 195.472 25.7532C195.461 25.7451 195.448 25.7395 195.435 25.7366C195.319 25.7366 195.008 26.0708 194.511 26.7546C193.589 28.134 192.753 29.569 192.009 31.0516C191.295 32.396 190.699 33.8 190.229 35.2476C190.136 35.8629 189.866 36.4378 189.452 36.9027C189.254 37.0629 189.024 37.1795 188.778 37.2451C188.531 37.3107 188.274 37.3238 188.022 37.2835C187.829 37.285 187.637 37.2441 187.462 37.1635C187.286 37.083 187.13 36.9648 187.004 36.8172C186.734 36.3592 186.582 35.8412 186.562 35.3098C186.205 32.3046 186.168 29.2701 186.453 26.2572C186.498 25.4998 186.581 24.7451 186.701 23.9961C186.778 23.7091 186.919 23.4433 187.113 23.219C187.254 23.0763 187.425 22.9657 187.612 22.8946C187.8 22.8236 188.001 22.7938 188.201 22.8072C188.394 22.8275 188.58 22.8885 188.748 22.9863C188.915 23.0841 189.06 23.2164 189.172 23.3744C189.336 23.6485 189.432 23.9574 189.452 24.2758C189.452 24.6021 189.452 25.4569 189.328 26.8245C189.172 28.7516 189.157 29.7229 189.273 29.7306C189.703 29.2109 190.066 28.6392 190.353 28.0289C191.257 26.2191 192.413 24.5472 193.788 23.0636C194.087 22.7454 194.448 22.4921 194.849 22.3197C195.25 22.1472 195.683 22.0592 196.119 22.0612C196.165 22.0538 196.213 22.0538 196.259 22.0612H196.36C196.794 22.1827 197.188 22.4171 197.502 22.7407C197.816 23.0642 198.039 23.4652 198.147 23.9028C198.535 25.5857 198.684 27.3147 198.59 29.0391V30.6864L199.041 29.9093C200.08 27.9334 201.256 26.0327 202.561 24.2214C203.195 23.371 204.095 22.7559 205.117 22.4731Z" fill="#F48E9F"/>
<path d="M212.593 24.2443C212.711 24.1434 212.849 24.0696 212.998 24.028C213.147 23.9863 213.303 23.9779 213.456 24.0034C213.695 24.0156 213.928 24.083 214.137 24.2003C214.346 24.3175 214.525 24.4815 214.66 24.6794C214.838 25.15 214.907 25.6547 214.862 26.1558C214.862 26.8862 214.754 28.6812 214.559 31.5174L214.147 37.9047L213.666 38.2466C213.403 38.4641 213.065 38.57 212.725 38.5418C212.476 38.5146 212.239 38.4136 212.047 38.2517C211.855 38.0898 211.715 37.8743 211.645 37.6327C211.529 37.3841 211.591 35.1384 211.847 30.8724C211.987 28.5413 212.104 26.9328 212.174 26.0936C212.155 25.4516 212.299 24.8154 212.593 24.2443ZM212.422 19.9472C212.697 19.7202 213.045 19.6013 213.401 19.6131C213.78 19.6684 214.125 19.8615 214.371 20.1554C214.616 20.4494 214.744 20.8235 214.73 21.206C214.657 21.6187 214.442 21.9929 214.123 22.265C213.804 22.5371 213.401 22.6901 212.982 22.698C212.722 22.6769 212.474 22.5794 212.269 22.4176C212.064 22.2558 211.912 22.037 211.832 21.7888C211.737 21.5632 211.7 21.3176 211.723 21.0739C211.754 20.8475 211.832 20.6301 211.952 20.436C212.073 20.2418 212.233 20.0753 212.422 19.9472Z" fill="#F48E9F"/>
<path d="M226.463 25.0289C226.947 24.6761 227.537 24.5005 228.134 24.5316C228.582 24.5492 229.013 24.7094 229.364 24.9889C229.715 25.2685 229.967 25.6527 230.084 26.0857C230.417 27.6634 230.453 29.289 230.193 30.8801C229.991 32.9159 229.442 36.0241 228.546 40.2046C228.274 41.4634 227.769 42.0539 226.922 41.9685C226.721 41.9712 226.522 41.9269 226.341 41.8392C226.161 41.7515 226.003 41.6228 225.881 41.4634C225.675 40.9861 225.621 40.4572 225.725 39.9481C225.802 39.2294 225.921 38.5159 226.083 37.8113C226.641 35.2444 227.068 32.6509 227.365 30.0409C227.489 28.7665 227.489 28.1216 227.365 28.106C227.24 28.0905 226.254 29.1628 224.731 31.3541C223.208 33.5453 221.863 35.6511 220.698 37.6869C220.314 38.3997 219.869 39.0782 219.369 39.715C219.259 39.8669 219.114 39.99 218.946 40.0739C218.778 40.1578 218.593 40.1999 218.405 40.1968C218.236 40.1784 218.072 40.1255 217.924 40.0414C217.626 39.8826 217.376 39.648 217.199 39.3615C217.022 39.0749 216.923 38.7465 216.914 38.4096C216.802 36.8908 216.851 35.3645 217.061 33.8561C217.201 32.4419 217.333 31.2919 217.45 30.4138C217.776 27.8263 218.025 26.1867 218.227 25.5185C218.303 24.9784 218.58 24.487 219.004 24.1431C219.231 23.9871 219.509 23.9257 219.781 23.9722C220.128 24.0067 220.454 24.1572 220.706 24.3995C220.831 24.5051 220.93 24.6374 220.998 24.7867C221.065 24.936 221.098 25.0984 221.094 25.2621C221.016 26.0391 220.845 27.3601 220.573 29.326C220.395 30.6625 220.294 31.4395 220.27 31.6571C220.2 32.3021 220.232 32.6362 220.34 32.6439C220.449 32.6517 220.993 31.8669 221.949 30.3828C223.643 27.5776 225.197 25.7904 226.463 25.0289Z" fill="#F48E9F"/>
<path d="M243.954 20.6704C244.092 20.5447 244.254 20.4494 244.431 20.3905C244.608 20.3316 244.795 20.3105 244.98 20.3285C245.174 20.3491 245.361 20.4146 245.526 20.5198C245.69 20.625 245.828 20.767 245.928 20.9346C246.078 21.2492 246.142 21.5976 246.115 21.9448C246.115 22.3644 245.99 23.5688 245.742 25.558C245.082 30.487 244.929 35.4704 245.283 40.4306C245.345 41.3553 245.369 41.8371 245.361 41.8837C245.299 42.125 245.191 42.352 245.042 42.5519C244.852 42.8242 244.58 43.0285 244.265 43.1347C244.196 43.1512 244.124 43.1512 244.055 43.1347C243.745 43.0915 243.458 42.9467 243.239 42.7229C242.991 42.5093 242.819 42.2199 242.75 41.8992C242.664 41.4408 242.571 40.586 242.47 39.3428C242.386 38.5869 242.35 37.8265 242.361 37.066C242.4 36.763 242.361 36.6076 242.276 36.592C242.19 36.5765 241.794 36.9728 241.258 37.7809C239.409 40.5679 237.583 41.863 235.78 41.6661C235.3 41.5997 234.837 41.4386 234.42 41.1921C233.576 40.5725 232.988 39.6662 232.765 38.6434C232.397 37.3138 232.302 35.9235 232.485 34.5562C232.539 34.0318 232.632 33.5123 232.765 33.0021C233.07 31.473 233.86 30.0831 235.018 29.0392C235.5 28.6012 236.069 28.2708 236.688 28.0698C237.307 27.8689 237.961 27.802 238.608 27.8736C239.409 27.9661 240.174 28.2602 240.831 28.7284C241.115 28.9299 241.43 29.0847 241.763 29.1868H241.833C242.12 28.4623 242.318 27.7056 242.424 26.9334C242.719 25.5192 242.967 24.136 243.201 22.7995C243.245 22.0328 243.507 21.2945 243.954 20.6704ZM239.432 31.1294C239.244 30.9524 239.023 30.8144 238.781 30.7236C238.539 30.6327 238.282 30.5908 238.024 30.6002C237.766 30.6096 237.512 30.6701 237.278 30.7783C237.043 30.8865 236.833 31.0402 236.658 31.2304C236.082 31.8166 235.674 32.5465 235.477 33.344C235.358 33.7504 235.275 34.1664 235.228 34.5873C235.108 35.5624 235.137 36.5502 235.314 37.5167C235.485 38.4492 235.741 38.9387 236.091 38.9776C236.782 39.063 237.645 38.3481 238.733 36.8407C239.555 35.8454 240.147 34.6805 240.465 33.4295C240.503 33.014 240.422 32.5964 240.232 32.2251C240.049 31.8054 239.776 31.4312 239.432 31.1294Z" fill="#F48E9F"/>
<path d="M252.573 28.4245C253.048 28.0083 253.603 27.6931 254.205 27.4981C254.806 27.3031 255.44 27.2323 256.069 27.29C256.62 27.366 257.149 27.5537 257.624 27.8417C258.258 28.1779 258.793 28.6733 259.178 29.2792C259.574 29.9731 259.837 30.7346 259.955 31.5249C260.006 31.8519 260.006 32.1848 259.955 32.5117C259.86 33.1079 259.639 33.6771 259.307 34.181C258.975 34.6849 258.538 35.1119 258.028 35.4334C256.834 36.2734 255.408 36.7215 253.948 36.7155C253.503 36.7461 253.057 36.7461 252.612 36.7155C252.471 36.7006 252.333 36.6693 252.2 36.6223L251.563 36.3969L251.361 37.951C251.212 38.7418 251.252 39.5564 251.477 40.3288C251.534 40.5921 251.646 40.8408 251.803 41.0592C252.019 41.1979 252.259 41.293 252.511 41.3389H252.783C253.59 41.3277 254.385 41.1421 255.114 40.795C255.859 40.4453 256.662 40.2372 257.484 40.1811C257.623 40.2016 257.756 40.2517 257.874 40.3281C257.992 40.4045 258.092 40.5055 258.167 40.6241C258.376 40.8729 258.48 41.1937 258.455 41.5177C258.354 42.2947 257.352 42.9552 255.432 43.6001C254.898 43.7863 254.349 43.9318 253.793 44.0353C253.289 44.0674 252.784 44.0439 252.285 43.9653C251.825 43.9214 251.369 43.8329 250.925 43.7011C250.618 43.5584 250.339 43.3609 250.102 43.1184C249.571 42.5915 249.172 41.9474 248.936 41.2379C248.734 40.782 248.593 40.3012 248.517 39.8082C248.516 39.0804 248.566 38.3535 248.664 37.6324L248.773 36.801C249.296 32.7656 250.563 29.9734 252.573 28.4245ZM256.543 30.3826C256.333 30.1745 256.06 30.0408 255.766 30.0019C255.343 29.9729 254.921 30.079 254.562 30.3049C254.077 30.6935 253.655 31.1548 253.311 31.6725C252.93 32.1443 252.65 32.6891 252.487 33.2732L252.371 33.8638L253.49 33.9726C254.125 34.0203 254.763 33.9599 255.378 33.7939C255.84 33.6056 256.267 33.3431 256.644 33.0168C256.947 32.8113 257.171 32.5103 257.282 32.1621C257.303 31.8385 257.242 31.5148 257.103 31.2219C256.982 30.9038 256.79 30.617 256.543 30.3826Z" fill="#F48E9F"/>
<path d="M263.715 30.3128C264.025 30.0956 264.403 29.9989 264.779 30.0408C264.96 30.0674 265.133 30.13 265.29 30.2247C265.446 30.3195 265.581 30.4445 265.688 30.5925C265.79 30.7144 265.867 30.8558 265.912 31.0082C265.957 31.1605 265.971 31.3205 265.953 31.4784C265.953 31.525 265.883 31.797 265.766 32.302L265.486 33.4987L266.831 32.4885C267.403 32.0252 268.036 31.641 268.711 31.3463C269.281 31.1548 269.89 31.1068 270.483 31.2064C270.703 31.2359 270.921 31.28 271.135 31.3385C272.689 31.727 273.637 32.3435 273.979 33.1879C274.048 33.3527 274.07 33.5329 274.044 33.7095C274.018 33.886 273.945 34.0521 273.832 34.1903C273.679 34.4219 273.463 34.6054 273.21 34.7196C272.957 34.8337 272.677 34.8738 272.402 34.8352C272.098 34.7925 271.801 34.7034 271.524 34.571C271.098 34.3506 270.643 34.1911 270.172 34.097C269.434 33.9882 268.618 34.5399 267.755 35.7288C267.165 36.6585 266.675 37.6483 266.294 38.6816C265.856 39.6636 265.525 40.69 265.308 41.7431C265.304 41.7948 265.304 41.8468 265.308 41.8985V42.0228C265.318 42.1391 265.318 42.2562 265.308 42.3725C265.214 42.6808 265.026 42.9524 264.771 43.1495C264.617 43.303 264.43 43.4187 264.224 43.4874C264.017 43.5562 263.798 43.5762 263.583 43.5458C263.279 43.491 262.999 43.3472 262.778 43.1327C262.556 42.9183 262.404 42.6428 262.339 42.3414C261.951 41.2536 261.966 38.8525 262.339 35.146C262.464 33.9416 262.549 33.1956 262.588 32.9159C262.656 32.298 262.797 31.6903 263.008 31.1054C263.163 30.779 263.408 30.5039 263.715 30.3128Z" fill="#F48E9F"/>
</svg>
