<svg width="282" height="58" viewBox="0 0 282 58" fill="none" xmlns="http://www.w3.org/2000/svg">
<path d="M50.9469 15.9042C51.0192 15.7947 51.1181 15.7031 51.2353 15.6368C51.3526 15.5706 51.4848 15.5316 51.6212 15.5232C51.8825 15.5034 52.1422 15.5764 52.3496 15.7279C52.7109 15.9441 52.9517 17.0929 53.1684 19.1858V19.5669C53.4449 21.9988 53.3374 24.456 52.8493 26.8581C52.3918 28.7008 51.6573 29.7453 50.6458 29.9918C50.5319 30.0212 50.4147 30.0384 50.2967 30.043C49.5581 30.0961 48.8838 29.7169 48.2738 28.9055C47.4291 27.6184 46.7519 26.2397 46.2569 24.7992C46.0813 24.2103 45.8454 23.6388 45.5525 23.093C45.5525 23.093 45.3899 23.6163 45.1311 24.6514C44.8319 25.8017 44.4414 26.929 43.9631 28.024C43.4453 29.2297 42.8734 30.0013 42.2472 30.3387C42.0426 30.4469 41.8177 30.5165 41.585 30.5435C40.9408 30.589 40.3207 30.2079 39.7246 29.406C39.1334 28.4312 38.6589 27.3974 38.3098 26.3235C37.7559 24.8049 37.2623 23.184 36.8288 21.4494C36.4374 19.9195 36.1966 18.9925 36.1123 18.6512C36.0281 18.31 36.022 18.1564 36.016 18.0825C35.9784 17.8844 36.0075 17.6801 36.0993 17.4985C36.1911 17.3168 36.341 17.167 36.5278 17.0701C36.6329 17.0105 36.7513 16.9748 36.8735 16.9659C36.9958 16.957 37.1186 16.9752 37.2322 17.019C37.417 17.0836 37.5837 17.1875 37.7194 17.3226C37.8551 17.4577 37.9562 17.6203 38.0148 17.7981C38.1834 18.2019 38.5205 19.4418 39.0323 21.5063C39.4246 23.1149 39.9028 24.7037 40.4652 26.2666C40.9408 27.5462 41.296 28.1718 41.5308 28.1548C41.8206 27.7028 42.0473 27.2172 42.2051 26.7102C42.4992 25.9663 42.7464 25.2067 42.9456 24.4353C43.3072 23.0469 43.5826 21.6397 43.7704 20.2209C43.9872 18.5944 44.1196 17.6332 44.1798 17.3431C44.2169 17.0907 44.3227 16.8516 44.4869 16.6493C44.5747 16.5506 44.6832 16.4701 44.8055 16.413C44.9279 16.3559 45.0615 16.3234 45.1978 16.3175C45.3342 16.3116 45.4703 16.3325 45.5977 16.3789C45.725 16.4252 45.8409 16.496 45.9378 16.5867C46.1648 16.7907 46.2987 17.0702 46.3111 17.3659C46.4767 18.4317 46.7079 19.4876 47.0034 20.5281C47.4172 22.0932 47.936 23.6319 48.5567 25.1348C49.227 26.7652 49.7107 27.6543 50.0077 27.8022C50.0444 27.8158 50.0853 27.8158 50.1221 27.8022C50.3689 27.8022 50.6157 27.296 50.8445 26.3405C51.2017 24.8808 51.266 22.7537 51.0372 19.9593C51.0372 19.8399 51.0372 19.6693 50.977 19.4361L50.9228 18.9185C50.8686 18.4749 50.8204 17.9574 50.7723 17.3602C50.6892 16.8689 50.7496 16.3655 50.9469 15.9042Z" fill="#F48E9F"/>
<path d="M55.4324 14.0502C55.5016 13.9625 55.5929 13.8926 55.6981 13.8469C55.8033 13.8012 55.9189 13.7811 56.0344 13.7885C56.1868 13.7717 56.3412 13.7887 56.4854 13.838C56.6296 13.8874 56.7597 13.9678 56.8653 14.0729C57.0903 14.4068 57.2342 14.7836 57.2867 15.1762C57.4111 15.7526 57.7182 17.4796 58.2078 20.3574C58.6092 22.6323 58.8239 23.7698 58.852 23.7698L59.0868 23.167C59.3016 22.3605 59.6533 21.5922 60.1284 20.892C60.2693 20.683 60.4594 20.5075 60.684 20.3792C60.9085 20.251 61.1613 20.1734 61.4228 20.1527C61.7316 20.135 62.0394 20.1991 62.3117 20.3378C62.584 20.4764 62.8099 20.6841 62.964 20.9375C63.4508 21.6297 63.7977 22.401 63.9875 23.2125C64.2524 24.1736 64.5896 25.7263 64.9147 27.8761L65.306 30.3216L64.9448 30.6515C64.783 30.8278 64.5578 30.9413 64.3126 30.97C64.1156 30.9742 63.9221 30.9206 63.7587 30.8164C63.5075 30.6641 63.3251 30.4289 63.247 30.1567C63.0516 29.4067 62.8988 28.6473 62.7894 27.8818C62.2195 24.4466 61.8061 22.7404 61.5492 22.7632C61.2923 22.7859 60.9993 23.7433 60.6702 25.6353C60.3751 26.9469 60.1859 28.2777 60.1043 29.6164C60.1044 29.9114 60.0235 30.2015 59.8695 30.4581C59.7461 30.7089 59.5329 30.9103 59.2674 31.0269C59.1573 31.0721 59.0384 31.0953 58.9183 31.0951C58.7594 31.1058 58.6003 31.0797 58.4545 31.0193C58.3087 30.9588 58.1806 30.8658 58.0814 30.7482C57.8894 30.4595 57.7719 30.1322 57.7382 29.7927C57.6218 29.2505 57.3549 27.787 56.9375 25.4021C56.9375 25.3338 56.7689 24.3784 56.4498 22.53C56.1308 20.6816 55.896 19.3564 55.7515 18.5488C55.3963 16.6208 55.2036 15.3412 55.1494 14.7099V14.562C55.2145 14.3783 55.31 14.2056 55.4324 14.0502Z" fill="#F48E9F"/>
<path d="M70.8268 18.7991C71.1067 18.7201 71.3959 18.6743 71.6877 18.6626C72.1402 18.6441 72.5907 18.73 73.0002 18.9129C73.3745 19.0903 73.7856 19.1874 74.2043 19.1972C74.3572 19.1868 74.5106 19.2079 74.6541 19.2589C74.7975 19.31 74.9275 19.3899 75.0351 19.493C75.1731 19.6056 75.277 19.7508 75.3361 19.9139C75.4096 20.2142 75.448 20.5213 75.4505 20.8295C75.5187 22.1453 75.6574 23.4569 75.8659 24.7595C75.9827 25.7243 76.1964 26.6765 76.5041 27.6031C76.555 27.7063 76.5797 27.8192 76.5764 27.933C76.5824 28.0656 76.5569 28.1978 76.5017 28.3199C76.4464 28.4419 76.3629 28.5507 76.2573 28.6382C76.057 28.8248 75.7916 28.9361 75.5107 28.951C75.3986 28.9552 75.2871 28.9337 75.1856 28.8885C74.8922 28.7359 74.6581 28.4988 74.5174 28.2117C74.2973 27.816 74.1449 27.3898 74.0658 26.9491C73.9875 26.5055 73.9033 26.2894 73.8129 26.2951C73.7226 26.3007 73.5119 26.568 73.1748 27.114C72.81 27.7056 72.3299 28.2267 71.76 28.6496C71.2636 28.974 70.6776 29.1539 70.0742 29.1672H69.725C69.3372 29.0797 68.9815 28.895 68.6955 28.6326C68.3248 28.3689 68.0205 28.0309 67.8045 27.643C67.4144 26.8282 67.1975 25.949 67.1663 25.0552C67.1483 24.7136 67.1604 24.3712 67.2024 24.0315C67.3583 22.8301 67.8076 21.6794 68.5149 20.6703C69.0266 19.8076 69.8459 19.1445 70.8268 18.7991ZM72.3078 20.8181C72.1631 20.738 72.0038 20.684 71.8382 20.6589C71.6789 20.6924 71.5265 20.75 71.3867 20.8295C70.6919 21.2102 70.1484 21.7956 69.8394 22.4959C69.418 23.2665 69.2109 24.1257 69.2374 24.9926C69.2646 25.3774 69.3332 25.7585 69.4421 26.1301C69.4989 26.4235 69.6199 26.7024 69.7973 26.9491C69.8307 26.9948 69.8758 27.0318 69.9285 27.0567C69.9811 27.0816 70.0395 27.0935 70.0983 27.0913C70.5498 27.0913 71.0977 26.5225 71.7299 25.4818C72.2206 24.6015 72.56 23.6532 72.7353 22.6722C72.8251 22.2811 72.8795 21.8834 72.8978 21.4836C72.8734 21.3322 72.8054 21.1902 72.7014 21.0728C72.5974 20.9555 72.4612 20.8674 72.3078 20.8181Z" fill="#F48E9F"/>
<path d="M82.0605 14.3744C82.0891 14.2697 82.1409 14.1719 82.2125 14.0876C82.2841 14.0032 82.3739 13.9343 82.4759 13.8852C82.6974 13.7626 82.9478 13.6942 83.2044 13.6862C83.4166 13.6773 83.6274 13.7215 83.8156 13.8144C84.0038 13.9073 84.1627 14.0455 84.2761 14.2151C84.3762 14.3304 84.439 14.4707 84.4567 14.6189C84.4479 14.7574 84.4237 14.8947 84.3844 15.0284C84.2916 15.4436 84.2431 15.8666 84.2399 16.291V17.0588L85.0226 16.9564C85.1742 16.9348 85.327 16.9215 85.4802 16.9166C85.7373 16.9207 85.9862 17.0024 86.1906 17.1498C86.3193 17.241 86.4235 17.3596 86.4946 17.496C86.5658 17.6323 86.6019 17.7826 86.6 17.9346C86.6047 18.0906 86.5823 18.2462 86.5338 18.3953C86.4013 18.7252 85.8655 18.964 84.9323 19.0835L84.1496 19.2143L84.0955 19.9821C83.916 22.173 83.8637 24.3717 83.9389 26.568C83.9733 27.1363 83.9733 27.706 83.9389 28.2742C83.915 28.4873 83.8177 28.6872 83.662 28.843C83.5801 28.9452 83.4759 29.0297 83.3565 29.0905C83.237 29.1514 83.1051 29.1872 82.9696 29.1956C82.6939 29.1912 82.4299 29.0898 82.2291 28.9112C82.0629 28.7937 81.9424 28.6278 81.8859 28.4392C81.8068 27.9644 81.7545 27.486 81.7294 27.0059V26.4713C81.6933 25.55 81.6933 24.3386 81.7294 22.8371C81.7595 21.33 81.8016 20.3688 81.8618 19.9366L81.9281 19.4759L81.1695 19.601C80.5674 19.6863 80.146 19.7603 79.8209 19.8228C79.724 19.8434 79.6252 19.8548 79.5259 19.857C79.2934 19.8364 79.078 19.7326 78.9238 19.5669C78.7935 19.4497 78.6899 19.3084 78.6195 19.1519C78.549 18.9954 78.5133 18.827 78.5144 18.6569C78.4831 18.5062 78.4969 18.3502 78.5543 18.2065C78.6118 18.0628 78.7106 17.9371 78.8395 17.8436C79.3697 17.6407 79.9352 17.5327 80.5072 17.5251C80.9974 17.4925 81.4843 17.426 81.9642 17.3261C82.0588 16.877 82.0892 16.4179 82.0545 15.9611C82.0153 15.4328 82.0174 14.9024 82.0605 14.3744Z" fill="#F48E9F"/>
<path d="M90.3204 13.5782C90.3948 13.4934 90.4864 13.4236 90.5898 13.3728C90.6932 13.322 90.8063 13.2913 90.9225 13.2825C91.1032 13.2942 91.2788 13.3442 91.4362 13.4289C91.5936 13.5136 91.7287 13.6307 91.8316 13.7716C92.2543 14.251 92.4883 14.8539 92.4938 15.4778C92.4709 16.5263 92.1708 17.5527 91.6209 18.4636C91.0027 19.6542 90.3786 20.2495 89.7485 20.2495C89.1886 20.2495 88.9056 20.039 88.8936 19.5784C88.9079 19.216 89.0523 18.869 89.303 18.5944C89.971 17.8158 90.3647 16.8593 90.4288 15.8588V15.6257C90.3763 15.1867 90.2837 14.7528 90.1518 14.3289C90.1409 14.2439 90.1409 14.158 90.1518 14.073C90.1415 13.984 90.1512 13.8939 90.1803 13.8086C90.2093 13.7234 90.2571 13.6449 90.3204 13.5782Z" fill="#F48E9F"/>
<path d="M98.9 16.6777C99.3983 16.4797 99.931 16.3698 100.471 16.3535C100.774 16.3386 101.076 16.3813 101.36 16.479C101.645 16.5767 101.905 16.7274 102.127 16.9222C102.343 17.1277 102.512 17.3732 102.623 17.6434C102.734 17.9135 102.784 18.2024 102.771 18.4919C102.771 19.4303 102.524 19.9877 101.982 20.164C101.86 20.202 101.732 20.2212 101.603 20.2209C101.457 20.2238 101.312 20.1951 101.18 20.1369C101.047 20.0787 100.93 19.9927 100.839 19.8853C100.632 19.6337 100.523 19.3223 100.532 19.0038C100.544 18.861 100.523 18.7175 100.471 18.5829C100.435 18.526 100.345 18.4919 100.2 18.4976C99.5512 18.641 98.9532 18.943 98.4665 19.3735C97.6477 19.9422 97.2022 20.3915 97.1119 20.6815V20.7327V20.7839C97.1119 20.8692 97.2323 20.9432 97.4671 21C97.7019 21.0569 98.4063 21.1877 99.5863 21.3981C100.368 21.5008 101.134 21.6918 101.868 21.9669C102.349 22.1813 102.792 22.4653 103.181 22.8086C103.569 23.1318 103.895 23.5168 104.144 23.9461C104.355 24.3726 104.456 24.8404 104.439 25.311C104.466 25.6697 104.406 26.0295 104.264 26.3632C103.722 27.3755 102.458 28.0694 100.447 28.405C100.072 28.4772 99.6917 28.5247 99.3094 28.5471C98.934 28.539 98.5607 28.4932 98.1956 28.4106C96.7868 28.1528 95.9198 27.5234 95.5947 26.5224C95.566 26.4047 95.5479 26.2848 95.5405 26.1641C95.5336 26.0294 95.558 25.8949 95.6121 25.7701C95.6662 25.6453 95.7486 25.5333 95.8536 25.4418C96.0565 25.2586 96.3255 25.1549 96.6062 25.1518C96.8222 25.1497 97.0345 25.2052 97.2187 25.3118C97.4029 25.4184 97.5516 25.5719 97.6477 25.7547C97.879 26.052 98.2211 26.2552 98.605 26.3234C98.8535 26.3776 99.1086 26.4005 99.3635 26.3916C100.02 26.3882 100.668 26.2545 101.266 25.9992C101.868 25.7433 102.169 25.4305 102.163 25.129C102.163 24.6684 101.778 24.2646 101.037 23.9176C99.7436 23.4613 98.3871 23.1836 97.0095 23.093C96.6436 23.0575 96.2896 22.9501 95.9703 22.7778C95.6509 22.6054 95.3733 22.3718 95.1552 22.092C94.9327 21.751 94.8237 21.3547 94.8421 20.9545C94.8226 20.4679 94.928 19.984 95.1492 19.5441C95.5173 18.9313 96.0153 18.3969 96.6122 17.9744C97.3026 17.4375 98.0736 17.0005 98.9 16.6777Z" fill="#F48E9F"/>
<path d="M117.365 17.9744C117.649 17.9086 117.94 17.8762 118.232 17.8777C118.686 17.8864 119.132 17.9954 119.533 18.1962C119.887 18.3948 120.284 18.5136 120.695 18.5432C120.938 18.5534 121.173 18.6334 121.368 18.7725C121.562 18.9117 121.708 19.1034 121.784 19.3223C121.837 19.6267 121.858 19.9354 121.845 20.2437C121.839 21.5597 121.903 22.8751 122.037 24.185C122.1 25.1449 122.26 26.0971 122.513 27.0287C122.556 27.1335 122.573 27.2465 122.561 27.3585C122.562 27.4914 122.531 27.6227 122.469 27.7421C122.407 27.8615 122.317 27.9658 122.206 28.0467C121.997 28.2239 121.728 28.323 121.447 28.3254C121.334 28.3231 121.222 28.2959 121.122 28.2458C120.847 28.0701 120.636 27.8176 120.52 27.5235C120.327 27.115 120.2 26.6819 120.141 26.2381C120.093 25.7945 120.02 25.5727 119.93 25.5727C119.84 25.5727 119.611 25.8343 119.25 26.3633C118.846 26.9314 118.336 27.4249 117.745 27.8192C117.232 28.1186 116.638 28.2707 116.035 28.2571H115.68C115.301 28.1549 114.958 27.9585 114.686 27.6884C114.331 27.4116 114.045 27.0639 113.849 26.6704C113.509 25.8383 113.344 24.9517 113.362 24.0599C113.362 23.7169 113.392 23.3745 113.452 23.0362C113.679 21.8438 114.194 20.7169 114.957 19.7432C115.511 18.9016 116.365 18.2744 117.365 17.9744ZM118.726 20.056C118.587 19.9693 118.431 19.9076 118.268 19.874C118.107 19.902 117.951 19.9518 117.805 20.0219C117.092 20.3695 116.517 20.9263 116.167 21.6086C115.709 22.3607 115.459 23.2095 115.439 24.0769C115.447 24.4597 115.495 24.8407 115.583 25.2144C115.62 25.5083 115.722 25.7914 115.884 26.0448C115.915 26.0932 115.958 26.1334 116.009 26.1613C116.061 26.1892 116.12 26.2039 116.179 26.204C116.631 26.204 117.203 25.6978 117.901 24.6798C118.434 23.8334 118.826 22.9146 119.063 21.9556C119.179 21.5709 119.256 21.1767 119.292 20.7783C119.284 20.6165 119.226 20.4605 119.125 20.3293C119.025 20.198 118.886 20.0971 118.726 20.0389V20.056Z" fill="#F48E9F"/>
<path d="M128.835 14.1071C128.869 14.0039 128.927 13.909 129.004 13.8286C129.081 13.7481 129.175 13.6841 129.28 13.6408C129.506 13.5282 129.759 13.4715 130.015 13.4758C130.226 13.4789 130.433 13.5327 130.616 13.6322C130.799 13.7317 130.953 13.8736 131.062 14.0446C131.152 14.165 131.204 14.3069 131.213 14.454C131.201 14.5937 131.171 14.7313 131.122 14.8635C131.004 15.2724 130.932 15.6917 130.906 16.1147L130.833 16.8825L131.622 16.82C131.774 16.8075 131.927 16.8075 132.08 16.82C132.337 16.8362 132.581 16.9299 132.778 17.0873C132.903 17.1831 133.001 17.3062 133.064 17.4459C133.127 17.5857 133.153 17.7379 133.139 17.8892C133.138 18.0466 133.108 18.2026 133.049 18.3499C132.898 18.6684 132.351 18.8731 131.411 18.9584L130.623 19.0437L130.526 19.8115C130.221 21.9882 130.044 24.1794 129.996 26.3747C129.997 26.9445 129.967 27.514 129.906 28.0809C129.871 28.2979 129.761 28.4979 129.593 28.6496C129.506 28.7475 129.397 28.8266 129.274 28.8815C129.152 28.9364 129.018 28.966 128.883 28.9681C128.608 28.9457 128.352 28.8306 128.16 28.644C128.001 28.5175 127.889 28.346 127.841 28.1549C127.811 27.9785 127.787 27.5008 127.769 26.716V26.1813C127.769 25.26 127.835 24.0486 127.968 22.5471C128.088 21.0514 128.184 20.0845 128.269 19.6636L128.359 19.203L127.594 19.2883C127.016 19.3452 126.565 19.3963 126.24 19.4418C126.14 19.4549 126.039 19.4549 125.939 19.4418C125.821 19.4295 125.707 19.395 125.603 19.3403C125.5 19.2856 125.409 19.2118 125.337 19.1234C125.213 18.9999 125.118 18.8541 125.056 18.6948C124.993 18.5354 124.966 18.3659 124.975 18.1963C124.975 17.7868 125.108 17.5195 125.349 17.4001C125.89 17.2242 126.462 17.1433 127.034 17.1612C127.525 17.161 128.015 17.1191 128.497 17.0361C128.615 16.5937 128.672 16.1387 128.666 15.6825C128.684 15.1544 128.74 14.628 128.835 14.1071Z" fill="#F48E9F"/>
<path d="M146.239 14.6133C146.275 14.511 146.334 14.4172 146.412 14.3386C146.49 14.26 146.585 14.1985 146.691 14.1583C146.919 14.0471 147.175 13.9941 147.431 14.0048C147.644 14.0104 147.851 14.0691 148.032 14.175C148.213 14.2809 148.361 14.4302 148.461 14.6076C148.551 14.7296 148.601 14.874 148.605 15.0228C148.591 15.1625 148.559 15.3 148.509 15.4323C148.381 15.8381 148.298 16.2556 148.262 16.6778L148.178 17.4399L148.991 17.4058C149.143 17.394 149.296 17.394 149.448 17.4058C149.706 17.4214 149.95 17.5197 150.141 17.6845C150.263 17.7829 150.357 17.9078 150.417 18.0484C150.477 18.1891 150.5 18.3413 150.484 18.4921C150.478 18.6495 150.445 18.805 150.387 18.9527C150.225 19.2712 149.677 19.4589 148.732 19.5215L147.943 19.5954L147.787 20.3461C147.439 22.5189 147.218 24.708 147.124 26.9037C147.114 27.4743 147.07 28.0439 146.992 28.6099C146.954 28.8273 146.842 29.0271 146.673 29.1786C146.582 29.2742 146.47 29.3505 146.346 29.4025C146.221 29.4544 146.086 29.4809 145.95 29.48C145.676 29.4548 145.421 29.3354 145.234 29.1445C145.079 29.0151 144.973 28.8413 144.933 28.6497C144.889 28.1712 144.873 27.6909 144.885 27.2108V26.6762C144.927 25.7548 145.017 24.5434 145.168 23.0476C145.318 21.5519 145.433 20.5907 145.523 20.1698L145.619 19.7092L144.861 19.7831C144.259 19.8286 143.825 19.8741 143.5 19.9082C143.4 19.9213 143.299 19.9213 143.199 19.9082C142.961 19.8757 142.745 19.7575 142.597 19.5784C142.476 19.4517 142.384 19.3032 142.326 19.1419C142.268 18.9805 142.246 18.8098 142.26 18.6399C142.243 18.4876 142.27 18.3339 142.338 18.1948C142.405 18.0557 142.512 17.9364 142.645 17.8494C143.191 17.6853 143.764 17.6159 144.337 17.6447C144.827 17.6537 145.316 17.6214 145.8 17.548C145.931 17.1094 145.998 16.6558 145.998 16.2001C146.038 15.6663 146.118 15.136 146.239 14.6133Z" fill="#F48E9F"/>
<path d="M153.416 13.3791C153.494 13.3046 153.588 13.2479 153.693 13.2134C153.797 13.1789 153.908 13.1674 154.018 13.18C154.172 13.1813 154.324 13.2158 154.461 13.2808C154.599 13.3459 154.719 13.4398 154.813 13.5554C154.998 13.9092 155.097 14.298 155.102 14.6928C155.156 15.2616 155.258 17.0246 155.397 19.9366C155.541 22.2343 155.622 23.3907 155.638 23.4058L155.939 22.8371C156.253 22.0655 156.692 21.3442 157.239 20.6987C157.408 20.5108 157.62 20.3619 157.859 20.2634C158.098 20.1648 158.357 20.1191 158.618 20.1299C158.927 20.1438 159.226 20.2397 159.481 20.4066C159.735 20.5736 159.935 20.8049 160.057 21.074C160.455 21.8054 160.708 22.5996 160.803 23.4172C160.96 24.4011 161.08 25.9765 161.17 28.1548L161.279 30.6174L160.881 30.9018C160.702 31.064 160.462 31.1538 160.213 31.152C160.018 31.1379 159.833 31.0663 159.683 30.9473C159.449 30.7681 159.294 30.5124 159.25 30.2307C159.144 29.4629 159.083 28.6901 159.069 27.9159C158.905 24.4428 158.704 22.6987 158.467 22.6835C158.238 22.6835 157.829 23.5878 157.263 25.4419C156.815 26.7053 156.465 27.9979 156.216 29.3093C156.188 29.6052 156.076 29.8884 155.89 30.1283C155.749 30.3687 155.52 30.5526 155.246 30.6458C155.131 30.679 155.011 30.6906 154.891 30.68C154.729 30.6794 154.569 30.64 154.427 30.5654C154.285 30.4909 154.165 30.3835 154.078 30.2534C153.921 29.9471 153.842 29.6099 153.85 29.2695C153.793 28.7197 153.701 27.2353 153.573 24.8163C153.573 24.7537 153.524 23.7812 153.428 21.9158C153.332 20.0503 153.254 18.7024 153.205 17.8777C153.085 15.9289 153.043 14.6379 153.079 14.0047V13.8739C153.164 13.6938 153.278 13.5269 153.416 13.3791Z" fill="#F48E9F"/>
<path d="M166.293 18.9244C166.641 18.5984 167.055 18.3426 167.51 18.1725C167.965 18.0023 168.453 17.9215 168.942 17.9348C169.364 17.9654 169.774 18.0798 170.146 18.2703C170.643 18.4913 171.073 18.8255 171.399 19.2428C171.729 19.7353 171.962 20.2808 172.085 20.8524C172.144 21.0888 172.163 21.3327 172.139 21.5747C172.095 22.0147 171.952 22.4408 171.719 22.8244C171.487 23.2079 171.17 23.54 170.791 23.7984C169.925 24.4643 168.863 24.8616 167.75 24.9359C167.409 24.9744 167.064 24.9877 166.721 24.9757C166.611 24.9714 166.502 24.9561 166.396 24.9302L165.908 24.7994L165.83 25.9368C165.754 26.5129 165.824 27.0977 166.034 27.643C166.084 27.8355 166.183 28.0134 166.323 28.1606C166.492 28.2567 166.681 28.3169 166.877 28.3369H167.094C167.718 28.2903 168.323 28.1177 168.87 27.8307C169.428 27.5338 170.041 27.3408 170.676 27.262C170.785 27.2687 170.892 27.2981 170.988 27.3483C171.083 27.3984 171.166 27.468 171.23 27.5521C171.403 27.7298 171.494 27.965 171.483 28.2061C171.439 28.7521 170.692 29.3038 169.243 29.8611C168.839 30.0233 168.422 30.1564 167.997 30.2592C167.609 30.3027 167.217 30.3027 166.829 30.2592C166.47 30.2461 166.114 30.2023 165.763 30.1284C165.518 30.041 165.294 29.9097 165.101 29.7417C164.666 29.3805 164.326 28.9288 164.108 28.4222C163.927 28.0979 163.796 27.7514 163.716 27.3928C163.675 26.8551 163.675 26.3153 163.716 25.7776L163.759 25.1691C163.971 22.2268 164.816 20.1452 166.293 18.9244ZM169.46 20.1699C169.282 20.0265 169.061 19.9407 168.828 19.9253C168.5 19.9264 168.18 20.0238 167.913 20.204C167.554 20.509 167.249 20.8661 167.01 21.2619C166.734 21.6234 166.543 22.0364 166.45 22.4733L166.39 22.9055H167.256C167.752 22.9123 168.244 22.8392 168.713 22.6894C169.059 22.5313 169.376 22.322 169.653 22.0695C169.876 21.9051 170.035 21.6749 170.104 21.4154C170.104 21.1792 170.042 20.9466 169.924 20.7386C169.813 20.5201 169.655 20.3263 169.46 20.1699Z" fill="#F48E9F"/>
<path d="M182.103 14.8976C182.199 14.7915 182.321 14.709 182.459 14.6575C182.596 14.606 182.745 14.5869 182.892 14.6019C183.058 14.6139 183.219 14.6663 183.358 14.754C183.497 14.8416 183.61 14.9616 183.686 15.1024C183.828 15.396 183.882 15.7204 183.843 16.0408C183.843 16.5015 183.759 17.8778 183.602 20.1584C183.379 23.3092 183.289 24.896 183.319 24.9131C183.349 24.9301 183.614 24.6628 184.06 23.9974C184.752 22.8293 185.751 21.8498 186.962 21.1537C187.445 20.9166 187.991 20.8196 188.533 20.875C188.978 20.9003 189.408 21.0421 189.773 21.2845C190.327 21.6868 190.728 22.2474 190.917 22.8827C191.172 23.6309 191.262 24.4207 191.182 25.2031C191.151 25.5882 191.078 25.9694 190.965 26.3406C190.823 26.8411 190.611 27.3213 190.333 27.7681C190.009 28.2191 189.618 28.6233 189.171 28.9681C188.492 29.5317 187.705 29.9679 186.853 30.2535C186.089 30.5438 185.267 30.672 184.445 30.6288C184.301 30.623 184.158 30.6039 184.018 30.572C183.904 30.5403 183.787 30.5212 183.668 30.5151C183.455 30.5016 183.24 30.5266 183.036 30.589C182.864 30.6605 182.676 30.6898 182.488 30.6743C182.128 30.6455 181.792 30.4891 181.549 30.2364C181.264 29.9596 181.114 29.2316 181.098 28.0525C181.082 26.8733 181.17 24.841 181.362 21.9556C181.585 18.8048 181.694 17.0076 181.7 16.564C181.7 16.3195 181.7 16.0465 181.748 15.7451C181.77 15.4346 181.894 15.1385 182.103 14.8976ZM188.852 23.3433C188.665 23.0192 188.479 22.8485 188.304 22.8315C188.047 22.8706 187.804 22.9661 187.594 23.1102C186.542 23.7585 185.493 25.2221 184.445 27.5008C184.309 27.7523 184.21 28.0202 184.15 28.297C184.15 28.5018 184.276 28.6155 184.529 28.6383C184.656 28.6466 184.782 28.6466 184.909 28.6383C185.706 28.5519 186.473 28.2994 187.154 27.8989C187.819 27.5452 188.364 27.0206 188.726 26.3861C188.956 25.9658 189.091 25.5048 189.123 25.0325C189.204 24.4566 189.11 23.8708 188.852 23.3433Z" fill="#F48E9F"/>
<path d="M197.486 20.9602C197.739 20.9602 197.937 20.9602 198.088 20.9602C198.786 21.0417 199.462 21.2462 200.081 21.5631C200.688 21.8334 201.219 22.237 201.628 22.7403C202.01 23.2064 202.268 23.7526 202.38 24.3328C202.468 25.1793 202.45 26.0326 202.326 26.875C202.212 27.8078 202.116 28.4106 202.049 28.6836C201.95 29.0422 201.804 29.3878 201.616 29.713C201.353 30.1801 201.056 30.6286 200.725 31.0552C200.572 31.2197 200.459 31.4139 200.394 31.624C200.394 31.7263 200.135 31.9197 199.641 32.1927C199.238 32.4456 198.808 32.659 198.359 32.8297C197.848 33.0016 197.303 33.0638 196.763 33.0117C196.038 32.9359 195.35 32.6713 194.775 32.2475C194.2 31.8238 193.76 31.2574 193.506 30.6116C193.095 29.5563 192.955 28.4238 193.097 27.3073C193.169 26.7333 193.276 26.1637 193.416 25.6011C193.688 24.6249 194.119 23.6944 194.692 22.8427C195.009 22.3098 195.437 21.8435 195.951 21.4721C196.408 21.1812 196.936 21.0051 197.486 20.9602ZM199.147 23.4854C198.819 23.268 198.446 23.1188 198.052 23.0475C197.834 23.0241 197.613 23.0576 197.413 23.1441C197.183 23.2448 196.978 23.3902 196.811 23.5707C196.652 23.7003 196.532 23.867 196.462 24.0541C196.354 24.3756 196.221 24.6893 196.065 24.9925C195.779 25.6677 195.577 26.3719 195.463 27.0912C195.418 27.2785 195.388 27.4685 195.373 27.6599C195.197 28.5928 195.413 29.5536 195.975 30.3386C196.106 30.4844 196.268 30.603 196.451 30.6871C196.633 30.7713 196.832 30.8191 197.034 30.8277C197.273 30.8617 197.517 30.8501 197.751 30.7936C198.014 30.6671 198.259 30.5084 198.479 30.3216C198.671 30.1782 198.848 30.0183 199.009 29.8438C199.113 29.7342 199.204 29.6141 199.28 29.4855C199.322 29.3945 199.394 29.241 199.491 29.0192C199.587 28.7974 199.683 28.5926 199.774 28.4163C199.974 27.9955 200.096 27.5454 200.135 27.0855C200.135 27.0172 200.135 26.9092 200.135 26.7556C200.135 26.602 200.135 26.4712 200.135 26.3689C200.22 25.7189 200.194 25.0601 200.056 24.4181C199.878 24.0165 199.556 23.6865 199.147 23.4854Z" fill="#F48E9F"/>
<path d="M208.702 22.0978C208.902 22.082 209.104 22.082 209.304 22.0978C210.002 22.1882 210.675 22.4003 211.291 22.7234C211.892 23.0031 212.416 23.4121 212.82 23.9178C213.196 24.39 213.447 24.9396 213.554 25.5216C213.628 26.3676 213.598 27.2187 213.464 28.0581C213.332 28.9909 213.235 29.5937 213.163 29.8667C213.057 30.2239 212.905 30.5677 212.712 30.8904C212.446 31.3568 212.146 31.8052 211.814 32.2327C211.654 32.3942 211.537 32.589 211.471 32.8014C211.471 32.9038 211.206 33.0971 210.707 33.3701C210.3 33.6073 209.871 33.8072 209.424 33.9673C208.91 34.1335 208.363 34.188 207.823 34.1265C207.107 34.0517 206.428 33.7853 205.866 33.3587C205.282 32.93 204.841 32.3515 204.596 31.6924C204.202 30.6311 204.078 29.4972 204.235 28.3823C204.313 27.8076 204.427 27.2379 204.578 26.6761C204.861 25.7033 205.304 24.7783 205.89 23.9348C206.212 23.4017 206.644 22.9355 207.161 22.5642C207.624 22.2871 208.154 22.1266 208.702 22.0978ZM210.327 24.64C210.004 24.4161 209.632 24.2626 209.238 24.1907C209.021 24.1602 208.799 24.1898 208.6 24.2761C208.369 24.3736 208.164 24.5171 207.997 24.6969C207.833 24.8216 207.708 24.987 207.636 25.1747C207.53 25.4965 207.393 25.8087 207.227 26.1074C206.922 26.7823 206.702 27.4886 206.571 28.2117C206.526 28.3993 206.494 28.5892 206.474 28.7804C206.285 29.7085 206.481 30.6697 207.022 31.4649C207.152 31.6117 207.313 31.7319 207.494 31.818C207.675 31.9041 207.873 31.9542 208.076 31.9653C208.31 32.0158 208.552 32.0158 208.786 31.9653C209.055 31.8466 209.305 31.6914 209.527 31.5047C209.719 31.3634 209.898 31.2074 210.063 31.0383C210.169 30.9302 210.26 30.8098 210.333 30.68C210.382 30.589 210.454 30.4355 210.556 30.2136C210.659 29.9918 210.755 29.7928 210.845 29.6449C211.055 29.2283 211.183 28.7794 211.224 28.3198C211.224 28.2515 211.224 28.1378 211.255 27.9899C211.285 27.842 211.255 27.7055 211.285 27.6032C211.375 26.9544 211.359 26.2964 211.237 25.6524C211.075 25.2213 210.751 24.8612 210.327 24.64Z" fill="#F48E9F"/>
<path d="M220.43 20.477C220.477 20.3779 220.544 20.2892 220.63 20.2167C220.715 20.1442 220.815 20.0895 220.924 20.0562C221.163 19.969 221.422 19.9397 221.677 19.9708C221.888 19.9938 222.088 20.069 222.259 20.1888C222.429 20.3087 222.562 20.4689 222.646 20.6533C222.725 20.7826 222.763 20.9308 222.754 21.0799C222.727 21.216 222.681 21.348 222.616 21.4723C222.454 21.8675 222.335 22.2772 222.261 22.6951L222.104 23.4515H222.899C223.025 23.4515 223.176 23.4515 223.356 23.4799C223.612 23.5197 223.845 23.64 224.019 23.8212C224.132 23.9284 224.215 24.0601 224.263 24.2047C224.31 24.3494 224.319 24.5027 224.29 24.6515C224.269 24.8074 224.223 24.9591 224.151 25.1008C223.964 25.4023 223.399 25.5501 222.447 25.5387H221.659L221.472 26.2895C220.93 28.4256 220.512 30.5881 220.22 32.7674C220.093 33.7001 219.997 34.2688 219.937 34.4736C219.874 34.6778 219.743 34.8574 219.563 34.9854C219.466 35.0745 219.35 35.1425 219.222 35.1848C219.094 35.227 218.958 35.2424 218.823 35.23C218.551 35.1817 218.308 35.0423 218.137 34.8376C217.993 34.6961 217.902 34.5145 217.878 34.32C217.878 34.1437 217.878 33.666 217.962 32.8811L218.034 32.3522C218.161 31.4365 218.359 30.2422 218.636 28.7578C218.913 27.2734 219.124 26.335 219.238 25.9141L219.383 25.4648H218.612C218.01 25.4648 217.577 25.4648 217.245 25.4648C217.147 25.4754 217.049 25.4754 216.95 25.4648C216.828 25.4444 216.712 25.4005 216.608 25.336C216.505 25.2714 216.416 25.1875 216.348 25.0894C216.238 24.9548 216.158 24.7997 216.114 24.6341C216.071 24.4686 216.064 24.2963 216.096 24.1283C216.15 23.7188 216.3 23.4686 216.553 23.3719C217.11 23.2493 217.685 23.2262 218.251 23.3036C218.742 23.3416 219.235 23.3416 219.726 23.3036C219.893 22.8752 219.998 22.4276 220.039 21.9728C220.135 21.4667 220.266 20.967 220.43 20.477Z" fill="#F48E9F"/>
<path d="M227.697 19.8286C227.779 19.7624 227.876 19.7147 227.98 19.6891C228.084 19.6635 228.193 19.6606 228.299 19.6807C228.452 19.6939 228.599 19.7403 228.73 19.8162C228.86 19.8922 228.97 19.9957 229.052 20.1186C229.202 20.4801 229.266 20.8686 229.238 21.2561C229.238 21.8438 229.178 23.5936 229.058 26.5055C228.993 28.8032 228.967 29.9615 228.979 29.9805L229.335 29.4117C229.733 28.6801 230.251 28.0122 230.87 27.4325C231.053 27.2541 231.276 27.1177 231.524 27.0339C231.771 26.9501 232.035 26.9211 232.297 26.9491C232.603 26.9911 232.891 27.112 233.129 27.2987C233.367 27.4853 233.545 27.7304 233.645 28.007C233.972 28.7688 234.151 29.5797 234.175 30.4013C234.241 31.3909 234.217 32.9777 234.115 35.1503L233.994 37.6129L233.573 37.8688C233.381 38.0139 233.137 38.0832 232.893 38.0622C232.699 38.0315 232.52 37.944 232.381 37.8119C232.164 37.6155 232.034 37.3498 232.014 37.0669C231.977 36.2935 231.987 35.5188 232.044 34.7465C232.194 31.2658 232.14 29.5141 231.893 29.48C231.646 29.4459 231.171 30.3331 230.43 32.1303C229.873 33.3619 229.411 34.6297 229.046 35.9237C228.991 36.2175 228.852 36.4912 228.642 36.7143C228.479 36.9395 228.239 37.1043 227.962 37.1807C227.843 37.2041 227.72 37.2041 227.601 37.1807C227.439 37.1665 227.284 37.1144 227.149 37.0289C227.015 36.9435 226.905 36.8275 226.83 36.6915C226.699 36.3733 226.651 36.0299 226.692 35.6906C226.692 35.1408 226.734 33.6564 226.818 31.2374C226.818 31.1691 226.866 30.2023 226.932 28.3311C226.999 26.46 227.047 25.1178 227.083 24.2931C227.131 22.3367 227.209 21.0457 227.3 20.4201V20.2949C227.408 20.1224 227.542 19.9654 227.697 19.8286Z" fill="#F48E9F"/>
<path d="M241.104 22.3536C241.586 22.265 242.08 22.2478 242.567 22.3024C243.037 22.361 243.489 22.5086 243.897 22.7363C244.304 22.964 244.659 23.2672 244.939 23.6276C245.227 23.9884 245.433 24.4015 245.544 24.8409C245.654 25.2803 245.668 25.7366 245.584 26.1812C245.542 26.4372 245.473 26.6886 245.379 26.9319C245.169 27.4809 244.86 27.9909 244.464 28.4391C243.835 29.1323 243.158 29.7841 242.435 30.3898C241.964 30.7743 241.52 31.1865 241.104 31.624C240.939 31.8196 240.831 32.0531 240.791 32.3008C240.786 32.4458 240.743 32.5874 240.665 32.7126C240.587 32.8377 240.477 32.9425 240.346 33.0174C240.139 33.1197 239.903 33.1575 239.672 33.1254C239.379 33.078 239.115 32.9301 238.931 32.7103C238.725 32.4795 238.612 32.1874 238.612 31.8856V31.7832C238.607 31.7492 238.607 31.7148 238.612 31.6808C238.708 31.0704 239.405 30.2116 240.701 29.1045C242.399 27.7281 243.314 26.6703 243.434 25.9253C243.491 25.5052 243.372 25.0809 243.103 24.7423C243 24.6165 242.87 24.5125 242.722 24.4371C242.574 24.3616 242.41 24.3164 242.242 24.3044C241.885 24.2505 241.519 24.2878 241.183 24.4124C240.858 24.5034 240.683 24.6342 240.653 24.7992V24.8788C240.659 24.9127 240.659 24.9473 240.653 24.9812L240.617 25.2086C240.607 25.4045 240.536 25.5932 240.412 25.7511C240.289 25.9089 240.119 26.0289 239.924 26.0959C239.781 26.1497 239.626 26.1712 239.473 26.1584C239.307 26.1264 239.151 26.0604 239.015 25.9651C238.753 25.8395 238.54 25.6385 238.407 25.3911C238.274 25.1437 238.228 24.8627 238.275 24.5887C238.388 24.0487 238.704 23.5658 239.166 23.2295C239.72 22.7824 240.388 22.4804 241.104 22.3536ZM239.419 38.1075C239.315 37.9865 239.238 37.8473 239.191 37.698C239.145 37.5486 239.13 37.3921 239.148 37.2374C239.171 37.0947 239.228 36.9588 239.315 36.8397C239.401 36.7207 239.515 36.6214 239.647 36.5492C239.921 36.3758 240.255 36.3067 240.581 36.3558C240.744 36.3827 240.902 36.4325 241.05 36.5037C241.221 36.6291 241.342 36.8055 241.393 37.0042C241.482 37.2193 241.515 37.4514 241.49 37.681C241.461 37.7997 241.407 37.9115 241.33 38.0094C241.253 38.1073 241.156 38.1891 241.044 38.2497C240.814 38.413 240.542 38.5133 240.255 38.5398C240.173 38.5478 240.091 38.5478 240.009 38.5398C239.761 38.4726 239.549 38.3178 239.419 38.1075Z" fill="#F48E9F"/>
<path d="M1.54915 54.5502C2.17344 54.2071 2.78648 53.8472 3.4164 53.5097L5.32302 52.5367C5.96418 52.2274 6.59972 51.9068 7.24651 51.6087L9.20374 50.7482C10.5142 50.1858 11.8303 49.6234 13.1407 49.1284C13.7987 48.8585 14.4736 48.6335 15.1429 48.3973C15.8122 48.1611 16.4871 47.9249 17.162 47.6999C19.8617 46.8 22.5782 45.9451 25.3228 45.2027C28.0674 44.4603 30.8289 43.7742 33.6129 43.1611C36.3969 42.5481 39.1978 41.9913 42.0493 41.5582L44.1696 41.2489C44.8783 41.1533 45.5926 41.0802 46.3012 40.9958L48.4215 40.7765C49.1358 40.7146 49.8557 40.6752 50.57 40.619C53.4606 40.422 56.3605 40.3994 59.2538 40.5515C59.9893 40.6045 60.7215 40.6965 61.4473 40.8271C62.1843 40.9536 62.9131 41.1245 63.6295 41.3389C65.1292 41.7631 66.5407 42.4526 67.797 43.3749L67.842 43.4086C68.0011 43.5496 68.117 43.7327 68.1762 43.9368C68.2355 44.141 68.2357 44.3577 68.1769 44.5619C68.118 44.7662 68.0025 44.9496 67.8437 45.0908C67.6849 45.2321 67.4893 45.3255 67.2796 45.3602C65.8792 45.5008 64.5406 45.5852 63.1964 45.6527L62.1841 45.7145C61.8522 45.7145 61.5091 45.7145 61.1717 45.7483C60.5024 45.7877 59.8275 45.7933 59.1526 45.8101H58.1346H57.1166C56.4417 45.8101 55.7556 45.8551 55.075 45.8776L53.0278 45.9901L50.9806 46.142L46.8749 46.5019L44.8164 46.71L42.7973 47.0081C40.0527 47.3456 37.3081 47.683 34.5747 48.133C29.1023 48.9935 23.6637 50.1127 18.2925 51.5075C12.9137 52.8597 7.6149 54.5121 2.42091 56.4568C2.17752 56.5593 1.90393 56.5638 1.65732 56.4693C1.41071 56.3748 1.21018 56.1886 1.09762 55.9497C0.985065 55.7108 0.969203 55.4376 1.05335 55.1873C1.1375 54.937 1.31514 54.7289 1.54915 54.6065V54.5502Z" fill="#FFD7C5" stroke="#043866" stroke-width="1.37" stroke-miterlimit="10"/>
<path d="M74.8553 40.2589C75.441 39.9276 76.0666 39.6725 76.7169 39.4996C77.3544 39.3384 78.0003 39.2126 78.6516 39.1228C79.9426 38.9212 81.2485 38.8309 82.5549 38.8528C83.8407 38.8982 85.1184 39.0754 86.3681 39.3815C87.6181 39.6758 88.8152 40.1615 89.917 40.8213L89.9676 40.855C90.2835 41.0493 90.5094 41.3609 90.5958 41.7215C90.6823 42.082 90.6222 42.4622 90.4288 42.7785C90.3056 42.9751 90.136 43.1383 89.935 43.254C89.734 43.3698 89.5076 43.4344 89.2758 43.4422C86.897 43.4247 84.522 43.2481 82.1668 42.9135C81.0082 42.7898 79.8552 42.6154 78.7023 42.5479C77.5341 42.5227 76.3682 42.4345 75.2096 42.2836C74.989 42.2488 74.7846 42.1465 74.6245 41.9907C74.4645 41.8349 74.3567 41.6334 74.3159 41.4138C74.2752 41.1942 74.3036 40.9673 74.3972 40.7645C74.4908 40.5617 74.6449 40.3929 74.8384 40.2814L74.8553 40.2589Z" fill="white" stroke="#043866" stroke-width="1.37" stroke-miterlimit="10"/>
<path d="M259.638 21.9668C255.253 19.349 250.697 17.0302 246 15.0265C241.303 12.9793 236.495 11.1626 231.624 9.55974C226.753 7.95683 221.815 6.5564 216.787 5.4653C211.789 4.32275 206.714 3.55014 201.602 3.15373C201.442 3.15373 201.289 3.09033 201.176 2.97747C201.063 2.86461 201 2.71155 201 2.55194C201 2.39233 201.063 2.23927 201.176 2.12641C201.289 2.01355 201.442 1.95015 201.602 1.95015H201.652L203.61 1.8939C204.268 1.8939 204.926 1.83204 205.578 1.85453C206.883 1.90515 208.199 1.92203 209.515 1.99514C210.831 2.06826 212.136 2.15824 213.452 2.27635C214.768 2.39446 216.062 2.54632 217.389 2.72067L221.287 3.28309C222.58 3.50244 223.863 3.76115 225.156 3.99737L229.014 4.81851C230.297 5.09972 231.568 5.43155 232.844 5.75776C235.387 6.42704 237.906 7.14132 240.437 7.92871C241.703 8.30554 242.94 8.7611 244.194 9.18854C245.448 9.61598 246.68 10.0828 247.923 10.5496C249.166 11.0164 250.392 11.517 251.624 12.0175C252.863 12.5187 254.071 13.0953 255.24 13.7442C257.649 15.0264 259.824 16.7053 261.674 18.7104L262.04 19.1209C262.343 19.4573 262.515 19.8921 262.524 20.3452C262.532 20.7983 262.376 21.2391 262.085 21.5864C261.794 21.9337 261.387 22.164 260.939 22.235C260.492 22.3059 260.034 22.2127 259.65 21.9724L259.638 21.9668Z" fill="#FFD7C5" stroke="#043866" stroke-width="1.06" stroke-miterlimit="10"/>
<path d="M279.256 24.329C278.221 23.0748 277.197 21.815 276.078 20.6395L275.246 19.7509L274.38 18.896C273.817 18.3336 273.198 17.7712 272.602 17.2087C270.17 15.0271 267.533 13.0852 264.728 11.4102C259.039 8.07261 252.882 5.60798 246.461 4.09864C246.345 4.04619 246.251 3.9562 246.193 3.8433C246.135 3.73041 246.117 3.60123 246.142 3.47678C246.166 3.35232 246.233 3.2399 246.329 3.15777C246.426 3.07565 246.548 3.02865 246.675 3.02441C247.507 3.14815 248.362 3.26626 249.172 3.40686C249.982 3.54747 250.82 3.73869 251.652 3.90742L252.889 4.17176L254.121 4.49234C254.942 4.70044 255.763 4.90853 256.568 5.18412C259.839 6.17827 263.01 7.47756 266.039 9.06484L268.288 10.3247C269.014 10.7859 269.756 11.2302 270.476 11.697C271.196 12.1638 271.905 12.67 272.591 13.1874L273.62 13.9804C273.969 14.2391 274.306 14.5035 274.633 14.7903C275.296 15.3527 275.971 15.9152 276.595 16.4776C277.256 17.0772 277.876 17.7197 278.451 18.4011C279.625 19.6984 280.563 21.1906 281.224 22.8105L281.348 23.1198C281.454 23.3919 281.459 23.6928 281.364 23.9688C281.269 24.2448 281.078 24.4778 280.827 24.6265C280.576 24.7751 280.28 24.8296 279.992 24.7803C279.704 24.731 279.443 24.581 279.256 24.3571V24.329Z" fill="white" stroke="#043866" stroke-width="1.06" stroke-miterlimit="10"/>
</svg>
