<svg width="350" height="69" viewBox="0 0 350 69" fill="none" xmlns="http://www.w3.org/2000/svg">
<g clip-path="url(#clip0_566_8248)">
<path d="M12.6976 21.008C13.1804 20.6932 13.7369 20.5096 14.3122 20.4752C14.7693 20.4002 15.2379 20.439 15.6765 20.5882C17.0273 21.1264 17.8023 22.3588 18.0014 24.2855C18.0515 24.6795 18.0515 25.0782 18.0014 25.4722C17.9484 25.7067 17.8405 25.9253 17.6866 26.1099C17.5932 26.2455 17.4737 26.361 17.3351 26.4498C17.1964 26.5385 17.0415 26.5986 16.8793 26.6266C16.5008 26.6164 16.1379 26.4736 15.8541 26.223C15.6429 26.0677 15.4669 25.8696 15.3374 25.6417C15.2242 25.2995 15.1564 24.944 15.1356 24.5842C15.0602 23.8577 14.9069 23.446 14.6755 23.3491H14.6028H14.5301C14.1184 23.3491 13.6422 23.8738 13.0932 24.7941C12.5768 25.6819 12.2062 26.6467 11.9953 27.6518C11.8225 28.9241 11.8225 30.214 11.9953 31.4863C12.1164 32.6003 12.2133 33.3269 12.294 33.6659C12.3859 34.025 12.5478 34.3624 12.7703 34.6589C13.295 35.4661 13.844 35.8617 14.3848 35.8052C14.9941 35.717 15.5655 35.4566 16.0317 35.0544C16.3738 34.7432 16.7959 34.5335 17.2506 34.449C17.4209 34.4289 17.5935 34.4459 17.7565 34.4988C17.9196 34.5518 18.0692 34.6394 18.1951 34.7557C18.4624 34.9977 18.627 35.3328 18.6553 35.6922C18.6722 36.0038 18.6023 36.314 18.4535 36.5882C18.1025 37.0739 17.6438 37.4718 17.1134 37.7507C16.3872 38.2317 15.5572 38.5333 14.6916 38.6306H14.5867C13.6994 38.7954 12.7825 38.644 11.9953 38.2028C11.2009 37.6326 10.5625 36.8721 10.1386 35.9909C9.53311 34.77 9.17118 33.4429 9.07303 32.0837C8.78431 29.7802 9.02732 27.4411 9.78342 25.2462C10.1524 24.3524 10.6237 23.5045 11.1881 22.7194C11.5818 22.061 12.0935 21.4808 12.6976 21.008V21.008Z" fill="#F48E9F"/>
<path d="M26.3397 24.6246C26.709 24.4907 27.0945 24.4065 27.486 24.3744C28.0915 24.321 28.7009 24.4152 29.262 24.6488C29.7693 24.8757 30.321 24.986 30.8765 24.9717C31.0806 24.9477 31.2874 24.9685 31.4826 25.0327C31.6778 25.0968 31.8566 25.2027 32.0067 25.3431C32.1989 25.4968 32.3489 25.6968 32.4426 25.9243C32.5582 26.3462 32.6286 26.7792 32.6525 27.2159C32.8227 29.0776 33.0922 30.9289 33.4598 32.7619C33.6781 34.1215 34.0269 35.4569 34.5011 36.7497C34.5734 36.8925 34.6121 37.0499 34.6142 37.2099C34.6345 37.3985 34.6108 37.5892 34.5449 37.7671C34.4791 37.945 34.3729 38.1052 34.2347 38.2351C33.9786 38.5095 33.6315 38.6816 33.258 38.7195C33.1069 38.7333 32.9548 38.7112 32.814 38.6549C32.421 38.4465 32.1043 38.1185 31.9098 37.7185C31.5905 37.1704 31.3564 36.577 31.2156 35.9586C31.0864 35.337 30.9573 35.0303 30.8442 35.0383C30.7312 35.0464 30.4568 35.4581 30.037 36.2492C29.5903 37.1108 28.9818 37.8782 28.2448 38.5096C27.6042 39.0042 26.8321 39.299 26.0249 39.3572H25.5486C25.0249 39.2586 24.5371 39.0217 24.1359 38.671C23.6324 38.3402 23.2057 37.9053 22.8846 37.3956C22.3062 36.2672 21.9577 35.0351 21.8594 33.7709C21.819 33.2874 21.819 32.8014 21.8594 32.3179C21.991 30.6068 22.5159 28.9492 23.3932 27.4743C24.0039 26.2032 25.049 25.1925 26.3397 24.6246V24.6246ZM28.4547 27.3855C28.2565 27.2791 28.0403 27.2107 27.817 27.1837C27.6049 27.2437 27.4033 27.3363 27.2196 27.4581C26.3212 28.0322 25.6329 28.8819 25.258 29.8799C24.7543 31.0009 24.5432 32.2313 24.6444 33.4561C24.7035 34.0049 24.8198 34.546 24.9916 35.0706C25.089 35.4812 25.2674 35.8681 25.5163 36.2089C25.5642 36.273 25.6284 36.3233 25.7021 36.3545C25.7759 36.3857 25.8566 36.3967 25.9361 36.3865C26.5415 36.33 27.2277 35.5792 28.0107 34.005C28.6046 32.7278 28.9968 31.3662 29.1732 29.9687C29.2679 29.4087 29.3138 28.8415 29.3104 28.2735C29.2637 28.0609 29.159 27.8654 29.008 27.7086C28.8569 27.5519 28.6654 27.44 28.4547 27.3855V27.3855Z" fill="#F48E9F"/>
<path d="M44.9963 21.6541C45.4253 21.2069 45.9957 20.9218 46.6108 20.8468C47.0692 20.7853 47.5354 20.869 47.9437 21.0862C48.3521 21.3034 48.6821 21.6432 48.8873 22.0577C49.5148 23.5973 49.8542 25.2391 49.8883 26.9013C50.0551 29.0271 50.0713 32.3154 49.9367 36.7661C49.8937 38.1061 49.4497 38.8085 48.6047 38.873C48.4005 38.9125 48.1898 38.9039 47.9894 38.8479C47.7891 38.7918 47.6045 38.6899 47.4504 38.5501C47.1517 38.1011 46.9968 37.5717 47.0064 37.0325C46.9643 36.2823 46.9643 35.5304 47.0064 34.7802C47.103 32.0511 47.0572 29.3188 46.8691 26.5945C46.7642 25.2625 46.6431 24.6087 46.4978 24.6167C46.3525 24.6248 45.5613 25.9084 44.407 28.427C43.2526 30.9457 42.2758 33.3513 41.4604 35.6924C41.2024 36.4915 40.8756 37.2667 40.4836 38.0093C40.4003 38.1856 40.2751 38.3389 40.1189 38.4557C39.9627 38.5724 39.7803 38.6492 39.5876 38.6793C39.4128 38.6938 39.2368 38.6718 39.0709 38.6147C38.7436 38.5063 38.4502 38.3146 38.2195 38.0584C37.9888 37.8022 37.8287 37.4904 37.7551 37.1536C37.3546 35.6224 37.1192 34.0527 37.0528 32.4714C36.9398 30.9941 36.859 29.7994 36.8106 28.8791C36.6653 26.1748 36.6169 24.4553 36.6572 23.7368C36.6413 23.1632 36.8465 22.6053 37.2304 22.1788C37.4295 21.9841 37.6947 21.8717 37.9731 21.864C38.3323 21.8368 38.6904 21.9305 38.9902 22.1304C39.1374 22.2149 39.2638 22.3312 39.3601 22.4709C39.4565 22.6106 39.5204 22.77 39.5472 22.9376C39.6118 23.7449 39.6845 25.1253 39.7733 27.1838C39.8378 28.5885 39.8782 29.3957 39.8943 29.6056C39.9428 30.2837 40.0316 30.6147 40.1527 30.6066C40.2738 30.5986 40.6774 29.7267 41.3716 27.9992C42.6256 24.7809 43.8338 22.6658 44.9963 21.6541Z" fill="#F48E9F"/>
<path d="M54.0935 15.8576C54.1902 15.7305 54.3115 15.6243 54.4502 15.5452C54.589 15.4662 54.7422 15.4159 54.9008 15.3975C55.1446 15.4036 55.3838 15.4649 55.6005 15.5768C55.8172 15.6886 56.0058 15.8481 56.1521 16.0433C56.7646 16.7049 57.1197 17.5641 57.1531 18.4651C57.186 19.9561 56.8475 21.432 56.1682 22.7597C55.4094 24.4388 54.6021 25.3053 53.7464 25.3591C52.9956 25.4156 52.6001 25.1089 52.5597 24.455C52.5538 23.9424 52.7249 23.4434 53.0441 23.0423C53.8846 21.8953 54.3498 20.5165 54.3761 19.0947V18.7638C54.2772 18.1439 54.126 17.5336 53.924 16.9393C53.8904 16.8207 53.8688 16.699 53.8594 16.5761C53.8464 16.4466 53.8605 16.3159 53.9008 16.1922C53.9411 16.0685 54.0067 15.9545 54.0935 15.8576V15.8576Z" fill="#F48E9F"/>
<path d="M65.0804 15.9705C65.1149 15.8215 65.181 15.6816 65.2744 15.5604C65.3677 15.4392 65.486 15.3396 65.6213 15.2682C65.9091 15.0825 66.24 14.974 66.5819 14.9533C66.8673 14.9329 67.153 14.9887 67.4097 15.1149C67.6665 15.2411 67.885 15.4333 68.0431 15.6718C68.1822 15.8302 68.2695 16.0274 68.2933 16.2369C68.2927 16.4355 68.2683 16.6334 68.2207 16.8262C68.1084 17.4168 68.057 18.0173 68.0673 18.6183V19.7081L69.1168 19.5386C69.3196 19.5021 69.5245 19.4779 69.7303 19.466C70.0789 19.4532 70.4212 19.5616 70.699 19.7727C70.8733 19.8967 71.016 20.06 71.1155 20.2493C71.2151 20.4386 71.2687 20.6487 71.2722 20.8625C71.2795 21.0855 71.255 21.3084 71.1995 21.5245C71.03 21.9927 70.3276 22.3318 69.0764 22.5578L68.035 22.7677L67.9866 23.8575C67.8132 26.9738 67.8132 30.0974 67.9866 33.2137C68.0557 34.019 68.08 34.8275 68.0592 35.6355C68.0317 35.936 67.907 36.2194 67.7041 36.4428C67.5992 36.5912 67.4633 36.7151 67.3058 36.8057C67.1483 36.8963 66.9729 36.9515 66.7918 36.9675C66.4232 36.9668 66.0673 36.8319 65.7908 36.5881C65.5603 36.4291 65.392 36.1952 65.3145 35.9261C65.1893 35.2587 65.1004 34.585 65.0481 33.9079L64.9997 33.141C64.9271 31.8333 64.8786 30.1219 64.8625 27.9826C64.8463 25.8434 64.8625 24.4791 64.9271 23.8656L64.9997 23.2117L63.9906 23.4135C63.221 23.5588 62.6237 23.6799 62.1985 23.7768C62.0661 23.8087 61.9309 23.8276 61.7949 23.8333C61.6337 23.8285 61.4751 23.7918 61.3282 23.7253C61.1813 23.6587 61.0491 23.5638 60.9392 23.4458C60.7582 23.2854 60.6124 23.0892 60.511 22.8697C60.4096 22.6502 60.3547 22.4121 60.3499 22.1703C60.3073 21.9569 60.3223 21.7361 60.3932 21.5304C60.4641 21.3247 60.5885 21.1416 60.7535 20.9998C61.4604 20.7003 62.2147 20.5281 62.9815 20.4912C63.6379 20.4334 64.2885 20.3228 64.9271 20.1602C65.0398 19.5208 65.0642 18.8689 64.9997 18.2228C64.9718 17.4711 64.9988 16.7183 65.0804 15.9705V15.9705Z" fill="#F48E9F"/>
<path d="M103.054 18.3926C103.141 18.3607 103.225 18.3202 103.304 18.2715H103.45C103.682 18.301 103.904 18.3869 104.095 18.5217C104.33 18.652 104.538 18.8244 104.709 19.0303C104.854 19.1714 104.94 19.3615 104.951 19.5631C104.876 20.1129 104.746 20.6538 104.564 21.1776C104.136 22.7437 103.756 24.4067 103.361 26.1988C102.634 29.7669 101.948 31.9546 101.294 32.778C101.099 33.0205 100.853 33.2181 100.575 33.3574C100.296 33.4967 99.991 33.5744 99.6797 33.5853C99.3007 33.5894 98.9255 33.5097 98.5808 33.352C98.2362 33.1943 97.9305 32.9625 97.6858 32.6731C96.6041 31.5026 95.6192 29.5328 94.7231 26.7801C94.5052 26.11 94.3356 25.7952 94.2226 25.8517C93.784 26.6218 93.4217 27.4329 93.1409 28.2735C91.9946 30.9644 91.0582 32.657 90.3316 33.3512C90.084 33.6257 89.7397 33.7935 89.371 33.8194H89.1853H88.935C88.5368 33.8327 88.1426 33.7348 87.7968 33.5369C87.2236 33.1413 86.6666 32.1726 86.1338 30.6146C85.9159 30.0414 85.6979 29.4117 85.488 28.7417C85.1729 27.8238 84.922 26.8851 84.7372 25.9324C84.3417 24.4229 84.0349 23.333 83.8251 22.6549C83.6404 22.1354 83.5343 21.5912 83.5102 21.0404C83.4699 19.9022 83.9381 19.3129 84.9068 19.2806C85.1076 19.2601 85.3105 19.2835 85.5014 19.349C85.6923 19.4145 85.8668 19.5206 86.0127 19.66C86.3423 20.1105 86.5582 20.6339 86.6424 21.1857C87.1806 23.6183 87.8372 26.1396 88.6121 28.7498C88.8543 29.4198 89.0319 29.7266 89.153 29.6781C89.2741 29.6297 89.8957 28.2816 90.9371 25.6418C91.9704 23.1393 92.6242 21.6055 92.8906 21.105C93.1102 20.6462 93.4653 20.2659 93.9078 20.0152C94.181 19.8473 94.4918 19.7502 94.8119 19.7326C95.0501 19.7278 95.2846 19.7923 95.4868 19.9185C95.6889 20.0446 95.8499 20.2269 95.9502 20.443C96.361 21.2816 96.6648 22.1685 96.8543 23.0828C97.2129 24.5262 97.6495 25.949 98.1621 27.3452C98.7272 28.8843 99.1308 29.6512 99.373 29.6459C99.5183 29.5974 99.817 28.4592 100.277 26.2392C100.923 23.1877 101.41 21.1776 101.738 20.2089C101.827 19.8343 101.989 19.4808 102.214 19.1691C102.44 18.8573 102.726 18.5934 103.054 18.3926V18.3926Z" fill="#F48E9F"/>
<path d="M113.356 19.7972C113.735 19.695 114.125 19.6408 114.518 19.6358C115.125 19.6344 115.725 19.7725 116.27 20.0394C116.754 20.3059 117.292 20.4603 117.844 20.4915C118.049 20.4821 118.253 20.5177 118.443 20.5958C118.633 20.6739 118.803 20.7926 118.942 20.9435C119.121 21.109 119.254 21.3174 119.329 21.549C119.417 21.9792 119.455 22.4179 119.442 22.8567C119.475 24.5735 119.609 26.4356 119.846 28.443C119.967 29.8087 120.216 31.16 120.589 32.4793C120.65 32.6275 120.678 32.7874 120.669 32.9476C120.674 33.1365 120.636 33.3239 120.557 33.4959C120.479 33.6679 120.363 33.8199 120.217 33.9405C119.943 34.1983 119.584 34.3475 119.208 34.3603C119.054 34.3594 118.902 34.3235 118.764 34.2553C118.398 34.0135 118.116 33.6637 117.957 33.2543C117.678 32.6843 117.49 32.0742 117.4 31.446C117.319 30.8164 117.214 30.5015 117.093 30.5015C116.972 30.5015 116.673 30.889 116.205 31.6479C115.689 32.4713 115.024 33.1913 114.244 33.771C113.569 34.2174 112.776 34.4508 111.967 34.441H111.491C110.974 34.2987 110.506 34.0199 110.135 33.6337C109.652 33.2542 109.26 32.7715 108.988 32.221C108.492 31.0512 108.234 29.7943 108.229 28.5237C108.223 28.0379 108.252 27.5521 108.318 27.0707C108.577 25.371 109.226 23.7544 110.215 22.3482C110.926 21.152 112.039 20.2478 113.356 19.7972ZM115.253 22.7034C115.061 22.5869 114.851 22.5049 114.631 22.4612C114.416 22.5048 114.209 22.581 114.018 22.6872C113.071 23.2025 112.32 24.0134 111.878 24.996C111.292 26.0759 110.989 27.2869 110.998 28.5157C111.018 29.0602 111.094 29.6013 111.224 30.1302C111.291 30.5454 111.439 30.9432 111.66 31.3007C111.703 31.3683 111.763 31.4233 111.834 31.4602C111.905 31.497 111.984 31.5144 112.064 31.5106C112.669 31.5106 113.42 30.7599 114.316 29.2906C115.006 28.0591 115.499 26.7272 115.777 25.3431C115.916 24.7956 116.003 24.236 116.036 23.6721C116.009 23.4536 115.921 23.247 115.783 23.0758C115.644 22.9046 115.461 22.7756 115.253 22.7034V22.7034Z" fill="#F48E9F"/>
<path d="M124.124 14.4206C124.386 14.1604 124.732 14.0028 125.101 13.9766C125.299 13.9789 125.494 14.0208 125.676 14.0998C125.858 14.1788 126.022 14.2934 126.158 14.4367C126.307 14.5689 126.427 14.7303 126.51 14.9109C126.593 15.0915 126.638 15.2873 126.643 15.4862C126.633 15.8985 126.465 16.2913 126.174 16.584C126.036 16.7651 125.861 16.9148 125.661 17.0233C125.46 17.1318 125.239 17.1967 125.012 17.2137C124.744 17.2175 124.481 17.1432 124.254 16.9998C124.028 16.8565 123.848 16.6503 123.736 16.4064C123.613 16.1843 123.549 15.934 123.551 15.6799C123.553 15.4416 123.606 15.2066 123.704 14.9897C123.803 14.7729 123.946 14.579 124.124 14.4206V14.4206ZM124.746 18.8444C124.856 18.7288 124.991 18.6391 125.14 18.5819C125.29 18.5247 125.45 18.5013 125.609 18.5134C125.858 18.501 126.106 18.5463 126.334 18.6457C126.563 18.7452 126.765 18.896 126.925 19.0866C127.156 19.5537 127.277 20.0671 127.28 20.5881C127.345 21.3523 127.426 23.2117 127.523 26.1663L127.749 32.8101L127.28 33.2137C127.033 33.4657 126.697 33.6106 126.344 33.6173C126.085 33.6158 125.833 33.5385 125.618 33.395C125.402 33.2515 125.234 33.0482 125.133 32.8101C124.988 32.5679 124.826 30.2322 124.649 25.803C124.557 23.3543 124.509 21.694 124.503 20.8222C124.411 20.1478 124.494 19.4609 124.746 18.8282V18.8444Z" fill="#F48E9F"/>
<path d="M135.62 13.9203C135.667 13.7743 135.744 13.6395 135.845 13.5242C135.946 13.409 136.07 13.3158 136.209 13.2503C136.508 13.0859 136.844 12.9998 137.186 13.0001C137.472 12.9975 137.753 13.0709 138.001 13.2127C138.25 13.3546 138.456 13.5598 138.599 13.8073C138.726 13.9758 138.802 14.1778 138.817 14.3886C138.806 14.5859 138.77 14.7811 138.712 14.9698C138.563 15.5538 138.477 16.1517 138.453 16.7538L138.381 17.8437L139.43 17.7306C139.637 17.7166 139.845 17.7166 140.052 17.7306C140.398 17.7426 140.731 17.8706 140.996 18.0939C141.165 18.2278 141.298 18.4006 141.386 18.5974C141.473 18.7943 141.511 19.0093 141.497 19.2241C141.497 19.4463 141.462 19.6671 141.392 19.878C141.198 20.3381 140.472 20.6368 139.212 20.7821L138.155 20.9274L138.042 22.0091C137.697 25.1106 137.525 28.2287 137.525 31.3492C137.538 32.1573 137.511 32.9656 137.444 33.771C137.403 34.0775 137.261 34.3616 137.041 34.5783C136.926 34.7202 136.783 34.8361 136.62 34.9182C136.457 35.0004 136.278 35.0468 136.096 35.0546C135.728 35.0283 135.381 34.8707 135.119 34.6106C134.903 34.4355 134.75 34.1945 134.683 33.9244C134.601 33.2492 134.552 32.5702 134.538 31.8901V31.1232C134.538 29.8154 134.595 28.0959 134.708 25.9647C134.821 23.8336 134.926 22.4693 135.023 21.8638L135.136 21.21L134.118 21.3553C133.311 21.4521 132.73 21.5329 132.294 21.6055C132.163 21.6207 132.03 21.6207 131.898 21.6055C131.583 21.5717 131.293 21.4152 131.091 21.1696C130.922 20.9979 130.789 20.7932 130.702 20.5683C130.614 20.3434 130.574 20.103 130.583 19.8618C130.55 19.6455 130.577 19.4245 130.661 19.2225C130.745 19.0205 130.883 18.8452 131.059 18.7155C131.781 18.4566 132.544 18.3308 133.311 18.3442C133.97 18.3255 134.626 18.2526 135.273 18.1262C135.416 17.4935 135.478 16.8452 135.458 16.1968C135.458 15.4351 135.512 14.6744 135.62 13.9203V13.9203Z" fill="#F48E9F"/>
<path d="M158.974 14.1868C159.018 14.0402 159.094 13.9049 159.195 13.7906C159.297 13.6762 159.423 13.5855 159.563 13.5249C159.867 13.3661 160.205 13.2856 160.548 13.2908C160.832 13.2952 161.109 13.3716 161.355 13.5128C161.601 13.654 161.806 13.8554 161.953 14.098C162.077 14.2673 162.147 14.4697 162.155 14.6793C162.14 14.8775 162.1 15.073 162.034 15.2605C161.875 15.8408 161.778 16.436 161.743 17.0365L161.646 18.1263L162.704 18.0375C162.908 18.0239 163.113 18.0239 163.317 18.0375C163.664 18.0581 163.994 18.1945 164.253 18.425C164.421 18.5609 164.552 18.7357 164.637 18.934C164.721 19.1324 164.756 19.3484 164.738 19.5632C164.737 19.784 164.696 20.0029 164.617 20.209C164.415 20.6692 163.68 20.9517 162.421 21.0728L161.363 21.1939L161.226 22.2837C160.822 25.3763 160.59 28.4892 160.532 31.6076C160.532 32.4166 160.489 33.225 160.403 34.0294C160.356 34.3374 160.208 34.6212 159.983 34.8367C159.866 34.976 159.72 35.0885 159.556 35.1665C159.392 35.2445 159.212 35.2862 159.031 35.2887C158.663 35.2569 158.319 35.0936 158.062 34.8286C157.846 34.6494 157.697 34.4015 157.642 34.1263C157.569 33.4507 157.534 32.7715 157.537 32.092V31.3331C157.569 30.0254 157.661 28.3059 157.812 26.1747C157.965 24.0516 158.102 22.6793 158.207 22.0819L158.336 21.428L157.311 21.5491C156.536 21.6298 155.931 21.7025 155.495 21.767C155.361 21.7856 155.225 21.7856 155.091 21.767C154.933 21.7496 154.78 21.7006 154.642 21.6229C154.503 21.5453 154.381 21.4406 154.284 21.315C154.118 21.1397 153.99 20.9328 153.907 20.7066C153.824 20.4805 153.787 20.2398 153.799 19.9991C153.774 19.782 153.807 19.562 153.895 19.3619C153.983 19.1618 154.123 18.9888 154.3 18.8609C155.028 18.6196 155.793 18.5076 156.56 18.5299C157.218 18.5245 157.874 18.4651 158.522 18.3523C158.685 17.7252 158.761 17.0788 158.748 16.431C158.766 15.6783 158.841 14.928 158.974 14.1868V14.1868Z" fill="#F48E9F"/>
<path d="M172.73 18.7235C172.997 18.6868 173.267 18.6706 173.537 18.675C174.477 18.7243 175.4 18.9488 176.257 19.337C177.098 19.6637 177.848 20.1869 178.445 20.8627C179.006 21.4839 179.407 22.2318 179.616 23.0423C179.811 24.2345 179.871 25.4451 179.793 26.6508C179.729 27.9747 179.664 28.8385 179.599 29.2421C179.505 29.7593 179.342 30.2615 179.115 30.7356C178.818 31.4277 178.47 32.0968 178.074 32.7376C177.88 32.9703 177.746 33.2478 177.686 33.5449C177.686 33.6902 177.363 33.9889 176.726 34.4409C176.223 34.8236 175.682 35.1537 175.111 35.4258C174.445 35.7173 173.722 35.8553 172.996 35.8294C172.018 35.7964 171.068 35.4889 170.256 34.9423C169.444 34.3956 168.802 33.6317 168.403 32.7376C167.744 31.2825 167.445 29.6906 167.531 28.0958C167.569 27.2841 167.655 26.4754 167.789 25.674C168.049 24.2604 168.535 22.8977 169.226 21.6377C169.592 20.8471 170.113 20.1387 170.76 19.555C171.336 19.1165 172.014 18.8305 172.73 18.7235V18.7235ZM175.2 22.1382C174.741 21.8567 174.225 21.6803 173.69 21.6215C173.409 21.6147 173.131 21.6814 172.883 21.8153C172.567 21.9719 172.291 22.1983 172.076 22.4772C171.871 22.6735 171.723 22.9219 171.648 23.1957C171.543 23.6625 171.397 24.119 171.212 24.56C170.895 25.5454 170.692 26.5638 170.607 27.5953C170.567 27.8627 170.546 28.1324 170.542 28.4026C170.397 29.7359 170.77 31.0739 171.583 32.1402C171.777 32.3341 172.007 32.4869 172.261 32.5896C172.515 32.6922 172.787 32.7426 173.061 32.7376C173.381 32.7668 173.703 32.7255 174.005 32.6165C174.35 32.4159 174.665 32.1687 174.942 31.8819C175.184 31.6658 175.403 31.425 175.595 31.1634C175.727 30.9972 175.838 30.8156 175.926 30.6226C175.975 30.4934 176.056 30.2674 176.161 29.9445C176.265 29.6215 176.378 29.3229 176.483 29.0645C176.708 28.4514 176.825 27.8042 176.831 27.1513C176.831 27.0544 176.831 26.893 176.831 26.675C176.831 26.4571 176.831 26.2795 176.831 26.1261C176.878 25.1985 176.777 24.2692 176.532 23.3733C176.247 22.8178 175.775 22.3806 175.2 22.1382V22.1382Z" fill="#F48E9F"/>
<path d="M197.739 19.45C198.424 19.2132 199.146 19.1037 199.87 19.1271C200.277 19.1337 200.678 19.2205 201.05 19.3826C201.423 19.5447 201.76 19.7789 202.042 20.0716C202.31 20.3818 202.511 20.7443 202.632 21.1362C202.753 21.528 202.791 21.9407 202.744 22.3481C202.671 23.6801 202.268 24.4389 201.533 24.6407C201.366 24.6894 201.19 24.7058 201.016 24.6892C200.82 24.6831 200.629 24.63 200.457 24.5345C200.286 24.439 200.14 24.3038 200.032 24.1402C199.772 23.7686 199.654 23.3159 199.701 22.8648C199.738 22.6674 199.738 22.4648 199.701 22.2674C199.66 22.1786 199.539 22.1301 199.345 22.1221C198.458 22.265 197.623 22.638 196.924 23.2038C195.777 23.9546 195.132 24.5277 194.986 24.9313V25.004V25.0767C194.986 25.1977 195.132 25.3108 195.438 25.4157C195.745 25.5207 196.681 25.7709 198.231 26.1665C199.27 26.3945 200.278 26.744 201.234 27.2078C201.832 27.5608 202.374 28.0016 202.841 28.5156C203.327 29.0087 203.728 29.5788 204.028 30.2028C204.263 30.8339 204.348 31.5108 204.278 32.1806C204.28 32.6926 204.164 33.1982 203.939 33.6579C203.115 35.0356 201.347 35.8832 198.635 36.2008C197.828 36.2734 197.343 36.3057 197.101 36.2976C196.601 36.2434 196.106 36.1434 195.624 35.999C193.756 35.5038 192.659 34.5324 192.33 33.0847C192.302 32.9167 192.288 32.7465 192.29 32.5762C192.294 32.3854 192.339 32.1978 192.423 32.0264C192.507 31.8549 192.626 31.7037 192.774 31.5832C193.065 31.3395 193.437 31.2154 193.816 31.2361C194.105 31.2538 194.383 31.3525 194.619 31.5209C194.854 31.6894 195.038 31.9208 195.148 32.1887C195.426 32.6321 195.861 32.9547 196.367 33.0928C196.696 33.1856 197.034 33.2398 197.376 33.2543C198.257 33.3049 199.139 33.173 199.967 32.8668C200.774 32.5681 201.218 32.1806 201.251 31.7205C201.251 31.0666 200.823 30.4611 199.854 29.896C198.181 29.139 196.409 28.6252 194.591 28.3703C194.103 28.2831 193.639 28.0944 193.228 27.8162C192.818 27.5381 192.471 27.1768 192.209 26.7558C191.947 26.2604 191.838 25.6987 191.894 25.1412C191.917 24.4476 192.105 23.7694 192.443 23.1634C192.992 22.3377 193.7 21.6296 194.526 21.0807C195.509 20.3788 196.592 19.8291 197.739 19.45Z" fill="#F48E9F"/>
<path d="M213.367 16.6005C213.422 16.4572 213.506 16.327 213.615 16.2185C213.723 16.1099 213.853 16.0256 213.997 15.9709C214.307 15.8265 214.648 15.7626 214.99 15.7852C215.275 15.8013 215.55 15.8927 215.789 16.0501C216.027 16.2075 216.219 16.4253 216.346 16.6813C216.462 16.8557 216.524 17.0609 216.523 17.2706C216.498 17.4666 216.449 17.659 216.378 17.8437C216.194 18.4158 216.069 19.0056 216.007 19.6036L215.853 20.6853H216.919C217.123 20.669 217.328 20.669 217.532 20.6853C217.877 20.7253 218.2 20.8753 218.453 21.1131C218.61 21.2598 218.731 21.4414 218.805 21.6434C218.88 21.8453 218.905 22.0619 218.881 22.2756C218.864 22.4977 218.812 22.7157 218.727 22.9214C218.501 23.3654 217.759 23.6157 216.491 23.6803L215.434 23.7529L215.248 24.8266C214.695 27.8976 214.312 30.9968 214.102 34.1101C214.064 34.9208 213.986 35.7291 213.868 36.5319C213.8 36.8258 213.642 37.0912 213.415 37.2907C213.29 37.4231 213.139 37.5275 212.97 37.597C212.802 37.6666 212.621 37.6998 212.439 37.6944C212.075 37.6441 211.74 37.4669 211.494 37.1939C211.285 37.0069 211.148 36.7527 211.107 36.4754C211.069 35.7951 211.069 35.1133 211.107 34.433L211.155 33.6742C211.247 32.3664 211.419 30.655 211.672 28.54C211.922 26.4169 212.124 25.0607 212.261 24.4633L212.414 23.8175L211.389 23.8901C210.582 23.9386 210.001 23.9789 209.557 24.0274C209.423 24.0404 209.287 24.0404 209.153 24.0274C208.83 23.9751 208.54 23.7984 208.346 23.5349C208.188 23.3524 208.069 23.1391 207.996 22.9086C207.924 22.678 207.9 22.4351 207.926 22.1949C207.966 21.6136 208.144 21.2423 208.475 21.0809C209.215 20.873 209.985 20.7965 210.751 20.8548C211.409 20.8845 212.068 20.8575 212.721 20.7741C212.901 20.141 212.996 19.4867 213.004 18.8286C213.074 18.0785 213.196 17.3341 213.367 16.6005V16.6005Z" fill="#F48E9F"/>
<path d="M227.203 23.3252C227.59 23.2609 227.983 23.2446 228.374 23.2767C228.978 23.3346 229.561 23.5307 230.077 23.8499C230.52 24.1716 231.031 24.387 231.571 24.4795C231.776 24.4937 231.975 24.5514 232.156 24.6488C232.337 24.7463 232.495 24.8812 232.62 25.0446C232.785 25.2274 232.899 25.45 232.951 25.6904C232.995 26.1252 232.995 26.5634 232.951 26.9982C232.814 28.7096 232.765 30.5825 232.806 32.6006C232.786 33.978 232.899 35.3541 233.145 36.7096C233.192 36.8636 233.206 37.0261 233.185 37.1859C233.171 37.3745 233.114 37.5573 233.017 37.7198C232.921 37.8823 232.787 38.0201 232.628 38.1223C232.333 38.3538 231.961 38.4661 231.587 38.4372C231.435 38.4262 231.289 38.3791 231.159 38.2999C230.807 38.0249 230.55 37.6466 230.424 37.2182C230.207 36.6213 230.079 35.9957 230.045 35.3615C230.045 34.7318 229.956 34.4089 229.835 34.4008C229.714 34.3928 229.383 34.7399 228.842 35.4503C228.258 36.2037 227.541 36.8439 226.727 37.3393C226.011 37.7155 225.199 37.8701 224.394 37.7833H223.926C223.425 37.5985 222.984 37.2803 222.65 36.863C222.209 36.4358 221.864 35.9181 221.641 35.3453C221.138 33.6585 221.082 31.8695 221.48 30.1546C221.907 28.4885 222.713 26.9439 223.837 25.642C224.648 24.4945 225.842 23.6732 227.203 23.3252V23.3252ZM228.818 26.4089C228.641 26.2754 228.441 26.1742 228.229 26.1102C228.009 26.1311 227.794 26.1855 227.591 26.2717C226.599 26.6937 225.771 27.4277 225.234 28.3625C224.548 29.3693 224.126 30.5324 224.007 31.7449C223.966 32.2999 223.988 32.8577 224.071 33.4079C224.092 33.8289 224.199 34.2411 224.386 34.6188C224.423 34.6909 224.478 34.752 224.546 34.796C224.614 34.8399 224.693 34.8651 224.774 34.8691C225.371 34.9175 226.194 34.2555 227.195 32.8832C228.002 31.7247 228.623 30.4472 229.036 29.0971C229.225 28.5729 229.365 28.0324 229.456 27.4826C229.46 27.261 229.401 27.0427 229.287 26.8528C229.173 26.6629 229.008 26.5091 228.81 26.4089H228.818Z" fill="#F48E9F"/>
<path d="M238.029 23.6718C238.337 23.4279 238.727 23.3097 239.119 23.3408C239.309 23.357 239.494 23.4119 239.662 23.5021C239.83 23.5924 239.977 23.716 240.096 23.8656C240.315 24.1142 240.428 24.4388 240.41 24.7697C240.41 24.8181 240.354 25.1088 240.257 25.6335L240.039 26.9009L241.387 25.7869C241.965 25.2611 242.614 24.8207 243.317 24.4791C243.897 24.254 244.524 24.1764 245.141 24.2531C245.371 24.2728 245.6 24.3051 245.827 24.3499C247.442 24.6809 248.491 25.2702 248.871 26.134C248.948 26.3021 248.979 26.4875 248.962 26.6716C248.945 26.8558 248.88 27.0322 248.774 27.1834C248.623 27.4301 248.406 27.6301 248.148 27.7612C247.89 27.8923 247.601 27.9494 247.313 27.9261C246.994 27.8911 246.681 27.8124 246.384 27.692C245.935 27.4865 245.459 27.3426 244.971 27.2642C244.164 27.1915 243.357 27.7969 242.55 29.0805C241.983 30.0734 241.523 31.1233 241.177 32.2127C240.775 33.2552 240.486 34.3377 240.314 35.4418C240.305 35.498 240.305 35.5551 240.314 35.6113C240.317 35.6516 240.317 35.6921 240.314 35.7324C240.33 35.8556 240.33 35.9805 240.314 36.1037C240.238 36.4393 240.057 36.742 239.797 36.9675C239.644 37.1331 239.456 37.2614 239.246 37.3426C239.036 37.4238 238.81 37.4556 238.586 37.4357C238.269 37.3984 237.971 37.2681 237.728 37.0612C237.485 36.8543 237.309 36.5801 237.222 36.2732C236.762 35.1592 236.657 32.6728 236.899 28.798C236.971 27.5386 237.02 26.7637 237.044 26.4811C237.084 25.8345 237.2 25.195 237.391 24.576C237.513 24.2198 237.734 23.9061 238.029 23.6718V23.6718Z" fill="#F48E9F"/>
<path d="M257.791 20.4432C257.852 20.3025 257.942 20.1759 258.055 20.0717C258.167 19.9675 258.3 19.8878 258.445 19.8378C258.762 19.7065 259.106 19.6565 259.446 19.6925C259.729 19.7241 259.999 19.8275 260.231 19.9928C260.463 20.1581 260.648 20.3798 260.77 20.637C260.877 20.8175 260.93 21.0247 260.924 21.2343C260.886 21.4306 260.83 21.6226 260.754 21.8075C260.546 22.3716 260.397 22.9561 260.31 23.5512L260.124 24.6249H261.182C261.389 24.6105 261.597 24.6105 261.804 24.6249C262.146 24.6724 262.462 24.8346 262.7 25.085C262.852 25.236 262.966 25.4206 263.033 25.624C263.1 25.8273 263.119 26.0437 263.087 26.2555C263.064 26.4766 263.004 26.6922 262.909 26.8933C262.667 27.3373 261.917 27.5552 260.649 27.5714H259.584L259.358 28.645C258.69 31.6908 258.191 34.7712 257.864 37.8721C257.794 38.6844 257.684 39.4927 257.533 40.2939C257.456 40.585 257.286 40.843 257.049 41.0285C256.92 41.1561 256.766 41.255 256.596 41.319C256.426 41.383 256.245 41.4105 256.064 41.3998C255.7 41.3367 255.37 41.1447 255.136 40.859C254.938 40.66 254.81 40.4022 254.772 40.1243C254.76 39.4454 254.784 38.7663 254.845 38.09L254.926 37.3312C255.066 36.0288 255.302 34.3255 255.636 32.2212C255.967 30.1143 256.217 28.758 256.379 28.1849L256.556 27.5472H255.531C254.724 27.5472 254.135 27.5472 253.699 27.6117C253.565 27.6274 253.429 27.6274 253.295 27.6117C253.132 27.5846 252.977 27.5249 252.838 27.4361C252.7 27.3473 252.58 27.2313 252.488 27.0951C252.336 26.9064 252.225 26.6888 252.161 26.4555C252.098 26.2222 252.082 25.9783 252.116 25.7389C252.181 25.1576 252.375 24.7944 252.706 24.6491C253.453 24.4677 254.227 24.4212 254.99 24.5118C255.646 24.5611 256.304 24.5611 256.96 24.5118C257.175 23.9002 257.306 23.2619 257.347 22.6148C257.446 21.8817 257.595 21.1562 257.791 20.4432V20.4432Z" fill="#F48E9F"/>
<path d="M283.978 27.8943C284.488 27.5408 285.104 27.3727 285.722 27.418C286.18 27.4481 286.617 27.6196 286.972 27.9089C287.328 28.1981 287.585 28.5908 287.708 29.0325C288.014 30.6787 288.014 32.3671 287.708 34.0133C287.444 36.1284 286.788 39.3574 285.738 43.7005C285.431 45.0002 284.85 45.5976 284.011 45.4927C283.802 45.4905 283.596 45.4389 283.411 45.3421C283.226 45.2453 283.066 45.106 282.945 44.9356C282.733 44.4244 282.688 43.8595 282.816 43.3211C282.917 42.5764 283.06 41.838 283.244 41.1092C283.898 38.447 284.413 35.7524 284.786 33.0366C284.955 31.7126 284.971 31.0426 284.826 31.0265C284.681 31.0103 283.647 32.0921 282.009 34.3282C280.37 36.5643 278.909 38.7116 277.641 40.7863C277.227 41.5177 276.746 42.2095 276.204 42.8529C276.086 43.0064 275.933 43.1296 275.757 43.2124C275.582 43.2952 275.389 43.3352 275.195 43.3292C275.021 43.304 274.853 43.2436 274.703 43.1516C274.406 42.9782 274.158 42.7311 273.984 42.4341C273.81 42.1372 273.716 41.8004 273.71 41.4563C273.637 39.8742 273.729 38.2888 273.984 36.7258C274.17 35.2646 274.34 34.0699 274.477 33.1657C274.897 30.4856 275.195 28.7903 275.381 28.0961C275.48 27.5312 275.796 27.0273 276.261 26.6914C276.5 26.5369 276.789 26.4819 277.068 26.5381C277.429 26.5823 277.765 26.7473 278.021 27.0063C278.146 27.1202 278.245 27.2602 278.311 27.4164C278.376 27.5726 278.407 27.7412 278.4 27.9104C278.295 28.7177 278.085 30.082 277.746 32.1163C277.52 33.5048 277.399 34.304 277.367 34.5381C277.286 35.2081 277.302 35.5552 277.423 35.5714C278.075 34.9086 278.639 34.1653 279.103 33.3595C281.008 30.4748 282.633 28.6531 283.978 27.8943Z" fill="#F48E9F"/>
<path d="M296.201 29.3956C296.47 29.3792 296.739 29.3792 297.008 29.3956C297.94 29.5509 298.835 29.8765 299.648 30.3562C300.444 30.7745 301.13 31.3747 301.65 32.108C302.15 32.7989 302.479 33.5984 302.611 34.441C302.677 35.6482 302.604 36.859 302.393 38.0494C302.183 39.3572 302.021 40.2129 301.916 40.6004C301.764 41.1037 301.549 41.5863 301.279 42.0373C300.902 42.6895 300.481 43.3153 300.019 43.9102C299.8 44.1384 299.637 44.4148 299.543 44.7175C299.543 44.8628 299.172 45.1292 298.502 45.5247C297.946 45.8509 297.359 46.1213 296.75 46.332C296.056 46.549 295.322 46.6069 294.603 46.5015C293.635 46.36 292.726 45.9509 291.979 45.3204C291.232 44.69 290.675 43.8632 290.373 42.9334C289.88 41.4129 289.755 39.797 290.009 38.219C290.136 37.4021 290.312 36.5934 290.534 35.7972C290.951 34.4268 291.58 33.1303 292.399 31.9546C292.846 31.2087 293.443 30.563 294.151 30.0575C294.768 29.6694 295.473 29.4418 296.201 29.3956V29.3956ZM298.284 33.0686C297.861 32.7347 297.366 32.5026 296.839 32.3905C296.55 32.3395 296.253 32.3732 295.983 32.4874C295.675 32.6167 295.399 32.8124 295.176 33.0605C294.951 33.231 294.778 33.4601 294.675 33.7225C294.513 34.1756 294.316 34.6155 294.086 35.0383C293.664 35.9815 293.353 36.9702 293.158 37.9849C293.088 38.2502 293.037 38.5199 293.004 38.7921C292.712 40.1037 292.938 41.4773 293.634 42.6266C293.804 42.8388 294.016 43.0141 294.256 43.1418C294.496 43.2694 294.759 43.3469 295.03 43.3693C295.347 43.4369 295.674 43.4369 295.991 43.3693C296.35 43.2027 296.686 42.9911 296.992 42.7397C297.257 42.5482 297.503 42.332 297.727 42.0938C297.872 41.9424 298 41.7744 298.106 41.5933C298.223 41.3815 298.328 41.1631 298.421 40.9395C298.566 40.6327 298.704 40.3502 298.833 40.1322C299.125 39.5475 299.313 38.9165 299.39 38.2674C299.39 38.1705 299.39 38.0172 299.438 37.7992C299.487 37.5812 299.479 37.4036 299.495 37.2583C299.643 36.3413 299.643 35.4065 299.495 34.4894C299.281 33.8822 298.849 33.3759 298.284 33.0686V33.0686Z" fill="#F48E9F"/>
<path d="M325.706 33.8195C325.797 33.8058 325.886 33.7842 325.973 33.7549H326.118C326.339 33.8258 326.539 33.9507 326.699 34.1182C326.906 34.2915 327.079 34.5024 327.208 34.7398C327.319 34.9056 327.365 35.107 327.337 35.3049C327.161 35.8317 326.934 36.34 326.659 36.8225C325.932 38.2756 325.222 39.8417 324.512 41.5208C323.123 44.879 322.025 46.8972 321.234 47.5834C321 47.7799 320.728 47.9259 320.435 48.012C320.142 48.0981 319.834 48.1226 319.531 48.0839C319.16 48.0141 318.808 47.8637 318.501 47.6433C318.194 47.4229 317.94 47.1379 317.755 46.8084C316.915 45.4414 316.318 43.3237 315.963 40.4552C315.882 39.7529 315.777 39.4138 315.648 39.4461C315.076 40.1127 314.568 40.8316 314.13 41.5934C312.516 44.0314 311.275 45.5141 310.409 46.0415C310.11 46.2651 309.738 46.3662 309.367 46.324L309.19 46.2756C309.111 46.248 309.03 46.229 308.948 46.2191C308.554 46.1497 308.187 45.9769 307.882 45.7186C307.398 45.2261 307.075 44.1606 306.808 42.4895C306.703 41.8841 306.615 41.2302 306.534 40.5359C306.401 39.5729 306.334 38.6019 306.332 37.6298C306.235 36.0718 306.146 34.9416 306.058 34.2393C305.985 33.7035 305.985 33.1604 306.058 32.6247C306.235 31.5026 306.8 31.0102 307.761 31.1636C307.961 31.1821 308.155 31.2437 308.329 31.344C308.503 31.4443 308.654 31.581 308.77 31.7448C309.007 32.2489 309.121 32.8025 309.101 33.3593C309.149 35.8376 309.311 38.4451 309.593 41.1575C309.698 41.8599 309.819 42.1989 309.949 42.1747C310.078 42.1505 310.942 40.9396 312.467 38.5581C313.961 36.2978 314.889 34.9335 315.252 34.5218C315.551 34.1094 315.972 33.8015 316.455 33.6419C316.754 33.5307 317.076 33.4947 317.392 33.5369C317.827 33.6015 318.134 33.9164 318.328 34.4734C318.574 35.3762 318.704 36.3066 318.715 37.2423C318.794 38.7271 318.953 40.2066 319.192 41.6742C319.45 43.2887 319.692 44.096 319.934 44.1686C320.08 44.1686 320.596 43.0869 321.468 40.9961C322.679 38.1222 323.54 36.2386 324.052 35.3452C324.212 34.9934 324.441 34.6771 324.725 34.4151C325.009 34.1531 325.343 33.9506 325.706 33.8195V33.8195Z" fill="#F48E9F"/>
<path d="M334.764 30.0492C335.414 29.953 336.075 29.953 336.725 30.0492C337.355 30.1458 337.958 30.3686 338.499 30.7044C339.04 31.0401 339.508 31.4818 339.874 32.0028C340.251 32.5218 340.517 33.1128 340.656 33.7392C340.795 34.3656 340.803 35.0138 340.681 35.6436C340.616 36.0042 340.519 36.3581 340.39 36.7011C340.089 37.4737 339.658 38.1891 339.115 38.8161C338.248 39.7793 337.318 40.6828 336.33 41.5205C335.691 42.043 335.082 42.6009 334.505 43.1915C334.278 43.4687 334.125 43.7994 334.061 44.1522C334.05 44.3558 333.988 44.5534 333.881 44.7268C333.774 44.9003 333.625 45.0441 333.448 45.1451C333.167 45.2893 332.847 45.3375 332.536 45.2823C332.146 45.2051 331.798 44.9866 331.559 44.6688C331.291 44.3351 331.148 43.9182 331.155 43.4902C331.161 43.4419 331.161 43.3932 331.155 43.3449C331.149 43.2966 331.149 43.2479 331.155 43.1996C331.3 42.3385 332.261 41.1411 334.037 39.6072C336.362 37.7021 337.613 36.2329 337.799 35.1834C337.894 34.5872 337.749 33.9777 337.395 33.4882C337.261 33.307 337.091 33.156 336.895 33.0448C336.699 32.9335 336.481 32.8646 336.257 32.8424C335.779 32.7518 335.285 32.7937 334.828 32.9635C334.392 33.0845 334.15 33.2621 334.11 33.4962C334.106 33.5338 334.106 33.5717 334.11 33.6093C334.114 33.6576 334.114 33.7062 334.11 33.7546L334.053 34.0775C334.034 34.3544 333.934 34.6196 333.764 34.8394C333.595 35.0592 333.364 35.2239 333.101 35.3126C332.908 35.3869 332.701 35.4146 332.495 35.3933C332.271 35.3463 332.06 35.2467 331.882 35.1027C331.533 34.9179 331.253 34.6258 331.083 34.2697C330.913 33.9136 330.862 33.5123 330.937 33.1249C331.105 32.3613 331.544 31.6844 332.172 31.2198C332.924 30.6184 333.815 30.2159 334.764 30.0492V30.0492ZM331.995 52.362C331.859 52.1879 331.76 51.9878 331.704 51.7739C331.649 51.5601 331.638 51.3371 331.672 51.1189C331.707 50.9165 331.787 50.7246 331.905 50.557C332.024 50.3894 332.179 50.2504 332.358 50.1501C332.733 49.9152 333.183 49.8315 333.617 49.916C333.836 49.9509 334.046 50.0247 334.239 50.134C334.469 50.3149 334.627 50.5729 334.683 50.8605C334.794 51.165 334.833 51.4911 334.796 51.8131C334.752 51.9828 334.675 52.1418 334.568 52.2806C334.461 52.4194 334.327 52.535 334.174 52.6204C333.861 52.8448 333.493 52.9789 333.109 53.0079C333.001 53.0193 332.893 53.0193 332.786 53.0079C332.618 52.9579 332.461 52.8752 332.326 52.7643C332.19 52.6534 332.077 52.5167 331.995 52.362V52.362Z" fill="#F48E9F"/>
</g>
<path d="M1.54915 65.7006C2.17344 65.3575 2.78648 64.9976 3.4164 64.6601L5.32302 63.6871C5.96418 63.3778 6.59972 63.0572 7.24651 62.7591L9.20374 61.8986C10.5142 61.3362 11.8303 60.7738 13.1407 60.2788C13.7987 60.0089 14.4736 59.7839 15.1429 59.5477C15.8122 59.3115 16.4871 59.0753 17.162 58.8503C19.8617 57.9504 22.5782 57.0955 25.3228 56.3531C28.0674 55.6107 30.8289 54.9246 33.6129 54.3115C36.3969 53.6985 39.1978 53.1417 42.0493 52.7086L44.1696 52.3993C44.8783 52.3037 45.5926 52.2306 46.3012 52.1462L48.4215 51.9268C49.1358 51.865 49.8557 51.8256 50.57 51.7694C53.4606 51.5724 56.3605 51.5498 59.2538 51.7019C59.9893 51.7549 60.7215 51.8469 61.4473 51.9775C62.1843 52.1039 62.9131 52.2749 63.6295 52.4893C65.1292 52.9135 66.5407 53.603 67.797 54.5252L67.842 54.559C68.0011 54.7 68.117 54.8831 68.1762 55.0872C68.2355 55.2914 68.2357 55.5081 68.1769 55.7123C68.118 55.9166 68.0025 56.0999 67.8437 56.2412C67.6849 56.3825 67.4893 56.4759 67.2796 56.5106C65.8792 56.6512 64.5406 56.7356 63.1964 56.8031L62.1841 56.8649C61.8522 56.8649 61.5091 56.8649 61.1717 56.8987C60.5024 56.938 59.8275 56.9437 59.1526 56.9605H58.1346H57.1166C56.4417 56.9605 55.7556 57.0055 55.075 57.028L53.0278 57.1405L50.9806 57.2924L46.8749 57.6523L44.8164 57.8604L42.7973 58.1585C40.0527 58.496 37.3081 58.8334 34.5747 59.2833C29.1023 60.1439 23.6637 61.2631 18.2925 62.6579C12.9137 64.0101 7.6149 65.6625 2.42091 67.6072C2.17752 67.7097 1.90393 67.7142 1.65732 67.6197C1.41071 67.5252 1.21018 67.339 1.09762 67.1001C0.985065 66.8612 0.969203 66.588 1.05335 66.3377C1.1375 66.0874 1.31514 65.8793 1.54915 65.7568V65.7006Z" fill="#FFD7C5" stroke="#043866" stroke-width="1.37" stroke-miterlimit="10"/>
<path d="M74.8553 51.4093C75.441 51.078 76.0666 50.8229 76.7169 50.65C77.3544 50.4887 78.0003 50.3629 78.6516 50.2732C79.9426 50.0716 81.2485 49.9813 82.5549 50.0032C83.8407 50.0486 85.1184 50.2258 86.3681 50.5319C87.6181 50.8262 88.8152 51.3119 89.917 51.9717L89.9676 52.0054C90.2835 52.1997 90.5094 52.5113 90.5958 52.8718C90.6823 53.2324 90.6222 53.6126 90.4288 53.9289C90.3056 54.1254 90.136 54.2887 89.935 54.4044C89.734 54.5201 89.5076 54.5848 89.2758 54.5926C86.897 54.5751 84.522 54.3985 82.1668 54.0639C81.0082 53.9402 79.8552 53.7658 78.7023 53.6983C77.5341 53.6731 76.3682 53.5849 75.2096 53.434C74.989 53.3992 74.7846 53.2969 74.6245 53.1411C74.4645 52.9853 74.3567 52.7838 74.3159 52.5642C74.2752 52.3445 74.3036 52.1177 74.3972 51.9149C74.4908 51.7121 74.6449 51.5433 74.8384 51.4318L74.8553 51.4093Z" fill="white" stroke="#043866" stroke-width="1.37" stroke-miterlimit="10"/>
<path d="M327.638 21.1172C323.253 18.4993 318.697 16.1806 314 14.1769C309.303 12.1297 304.495 10.313 299.624 8.71013C294.753 7.10722 289.815 5.70679 284.787 4.61569C279.789 3.47314 274.714 2.70053 269.602 2.30412C269.442 2.30412 269.289 2.24072 269.176 2.12786C269.063 2.015 269 1.86194 269 1.70233C269 1.54273 269.063 1.38966 269.176 1.2768C269.289 1.16394 269.442 1.10054 269.602 1.10054H269.652L271.61 1.0443C272.268 1.0443 272.926 0.982428 273.578 1.00493C274.883 1.05554 276.199 1.07242 277.515 1.14553C278.831 1.21865 280.136 1.30863 281.452 1.42674C282.768 1.54485 284.062 1.69671 285.389 1.87106L289.287 2.43348C290.58 2.65283 291.863 2.91154 293.156 3.14776L297.014 3.9689C298.297 4.25011 299.568 4.58194 300.844 4.90815C303.387 5.57743 305.906 6.29171 308.437 7.0791C309.703 7.45593 310.94 7.91149 312.194 8.33893C313.448 8.76637 314.68 9.23319 315.923 9.7C317.166 10.1668 318.392 10.6674 319.624 11.1679C320.863 11.6691 322.071 12.2457 323.24 12.8946C325.649 14.1768 327.824 15.8557 329.674 17.8608L330.04 18.2713C330.343 18.6077 330.515 19.0425 330.524 19.4956C330.532 19.9487 330.376 20.3895 330.085 20.7368C329.794 21.0841 329.387 21.3144 328.939 21.3854C328.492 21.4563 328.034 21.3631 327.65 21.1228L327.638 21.1172Z" fill="#FFD7C5" stroke="#043866" stroke-width="1.06" stroke-miterlimit="10"/>
<path d="M347.256 23.4794C346.221 22.2252 345.197 20.9654 344.078 19.7899L343.246 18.9013L342.38 18.0464C341.817 17.484 341.198 16.9216 340.602 16.3591C338.17 14.1774 335.533 12.2356 332.728 10.5605C327.039 7.223 320.882 4.75837 314.461 3.24903C314.345 3.19658 314.251 3.10659 314.193 2.99369C314.135 2.8808 314.117 2.75162 314.142 2.62717C314.166 2.50271 314.233 2.39029 314.329 2.30817C314.426 2.22604 314.548 2.17904 314.675 2.1748V2.1748C315.507 2.29854 316.362 2.41665 317.172 2.55725C317.982 2.69786 318.82 2.88908 319.652 3.05781L320.889 3.32215L322.121 3.64273C322.942 3.85083 323.763 4.05892 324.568 4.33451C327.839 5.32866 331.01 6.62795 334.039 8.21524L336.288 9.47506C337.014 9.93625 337.756 10.3806 338.476 10.8474C339.196 11.3142 339.905 11.8204 340.591 12.3378L341.62 13.1308C341.969 13.3895 342.306 13.6539 342.633 13.9407C343.296 14.5031 343.971 15.0656 344.595 15.628C345.256 16.2276 345.876 16.8701 346.451 17.5515C347.625 18.8488 348.563 20.341 349.224 21.9609L349.348 22.2702C349.454 22.5423 349.459 22.8432 349.364 23.1192C349.269 23.3951 349.078 23.6282 348.827 23.7769C348.576 23.9255 348.28 23.98 347.992 23.9307C347.704 23.8814 347.443 23.7314 347.256 23.5075V23.4794Z" fill="white" stroke="#043866" stroke-width="1.06" stroke-miterlimit="10"/>
<defs>
<clipPath id="clip0_566_8248">
<rect width="331.738" height="40" fill="white" transform="translate(9 13)"/>
</clipPath>
</defs>
</svg>
