<svg width="298" height="65" viewBox="0 0 298 65" fill="none" xmlns="http://www.w3.org/2000/svg">
<path d="M40.6823 17.6821C40.9987 17.563 41.3349 17.5053 41.6729 17.512H41.7764C42.1903 17.4644 42.6081 17.561 42.9591 17.7856C43.1041 17.8838 43.2244 18.0144 43.3103 18.1671C43.3963 18.3197 43.4456 18.4902 43.4543 18.6652C43.5009 18.8878 43.4734 19.1196 43.376 19.3251C43.2786 19.5307 43.1166 19.6987 42.9147 19.8036C41.8388 20.1356 40.7316 20.356 39.6105 20.4615L36.6537 20.868L36.8237 23.3887C36.9346 24.978 37.0455 25.7763 37.1564 25.7689H37.2229C38.0626 25.5359 38.9208 25.3751 39.7879 25.2884C40.601 25.1702 41.1998 25.0962 41.5768 25.0667C41.9396 25.0264 42.3067 25.072 42.6486 25.1997C42.9328 25.2966 43.1719 25.4937 43.3213 25.7541C43.3673 25.8677 43.3972 25.9871 43.41 26.1089C43.4543 26.752 43.2991 27.166 42.9295 27.3434C42.8482 27.3951 41.9759 27.5578 40.3127 27.8387C38.6495 28.1196 37.7699 28.2896 37.6664 28.3413C37.5629 28.3931 37.4964 29.7606 37.6664 32.37C37.7959 33.7408 37.8404 35.1183 37.7995 36.4947C37.805 36.7343 37.7453 36.9708 37.6268 37.1791C37.5083 37.3874 37.3355 37.5597 37.1268 37.6774C36.9926 37.7402 36.8463 37.773 36.6981 37.7735C36.4664 37.8159 36.2272 37.7818 36.0166 37.6765C35.806 37.5712 35.6352 37.4003 35.5301 37.1895C35.4431 36.8993 35.3983 36.5981 35.3971 36.2951C35.3971 35.7629 35.3453 35.3415 35.3453 35.0311C35.3453 34.7206 35.3453 34.2919 35.2788 33.5527C35.1827 32.1999 35.0644 30.8842 34.9092 29.6053C34.8057 28.7479 34.5889 26.4071 34.2587 22.583L34 19.2344L34.4361 18.8352C34.6883 18.6452 34.9823 18.5185 35.2936 18.4656C35.678 18.3843 36.4763 18.266 37.6886 18.1182L40.6823 17.6821Z" fill="#F48E9F"/>
<path d="M46.8919 18.8204C47.1193 18.5706 47.4288 18.4106 47.7641 18.3695C47.9463 18.3607 48.1283 18.3896 48.2988 18.4545C48.4693 18.5194 48.6245 18.6188 48.7547 18.7465C48.8947 18.8608 49.0101 19.0022 49.0939 19.1623C49.1778 19.3224 49.2283 19.4978 49.2425 19.6779C49.2341 20.0778 49.0862 20.4622 48.8243 20.7646C48.5624 21.067 48.2031 21.2683 47.8085 21.3337C47.5614 21.3504 47.3149 21.2932 47.1004 21.1695C46.8859 21.0458 46.7129 20.8611 46.6036 20.6389C46.478 20.4416 46.4066 20.2147 46.3966 19.981C46.3938 19.7637 46.4364 19.5482 46.5217 19.3484C46.6069 19.1485 46.733 18.9687 46.8919 18.8204V18.8204ZM47.668 22.8417C47.7595 22.7345 47.8727 22.6481 48.0002 22.5882C48.1276 22.5283 48.2664 22.4963 48.4072 22.4943C48.6332 22.4712 48.8615 22.5006 49.0743 22.5801C49.2871 22.6596 49.4787 22.787 49.6343 22.9526C49.8702 23.3692 50.0068 23.8346 50.0335 24.3127C50.1271 25.0075 50.2897 26.7028 50.5213 29.3984L51.0462 35.4672L50.6396 35.859C50.4237 36.1019 50.1212 36.2505 49.7969 36.2729C49.5592 36.2807 49.3243 36.2191 49.1208 36.0957C48.9174 35.9723 48.7542 35.7925 48.6512 35.5781C48.5083 35.3662 48.2495 33.2373 47.875 29.1914C47.6779 26.959 47.5547 25.4437 47.5054 24.6453C47.402 24.0402 47.4581 23.4186 47.668 22.8417V22.8417Z" fill="#F48E9F"/>
<path d="M60.8479 21.5924C61.2429 21.1859 61.7641 20.9253 62.3263 20.8532C62.7473 20.8065 63.1723 20.8935 63.5412 21.1018C63.91 21.3101 64.2039 21.6292 64.3813 22.0138C64.9161 23.4487 65.1842 24.9694 65.1723 26.5007C65.2659 28.4719 65.192 31.4854 64.9505 35.5411C64.8766 36.7608 64.4552 37.3965 63.6791 37.4335C63.4903 37.4636 63.2971 37.4493 63.1148 37.3915C62.9326 37.3338 62.7664 37.2342 62.6294 37.1008C62.3692 36.6826 62.2404 36.1959 62.2598 35.7038C62.224 35.0168 62.224 34.3284 62.2598 33.6414C62.4239 31.1439 62.456 28.6394 62.3559 26.1385C62.2968 24.9262 62.2007 24.3201 62.0676 24.3275C61.9346 24.3349 61.1732 25.4806 60.057 27.7574C58.9408 30.0341 57.9725 32.1926 57.1667 34.2919C56.9104 35.0192 56.5888 35.7219 56.2058 36.3912C56.1243 36.5496 56.0058 36.6861 55.8604 36.789C55.715 36.892 55.547 36.9584 55.3705 36.9826C55.2089 36.9881 55.0479 36.9604 54.8974 36.9013C54.5995 36.7941 54.335 36.6108 54.13 36.3696C53.9251 36.1283 53.787 35.8376 53.7294 35.5263C53.4077 34.1144 53.2368 32.6723 53.2194 31.2242C53.1529 29.8715 53.1085 28.7775 53.0863 27.9348C53.0272 25.4511 53.0272 23.8766 53.0863 23.2261C53.0878 22.7012 53.2886 22.1966 53.6481 21.8142C53.8369 21.6441 54.0815 21.5494 54.3356 21.5481C54.6671 21.5297 54.9952 21.6234 55.267 21.8142C55.395 21.8969 55.5045 22.0054 55.5885 22.1326C55.6725 22.2598 55.7291 22.4031 55.7549 22.5534C55.7549 23.2926 55.8214 24.5566 55.8436 26.4416C55.8436 27.7278 55.8436 28.4744 55.8879 28.6592C55.8879 29.2801 55.9914 29.5832 56.1023 29.5832C56.2132 29.5832 56.6049 28.7922 57.285 27.2251C58.5663 24.3669 59.7539 22.4893 60.8479 21.5924Z" fill="#F48E9F"/>
<path d="M76.6594 15.0136C76.7684 14.8732 76.9071 14.7586 77.0655 14.6781C77.224 14.5976 77.3983 14.5531 77.576 14.5479C77.7612 14.535 77.9468 14.5672 78.1167 14.6419C78.2867 14.7166 78.436 14.8315 78.5517 14.9766C78.738 15.2509 78.8478 15.5698 78.8696 15.9006C78.9139 16.2924 78.9731 17.4456 79.0396 19.3527C79.1255 24.08 79.6952 28.7862 80.7398 33.3975C80.9246 34.2549 81.0207 34.7058 81.0207 34.7502C80.9937 34.9862 80.9208 35.2147 80.8063 35.4229C80.6818 35.7027 80.4689 35.9338 80.2002 36.0808C80.1372 36.1078 80.069 36.1205 80.0006 36.1177C79.6973 36.1075 79.4036 36.0091 79.1555 35.8344C78.9073 35.6598 78.7155 35.4166 78.6035 35.1346C78.4557 34.7206 78.2413 33.9371 77.9678 32.7839C77.7794 32.0821 77.6386 31.3684 77.5464 30.6476C77.5464 30.3594 77.4873 30.2189 77.3986 30.2189C77.3099 30.2189 76.9994 30.6476 76.6076 31.4829C75.2722 34.3658 73.7371 35.8442 72.0024 35.9181C71.544 35.9264 71.0887 35.8409 70.6645 35.6668C69.7762 35.2097 69.0908 34.4373 68.7426 33.501C68.1988 32.3013 67.9046 31.0036 67.8777 29.6867C67.8628 29.1934 67.8776 28.6997 67.9221 28.2083C67.9919 26.7275 68.5391 25.309 69.4818 24.1649C69.8681 23.682 70.354 23.2881 70.9064 23.01C71.4587 22.7319 72.0645 22.5762 72.6825 22.5534C73.4515 22.5209 74.2158 22.689 74.9001 23.0413C75.1966 23.1861 75.513 23.2857 75.8389 23.337H75.9054C76.082 22.6114 76.164 21.866 76.1493 21.1194C76.2159 19.7445 76.2528 18.4139 76.2528 17.1277C76.18 16.3985 76.3213 15.6638 76.6594 15.0136V15.0136ZM73.9022 25.4954C73.5669 25.263 73.1638 25.1486 72.7564 25.1702C72.4638 25.1815 72.1778 25.2609 71.9212 25.4021C71.6646 25.5432 71.4443 25.7422 71.278 25.9833C70.8192 26.6167 70.5407 27.3627 70.4723 28.1418C70.4137 28.5381 70.3939 28.9391 70.4132 29.3393C70.4417 30.2753 70.6086 31.2019 70.9084 32.0891C71.2041 32.9392 71.522 33.3605 71.8546 33.3531C72.5199 33.3531 73.2443 32.5572 74.0278 30.9655C74.6607 29.9139 75.052 28.7348 75.1736 27.5134C75.1476 27.1171 75.0119 26.7358 74.7818 26.412C74.5614 26.0401 74.2609 25.722 73.9022 25.4806V25.4954Z" fill="#F48E9F"/>
<path d="M102.539 13.2913C102.724 13.1981 102.93 13.15 103.137 13.1508C103.317 13.1458 103.496 13.1842 103.658 13.2627C103.82 13.3411 103.961 13.4574 104.069 13.6017C104.337 13.9672 104.472 14.413 104.453 14.8658C104.453 15.3093 104.623 17.1573 104.956 20.4098C105.256 23.47 105.417 25.6876 105.436 27.0626C105.475 27.9544 105.408 28.8476 105.237 29.7237C104.473 32.7889 102.502 34.4447 99.3231 34.6911H98.9092H98.5618C97.9597 34.6867 97.3626 34.5818 96.7951 34.3806C95.8353 34.0596 94.9517 33.5449 94.1989 32.8685C93.4462 32.192 92.8404 31.3682 92.419 30.4481C92.1604 29.9764 92.0066 29.4545 91.9681 28.9179C91.9595 28.7447 91.9934 28.5719 92.0669 28.4147C92.1403 28.2576 92.251 28.1207 92.3894 28.0161C92.6107 27.8177 92.8914 27.6981 93.1878 27.6761C93.6904 27.6761 94.1857 28.1713 94.6662 29.1545C94.9553 29.7516 95.3454 30.2943 95.8193 30.7585C96.2418 31.2001 96.7432 31.5587 97.2977 31.8156C97.7532 31.9976 98.2415 32.0832 98.7318 32.0669H98.9979H99.2936C100.007 32.0755 100.703 31.8553 101.282 31.4386C101.727 31.0789 102.097 30.6341 102.369 30.1302C102.703 29.2255 102.849 28.2621 102.797 27.2991V26.5599C102.797 25.5398 102.731 24.468 102.642 23.3518C102.639 22.7381 102.547 22.1281 102.369 21.5407H102.332C101.944 21.7768 101.593 22.0681 101.289 22.4056C100.84 22.8559 100.345 23.2573 99.811 23.6031C99.3499 23.8666 98.8514 24.0586 98.3326 24.1723C98.0911 24.2365 97.8432 24.2737 97.5934 24.2832C97.2382 24.2698 96.888 24.1947 96.5585 24.0614C94.6415 23.4503 93.2124 21.3658 92.2712 17.8078C92.1202 17.3009 92.0357 16.7767 92.0198 16.2481C92.0198 15.3167 92.4116 14.8436 93.2321 14.8362C94.0526 14.8288 94.4444 15.3684 94.6144 16.4476C94.7998 17.7502 95.2339 19.005 95.8932 20.1436C96.5068 21.1563 97.1055 21.659 97.7043 21.622C97.77 21.6367 97.8381 21.6367 97.9039 21.622C98.2588 21.4985 98.5928 21.3215 98.8944 21.0972C99.263 20.859 99.5964 20.5704 99.8849 20.2397C101.001 18.8057 101.663 17.0706 101.785 15.2575C101.881 14.1044 102.162 13.4539 102.539 13.2913Z" fill="#F48E9F"/>
<path d="M112.525 20.2397C112.77 20.2065 113.017 20.1868 113.264 20.1806C114.128 20.1982 114.98 20.3787 115.777 20.7128C116.556 20.9864 117.256 21.4456 117.817 22.0508C118.344 22.6049 118.732 23.2763 118.948 24.0097C119.165 25.0945 119.251 26.2012 119.207 27.3065C119.207 28.5262 119.148 29.3171 119.103 29.6867C119.028 30.1598 118.894 30.6216 118.704 31.0616C118.447 31.7027 118.146 32.3251 117.803 32.9244C117.637 33.1422 117.523 33.3951 117.47 33.6636C117.47 33.7967 117.182 34.0775 116.62 34.5063C116.161 34.8716 115.665 35.1887 115.141 35.4525C114.539 35.7404 113.879 35.887 113.212 35.8812C112.328 35.877 111.464 35.6205 110.721 35.142C109.947 34.6649 109.324 33.978 108.925 33.1609C108.289 31.8436 107.973 30.3951 108.001 28.9327C108.017 28.191 108.074 27.4507 108.171 26.7151C108.382 25.4291 108.789 24.1827 109.376 23.0191C109.696 22.2879 110.164 21.631 110.751 21.0898C111.261 20.6621 111.871 20.3698 112.525 20.2397ZM114.883 23.3074C114.454 23.0617 113.978 22.9128 113.486 22.8713C113.226 22.8717 112.971 22.9406 112.746 23.0709C112.47 23.2276 112.231 23.4419 112.044 23.6992C111.864 23.8834 111.739 24.1136 111.682 24.3645C111.588 24.7939 111.465 25.2163 111.312 25.6285C111.045 26.538 110.886 27.4759 110.839 28.4227C110.825 28.6689 110.825 28.9157 110.839 29.1619C110.744 30.3899 111.126 31.6074 111.904 32.5622C112.084 32.7344 112.298 32.8679 112.532 32.9543C112.766 33.0408 113.015 33.0784 113.264 33.0648C113.558 33.0829 113.853 33.0375 114.129 32.9318C114.436 32.737 114.717 32.5035 114.964 32.2369C115.179 32.0259 115.374 31.7958 115.548 31.5495C115.659 31.395 115.753 31.2289 115.829 31.0542C115.873 30.9286 115.94 30.7216 116.028 30.4259C116.117 30.1302 116.206 29.8493 116.295 29.6054C116.484 29.0384 116.576 28.4437 116.568 27.8461C116.568 27.7574 116.568 27.6096 116.568 27.41C116.568 27.2104 116.568 27.0478 116.568 26.9147C116.589 26.0642 116.474 25.2159 116.228 24.4014C115.93 23.8829 115.451 23.4932 114.883 23.3074V23.3074Z" fill="#F48E9F"/>
<path d="M132.306 19.5375C132.432 19.4861 132.569 19.4634 132.705 19.471C133.058 19.4855 133.402 19.5898 133.703 19.774C133.987 19.9193 134.208 20.1639 134.324 20.4615C134.372 20.6923 134.389 20.9284 134.376 21.1637C134.376 21.7181 134.324 22.3612 134.25 23.093C134.176 23.8249 134.117 25.4067 134.08 27.7796C134.08 28.7775 134.08 30.1007 134.08 31.7565C134.08 33.4123 134.08 34.425 134.08 34.802C134.064 34.9458 134.02 35.0852 133.95 35.212C133.881 35.3389 133.787 35.4507 133.673 35.5412C133.572 35.6563 133.448 35.7502 133.31 35.8174C133.171 35.8846 133.021 35.9239 132.868 35.9329C132.55 35.877 132.259 35.7187 132.04 35.482C131.448 34.9646 131.175 33.634 131.205 31.4756C131.205 30.3963 131.205 29.8493 131.094 29.8493C130.983 29.8493 130.813 30.1007 130.517 30.5885C130.02 31.4112 129.452 32.188 128.817 32.9096C128.389 33.475 127.851 33.9477 127.235 34.2993C126.836 34.4826 126.403 34.5784 125.964 34.5802C124.877 34.5802 123.99 33.9371 123.303 32.71C122.714 31.4493 122.334 30.1011 122.179 28.7184C121.894 26.7607 121.775 24.7824 121.824 22.8048C121.812 22.2882 121.842 21.7716 121.913 21.2598C121.97 21.0113 122.086 20.7804 122.253 20.5872C122.386 20.4248 122.556 20.2965 122.749 20.213C122.942 20.1294 123.152 20.093 123.362 20.1067C123.54 20.1002 123.717 20.1372 123.878 20.2144C124.039 20.2917 124.179 20.4069 124.286 20.5502C124.572 21.252 124.674 22.0155 124.581 22.7678C124.533 24.8101 124.682 26.8523 125.025 28.8662C125.35 30.6846 125.764 31.6012 126.178 31.6086C126.289 31.6086 126.658 31.2095 127.294 30.3963C128.896 28.3808 130.16 25.4511 131.086 21.6073C131.397 20.4393 131.796 19.7297 132.306 19.5375Z" fill="#F48E9F"/>
<path d="M137.592 21.4446C137.86 21.2033 138.208 21.0713 138.568 21.075C138.743 21.078 138.915 21.1169 139.074 21.1894C139.233 21.2619 139.375 21.3664 139.492 21.4964C139.601 21.602 139.687 21.7285 139.745 21.8682C139.804 22.0079 139.833 22.158 139.832 22.3095C139.832 22.3538 139.832 22.62 139.743 23.1004L139.581 24.261L140.771 23.1448C141.273 22.6426 141.839 22.21 142.456 21.8586C142.974 21.6189 143.542 21.5097 144.112 21.5407C144.322 21.5459 144.532 21.5632 144.74 21.5925C146.271 21.7921 147.231 22.2725 147.631 23.0709C147.718 23.2159 147.764 23.382 147.764 23.5513C147.764 23.7207 147.718 23.8868 147.631 24.0318C147.507 24.2634 147.321 24.4555 147.094 24.5862C146.866 24.717 146.607 24.781 146.344 24.771C146.055 24.7648 145.769 24.7149 145.494 24.6232C145.069 24.4622 144.624 24.3602 144.171 24.3201C143.432 24.3201 142.752 24.8967 142.057 26.1238C141.593 27.0672 141.233 28.0587 140.985 29.0806C140.679 30.0416 140.479 31.033 140.387 32.0374C140.38 32.0864 140.38 32.1361 140.387 32.1852C140.393 32.2243 140.393 32.2643 140.387 32.3035C140.4 32.414 140.4 32.5256 140.387 32.6361C140.335 32.9485 140.185 33.2361 139.958 33.4566C139.829 33.6184 139.665 33.7481 139.478 33.8354C139.29 33.9226 139.085 33.965 138.879 33.9593C138.587 33.9393 138.307 33.8331 138.075 33.6541C137.844 33.4752 137.671 33.2315 137.578 32.954C137.085 31.9684 136.838 29.699 136.838 26.1459C136.838 24.9928 136.838 24.2758 136.838 24.017C136.832 23.4246 136.899 22.8336 137.038 22.2577C137.143 21.94 137.335 21.6582 137.592 21.4446V21.4446Z" fill="#F48E9F"/>
<path d="M164.713 16.9577C165.248 16.7014 165.835 16.5724 166.428 16.5807C166.936 16.5926 167.425 16.7735 167.819 17.0948C168.212 17.4161 168.488 17.8595 168.601 18.3548C168.748 18.866 168.81 19.3979 168.786 19.9293C168.802 20.1996 168.763 20.4704 168.67 20.7248C168.577 20.9792 168.433 21.2117 168.246 21.4077C168.011 21.5813 167.725 21.6723 167.433 21.6664C167.269 21.6585 167.109 21.613 166.966 21.5335C166.822 21.4541 166.699 21.3427 166.605 21.2081C166.375 20.873 166.251 20.4763 166.25 20.0697C166.213 19.4931 166.117 19.1975 165.962 19.1901C165.807 19.1827 165.415 19.4414 164.787 19.9293C162.815 21.5999 161.677 24.1181 161.372 27.4839C161.372 27.5948 161.372 27.7574 161.327 27.9792C161.283 28.2009 161.327 28.3561 161.29 28.4448C161.209 29.3178 161.294 30.1983 161.542 31.0394C161.768 31.7241 162.199 32.3227 162.776 32.7544C163.09 32.9868 163.46 33.1321 163.848 33.1757C164.353 33.1617 164.845 33.0137 165.275 32.747C165.741 32.5282 166.14 32.1887 166.431 31.7638C166.723 31.3388 166.895 30.8437 166.93 30.3298C166.945 30.0108 166.89 29.6924 166.77 29.3964C166.65 29.1004 166.468 28.8338 166.235 28.6149C165.683 28.0862 164.99 27.727 164.24 27.58C163.338 27.3582 162.909 26.8925 162.939 26.1829C162.968 25.4733 163.53 25.0445 164.609 24.9041C166.69 24.5517 168.791 24.3368 170.9 24.261C171.091 24.2659 171.28 24.2982 171.462 24.3571C171.778 24.4516 172.056 24.6461 172.253 24.9115C172.405 25.2416 172.461 25.6079 172.415 25.9685C172.415 26.1459 172.363 26.5229 172.29 27.0921C172.253 27.3139 172.223 27.7204 172.193 28.3192C172.009 30.3249 172.096 32.3463 172.452 34.3289C172.523 34.637 172.563 34.9515 172.57 35.2677C172.565 35.4347 172.525 35.599 172.454 35.7502C172.383 35.9015 172.282 36.0366 172.156 36.1473C172.035 36.265 171.892 36.3571 171.734 36.418C171.577 36.479 171.409 36.5076 171.24 36.5021C170.945 36.491 170.666 36.3697 170.456 36.1621C170.116 35.896 169.85 34.8094 169.658 32.8874L169.532 31.483L168.911 32.5178C168.461 33.2397 167.9 33.8859 167.248 34.4324C166.703 34.96 166.046 35.3591 165.326 35.6003C164.823 35.7376 164.303 35.7998 163.781 35.7851C162.525 35.7207 161.346 35.1628 160.499 34.2328C159.528 33.1987 158.907 31.8847 158.725 30.4776C158.662 29.8682 158.662 29.2539 158.725 28.6444C158.762 27.2036 158.968 25.772 159.339 24.3792C159.854 22.7068 160.632 21.1273 161.645 19.7001C162.413 18.5361 163.47 17.5912 164.713 16.9577ZM169.651 27.9052C169.688 27.6157 169.688 27.3225 169.651 27.033C169.606 26.9221 169.503 26.863 169.325 26.8556C168.882 26.8556 168.653 26.9221 168.645 27.1217C168.706 27.4348 168.827 27.7334 169 28.0013C169.146 28.3316 169.33 28.6441 169.547 28.9327C169.641 28.5988 169.676 28.2511 169.651 27.9052V27.9052Z" fill="#F48E9F"/>
<path d="M178.521 22.8269C178.948 22.4033 179.456 22.0708 180.015 21.8497C180.575 21.6286 181.173 21.5234 181.774 21.5407C182.371 21.5968 182.949 21.777 183.473 22.0697C183.996 22.3625 184.452 22.7614 184.812 23.2409C185.226 23.8882 185.515 24.608 185.662 25.3624C185.738 25.6692 185.762 25.9863 185.736 26.3011C185.681 26.873 185.506 27.4266 185.22 27.9251C184.935 28.4235 184.546 28.8552 184.08 29.1914C183.018 30.0569 181.714 30.5732 180.347 30.6698C179.928 30.7182 179.505 30.733 179.083 30.7142C178.948 30.7137 178.814 30.6964 178.684 30.6624L178.063 30.485L177.967 31.9634C177.877 32.7121 177.963 33.4713 178.218 34.181C178.284 34.4308 178.408 34.6614 178.58 34.8537C178.788 34.9786 179.02 35.0569 179.261 35.0828H179.527C180.292 35.0223 181.036 34.798 181.707 34.4249C182.395 34.0442 183.146 33.7936 183.925 33.6858C184.057 33.6974 184.186 33.737 184.302 33.802C184.418 33.867 184.518 33.9559 184.598 34.0627C184.705 34.1774 184.788 34.3123 184.843 34.4595C184.897 34.6067 184.922 34.7633 184.915 34.9202C184.864 35.6594 183.954 36.3469 182.173 37.0713C181.674 37.2825 181.16 37.4555 180.635 37.5887C180.159 37.6427 179.678 37.6427 179.201 37.5887C178.763 37.5718 178.328 37.5149 177.9 37.4187C177.598 37.3036 177.32 37.1332 177.08 36.916C176.544 36.448 176.127 35.8605 175.86 35.2011C175.64 34.7817 175.478 34.334 175.38 33.8706C175.332 33.1716 175.332 32.4702 175.38 31.7712L175.431 30.9729C175.678 27.134 176.708 24.4187 178.521 22.8269ZM182.417 24.4531C182.203 24.2609 181.928 24.1486 181.641 24.1353C181.238 24.1335 180.846 24.2576 180.517 24.4901C180.079 24.8912 179.705 25.3575 179.408 25.8724C179.077 26.344 178.844 26.8767 178.721 27.4395L178.654 28.0087H179.719C180.324 28.0175 180.927 27.9225 181.5 27.7278C181.926 27.5247 182.316 27.2524 182.653 26.9221C182.917 26.7138 183.106 26.426 183.193 26.1016C183.197 25.794 183.121 25.4908 182.971 25.2219C182.856 24.9313 182.68 24.6691 182.454 24.4531H182.417Z" fill="#F48E9F"/>
<path d="M193.644 19.567C193.694 19.4361 193.771 19.3175 193.87 19.2192C193.97 19.121 194.089 19.0454 194.221 18.9978C194.504 18.8646 194.818 18.8085 195.13 18.8352C195.392 18.8506 195.645 18.9355 195.863 19.0809C196.081 19.2264 196.257 19.4274 196.372 19.6631C196.463 19.8223 196.507 20.0045 196.498 20.1879C196.474 20.3659 196.427 20.5399 196.357 20.7054C196.182 21.2284 196.063 21.7686 196.002 22.3168L195.854 23.3074H196.83C197.017 23.2934 197.205 23.2934 197.392 23.3074C197.708 23.3416 198.002 23.4824 198.227 23.7065C198.373 23.8393 198.484 24.0057 198.551 24.1911C198.618 24.3766 198.639 24.5757 198.612 24.771C198.597 24.9719 198.549 25.1691 198.471 25.3549C198.257 25.7615 197.577 25.9907 196.416 26.035L195.44 26.0941L195.27 27.0773C194.739 29.883 194.364 32.716 194.147 35.5633C194.051 36.783 193.969 37.5296 193.91 37.7809C193.849 38.0499 193.701 38.2913 193.489 38.4683C193.375 38.5897 193.236 38.685 193.081 38.7475C192.927 38.81 192.761 38.8384 192.595 38.8305C192.259 38.7878 191.95 38.6218 191.73 38.3648C191.544 38.1893 191.419 37.9587 191.375 37.707C191.375 37.4852 191.375 36.8569 191.375 35.8368L191.427 35.1419C191.52 33.9494 191.69 32.3847 191.937 30.448C192.188 28.5039 192.38 27.2621 192.513 26.752L192.654 26.1681L191.715 26.2272C190.976 26.2272 190.443 26.2937 190.044 26.3307C189.921 26.3425 189.798 26.3425 189.675 26.3307C189.527 26.3069 189.386 26.2541 189.259 26.1754C189.132 26.0968 189.022 25.9938 188.936 25.8724C188.792 25.7044 188.685 25.5088 188.62 25.2978C188.555 25.0868 188.534 24.8647 188.559 24.6453C188.603 24.1131 188.773 23.7731 189.076 23.6326C189.751 23.4425 190.455 23.3773 191.153 23.4404C191.757 23.4716 192.363 23.4519 192.964 23.3813C193.155 22.8271 193.274 22.2508 193.319 21.6663C193.371 20.959 193.48 20.2569 193.644 19.567V19.567Z" fill="#F48E9F"/>
<path d="M206.226 25.8355C206.582 25.7915 206.942 25.7915 207.298 25.8355C207.853 25.8905 208.388 26.0754 208.858 26.3751C209.271 26.6624 209.744 26.8543 210.24 26.9369C210.428 26.9475 210.61 26.9993 210.775 27.0888C210.94 27.1783 211.083 27.3031 211.194 27.4543C211.345 27.6217 211.449 27.8255 211.497 28.0457C211.543 28.446 211.543 28.8503 211.497 29.2506C211.35 30.954 211.294 32.6639 211.327 34.3732C211.299 35.6357 211.39 36.898 211.6 38.1432C211.635 38.2865 211.635 38.4359 211.6 38.5793C211.587 38.7517 211.533 38.9186 211.445 39.0673C211.357 39.216 211.235 39.3423 211.09 39.4368C210.814 39.6428 210.473 39.7425 210.129 39.7176C209.99 39.701 209.856 39.653 209.738 39.5772C209.418 39.3256 209.188 38.9785 209.08 38.5867C208.88 38.041 208.768 37.4672 208.747 36.8865C208.747 36.3025 208.666 36.0069 208.562 35.9995C208.459 35.9921 208.141 36.3099 207.638 36.953C207.092 37.6564 206.414 38.2464 205.642 38.6902C204.986 39.0343 204.242 39.1734 203.506 39.0893L203.077 39.045C202.62 38.8735 202.218 38.5794 201.917 38.1949C201.517 37.7972 201.207 37.3183 201.008 36.7904C200.675 35.677 200.565 34.5091 200.682 33.3531C200.732 32.9015 200.816 32.4542 200.934 32.0152C201.346 30.4926 202.105 29.0859 203.151 27.9052C203.898 26.872 204.988 26.1383 206.226 25.8355V25.8355ZM207.705 28.6666C207.543 28.5418 207.36 28.4467 207.165 28.3857C206.964 28.4056 206.767 28.4555 206.581 28.5336C205.67 28.9115 204.908 29.5758 204.408 30.4259C203.768 31.3521 203.374 32.4253 203.262 33.5453C203.227 34.0531 203.242 34.5632 203.307 35.0681C203.327 35.4557 203.425 35.8352 203.595 36.1843C203.618 36.2499 203.657 36.3087 203.709 36.3552C203.76 36.4017 203.823 36.4344 203.891 36.4504C204.438 36.5021 205.192 35.9034 206.152 34.6467C206.9 33.5924 207.479 32.4277 207.867 31.1947C208.047 30.7158 208.181 30.2207 208.267 29.7163C208.285 29.5022 208.238 29.2877 208.132 29.1005C208.027 28.9133 207.868 28.7622 207.675 28.6666H207.705Z" fill="#F48E9F"/>
<path d="M233.509 27.1143C233.592 27.0958 233.674 27.0711 233.753 27.0404H233.886C234.092 27.0952 234.281 27.2021 234.433 27.3508C234.632 27.4967 234.8 27.68 234.929 27.8904C235.039 28.0363 235.092 28.218 235.077 28.4005C234.938 28.8904 234.752 29.3657 234.522 29.8197C233.931 31.1799 233.349 32.6435 232.778 34.2106C231.664 37.3547 230.76 39.2544 230.065 39.9098C229.861 40.1015 229.62 40.2485 229.357 40.3415C229.093 40.4344 228.813 40.4712 228.535 40.4494C228.19 40.4029 227.86 40.2814 227.568 40.0937C227.275 39.906 227.028 39.6565 226.842 39.3628C226.014 38.1604 225.371 36.2508 224.913 33.634C224.802 32.9983 224.691 32.7026 224.58 32.7322C224.084 33.3661 223.65 34.0469 223.286 34.765C221.906 37.0713 220.84 38.4856 220.086 39.008C219.826 39.2258 219.492 39.3344 219.154 39.3111H218.992C218.915 39.3021 218.839 39.3021 218.762 39.3111C218.399 39.2649 218.054 39.1219 217.765 38.8971C217.301 38.4684 216.924 37.5148 216.634 36.0364C216.515 35.4894 216.397 34.898 216.294 34.2623C216.128 33.3884 216.022 32.5043 215.976 31.616C215.813 30.1967 215.68 29.1619 215.569 28.5261C215.47 28.04 215.445 27.5414 215.495 27.0477C215.606 26.0129 216.101 25.5694 216.974 25.6359C217.159 25.6398 217.341 25.6858 217.506 25.7703C217.672 25.8548 217.815 25.9756 217.927 26.1237C218.172 26.5782 218.302 27.0859 218.304 27.6021C218.459 29.8789 218.733 32.2443 219.11 34.7206C219.243 35.3564 219.369 35.6594 219.487 35.6299C219.62 35.6299 220.337 34.4619 221.623 32.2147C222.909 29.9676 223.663 28.7849 223.981 28.3487C224.235 27.9592 224.605 27.6592 225.038 27.4913C225.307 27.3723 225.603 27.3239 225.896 27.3508C226.107 27.3853 226.305 27.4805 226.463 27.6248C226.622 27.7691 226.736 27.9564 226.79 28.1639C227.058 28.9778 227.222 29.8223 227.278 30.6772C227.412 32.0312 227.624 33.3764 227.914 34.7059C228.224 36.1843 228.49 36.9234 228.712 36.9234C228.853 36.9234 229.266 35.9034 229.969 33.9667C230.954 31.2809 231.657 29.5216 232.075 28.6888C232.193 28.3417 232.381 28.0227 232.628 27.7518C232.875 27.4809 233.175 27.2638 233.509 27.1143V27.1143Z" fill="#F48E9F"/>
<path d="M242.661 29.7089C243.017 29.6645 243.377 29.6645 243.733 29.7089C244.281 29.7859 244.805 29.9882 245.263 30.3002C245.666 30.6044 246.134 30.8118 246.63 30.9064C246.817 30.9263 246.998 30.9861 247.16 31.0818C247.322 31.1774 247.461 31.3066 247.569 31.4608C247.712 31.635 247.807 31.8442 247.843 32.0669C247.864 32.4673 247.842 32.8689 247.776 33.2644C247.573 34.9625 247.457 36.6698 247.429 38.3797C247.356 39.6406 247.405 40.9056 247.577 42.157C247.63 42.3979 247.607 42.6494 247.512 42.877C247.416 43.1045 247.253 43.2971 247.044 43.4284C246.762 43.6263 246.418 43.7156 246.076 43.6797C245.94 43.6613 245.811 43.6106 245.699 43.5319C245.385 43.2682 245.165 42.9105 245.071 42.5118C244.888 41.9612 244.795 41.3845 244.797 40.8043C244.797 40.2203 244.745 39.9246 244.635 39.9098C244.524 39.895 244.213 40.2055 243.681 40.8338C243.111 41.5159 242.416 42.0829 241.633 42.5044C240.963 42.8181 240.215 42.9286 239.482 42.8223L239.054 42.7705C238.604 42.5774 238.214 42.2688 237.923 41.8761C237.533 41.4684 237.24 40.9783 237.065 40.4421C236.767 39.3192 236.696 38.1479 236.858 36.9974C236.925 36.5621 237.024 36.1322 237.154 35.7112C237.611 34.2054 238.408 32.8246 239.482 31.6752C240.279 30.6673 241.404 29.9714 242.661 29.7089V29.7089ZM244.006 32.5918C243.849 32.461 243.668 32.3607 243.474 32.2961C243.273 32.3038 243.076 32.3463 242.89 32.4217C241.973 32.768 241.195 33.4039 240.672 34.2328C239.983 35.1327 239.535 36.1937 239.371 37.3152C239.315 37.8213 239.315 38.332 239.371 38.838C239.377 39.2251 239.46 39.6071 239.615 39.9616C239.647 40.0275 239.695 40.0844 239.754 40.127C239.814 40.1696 239.883 40.1966 239.955 40.2055C240.502 40.272 241.279 39.6955 242.276 38.4832C243.059 37.4538 243.678 36.3093 244.11 35.0903C244.31 34.6142 244.461 34.1188 244.561 33.6119C244.578 33.4063 244.534 33.2001 244.436 33.0189C244.337 32.8376 244.188 32.6891 244.006 32.5918V32.5918Z" fill="#F48E9F"/>
<path d="M259.965 32.0152C260.142 31.589 260.434 31.2204 260.808 30.9507C260.966 30.8119 261.152 30.7084 261.354 30.6472C261.555 30.586 261.767 30.5685 261.976 30.5959C262.172 30.6261 262.358 30.6986 262.523 30.8084C262.688 30.9182 262.827 31.0627 262.93 31.2316C263.041 31.3544 263.117 31.5056 263.148 31.6687C263.18 31.8317 263.165 32.0002 263.107 32.1556C262.56 33.9918 262.186 35.8751 261.991 37.7809C261.799 39.2076 261.651 40.3534 261.555 41.2108C261.459 42.0683 261.318 43.1697 261.133 44.5151C260.724 47.4718 260.204 49.5268 259.574 50.68C259.267 51.2389 258.864 51.7393 258.384 52.1584C257.964 52.5531 257.457 52.8442 256.905 53.0084C256.297 53.1682 255.661 53.1935 255.042 53.0824C253.505 52.8885 252.062 52.234 250.903 51.2048C250.068 50.4656 249.691 49.8003 249.779 49.1646C249.81 48.9785 249.878 48.8006 249.98 48.6418C250.082 48.4829 250.215 48.3464 250.371 48.2406C250.483 48.1504 250.612 48.0842 250.75 48.0461C250.889 48.0079 251.034 47.9987 251.176 48.0189C251.657 48.1315 252.09 48.3897 252.418 48.7581C253.188 49.5812 254.21 50.1247 255.323 50.303C255.621 50.3558 255.923 50.3756 256.225 50.3621C256.423 50.3184 256.602 50.2121 256.735 50.059C257.015 49.7604 257.245 49.4184 257.415 49.0463C257.703 48.4402 258.154 45.9343 258.753 41.5435C258.914 40.7479 258.993 39.938 258.99 39.1263C258.879 39.1263 258.605 39.3037 258.169 39.7176C257.634 40.1964 257.028 40.5902 256.373 40.8856C256.011 41.0797 255.63 41.2334 255.235 41.3439C254.88 41.4013 254.518 41.4013 254.163 41.3439C253.825 41.3116 253.492 41.2371 253.172 41.1221C252.926 40.9966 252.705 40.8261 252.522 40.6195C251.649 39.5482 251.202 38.1929 251.265 36.8126C251.286 35.5028 251.4 34.1961 251.605 32.9022C251.782 31.5791 251.916 30.7807 251.989 30.485C252.04 30.2295 252.185 30.0025 252.396 29.8493C252.681 29.6592 253.025 29.5779 253.364 29.6202C253.559 29.6417 253.747 29.7066 253.913 29.8102C254.079 29.9139 254.22 30.0535 254.325 30.2189C254.483 30.4777 254.57 30.7735 254.577 31.0764C254.577 31.3795 254.488 32.1926 254.311 33.5084C253.941 36.1695 253.941 37.8056 254.311 38.4167C254.369 38.5011 254.455 38.5615 254.554 38.5867C254.89 38.631 255.459 38.328 256.262 37.6775C257.037 36.9463 257.715 36.1191 258.28 35.2159C258.969 34.2212 259.535 33.1464 259.965 32.0152V32.0152Z" fill="#F48E9F"/>
<path d="M1.54915 61.7006C2.17344 61.3575 2.78648 60.9976 3.4164 60.6601L5.32302 59.6871C5.96418 59.3778 6.59972 59.0572 7.24651 58.7591L9.20374 57.8986C10.5142 57.3362 11.8303 56.7738 13.1407 56.2788C13.7987 56.0089 14.4736 55.7839 15.1429 55.5477C15.8122 55.3115 16.4871 55.0753 17.162 54.8503C19.8617 53.9504 22.5782 53.0955 25.3228 52.3531C28.0674 51.6107 30.8289 50.9246 33.6129 50.3115C36.3969 49.6985 39.1978 49.1417 42.0493 48.7086L44.1696 48.3993C44.8783 48.3037 45.5926 48.2306 46.3012 48.1462L48.4215 47.9268C49.1358 47.865 49.8557 47.8256 50.57 47.7694C53.4606 47.5724 56.3605 47.5498 59.2538 47.7019C59.9893 47.7549 60.7215 47.8469 61.4473 47.9775C62.1843 48.1039 62.9131 48.2749 63.6295 48.4893C65.1292 48.9135 66.5407 49.603 67.797 50.5252L67.842 50.559C68.0011 50.7 68.117 50.8831 68.1762 51.0872C68.2355 51.2914 68.2357 51.5081 68.1769 51.7123C68.118 51.9166 68.0025 52.0999 67.8437 52.2412C67.6849 52.3825 67.4893 52.4759 67.2796 52.5106C65.8792 52.6512 64.5406 52.7356 63.1964 52.8031L62.1841 52.8649C61.8522 52.8649 61.5091 52.8649 61.1717 52.8987C60.5024 52.938 59.8275 52.9437 59.1526 52.9605H58.1346H57.1166C56.4417 52.9605 55.7556 53.0055 55.075 53.028L53.0278 53.1405L50.9806 53.2924L46.8749 53.6523L44.8164 53.8604L42.7973 54.1585C40.0527 54.496 37.3081 54.8334 34.5747 55.2833C29.1023 56.1439 23.6637 57.2631 18.2925 58.6579C12.9137 60.0101 7.6149 61.6625 2.42091 63.6072C2.17752 63.7097 1.90393 63.7142 1.65732 63.6197C1.41071 63.5252 1.21018 63.339 1.09762 63.1001C0.985065 62.8612 0.969203 62.588 1.05335 62.3377C1.1375 62.0874 1.31514 61.8793 1.54915 61.7568V61.7006Z" fill="#FFD7C5" stroke="#043866" stroke-width="1.37" stroke-miterlimit="10"/>
<path d="M74.8553 47.4093C75.441 47.078 76.0666 46.8229 76.7169 46.65C77.3544 46.4887 78.0003 46.3629 78.6516 46.2732C79.9426 46.0716 81.2485 45.9813 82.5549 46.0032C83.8407 46.0486 85.1184 46.2258 86.3681 46.5319C87.6181 46.8262 88.8152 47.3119 89.917 47.9717L89.9676 48.0054C90.2835 48.1997 90.5094 48.5113 90.5958 48.8718C90.6823 49.2324 90.6222 49.6126 90.4288 49.9289C90.3056 50.1254 90.136 50.2887 89.935 50.4044C89.734 50.5201 89.5076 50.5848 89.2758 50.5926C86.897 50.5751 84.522 50.3985 82.1668 50.0639C81.0082 49.9402 79.8552 49.7658 78.7023 49.6983C77.5341 49.6731 76.3682 49.5849 75.2096 49.434C74.989 49.3992 74.7846 49.2969 74.6245 49.1411C74.4645 48.9853 74.3567 48.7838 74.3159 48.5642C74.2752 48.3445 74.3036 48.1177 74.3972 47.9149C74.4908 47.7121 74.6449 47.5433 74.8384 47.4318L74.8553 47.4093Z" fill="white" stroke="#043866" stroke-width="1.37" stroke-miterlimit="10"/>
<path d="M275.638 21.1172C271.253 18.4993 266.697 16.1806 262 14.1769C257.303 12.1297 252.495 10.313 247.624 8.71013C242.753 7.10722 237.815 5.70679 232.787 4.61569C227.789 3.47314 222.714 2.70053 217.602 2.30412C217.442 2.30412 217.289 2.24072 217.176 2.12786C217.063 2.015 217 1.86194 217 1.70233C217 1.54273 217.063 1.38966 217.176 1.2768C217.289 1.16394 217.442 1.10054 217.602 1.10054H217.652L219.61 1.0443C220.268 1.0443 220.926 0.982428 221.578 1.00493C222.883 1.05554 224.199 1.07242 225.515 1.14553C226.831 1.21865 228.136 1.30863 229.452 1.42674C230.768 1.54485 232.062 1.69671 233.389 1.87106L237.287 2.43348C238.58 2.65283 239.863 2.91154 241.156 3.14776L245.014 3.9689C246.297 4.25011 247.568 4.58194 248.844 4.90815C251.387 5.57743 253.906 6.29171 256.437 7.0791C257.703 7.45593 258.94 7.91149 260.194 8.33893C261.448 8.76637 262.68 9.23319 263.923 9.7C265.166 10.1668 266.392 10.6674 267.624 11.1679C268.863 11.6691 270.071 12.2457 271.24 12.8946C273.649 14.1768 275.824 15.8557 277.674 17.8608L278.04 18.2713C278.343 18.6077 278.515 19.0425 278.524 19.4956C278.532 19.9487 278.376 20.3895 278.085 20.7368C277.794 21.0841 277.387 21.3144 276.939 21.3854C276.492 21.4563 276.034 21.3631 275.65 21.1228L275.638 21.1172Z" fill="#FFD7C5" stroke="#043866" stroke-width="1.06" stroke-miterlimit="10"/>
<path d="M295.256 23.4794C294.221 22.2252 293.197 20.9654 292.078 19.7899L291.246 18.9013L290.38 18.0464C289.817 17.484 289.198 16.9216 288.602 16.3591C286.17 14.1774 283.533 12.2356 280.728 10.5605C275.039 7.223 268.882 4.75837 262.461 3.24903C262.345 3.19658 262.251 3.10659 262.193 2.99369C262.135 2.8808 262.117 2.75162 262.142 2.62717C262.166 2.50271 262.233 2.39029 262.329 2.30817C262.426 2.22604 262.548 2.17904 262.675 2.1748V2.1748C263.507 2.29854 264.362 2.41665 265.172 2.55725C265.982 2.69786 266.82 2.88908 267.652 3.05781L268.889 3.32215L270.121 3.64273C270.942 3.85083 271.763 4.05892 272.568 4.33451C275.839 5.32866 279.01 6.62795 282.039 8.21524L284.288 9.47506C285.014 9.93625 285.756 10.3806 286.476 10.8474C287.196 11.3142 287.905 11.8204 288.591 12.3378L289.62 13.1308C289.969 13.3895 290.306 13.6539 290.633 13.9407C291.296 14.5031 291.971 15.0656 292.595 15.628C293.256 16.2276 293.876 16.8701 294.451 17.5515C295.625 18.8488 296.563 20.341 297.224 21.9609L297.348 22.2702C297.454 22.5423 297.459 22.8432 297.364 23.1192C297.269 23.3951 297.078 23.6282 296.827 23.7769C296.576 23.9255 296.28 23.98 295.992 23.9307C295.704 23.8814 295.443 23.7314 295.256 23.5075V23.4794Z" fill="white" stroke="#043866" stroke-width="1.06" stroke-miterlimit="10"/>
</svg>
