<svg width="350" height="79" viewBox="0 0 350 79" fill="none" xmlns="http://www.w3.org/2000/svg">
<path d="M1.54915 74.7504C2.17344 74.4073 2.78648 74.0474 3.4164 73.7099L5.32302 72.7369C5.96418 72.4276 6.59972 72.107 7.24651 71.8089L9.20374 70.9484C10.5142 70.386 11.8303 69.8236 13.1407 69.3286C13.7987 69.0587 14.4736 68.8337 15.1429 68.5975C15.8122 68.3613 16.4871 68.1251 17.162 67.9001C19.8617 67.0002 22.5782 66.1453 25.3228 65.4029C28.0674 64.6605 30.8289 63.9744 33.6129 63.3613C36.3969 62.7483 39.1978 62.1915 42.0493 61.7584L44.1696 61.4491C44.8783 61.3535 45.5926 61.2804 46.3012 61.196L48.4215 60.9767C49.1358 60.9148 49.8557 60.8754 50.57 60.8192C53.4606 60.6222 56.3605 60.5996 59.2538 60.7517C59.9893 60.8047 60.7215 60.8967 61.4473 61.0273C62.1843 61.1538 62.9131 61.3247 63.6295 61.5391C65.1292 61.9633 66.5407 62.6528 67.797 63.575L67.842 63.6088C68.0011 63.7498 68.117 63.9329 68.1762 64.137C68.2355 64.3412 68.2357 64.5579 68.1769 64.7621C68.118 64.9664 68.0025 65.1497 67.8437 65.291C67.6849 65.4323 67.4893 65.5257 67.2796 65.5604C65.8792 65.701 64.5406 65.7854 63.1964 65.8529L62.1841 65.9147C61.8522 65.9147 61.5091 65.9147 61.1717 65.9485C60.5024 65.9878 59.8275 65.9935 59.1526 66.0103H58.1346H57.1166C56.4417 66.0103 55.7556 66.0553 55.075 66.0778L53.0278 66.1903L50.9806 66.3422L46.8749 66.7021L44.8164 66.9102L42.7973 67.2083C40.0527 67.5458 37.3081 67.8832 34.5747 68.3332C29.1023 69.1937 23.6637 70.3129 18.2925 71.7077C12.9137 73.0599 7.6149 74.7123 2.42091 76.657C2.17752 76.7595 1.90393 76.764 1.65732 76.6695C1.41071 76.575 1.21018 76.3888 1.09762 76.1499C0.985065 75.911 0.969203 75.6378 1.05335 75.3875C1.1375 75.1372 1.31514 74.9291 1.54915 74.8066V74.7504Z" fill="#FFD7C5" stroke="#043866" stroke-width="1.37" stroke-miterlimit="10"/>
<path d="M74.8553 60.4591C75.441 60.1278 76.0666 59.8727 76.7169 59.6998C77.3544 59.5386 78.0003 59.4128 78.6516 59.323C79.9426 59.1214 81.2485 59.0311 82.5549 59.053C83.8407 59.0984 85.1184 59.2756 86.3681 59.5817C87.6181 59.876 88.8152 60.3617 89.917 61.0215L89.9676 61.0552C90.2835 61.2495 90.5094 61.5611 90.5958 61.9216C90.6823 62.2822 90.6222 62.6624 90.4288 62.9787C90.3056 63.1753 90.136 63.3385 89.935 63.4542C89.734 63.57 89.5076 63.6346 89.2758 63.6424C86.897 63.6249 84.522 63.4483 82.1668 63.1137C81.0082 62.99 79.8552 62.8156 78.7023 62.7481C77.5341 62.7229 76.3682 62.6347 75.2096 62.4838C74.989 62.449 74.7846 62.3467 74.6245 62.1909C74.4645 62.0351 74.3567 61.8336 74.3159 61.614C74.2752 61.3944 74.3036 61.1675 74.3972 60.9647C74.4908 60.7619 74.6449 60.5931 74.8384 60.4816L74.8553 60.4591Z" fill="white" stroke="#043866" stroke-width="1.37" stroke-miterlimit="10"/>
<path d="M327.638 21.167C323.253 18.5492 318.697 16.2304 314 14.2267C309.303 12.1795 304.495 10.3628 299.624 8.75994C294.753 7.15703 289.815 5.75659 284.787 4.66549C279.789 3.52295 274.714 2.75033 269.602 2.35393C269.442 2.35393 269.289 2.29053 269.176 2.17767C269.063 2.06481 269 1.91174 269 1.75214C269 1.59253 269.063 1.43946 269.176 1.3266C269.289 1.21375 269.442 1.15034 269.602 1.15034H269.652L271.61 1.0941C272.268 1.0941 272.926 1.03223 273.578 1.05473C274.883 1.10535 276.199 1.12222 277.515 1.19534C278.831 1.26845 280.136 1.35844 281.452 1.47655C282.768 1.59466 284.062 1.74651 285.389 1.92086L289.287 2.48329C290.58 2.70263 291.863 2.96135 293.156 3.19756L297.014 4.0187C298.297 4.29992 299.568 4.63175 300.844 4.95795C303.387 5.62724 305.906 6.34151 308.437 7.12891C309.703 7.50573 310.94 7.96129 312.194 8.38874C313.448 8.81618 314.68 9.28299 315.923 9.7498C317.166 10.2166 318.392 10.7172 319.624 11.2177C320.863 11.7189 322.071 12.2955 323.24 12.9444C325.649 14.2266 327.824 15.9055 329.674 17.9106L330.04 18.3211C330.343 18.6575 330.515 19.0923 330.524 19.5454C330.532 19.9985 330.376 20.4393 330.085 20.7866C329.794 21.1339 329.387 21.3642 328.939 21.4352C328.492 21.5061 328.034 21.4129 327.65 21.1726L327.638 21.167Z" fill="#FFD7C5" stroke="#043866" stroke-width="1.06" stroke-miterlimit="10"/>
<path d="M347.256 23.5292C346.221 22.275 345.197 21.0152 344.078 19.8397L343.246 18.9511L342.38 18.0962C341.817 17.5338 341.198 16.9714 340.602 16.4089C338.17 14.2273 335.533 12.2854 332.728 10.6103C327.039 7.2728 320.882 4.80817 314.461 3.29884C314.345 3.24638 314.251 3.15639 314.193 3.0435C314.135 2.9306 314.117 2.80143 314.142 2.67697C314.166 2.55252 314.233 2.4401 314.329 2.35797C314.426 2.27584 314.548 2.22885 314.675 2.22461C315.507 2.34834 316.362 2.46645 317.172 2.60706C317.982 2.74766 318.82 2.93889 319.652 3.10761L320.889 3.37195L322.121 3.69254C322.942 3.90063 323.763 4.10873 324.568 4.38432C327.839 5.37847 331.01 6.67775 334.039 8.26504L336.288 9.52487C337.014 9.98606 337.756 10.4304 338.476 10.8972C339.196 11.364 339.905 11.8702 340.591 12.3876L341.62 13.1806C341.969 13.4393 342.306 13.7037 342.633 13.9905C343.296 14.5529 343.971 15.1154 344.595 15.6778C345.256 16.2774 345.876 16.9199 346.451 17.6013C347.625 18.8986 348.563 20.3908 349.224 22.0107L349.348 22.32C349.454 22.5921 349.459 22.893 349.364 23.169C349.269 23.445 349.078 23.678 348.827 23.8267C348.576 23.9753 348.28 24.0298 347.992 23.9805C347.704 23.9312 347.443 23.7812 347.256 23.5573V23.5292Z" fill="white" stroke="#043866" stroke-width="1.06" stroke-miterlimit="10"/>
<path d="M26.7962 21.599C27.0904 21.372 27.4428 21.2329 27.8127 21.1977C28.4865 21.1616 29.149 21.3813 29.6675 21.813C30.5592 22.5501 31.3529 24.1582 32.0484 26.6372C33.0274 30.5118 33.8042 34.4347 34.3758 38.39C34.6076 39.8703 34.7503 40.976 34.8038 41.6894C34.8749 42.0724 34.8379 42.4677 34.6968 42.8308C34.5817 43.0616 34.4085 43.2586 34.1944 43.4024C33.9802 43.5462 33.7324 43.632 33.4751 43.6512C33.2276 43.6783 32.9772 43.6389 32.7499 43.537C32.5226 43.4351 32.3266 43.2745 32.1822 43.0716C31.7262 41.6177 31.4038 40.1254 31.2191 38.613C30.7554 35.8665 30.5057 34.4754 30.479 34.4486C30.4522 34.4219 29.7478 34.4486 28.3656 34.4486C26.9834 34.4486 26.056 34.4932 25.5745 34.5289H25.3783C25.1604 35.2195 25.0139 35.9306 24.9414 36.6512L24.442 39.906C24.2841 40.8158 24.2065 41.7379 24.2102 42.6614C24.2728 43.2965 24.1873 43.9375 23.9605 44.534C23.8498 44.7096 23.6956 44.8537 23.5128 44.9521C23.3299 45.0506 23.1248 45.1 22.9172 45.0958C22.6826 45.1086 22.4481 45.0706 22.2295 44.9844C22.011 44.8982 21.8136 44.7659 21.651 44.5964C21.2754 44.2543 21.0429 43.7829 21 43.2767C21.0284 41.5724 21.2104 39.8743 21.5439 38.2028C21.9631 35.599 22.4357 33.1289 23.0242 30.8015C24.2013 25.7722 25.4586 22.7047 26.7962 21.599ZM28.5796 26.0576C28.3745 25.5404 28.2318 25.2818 28.1516 25.2907C28.0713 25.2996 27.8484 25.5582 27.6344 26.0754C27.4204 26.5926 27.1796 27.2525 26.9032 28.0639C26.6267 28.8754 26.493 29.3123 26.4662 29.3658C26.3223 29.7594 26.2586 30.1778 26.279 30.5964C26.2777 30.6851 26.3059 30.7718 26.3592 30.8428C26.4124 30.9138 26.4877 30.9651 26.5732 30.9888C27.0621 31.0446 27.5557 31.0446 28.0446 30.9888C28.749 30.9888 29.2127 30.9888 29.4535 30.9888L29.8548 30.9174C29.7734 30.2179 29.6241 29.5281 29.4089 28.8576C29.0879 27.5646 28.8115 26.6104 28.6064 26.0843L28.5796 26.0576Z" fill="#F48E9F"/>
<path d="M37.6217 26.5294C37.9067 26.2197 38.292 26.0207 38.7096 25.9676C38.9198 25.9543 39.1305 25.9829 39.3295 26.0518C39.5285 26.1207 39.7119 26.2285 39.8688 26.3689C40.0119 26.4823 40.1301 26.624 40.216 26.785C40.3019 26.9461 40.3537 27.1232 40.3682 27.3052C40.3682 27.3587 40.3682 27.6797 40.3682 28.2683V29.6772L41.6344 28.2237C42.1771 27.5647 42.8071 26.9827 43.507 26.4938C44.1008 26.145 44.7718 25.9489 45.4599 25.9231C45.7152 25.9065 45.9714 25.9065 46.2268 25.9231C48.0815 25.9944 49.2943 26.4581 49.8561 27.332C49.9729 27.4999 50.0421 27.6964 50.0562 27.9005C50.0703 28.1046 50.0289 28.3088 49.9363 28.4912C49.8179 28.7789 49.6233 29.0288 49.3735 29.2142C49.1237 29.3996 48.8281 29.5134 48.5185 29.5434C48.1648 29.564 47.81 29.5309 47.4663 29.4453C46.9362 29.3073 46.3911 29.2354 45.8433 29.2313C44.9516 29.2938 44.2115 30.1231 43.507 31.6479C43.0604 32.8287 42.7434 34.0546 42.5618 35.3039C42.3079 36.5089 42.1824 37.7375 42.1873 38.9689C42.1797 39.0281 42.1797 39.088 42.1873 39.1472C42.192 39.1947 42.192 39.2425 42.1873 39.2899C42.2246 39.4175 42.2456 39.5494 42.2497 39.6823C42.2268 40.062 42.0831 40.4244 41.8395 40.7167C41.7046 40.9271 41.5221 41.1029 41.3068 41.2299C41.0916 41.3569 40.8494 41.4316 40.6 41.4479C40.2479 41.4577 39.9008 41.3629 39.6024 41.1757C39.3041 40.9884 39.0679 40.717 38.9236 40.3956C38.228 39.2602 37.6722 36.5613 37.2561 32.2988C37.1045 30.9167 37.0242 30.0606 37.0064 29.7396C36.9184 29.0319 36.9184 28.3161 37.0064 27.6084C37.0993 27.1954 37.3136 26.8197 37.6217 26.5294Z" fill="#F48E9F"/>
<path d="M56.2575 24.8265C56.7068 24.2566 57.2674 23.784 57.9051 23.4375C58.5428 23.0911 59.2444 22.878 59.967 22.8112C60.6028 22.7781 61.2383 22.8815 61.8307 23.1144C62.6029 23.3696 63.2988 23.8141 63.8549 24.4074C64.4321 25.1154 64.8762 25.922 65.1658 26.7883C65.2982 27.1458 65.3734 27.522 65.3887 27.9029C65.405 28.5959 65.2735 29.2843 65.0029 29.9224C64.7323 30.5606 64.3288 31.1337 63.8193 31.6036C62.6693 32.783 61.1843 33.58 59.5658 33.8864C59.0679 34.0081 58.5609 34.0886 58.0498 34.1271C57.89 34.1478 57.7282 34.1478 57.5683 34.1271L56.8014 34.0023L56.8906 35.7857C56.8848 36.7152 57.1019 37.6326 57.5237 38.4609C57.6367 38.7516 57.817 39.0114 58.0498 39.2189C58.3316 39.3382 58.6357 39.3959 58.9416 39.3883H59.2626C60.1705 39.2098 61.0287 38.8355 61.7772 38.2915C62.5473 37.7428 63.4118 37.3408 64.3276 37.1055C64.4937 37.0913 64.6609 37.1162 64.8157 37.1782C64.9705 37.2401 65.1087 37.3373 65.2193 37.4622C65.3654 37.5807 65.4853 37.7283 65.5712 37.8956C65.6572 38.0629 65.7074 38.2463 65.7186 38.4341C65.7662 39.2902 64.7764 40.283 62.7492 41.4125C62.1765 41.7361 61.5804 42.0163 60.9658 42.2507C60.4071 42.4 59.8319 42.4778 59.2537 42.4825C58.7259 42.5359 58.1941 42.5359 57.6664 42.4825C57.261 42.3873 56.8789 42.2114 56.5428 41.9654C55.8292 41.4849 55.2419 40.8395 54.8307 40.0838C54.5036 39.6148 54.2453 39.1013 54.0639 38.559C53.9021 37.7292 53.8008 36.8888 53.7607 36.0443V35.0813C53.4813 30.4384 54.3135 27.0201 56.2575 24.8265ZM61.153 26.1998C60.8659 26.0091 60.5253 25.9153 60.1811 25.9322C59.6957 25.9919 59.2409 26.2006 58.8791 26.5297C58.4172 27.0644 58.0384 27.6656 57.7556 28.3131C57.4243 28.9257 57.221 29.5992 57.1581 30.2927V31.0685L58.4333 30.9615C59.1639 30.8848 59.8758 30.6827 60.5377 30.3641C61.0162 30.0582 61.441 29.6756 61.7951 29.2316C62.1001 28.9416 62.2928 28.5531 62.339 28.1348C62.3014 27.767 62.1659 27.4159 61.9467 27.1182C61.7516 26.7682 61.4803 26.4665 61.153 26.2354V26.1998Z" fill="#F48E9F"/>
<path d="M88.5113 24.5505C88.6316 24.004 88.9 23.5012 89.2871 23.097C89.4505 22.9021 89.6516 22.7424 89.8785 22.6275C90.1053 22.5125 90.3531 22.4447 90.6068 22.4282C90.8452 22.4296 91.0807 22.4802 91.2986 22.5768C91.5165 22.6735 91.7121 22.8142 91.8731 22.99C92.0302 23.1153 92.15 23.2814 92.2191 23.4701C92.2883 23.6588 92.3043 23.8629 92.2654 24.0601C91.99 26.3532 91.9362 28.6675 92.1049 30.9709C92.1584 32.7543 92.2208 34.1008 92.2833 35.1441C92.3457 36.1874 92.4081 37.525 92.4616 39.1569C92.5864 42.7237 92.3932 45.2711 91.882 46.7989C91.6256 47.5219 91.2454 48.1947 90.7584 48.7874C90.3323 49.3487 89.7792 49.801 89.1444 50.1072C88.4571 50.4247 87.7079 50.5862 86.9508 50.5798C85.0826 50.6711 83.2312 50.1888 81.6451 49.1976C80.4947 48.511 79.8616 47.7887 79.8616 47.0129C79.8624 46.7843 79.9094 46.5582 79.9998 46.3483C80.0902 46.1383 80.2222 45.9489 80.3877 45.7913C80.4986 45.6613 80.6349 45.5555 80.7883 45.4803C80.9417 45.4052 81.1088 45.3623 81.2794 45.3543C81.8716 45.3914 82.438 45.6092 82.9024 45.9785C83.9856 46.802 85.3138 47.2385 86.6743 47.218C87.0403 47.2222 87.4054 47.1833 87.7622 47.1021C87.9863 47.0062 88.176 46.8445 88.3062 46.6384C88.5737 46.2231 88.7753 45.7689 88.9036 45.2919C89.1177 44.5072 89.1355 41.4486 88.9036 36.0983C88.9396 35.118 88.8648 34.1369 88.6807 33.1734C88.547 33.1734 88.2616 33.4677 87.8336 34.0652C87.307 34.7544 86.6751 35.3563 85.961 35.8486C85.5721 36.1557 85.1504 36.4189 84.7036 36.6333C84.2897 36.7561 83.8603 36.8191 83.4285 36.8206C83.0173 36.8512 82.6039 36.8302 82.1979 36.7581C81.8759 36.6526 81.5743 36.4928 81.3062 36.2855C80.0549 35.1924 79.2462 33.6797 79.0323 32.032C78.7859 30.4683 78.6518 28.8889 78.631 27.3059C78.5775 25.7008 78.5597 24.7199 78.631 24.3543C78.6392 24.0398 78.7667 23.7401 78.9877 23.5161C79.2857 23.228 79.6793 23.0597 80.0935 23.0435C80.3299 23.0286 80.5666 23.0673 80.7859 23.1569C81.0052 23.2465 81.2014 23.3845 81.3597 23.5607C81.6003 23.8339 81.7634 24.1664 81.8323 24.5238C81.8947 24.8805 81.9571 25.8703 82.0107 27.4754C82.1266 30.7034 82.4654 32.6473 83.054 33.2983C83.1415 33.3877 83.259 33.4417 83.3839 33.4499C83.7852 33.4499 84.3915 32.9594 85.2208 32.0142C85.9911 30.988 86.6265 29.8672 87.1113 28.6792C87.7403 27.3634 88.2102 25.9775 88.5113 24.5505Z" fill="#F48E9F"/>
<path d="M100.951 22.4902C101.325 22.4367 101.619 22.401 101.842 22.3921C102.883 22.3957 103.914 22.5922 104.883 22.9717C105.825 23.2874 106.68 23.8187 107.38 24.5233C108.031 25.1824 108.517 25.986 108.798 26.8685C109.087 28.1679 109.221 29.4968 109.199 30.8278C109.199 32.2991 109.199 33.2621 109.146 33.6991C109.066 34.274 108.916 34.8369 108.7 35.3755C108.405 36.1537 108.056 36.9105 107.656 37.6405C107.459 37.9194 107.328 38.2396 107.273 38.5768C107.273 38.7373 106.943 39.0851 106.274 39.6201C105.722 40.0729 105.124 40.4674 104.491 40.7972C103.773 41.1663 102.979 41.3617 102.172 41.3679C101.11 41.3951 100.061 41.1198 99.1493 40.5742C98.201 40.0135 97.4358 39.1895 96.9468 38.2023C96.1392 36.636 95.7173 34.8995 95.7162 33.1373C95.7109 32.2435 95.7585 31.3503 95.8589 30.4621C96.0716 28.8918 96.5258 27.3638 97.2054 25.9322C97.568 25.0415 98.1046 24.2321 98.7837 23.5513C99.4053 23.0211 100.151 22.6561 100.951 22.4902ZM103.875 26.1284C103.354 25.8404 102.775 25.6729 102.181 25.6379C101.867 25.6464 101.56 25.7354 101.289 25.8965C100.96 26.0954 100.677 26.3631 100.46 26.6813C100.245 26.9058 100.1 27.1875 100.041 27.4927C99.9447 28.0139 99.8076 28.5268 99.6309 29.0265C99.3369 30.1302 99.1723 31.2643 99.1404 32.4061C99.1252 32.7031 99.1252 33.0008 99.1404 33.2978C99.0615 34.7762 99.553 36.2286 100.514 37.3551C100.736 37.5597 100.998 37.716 101.283 37.8142C101.569 37.9125 101.871 37.9505 102.172 37.9258C102.529 37.939 102.884 37.8782 103.216 37.7475C103.578 37.4921 103.908 37.1925 104.196 36.8558C104.449 36.5964 104.679 36.316 104.883 36.0176C105.014 35.8274 105.124 35.6242 105.213 35.4112C105.213 35.2596 105.338 35.001 105.436 34.6443C105.534 34.2876 105.632 33.9488 105.739 33.6456C105.949 32.9555 106.039 32.2348 106.007 31.5144C106.007 31.4074 106.007 31.2379 106.007 30.9972C106.007 30.7564 106.007 30.5513 106.007 30.3908C106.01 29.3667 105.847 28.3489 105.525 27.3768C105.147 26.7725 104.56 26.3282 103.875 26.1284Z" fill="#F48E9F"/>
<path d="M124.787 21.0996C124.94 21.0383 125.104 21.008 125.268 21.0104C125.692 21.0182 126.107 21.1349 126.472 21.3492C126.822 21.5123 127.096 21.8025 127.239 22.1607C127.305 22.4381 127.335 22.7228 127.328 23.0078C127.328 23.6796 127.293 24.4554 127.221 25.3352C127.15 26.215 127.123 28.0995 127.141 30.9887C127.141 32.1925 127.195 33.7976 127.257 35.7862C127.319 37.7747 127.364 39.0053 127.364 39.46C127.33 39.8079 127.16 40.1283 126.891 40.3518C126.773 40.4925 126.628 40.6078 126.464 40.6905C126.3 40.7733 126.121 40.8219 125.937 40.8333C125.553 40.7847 125.197 40.6052 124.93 40.325C124.198 39.7097 123.824 38.1136 123.806 35.5187C123.806 34.2078 123.744 33.5479 123.637 33.5479C123.53 33.5479 123.298 33.8601 122.959 34.4397C122.38 35.4437 121.714 36.3954 120.97 37.2843C120.47 37.9795 119.833 38.5652 119.098 39.0053C118.626 39.2405 118.109 39.3684 117.582 39.3798C116.9 39.3648 116.235 39.1643 115.658 38.7998C115.082 38.4353 114.615 37.9206 114.309 37.311C113.564 35.8051 113.07 34.1876 112.847 32.5225C112.456 30.1856 112.259 27.8204 112.258 25.4511C112.233 24.8263 112.254 24.2004 112.321 23.5785C112.386 23.2765 112.523 22.9949 112.722 22.7582C112.878 22.5588 113.079 22.3992 113.308 22.2922C113.537 22.1853 113.789 22.1341 114.042 22.1429C114.257 22.1315 114.472 22.1726 114.667 22.2627C114.863 22.3528 115.034 22.4892 115.165 22.6601C115.53 23.5018 115.674 24.4224 115.584 25.3352C115.579 27.7982 115.812 30.2559 116.28 32.6741C116.726 34.8677 117.172 35.9556 117.751 35.9556C117.888 35.9556 118.325 35.4562 119.062 34.4575C120.941 31.9904 122.385 28.4235 123.396 23.7569C123.708 22.2142 124.172 21.3403 124.787 21.0996Z" fill="#F48E9F"/>
<path d="M141.328 23.3109C141.649 23.0197 142.064 22.8549 142.497 22.8472C142.706 22.8474 142.913 22.8911 143.105 22.9755C143.297 23.06 143.469 23.1832 143.611 23.3376C143.746 23.4611 143.854 23.6113 143.927 23.7786C144.001 23.946 144.039 24.1268 144.039 24.3096C144.039 24.3631 144.039 24.6841 143.95 25.2726L143.807 26.6726L145.19 25.3261C145.785 24.7154 146.46 24.1875 147.196 23.7567C147.816 23.451 148.503 23.3068 149.193 23.3376C149.447 23.3416 149.7 23.3595 149.951 23.3911C151.797 23.6051 152.965 24.1669 153.465 25.0854C153.567 25.2613 153.621 25.4613 153.621 25.665C153.621 25.8687 153.567 26.0687 153.465 26.2446C153.322 26.5312 153.102 26.7718 152.829 26.939C152.556 27.1062 152.242 27.1931 151.922 27.1898C151.57 27.1835 151.221 27.1233 150.888 27.0115C150.371 26.8228 149.831 26.7087 149.283 26.6726C148.391 26.6726 147.588 27.3949 146.768 28.8841C146.233 30.027 145.817 31.2224 145.528 32.451C145.176 33.6302 144.952 34.844 144.86 36.0714C144.856 36.1307 144.856 36.1903 144.86 36.2497C144.86 36.321 144.86 36.3656 144.86 36.3924C144.875 36.5257 144.875 36.6604 144.86 36.7937C144.804 37.1714 144.629 37.5215 144.36 37.7924C144.208 37.9902 144.012 38.1497 143.788 38.2581C143.563 38.3665 143.317 38.4208 143.067 38.4166C142.715 38.398 142.376 38.2754 142.094 38.0643C141.811 37.8532 141.598 37.5631 141.48 37.2306C140.886 36.0416 140.55 33.307 140.472 29.0268C140.472 27.6357 140.419 26.7796 140.428 26.4586C140.406 25.7449 140.477 25.0313 140.642 24.3363C140.762 23.9329 141.001 23.5753 141.328 23.3109Z" fill="#F48E9F"/>
<path d="M160.046 23.15C160.54 22.6191 161.138 22.1944 161.801 21.9016C162.465 21.6088 163.182 21.4541 163.907 21.4468C164.544 21.4624 165.17 21.6144 165.744 21.8926C166.49 22.213 167.145 22.7122 167.652 23.3461C168.169 24.0994 168.546 24.939 168.767 25.8251C168.87 26.1934 168.915 26.5755 168.901 26.9576C168.862 27.6505 168.675 28.3271 168.354 28.9422C168.032 29.5573 167.583 30.0967 167.037 30.5245C165.786 31.6148 164.229 32.2909 162.578 32.4595C162.074 32.5375 161.564 32.5762 161.053 32.5754C160.891 32.5857 160.728 32.5676 160.572 32.5219L159.814 32.3436L159.76 34.127C159.686 35.0394 159.83 35.9562 160.18 36.8022C160.268 37.0983 160.423 37.37 160.634 37.5958C160.894 37.734 161.179 37.816 161.473 37.8366H161.794C162.713 37.7301 163.598 37.4259 164.388 36.9449C165.21 36.4531 166.118 36.1231 167.064 35.9729C167.226 35.9759 167.385 36.015 167.53 36.0876C167.675 36.1601 167.802 36.2641 167.902 36.392C168.036 36.5248 168.141 36.6834 168.211 36.8582C168.282 37.0329 168.316 37.2202 168.312 37.4085C168.312 38.2646 167.245 39.1712 165.111 40.1283C164.521 40.4088 163.91 40.6414 163.283 40.8238C162.712 40.9251 162.131 40.9581 161.553 40.9219C161.027 40.9286 160.501 40.8838 159.983 40.7882C159.613 40.6674 159.27 40.4733 158.976 40.2175C158.296 39.684 157.757 38.9921 157.406 38.2022C157.122 37.7076 156.906 37.1766 156.764 36.6238C156.669 35.7833 156.636 34.9368 156.666 34.0914V33.1283C156.809 28.4795 157.935 25.1534 160.046 23.15ZM164.817 24.9334C164.545 24.7161 164.21 24.5939 163.862 24.5856C163.378 24.605 162.911 24.7732 162.525 25.0672C162.018 25.5704 161.591 26.1477 161.259 26.7793C160.881 27.3649 160.623 28.0195 160.501 28.7054L160.447 29.392H161.767C162.5 29.3793 163.225 29.2343 163.907 28.964C164.41 28.7004 164.866 28.3537 165.253 27.9385C165.581 27.676 165.805 27.3066 165.887 26.8952C165.873 26.5237 165.766 26.1616 165.574 25.843C165.401 25.4796 165.14 25.1642 164.817 24.9245V24.9334Z" fill="#F48E9F"/>
<path d="M178.067 24.8267C178.492 24.738 178.926 24.7021 179.36 24.7197C180.028 24.7551 180.678 24.9443 181.26 25.2726C181.777 25.5923 182.359 25.7933 182.963 25.8611C183.19 25.8653 183.413 25.9184 183.618 26.0169C183.823 26.1154 184.004 26.2569 184.149 26.4318C184.339 26.6249 184.474 26.8649 184.541 27.1273C184.611 27.6086 184.626 28.0962 184.586 28.5808C184.517 30.6442 184.553 32.7096 184.693 34.7694C184.735 36.2879 184.924 37.7988 185.255 39.2815C185.314 39.45 185.335 39.6297 185.317 39.8076C185.31 40.0156 185.256 40.2193 185.159 40.4033C185.062 40.5872 184.924 40.7464 184.755 40.8687C184.437 41.1384 184.031 41.2813 183.614 41.27C183.447 41.2613 183.285 41.2123 183.141 41.1273C182.722 40.8517 182.408 40.4434 182.249 39.9681C181.977 39.324 181.808 38.6408 181.75 37.9439C181.697 37.2483 181.598 36.8917 181.465 36.8917C181.331 36.8917 180.983 37.284 180.421 38.0955C179.797 38.9699 179.017 39.7224 178.121 40.3159C177.35 40.7659 176.461 40.974 175.57 40.9133H175.044C174.485 40.7319 173.986 40.4021 173.6 39.9592C173.106 39.4846 172.72 38.91 172.467 38.2738C172 36.9529 171.797 35.5532 171.87 34.1541C171.89 33.6154 171.949 33.0789 172.048 32.549C172.444 30.6937 173.262 28.9544 174.438 27.4662C175.299 26.1867 176.585 25.252 178.067 24.8267ZM179.984 28.1617C179.782 28.0189 179.555 27.9133 179.316 27.8496C179.078 27.8871 178.846 27.9592 178.629 28.0636C177.548 28.5673 176.666 29.4179 176.123 30.4802C175.404 31.6321 174.993 32.9493 174.928 34.3057C174.914 34.9216 174.965 35.5373 175.08 36.1426C175.124 36.6062 175.264 37.0556 175.49 37.4624C175.533 37.5387 175.595 37.6026 175.67 37.6479C175.745 37.6932 175.831 37.7184 175.918 37.721C176.587 37.721 177.461 36.9719 178.54 35.4114C179.384 34.0714 180.011 32.6055 180.395 31.0687C180.578 30.4871 180.709 29.8902 180.787 29.2853C180.781 29.0348 180.702 28.7916 180.559 28.5857C180.416 28.3797 180.217 28.2199 179.984 28.1261V28.1617Z" fill="#F48E9F"/>
<path d="M200.912 17.1398C201.06 16.9853 201.239 16.864 201.438 16.7841C201.636 16.7041 201.849 16.6673 202.063 16.6761C202.287 16.6843 202.507 16.745 202.703 16.8534C202.9 16.9619 203.068 17.1149 203.195 17.3003C203.389 17.649 203.488 18.0427 203.481 18.4417C203.481 18.9232 203.427 20.3143 203.32 22.6149C202.915 28.3077 203.097 34.027 203.864 39.6824C204.001 40.7346 204.063 41.2875 204.051 41.341C204 41.6222 203.891 41.8895 203.73 42.1257C203.549 42.4476 203.267 42.7012 202.928 42.848C202.848 42.86 202.767 42.86 202.687 42.848C202.33 42.8133 201.993 42.6666 201.724 42.4289C201.426 42.208 201.209 41.8943 201.109 41.5372C200.975 41.02 200.805 40.048 200.6 38.6391C200.449 37.7753 200.353 36.9026 200.315 36.0264C200.315 35.6786 200.315 35.5003 200.181 35.5003C200.047 35.5003 199.664 35.9639 199.102 36.927C197.182 40.2561 195.182 41.8642 193.101 41.7512C192.549 41.7154 192.011 41.5635 191.523 41.3053C190.493 40.6731 189.739 39.6768 189.409 38.5143C188.735 36.4456 188.597 34.2395 189.008 32.1028C189.248 30.3291 190.055 28.6806 191.309 27.4034C191.826 26.8651 192.452 26.4441 193.146 26.1687C193.84 25.8934 194.585 25.7701 195.33 25.8073C196.254 25.8557 197.15 26.138 197.934 26.6277C198.276 26.8387 198.649 26.9952 199.04 27.0913H199.12C199.399 26.2419 199.573 25.3615 199.637 24.4697C199.869 22.82 200.056 21.2238 200.19 19.6722C200.177 18.7755 200.429 17.8949 200.912 17.1398ZM196.454 29.4455C196.226 29.2553 195.962 29.1124 195.679 29.0251C195.395 28.9378 195.097 28.9078 194.801 28.9368C194.506 28.9659 194.219 29.0534 193.958 29.1943C193.697 29.3352 193.466 29.5267 193.279 29.7576C192.664 30.471 192.252 31.3363 192.084 32.2633C191.973 32.7374 191.907 33.2212 191.888 33.7079C191.82 34.8315 191.922 35.9589 192.191 37.0518C192.459 38.113 192.789 38.6569 193.19 38.6748C193.993 38.7164 194.95 37.8247 196.061 35.9996C196.932 34.8011 197.526 33.4245 197.8 31.969C197.815 31.4906 197.694 31.0179 197.453 30.6047C197.216 30.1553 196.888 29.7604 196.489 29.4455H196.454Z" fill="#F48E9F"/>
<path d="M218.096 26.9757C218.263 26.4479 218.571 25.9759 218.988 25.6114C219.17 25.434 219.387 25.2958 219.624 25.2054C219.862 25.1149 220.116 25.074 220.37 25.0853C220.607 25.1068 220.837 25.1783 221.044 25.2951C221.252 25.4119 221.432 25.5714 221.574 25.763C221.717 25.9044 221.819 26.0819 221.869 26.2765C221.919 26.4712 221.916 26.6758 221.859 26.8687C221.345 29.1241 221.047 31.4231 220.967 33.7349C220.851 35.4649 220.771 36.856 220.736 37.8993C220.7 38.9426 220.611 40.2712 220.504 41.9031C220.266 45.47 219.817 47.9876 219.157 49.4559C218.854 50.1372 218.444 50.7662 217.944 51.3196C217.447 51.8358 216.836 52.2295 216.161 52.47C215.444 52.7122 214.684 52.7974 213.932 52.7196C212.063 52.6183 210.269 51.9529 208.786 50.8114C207.716 50.0088 207.208 49.2241 207.262 48.4483C207.283 48.2223 207.35 48.003 207.459 47.8037C207.568 47.6044 207.716 47.4293 207.895 47.2891C208.022 47.17 208.172 47.0784 208.336 47.0201C208.501 46.9618 208.675 46.938 208.849 46.9502C209.436 47.0429 209.978 47.3173 210.401 47.7349C211.401 48.6617 212.68 49.2295 214.039 49.3489C214.397 49.3926 214.759 49.3926 215.118 49.3489C215.353 49.2782 215.561 49.1384 215.715 48.9477C216.02 48.5625 216.264 48.1323 216.437 47.6725C216.732 46.9056 217.062 43.8649 217.418 38.5235C217.547 37.5509 217.571 36.5674 217.49 35.5897C217.356 35.5897 217.044 35.8483 216.553 36.3744C215.965 37.0112 215.279 37.5501 214.52 37.9706C214.101 38.238 213.652 38.4564 213.183 38.6216C212.761 38.7103 212.327 38.7284 211.899 38.6751C211.486 38.6661 211.075 38.6062 210.677 38.4967C210.371 38.3624 210.092 38.1718 209.857 37.9349C208.718 36.7247 208.064 35.1377 208.02 33.4763C207.936 31.898 207.963 30.3159 208.1 28.7413C208.207 27.1362 208.287 26.1553 208.35 25.7986C208.392 25.489 208.547 25.2061 208.786 25.005C209.113 24.7483 209.522 24.6184 209.937 24.6394C210.173 24.6489 210.404 24.7116 210.612 24.8228C210.821 24.9339 211.001 25.0907 211.141 25.2814C211.358 25.5787 211.488 25.9308 211.515 26.298C211.529 27.2803 211.49 28.2625 211.399 29.2407C211.185 32.4687 211.337 34.4364 211.854 35.1439C211.888 35.1942 211.933 35.2363 211.986 35.2672C212.038 35.298 212.097 35.3168 212.157 35.3222C212.558 35.3222 213.218 34.9388 214.128 34.0916C215.006 33.1511 215.755 32.0987 216.357 30.9617C217.09 29.7051 217.673 28.3674 218.096 26.9757Z" fill="#F48E9F"/>
<path d="M243.6 16.1503C243.836 16.0735 244.084 16.0402 244.331 16.0522C245.058 16.1225 245.74 16.4368 246.266 16.9439C246.818 17.5917 247.215 18.3573 247.425 19.1821C247.761 20.1824 247.932 21.2303 247.934 22.2853C247.935 22.6069 247.921 22.9283 247.889 23.2484C247.884 23.4195 247.842 23.5876 247.767 23.7414C247.692 23.8951 247.584 24.0311 247.452 24.1401C247.16 24.3732 246.79 24.4849 246.418 24.4522C246.19 24.4327 245.969 24.3655 245.77 24.2549C245.57 24.1442 245.396 23.9927 245.259 23.8101C244.943 23.4043 244.787 22.8965 244.822 22.3834C244.847 21.8233 244.796 21.2623 244.67 20.7159C244.545 20.1719 244.385 19.8866 244.197 19.8687C244.01 19.8509 243.752 20.1898 243.582 20.8853C243.314 22.2327 243.115 23.5929 242.985 24.9605L242.53 28.8305H244.215H245.348C245.805 28.9079 246.215 29.1606 246.489 29.535C246.784 29.8099 246.965 30.1853 246.997 30.5872C246.917 30.9117 246.74 31.204 246.489 31.4254C246.303 31.6396 246.058 31.7946 245.785 31.8713C245.32 31.9269 244.852 31.9448 244.385 31.9248H242.86L242.699 32.8165C242.643 33.6061 242.643 34.3988 242.699 35.1885C242.771 36.5439 242.851 37.9261 242.94 39.3439C243.029 40.7617 243.074 41.5197 243.065 41.6267C243.057 41.6679 243.057 41.7103 243.065 41.7515C243.069 41.7931 243.069 41.8348 243.065 41.8764C243.016 42.2743 242.817 42.6387 242.509 42.8954C242.201 43.1521 241.807 43.2819 241.406 43.2585C240.613 43.1872 240.122 42.6522 239.944 41.6356C239.873 41.1808 239.783 39.977 239.668 38.0687C239.552 36.1604 239.498 34.6534 239.48 33.6101V31.9605L238.205 31.8445C237.342 31.8285 236.493 31.6246 235.717 31.2471C235.488 31.0905 235.309 30.8705 235.203 30.6139C235.097 30.3573 235.068 30.0753 235.12 29.8025C235.109 29.5941 235.157 29.3869 235.258 29.2042C235.359 29.0215 235.509 28.8705 235.69 28.7681C236.334 28.5843 237.011 28.5477 237.67 28.6611L239.391 28.8038L239.65 25.8522C239.793 23.5795 240.24 21.3362 240.978 19.1821C241.426 17.87 242.366 16.783 243.6 16.1503Z" fill="#F48E9F"/>
<path d="M256.289 28.4648C256.586 28.4453 256.884 28.4453 257.181 28.4648C258.215 28.5926 259.217 28.9132 260.133 29.41C261.033 29.8333 261.821 30.4626 262.433 31.247C262.996 31.9798 263.378 32.8353 263.548 33.7438C263.681 35.0706 263.657 36.4085 263.477 37.7298C263.298 39.1922 263.164 40.1374 263.066 40.5654C262.919 41.1276 262.703 41.6696 262.424 42.1794C262.035 42.9163 261.6 43.6281 261.122 44.3106C260.887 44.562 260.718 44.8686 260.632 45.2024C260.632 45.3629 260.24 45.6661 259.508 46.0941C258.912 46.4756 258.279 46.7953 257.618 47.0482C256.863 47.325 256.055 47.4257 255.255 47.3425C254.194 47.2343 253.185 46.8329 252.339 46.1833C251.469 45.5154 250.805 44.6162 250.422 43.5884C249.809 41.9346 249.601 40.1581 249.815 38.4075C249.914 37.507 250.069 36.6135 250.279 35.7323C250.68 34.2008 251.318 32.7415 252.17 31.4075C252.633 30.5862 253.254 29.8649 253.998 29.2852C254.679 28.82 255.468 28.5375 256.289 28.4648ZM258.75 32.424C258.268 32.0764 257.713 31.8418 257.128 31.7374C256.808 31.6997 256.485 31.749 256.191 31.8801C255.852 32.0445 255.549 32.2748 255.3 32.5578C255.064 32.761 254.886 33.0223 254.782 33.3158C254.622 33.8199 254.426 34.3116 254.194 34.7871C253.77 35.8487 253.471 36.9559 253.302 38.0864C253.257 38.2915 253.213 38.6036 253.168 38.9782C252.918 40.4407 253.237 41.9436 254.06 43.1782C254.257 43.4073 254.498 43.5936 254.77 43.7256C255.041 43.8575 255.337 43.9322 255.638 43.945C255.989 43.9971 256.347 43.9789 256.691 43.8915C257.081 43.6931 257.444 43.4443 257.77 43.1514C258.052 42.9242 258.314 42.6736 258.554 42.4024C258.706 42.2289 258.841 42.0407 258.956 41.8406C259.018 41.6979 259.125 41.4482 259.268 41.1005C259.41 40.7527 259.553 40.4406 259.687 40.1552C259.982 39.4954 260.16 38.7894 260.213 38.0686C260.222 37.8963 260.222 37.7237 260.213 37.5514C260.213 37.3107 260.213 37.1056 260.257 36.954C260.375 35.9345 260.335 34.9031 260.142 33.8954C259.864 33.2543 259.368 32.7328 258.742 32.424H258.75Z" fill="#F48E9F"/>
<path d="M268.131 30.7741C268.477 30.5163 268.905 30.3928 269.335 30.4263C269.544 30.4476 269.747 30.5126 269.93 30.6171C270.113 30.7215 270.271 30.8631 270.396 31.0327C270.518 31.1687 270.61 31.3284 270.667 31.5019C270.724 31.6753 270.744 31.8587 270.726 32.0403C270.726 32.0938 270.664 32.4059 270.539 32.9855L270.262 34.3677L271.769 33.1639C272.424 32.6122 273.15 32.1504 273.927 31.7906C274.576 31.5596 275.269 31.4862 275.952 31.5766C276.204 31.602 276.454 31.6437 276.701 31.7014C278.52 32.0997 279.628 32.7775 280.027 33.7346C280.113 33.9215 280.146 34.1285 280.122 34.3329C280.099 34.5373 280.019 34.7314 279.893 34.8938C279.724 35.1641 279.482 35.3811 279.195 35.5199C278.907 35.6587 278.587 35.7137 278.27 35.6785C277.919 35.6372 277.577 35.544 277.254 35.4021C276.759 35.164 276.234 34.9959 275.693 34.9027C274.846 34.8046 273.91 35.4556 272.973 36.8556C272.326 37.9414 271.794 39.0921 271.386 40.2887C270.921 41.4388 270.577 42.6342 270.361 43.8556V44.0339C270.364 44.0814 270.364 44.1291 270.361 44.1766C270.374 44.31 270.374 44.4444 270.361 44.5779C270.275 44.9497 270.068 45.2824 269.772 45.5231C269.602 45.7057 269.392 45.846 269.158 45.9328C268.924 46.0195 268.673 46.0502 268.425 46.0225C268.075 45.9708 267.748 45.816 267.486 45.5777C267.224 45.3395 267.039 45.0287 266.954 44.6849C266.482 43.4454 266.41 40.69 266.767 36.4186C266.865 35.0365 266.936 34.1804 266.972 33.8594C267.029 33.1468 267.169 32.4434 267.391 31.7639C267.535 31.3681 267.792 31.0236 268.131 30.7741Z" fill="#F48E9F"/>
<path d="M295.176 33.7433C295.317 33.6339 295.481 33.5565 295.655 33.5164C295.829 33.4764 296.009 33.4747 296.184 33.5115C296.456 33.5359 296.719 33.6225 296.953 33.7648C297.186 33.907 297.384 34.1011 297.53 34.3319C297.713 34.8799 297.768 35.4625 297.691 36.035C297.646 36.8822 297.459 38.9242 297.111 42.1701L296.362 49.4822L295.783 49.8478C295.472 50.0835 295.083 50.1919 294.695 50.151C294.411 50.1071 294.146 49.9805 293.933 49.787C293.721 49.5935 293.57 49.3417 293.5 49.0631C293.375 48.7777 293.55 46.1977 294.026 41.3229C294.294 38.6299 294.493 36.8079 294.623 35.8567C294.63 35.1173 294.82 34.391 295.176 33.7433ZM295.176 28.8032C295.503 28.556 295.91 28.4385 296.318 28.4733C296.534 28.504 296.742 28.5793 296.927 28.6944C297.113 28.8095 297.273 28.962 297.397 29.1421C297.539 29.3071 297.646 29.5004 297.709 29.7094C297.772 29.9184 297.79 30.1383 297.762 30.3548C297.657 30.8207 297.393 31.2356 297.016 31.5284C296.638 31.8211 296.171 31.9737 295.693 31.9599C295.396 31.9234 295.117 31.7997 294.89 31.6046C294.663 31.4094 294.499 31.1514 294.418 30.8631C294.318 30.602 294.284 30.3201 294.32 30.0427C294.369 29.7867 294.47 29.5435 294.617 29.3286C294.765 29.1137 294.955 28.9318 295.176 28.7943V28.8032Z" fill="#F48E9F"/>
<path d="M307.803 29.9904C307.874 29.8371 307.977 29.7007 308.104 29.59C308.232 29.4793 308.382 29.397 308.543 29.3483C308.898 29.212 309.281 29.166 309.658 29.2146C309.972 29.2545 310.269 29.3771 310.52 29.5698C310.771 29.7625 310.965 30.0185 311.085 30.3114C311.199 30.5147 311.252 30.7472 311.236 30.9802C311.192 31.1936 311.12 31.4005 311.022 31.5954C310.775 32.2108 310.592 32.8504 310.478 33.5037L310.229 34.6897H311.397C311.624 34.688 311.851 34.7059 312.074 34.7432C312.453 34.8035 312.8 34.9924 313.055 35.2782C313.218 35.4511 313.337 35.6599 313.404 35.8877C313.471 36.1155 313.483 36.3558 313.439 36.5891C313.403 36.8343 313.328 37.0722 313.216 37.2935C312.939 37.7661 312.092 37.9802 310.692 37.9534H309.524L309.239 39.1305C308.388 42.4705 307.724 45.8553 307.25 49.2693C307.146 50.1684 306.994 51.0613 306.796 51.9445C306.702 52.2644 306.505 52.5439 306.234 52.7381C306.088 52.8769 305.913 52.9823 305.722 53.047C305.531 53.1116 305.328 53.134 305.128 53.1126C304.731 53.0322 304.376 52.8104 304.129 52.4884C303.918 52.2596 303.787 51.9687 303.755 51.6591C303.767 50.908 303.818 50.158 303.906 49.412L304.022 48.5827C304.23 47.15 304.554 45.2774 304.994 42.9649C305.434 40.6523 305.755 39.1661 305.957 38.5063L306.18 37.8018H305.048C304.18 37.8018 303.502 37.8018 303.015 37.8018C302.869 37.8174 302.723 37.8174 302.578 37.8018C302.395 37.7698 302.22 37.6991 302.067 37.5946C301.913 37.49 301.783 37.354 301.686 37.1954C301.526 36.9821 301.412 36.7382 301.351 36.479C301.29 36.2198 301.282 35.9507 301.329 35.6884C301.418 35.0553 301.65 34.663 302.016 34.5114C302.846 34.3336 303.701 34.3095 304.539 34.44C305.265 34.5213 305.995 34.5422 306.724 34.5024C306.973 33.833 307.138 33.135 307.215 32.4247C307.355 31.6007 307.551 30.7873 307.803 29.9904Z" fill="#F48E9F"/>
<path d="M321.492 30.6584C322.205 30.5196 322.936 30.4925 323.658 30.5782C324.355 30.6709 325.025 30.9026 325.631 31.2595C326.236 31.6164 326.763 32.0913 327.181 32.6559C327.605 33.2224 327.909 33.8701 328.073 34.5588C328.237 35.2475 328.258 35.9626 328.135 36.6597C328.073 37.0582 327.971 37.4495 327.832 37.8278C327.523 38.6922 327.064 39.4952 326.476 40.1998C325.547 41.2849 324.546 42.3067 323.48 43.2584C322.78 43.8452 322.119 44.4767 321.501 45.1489C321.254 45.4581 321.094 45.8274 321.037 46.2189C321.031 46.4456 320.967 46.667 320.852 46.8621C320.736 47.0572 320.573 47.2195 320.377 47.3336C320.072 47.4989 319.721 47.5585 319.378 47.503C318.945 47.4286 318.554 47.1968 318.281 46.852C317.98 46.488 317.813 46.0315 317.809 45.5591C317.809 45.5591 317.809 45.4788 317.809 45.3985C317.804 45.3451 317.804 45.2914 317.809 45.238C317.951 44.2839 318.986 42.9374 320.894 41.1985C323.421 39.0406 324.77 37.379 324.943 36.2138C324.989 35.8876 324.969 35.5554 324.885 35.2369C324.801 34.9184 324.653 34.6199 324.452 34.3591C324.299 34.1618 324.107 33.9988 323.887 33.8805C323.668 33.7622 323.426 33.6913 323.177 33.6724C322.648 33.588 322.106 33.6465 321.608 33.8419C321.126 33.9845 320.867 34.1896 320.823 34.4571C320.819 34.4957 320.819 34.5345 320.823 34.5731C320.827 34.6295 320.827 34.6861 320.823 34.7425L320.769 35.0903C320.758 35.3983 320.654 35.6959 320.471 35.944C320.288 36.1921 320.035 36.3794 319.744 36.4814C319.537 36.5742 319.309 36.6081 319.084 36.5794C318.834 36.5351 318.598 36.4311 318.397 36.2763C318.008 36.0814 317.692 35.7662 317.496 35.3774C317.3 34.9887 317.235 34.5472 317.309 34.1183C317.471 33.2619 317.94 32.4943 318.629 31.9603C319.457 31.2892 320.442 30.841 321.492 30.6584ZM318.995 55.359C318.842 55.1706 318.728 54.9538 318.659 54.7213C318.59 54.4887 318.568 54.2448 318.594 54.0036C318.628 53.7787 318.713 53.5644 318.841 53.3763C318.969 53.1881 319.137 53.0308 319.334 52.9157C319.739 52.6418 320.234 52.5362 320.716 52.6215C320.958 52.6577 321.193 52.7329 321.411 52.8444C321.666 53.0432 321.846 53.3233 321.92 53.638C322.052 53.9721 322.101 54.3331 322.062 54.6903C322.02 54.8764 321.939 55.0517 321.826 55.2052C321.712 55.3587 321.568 55.487 321.402 55.582C321.064 55.8417 320.659 55.9995 320.234 56.0368C320.113 56.0539 319.99 56.0539 319.869 56.0368C319.499 55.9348 319.185 55.6913 318.995 55.359Z" fill="#F48E9F"/>
</svg>
