<svg width="350" height="77" viewBox="0 0 350 77" fill="none" xmlns="http://www.w3.org/2000/svg">
<path d="M1.54915 72.7504C2.17344 72.4073 2.78648 72.0474 3.4164 71.7099L5.32302 70.7369C5.96418 70.4276 6.59972 70.107 7.24651 69.8089L9.20374 68.9484C10.5142 68.386 11.8303 67.8236 13.1407 67.3286C13.7987 67.0587 14.4736 66.8337 15.1429 66.5975C15.8122 66.3613 16.4871 66.1251 17.162 65.9001C19.8617 65.0002 22.5782 64.1453 25.3228 63.4029C28.0674 62.6605 30.8289 61.9744 33.6129 61.3613C36.3969 60.7483 39.1978 60.1915 42.0493 59.7584L44.1696 59.4491C44.8783 59.3535 45.5926 59.2804 46.3012 59.196L48.4215 58.9767C49.1358 58.9148 49.8557 58.8754 50.57 58.8192C53.4606 58.6222 56.3605 58.5996 59.2538 58.7517C59.9893 58.8047 60.7215 58.8967 61.4473 59.0273C62.1843 59.1538 62.9131 59.3247 63.6295 59.5391C65.1292 59.9633 66.5407 60.6528 67.797 61.575L67.842 61.6088C68.0011 61.7498 68.117 61.9329 68.1762 62.137C68.2355 62.3412 68.2357 62.5579 68.1769 62.7621C68.118 62.9664 68.0025 63.1497 67.8437 63.291C67.6849 63.4323 67.4893 63.5257 67.2796 63.5604C65.8792 63.701 64.5406 63.7854 63.1964 63.8529L62.1841 63.9147C61.8522 63.9147 61.5091 63.9147 61.1717 63.9485C60.5024 63.9878 59.8275 63.9935 59.1526 64.0103H58.1346H57.1166C56.4417 64.0103 55.7556 64.0553 55.075 64.0778L53.0278 64.1903L50.9806 64.3422L46.8749 64.7021L44.8164 64.9102L42.7973 65.2083C40.0527 65.5458 37.3081 65.8832 34.5747 66.3332C29.1023 67.1937 23.6637 68.3129 18.2925 69.7077C12.9137 71.0599 7.6149 72.7123 2.42091 74.657C2.17752 74.7595 1.90393 74.764 1.65732 74.6695C1.41071 74.575 1.21018 74.3888 1.09762 74.1499C0.985065 73.911 0.969203 73.6378 1.05335 73.3875C1.1375 73.1372 1.31514 72.9291 1.54915 72.8066V72.7504Z" fill="#FFD7C5" stroke="#043866" stroke-width="1.37" stroke-miterlimit="10"/>
<path d="M74.8553 58.4591C75.441 58.1278 76.0666 57.8727 76.7169 57.6998C77.3544 57.5386 78.0003 57.4128 78.6516 57.323C79.9426 57.1214 81.2485 57.0311 82.5549 57.053C83.8407 57.0984 85.1184 57.2756 86.3681 57.5817C87.6181 57.876 88.8152 58.3617 89.917 59.0215L89.9676 59.0552C90.2835 59.2495 90.5094 59.5611 90.5958 59.9216C90.6823 60.2822 90.6222 60.6624 90.4288 60.9787C90.3056 61.1753 90.136 61.3385 89.935 61.4542C89.734 61.57 89.5076 61.6346 89.2758 61.6424C86.897 61.6249 84.522 61.4483 82.1668 61.1137C81.0082 60.99 79.8552 60.8156 78.7023 60.7481C77.5341 60.7229 76.3682 60.6347 75.2096 60.4838C74.989 60.449 74.7846 60.3467 74.6245 60.1909C74.4645 60.0351 74.3567 59.8336 74.3159 59.614C74.2752 59.3944 74.3036 59.1675 74.3972 58.9647C74.4908 58.7619 74.6449 58.5931 74.8384 58.4816L74.8553 58.4591Z" fill="white" stroke="#043866" stroke-width="1.37" stroke-miterlimit="10"/>
<path d="M327.638 21.167C323.253 18.5492 318.697 16.2304 314 14.2267C309.303 12.1795 304.495 10.3628 299.624 8.75994C294.753 7.15703 289.815 5.75659 284.787 4.66549C279.789 3.52295 274.714 2.75033 269.602 2.35393C269.442 2.35393 269.289 2.29053 269.176 2.17767C269.063 2.06481 269 1.91174 269 1.75214C269 1.59253 269.063 1.43946 269.176 1.3266C269.289 1.21375 269.442 1.15034 269.602 1.15034H269.652L271.61 1.0941C272.268 1.0941 272.926 1.03223 273.578 1.05473C274.883 1.10535 276.199 1.12222 277.515 1.19534C278.831 1.26845 280.136 1.35844 281.452 1.47655C282.768 1.59466 284.062 1.74651 285.389 1.92086L289.287 2.48329C290.58 2.70263 291.863 2.96135 293.156 3.19756L297.014 4.0187C298.297 4.29992 299.568 4.63175 300.844 4.95795C303.387 5.62724 305.906 6.34151 308.437 7.12891C309.703 7.50573 310.94 7.96129 312.194 8.38874C313.448 8.81618 314.68 9.28299 315.923 9.7498C317.166 10.2166 318.392 10.7172 319.624 11.2177C320.863 11.7189 322.071 12.2955 323.24 12.9444C325.649 14.2266 327.824 15.9055 329.674 17.9106L330.04 18.3211C330.343 18.6575 330.515 19.0923 330.524 19.5454C330.532 19.9985 330.376 20.4393 330.085 20.7866C329.794 21.1339 329.387 21.3642 328.939 21.4352C328.492 21.5061 328.034 21.4129 327.65 21.1726L327.638 21.167Z" fill="#FFD7C5" stroke="#043866" stroke-width="1.06" stroke-miterlimit="10"/>
<path d="M347.256 23.5292C346.221 22.275 345.197 21.0152 344.078 19.8397L343.246 18.9511L342.38 18.0962C341.817 17.5338 341.198 16.9714 340.602 16.4089C338.17 14.2273 335.533 12.2854 332.728 10.6103C327.039 7.2728 320.882 4.80817 314.461 3.29884C314.345 3.24638 314.251 3.15639 314.193 3.0435C314.135 2.9306 314.117 2.80143 314.142 2.67697C314.166 2.55252 314.233 2.4401 314.329 2.35797C314.426 2.27584 314.548 2.22885 314.675 2.22461C315.507 2.34834 316.362 2.46645 317.172 2.60706C317.982 2.74766 318.82 2.93889 319.652 3.10761L320.889 3.37195L322.121 3.69254C322.942 3.90063 323.763 4.10873 324.568 4.38432C327.839 5.37847 331.01 6.67775 334.039 8.26504L336.288 9.52487C337.014 9.98606 337.756 10.4304 338.476 10.8972C339.196 11.364 339.905 11.8702 340.591 12.3876L341.62 13.1806C341.969 13.4393 342.306 13.7037 342.633 13.9905C343.296 14.5529 343.971 15.1154 344.595 15.6778C345.256 16.2774 345.876 16.9199 346.451 17.6013C347.625 18.8986 348.563 20.3908 349.224 22.0107L349.348 22.32C349.454 22.5921 349.459 22.893 349.364 23.169C349.269 23.445 349.078 23.678 348.827 23.8267C348.576 23.9753 348.28 24.0298 347.992 23.9805C347.704 23.9312 347.443 23.7812 347.256 23.5573V23.5292Z" fill="white" stroke="#043866" stroke-width="1.06" stroke-miterlimit="10"/>
<path d="M16.4292 20.4161C17.1325 20.2012 17.8557 20.0583 18.5878 19.9895C19.2986 19.907 20.0178 19.9329 20.7208 20.0663C22.7752 20.5618 24.5597 21.8299 25.7034 23.607C27.0877 25.5012 27.9285 27.7373 28.135 30.0742C28.3091 31.6371 28.0982 33.2188 27.5207 34.6815C27.0595 35.6621 26.462 36.5726 25.7461 37.3861C25.0387 38.2857 24.2251 39.0965 23.323 39.8006C22.5667 40.3486 21.7475 40.804 20.8829 41.1572C20.1514 41.5028 19.3719 41.7358 18.5707 41.8483C18.0363 41.926 17.491 41.8366 17.0094 41.5924C16.8216 41.4945 16.6615 41.351 16.5437 41.1751C16.426 40.9992 16.3543 40.7964 16.3354 40.5856C16.3197 40.3624 16.3517 40.1385 16.4292 39.9286C16.5414 38.9174 16.5155 37.8956 16.3524 36.8913C16.3183 36.5329 16.0993 34.417 15.6955 30.5435C15.5248 28.9224 15.3457 27.0454 15.1494 24.9295C14.9847 23.765 14.956 22.5854 15.0641 21.4143C15.1483 21.1739 15.2957 20.9606 15.4909 20.7969C15.6861 20.6333 15.9218 20.5253 16.1733 20.4843C16.2613 20.4732 16.3473 20.4502 16.4292 20.4161ZM20.4563 23.1036C19.942 22.9368 19.3987 22.8787 18.8608 22.933L18.0076 23.0098L18.6987 30.5776C19.1481 35.6285 19.4837 38.1881 19.7055 38.2564H19.842C20.4575 38.0874 21.0227 37.7711 21.4887 37.3349C22.2182 36.7713 22.8847 36.1306 23.4766 35.4238C24.1227 34.7191 24.6268 33.8964 24.9612 33.0007C25.2046 32.086 25.2684 31.1327 25.1489 30.1937C25.0026 28.5927 24.4538 27.0548 23.5534 25.7229C22.8452 24.5229 21.7501 23.5992 20.4478 23.1036H20.4563Z" fill="#F48E9F"/>
<path d="M35.8737 23.4876C36.1548 23.4216 36.4398 23.3731 36.7269 23.3426C37.7213 23.2864 38.7172 23.4196 39.6619 23.7351C40.5824 23.9806 41.4307 24.4429 42.1362 25.0831C42.7917 25.676 43.2975 26.4157 43.6122 27.2417C43.9563 28.4685 44.1567 29.7312 44.2094 31.0043C44.2947 32.412 44.3289 33.325 44.3118 33.7516C44.2619 34.3034 44.1473 34.8475 43.9705 35.3726C43.7391 36.1341 43.454 36.8783 43.1173 37.5995C42.9269 37.8725 42.8095 38.1897 42.7761 38.5209C42.7761 38.683 42.486 39.0328 41.8717 39.5789C41.3774 40.0397 40.837 40.4486 40.2591 40.7989C39.5912 41.1854 38.8445 41.4158 38.075 41.473C37.059 41.5538 36.0409 41.3437 35.14 40.8672C34.2059 40.3898 33.4275 39.6557 32.8961 38.7513C32.0389 37.2969 31.5416 35.6588 31.4457 33.9734C31.3983 33.1208 31.3983 32.2663 31.4457 31.4138C31.5604 29.9028 31.9147 28.4196 32.4951 27.0199C32.7889 26.1475 33.2562 25.3436 33.8687 24.6565C34.4261 24.1019 35.1165 23.6994 35.8737 23.4876ZM38.8599 26.798C38.3458 26.5519 37.7832 26.4237 37.2132 26.4226C36.9072 26.4437 36.6124 26.5468 36.3601 26.7212C36.0574 26.9281 35.804 27.199 35.6178 27.5147C35.4259 27.7411 35.2991 28.0153 35.2509 28.3082C35.1878 28.8104 35.0851 29.3068 34.9437 29.7927C34.7238 30.8645 34.6293 31.9583 34.6622 33.0519C34.6444 33.3361 34.6444 33.621 34.6622 33.9051C34.663 35.3227 35.2099 36.6856 36.1894 37.7104C36.413 37.8919 36.6715 38.0258 36.9488 38.1035C37.2262 38.1813 37.5165 38.2014 37.802 38.1626C38.1447 38.1585 38.4824 38.0798 38.7917 37.9322C39.1134 37.6877 39.4004 37.4007 39.6448 37.079C39.8788 36.8168 40.0847 36.5309 40.2591 36.2258C40.3738 36.0372 40.4682 35.837 40.5407 35.6286C40.5407 35.4835 40.6346 35.2361 40.7113 34.8863C40.7881 34.5365 40.8649 34.2123 40.9417 33.9222C41.1346 33.2636 41.2125 32.5767 41.1721 31.8916C41.1721 31.7977 41.1721 31.6271 41.1123 31.3967C41.0526 31.1664 41.0611 30.9787 41.0526 30.8251C40.9961 29.8448 40.7829 28.8798 40.4213 27.9669C40.0584 27.4021 39.504 26.9871 38.8599 26.798Z" fill="#F48E9F"/>
<path d="M55.8128 22.2326C56.2683 21.7629 56.87 21.462 57.5192 21.3794C58.0044 21.315 58.4975 21.4068 58.9271 21.6415C59.3566 21.8762 59.7002 22.2416 59.9081 22.6848C60.5547 24.3323 60.8903 26.0854 60.8978 27.8552C61.04 30.0962 61.0059 33.5744 60.7954 38.2897C60.7272 39.6975 60.2494 40.4398 59.3535 40.491C59.1376 40.5291 58.9158 40.5166 58.7056 40.4544C58.4953 40.3922 58.3024 40.2821 58.142 40.1326C57.8312 39.6534 57.6735 39.091 57.6898 38.5201C57.647 37.7272 57.647 36.9326 57.6898 36.1397C57.8413 33.255 57.8413 30.3644 57.6898 27.4798C57.6045 26.0805 57.485 25.3809 57.3314 25.3894C57.1779 25.398 56.3161 26.7375 55.0619 29.3824C53.8078 32.0273 52.7327 34.5613 51.8369 36.9758C51.5575 37.819 51.1974 38.6333 50.7618 39.4074C50.6719 39.5933 50.5378 39.7542 50.3712 39.8762C50.2046 39.9982 50.0106 40.0774 49.8063 40.107C49.6239 40.1151 49.4416 40.0891 49.2688 40.0302C48.9294 39.916 48.6246 39.7176 48.3829 39.4535C48.1411 39.1893 47.9704 38.8682 47.8866 38.5201C47.4874 36.8964 47.2643 35.2345 47.2211 33.563C47.1187 32.0017 47.0505 30.739 47.0163 29.7663C46.9139 26.8996 46.8798 25.0908 46.9395 24.323C46.93 23.7199 47.153 23.1363 47.5624 22.6934C47.7781 22.4915 48.0605 22.3761 48.3558 22.3691C48.7375 22.3454 49.1161 22.4506 49.4309 22.6678C49.5824 22.7599 49.7121 22.8839 49.8108 23.0313C49.9096 23.1786 49.975 23.3457 50.0025 23.5209C50.0537 24.3741 50.1134 25.8416 50.1732 28.0173C50.1732 29.5018 50.2499 30.355 50.267 30.5769C50.267 31.2935 50.395 31.6519 50.523 31.6434C50.6509 31.6348 51.0946 30.7219 51.8454 28.8961C53.2617 25.5117 54.5842 23.2906 55.8128 22.2326Z" fill="#F48E9F"/>
<path d="M77.126 16.543C77.1674 16.3853 77.2411 16.2378 77.3424 16.1101C77.4437 15.9823 77.5705 15.8769 77.7147 15.8007C78.0161 15.6142 78.3591 15.5057 78.7129 15.4851C79.0134 15.4683 79.3128 15.5314 79.5811 15.6677C79.8493 15.8041 80.0766 16.0089 80.2402 16.2615C80.3821 16.4321 80.4737 16.6389 80.5047 16.8587C80.4963 17.0691 80.4649 17.278 80.4108 17.4815C80.2822 18.1046 80.2192 18.7394 80.2231 19.3756V20.5274L81.3323 20.3653C81.5492 20.3259 81.7688 20.3031 81.9892 20.2971C82.3542 20.291 82.7099 20.4116 82.996 20.6383C83.1813 20.7691 83.3318 20.9432 83.4344 21.1454C83.537 21.3477 83.5886 21.5719 83.5847 21.7987C83.5968 22.0345 83.5708 22.2707 83.5079 22.4983C83.3202 22.9932 82.5694 23.3515 81.2469 23.5563L80.1378 23.761L80.0781 24.9128C79.86 28.2017 79.8258 31.5002 79.9757 34.7928C80.0233 35.6454 80.0233 36.4999 79.9757 37.3524C79.9467 37.6718 79.8115 37.9722 79.5917 38.2056C79.4784 38.3612 79.3328 38.4905 79.165 38.5847C78.9971 38.6789 78.8109 38.7359 78.6191 38.7517C78.2277 38.7439 77.8521 38.5955 77.5611 38.3336C77.326 38.1552 77.1529 37.9075 77.0663 37.6254C77.0066 37.3695 76.9212 36.6613 76.8189 35.4839V34.6819C76.762 33.2997 76.7392 31.4796 76.7506 29.2215C76.7506 26.969 76.8103 25.5186 76.8871 24.8787L76.9724 24.1791L75.9059 24.3839C75.0527 24.5204 74.4555 24.6398 73.9948 24.7337C73.8677 24.7965 73.7328 24.8424 73.5938 24.8702C73.2498 24.8523 72.9259 24.7026 72.6894 24.4521C72.5038 24.2778 72.3552 24.0678 72.2526 23.8347C72.1499 23.6016 72.0954 23.3502 72.0922 23.0955C72.0501 22.8685 72.069 22.6344 72.1469 22.4171C72.2249 22.1997 72.3591 22.007 72.5358 21.8584C73.2868 21.5496 74.0875 21.3791 74.8992 21.355C75.5923 21.3035 76.28 21.195 76.9554 21.0308C77.0829 20.359 77.1174 19.6729 77.0577 18.9917C77.0258 18.1749 77.0486 17.3568 77.126 16.543Z" fill="#F48E9F"/>
<path d="M116.647 19.3575C116.808 19.3084 116.974 19.2769 117.142 19.2637C117.617 19.2694 118.081 19.4043 118.486 19.6537C118.89 19.9032 119.219 20.258 119.437 20.68C120.205 21.8972 120.617 24.016 120.674 27.0363C120.674 27.6762 120.674 29.0157 120.597 31.0633C120.469 33.785 120.299 35.3293 120.077 35.7644C119.959 35.9786 119.79 36.1596 119.584 36.2909C119.378 36.4221 119.143 36.4993 118.899 36.5152C118.638 36.5169 118.382 36.4396 118.166 36.2934C117.875 36.1191 117.632 35.8759 117.457 35.5853C117.297 35.1695 117.224 34.7251 117.244 34.2799C117.244 34.0751 117.278 33.2219 117.346 31.7203C117.457 29.6385 117.5 27.8895 117.474 26.4561C117.429 24.3857 117.241 23.3021 116.911 23.2054C116.655 23.2054 116.22 23.8283 115.623 25.0654C115.026 26.3025 114.019 28.6061 112.62 31.9592C112.282 32.9177 111.83 33.8316 111.272 34.6809C110.964 35.143 110.501 35.4791 109.966 35.6279H109.796H109.659C109.334 35.6006 109.031 35.4548 108.806 35.2184C108.299 34.7751 107.957 34.174 107.833 33.512C107.646 32.7214 107.395 30.7789 107.083 27.6847C107.043 26.4178 106.866 25.1591 106.554 23.9306C106.528 23.9233 106.502 23.9233 106.477 23.9306C106.34 23.9306 106.042 24.3316 105.572 25.1336C104.711 26.7414 103.948 28.3996 103.286 30.0992C102.646 31.6491 102.138 33.2503 101.767 34.8856C101.743 35.5685 101.514 36.2284 101.11 36.7797C100.911 36.9765 100.674 37.1291 100.412 37.2276C100.15 37.3261 99.8706 37.3683 99.5915 37.3514C99.3807 37.3706 99.1683 37.3448 98.9682 37.2757C98.7682 37.2065 98.5851 37.0956 98.4312 36.9504C98.0844 36.4783 97.8615 35.9268 97.7827 35.3464C97.0456 32.101 96.6595 28.7858 96.6309 25.4579C96.5814 24.6282 96.5814 23.7962 96.6309 22.9665C96.6738 22.6308 96.7999 22.3111 96.9978 22.0366C97.1305 21.8649 97.3 21.7251 97.4939 21.6276C97.6878 21.5302 97.9011 21.4774 98.118 21.4733C98.335 21.4693 98.5501 21.5139 98.7475 21.604C98.945 21.6941 99.1197 21.8273 99.2588 21.9939C99.4708 22.2735 99.6088 22.6022 99.6598 22.9495C99.7505 23.8795 99.7932 24.8135 99.7877 25.7479C99.8304 27.8724 99.9157 28.9304 100.044 28.9304C100.453 28.3119 100.788 27.6476 101.042 26.9509C101.847 24.8753 102.947 22.9269 104.31 21.1663C104.604 20.7814 104.975 20.462 105.4 20.2284C105.824 19.9949 106.293 19.8523 106.775 19.8097H106.929C106.969 19.8164 107.009 19.8164 107.048 19.8097C107.536 19.8953 107.991 20.1097 108.368 20.4308C108.745 20.7518 109.028 21.1678 109.19 21.6355C109.798 23.4309 110.146 25.3043 110.222 27.1984L110.376 28.9986L110.777 28.0772C111.706 25.8059 112.792 23.6022 114.028 21.482C114.639 20.5014 115.561 19.7536 116.647 19.3575Z" fill="#F48E9F"/>
<path d="M124.357 15.8084C124.634 15.5339 125.001 15.3701 125.39 15.3477C125.81 15.368 126.208 15.543 126.508 15.8391C126.807 16.1352 126.986 16.5314 127.011 16.9517C126.971 17.4094 126.774 17.8392 126.454 18.1687C126.134 18.4982 125.71 18.7072 125.253 18.7604C124.969 18.7678 124.69 18.6906 124.45 18.5387C124.21 18.3868 124.02 18.167 123.905 17.9072C123.775 17.6724 123.707 17.4079 123.709 17.1394C123.718 16.8844 123.78 16.6342 123.892 16.4048C124.003 16.1755 124.162 15.9723 124.357 15.8084ZM124.989 20.4924C125.108 20.3705 125.252 20.2761 125.411 20.2156C125.57 20.1552 125.74 20.1303 125.91 20.1426C126.173 20.1295 126.435 20.1774 126.677 20.2825C126.918 20.3875 127.132 20.547 127.301 20.7484C127.542 21.2459 127.667 21.7912 127.668 22.3438C127.736 23.1458 127.819 25.1082 127.915 28.2309L128.146 35.2612L127.642 35.6793C127.381 35.9463 127.026 36.0996 126.653 36.1059C126.38 36.1047 126.114 36.0232 125.888 35.8714C125.662 35.7196 125.486 35.5043 125.381 35.2527C125.219 34.9967 125.057 32.531 124.878 27.8469C124.784 25.2874 124.741 23.5042 124.733 22.5827C124.637 21.8755 124.725 21.1556 124.989 20.4924Z" fill="#F48E9F"/>
<path d="M136.994 19.3319C137.701 19.04 138.457 18.8865 139.221 18.8797C139.654 18.8489 140.088 18.9118 140.494 19.0642C140.9 19.2166 141.268 19.4548 141.573 19.7627C141.879 20.0705 142.114 20.4406 142.263 20.8478C142.412 21.255 142.472 21.6896 142.438 22.1218C142.438 23.5211 142.037 24.3572 141.269 24.6046C141.096 24.6629 140.914 24.6889 140.731 24.6814C140.525 24.6844 140.321 24.6389 140.136 24.5485C139.951 24.458 139.789 24.3253 139.665 24.161C139.374 23.7796 139.227 23.3088 139.247 22.83C139.264 22.6165 139.238 22.4017 139.17 22.1986C139.119 22.1048 138.991 22.0621 138.786 22.0621C137.864 22.2681 137.009 22.7056 136.303 23.3334C135.134 24.1866 134.486 24.835 134.358 25.2701V25.3469L134.315 25.4237C134.315 25.5517 134.486 25.6541 134.819 25.7479C135.151 25.8418 136.141 26.0551 137.805 26.3963C138.913 26.5794 139.996 26.8945 141.03 27.3348C141.704 27.6699 142.323 28.1074 142.864 28.6317C143.405 29.1197 143.858 29.6968 144.204 30.3381C144.484 30.9947 144.613 31.7065 144.579 32.4199C144.604 32.9577 144.508 33.4943 144.298 33.9898C143.496 35.5028 141.675 36.4925 138.837 36.9589C138.304 37.0545 137.765 37.1172 137.225 37.1466C136.692 37.119 136.163 37.039 135.646 36.9077C133.65 36.4925 132.438 35.5255 132.012 34.0068C131.972 33.8302 131.949 33.6502 131.943 33.4693C131.938 33.2687 131.976 33.0692 132.055 32.885C132.135 32.7007 132.254 32.5361 132.404 32.4028C132.694 32.1291 133.08 31.9791 133.479 31.9848C133.784 31.9864 134.083 32.0736 134.34 32.2365C134.598 32.3994 134.805 32.6314 134.938 32.9062C135.263 33.3474 135.74 33.6516 136.278 33.7594C136.63 33.8428 136.991 33.8829 137.353 33.8788C138.277 33.9045 139.197 33.7419 140.057 33.4011C140.91 33.0342 141.354 32.6076 141.354 32.1213C141.354 31.4302 140.834 30.8159 139.784 30.2698C137.985 29.5573 136.096 29.1006 134.17 28.9133C133.654 28.8485 133.156 28.6779 132.708 28.4122C132.26 28.1465 131.872 27.7914 131.568 27.369C131.263 26.8542 131.12 26.2596 131.158 25.6626C131.141 24.9324 131.302 24.2091 131.628 23.5552C132.16 22.653 132.868 21.8668 133.709 21.243C134.703 20.4453 135.81 19.8011 136.994 19.3319Z" fill="#F48E9F"/>
<path d="M153.794 19.5031C154.507 19.2296 155.265 19.088 156.029 19.0851C156.456 19.074 156.882 19.1482 157.28 19.3035C157.679 19.4588 158.042 19.692 158.35 19.9895C158.648 20.3063 158.877 20.6812 159.024 21.0908C159.171 21.5003 159.232 21.9358 159.203 22.3699C159.203 23.7776 158.776 24.6052 158 24.8441C157.826 24.8989 157.644 24.922 157.462 24.9124C157.255 24.9114 157.051 24.8623 156.866 24.7691C156.681 24.6758 156.52 24.5409 156.396 24.3749C156.113 23.9907 155.974 23.5198 156.003 23.0439C156.021 22.8282 155.998 22.611 155.935 22.404C155.884 22.3187 155.756 22.2675 155.551 22.2675C154.625 22.4572 153.764 22.8834 153.051 23.5046C151.874 24.3578 151.217 24.9806 151.08 25.4072V25.484L151.038 25.5608C151.038 25.6888 151.2 25.7997 151.533 25.9021C151.865 26.0045 152.855 26.2263 154.519 26.5846C155.623 26.7859 156.699 27.1152 157.727 27.5658C158.397 27.9108 159.01 28.3568 159.544 28.8883C160.076 29.3778 160.521 29.955 160.858 30.5947C161.134 31.2492 161.25 31.9596 161.199 32.6679C161.222 33.2072 161.12 33.7445 160.901 34.2378C160.082 35.7394 158.247 36.7064 155.398 37.1387C154.863 37.2215 154.325 37.2757 153.785 37.3008C153.254 37.2665 152.728 37.1779 152.215 37.0363C150.23 36.5926 149.03 35.6114 148.615 34.0927C148.577 33.916 148.557 33.7359 148.555 33.5552C148.556 33.3644 148.598 33.1759 148.677 33.0024C148.757 32.8288 148.872 32.6741 149.016 32.5485C149.311 32.2796 149.7 32.1359 150.099 32.1475C150.404 32.1546 150.701 32.2471 150.956 32.4145C151.211 32.582 151.413 32.8175 151.541 33.0945C151.85 33.5538 152.323 33.8774 152.864 33.9989C153.215 34.0886 153.576 34.1344 153.939 34.1354C154.868 34.1541 155.791 33.9828 156.652 33.632C157.505 33.2737 157.957 32.8556 157.966 32.3693C157.966 31.6782 157.462 31.0554 156.421 30.4923C154.626 29.7585 152.736 29.2844 150.807 29.0845C150.295 29.0125 149.803 28.8351 149.362 28.5634C148.922 28.2918 148.542 27.9318 148.248 27.5061C147.956 26.9869 147.819 26.3944 147.855 25.7997C147.848 25.0693 148.021 24.3484 148.359 23.7008C148.904 22.8045 149.623 22.0269 150.475 21.4143C151.48 20.6154 152.598 19.9713 153.794 19.5031Z" fill="#F48E9F"/>
<path d="M179.892 16.2262C179.946 16.0737 180.031 15.9338 180.141 15.815C180.251 15.6962 180.384 15.601 180.532 15.5352C180.857 15.3748 181.218 15.2985 181.581 15.3133C181.882 15.3253 182.174 15.4138 182.431 15.5706C182.688 15.7274 182.9 15.9472 183.048 16.2092C183.173 16.3971 183.244 16.6154 183.253 16.8405C183.229 17.0475 183.18 17.2508 183.108 17.4463C182.93 18.0556 182.815 18.6818 182.767 19.3148L182.647 20.4666L183.765 20.3898C183.984 20.3721 184.203 20.3721 184.422 20.3898C184.787 20.4152 185.132 20.5624 185.403 20.8079C185.574 20.9569 185.708 21.1445 185.792 21.3551C185.877 21.5657 185.91 21.7934 185.89 22.0194C185.882 22.2529 185.836 22.4836 185.753 22.702C185.523 23.1798 184.746 23.4699 183.415 23.5552L182.289 23.6661L182.136 24.8691C181.644 28.1283 181.337 31.4126 181.214 34.7064C181.157 36.117 181.097 36.9702 181.035 37.266C180.982 37.5922 180.823 37.892 180.583 38.1192C180.453 38.2621 180.295 38.3768 180.119 38.456C179.943 38.5353 179.752 38.5775 179.559 38.5799C179.171 38.5383 178.811 38.3598 178.544 38.0765C178.319 37.8828 178.169 37.6176 178.117 37.3257C178.054 36.6109 178.028 35.8932 178.04 35.1757V34.3651C178.091 32.9915 178.219 31.1742 178.424 28.9303C178.629 26.6864 178.791 25.2445 178.919 24.6046L179.064 23.9221L177.98 24.033C177.127 24.1012 176.513 24.1695 176.052 24.2207C175.911 24.2403 175.767 24.2403 175.626 24.2207C175.287 24.1736 174.981 23.996 174.772 23.7258C174.602 23.537 174.471 23.3158 174.388 23.0755C174.304 22.8351 174.27 22.5805 174.286 22.3266C174.264 22.0971 174.303 21.8659 174.399 21.6562C174.495 21.4466 174.644 21.2658 174.832 21.1321C175.606 20.8867 176.419 20.7826 177.23 20.825C177.926 20.8275 178.622 20.779 179.311 20.6799C179.491 20.0179 179.582 19.3352 179.584 18.6493C179.629 17.8353 179.731 17.0256 179.892 16.2262Z" fill="#F48E9F"/>
<path d="M190.063 14.3578C190.171 14.2438 190.305 14.1573 190.453 14.1054C190.602 14.0534 190.76 14.0376 190.916 14.0592C191.134 14.0595 191.348 14.1096 191.544 14.2057C191.739 14.3019 191.909 14.4414 192.042 14.6137C192.309 15.1435 192.452 15.727 192.46 16.3201C192.537 17.1733 192.682 19.8182 192.895 24.1866C193.1 27.6335 193.217 29.3683 193.245 29.391L193.672 28.5379C194.11 27.3784 194.729 26.2957 195.506 25.3298C195.741 25.0397 196.039 24.8073 196.378 24.6505C196.717 24.4937 197.087 24.4167 197.46 24.4255C197.898 24.4491 198.32 24.5942 198.681 24.8443C199.041 25.0944 199.324 25.4398 199.499 25.8418C200.067 26.9383 200.428 28.1298 200.566 29.3569C200.788 30.8244 200.967 33.1963 201.103 36.4555L201.257 40.1583L200.702 40.5849C200.447 40.8284 200.108 40.963 199.755 40.9604C199.478 40.9427 199.214 40.8348 199.004 40.6532C198.674 40.3865 198.455 40.0062 198.39 39.5867C198.236 38.4352 198.147 37.2758 198.126 36.1142C197.878 30.8927 197.58 28.2819 197.221 28.2563C196.863 28.2307 196.317 29.6214 195.515 32.4028C194.889 34.3127 194.404 36.2661 194.064 38.2472C194.019 38.6884 193.857 39.1096 193.595 39.4673C193.395 39.8267 193.075 40.1045 192.691 40.2522C192.528 40.3019 192.357 40.3193 192.187 40.3034C191.956 40.3017 191.729 40.2423 191.526 40.1305C191.323 40.0188 191.152 39.8583 191.027 39.6635C190.803 39.2044 190.691 38.6983 190.703 38.1875C190.626 37.3343 190.489 35.1416 190.293 31.5155C190.293 31.4131 190.225 29.9627 190.08 27.1557C189.935 24.3487 189.824 22.3437 189.756 21.1065C189.577 18.1801 189.508 16.2348 189.56 15.2963V15.1001C189.691 14.8297 189.86 14.5797 190.063 14.3578Z" fill="#F48E9F"/>
<path d="M206.445 18.0448C206.745 17.7693 207.138 17.617 207.546 17.6182C207.963 17.6665 208.348 17.8674 208.627 18.1824C208.906 18.4973 209.058 18.904 209.056 19.3246C208.991 19.7831 208.767 20.2045 208.425 20.5161C208.082 20.8276 207.641 21.0097 207.179 21.0309C206.883 21.0248 206.596 20.9283 206.357 20.7545C206.117 20.5806 205.937 20.3377 205.839 20.0583C205.726 19.816 205.676 19.5488 205.694 19.2819C205.726 19.0348 205.81 18.7972 205.939 18.5842C206.068 18.3711 206.241 18.1874 206.445 18.0448ZM206.769 22.7544C206.897 22.6416 207.048 22.5574 207.211 22.5074C207.375 22.4573 207.547 22.4427 207.716 22.4643C207.978 22.4702 208.235 22.5364 208.468 22.6577C208.7 22.7791 208.901 22.9523 209.056 23.1639C209.264 23.6748 209.354 24.2259 209.32 24.7765C209.32 25.5842 209.272 27.5493 209.175 30.672L208.936 37.6682L208.407 38.0607C208.127 38.3105 207.759 38.4392 207.383 38.419C207.11 38.395 206.85 38.2918 206.635 38.122C206.42 37.9523 206.259 37.7234 206.172 37.4635C206.035 37.2018 206.035 34.7275 206.172 30.0407C206.249 27.4811 206.317 25.6979 206.377 24.785C206.335 24.0776 206.47 23.371 206.769 22.7288V22.7544Z" fill="#F48E9F"/>
<path d="M218.798 22.3609C219.526 22.1234 220.293 22.0222 221.058 22.0622C221.488 22.0621 221.913 22.1538 222.304 22.3312C222.695 22.5085 223.043 22.7675 223.326 23.0908C223.609 23.414 223.82 23.7939 223.943 24.2052C224.067 24.6164 224.102 25.0494 224.045 25.475C223.942 26.8743 223.499 27.6763 222.714 27.881C222.536 27.9145 222.354 27.9145 222.176 27.881C221.97 27.8723 221.768 27.8143 221.589 27.7119C221.409 27.6095 221.257 27.4656 221.144 27.2923C220.875 26.894 220.757 26.4131 220.811 25.9358C220.853 25.7274 220.853 25.5128 220.811 25.3044C220.76 25.2105 220.64 25.1593 220.436 25.1423C219.5 25.2826 218.618 25.665 217.876 26.2514C216.647 27.0193 215.956 27.6165 215.803 28.0431C215.803 28.0431 215.803 28.0943 215.803 28.1199L215.76 28.1967C215.76 28.3247 215.905 28.4441 216.238 28.5551C216.571 28.666 217.543 28.9475 219.173 29.4082C220.267 29.6678 221.326 30.0544 222.33 30.5601C222.965 30.943 223.54 31.4173 224.036 31.9678C224.536 32.4971 224.946 33.1054 225.248 33.7681C225.501 34.4697 225.574 35.2235 225.461 35.9608C225.447 36.4991 225.319 37.0283 225.086 37.5136C224.181 38.964 222.296 39.8172 219.429 40.0732C218.891 40.1392 218.349 40.1648 217.808 40.15C217.28 40.0895 216.76 39.9751 216.255 39.8087C214.293 39.2399 213.155 38.1961 212.842 36.6775C212.812 36.4999 212.798 36.32 212.8 36.1399C212.81 35.9383 212.864 35.7412 212.956 35.5617C213.049 35.3822 213.179 35.2245 213.337 35.0991C213.645 34.8451 214.04 34.7225 214.438 34.7578C214.742 34.781 215.034 34.8893 215.28 35.0703C215.526 35.2513 215.716 35.4978 215.828 35.7816C216.114 36.2585 216.572 36.6069 217.108 36.7542C217.452 36.8586 217.807 36.9217 218.166 36.942C219.094 37.0128 220.027 36.8908 220.905 36.5836C221.758 36.2765 222.253 35.8755 222.287 35.3891C222.33 34.6981 221.852 34.0496 220.845 33.4439C219.091 32.6125 217.226 32.0378 215.308 31.7375C214.796 31.6421 214.309 31.4412 213.878 31.1474C213.448 30.8536 213.084 30.4734 212.808 30.0311C212.538 29.4875 212.434 28.876 212.51 28.2735C212.543 27.5427 212.753 26.8311 213.124 26.2002C213.718 25.3266 214.485 24.5834 215.376 24.0161C216.428 23.298 217.581 22.7402 218.798 22.3609Z" fill="#F48E9F"/>
<path d="M244.096 23.2489C244.4 23.1738 244.714 23.1507 245.026 23.1807C245.895 23.2837 246.699 23.6918 247.295 24.3325C248.059 25.1316 248.641 26.0862 249.002 27.1309C249.23 27.6448 249.374 28.1922 249.428 28.752C249.428 28.9568 249.189 29.2469 248.771 29.6052C248.353 29.9635 248.038 30.1683 247.833 30.1512C247.27 30.1001 246.681 29.3663 246.067 27.9415C245.632 26.875 245.214 26.3289 244.83 26.2863C244.446 26.2436 244.113 26.5593 243.593 27.1395C242.224 28.9464 241.454 31.136 241.391 33.4019C241.354 33.7447 241.337 34.0894 241.34 34.4343C241.271 35.4366 241.372 36.4432 241.639 37.4119C241.715 37.6748 241.869 37.9083 242.081 38.0819C242.293 38.2555 242.552 38.361 242.825 38.3846C243.985 38.3302 245.11 37.968 246.084 37.3351C246.598 36.9952 247.18 36.7737 247.79 36.6867C247.893 36.6913 247.994 36.7144 248.089 36.755C248.288 36.8211 248.468 36.9327 248.616 37.0808C248.764 37.2289 248.876 37.4094 248.942 37.6082C249.046 37.8151 249.105 38.0421 249.113 38.2736C249.064 38.4911 248.968 38.695 248.831 38.8709C248.353 39.6217 247.145 40.3327 245.205 41.0039C244.369 41.3162 243.476 41.4443 242.586 41.3793C241.591 41.3005 240.659 40.8605 239.966 40.1421C239.198 39.3088 238.686 38.2722 238.49 37.156C238.312 35.851 238.312 34.5277 238.49 33.2227C238.614 31.3764 239.023 29.5603 239.702 27.8391C240.284 26.4739 241.182 25.2663 242.321 24.3154C242.827 23.8338 243.433 23.4697 244.096 23.2489Z" fill="#F48E9F"/>
<path d="M254.71 19.0759C254.824 18.9722 254.96 18.8954 255.108 18.8512C255.256 18.8069 255.411 18.7962 255.564 18.8199C255.78 18.8336 255.991 18.8959 256.18 19.0023C256.369 19.1086 256.532 19.2563 256.656 19.4342C256.881 19.9742 256.988 20.5559 256.971 21.1406C257.014 21.9938 257.023 24.6472 256.971 29.0241C256.971 32.4369 257.014 34.2115 257.04 34.2371L257.509 33.3839C258.039 32.2609 258.742 31.2275 259.591 30.321C259.841 30.0451 260.151 29.8296 260.497 29.6907C260.843 29.5518 261.215 29.4931 261.587 29.519C262.023 29.5644 262.438 29.7306 262.785 29.9989C263.131 30.2672 263.396 30.627 263.549 31.0377C264.046 32.1654 264.335 33.3736 264.403 34.604C264.539 36.0886 264.599 38.4604 264.565 41.7282L264.522 45.431L263.942 45.832C263.714 46.0551 263.408 46.18 263.089 46.18C262.77 46.18 262.464 46.0551 262.236 45.832C261.923 45.5446 261.726 45.1534 261.681 44.7314C261.592 43.5734 261.563 42.4114 261.596 41.2504C261.63 36.0288 261.468 33.3982 261.109 33.3584C260.751 33.3185 260.108 34.6694 259.181 37.411C258.451 39.2837 257.864 41.2089 257.424 43.1701C257.357 43.6082 257.174 44.0205 256.895 44.3645C256.675 44.713 256.34 44.9728 255.948 45.0983C255.782 45.1366 255.61 45.1366 255.444 45.0983C255.213 45.0862 254.988 45.0157 254.791 44.8934C254.594 44.771 254.431 44.6009 254.318 44.3987C254.117 43.9279 254.032 43.4159 254.07 42.9056C254.07 42.0524 254.019 39.8512 254.011 36.2251C254.011 36.1227 254.011 34.6723 254.011 31.8653C254.011 29.0583 254.011 27.0362 254.011 25.7991C254.011 22.8641 254.048 20.9273 254.122 19.9888V19.7926C254.283 19.527 254.481 19.2857 254.71 19.0759Z" fill="#F48E9F"/>
<path d="M275.074 29.6389C275.485 29.5878 275.901 29.5878 276.312 29.6389C276.951 29.7202 277.562 29.9511 278.095 30.313C278.561 30.6601 279.101 30.8938 279.673 30.9955C279.888 31.0186 280.096 31.0868 280.282 31.1955C280.469 31.3043 280.631 31.4513 280.757 31.6269C280.925 31.8275 281.036 32.0688 281.081 32.3265C281.11 32.7883 281.087 33.2519 281.013 33.7087C280.791 35.6721 280.669 37.6455 280.646 39.6213C280.572 41.0749 280.641 42.5323 280.851 43.9726C280.888 44.1383 280.888 44.3102 280.851 44.476C280.828 44.6739 280.761 44.8642 280.655 45.0326C280.548 45.201 280.405 45.3432 280.236 45.4486C279.91 45.6753 279.515 45.7809 279.119 45.7472C278.96 45.7221 278.809 45.6639 278.675 45.5766C278.313 45.2745 278.056 44.8652 277.941 44.4077C277.733 43.7709 277.621 43.1067 277.608 42.4368C277.608 41.7628 277.549 41.4215 277.429 41.4045C277.31 41.3874 276.934 41.7457 276.329 42.4795C275.673 43.2701 274.874 43.9301 273.974 44.4248C273.204 44.7891 272.344 44.9224 271.5 44.8087L271.005 44.749C270.482 44.533 270.028 44.1791 269.691 43.7252C269.238 43.2568 268.895 42.6946 268.684 42.0785C268.336 40.7833 268.247 39.4324 268.42 38.1026C268.478 37.5919 268.578 37.0869 268.718 36.5925C269.231 34.8507 270.139 33.2507 271.372 31.917C272.293 30.7381 273.607 29.9296 275.074 29.6389ZM276.653 32.9579C276.47 32.8042 276.258 32.6883 276.03 32.6166C275.799 32.6255 275.571 32.6746 275.356 32.7616C274.296 33.1701 273.397 33.9129 272.796 34.8775C272.025 35.9253 271.535 37.153 271.372 38.4439C271.308 39.028 271.308 39.6174 271.372 40.2015C271.379 40.6463 271.478 41.0848 271.662 41.4898C271.698 41.5659 271.753 41.6315 271.822 41.6807C271.891 41.7299 271.97 41.7611 272.054 41.7713C272.686 41.8481 273.581 41.1741 274.725 39.7663C275.621 38.5715 276.326 37.2445 276.815 35.8331C277.037 35.2809 277.208 34.7098 277.327 34.1267C277.339 33.8877 277.281 33.6504 277.162 33.4431C277.042 33.2358 276.866 33.0674 276.653 32.9579Z" fill="#F48E9F"/>
<path d="M295.04 30.6632C295.581 30.2951 296.23 30.1207 296.883 30.1683C297.365 30.1994 297.826 30.3805 298.201 30.6865C298.576 30.9924 298.846 31.4079 298.973 31.8747C299.302 33.614 299.302 35.3997 298.973 37.1389C298.683 39.3743 297.977 42.7871 296.857 47.3772C296.524 48.7594 295.91 49.3822 295.023 49.2713C294.802 49.2635 294.586 49.2057 294.391 49.1022C294.196 48.9988 294.027 48.8524 293.896 48.6741C293.678 48.1323 293.633 47.536 293.768 46.9677C293.883 46.1812 294.037 45.401 294.229 44.63C294.931 41.8167 295.487 38.9689 295.893 36.098C296.072 34.7073 296.089 33.9992 295.935 33.9736C295.782 33.948 294.69 35.0998 292.941 37.4546C291.192 39.8094 289.656 42.0874 288.308 44.2801C287.867 45.0513 287.359 45.7822 286.789 46.4643C286.663 46.6272 286.5 46.7573 286.312 46.8435C286.125 46.9296 285.92 46.9693 285.714 46.9592C285.53 46.9326 285.353 46.8687 285.194 46.7715C284.879 46.5877 284.617 46.325 284.435 46.0093C284.252 45.6936 284.155 45.3359 284.153 44.9712C284.079 43.3013 284.182 41.6283 284.46 39.98C284.665 38.4329 284.844 37.1787 284.998 36.2175C285.441 33.3849 285.774 31.6017 285.97 30.8679C286.094 30.3062 286.423 29.8106 286.892 29.4772C287.145 29.3165 287.45 29.2585 287.745 29.3151C288.124 29.3637 288.475 29.538 288.743 29.81C288.877 29.9314 288.982 30.0807 289.051 30.2473C289.12 30.4139 289.152 30.5938 289.144 30.7741C289.033 31.5846 288.803 33.0692 288.436 35.2107C288.197 36.6782 288.06 37.5229 288.026 37.7703C287.933 38.4784 287.95 38.8453 288.078 38.8624C288.206 38.8794 288.811 38.0689 289.912 36.4308C291.88 33.382 293.589 31.4595 295.04 30.6632Z" fill="#F48E9F"/>
<path d="M307.608 30.7047C307.918 30.6531 308.235 30.6531 308.546 30.7047C309.416 30.8396 310.209 31.2815 310.781 31.9503C311.497 32.7895 312.024 33.7731 312.326 34.8341C312.522 35.3596 312.637 35.912 312.667 36.4723C312.667 36.677 312.402 36.9586 311.959 37.3255C311.515 37.6923 311.199 37.8544 311.003 37.8288C310.44 37.7521 309.894 36.9757 309.348 35.5338C308.964 34.4417 308.58 33.8274 308.205 33.8274C307.829 33.8274 307.471 34.0577 306.916 34.6806C305.487 36.3922 304.615 38.4999 304.417 40.7212C304.362 41.0632 304.325 41.4077 304.306 41.7535C304.186 42.7504 304.238 43.7604 304.459 44.7397C304.521 45.0078 304.662 45.2509 304.865 45.4368C305.067 45.6227 305.322 45.7426 305.594 45.7806C306.75 45.7906 307.889 45.4964 308.896 44.9274C309.429 44.6105 310.027 44.418 310.645 44.3643C310.749 44.3724 310.851 44.4014 310.943 44.4496C311.139 44.531 311.313 44.6564 311.453 44.8163C311.592 44.9762 311.692 45.166 311.745 45.3711C311.829 45.5889 311.873 45.8202 311.873 46.0536C311.812 46.268 311.705 46.4661 311.558 46.6338C311.037 47.359 309.8 48.0075 307.829 48.5706C306.979 48.8425 306.079 48.924 305.193 48.8095C304.201 48.6797 303.29 48.1911 302.633 47.4358C301.911 46.5612 301.452 45.4987 301.311 44.3728C301.209 43.0606 301.283 41.7405 301.533 40.4482C301.75 38.6103 302.251 36.8173 303.017 35.1328C303.66 33.7855 304.621 32.6143 305.816 31.72C306.327 31.2482 306.94 30.9008 307.608 30.7047Z" fill="#F48E9F"/>
<path d="M319.671 34.6301C320.21 34.1824 320.834 33.8499 321.507 33.6532C322.179 33.4566 322.884 33.3999 323.579 33.4868C324.188 33.5827 324.769 33.8066 325.285 34.1437C325.959 34.5305 326.521 35.0863 326.915 35.7563C327.319 36.5329 327.577 37.3775 327.674 38.2476C327.733 38.6064 327.733 38.9724 327.674 39.3312C327.553 39.9825 327.294 40.6003 326.914 41.1432C326.534 41.6862 326.043 42.1418 325.473 42.4795C324.163 43.3577 322.613 43.8079 321.036 43.7678C320.546 43.7816 320.056 43.7588 319.569 43.6995C319.417 43.6819 319.268 43.6446 319.125 43.5886L318.426 43.3241L318.161 45.0305C317.974 45.8932 317.994 46.788 318.221 47.6413C318.262 47.9495 318.38 48.2426 318.562 48.4945C318.79 48.6552 319.049 48.7683 319.321 48.8272H319.629C320.51 48.842 321.385 48.6614 322.188 48.2982C323.016 47.9378 323.905 47.7352 324.807 47.701C324.961 47.7237 325.108 47.7807 325.236 47.8679C325.365 47.955 325.472 48.0701 325.55 48.2044C325.661 48.3466 325.742 48.5101 325.787 48.6847C325.833 48.8593 325.842 49.0414 325.814 49.2197C325.686 50.0729 324.56 50.7554 322.401 51.4124C321.806 51.5962 321.199 51.7416 320.584 51.8475C320.029 51.8676 319.474 51.8247 318.929 51.7195C318.425 51.6601 317.928 51.5515 317.444 51.3953C317.123 51.2262 316.834 51.0008 316.591 50.7298C316.022 50.1382 315.604 49.4183 315.371 48.631C315.158 48.1273 315.017 47.5958 314.953 47.0526C314.97 46.2435 315.044 45.4366 315.175 44.638L315.32 43.7251C315.963 39.3056 317.413 36.2739 319.671 34.6301ZM323.98 36.8996C323.75 36.6642 323.451 36.5086 323.127 36.4559C322.664 36.4106 322.198 36.5121 321.796 36.746C321.252 37.1634 320.774 37.6611 320.379 38.222C319.948 38.7187 319.626 39.2999 319.432 39.9284L319.287 40.5683L320.507 40.7219C321.204 40.7938 321.909 40.7447 322.589 40.5768C323.1 40.3869 323.576 40.113 323.997 39.7663C324.441 39.408 324.688 39.1093 324.722 38.8534C324.756 38.5011 324.7 38.146 324.56 37.821C324.434 37.4764 324.236 37.1624 323.98 36.8996Z" fill="#F48E9F"/>
<path d="M328.536 51.9073C328.583 51.6792 328.675 51.4629 328.807 51.271C328.939 51.0791 329.108 50.9154 329.304 50.7896C329.504 50.6362 329.734 50.5254 329.979 50.4638C330.224 50.4022 330.479 50.3911 330.728 50.4312C330.948 50.4659 331.158 50.545 331.346 50.6639C331.534 50.7827 331.695 50.9387 331.82 51.1223C331.958 51.3204 332.054 51.5442 332.102 51.7803C332.15 52.0164 332.15 52.2599 332.102 52.496C332.068 52.7383 331.986 52.9712 331.86 53.1808C331.734 53.3905 331.566 53.5725 331.368 53.716C331.182 53.8539 330.969 53.9522 330.743 54.005C330.517 54.0578 330.283 54.064 330.054 54.0232C329.8 53.9824 329.558 53.8844 329.346 53.7367C329.135 53.5889 328.96 53.3951 328.834 53.17C328.577 52.8029 328.47 52.3509 328.536 51.9073ZM333.092 30.475C333.168 30.4575 333.246 30.4575 333.322 30.475C333.62 30.5272 333.9 30.6539 334.136 30.8434C334.371 31.0329 334.555 31.2789 334.67 31.5586C334.795 31.8885 334.659 33.2536 334.261 35.6539L333.527 40.1247L332.162 48.1532L331.599 48.486C331.291 48.7033 330.916 48.806 330.541 48.776C330.155 48.701 329.815 48.4772 329.594 48.1532L329.107 47.5645L330.498 39.3738C331.163 35.3297 331.579 32.9322 331.744 32.1814C331.791 31.6871 331.984 31.2179 332.298 30.8334C332.537 30.664 332.807 30.5424 333.092 30.475Z" fill="#F48E9F"/>
</svg>
