<svg width="956" height="150" viewBox="0 0 956 150" fill="none" xmlns="http://www.w3.org/2000/svg">
<g clip-path="url(#clip0_301_3708)">
<g clip-path="url(#clip1_301_3708)">
<path d="M37.5272 46.9944C38.3463 46.5836 39.1998 46.2452 40.0778 45.9829C40.8414 45.9706 41.6051 46.0049 42.3645 46.0855C43.8328 46.1012 45.26 46.5722 46.4494 47.4333C47.6387 48.2945 48.5316 49.5035 49.0048 50.8935C49.1035 51.1425 49.1676 51.4039 49.1953 51.6704C49.3637 52.375 49.2478 53.1175 48.8729 53.7372C48.6988 53.9991 48.472 54.2217 48.207 54.3908C47.942 54.56 47.6445 54.6719 47.3337 54.7194C46.7521 54.7984 46.1605 54.6887 45.646 54.4063C45.1314 54.124 44.7211 53.6839 44.4753 53.1509C44.107 52.4739 43.6089 51.8762 43.0095 51.3919C42.4837 51.1272 41.8804 51.0596 41.3091 51.2013C40.0895 51.4307 38.9372 51.9317 37.9376 52.6672C36.788 53.4553 35.794 54.4492 35.006 55.5989C33.4082 58.0908 32.7046 59.9964 32.9245 61.345C32.9439 61.6895 33.0743 62.0185 33.2963 62.2827C33.5182 62.547 33.8198 62.7322 34.1558 62.8108C35.8198 63.0272 37.5049 63.0272 39.169 62.8108C46.6448 62.2343 51.9756 63.1431 55.1613 65.5373C56.1291 66.2377 56.9441 67.1279 57.5565 68.1536C58.1689 69.1793 58.5659 70.3191 58.7233 71.5033C58.9893 73.2344 58.8851 75.0022 58.4177 76.6901C57.9502 78.3779 57.1301 79.9475 56.0115 81.2951C54.729 83.2039 53.082 84.8404 51.1651 86.1107C49.2483 87.3811 47.0994 88.2602 44.8418 88.6977C42.8275 89.045 40.76 88.9196 38.8025 88.3312C37.1185 87.8544 35.6459 86.821 34.6248 85.3995C34.092 84.7031 33.735 83.8886 33.5841 83.0248C33.4302 82.3579 33.5461 81.6571 33.9066 81.0753C34.0871 80.8048 34.3253 80.5778 34.6041 80.4105C34.883 80.2432 35.1954 80.1398 35.519 80.1078C36.5597 79.9466 37.6152 80.5769 38.6852 82.0134C39.2663 82.7511 40.0508 83.3025 40.9417 83.5994C41.8326 83.8964 42.7909 83.926 43.6984 83.6845C44.8166 83.525 45.901 83.1833 46.9086 82.673C48.0395 81.9962 49.0874 81.1894 50.0309 80.269C52.4642 77.9139 53.7297 75.637 53.8274 73.4382C53.8508 73.0868 53.8508 72.7342 53.8274 72.3828C53.2411 68.6889 48.7018 67.1888 40.2097 67.8827C38.118 68.1266 36.0097 68.1952 33.9066 68.0879C32.6739 67.9026 31.5113 67.3972 30.5351 66.622C29.8184 66.175 29.209 65.5754 28.7504 64.866C28.2918 64.1566 27.9953 63.3548 27.8819 62.5177C27.3542 59.2635 28.5025 55.7357 31.3267 51.9342C32.9145 49.7627 35.0558 48.0568 37.5272 46.9944Z" fill="#F48E9F"/>
<path d="M60.878 43.9745C61.0214 43.7416 61.2189 43.5466 61.4536 43.4063C61.6884 43.2659 61.9536 43.1843 62.2266 43.1683C62.5942 43.0993 62.9727 43.1149 63.3333 43.2139C63.694 43.313 64.0274 43.4929 64.3081 43.74C64.9291 44.5473 65.36 45.4842 65.5687 46.4811C66.0085 47.9469 67.1225 52.3445 68.9402 59.6737C70.4354 65.4003 71.2074 68.288 71.2562 68.3369L71.696 66.7391C72.0519 64.595 72.7602 62.5247 73.7921 60.6118C74.0841 60.0514 74.4998 59.5649 75.0078 59.189C75.5157 58.8131 76.1026 58.5578 76.7238 58.4424C77.4633 58.3328 78.2186 58.4295 78.9066 58.7218C79.5945 59.014 80.1885 59.4906 80.623 60.0988C81.9256 61.7652 82.9185 63.6518 83.5547 65.669C84.4244 68.073 85.5189 71.9819 86.8382 77.3958L88.304 83.5817L87.4978 84.4905C87.1492 84.984 86.6245 85.3251 86.032 85.4433C85.5549 85.4964 85.0731 85.399 84.6541 85.1648C83.9792 84.8391 83.4547 84.2673 83.1882 83.567C82.5409 81.6792 82.0025 79.7558 81.5758 77.8062C79.4259 69.0991 78.048 64.7895 77.4421 64.8775C76.8704 64.9654 76.372 67.472 75.9763 72.4266C75.5554 75.8543 75.3888 79.3085 75.4779 82.7608C75.6234 83.543 75.5472 84.3503 75.258 85.0915C75.0383 85.7593 74.5925 86.3296 73.9974 86.7039C73.7405 86.8472 73.4552 86.9322 73.1618 86.9531C72.7715 87.0278 72.3686 87.0039 71.9898 86.8836C71.611 86.7633 71.2682 86.5504 70.9924 86.2641C70.4649 85.5646 70.1085 84.7514 69.9516 83.8895C69.551 82.5214 68.5737 78.8177 67.0199 72.7784C67.0199 72.6025 66.3896 70.1838 65.1876 65.4491C63.9856 60.7145 63.1501 57.4163 62.6371 55.3641C61.3471 50.478 60.5849 47.2336 60.3503 45.6309V45.2938C60.4653 44.832 60.6428 44.3881 60.878 43.9745Z" fill="#F48E9F"/>
<path d="M99.2685 52.9308C99.9328 52.6696 100.627 52.4923 101.335 52.4031C102.429 52.2666 103.539 52.3922 104.575 52.7696C105.502 53.1542 106.505 53.3197 107.507 53.2533C107.875 53.1985 108.251 53.2224 108.61 53.3234C108.969 53.4245 109.302 53.6004 109.588 53.8396C109.951 54.1037 110.238 54.4572 110.424 54.8657C110.654 55.6151 110.806 56.3864 110.878 57.1671C111.333 60.5292 111.959 63.8659 112.754 67.1642C113.248 69.617 113.975 72.0171 114.924 74.3322C115.067 74.5891 115.152 74.8743 115.173 75.1677C115.218 75.5066 115.186 75.8513 115.08 76.1762C114.973 76.5011 114.794 76.7977 114.557 77.044C114.112 77.5665 113.492 77.9101 112.813 78.0114C112.54 78.0418 112.263 78.0066 112.007 77.9088C111.276 77.5628 110.676 76.9928 110.292 76.2817C109.699 75.3122 109.255 74.2599 108.972 73.1595C108.699 72.0454 108.45 71.5031 108.225 71.5324C108 71.5617 107.546 72.3093 106.862 73.7751C106.105 75.3679 105.05 76.8009 103.754 77.9968C102.629 78.9446 101.245 79.532 99.7815 79.6825L98.9313 79.7998C97.9738 79.6537 97.0729 79.2538 96.3221 78.6418C95.3743 78.0532 94.5684 77.2623 93.9621 76.3257C92.8271 74.3196 92.1044 72.1068 91.8367 69.8174C91.7213 68.9428 91.6723 68.0608 91.6901 67.1788C91.8067 64.0616 92.6499 61.0147 94.1527 58.2811C95.1736 55.9502 96.9856 54.0551 99.2685 52.9308ZM103.3 57.7974C102.933 57.6177 102.534 57.5131 102.127 57.4896C101.747 57.6029 101.39 57.7815 101.071 58.0173C99.4713 59.1415 98.2822 60.7577 97.6854 62.6201C96.8388 64.6884 96.5409 66.9404 96.8205 69.1577C96.9623 70.1593 97.213 71.1423 97.5681 72.0894C97.767 72.8273 98.1163 73.516 98.5942 74.1123C98.6853 74.2273 98.805 74.3163 98.9414 74.3703C99.0778 74.4243 99.226 74.4415 99.3711 74.4201C100.456 74.2735 101.658 72.7784 102.977 69.9493C103.966 67.5818 104.58 65.0743 104.795 62.5174C104.925 61.5018 104.969 60.4769 104.927 59.4538C104.824 58.7062 104.282 58.1639 103.3 57.7974Z" fill="#F48E9F"/>
<path d="M118.662 49.4426C119.11 48.8759 119.752 48.4948 120.465 48.3725C120.807 48.335 121.153 48.3662 121.483 48.4643C121.812 48.5625 122.119 48.7257 122.385 48.9442C122.629 49.1134 122.835 49.3308 122.991 49.5829C123.148 49.8351 123.25 50.1166 123.294 50.4101C123.294 50.498 123.294 51.0257 123.294 51.9932V54.3092L125.258 51.8173C126.095 50.7096 127.082 49.7231 128.19 48.8856C129.136 48.2596 130.225 47.8816 131.356 47.7862C131.769 47.7346 132.185 47.7052 132.602 47.6982C135.651 47.6982 137.674 48.3139 138.685 49.7064C138.89 49.9749 139.018 50.2936 139.057 50.629C139.096 50.9644 139.043 51.304 138.905 51.612C138.734 52.1064 138.427 52.5428 138.02 52.8719C137.614 53.2009 137.123 53.4094 136.604 53.4737C136.03 53.5539 135.448 53.5539 134.874 53.4737C133.994 53.2754 133.091 53.2014 132.191 53.2538C130.726 53.415 129.582 54.8076 128.556 57.4021C127.931 59.3855 127.518 61.4296 127.325 63.5001C126.995 65.4951 126.887 67.5205 127.002 69.5393C126.991 69.6367 126.991 69.7351 127.002 69.8325C127.009 69.9105 127.009 69.989 127.002 70.067C127.076 70.2755 127.126 70.492 127.149 70.712C127.138 71.338 126.928 71.9441 126.548 72.4417C126.342 72.7939 126.058 73.0936 125.717 73.3174C125.377 73.5412 124.988 73.683 124.584 73.7317C124.006 73.7782 123.428 73.6527 122.922 73.371C122.416 73.0892 122.005 72.6638 121.74 72.1485C120.509 70.3504 119.37 65.9529 118.324 58.9559C117.958 56.6985 117.753 55.306 117.694 54.7783C117.601 53.6186 117.65 52.4519 117.841 51.3042C117.925 50.6164 118.211 49.9687 118.662 49.4426Z" fill="#F48E9F"/>
<path d="M149.137 45.1476C149.821 44.1831 150.694 43.3667 151.701 42.7471C152.708 42.1275 153.831 41.7175 155 41.5416C156.043 41.4313 157.098 41.5463 158.093 41.8787C159.378 42.2291 160.553 42.8999 161.508 43.8283C162.52 44.9396 163.319 46.2262 163.868 47.6248C164.116 48.2024 164.27 48.8162 164.323 49.4425C164.426 50.5824 164.283 51.7312 163.904 52.8111C163.525 53.891 162.918 54.8768 162.124 55.7016C160.332 57.7361 157.958 59.1692 155.323 59.806C154.519 60.0529 153.695 60.2295 152.86 60.3337C152.597 60.3695 152.331 60.3695 152.068 60.3337L150.793 60.2018L151.101 63.1335C151.171 64.6482 151.598 66.1249 152.347 67.4431C152.56 67.9084 152.876 68.3193 153.27 68.6451C153.737 68.8234 154.237 68.8984 154.736 68.8649H155.264C156.739 68.4912 158.114 67.8009 159.295 66.8421C160.48 65.8147 161.847 65.0191 163.326 64.4967C163.593 64.4676 163.863 64.4986 164.117 64.5873C164.371 64.6761 164.601 64.8204 164.792 65.0098C165.039 65.194 165.246 65.4269 165.4 65.6941C165.554 65.9613 165.651 66.2572 165.686 66.5636C165.833 67.9708 164.289 69.6858 161.054 71.7087C160.147 72.2645 159.202 72.7544 158.225 73.1745C157.319 73.4517 156.385 73.6287 155.44 73.7022C154.575 73.8202 153.702 73.8546 152.831 73.8048C152.2 73.6864 151.598 73.4475 151.057 73.1012C149.864 72.3668 148.86 71.3626 148.125 70.1695C147.553 69.4226 147.089 68.5984 146.747 67.7216C146.405 66.3741 146.17 65.0017 146.044 63.6172L145.868 62.0488C145.037 54.4948 146.127 48.861 149.137 45.1476ZM157.345 47.0092C156.853 46.7112 156.276 46.5825 155.704 46.6427C154.921 46.7874 154.201 47.1656 153.637 47.7274C152.916 48.6555 152.343 49.6888 151.936 50.7911C151.438 51.8212 151.163 52.9452 151.13 54.0892V55.2179L153.226 54.9247C154.413 54.7446 155.559 54.3576 156.613 53.7814C157.379 53.2328 158.052 52.5647 158.606 51.8025C159.067 51.2972 159.346 50.6522 159.398 49.9702C159.3 49.3641 159.048 48.7935 158.665 48.3138C158.328 47.7855 157.877 47.3397 157.345 47.0092Z" fill="#F48E9F"/>
<path d="M194.226 32.2483C194.282 31.977 194.394 31.7206 194.556 31.4957C194.717 31.2709 194.925 31.0828 195.164 30.9437C195.687 30.5995 196.286 30.3881 196.909 30.3281C197.424 30.2866 197.941 30.3781 198.41 30.5937C198.88 30.8093 199.287 31.1418 199.591 31.5594C199.844 31.8447 200.011 32.1951 200.075 32.5708C200.08 32.9302 200.046 33.2891 199.972 33.6409C199.793 34.7207 199.729 35.8165 199.782 36.9097V38.8886L201.673 38.5222C201.966 38.5222 202.347 38.4049 202.772 38.3609C203.403 38.3364 204.025 38.5164 204.546 38.874C204.87 39.0922 205.139 39.3836 205.33 39.7249C205.521 40.0661 205.629 40.4475 205.645 40.8382C205.676 41.2418 205.641 41.6477 205.542 42.0402C205.264 42.905 203.989 43.506 201.746 44.0191L199.855 44.4442V46.4377C199.726 52.0964 199.902 57.7579 200.383 63.3976C200.544 64.8579 200.627 66.3259 200.632 67.7951C200.598 68.3366 200.387 68.8519 200.031 69.2609C199.846 69.5346 199.606 69.7661 199.325 69.9404C199.045 70.1147 198.731 70.2278 198.404 70.2724C197.732 70.2752 197.08 70.0475 196.557 69.6274C196.137 69.346 195.823 68.9336 195.663 68.4547C195.403 67.2444 195.207 66.0211 195.076 64.7901L194.959 63.4122C194.754 61.0571 194.588 57.9348 194.461 54.0455C194.329 50.1756 194.299 47.6837 194.387 46.5843L194.475 45.3823L192.658 45.7928C191.265 46.1006 190.195 46.3351 189.418 46.5403C189.184 46.6091 188.943 46.6533 188.7 46.6723C188.405 46.6732 188.114 46.6153 187.842 46.502C187.57 46.3888 187.323 46.2224 187.117 46.0126C186.782 45.7294 186.509 45.3802 186.314 44.9867C186.12 44.5933 186.009 44.1641 185.988 43.7259C185.901 43.3392 185.918 42.9364 186.036 42.5582C186.155 42.1799 186.371 41.8395 186.662 41.5711C187.931 40.9968 189.29 40.6495 190.679 40.545C191.868 40.4007 193.044 40.1654 194.197 39.8414C194.356 38.6741 194.356 37.4907 194.197 36.3234C194.107 34.9662 194.117 33.6042 194.226 32.2483Z" fill="#F48E9F"/>
<path d="M211.157 26.8396C211.327 26.6139 211.549 26.4323 211.804 26.3099C212.059 26.1875 212.34 26.1279 212.623 26.136C212.994 26.0952 213.37 26.1385 213.723 26.2628C214.076 26.3872 214.396 26.5893 214.66 26.8543C215.218 27.7084 215.583 28.6738 215.73 29.6833C216.053 31.1687 216.864 35.6103 218.163 43.0079C219.248 48.8713 219.805 51.803 219.864 51.803L220.406 50.2492C220.903 48.1762 221.729 46.1966 222.854 44.3858C223.193 43.8616 223.646 43.4206 224.179 43.0958C224.712 42.7709 225.311 42.5705 225.932 42.5095C226.683 42.4543 227.434 42.6087 228.102 42.9556C228.77 43.3024 229.328 43.828 229.714 44.4737C230.911 46.2282 231.78 48.1849 232.279 50.2492C232.964 52.702 233.775 56.6989 234.713 62.2398L235.754 68.5136L234.903 69.3638C234.536 69.8156 234.013 70.1137 233.438 70.1993C232.961 70.2199 232.49 70.0918 232.089 69.8329C231.469 69.4491 231.014 68.8481 230.814 68.1471C230.564 67.3702 230.169 65.4207 229.626 62.2838C228.102 53.4887 227.032 49.0911 226.416 49.0911C225.844 49.0911 225.17 51.5977 224.379 56.5083C223.715 59.8935 223.304 63.3232 223.147 66.7692C223.169 67.5377 222.981 68.2976 222.605 68.968C222.333 69.6039 221.845 70.1231 221.227 70.4339C220.968 70.5651 220.682 70.6353 220.391 70.6391C219.998 70.6832 219.6 70.63 219.232 70.4844C218.864 70.3387 218.537 70.1049 218.281 69.8035C217.792 69.0662 217.49 68.221 217.401 67.3409C217.098 65.963 216.395 62.2007 215.29 56.0539C215.29 55.878 214.836 53.4301 213.986 48.7247C213.136 44.0193 212.52 40.5599 212.153 38.4638C211.215 33.4945 210.688 30.2111 210.57 28.584V28.2615C210.701 27.7634 210.899 27.2852 211.157 26.8396Z" fill="#F48E9F"/>
<path d="M239.814 29.5807C240.265 29.0853 240.879 28.768 241.544 28.6865C241.904 28.6697 242.263 28.726 242.601 28.8519C242.938 28.9779 243.247 29.1709 243.508 29.4194C243.788 29.648 244.019 29.9307 244.188 30.2505C244.357 30.5703 244.459 30.9208 244.49 31.281C244.511 32.0239 244.249 32.7469 243.757 33.3039C243.517 33.6543 243.205 33.9485 242.84 34.1662C242.476 34.3838 242.068 34.5198 241.646 34.5645C241.156 34.5976 240.667 34.4842 240.242 34.2389C239.817 33.9935 239.474 33.6273 239.257 33.1866C239.008 32.8009 238.866 32.3556 238.846 31.8967C238.834 31.4641 238.914 31.0338 239.081 30.6345C239.248 30.2352 239.498 29.8759 239.814 29.5807ZM241.382 37.5549C241.564 37.3424 241.788 37.1711 242.041 37.0523C242.294 36.9335 242.569 36.8699 242.848 36.8659C243.295 36.8184 243.747 36.8744 244.169 37.0294C244.591 37.1845 244.972 37.4345 245.282 37.7601C245.749 38.5873 246.025 39.5091 246.088 40.4572C246.273 41.8351 246.606 45.1968 247.085 50.5423L248.184 62.5622L247.363 63.3391C246.937 63.818 246.345 64.1168 245.707 64.1746C245.234 64.1937 244.767 64.0732 244.363 63.8281C243.959 63.5831 243.636 63.2243 243.435 62.7967C243.141 62.3667 242.609 58.15 241.837 50.1465C241.426 45.7489 241.162 42.7146 241.075 41.1315C240.869 39.9326 240.975 38.701 241.382 37.5549Z" fill="#F48E9F"/>
<path d="M261.846 34.3592C263.033 33.7936 264.316 33.4555 265.628 33.3624C266.36 33.2887 267.1 33.3637 267.802 33.5828C268.505 33.802 269.157 34.1608 269.717 34.6377C270.265 35.141 270.701 35.7528 270.999 36.4343C271.297 37.1158 271.45 37.8518 271.447 38.5955C271.579 41.0141 271.007 42.48 269.703 42.993C269.415 43.1122 269.105 43.1721 268.794 43.1689C268.438 43.1956 268.082 43.1377 267.753 43.0002C267.425 42.8626 267.133 42.6492 266.903 42.3774C266.364 41.7589 266.063 40.9693 266.053 40.1493C266.067 39.7782 266.002 39.4083 265.862 39.0646C265.774 38.918 265.54 38.8447 265.188 38.874C263.625 39.3092 262.204 40.1485 261.069 41.3073C259.148 42.8758 258.137 44.0484 257.917 44.8107V44.9426V45.0745C257.917 45.2944 258.225 45.4703 258.811 45.5876C259.398 45.7048 261.113 45.9834 264 46.3938C265.916 46.6044 267.8 47.0373 269.615 47.6837C270.805 48.1944 271.912 48.8812 272.898 49.7213C273.868 50.5173 274.701 51.4683 275.361 52.5357C275.916 53.6256 276.207 54.8307 276.211 56.0537C276.308 56.9752 276.197 57.9066 275.888 58.7802C274.672 61.448 271.637 63.3243 266.815 64.409C265.912 64.6265 264.997 64.788 264.074 64.8928C263.159 64.9027 262.245 64.8192 261.347 64.6436C257.888 64.1305 255.704 62.5914 254.824 60.0408C254.732 59.7404 254.673 59.4307 254.648 59.1173C254.62 58.7733 254.667 58.4272 254.786 58.1032C254.905 57.7791 255.093 57.4849 255.337 57.241C255.808 56.7407 256.454 56.4415 257.14 56.4055C257.664 56.387 258.182 56.5142 258.638 56.7731C259.093 57.0319 259.468 57.4121 259.72 57.8714C260.298 58.6491 261.154 59.1741 262.109 59.3372C262.723 59.4491 263.349 59.4836 263.971 59.4398C265.567 59.3617 267.13 58.9523 268.559 58.2378C270.025 57.5196 270.699 56.772 270.655 55.9071C270.655 54.7198 269.629 53.723 267.724 52.8875C264.551 51.8592 261.25 51.2819 257.917 51.1724C257.024 51.1155 256.152 50.8737 255.358 50.4624C254.563 50.0511 253.862 49.4793 253.3 48.7831C252.714 47.9185 252.407 46.8955 252.42 45.8514C252.319 44.6005 252.52 43.3437 253.007 42.1868C253.835 40.5878 254.97 39.1681 256.349 38.0092C257.989 36.525 259.841 35.2948 261.846 34.3592Z" fill="#F48E9F"/>
<path d="M306.862 34.9017C307.785 34.6285 308.732 34.4468 309.691 34.3594C311.328 34.3983 312.907 34.9695 314.191 35.9865C314.655 36.4109 315.205 36.7308 315.803 36.9246C316.362 37.0799 316.869 37.3838 317.269 37.8041C317.564 37.9719 317.817 38.204 318.01 38.4831C318.203 38.7623 318.331 39.0813 318.383 39.4165C318.383 39.5045 318.354 39.9442 318.295 40.7358C318.202 42.0931 317.936 43.433 317.504 44.7229C317.19 45.7787 317.037 46.8757 317.049 47.9771C317.049 49.2963 317.132 52.9658 317.298 58.9856C317.504 65.318 317.548 69.398 317.43 71.2254C317.356 72.8844 316.989 74.5172 316.346 76.048C315.675 77.3939 314.665 78.541 313.414 79.3755C312.201 80.2536 310.761 80.7627 309.266 80.8414C308.222 80.8962 307.179 80.7226 306.209 80.3327C305.239 79.9428 304.367 79.346 303.651 78.5839C303.035 78.1033 302.613 77.4161 302.464 76.649C302.433 76.3812 302.433 76.1106 302.464 75.8428C302.601 74.5236 303.173 73.8493 304.179 73.8199C305.067 73.8613 305.914 74.2023 306.583 74.7874C307.246 75.3741 308.102 75.6975 308.987 75.6962C310.453 75.6962 311.391 74.6115 311.992 72.574C312.377 70.1903 312.476 67.7691 312.285 65.362L312.183 62.4303L311.772 53.9284L310.174 55.1744C309.194 55.9467 308.127 56.601 306.993 57.124C305.997 57.5491 305.528 57.8569 305.528 58.0328C305.528 58.2087 305.029 58.3113 304.062 58.3406C303.123 58.3419 302.2 58.0994 301.383 57.6369C300.566 57.1744 299.883 56.5077 299.4 55.7021C298.348 54.1108 297.787 52.2449 297.788 50.3371C297.711 46.9812 298.574 43.6706 300.28 40.7798C301.613 38.0295 303.979 35.917 306.862 34.9017ZM311.376 46.0422C311.878 45.0595 312.115 43.9634 312.065 42.8613C312.063 42.0007 311.808 41.1598 311.332 40.4426C311.128 40.1373 310.847 39.8904 310.518 39.726C310.189 39.5615 309.823 39.4852 309.456 39.5045C308.56 39.6691 307.733 40.0979 307.081 40.7358C306.153 41.5107 305.369 42.4437 304.765 43.4916C303.496 45.549 302.864 47.9358 302.948 50.3518C302.948 52.0228 303.446 52.8437 304.282 52.8144C305.117 52.7851 306.349 51.9788 307.99 50.4104C309.374 49.1752 310.518 47.6941 311.362 46.0422H311.376Z" fill="#F48E9F"/>
<path d="M324.877 34.3002C325.391 33.8034 326.068 33.5115 326.782 33.4793C327.127 33.4707 327.47 33.5326 327.79 33.6612C328.11 33.7897 328.401 33.9822 328.644 34.2269C329.095 34.6285 329.369 35.1924 329.406 35.7953C329.406 35.8833 329.406 36.411 329.304 37.3784L329.143 39.6945L331.341 37.4078C332.281 36.3639 333.361 35.4561 334.551 34.7106C335.555 34.1848 336.673 33.913 337.806 33.919C338.225 33.8854 338.647 33.8854 339.066 33.919C342.101 34.1682 344.05 35.0331 344.93 36.4989C345.103 36.7893 345.194 37.1211 345.194 37.4591C345.194 37.7971 345.103 38.1288 344.93 38.4192C344.71 38.895 344.362 39.2998 343.924 39.5874C343.486 39.8751 342.976 40.034 342.452 40.0463C341.872 40.0622 341.292 39.983 340.737 39.8117C339.878 39.5359 338.986 39.3781 338.084 39.3427C336.618 39.3427 335.343 40.6326 334.068 43.1099C333.251 45.0244 332.637 47.019 332.235 49.0612C331.718 51.0159 331.419 53.0215 331.341 55.0419C331.335 55.1444 331.335 55.2472 331.341 55.3497C331.35 55.4228 331.35 55.4966 331.341 55.5696C331.368 55.7887 331.368 56.0101 331.341 56.2292C331.28 56.8555 331.012 57.4435 330.579 57.9003C330.341 58.2322 330.029 58.5042 329.668 58.695C329.306 58.8857 328.906 58.9901 328.498 58.9997C327.95 58.9595 327.425 58.7665 326.982 58.4426C326.539 58.1187 326.195 57.6768 325.991 57.1674C324.955 55.2129 324.251 50.7372 323.88 43.7402C323.748 41.4535 323.675 40.0609 323.66 39.5332C323.592 38.3602 323.671 37.1834 323.895 36.0299C324.059 35.3749 324.399 34.777 324.877 34.3002Z" fill="#F48E9F"/>
<path d="M355.616 33.0109C356.397 32.1105 357.354 31.3786 358.428 30.8595C359.501 30.3404 360.669 30.045 361.86 29.9912C362.904 29.9884 363.938 30.203 364.894 30.6216C366.137 31.1065 367.24 31.8922 368.105 32.9083C369.004 34.1152 369.674 35.4764 370.084 36.9247C370.273 37.5168 370.367 38.1353 370.362 38.757C370.337 39.8975 370.07 41.0197 369.577 42.0485C369.084 43.0773 368.377 43.9891 367.504 44.723C365.522 46.5705 363.019 47.763 360.336 48.1384C359.515 48.303 358.681 48.3962 357.844 48.4169C357.582 48.4581 357.314 48.4581 357.052 48.4169L355.792 48.1677V51.0994C355.714 52.6111 356 54.1193 356.627 55.497C356.793 55.9799 357.063 56.4203 357.419 56.7869C357.855 56.9932 358.329 57.108 358.811 57.124H359.339C360.842 56.9011 362.279 56.3507 363.546 55.5116C364.852 54.6701 366.304 54.0786 367.826 53.7673C368.103 53.7568 368.379 53.8094 368.633 53.9211C368.887 54.0328 369.112 54.2008 369.292 54.4122C369.519 54.6216 369.702 54.8752 369.828 55.1575C369.954 55.4398 370.021 55.7449 370.025 56.054C370.025 57.4612 368.32 59.015 364.909 60.7154C363.963 61.201 362.984 61.6174 361.977 61.9613C360.174 62.2568 358.338 62.2914 356.525 62.0639C355.911 61.8834 355.338 61.5846 354.839 61.1844C353.705 60.344 352.79 59.2429 352.171 57.9742C351.679 57.1748 351.299 56.3117 351.042 55.409C350.839 54.0357 350.741 52.6489 350.749 51.2607V49.6043C350.632 41.9428 352.254 36.4116 355.616 33.0109ZM363.546 35.6494C363.088 35.3111 362.532 35.1311 361.963 35.1364C361.167 35.1915 360.409 35.4939 359.793 36.0012C358.982 36.8705 358.31 37.8593 357.8 38.9329C357.202 39.9118 356.818 41.0056 356.671 42.1431V43.2718L358.782 43.1839C359.983 43.1137 361.164 42.836 362.271 42.363C363.087 41.9016 363.82 41.3071 364.44 40.604C364.948 40.1408 365.289 39.5222 365.408 38.8449C365.368 38.2336 365.171 37.6429 364.836 37.1299C364.519 36.5483 364.079 36.043 363.546 35.6494Z" fill="#F48E9F"/>
<path d="M385.343 34.7111C386.033 34.5344 386.742 34.4506 387.454 34.4619C388.559 34.4718 389.645 34.7484 390.62 35.2682C391.487 35.7628 392.454 36.0582 393.449 36.133C393.822 36.1266 394.191 36.2005 394.533 36.3498C394.874 36.499 395.18 36.72 395.428 36.9979C395.75 37.3065 395.983 37.6965 396.102 38.1266C396.247 38.9094 396.301 39.7061 396.264 40.5012C396.258 43.894 396.429 47.2847 396.777 50.6595C396.939 53.1337 397.332 55.5874 397.949 57.9888C398.054 58.2593 398.099 58.5494 398.081 58.839C398.084 59.1814 398.008 59.5197 397.858 59.8275C397.707 60.1353 397.488 60.404 397.217 60.6126C396.713 61.0752 396.053 61.3316 395.37 61.3309C395.094 61.3307 394.823 61.2654 394.578 61.1403C393.907 60.6876 393.395 60.0368 393.112 59.2787C392.637 58.2321 392.321 57.1205 392.174 55.9806C392.042 54.8372 391.881 54.2655 391.661 54.2655C391.441 54.2655 390.884 54.9398 389.99 56.2884C389.028 57.7805 387.789 59.0743 386.34 60.0996C385.094 60.8783 383.646 61.271 382.177 61.2283H381.312C380.385 60.9659 379.544 60.4597 378.879 59.7624C378.017 59.0621 377.325 58.1749 376.856 57.1679C376.006 55.0283 375.587 52.7417 375.625 50.4397C375.64 49.5563 375.713 48.6748 375.844 47.8011C376.386 44.7298 377.63 41.8252 379.48 39.3139C380.816 37.1238 382.898 35.4895 385.343 34.7111ZM388.685 40.0615C388.34 39.8413 387.958 39.6872 387.557 39.6071C387.166 39.6703 386.79 39.7992 386.443 39.9882C384.699 40.8818 383.298 42.324 382.455 44.0926C381.345 46.0312 380.744 48.2202 380.711 50.4543C380.731 51.4408 380.849 52.4228 381.063 53.386C381.162 54.1433 381.416 54.8719 381.81 55.5262C381.885 55.6493 381.991 55.7507 382.117 55.8202C382.243 55.8896 382.385 55.9247 382.529 55.9219C383.628 55.9219 385.021 54.6173 386.706 51.9935C388.006 49.785 388.951 47.386 389.506 44.8841C389.786 43.893 389.968 42.8766 390.049 41.8498C390.01 41.4546 389.861 41.078 389.621 40.7622C389.38 40.4463 389.056 40.2037 388.685 40.0615Z" fill="#F48E9F"/>
<path d="M413.223 24.6843C413.31 24.4193 413.451 24.1753 413.638 23.9683C413.825 23.7612 414.053 23.5957 414.308 23.4823C414.859 23.1922 415.474 23.046 416.096 23.0572C416.611 23.0578 417.116 23.1935 417.561 23.4508C418.006 23.7081 418.375 24.0779 418.632 24.5231C418.868 24.8314 419.001 25.2055 419.014 25.5932C418.986 25.9482 418.912 26.298 418.794 26.6339C418.512 27.6884 418.34 28.7691 418.281 29.8588L418.119 31.8377L420.025 31.6764C420.401 31.6444 420.778 31.6444 421.154 31.6764C421.784 31.7003 422.385 31.9441 422.854 32.3654C423.156 32.6117 423.394 32.9264 423.549 33.2833C423.705 33.6402 423.773 34.029 423.748 34.4175C423.732 34.8218 423.658 35.2216 423.528 35.6049C423.147 36.4404 421.828 36.9535 419.541 37.188L417.621 37.4079L417.386 39.3868C416.662 45.003 416.251 50.6553 416.155 56.3173C416.164 57.7857 416.096 59.2536 415.95 60.7148C415.863 61.2706 415.601 61.7842 415.202 62.1807C414.989 62.4329 414.725 62.6366 414.426 62.7782C414.128 62.9198 413.803 62.9959 413.473 63.0015C412.803 62.9473 412.174 62.6563 411.699 62.1807C411.313 61.856 411.045 61.4128 410.937 60.92C410.804 59.6882 410.736 58.4504 410.731 57.2114V55.8336C410.731 53.4589 410.922 50.3366 411.201 46.4668C411.479 42.597 411.684 40.1197 411.889 39.0203L412.109 37.8476L410.248 38.0822C408.841 38.2287 407.741 38.3607 406.95 38.4779C406.706 38.5054 406.46 38.5054 406.217 38.4779C405.641 38.4017 405.117 38.1079 404.751 37.6571C404.45 37.3389 404.218 36.9631 404.066 36.5524C403.915 36.1418 403.849 35.7048 403.871 35.2677C403.819 34.8745 403.874 34.4743 404.032 34.1102C404.189 33.7461 404.443 33.4317 404.765 33.2009C406.084 32.746 407.476 32.5374 408.87 32.5852C410.055 32.5745 411.237 32.4617 412.403 32.2481C412.686 31.1075 412.819 29.9346 412.798 28.7594C412.843 27.3926 412.985 26.0308 413.223 24.6843Z" fill="#F48E9F"/>
<path d="M464.895 22.2074C465.133 21.9504 465.424 21.7479 465.748 21.6138C466.072 21.4797 466.421 21.4172 466.771 21.4305C467.14 21.436 467.503 21.5293 467.829 21.7026C468.155 21.8759 468.436 22.1243 468.647 22.4272C468.965 22.9962 469.131 23.6372 469.131 24.2889C469.131 25.1 469.072 27.3867 468.955 31.149C468.416 40.5157 468.849 49.913 470.245 59.1907C470.479 60.9203 470.597 61.8292 470.597 61.9171C470.513 62.377 470.339 62.8156 470.084 63.2071C469.795 63.742 469.336 64.165 468.779 64.4091C468.649 64.4372 468.514 64.4372 468.383 64.4091C467.793 64.3683 467.232 64.1368 466.785 63.7494C466.292 63.3862 465.932 62.8713 465.759 62.2836C465.525 61.4481 465.232 59.8649 464.851 57.5342C464.581 56.121 464.41 54.6908 464.337 53.254C464.337 52.6823 464.337 52.3891 464.103 52.3891C463.868 52.3891 463.253 53.166 462.359 54.7638C459.28 60.2754 456.026 62.9628 452.596 62.8259C451.689 62.7749 450.801 62.5405 449.987 62.137C448.303 61.0979 447.061 59.475 446.498 57.5782C445.618 55.133 445.24 52.5358 445.384 49.9412C445.426 48.9585 445.529 47.9794 445.692 47.0095C446.042 44.0847 447.334 41.353 449.371 39.2258C450.218 38.3523 451.243 37.6702 452.375 37.2252C453.508 36.7802 454.723 36.5827 455.938 36.6459C457.462 36.6951 458.947 37.1396 460.248 37.9359C460.817 38.2629 461.429 38.5096 462.065 38.6688H462.241C462.694 37.2685 462.961 35.8145 463.033 34.3446C463.385 31.6327 463.649 28.9942 463.839 26.4583C463.759 24.9677 464.126 23.4872 464.895 22.2074ZM457.844 42.5093C457.466 42.2012 457.03 41.9717 456.562 41.8343C456.094 41.6968 455.603 41.6541 455.119 41.7087C454.634 41.7633 454.165 41.9141 453.74 42.1523C453.314 42.3904 452.94 42.7112 452.64 43.0957C451.646 44.285 450.983 45.7161 450.72 47.244C450.56 48.0213 450.467 48.8108 450.441 49.604C450.352 51.4596 450.545 53.3179 451.013 55.1156C451.467 56.8453 452.039 57.7248 452.699 57.7541C454.008 57.7541 455.562 56.2883 457.36 53.3566C458.763 51.3713 459.705 49.0976 460.116 46.7016C460.129 45.9172 459.921 45.1448 459.515 44.4736C459.111 43.7029 458.54 43.0319 457.844 42.5093Z" fill="#F48E9F"/>
<path d="M482.25 35.5605C483.085 34.7081 484.085 34.0347 485.189 33.5811C486.293 33.1274 487.477 32.9032 488.671 32.922C489.694 32.9925 490.691 33.2718 491.602 33.7429C492.823 34.2929 493.882 35.1456 494.68 36.2201C495.506 37.4746 496.093 38.8712 496.41 40.3392C496.564 40.9421 496.623 41.5651 496.586 42.1861C496.492 43.3216 496.157 44.424 495.604 45.4199C495.05 46.4158 494.291 47.2822 493.376 47.9616C491.286 49.6583 488.73 50.6806 486.047 50.8933C485.211 50.9996 484.368 51.0437 483.525 51.0252C483.258 51.0244 482.992 50.9899 482.734 50.9226L481.503 50.5854L481.356 53.5171C481.184 55.0064 481.375 56.5152 481.913 57.9147C482.048 58.4036 482.294 58.855 482.631 59.2339C483.049 59.4773 483.514 59.6273 483.994 59.6737H484.522C486.035 59.5342 487.5 59.0692 488.817 58.3104C490.178 57.5507 491.67 57.0535 493.215 56.8446C493.479 56.8573 493.736 56.9283 493.969 57.0524C494.203 57.1766 494.405 57.351 494.563 57.5629C494.776 57.7871 494.942 58.0519 495.05 58.3415C495.158 58.6312 495.207 58.9397 495.194 59.2486C495.115 60.6558 493.322 62.1216 489.814 63.6461C488.83 64.0719 487.816 64.4246 486.78 64.7015C485.838 64.8417 484.884 64.8712 483.936 64.7895C483.049 64.7749 482.166 64.6767 481.297 64.4963C480.695 64.2805 480.142 63.9466 479.67 63.5142C478.59 62.6109 477.745 61.459 477.208 60.1574C476.757 59.3341 476.426 58.4505 476.225 57.5335C476.122 56.1429 476.122 54.7465 476.225 53.3559L476.299 51.7874C476.699 44.165 478.683 38.7561 482.25 35.5605ZM490.019 38.6681C489.578 38.3088 489.034 38.0985 488.465 38.0671C487.668 38.0692 486.893 38.326 486.252 38.8C485.395 39.6102 484.663 40.544 484.082 41.5705C483.435 42.5108 482.986 43.5731 482.763 44.6927L482.646 45.8214H484.757C485.961 45.8252 487.157 45.6168 488.289 45.2058C489.126 44.7915 489.889 44.2418 490.547 43.5787C491.098 43.158 491.482 42.5556 491.632 41.8783C491.624 41.2713 491.463 40.676 491.162 40.1486C490.913 39.5856 490.549 39.0813 490.092 38.6681H490.019Z" fill="#F48E9F"/>
<path d="M511.758 39.0347C512.458 38.9038 513.172 38.8595 513.883 38.9028C514.981 38.9937 516.044 39.3347 516.991 39.8996C517.824 40.4514 518.771 40.8072 519.761 40.9403C520.133 40.9577 520.496 41.0543 520.828 41.2237C521.159 41.3931 521.45 41.6313 521.681 41.9224C521.992 42.248 522.206 42.6543 522.297 43.0951C522.398 43.8729 522.413 44.6594 522.341 45.4405C522.135 48.8275 522.101 52.2229 522.238 55.6134C522.241 58.1191 522.491 60.6183 522.986 63.0746C523.072 63.3494 523.097 63.6394 523.059 63.9248C523.038 64.2672 522.94 64.6005 522.773 64.8999C522.605 65.1993 522.373 65.4572 522.092 65.6545C521.551 66.0685 520.882 66.281 520.201 66.2555C519.926 66.2355 519.659 66.1501 519.424 66.0063C518.771 65.5267 518.293 64.8474 518.061 64.0714C517.647 62.9957 517.395 61.8644 517.313 60.7146C517.313 59.5712 517.123 58.9849 516.903 58.9702C516.683 58.9556 516.082 59.6005 515.129 60.9051C514.066 62.3363 512.744 63.5546 511.23 64.4964C509.94 65.1979 508.471 65.5038 507.008 65.376H506.143C505.236 65.0498 504.432 64.4883 503.813 63.7489C502.992 62.9852 502.351 62.049 501.936 61.0077C501.221 58.8211 500.947 56.5142 501.13 54.2209C501.186 53.3383 501.309 52.4612 501.497 51.597C502.217 48.5588 503.632 45.7289 505.63 43.3296C507.093 41.211 509.267 39.6872 511.758 39.0347ZM514.763 44.5903C514.438 44.3437 514.07 44.1598 513.678 44.0479C513.282 44.0947 512.896 44.2036 512.535 44.3704C510.737 45.1495 509.252 46.5062 508.313 48.2256C507.097 50.0963 506.376 52.2448 506.217 54.4701C506.165 55.48 506.224 56.4925 506.393 57.4897C506.44 58.2532 506.65 58.9978 507.008 59.6738C507.076 59.803 507.177 59.9118 507.3 59.9891C507.424 60.0664 507.566 60.1094 507.712 60.1136C508.797 60.1869 510.277 58.9702 512.109 56.4343C513.538 54.3101 514.626 51.9757 515.334 49.5155C515.669 48.5381 515.915 47.5323 516.067 46.5105C516.058 46.0989 515.929 45.6987 515.698 45.3581C515.467 45.0175 515.142 44.7509 514.763 44.5903Z" fill="#F48E9F"/>
<path d="M533.819 28.5245C534.378 28.2633 535.013 28.2114 535.607 28.3781C536.201 28.5449 536.716 28.9193 537.058 29.4333C537.306 29.6731 537.504 29.9599 537.64 30.277C537.776 30.5942 537.847 30.9352 537.85 31.2803C537.648 32.4678 537.359 33.6388 536.985 34.7836C535.663 40.8625 534.844 47.04 534.537 53.2533C534.537 53.6051 534.537 54.0742 534.464 54.7191C534.39 55.3641 534.464 55.7452 534.464 56.0091C534.214 61.7112 534.595 65.1853 535.607 66.4019C535.886 66.6904 536.103 67.0331 536.244 67.4088C536.385 67.7845 536.448 68.1852 536.428 68.586C536.315 69.2451 535.98 69.8457 535.479 70.2883C534.977 70.7309 534.34 70.9888 533.672 71.0193C532.631 70.7932 531.72 70.1667 531.136 69.275C529.919 67.7005 529.185 65.8059 529.025 63.822C528.694 60.3706 528.694 56.8953 529.025 53.4438C529.187 51.333 529.318 49.6913 529.465 48.5039C529.875 43.4442 530.55 38.4094 531.488 33.4204C532.133 30.6206 532.895 28.9935 533.819 28.5245Z" fill="#F48E9F"/>
<path d="M596.351 43.1981C596.512 43.1633 596.669 43.1142 596.821 43.0516H597.099C597.514 43.1456 597.895 43.3538 598.198 43.6526C598.588 43.9453 598.925 44.3022 599.195 44.708C599.418 45.001 599.523 45.3673 599.488 45.7341C599.238 46.7091 598.879 47.6531 598.418 48.5485C597.275 51.2554 596.156 54.1871 595.062 57.3436C592.912 63.5881 591.153 67.3699 589.785 68.6892C589.384 69.0746 588.907 69.3715 588.384 69.5609C587.861 69.7503 587.305 69.8279 586.75 69.7886C586.069 69.7024 585.414 69.4689 584.832 69.1044C584.25 68.7399 583.754 68.2531 583.379 67.6778C581.776 65.2542 580.486 61.4577 579.509 56.2882C579.274 55.0275 579.04 54.4265 578.82 54.4998C577.846 55.7916 577.001 57.1762 576.299 58.6335C573.602 63.2167 571.515 66.0409 570.04 67.1061C569.526 67.5419 568.865 67.7625 568.193 67.7217H567.87L567.416 67.6485C566.696 67.5713 566.011 67.2974 565.437 66.8569C564.499 66.0214 563.736 64.1304 563.135 61.1987C562.886 60.114 562.652 58.9413 562.417 57.6807C562.077 55.9527 561.847 54.2048 561.728 52.4476C561.391 49.6332 561.098 47.5957 560.863 46.3351C560.665 45.3713 560.605 44.384 560.688 43.4034C560.893 41.3512 561.86 40.3984 563.619 40.5743C563.986 40.5826 564.346 40.6709 564.676 40.8329C565.005 40.9949 565.295 41.2268 565.525 41.5124C566.013 42.414 566.279 43.419 566.302 44.4441C566.668 48.9443 567.24 53.635 568.046 58.5309C568.325 59.7915 568.574 60.3925 568.808 60.3192C569.043 60.2459 570.465 57.9885 572.971 53.503C575.478 49.0176 576.958 46.6722 577.574 45.7927C578.051 44.9813 578.775 44.3442 579.641 43.975C580.169 43.7353 580.749 43.6343 581.327 43.6819C581.749 43.7456 582.145 43.9304 582.464 44.214C582.784 44.4975 583.015 44.8677 583.13 45.2796C583.675 46.8867 584.015 48.5564 584.141 50.2489C584.438 52.9304 584.889 55.5928 585.49 58.2231C586.135 61.1548 586.677 62.6206 587.117 62.6206C587.395 62.6206 588.201 60.5831 589.55 56.7572C591.441 51.4069 592.789 47.9621 593.61 46.2471C593.841 45.5821 594.203 44.9699 594.674 44.4464C595.144 43.9228 595.715 43.4985 596.351 43.1981Z" fill="#F48E9F"/>
<path d="M607.36 45.9095C607.587 45.7248 607.851 45.5923 608.135 45.5214C608.419 45.4505 608.715 45.4428 609.002 45.499C609.452 45.523 609.891 45.6538 610.281 45.8807C610.671 46.1075 611.001 46.4239 611.245 46.8036C611.566 47.6946 611.676 48.6479 611.567 49.5888C611.567 50.9862 611.318 54.3576 610.819 59.7031L609.823 71.7377L608.885 72.3533C608.379 72.7552 607.74 72.9492 607.096 72.8957C606.628 72.8293 606.19 72.6273 605.836 72.3147C605.482 72.0021 605.227 71.5926 605.103 71.1367C604.878 70.6774 605.083 66.4313 605.718 58.3985C606.07 54.0009 606.349 50.9666 606.51 49.3982C606.5 48.1828 606.792 46.9839 607.36 45.9095ZM607.199 37.7887C607.73 37.3786 608.39 37.1708 609.06 37.2024C609.775 37.3206 610.42 37.699 610.872 38.2646C611.324 38.8303 611.551 39.5432 611.508 40.266C611.347 41.0381 610.926 41.7316 610.315 42.2306C609.704 42.7295 608.94 43.0036 608.152 43.0071C607.663 42.9577 607.2 42.7641 606.821 42.4509C606.443 42.1377 606.166 41.719 606.026 41.2481C605.852 40.8213 605.786 40.3579 605.836 39.8995C605.907 39.4679 606.069 39.0564 606.312 38.6924C606.554 38.3284 606.872 38.0203 607.243 37.7887H607.199Z" fill="#F48E9F"/>
<path d="M628.043 39.3426C628.158 39.0887 628.324 38.8614 628.531 38.6747C628.738 38.488 628.981 38.3461 629.245 38.2578C629.821 38.0251 630.446 37.9394 631.063 38.0086C631.579 38.0714 632.07 38.2663 632.488 38.5745C632.907 38.8826 633.239 39.2936 633.452 39.7677C633.644 40.0958 633.736 40.4728 633.716 40.8524C633.648 41.2057 633.54 41.5499 633.394 41.8785C633.004 42.8965 632.724 43.9529 632.558 45.03L632.192 46.9796H634.112C634.42 46.9796 634.786 46.9796 635.226 46.9796C635.851 47.0749 636.424 47.3799 636.853 47.8445C637.128 48.1216 637.332 48.4604 637.45 48.8327C637.567 49.205 637.594 49.6 637.527 49.9846C637.478 50.3863 637.364 50.7774 637.19 51.1426C636.736 51.9195 635.358 52.3153 633.071 52.3006H631.136L630.696 54.2502C629.416 59.768 628.438 65.3513 627.765 70.9755C627.626 72.4524 627.406 73.9205 627.105 75.3731C626.964 75.9007 626.649 76.3654 626.211 76.6923C625.976 76.9264 625.693 77.1066 625.382 77.2205C625.071 77.3344 624.738 77.3793 624.408 77.3519C623.751 77.2277 623.158 76.8746 622.737 76.3552C622.387 75.9854 622.166 75.5123 622.106 75.0066C622.093 73.7729 622.151 72.5395 622.282 71.3127L622.444 69.9348C622.727 67.5796 623.216 64.4916 623.909 60.6706C624.569 56.8448 625.053 54.4115 625.375 53.3414L625.712 52.1834H623.836C622.37 52.1834 621.315 52.1834 620.509 52.1834C620.27 52.2119 620.029 52.2119 619.79 52.1834C619.494 52.1274 619.212 52.0131 618.96 51.847C618.709 51.6809 618.493 51.4664 618.325 51.2159C617.811 50.5804 617.56 49.7731 617.621 48.9585C617.738 47.9178 618.105 47.2581 618.72 47.0089C620.074 46.6863 621.475 46.6168 622.854 46.8037C624.049 46.9038 625.25 46.9038 626.445 46.8037C626.842 45.6976 627.093 44.5446 627.193 43.3736C627.382 42.0117 627.666 40.6647 628.043 39.3426Z" fill="#F48E9F"/>
<path d="M645.707 37.555C645.905 37.3828 646.14 37.2577 646.394 37.1892C646.648 37.1207 646.914 37.1104 647.172 37.1592C647.544 37.1898 647.903 37.3048 648.223 37.4953C648.543 37.6858 648.815 37.9469 649.019 38.2586C649.393 39.1885 649.553 40.1903 649.488 41.1903C649.488 42.6561 649.401 47.2149 649.151 54.72C649.034 60.6616 648.995 63.6519 649.034 63.691L649.884 62.2251C650.83 60.3595 652.061 58.6532 653.534 57.168C653.974 56.704 654.515 56.3476 655.115 56.1265C655.715 55.9053 656.358 55.8253 656.994 55.8927C657.74 55.991 658.444 56.2955 659.026 56.7719C659.609 57.2484 660.047 57.878 660.292 58.5898C661.11 60.5487 661.567 62.6395 661.64 64.7611C661.816 67.3116 661.787 71.3867 661.64 77.0009L661.391 83.348L660.38 84.0076C659.909 84.3862 659.311 84.5698 658.709 84.5207C658.237 84.4475 657.801 84.2268 657.463 83.8903C656.93 83.3864 656.606 82.7013 656.554 81.9701C656.448 79.9779 656.448 77.9816 656.554 75.9894C656.862 67.0185 656.7 62.5037 656.099 62.4157C655.498 62.3277 654.267 64.4972 652.552 69.2026C651.219 72.388 650.117 75.6653 649.254 79.0091C649.128 79.7653 648.793 80.4711 648.286 81.0466C647.897 81.6332 647.309 82.0599 646.63 82.2486C646.345 82.3128 646.05 82.3128 645.765 82.2486C645.372 82.2122 644.994 82.0795 644.664 81.8622C644.334 81.6449 644.063 81.3497 643.874 81.0026C643.549 80.1839 643.424 79.2996 643.508 78.4227C643.508 76.996 643.586 73.1701 643.742 66.9452C643.742 66.7693 643.845 64.2627 643.962 59.4547C644.079 54.6467 644.197 51.158 644.255 49.0472C644.343 43.99 644.505 40.6625 644.71 39.0501V38.7276C644.985 38.2915 645.32 37.8966 645.707 37.555Z" fill="#F48E9F"/>
<path d="M702.2 38.7566C702.593 38.6583 703 38.6286 703.402 38.6686C704.586 38.8422 705.676 39.4104 706.495 40.2811C707.327 41.4053 707.893 42.7033 708.152 44.0776C708.596 45.7542 708.77 47.4913 708.665 49.2227C708.665 49.7064 708.577 50.2342 708.489 50.7912C708.468 51.0825 708.383 51.3654 708.238 51.6192C708.093 51.8729 707.894 52.0909 707.653 52.257C707.152 52.6126 706.532 52.7598 705.924 52.6675C705.555 52.6071 705.202 52.4704 704.889 52.2659C704.576 52.0614 704.31 51.7938 704.106 51.4801C703.63 50.7804 703.426 49.9304 703.534 49.0908C703.634 48.1731 703.609 47.2461 703.461 46.335C703.314 45.4262 703.08 44.9424 702.787 44.8692C702.494 44.7959 702.024 45.3529 701.673 46.4669C701.321 47.581 700.852 49.8091 700.207 53.0926L699.034 59.381L701.805 59.6156L703.652 59.7621C704.022 59.843 704.373 59.9975 704.683 60.2166C704.992 60.4357 705.255 60.7148 705.455 61.0374C705.907 61.5255 706.167 62.1607 706.188 62.8258C706.013 63.3491 705.686 63.8085 705.249 64.145C704.926 64.4804 704.506 64.706 704.047 64.79C703.282 64.8603 702.512 64.8603 701.746 64.79L699.239 64.5994L698.902 66.0653C698.729 67.3574 698.66 68.6613 698.697 69.9644C698.697 72.1925 698.697 74.4646 698.697 76.7953C698.697 79.126 698.697 80.3866 698.697 80.5625C698.691 80.6308 698.691 80.6994 698.697 80.7677V80.9583C698.649 81.2823 698.534 81.5928 698.36 81.8703C698.186 82.1478 697.956 82.3862 697.686 82.5707C697.427 82.7732 697.13 82.9206 696.812 83.0038C696.495 83.087 696.163 83.1042 695.839 83.0544C694.534 82.8639 693.786 81.9257 693.596 80.2547C693.596 79.4778 693.523 77.5135 693.596 74.3913C693.669 71.269 693.669 68.7624 693.757 67.0621L693.918 64.3502L691.822 64.0278C690.408 63.9042 689.037 63.474 687.806 62.7671C687.448 62.4876 687.18 62.1099 687.035 61.6803C686.889 61.2506 686.871 60.7878 686.985 60.3485C686.972 59.9977 687.059 59.6506 687.236 59.3471C687.412 59.0437 687.671 58.7963 687.982 58.6334C689.057 58.3874 690.175 58.3874 691.251 58.6334L694.05 59.0585L694.783 54.2359C695.275 50.5252 696.261 46.8968 697.715 43.4473C698.543 41.3599 700.152 39.6773 702.2 38.7566Z" fill="#F48E9F"/>
<path d="M713.781 60.803C714.375 60.4051 715.094 60.2383 715.803 60.334C716.146 60.3897 716.473 60.5146 716.765 60.7011C717.058 60.8876 717.309 61.1318 717.504 61.4187C717.688 61.655 717.824 61.926 717.902 62.2155C717.98 62.5051 717.999 62.8073 717.958 63.1044C717.958 63.1924 717.826 63.7054 717.562 64.6435L716.991 66.8863L719.571 65.0393C720.671 64.2106 721.88 63.535 723.162 63.0311C724.242 62.6868 725.393 62.6262 726.504 62.8552C726.919 62.9202 727.33 63.0083 727.735 63.1191C730.667 63.9204 732.426 65.1273 733.012 66.7397C733.135 67.0545 733.17 67.3968 733.114 67.7299C733.057 68.063 732.91 68.3744 732.69 68.6307C732.389 69.0579 731.973 69.3918 731.491 69.594C731.009 69.7962 730.479 69.8586 729.964 69.774C729.39 69.6847 728.835 69.5015 728.322 69.2316C727.527 68.8046 726.679 68.4842 725.8 68.2789C724.408 68.059 722.869 69.0411 721.154 71.2105C719.988 72.9411 719.006 74.7883 718.222 76.7221C717.357 78.5502 716.693 80.4671 716.243 82.4389C716.228 82.5361 716.228 82.6349 716.243 82.7321C716.253 82.8099 716.253 82.8888 716.243 82.9666C716.27 83.1856 716.27 83.4072 716.243 83.6263C716.058 84.2118 715.694 84.7245 715.202 85.0921C714.906 85.3759 714.548 85.5872 714.156 85.7093C713.765 85.8314 713.35 85.8609 712.945 85.7957C712.394 85.6731 711.888 85.3977 711.487 85.001C711.085 84.6043 710.803 84.1025 710.673 83.553C709.999 81.4812 710.131 76.9567 711.069 69.9792C711.362 67.7072 711.538 66.3146 711.626 65.8016C711.776 64.6358 712.072 63.4934 712.505 62.4008C712.765 61.7551 713.208 61.1996 713.781 60.803Z" fill="#F48E9F"/>
<path d="M741.5 65.0241C741.741 64.8573 742.014 64.7436 742.302 64.6905C742.59 64.6375 742.886 64.6462 743.171 64.7163C743.619 64.7779 744.046 64.9423 744.42 65.1966C744.794 65.4509 745.104 65.7882 745.326 66.1821C745.576 67.0938 745.626 68.049 745.472 68.9819C745.326 70.4477 744.871 73.7166 744.006 79.0229L742.233 90.9696L741.265 91.5266C740.739 91.9013 740.086 92.054 739.448 91.9517C738.985 91.8576 738.561 91.6295 738.227 91.2959C737.893 90.9622 737.665 90.5378 737.571 90.0754C737.395 89.6063 737.864 85.37 739.037 77.4105C739.667 73.013 740.122 70.0813 740.4 68.4688C740.473 67.2468 740.851 66.0625 741.5 65.0241ZM741.866 56.918C742.418 56.5366 743.091 56.3698 743.757 56.4489C744.461 56.6134 745.079 57.0321 745.493 57.6246C745.907 58.2171 746.087 58.9417 746 59.6591C745.797 60.4251 745.333 61.0962 744.688 61.5565C744.043 62.0169 743.258 62.2375 742.467 62.1804C741.984 62.0961 741.537 61.8721 741.18 61.536C740.823 61.1999 740.572 60.7665 740.459 60.2894C740.311 59.8505 740.281 59.3805 740.371 58.9262C740.462 58.504 740.643 58.1063 740.901 57.7598C741.159 57.4134 741.488 57.1263 741.866 56.918Z" fill="#F48E9F"/>
<path d="M756.774 67.4286C757.711 66.6921 758.788 66.1538 759.94 65.8464C761.091 65.539 762.293 65.4688 763.473 65.6402C764.522 65.8352 765.52 66.2444 766.404 66.8422C767.535 67.5561 768.471 68.5379 769.131 69.7006C769.779 71.0546 770.176 72.5147 770.304 74.0102C770.396 74.6273 770.396 75.2548 770.304 75.8718C770.06 76.9854 769.583 78.0346 768.903 78.9495C768.223 79.8644 767.356 80.6241 766.36 81.1782C764.067 82.6204 761.385 83.3215 758.679 83.1864C757.84 83.1821 757.002 83.1135 756.173 82.9812C755.906 82.9475 755.645 82.8785 755.396 82.776L754.223 82.2922L753.696 85.136C753.331 86.6139 753.331 88.1582 753.696 89.6361C753.681 90.1241 753.848 90.6002 754.165 90.9715C754.482 91.3427 754.926 91.5826 755.411 91.6443L755.938 91.7469C757.444 91.8018 758.944 91.5318 760.336 90.9554C761.773 90.3813 763.303 90.0733 764.851 90.0466C765.112 90.0993 765.358 90.2078 765.573 90.3647C765.788 90.5216 765.967 90.7231 766.097 90.9554C766.284 91.201 766.417 91.4833 766.488 91.7838C766.558 92.0844 766.565 92.3965 766.507 92.6997C766.253 94.0874 764.298 95.2894 760.644 96.3057C759.616 96.6049 758.568 96.8254 757.507 96.9654C756.55 96.9812 755.596 96.8828 754.663 96.6722C753.803 96.5501 752.958 96.3389 752.142 96.0419C751.58 95.7458 751.082 95.3424 750.676 94.8545C749.724 93.8163 749.035 92.5645 748.668 91.2046C748.329 90.3252 748.117 89.4023 748.037 88.4634C748.104 87.0754 748.271 85.6939 748.536 84.3298L748.829 82.776C750.187 75.2611 752.836 70.1453 756.774 67.4286ZM764.103 71.5183C763.713 71.0993 763.2 70.8167 762.637 70.7121C761.841 70.6188 761.036 70.7777 760.336 71.1665C759.383 71.8535 758.539 72.6785 757.829 73.6144C757.065 74.4652 756.481 75.4626 756.114 76.5461L755.85 77.6308L757.932 77.9533C759.129 78.1076 760.343 78.058 761.523 77.8067C762.406 77.5046 763.233 77.0588 763.971 76.4875C764.763 75.8865 765.188 75.3734 765.261 75.0216C765.344 74.4153 765.263 73.7978 765.027 73.2333C764.838 72.5958 764.507 72.0095 764.059 71.5183H764.103Z" fill="#F48E9F"/>
<path d="M792.057 73.4531C793.023 72.8822 794.156 72.6597 795.267 72.8227C796.102 72.9324 796.88 73.3034 797.491 73.8827C798.102 74.462 798.514 75.2199 798.668 76.0476C799.021 79.0494 798.817 82.0906 798.067 85.0186C797.304 88.8102 795.712 94.571 793.288 102.301C792.555 104.617 791.441 105.628 789.931 105.335C789.554 105.301 789.19 105.18 788.867 104.981C788.544 104.783 788.271 104.513 788.07 104.192C787.755 103.24 787.755 102.212 788.07 101.26C788.338 99.92 788.69 98.5981 789.125 97.3024C790.631 92.5759 791.899 87.7765 792.922 82.9224C793.391 80.5477 793.493 79.3458 793.229 79.2871C792.966 79.2285 790.928 81.1781 787.659 85.0186C784.39 88.8591 781.503 92.5823 778.937 96.203C778.076 97.4814 777.095 98.6743 776.006 99.765C775.775 100.034 775.482 100.242 775.152 100.372C774.823 100.502 774.467 100.551 774.115 100.513C773.805 100.441 773.512 100.312 773.25 100.131C772.73 99.7794 772.311 99.2984 772.034 98.7357C771.756 98.1729 771.63 97.5476 771.667 96.9212C771.73 94.0523 772.093 91.1978 772.752 88.4047C773.279 85.7662 773.719 83.6407 774.085 81.9989C775.185 77.2056 775.932 74.186 776.357 72.94C776.61 71.9333 777.24 71.0621 778.116 70.5067C778.563 70.2591 779.087 70.191 779.582 70.3161C780.227 70.4438 780.811 70.7845 781.239 71.2836C781.458 71.504 781.624 71.772 781.723 72.067C781.823 72.3619 781.852 72.6757 781.81 72.984C781.547 74.3619 780.975 76.8685 780.125 80.5038C779.538 82.9957 779.201 84.4322 779.128 84.8134C778.893 86.03 778.879 86.6457 779.128 86.6896C779.377 86.7336 780.491 85.4144 782.543 82.7319C786.384 77.748 789.555 74.655 792.057 73.4531Z" fill="#F48E9F"/>
<path d="M825.771 68.396C826.052 68.1836 826.375 68.0332 826.719 67.9549C827.063 67.8766 827.419 67.872 827.765 67.9416C828.126 68.0136 828.465 68.1692 828.755 68.3957C829.045 68.6222 829.278 68.9135 829.436 69.2462C829.654 69.8616 829.71 70.5232 829.597 71.1664C829.494 71.958 829.055 74.2007 828.263 77.8947C826.145 87.0344 824.966 96.3665 824.745 105.746C824.745 107.49 824.657 108.399 824.628 108.487C824.475 108.933 824.23 109.343 823.909 109.689C823.534 110.154 823.021 110.488 822.444 110.642C822.314 110.678 822.177 110.678 822.048 110.642C821.469 110.476 820.952 110.145 820.559 109.689C820.165 109.233 819.914 108.673 819.834 108.076C819.746 107.207 819.717 105.594 819.746 103.239C819.719 101.799 819.792 100.359 819.966 98.9296C820.084 98.3725 820.054 98.0794 819.878 98.0354C819.702 97.9914 818.911 98.6657 817.753 100.088C813.776 104.974 810.116 107.07 806.774 106.376C805.883 106.168 805.045 105.779 804.311 105.233C802.825 103.932 801.879 102.123 801.658 100.161C801.205 97.599 801.269 94.9723 801.848 92.4359C802.052 91.4899 802.321 90.5592 802.655 89.6508C803.496 86.8286 805.23 84.355 807.595 82.6C808.574 81.8585 809.701 81.336 810.9 81.068C812.099 80.7999 813.341 80.7925 814.543 81.0462C815.987 81.379 817.326 82.0639 818.442 83.0398C818.945 83.4668 819.508 83.8174 820.113 84.0805H820.245C820.901 82.7732 821.394 81.3897 821.711 79.9615C822.517 77.3376 823.177 74.8017 823.836 72.3245C824.081 70.8534 824.754 69.487 825.771 68.396ZM815.364 87.2321C814.837 86.6219 814.118 86.2085 813.326 86.0594C812.763 85.9529 812.182 85.9754 811.629 86.1252C811.076 86.275 810.563 86.5482 810.131 86.9243C808.95 87.9277 808.06 89.2283 807.551 90.6915C807.248 91.4247 807.017 92.1857 806.862 92.9636C806.459 94.7763 806.336 96.6398 806.495 98.4898C806.642 100.278 807.052 101.246 807.697 101.422C808.987 101.695 810.766 100.513 813.033 97.8741C814.78 96.1454 816.127 94.0536 816.976 91.7469C817.091 90.9578 816.99 90.1522 816.683 89.4162C816.406 88.6016 815.956 87.8565 815.364 87.2321Z" fill="#F48E9F"/>
<path d="M845.956 84.0368C847.25 83.8277 848.571 83.8575 849.855 84.1248C850.582 84.256 851.274 84.5327 851.891 84.9382C852.509 85.3438 853.037 85.8698 853.446 86.4848C853.834 87.1219 854.085 87.8328 854.184 88.5721C854.282 89.3115 854.226 90.0633 854.018 90.7797C853.49 93.1397 852.552 94.3857 851.086 94.5176C850.776 94.5777 850.458 94.5777 850.148 94.5176C849.8 94.4457 849.474 94.2928 849.197 94.0712C848.919 93.8496 848.697 93.5656 848.55 93.2423C848.204 92.4945 848.132 91.6489 848.345 90.853C848.463 90.5044 848.503 90.1341 848.462 89.7683C848.462 89.5924 848.213 89.4751 847.876 89.4018C846.249 89.388 844.646 89.8025 843.229 90.6038C841.71 91.0891 840.338 91.9514 839.242 93.1104C839.242 93.1104 839.242 93.1983 839.242 93.2423L839.154 93.3449C839.096 93.5599 839.33 93.8091 839.858 94.0925C840.386 94.371 841.969 95.104 844.637 96.2913C846.421 97.0177 848.114 97.9526 849.679 99.0764C850.688 99.9161 851.563 100.905 852.274 102.008C852.998 103.031 853.538 104.172 853.871 105.38C854.109 106.581 854.058 107.822 853.725 109C853.568 109.914 853.207 110.781 852.669 111.536C850.764 113.764 847.334 114.732 842.408 114.468C841.48 114.418 840.556 114.321 839.638 114.175C838.757 113.926 837.903 113.592 837.087 113.178C833.906 111.712 832.235 109.66 832.074 106.963C832.074 106.653 832.104 106.344 832.162 106.039C832.227 105.699 832.366 105.377 832.568 105.096C832.771 104.815 833.032 104.581 833.335 104.412C833.926 104.062 834.631 103.957 835.299 104.119C835.81 104.237 836.277 104.496 836.647 104.867C837.018 105.237 837.277 105.704 837.395 106.215C837.756 107.097 838.436 107.809 839.301 108.209C839.862 108.477 840.452 108.679 841.06 108.81C842.619 109.173 844.236 109.208 845.809 108.912C847.392 108.619 848.272 108.077 848.462 107.256C848.726 106.103 848.081 104.871 846.527 103.562C843.766 101.678 840.75 100.197 837.571 99.1643C836.727 98.8629 835.955 98.3892 835.304 97.7735C834.653 97.1578 834.137 96.4134 833.789 95.5877C833.481 94.5947 833.481 93.5317 833.789 92.5387C834.045 91.3062 834.587 90.1512 835.372 89.1673C836.617 87.8528 838.112 86.8011 839.77 86.0743C841.719 85.0919 843.804 84.4052 845.956 84.0368Z" fill="#F48E9F"/>
<path d="M857.36 116.007C857.467 115.62 857.652 115.258 857.904 114.946C858.156 114.633 858.47 114.376 858.826 114.189C859.187 113.951 859.593 113.79 860.019 113.714C860.445 113.638 860.882 113.65 861.303 113.749C861.675 113.838 862.024 114 862.332 114.227C862.639 114.454 862.897 114.74 863.092 115.069C863.307 115.421 863.446 115.814 863.499 116.223C863.552 116.632 863.518 117.048 863.399 117.443C863.318 117.856 863.153 118.247 862.913 118.593C862.673 118.939 862.365 119.231 862.007 119.452C861.67 119.665 861.294 119.807 860.901 119.87C860.508 119.933 860.106 119.915 859.72 119.818C859.283 119.723 858.875 119.526 858.529 119.243C858.182 118.96 857.908 118.6 857.727 118.191C857.324 117.539 857.192 116.755 857.36 116.007ZM867.738 79.8297C867.874 79.8029 868.013 79.8029 868.149 79.8297C868.665 79.9426 869.142 80.1889 869.533 80.5438C869.924 80.8988 870.215 81.35 870.377 81.8526C870.553 82.4389 870.157 84.7843 869.189 88.83L867.387 96.3938L864.074 109.982L863.077 110.495C862.525 110.835 861.87 110.965 861.23 110.862C860.579 110.687 860.022 110.267 859.676 109.689L858.914 108.619L862.227 94.6934C863.854 87.8479 864.865 83.7875 865.158 82.5269C865.452 81.2662 865.891 80.504 866.272 80.2841C866.727 80.0392 867.225 79.8848 867.738 79.8297Z" fill="#F48E9F"/>
<path d="M2.80129 144.019C4.35509 143.023 5.90889 141.996 7.492 141.088L12.3 138.259C13.9124 137.35 15.5248 136.426 17.1519 135.547L22.1065 132.996C25.4339 131.354 28.7761 129.727 32.1475 128.174C33.8186 127.367 35.5336 126.708 37.2487 125.945C38.9637 125.183 40.6641 124.48 42.3791 123.82C49.2686 121.064 56.1874 118.411 63.2235 116.051C70.2595 113.691 77.3249 111.463 84.4782 109.44C91.6315 107.417 98.8142 105.453 106.041 103.885L111.523 102.741C113.355 102.389 115.188 102.082 117.02 101.744L122.561 100.85C124.408 100.572 126.269 100.352 128.131 100.103C135.622 99.1308 143.166 98.6168 150.72 98.5635C152.64 98.5838 154.558 98.7061 156.466 98.9299C158.404 99.1431 160.328 99.471 162.227 99.9121C166.221 100.787 170.028 102.366 173.47 104.573L173.587 104.661C174.053 104.984 174.412 105.438 174.618 105.966C174.824 106.494 174.868 107.072 174.744 107.625C174.619 108.178 174.332 108.681 173.92 109.069C173.507 109.458 172.988 109.715 172.429 109.807C168.808 110.408 165.334 110.833 161.846 111.272L159.236 111.595C158.357 111.595 157.477 111.756 156.612 111.844C154.868 112.049 153.109 112.167 151.35 112.313L148.712 112.548L146.073 112.738C144.314 112.87 142.54 113.061 140.767 113.222L135.358 113.779L130.051 114.512L119.424 116.08L114.103 116.945L108.797 117.898C101.717 119.203 94.6219 120.522 87.5858 122.09C73.5039 125.198 59.5784 128.965 45.8092 133.392C32.0252 137.745 18.4983 142.874 5.29323 148.754C4.64584 149.047 3.90874 149.071 3.24368 148.821C2.57863 148.571 2.03996 148.067 1.74588 147.42C1.47926 146.834 1.4333 146.172 1.61648 145.555C1.79965 144.938 2.19962 144.409 2.74266 144.063L2.80129 144.019Z" fill="#FFD7C5" stroke="#043866" stroke-width="1.37" stroke-miterlimit="10"/>
<path d="M191.236 95.3676C192.715 94.4224 194.305 93.6642 195.97 93.1102C197.599 92.584 199.259 92.1581 200.94 91.8349C204.267 91.1058 207.651 90.6644 211.054 90.5157C214.404 90.4228 217.754 90.6782 221.051 91.2779C224.36 91.853 227.562 92.9255 230.55 94.4588H230.682C231.529 94.9179 232.159 95.6945 232.434 96.618C232.709 97.5415 232.606 98.5364 232.147 99.384C231.854 99.9191 231.433 100.373 230.921 100.706C230.41 101.038 229.824 101.239 229.216 101.29C223.029 101.651 216.824 101.602 210.643 101.143C207.609 100.996 204.575 100.733 201.555 100.733C198.511 100.844 195.462 100.795 192.423 100.586C191.845 100.528 191.3 100.293 190.861 99.9127C190.423 99.5326 190.112 99.0262 189.973 98.4628C189.833 97.8994 189.871 97.3066 190.081 96.7656C190.292 96.2246 190.664 95.7619 191.148 95.4409L191.236 95.3676Z" fill="white" stroke="#043866" stroke-width="1.37" stroke-miterlimit="10"/>
<path d="M897.216 53.2684C885.788 46.4455 873.912 40.4022 861.67 35.1799C849.43 29.8442 836.897 25.1095 824.203 20.9318C811.508 16.7542 798.594 13.1042 785.534 10.2605C772.507 7.28267 759.279 5.26901 745.956 4.23586C745.54 4.23586 745.141 4.07061 744.847 3.77647C744.553 3.48232 744.387 3.08338 744.387 2.6674C744.387 2.25142 744.553 1.85248 744.847 1.55833C745.141 1.26419 745.54 1.09894 745.956 1.09894H746.088L751.189 0.95236C752.904 0.95236 754.619 0.791117 756.319 0.849751C759.72 0.981677 763.15 1.02565 766.58 1.21621C770.01 1.40677 773.411 1.64131 776.841 1.94914C780.271 2.25696 783.643 2.65274 787.102 3.10715L797.26 4.573C800.632 5.14468 803.974 5.81897 807.345 6.43462L817.401 8.57476C820.743 9.30768 824.056 10.1725 827.384 11.0227C834.009 12.7671 840.576 14.6287 847.172 16.6809C850.471 17.663 853.696 18.8503 856.964 19.9644C860.233 21.0784 863.443 22.2951 866.683 23.5117C869.922 24.7284 873.118 26.033 876.328 27.3376C879.559 28.6437 882.707 30.1466 885.754 31.8377C892.031 35.1795 897.7 39.5553 902.523 44.7811L903.476 45.8512C904.267 46.7279 904.715 47.8612 904.736 49.0421C904.758 50.2229 904.352 51.3718 903.593 52.277C902.835 53.1821 901.774 53.7824 900.608 53.9673C899.441 54.1522 898.247 53.9092 897.246 53.2831L897.216 53.2684Z" fill="#FFD7C5" stroke="#043866" stroke-width="1.06" stroke-miterlimit="10"/>
<path d="M948.345 59.4247C945.648 56.1558 943.039 52.8723 940.107 49.838L937.923 47.522L935.666 45.2939C934.2 43.8281 932.587 42.3622 931.034 40.8964C924.695 35.2102 917.823 30.1491 910.512 25.7835C895.684 17.0848 879.635 10.6613 862.901 6.7275C862.6 6.59078 862.354 6.35625 862.203 6.062C862.052 5.76776 862.005 5.4311 862.069 5.10673C862.134 4.78237 862.306 4.48936 862.558 4.27531C862.81 4.06127 863.128 3.93877 863.458 3.92773C865.627 4.25022 867.856 4.55805 869.966 4.92451C872.077 5.29097 874.261 5.78936 876.431 6.22911L879.656 6.91806L882.866 7.75359C885.006 8.29595 887.146 8.83832 889.242 9.55658C897.769 12.1476 906.034 15.534 913.927 19.6709L919.791 22.9544C921.681 24.1564 923.616 25.3144 925.493 26.5311C927.369 27.7477 929.216 29.067 931.004 30.4156L933.687 32.4824C934.596 33.1567 935.475 33.8456 936.325 34.5932C938.055 36.0591 939.814 37.5249 941.441 38.9908C943.15 40.5414 944.752 42.2065 946.234 43.9746C949.303 47.3517 951.754 51.2415 953.476 55.4669L953.798 56.2731C954.074 56.9823 954.089 57.7665 953.84 58.4858C953.592 59.205 953.095 59.8125 952.44 60.1999C951.785 60.5873 951.014 60.7294 950.264 60.6008C949.514 60.4722 948.834 60.0814 948.345 59.4979V59.4247Z" fill="white" stroke="#043866" stroke-width="1.06" stroke-miterlimit="10"/>
</g>
</g>
<defs>
<clipPath id="clip0_301_3708">
<rect width="955" height="150" fill="white" transform="translate(0.5)"/>
</clipPath>
<clipPath id="clip1_301_3708">
<rect width="954.31" height="150" fill="white" transform="translate(0.5)"/>
</clipPath>
</defs>
</svg>
