<svg width="351" height="75" viewBox="0 0 351 75" fill="none" xmlns="http://www.w3.org/2000/svg">
<path d="M1.54915 70.7504C2.17344 70.4073 2.78648 70.0474 3.4164 69.7099L5.32302 68.7369C5.96418 68.4276 6.59972 68.107 7.24651 67.8089L9.20374 66.9484C10.5142 66.386 11.8303 65.8236 13.1407 65.3286C13.7987 65.0587 14.4736 64.8337 15.1429 64.5975C15.8122 64.3613 16.4871 64.1251 17.162 63.9001C19.8617 63.0002 22.5782 62.1453 25.3228 61.4029C28.0674 60.6605 30.8289 59.9744 33.6129 59.3613C36.3969 58.7483 39.1978 58.1915 42.0493 57.7584L44.1696 57.4491C44.8783 57.3535 45.5926 57.2804 46.3012 57.196L48.4215 56.9767C49.1358 56.9148 49.8557 56.8754 50.57 56.8192C53.4606 56.6222 56.3605 56.5996 59.2538 56.7517C59.9893 56.8047 60.7215 56.8967 61.4473 57.0273C62.1843 57.1538 62.9131 57.3247 63.6295 57.5391C65.1292 57.9633 66.5407 58.6528 67.797 59.575L67.842 59.6088C68.0011 59.7498 68.117 59.9329 68.1762 60.137C68.2355 60.3412 68.2357 60.5579 68.1769 60.7621C68.118 60.9664 68.0025 61.1497 67.8437 61.291C67.6849 61.4323 67.4893 61.5257 67.2796 61.5604C65.8792 61.701 64.5406 61.7854 63.1964 61.8529L62.1841 61.9147C61.8522 61.9147 61.5091 61.9147 61.1717 61.9485C60.5024 61.9878 59.8275 61.9935 59.1526 62.0103H58.1346H57.1166C56.4417 62.0103 55.7556 62.0553 55.075 62.0778L53.0278 62.1903L50.9806 62.3422L46.8749 62.7021L44.8164 62.9102L42.7973 63.2083C40.0527 63.5458 37.3081 63.8832 34.5747 64.3332C29.1023 65.1937 23.6637 66.3129 18.2925 67.7077C12.9137 69.0599 7.6149 70.7123 2.42091 72.657C2.17752 72.7595 1.90393 72.764 1.65732 72.6695C1.41071 72.575 1.21018 72.3888 1.09762 72.1499C0.985065 71.911 0.969203 71.6378 1.05335 71.3875C1.1375 71.1372 1.31514 70.9291 1.54915 70.8066V70.7504Z" fill="#FFD7C5" stroke="#043866" stroke-width="1.37" stroke-miterlimit="10"/>
<path d="M74.8553 56.4591C75.441 56.1278 76.0666 55.8727 76.7169 55.6998C77.3544 55.5386 78.0003 55.4128 78.6516 55.323C79.9426 55.1214 81.2485 55.0311 82.5549 55.053C83.8407 55.0984 85.1184 55.2756 86.3681 55.5817C87.6181 55.876 88.8152 56.3617 89.917 57.0215L89.9676 57.0552C90.2835 57.2495 90.5094 57.5611 90.5958 57.9216C90.6823 58.2822 90.6222 58.6624 90.4288 58.9787C90.3056 59.1753 90.136 59.3385 89.935 59.4542C89.734 59.57 89.5076 59.6346 89.2758 59.6424C86.897 59.6249 84.522 59.4483 82.1668 59.1137C81.0082 58.99 79.8552 58.8156 78.7023 58.7481C77.5341 58.7229 76.3682 58.6347 75.2096 58.4838C74.989 58.449 74.7846 58.3467 74.6245 58.1909C74.4645 58.0351 74.3567 57.8336 74.3159 57.614C74.2752 57.3944 74.3036 57.1675 74.3972 56.9647C74.4908 56.7619 74.6449 56.5931 74.8384 56.4816L74.8553 56.4591Z" fill="white" stroke="#043866" stroke-width="1.37" stroke-miterlimit="10"/>
<path d="M328.523 18.9514C323.862 16.8647 319.066 15.0952 314.166 13.655C309.262 12.1714 304.274 10.93 299.249 9.90815C294.225 8.88627 289.157 8.07336 284.035 7.5782C278.938 7.02845 273.807 6.85514 268.684 7.05969C268.525 7.07837 268.366 7.03332 268.241 6.93444C268.115 6.83557 268.034 6.69097 268.016 6.53247C267.997 6.37396 268.042 6.21452 268.141 6.08923C268.24 5.96394 268.385 5.88306 268.543 5.86438L268.593 5.85845L270.53 5.57354C271.184 5.49653 271.83 5.35808 272.481 5.30407C273.783 5.20163 275.092 5.06437 276.407 4.98296C277.723 4.90155 279.029 4.83821 280.35 4.80149C281.671 4.76477 282.973 4.76419 284.312 4.782L288.249 4.88442C289.559 4.95087 290.863 5.05774 292.175 5.14094L296.103 5.50491C297.409 5.63411 298.71 5.81491 300.017 5.98946C302.62 6.35663 305.206 6.77112 307.811 7.25691C309.112 7.48305 310.394 7.79067 311.69 8.0684C312.985 8.34612 314.263 8.66557 315.552 8.98371C316.841 9.30185 318.118 9.65548 319.399 10.0084C320.689 10.3611 321.956 10.7924 323.193 11.3C325.735 12.2915 328.092 13.7043 330.164 15.4791L330.575 15.844C330.916 16.1426 331.138 16.5543 331.199 17.0033C331.26 17.4523 331.157 17.9083 330.909 18.2873C330.66 18.6662 330.283 18.9426 329.847 19.0655C329.411 19.1883 328.945 19.1493 328.535 18.9557L328.523 18.9514Z" fill="#FFD7C5" stroke="#043866" stroke-width="1.06" stroke-miterlimit="10"/>
<path d="M348.282 19.0018C347.108 17.8773 345.944 16.7459 344.694 15.7095L343.764 14.9244L342.804 14.1768C342.179 13.684 341.499 13.1979 340.841 12.7091C338.17 10.827 335.324 9.20709 332.343 7.87185C326.302 5.22303 319.898 3.49598 313.345 2.74845C313.224 2.70988 313.12 2.63156 313.049 2.52621C312.978 2.42087 312.945 2.2947 312.955 2.16821C312.965 2.04171 313.018 1.92232 313.104 1.82944C313.191 1.73655 313.306 1.67564 313.432 1.65659C314.273 1.68206 315.136 1.69931 315.956 1.74416C316.777 1.78902 317.632 1.88086 318.478 1.95101L319.738 2.06873L320.999 2.24296C321.838 2.35352 322.678 2.46409 323.509 2.64366C326.875 3.2481 330.176 4.16735 333.37 5.38929L335.751 6.37718C336.526 6.75029 337.315 7.10466 338.085 7.48402C338.854 7.86337 339.617 8.28314 340.359 8.71671L341.474 9.38383C341.851 9.59996 342.217 9.82299 342.574 10.0697C343.299 10.5506 344.035 11.0301 344.721 11.5156C345.447 12.0338 346.138 12.5994 346.79 13.2087C348.107 14.3598 349.214 15.7319 350.059 17.2633L350.218 17.556C350.355 17.8139 350.396 18.1121 350.334 18.3973C350.271 18.6825 350.11 18.9363 349.877 19.1133C349.645 19.2903 349.358 19.3791 349.066 19.3638C348.774 19.3485 348.498 19.2301 348.285 19.0297L348.282 19.0018Z" fill="white" stroke="#043866" stroke-width="1.06" stroke-miterlimit="10"/>
<path d="M11.6223 26.4828C11.9105 26.3791 12.2098 26.309 12.5141 26.2738C13.1864 26.1543 13.877 26.1867 14.5352 26.3687C15.1934 26.5508 15.8026 26.8778 16.318 27.3258C16.8699 27.8333 17.3399 28.4232 17.7114 29.0745C18.083 29.6646 18.3406 30.3192 18.4708 31.0043C18.5594 32.1002 18.2169 33.1875 17.5163 34.0349C16.7168 35.1153 15.6609 35.9796 14.4439 36.55C13.5593 36.9402 12.6189 37.1894 11.6571 37.2884C11.3336 37.3342 11.0053 37.3342 10.6818 37.2884L10.2289 37.1909L10.5424 40.0891C10.6891 41.1507 10.7427 42.223 10.7027 43.2939C10.7002 43.5074 10.632 43.7149 10.5073 43.8882C10.3826 44.0615 10.2076 44.1921 10.006 44.2623H9.9154C9.88326 44.2693 9.85 44.2693 9.81786 44.2623C9.52349 44.287 9.22855 44.2217 8.97222 44.0748C8.71588 43.928 8.51027 43.7067 8.38268 43.4402C7.98806 42.1748 7.71054 40.8758 7.55362 39.5597C7.14954 37.2118 6.79423 34.8152 6.47375 32.3698C6.24616 30.5863 6.08825 29.1302 6 28.0016C6.03372 27.7726 6.14722 27.5629 6.32048 27.4094C6.49685 27.1993 6.74531 27.0627 7.01717 27.0262C7.31995 26.9983 7.62243 27.0826 7.86713 27.2631C8.03663 27.4254 8.17201 27.6199 8.26533 27.8353C8.35865 28.0506 8.40802 28.2824 8.41055 28.5171C8.49415 29.1395 8.57775 29.446 8.66136 29.4367C8.73799 29.4367 8.95396 29.1232 9.30231 28.531C9.81015 27.5963 10.6318 26.8709 11.6223 26.4828ZM14.1373 28.8097C13.7964 28.6498 13.4173 28.5895 13.0435 28.6356C12.6661 28.7086 12.3101 28.8663 12.0024 29.0968C11.6947 29.3273 11.4432 29.6246 11.267 29.9662C10.7155 30.9068 10.3711 31.9543 10.2568 33.0386C10.1748 33.4819 10.1398 33.9326 10.1523 34.3832C10.1542 34.4488 10.1701 34.5131 10.1989 34.572C10.2278 34.6309 10.2689 34.6829 10.3195 34.7246C10.461 34.8046 10.6176 34.8544 10.7793 34.8709C11.0838 34.9207 11.3944 34.9207 11.6989 34.8709C12.4686 34.7557 13.2076 34.488 13.8726 34.0837C14.5398 33.7149 15.1215 33.2092 15.5795 32.5997C15.8383 32.2765 15.985 31.878 15.9975 31.4641C15.9804 31.3206 15.9524 31.1785 15.9139 31.0391C15.8089 30.5578 15.5939 30.1072 15.2857 29.7229C14.9775 29.3385 14.5844 29.0307 14.1373 28.8237V28.8097Z" fill="#F48E9F"/>
<path d="M25.5564 30.3986C25.8726 30.2788 26.2026 30.1992 26.5387 30.1617C27.0607 30.107 27.5882 30.1763 28.0784 30.3637C28.5179 30.5518 28.9943 30.6376 29.4718 30.6146C29.6458 30.5897 29.8232 30.603 29.9917 30.6535C30.1601 30.704 30.3155 30.7906 30.4471 30.9072C30.62 31.0333 30.7549 31.2044 30.8373 31.4018C30.9503 31.7616 31.0204 32.1334 31.0463 32.5096C31.2406 34.1107 31.515 35.7012 31.8684 37.2749C32.0868 38.4452 32.4133 39.5927 32.8438 40.7026C32.9119 40.8243 32.9501 40.9604 32.9552 41.0997C32.9743 41.2608 32.9567 41.4241 32.9036 41.5773C32.8505 41.7306 32.7633 41.8698 32.6487 41.9845C32.4333 42.2297 32.1362 42.3882 31.8127 42.4304C31.6829 42.4413 31.5524 42.4246 31.4295 42.3817C31.0904 42.2058 30.8151 41.928 30.6422 41.5874C30.3568 41.1204 30.1431 40.6131 30.0082 40.0826C29.8828 39.5461 29.7714 39.2883 29.6668 39.3023C29.5623 39.3162 29.3394 39.6646 28.9702 40.3543C28.6001 41.1083 28.0893 41.7846 27.4653 42.3468C26.9219 42.7828 26.2636 43.0514 25.5703 43.1201L25.1662 43.1619C24.7116 43.0893 24.2853 42.8942 23.9331 42.5976C23.4847 42.3112 23.1061 41.9279 22.8254 41.476C22.2999 40.5151 21.973 39.4584 21.8639 38.3687C21.8161 37.9525 21.7998 37.5333 21.8152 37.1147C21.8973 35.6447 22.3194 34.2138 23.0483 32.9345C23.5539 31.8163 24.4438 30.9165 25.5564 30.3986ZM27.4374 32.7534C27.2631 32.6673 27.0739 32.6152 26.8801 32.6001C26.6983 32.653 26.5265 32.7354 26.3715 32.844C25.6009 33.3666 25.0232 34.1278 24.7273 35.0107C24.3126 35.9856 24.1543 37.0505 24.2675 38.104C24.3308 38.5787 24.4428 39.0456 24.6019 39.4974C24.686 39.8479 24.8453 40.1759 25.0687 40.4588C25.1094 40.5146 25.1649 40.5579 25.2289 40.5838C25.2929 40.6096 25.3629 40.617 25.431 40.6051C25.9465 40.5494 26.5317 39.8527 27.1727 38.515C27.6604 37.3973 27.9707 36.2102 28.0923 34.9967C28.1649 34.5126 28.1929 34.0229 28.1759 33.5337C28.1434 33.1853 27.8973 32.9252 27.4374 32.7534Z" fill="#F48E9F"/>
<path d="M34.8216 28.8869C35.0422 28.6265 35.3535 28.4596 35.6925 28.4201C35.8545 28.4022 36.0185 28.4176 36.1743 28.4656C36.33 28.5135 36.4743 28.5929 36.5982 28.6988C36.7119 28.7808 36.808 28.8846 36.881 29.0043C36.954 29.1239 37.0023 29.2569 37.0232 29.3955C37.0232 29.4373 37.0232 29.6881 37.0232 30.1479V31.2487L37.9776 30.0783C38.3766 29.5526 38.8454 29.0839 39.371 28.6849C39.8245 28.3926 40.3446 28.22 40.8828 28.1833C41.0794 28.1606 41.2771 28.149 41.475 28.1484C42.9242 28.1484 43.8856 28.4829 44.3524 29.1517C44.4475 29.2792 44.5062 29.4302 44.5221 29.5885C44.5381 29.7468 44.5107 29.9065 44.4429 30.0504C44.359 30.2851 44.2105 30.4914 44.0146 30.6455C43.8186 30.7995 43.5831 30.8951 43.3352 30.9213C43.0606 30.9489 42.7834 30.9349 42.5131 30.8795C42.0956 30.7818 41.6666 30.7419 41.2382 30.761C40.5786 30.8307 39.9934 31.4786 39.4825 32.7048C39.1744 33.6424 38.962 34.6087 38.8485 35.5891C38.6817 36.5362 38.6187 37.4987 38.6604 38.4595C38.6545 38.5057 38.6545 38.5525 38.6604 38.5988C38.6604 38.6545 38.6604 38.6894 38.6604 38.7103C38.6927 38.8098 38.7138 38.9126 38.7231 39.0168C38.7161 39.3151 38.6135 39.6033 38.4305 39.8389C38.3287 40.0044 38.1903 40.1444 38.0261 40.2482C37.8619 40.352 37.6761 40.417 37.483 40.4381C37.221 40.4425 36.963 40.3729 36.7387 40.2374C36.5144 40.1018 36.3329 39.9057 36.215 39.6717C35.6437 38.8078 35.1351 36.7177 34.6893 33.4015C34.536 32.3216 34.4524 31.6598 34.4245 31.4089C34.3559 30.856 34.3559 30.2968 34.4245 29.7439C34.4694 29.4253 34.6076 29.1271 34.8216 28.8869Z" fill="#F48E9F"/>
<path d="M50.9724 22.8393C51.0004 22.7091 51.0551 22.5861 51.133 22.4782C51.211 22.3703 51.3105 22.2797 51.4253 22.2122C51.6707 22.0479 51.9533 21.9473 52.2474 21.9196C52.492 21.895 52.7388 21.9355 52.9627 22.037C53.1867 22.1386 53.3797 22.2976 53.5223 22.4979C53.648 22.6306 53.7305 22.7981 53.7592 22.9786C53.7619 23.1494 53.7455 23.32 53.7104 23.4872C53.6281 24.0007 53.6001 24.5214 53.6268 25.0408V25.9813L54.5256 25.8072C54.7 25.7676 54.8769 25.7397 55.055 25.7236C55.3533 25.7077 55.6481 25.7937 55.8911 25.9674C56.0465 26.0688 56.1755 26.2057 56.2676 26.3668C56.3596 26.5279 56.4121 26.7086 56.4206 26.894C56.4342 27.0854 56.4201 27.2779 56.3788 27.4653C56.2464 27.8763 55.6403 28.162 54.5743 28.4128L53.6756 28.6218V29.5623C53.627 32.255 53.727 34.9483 53.9752 37.63C54.0566 38.3237 54.0985 39.0216 54.1006 39.7201C54.0856 39.9764 53.9878 40.2209 53.8219 40.4168C53.7327 40.547 53.6171 40.6571 53.4827 40.7399C53.3483 40.8227 53.1981 40.8764 53.0416 40.8975C52.7251 40.9032 52.4167 40.7971 52.1707 40.5979C51.9695 40.4645 51.8178 40.2687 51.7388 40.0405C51.6153 39.4653 51.5223 38.8839 51.4601 38.2988L51.3974 37.6439C51.2999 36.5223 51.2093 35.0383 51.1396 33.199C51.07 31.3598 51.0491 30.1754 51.0839 29.6459L51.1327 29.0746L50.2688 29.2767C49.5721 29.423 49.0914 29.5414 48.7221 29.639C48.6135 29.6731 48.5013 29.6942 48.3877 29.7017C48.2477 29.7021 48.1091 29.6746 47.9799 29.6207C47.8507 29.5669 47.7335 29.4878 47.6353 29.3881C47.4759 29.2547 47.3455 29.09 47.2521 28.9043C47.1586 28.7186 47.1041 28.5158 47.0919 28.3083C47.0492 28.1245 47.0564 27.9327 47.1128 27.7526C47.1691 27.5726 47.2725 27.4108 47.4123 27.2841C48.0132 27.0033 48.6599 26.8333 49.3213 26.7825C49.8831 26.725 50.4397 26.6248 50.9864 26.483C51.0637 25.9283 51.0637 25.3656 50.9864 24.8109C50.9321 24.155 50.9275 23.4959 50.9724 22.8393Z" fill="#F48E9F"/>
<path d="M59.3316 22.5122C59.5375 22.27 59.825 22.1114 60.1398 22.0664C60.3111 22.0547 60.483 22.0784 60.6447 22.1359C60.8065 22.1935 60.9548 22.2836 61.0803 22.4008C61.2147 22.5063 61.3265 22.6378 61.4091 22.7874C61.4917 22.937 61.5433 23.1017 61.561 23.2716C61.5571 23.6473 61.4241 24.0101 61.1843 24.2994C60.9446 24.5886 60.6127 24.7866 60.2443 24.8601C59.8972 24.872 59.5588 24.7498 59.2994 24.5189C59.0399 24.288 58.8793 23.9661 58.8509 23.62C58.8467 23.4116 58.8874 23.2048 58.9704 23.0136C59.0533 22.8225 59.1765 22.6515 59.3316 22.5122ZM60.1398 26.2813C60.2249 26.1781 60.3311 26.0943 60.4513 26.0355C60.5714 25.9766 60.7027 25.944 60.8364 25.9399C61.0489 25.9145 61.2644 25.9384 61.4662 26.0097C61.6679 26.0809 61.8506 26.1977 61.9999 26.351C62.2329 26.7383 62.3713 27.1751 62.404 27.6259C62.5108 28.2715 62.6966 29.8646 62.9614 32.4052L63.5814 38.1111L63.2052 38.4873C63.007 38.7225 62.7242 38.8701 62.4179 38.8984C62.1945 38.9116 61.9721 38.8585 61.7787 38.7457C61.5853 38.6329 61.4296 38.4654 61.3311 38.2644C61.1918 38.0624 60.8992 36.0629 60.4672 32.2589C60.2373 30.1689 60.084 28.7755 60.0283 27.9882C59.9191 27.4191 59.9574 26.8314 60.1398 26.2813Z" fill="#F48E9F"/>
<path d="M68.7435 23.7311C68.9776 23.6294 69.2273 23.5681 69.482 23.5499C70.195 23.5177 70.8962 23.74 71.4605 24.177C72.1816 24.719 72.7739 25.4137 73.1953 26.2113C73.4478 26.5948 73.6382 27.0156 73.7596 27.4584C73.7031 27.759 73.5574 28.0358 73.3416 28.2526C73.056 28.6219 72.8261 28.81 72.6449 28.8239C72.1851 28.8239 71.6138 28.3432 70.9311 27.2842C70.4364 26.476 70.0323 26.0929 69.7188 26.1138C69.4053 26.1347 69.1754 26.4203 68.841 26.9916C67.9962 28.6048 67.6656 30.438 67.8935 32.2446C67.9114 32.5271 67.944 32.8085 67.991 33.0876C68.065 33.9063 68.2819 34.7057 68.632 35.4494C68.7257 35.6523 68.8797 35.8213 69.0729 35.9335C69.2661 36.0457 69.4892 36.0956 69.7119 36.0764C70.6411 35.8805 71.5003 35.4377 72.199 34.7945C72.5727 34.4546 73.0144 34.1981 73.4949 34.0421C73.5781 34.0304 73.6625 34.0304 73.7457 34.0421C73.9172 34.0739 74.0789 34.1452 74.2179 34.2504C74.357 34.3557 74.4697 34.4919 74.5469 34.6482C74.654 34.804 74.7297 34.9791 74.7698 35.1638C74.7575 35.3448 74.7052 35.5209 74.6166 35.6793C74.3286 36.3481 73.4508 37.082 71.9831 37.8809C71.3411 38.2447 70.6282 38.4657 69.893 38.5288C69.0753 38.6021 68.2592 38.3714 67.6009 37.8809C66.8696 37.3103 66.3181 36.5411 66.0124 35.6654C65.6954 34.6375 65.5219 33.5708 65.4969 32.4954C65.3517 30.9932 65.4387 29.4776 65.7547 28.0018C66.0414 26.8247 66.6051 25.7332 67.3988 24.8179C67.7573 24.3569 68.2175 23.9849 68.7435 23.7311Z" fill="#F48E9F"/>
<path d="M77.0207 21.2162C77.2347 20.9791 77.5261 20.826 77.8428 20.7842C78.1862 20.7819 78.5183 20.9065 78.7754 21.1341C79.0326 21.3617 79.1967 21.6762 79.2361 22.0174C79.2285 22.3933 79.0901 22.7548 78.8446 23.0396C78.5992 23.3244 78.2622 23.5148 77.8915 23.5779C77.6595 23.5933 77.4282 23.5401 77.2262 23.4249C77.0243 23.3097 76.8607 23.1376 76.7559 22.93C76.6354 22.7446 76.5657 22.5308 76.5539 22.31C76.5508 22.1051 76.5907 21.9019 76.6711 21.7135C76.7515 21.5251 76.8706 21.3556 77.0207 21.2162ZM77.7661 24.9992C77.857 24.8948 77.9695 24.8115 78.0959 24.755C78.2222 24.6984 78.3593 24.67 78.4977 24.6717C78.7107 24.65 78.9258 24.6777 79.1263 24.7526C79.3269 24.8276 79.5075 24.9477 79.6542 25.1037C79.8778 25.4933 80.0067 25.93 80.0304 26.3786C80.1279 27.0335 80.2881 28.6313 80.5111 31.1719L81.0266 36.8917L80.6435 37.2609C80.44 37.4899 80.1548 37.63 79.8492 37.6511C79.6256 37.6606 79.4042 37.6034 79.2132 37.4868C79.0221 37.3702 78.8701 37.1994 78.7763 36.9962C78.637 36.8011 78.3792 34.7947 78.0169 30.9838C77.8219 28.8798 77.6988 27.4539 77.6477 26.7061C77.5446 26.1361 77.5854 25.5495 77.7661 24.9992Z" fill="#F48E9F"/>
<path d="M88.3776 24.1284C88.6778 24.0219 88.9928 23.9632 89.3112 23.9542C90.1505 23.9116 90.977 24.1739 91.6381 24.6927C92.3819 25.2557 92.938 26.0304 93.2336 26.9151C93.4438 27.5477 93.5634 28.2068 93.5889 28.8728V29.2142C93.6525 29.9788 93.5429 30.748 93.2684 31.4645C92.757 32.615 91.9341 33.5996 90.8927 34.307C89.7505 35.1048 88.4473 35.6422 87.0748 35.8815L86.204 36.0209L86.4408 39.3023L86.6498 42.5558L86.1413 43.0574C85.9306 43.3128 85.6417 43.4915 85.3192 43.566C85.1509 43.5534 84.987 43.5067 84.8373 43.4289C84.6876 43.351 84.5553 43.2436 84.4483 43.1132C84.1704 42.8944 83.9861 42.578 83.9327 42.2284L83.884 41.4202C83.7725 39.3069 83.5821 36.339 83.3127 32.5165C83.048 28.6917 82.8877 26.6713 82.832 26.4692C82.8049 26.3573 82.7886 26.2429 82.7832 26.1279C82.811 25.8266 82.9531 25.5474 83.1803 25.3476C83.5356 24.9992 83.8004 24.8111 83.9676 24.8041C84.2993 24.8263 84.6105 24.9731 84.8384 25.2152C85.1036 25.3956 85.2865 25.6736 85.347 25.9885C85.347 26.2393 85.4237 26.3578 85.5282 26.3508C85.6327 26.3438 85.772 26.2045 85.9462 25.9258C86.2298 25.5261 86.584 25.1814 86.9912 24.9087C87.4117 24.5806 87.879 24.3175 88.3776 24.1284ZM90.1194 26.8315C90.0501 26.7413 89.963 26.6663 89.8636 26.6111C89.7641 26.556 89.6543 26.5219 89.5411 26.511C89.3471 26.5461 89.1593 26.6095 88.9838 26.6991C88.2126 27.1803 87.6392 27.9218 87.3674 28.7892C87.0672 29.5046 86.8339 30.2462 86.6707 31.0047C86.4883 31.6609 86.3877 32.3372 86.3712 33.0181C86.3712 33.1853 86.4199 33.2829 86.4826 33.3107C86.6606 33.3334 86.8413 33.3168 87.0121 33.262C88.1268 33.0363 89.154 32.4973 89.9731 31.7083C90.3222 31.4043 90.6033 31.0299 90.7978 30.6097C90.9923 30.1895 91.0958 29.7329 91.1017 29.2699C91.0602 28.8064 90.945 28.3525 90.7603 27.9253C90.6335 27.5163 90.4142 27.142 90.1194 26.8315Z" fill="#F48E9F"/>
<path d="M100.451 24.4975C100.778 24.4011 101.114 24.345 101.454 24.3303C101.979 24.3136 102.5 24.4235 102.973 24.6507C103.406 24.8697 103.882 24.9887 104.367 24.9991C104.544 24.9895 104.721 25.0175 104.887 25.0811C105.052 25.1447 105.203 25.2426 105.328 25.3683C105.487 25.5095 105.607 25.6895 105.676 25.8909C105.759 26.2591 105.801 26.6352 105.802 27.0125C105.87 28.6242 106.023 30.2312 106.262 31.8267C106.385 33.0069 106.618 34.1731 106.958 35.3101C107.017 35.4365 107.046 35.5748 107.042 35.7142C107.05 35.8775 107.02 36.0404 106.955 36.1903C106.89 36.3402 106.791 36.4729 106.666 36.5781C106.435 36.8078 106.127 36.9442 105.802 36.9613C105.672 36.9631 105.543 36.9344 105.426 36.8777C105.093 36.6827 104.834 36.3841 104.687 36.0277C104.436 35.5413 104.26 35.0199 104.165 34.481C104.081 33.9446 103.99 33.6729 103.886 33.6799C103.781 33.6868 103.531 34.0212 103.14 34.6831C102.714 35.4049 102.153 36.0387 101.489 36.5502C100.917 36.9501 100.237 37.1685 99.5385 37.1772H99.1344C98.6804 37.0599 98.2679 36.8187 97.9431 36.4805C97.5197 36.1592 97.1705 35.7505 96.919 35.2822C96.4787 34.2823 96.2419 33.2047 96.2223 32.1123C96.2014 31.6939 96.2154 31.2744 96.2641 30.8583C96.4532 29.3876 96.9802 27.9808 97.8038 26.7478C98.3988 25.7136 99.3346 24.9181 100.451 24.4975ZM102.158 26.9707C102.011 26.84 101.822 26.7677 101.625 26.7677C101.429 26.7677 101.239 26.84 101.092 26.9707C100.281 27.4288 99.6456 28.1448 99.2877 29.0051C98.7989 29.9461 98.5591 30.9966 98.591 32.0566C98.6169 32.528 98.694 32.9952 98.8209 33.4499C98.8838 33.8079 99.0189 34.1492 99.218 34.4532C99.2574 34.5102 99.3107 34.5562 99.3729 34.5867C99.4351 34.6172 99.5042 34.6312 99.5734 34.6274C100.096 34.6274 100.73 33.9307 101.468 32.6697C102.037 31.6044 102.436 30.4575 102.653 29.2698C102.765 28.7944 102.831 28.309 102.848 27.8207C102.827 27.6274 102.752 27.4442 102.629 27.2934C102.507 27.1425 102.343 27.0304 102.158 26.9707Z" fill="#F48E9F"/>
<path d="M113.478 19.133C113.512 19.0052 113.574 18.8862 113.658 18.784C113.742 18.6819 113.847 18.5989 113.966 18.5408C114.22 18.3927 114.507 18.309 114.802 18.2969C115.049 18.2874 115.294 18.3437 115.511 18.46C115.729 18.5763 115.912 18.7484 116.042 18.9588C116.159 19.0987 116.23 19.2716 116.244 19.4534C116.241 19.6233 116.215 19.792 116.167 19.9551C116.054 20.4606 115.993 20.9766 115.986 21.4947L115.951 22.4422L116.857 22.3238C117.034 22.2943 117.214 22.278 117.393 22.275C117.693 22.2779 117.982 22.3809 118.216 22.5676C118.364 22.6782 118.483 22.8225 118.564 22.9885C118.645 23.1545 118.686 23.3374 118.682 23.5221C118.685 23.7158 118.657 23.9086 118.599 24.0934C118.445 24.4905 117.825 24.7901 116.746 24.9294L115.84 25.0757L115.77 26.0232C115.547 28.704 115.475 31.3951 115.554 34.0839C115.593 34.7801 115.593 35.4779 115.554 36.174C115.528 36.4355 115.415 36.6807 115.234 36.8707C115.138 36.9962 115.016 37.0996 114.876 37.1742C114.737 37.2487 114.583 37.2925 114.426 37.3026C114.097 37.2921 113.785 37.1606 113.548 36.9334C113.359 36.7849 113.222 36.5798 113.158 36.3482C113.069 35.7687 113.011 35.185 112.983 34.5995V33.9446C112.983 32.816 112.983 31.325 112.983 29.4858C112.983 27.6465 113.081 26.4621 113.151 25.9396L113.227 25.3753L112.356 25.5216C111.66 25.6261 111.172 25.7097 110.796 25.7863C110.681 25.811 110.565 25.825 110.447 25.8282C110.179 25.8003 109.931 25.6736 109.751 25.4728C109.601 25.3271 109.483 25.1525 109.403 24.9598C109.322 24.767 109.282 24.56 109.284 24.3512C109.252 24.166 109.27 23.9755 109.338 23.8C109.405 23.6245 109.519 23.4707 109.667 23.3549C110.281 23.1098 110.936 22.9799 111.597 22.9717C112.165 22.9452 112.73 22.8659 113.283 22.7348C113.394 22.1873 113.432 21.6273 113.394 21.0698C113.376 20.423 113.404 19.7758 113.478 19.133Z" fill="#F48E9F"/>
<path d="M123.699 22.9581C124.068 22.5272 124.52 22.1759 125.029 21.9256C125.538 21.6753 126.093 21.5312 126.66 21.5021C127.155 21.4981 127.647 21.5978 128.102 21.7947C128.698 22.0151 129.228 22.3845 129.641 22.8676C130.071 23.4366 130.394 24.0786 130.596 24.7626C130.689 25.0458 130.736 25.3422 130.735 25.6404C130.726 26.1819 130.602 26.7153 130.372 27.2053C130.141 27.6953 129.809 28.1308 129.398 28.4829C128.465 29.3673 127.283 29.9437 126.012 30.1341C125.619 30.2118 125.22 30.2607 124.82 30.2804C124.695 30.2963 124.569 30.2963 124.444 30.2804L123.845 30.1619V31.5553C123.813 32.2748 123.954 32.9916 124.256 33.6454C124.337 33.8736 124.468 34.0807 124.639 34.2515C124.857 34.3543 125.095 34.409 125.336 34.4117H125.587C126.299 34.295 126.979 34.0265 127.579 33.6245C128.184 33.2131 128.859 32.9178 129.572 32.7536C129.697 32.7515 129.822 32.7773 129.936 32.8291C130.051 32.8809 130.152 32.9574 130.234 33.0532C130.344 33.1513 130.433 33.2714 130.494 33.4058C130.555 33.5401 130.587 33.6858 130.589 33.8335C130.589 34.5023 129.785 35.2454 128.178 36.0629C127.73 36.3006 127.264 36.5033 126.785 36.669C126.343 36.7636 125.892 36.8057 125.44 36.7944C125.026 36.818 124.611 36.7993 124.2 36.7387C123.908 36.6519 123.634 36.5126 123.392 36.3276C122.863 35.9363 122.432 35.4286 122.131 34.8437C121.891 34.465 121.706 34.0546 121.581 33.6245C121.48 32.9719 121.427 32.313 121.42 31.6528V30.8656C121.351 27.2289 122.11 24.593 123.699 22.9581ZM127.482 24.1843C127.263 24.0265 126.999 23.9434 126.729 23.9474C126.35 23.9781 125.989 24.1267 125.698 24.3724C125.313 24.7829 124.998 25.2536 124.765 25.7658C124.487 26.2327 124.309 26.7523 124.242 27.2916V27.828L125.245 27.7792C125.817 27.7415 126.378 27.6048 126.903 27.3752C127.286 27.1506 127.629 26.866 127.921 26.5322C128.164 26.3106 128.326 26.0137 128.38 25.6892C128.356 25.4009 128.26 25.1232 128.102 24.881C127.95 24.605 127.738 24.3669 127.482 24.1843Z" fill="#F48E9F"/>
<path d="M145.749 23.6547C146.077 23.5719 146.414 23.5298 146.752 23.5293C147.277 23.5407 147.791 23.6718 148.257 23.9125C148.667 24.1533 149.128 24.2964 149.602 24.3305C149.885 24.3376 150.158 24.4327 150.384 24.6025C150.61 24.7723 150.777 25.0085 150.863 25.278C150.931 25.65 150.957 26.0287 150.94 26.4066C150.937 28.0191 151.018 29.6307 151.183 31.2347C151.258 32.4114 151.447 33.5781 151.748 34.7181C151.798 34.849 151.817 34.9897 151.803 35.1292C151.804 35.2917 151.767 35.4522 151.696 35.5983C151.624 35.7444 151.521 35.8723 151.392 35.9722C151.151 36.1892 150.839 36.3106 150.515 36.3136C150.383 36.3108 150.254 36.2774 150.138 36.216C149.818 36.0059 149.574 35.6981 149.442 35.3382C149.21 34.8398 149.058 34.3087 148.989 33.7637C148.933 33.2203 148.849 32.9485 148.745 32.9485C148.64 32.9485 148.376 33.276 147.958 33.9169C147.497 34.6193 146.909 35.229 146.223 35.7144C145.631 36.0853 144.942 36.272 144.244 36.2509H143.84C143.399 36.1277 142.999 35.8869 142.684 35.5542C142.273 35.2151 141.942 34.7892 141.715 34.3071C141.314 33.2897 141.117 32.2029 141.137 31.1093C141.138 30.6894 141.171 30.2703 141.235 29.8552C141.492 28.3955 142.083 27.015 142.962 25.8214C143.601 24.7884 144.591 24.0194 145.749 23.6547ZM147.331 26.1976C147.169 26.0915 146.99 26.0159 146.801 25.9747C146.614 26.0092 146.433 26.0727 146.265 26.1628C145.44 26.59 144.777 27.2749 144.377 28.1135C143.849 29.0349 143.564 30.0753 143.548 31.1372C143.557 31.606 143.613 32.0727 143.715 32.5305C143.762 32.8905 143.883 33.2368 144.07 33.5477C144.106 33.6062 144.156 33.6544 144.216 33.6874C144.276 33.7205 144.343 33.7371 144.412 33.7358C144.934 33.7358 145.596 33.1158 146.397 31.8687C147.014 30.8185 147.463 29.6785 147.728 28.4897C147.861 28.0187 147.947 27.5356 147.986 27.0476C147.967 26.8587 147.896 26.6788 147.78 26.5285C147.664 26.3781 147.509 26.2635 147.331 26.1976Z" fill="#F48E9F"/>
<path d="M162.016 22.6514C162.425 22.306 162.937 22.1074 163.472 22.0871C163.871 22.0704 164.265 22.1799 164.597 22.4001C164.93 22.6202 165.185 22.9398 165.325 23.3133C165.741 24.6962 165.897 26.1443 165.785 27.584C165.748 29.4418 165.486 32.2704 164.998 36.0697C164.852 37.2123 164.413 37.7835 163.681 37.7696C163.502 37.7837 163.322 37.7565 163.156 37.6901C162.989 37.6236 162.84 37.5197 162.72 37.3864C162.499 36.9774 162.409 36.5105 162.462 36.0488C162.477 35.4006 162.531 34.7539 162.622 34.112C162.966 31.3577 163.156 29.0099 163.193 27.0685C163.193 25.9189 163.159 25.3407 163.033 25.3407C162.908 25.3407 162.121 26.3648 160.943 28.434C159.766 30.5031 158.7 32.4887 157.808 34.3976C157.513 35.066 157.157 35.7052 156.742 36.3066C156.657 36.4512 156.537 36.5726 156.394 36.66C156.25 36.7475 156.088 36.7984 155.92 36.8082C155.769 36.8058 155.619 36.7726 155.481 36.7106C155.205 36.5875 154.967 36.3939 154.789 36.1493C154.612 35.9047 154.502 35.6178 154.471 35.3173C154.258 33.9675 154.188 32.5991 154.262 31.2347C154.262 29.9597 154.318 28.9216 154.352 28.1344C154.459 25.8121 154.559 24.3328 154.652 23.6965C154.686 23.2033 154.908 22.7419 155.272 22.4076C155.469 22.2525 155.719 22.1801 155.969 22.2056C156.282 22.2058 156.586 22.3168 156.826 22.5191C156.945 22.6035 157.044 22.7136 157.115 22.8415C157.187 22.9693 157.228 23.1115 157.237 23.2576C157.237 23.9542 157.167 25.1526 157.077 26.9291C157.007 28.1344 156.979 28.838 156.972 29.0192C156.972 29.6044 156.972 29.897 157.111 29.897C157.251 29.897 157.641 29.2003 158.372 27.7582C159.729 25.134 160.943 23.4317 162.016 22.6514Z" fill="#F48E9F"/>
<path d="M177.281 17.4261C177.396 17.3052 177.534 17.2093 177.688 17.1446C177.841 17.0798 178.007 17.0476 178.173 17.0499C178.348 17.0506 178.521 17.0934 178.676 17.1746C178.831 17.2559 178.965 17.3732 179.065 17.5167C179.224 17.7844 179.308 18.09 179.309 18.4015C179.309 18.7777 179.309 19.8646 179.253 21.662C179.029 26.1144 179.262 30.578 179.95 34.9827C180.068 35.8048 180.124 36.2368 180.124 36.2786C180.088 36.4993 180.008 36.7103 179.887 36.8986C179.747 37.15 179.533 37.352 179.274 37.4769C179.212 37.4896 179.148 37.4896 179.086 37.4769C178.807 37.4585 178.54 37.3511 178.327 37.1703C178.087 37.0015 177.912 36.7556 177.832 36.4736C177.645 35.7292 177.496 34.9758 177.386 34.2164C177.248 33.5457 177.159 32.8657 177.121 32.182C177.121 31.9103 177.121 31.778 177.003 31.771C176.884 31.764 176.606 32.1472 176.188 32.9066C174.748 35.5401 173.21 36.8313 171.576 36.7802C171.145 36.7553 170.724 36.6464 170.335 36.4597C169.53 35.9721 168.934 35.2024 168.663 34.3C168.233 33.1428 168.041 31.9105 168.099 30.6772C168.113 30.21 168.16 29.7445 168.238 29.2838C168.415 27.9125 169.026 26.6335 169.98 25.6331C170.375 25.2038 170.857 24.8645 171.394 24.6385C171.932 24.4124 172.512 24.305 173.094 24.3234C173.819 24.3392 174.527 24.5433 175.15 24.9156C175.418 25.0735 175.71 25.1886 176.013 25.2569H176.076C176.288 24.5792 176.41 23.8765 176.438 23.1669C176.599 21.878 176.717 20.6239 176.794 19.4117C176.762 18.7168 176.932 18.0274 177.281 17.4261ZM174.028 27.1798C173.729 26.9393 173.359 26.8046 172.976 26.7966C172.706 26.8008 172.441 26.8656 172.2 26.9862C171.959 27.1068 171.748 27.2801 171.583 27.4933C171.118 28.044 170.805 28.707 170.677 29.4162C170.599 29.7876 170.557 30.1655 170.551 30.5448C170.516 31.4255 170.614 32.3065 170.844 33.1574C171.067 33.9795 171.339 34.3975 171.652 34.4045C172.279 34.4045 173.011 33.7078 173.847 32.3144C174.507 31.3663 174.95 30.2838 175.143 29.1445C175.14 28.7687 175.037 28.4004 174.843 28.0785C174.642 27.7218 174.363 27.4146 174.028 27.1798Z" fill="#F48E9F"/>
<path d="M195.667 24.6512C196.114 24.558 196.569 24.509 197.026 24.5049C197.809 24.5873 198.543 24.9251 199.116 25.4663C199.311 25.6813 199.548 25.8543 199.812 25.9749C199.938 25.9749 200.161 26.1421 200.509 26.4486C200.641 26.5424 200.75 26.664 200.83 26.8049C200.909 26.9458 200.957 27.1025 200.969 27.2638C200.969 27.3056 200.934 27.5076 200.871 27.8838C200.772 28.5226 200.589 29.1457 200.328 29.737C200.139 30.224 200.022 30.7355 199.98 31.2558C199.914 31.8828 199.805 33.6246 199.652 36.481C199.492 39.4907 199.339 41.4205 199.213 42.2844C199.113 43.0648 198.877 43.8216 198.516 44.5208C198.136 45.1433 197.595 45.6513 196.949 45.9908C196.339 46.3539 195.638 46.533 194.929 46.5064C194.432 46.4888 193.945 46.3639 193.501 46.1402C193.057 45.9165 192.667 45.5993 192.358 45.2105C192.088 44.9549 191.917 44.6117 191.877 44.2421C191.882 44.115 191.9 43.9889 191.933 43.8659C192.044 43.2459 192.344 42.9463 192.825 42.9741C193.244 43.0293 193.632 43.2259 193.925 43.5315C194.218 43.833 194.608 44.0207 195.026 44.061C195.723 44.1028 196.21 43.6499 196.58 42.6676C196.859 41.5556 197.004 40.4142 197.012 39.2677L197.088 37.8744L197.242 33.8336L196.433 34.3561C195.94 34.683 195.409 34.9497 194.852 35.1503C194.357 35.3105 194.113 35.436 194.106 35.5196C194.099 35.6032 193.863 35.631 193.41 35.6032C192.971 35.5691 192.549 35.4231 192.183 35.1791C191.817 34.9352 191.52 34.6014 191.32 34.2098C190.882 33.415 190.69 32.508 190.769 31.6042C190.865 30.0147 191.401 28.4831 192.316 27.1802C192.68 26.5587 193.164 26.0153 193.739 25.5813C194.314 25.1473 194.969 24.8312 195.667 24.6512ZM197.353 30.1132C197.627 29.6647 197.782 29.1542 197.806 28.6293C197.845 28.2204 197.757 27.8094 197.555 27.4519C197.471 27.2991 197.348 27.171 197.199 27.0805C197.05 26.99 196.879 26.9403 196.705 26.9363C196.274 26.9738 195.865 27.1442 195.535 27.424C195.059 27.7472 194.648 28.1559 194.322 28.6293C193.639 29.5513 193.242 30.6535 193.18 31.7992C193.138 32.5935 193.312 32.9975 193.709 33.0184C194.415 32.9007 195.065 32.5644 195.569 32.057C196.278 31.5237 196.882 30.8648 197.353 30.1132Z" fill="#F48E9F"/>
<path d="M206.041 24.8531C206.443 24.4538 206.922 24.1405 207.449 23.9321C207.976 23.7237 208.54 23.6246 209.106 23.6409C209.593 23.6793 210.067 23.8168 210.5 24.045C211.072 24.3186 211.568 24.7304 211.942 25.2433C212.328 25.8454 212.6 26.5139 212.743 27.2149C212.808 27.505 212.83 27.8033 212.806 28.0997C212.755 28.6388 212.589 29.1607 212.32 29.6306C212.051 30.1004 211.684 30.5072 211.245 30.8238C210.244 31.6395 209.015 32.1261 207.727 32.2171C207.331 32.2643 206.933 32.2806 206.535 32.2659C206.408 32.2606 206.282 32.242 206.159 32.2102L205.574 32.043L205.483 33.4363C205.396 34.142 205.477 34.8583 205.72 35.5264C205.777 35.7622 205.892 35.9801 206.055 36.1604C206.25 36.2782 206.469 36.3519 206.696 36.3764H206.946C207.679 36.3206 208.392 36.1092 209.036 35.7563C209.683 35.3934 210.392 35.157 211.127 35.0596C211.253 35.0678 211.376 35.1039 211.487 35.1653C211.598 35.2268 211.694 35.312 211.767 35.4149C211.967 35.6327 212.073 35.9208 212.06 36.2161C212.011 36.9128 211.154 37.5608 209.475 38.2435C209.005 38.4426 208.521 38.6056 208.026 38.7312C207.577 38.7846 207.124 38.7846 206.675 38.7312C206.26 38.7151 205.847 38.6615 205.442 38.571C205.158 38.4638 204.898 38.303 204.675 38.0972C204.17 37.6561 203.777 37.1024 203.526 36.4809C203.318 36.0856 203.166 35.6636 203.073 35.2268C203.025 34.5658 203.025 33.9023 203.073 33.2413L203.122 32.4958C203.354 28.9009 204.327 26.3533 206.041 24.8531ZM209.691 26.3789C209.495 26.2099 209.252 26.1053 208.995 26.0793C208.615 26.0806 208.245 26.1999 207.936 26.4207C207.521 26.7943 207.168 27.2318 206.891 27.7165C206.559 28.1563 206.326 28.6625 206.208 29.2005L206.138 29.73L207.141 29.7648C207.714 29.7725 208.284 29.683 208.827 29.5001C209.228 29.3064 209.595 29.05 209.914 28.7407C210.173 28.5393 210.357 28.2573 210.437 27.9395C210.437 27.6501 210.365 27.3652 210.228 27.1104C210.105 26.8302 209.922 26.5805 209.691 26.3789Z" fill="#F48E9F"/>
<path d="M220.274 21.7943C220.321 21.6712 220.393 21.5596 220.487 21.467C220.581 21.3744 220.693 21.3031 220.817 21.2578C221.087 21.1327 221.385 21.0798 221.681 21.1046C221.927 21.1203 222.164 21.2008 222.368 21.3379C222.572 21.4749 222.737 21.6637 222.844 21.8849C222.945 22.0378 222.996 22.2177 222.991 22.4004C222.969 22.5704 222.924 22.7367 222.858 22.8951C222.692 23.3854 222.58 23.8923 222.524 24.4069L222.385 25.3404H223.297C223.476 25.3268 223.655 25.3268 223.834 25.3404C224.131 25.3743 224.408 25.5068 224.621 25.7167C224.757 25.8429 224.861 25.9998 224.924 26.1743C224.987 26.3488 225.007 26.5359 224.983 26.7199C224.968 26.912 224.92 27.1003 224.844 27.2772C224.649 27.6604 224.001 27.8694 222.907 27.9112L221.994 27.967L221.827 28.8936C221.321 31.5376 220.963 34.2077 220.754 36.8916C220.717 37.5917 220.642 38.2893 220.531 38.9816C220.472 39.2346 220.333 39.4617 220.134 39.6296C220.025 39.7431 219.892 39.8321 219.746 39.891C219.599 39.9498 219.442 39.977 219.284 39.9709C218.971 39.9259 218.684 39.7702 218.476 39.532C218.299 39.3651 218.182 39.1449 218.142 38.905C218.142 38.696 218.142 38.1108 218.142 37.1493L218.198 36.4945C218.281 35.3658 218.448 33.8888 218.685 32.0635C218.922 30.2382 219.103 29.0677 219.229 28.5801L219.361 28.0227L218.476 28.0784L216.902 28.176C216.786 28.1871 216.669 28.1871 216.553 28.176C216.414 28.1535 216.281 28.1038 216.162 28.0297C216.042 27.9555 215.939 27.8584 215.857 27.744C215.723 27.5853 215.622 27.4008 215.563 27.2019C215.503 27.003 215.484 26.7939 215.508 26.5875C215.495 26.3999 215.533 26.2122 215.617 26.0442C215.702 25.8762 215.83 25.7342 215.989 25.6331C216.628 25.4545 217.293 25.3932 217.954 25.4519C218.521 25.4812 219.089 25.4649 219.654 25.4031C219.827 24.8713 219.926 24.318 219.946 23.759C220.003 23.0964 220.112 22.4394 220.274 21.7943Z" fill="#F48E9F"/>
<path d="M242.345 22.6999C242.658 22.6361 242.98 22.6361 243.293 22.6999H243.383C243.776 22.7209 244.15 22.8758 244.442 23.1388C244.563 23.2524 244.655 23.3932 244.711 23.5495C244.767 23.7057 244.784 23.873 244.763 24.0375C244.771 24.2536 244.707 24.4662 244.581 24.6417C244.455 24.8172 244.274 24.9454 244.066 25.0059C243.013 25.1456 241.949 25.1782 240.889 25.1035L238.102 25.0199L237.865 27.3886C237.719 28.8865 237.698 29.6459 237.803 29.6529H237.865C238.683 29.5696 239.505 29.5556 240.325 29.6111C241.105 29.6111 241.669 29.6459 242.025 29.6807C242.367 29.7024 242.7 29.8 243 29.9664C243.247 30.1031 243.437 30.3228 243.536 30.5864C243.545 30.7024 243.545 30.8188 243.536 30.9348C243.474 31.5409 243.258 31.8962 242.896 32.0077C242.805 32.0077 241.969 32.0564 240.38 32.0634C238.792 32.0704 237.949 32.0634 237.845 32.1122C237.74 32.1609 237.461 33.408 237.224 35.8604C237.127 37.1538 236.953 38.4404 236.702 39.7131C236.671 39.937 236.579 40.1482 236.437 40.3238C236.294 40.4994 236.107 40.6327 235.894 40.7093C235.759 40.7408 235.618 40.7408 235.483 40.7093C235.264 40.7159 235.049 40.6517 234.869 40.5262C234.69 40.4007 234.555 40.2205 234.486 40.0126C234.445 39.7309 234.445 39.4444 234.486 39.1627C234.535 38.6611 234.584 38.2709 234.633 37.9783C234.682 37.6857 234.73 37.2816 234.8 36.5849C234.925 35.3169 235.016 34.0768 235.072 32.8646C235.109 32.0518 235.274 29.841 235.566 26.2321L235.845 23.0761L236.312 22.7765C236.576 22.6357 236.87 22.5615 237.169 22.5605C237.538 22.5605 238.297 22.5605 239.447 22.6163L242.345 22.6999Z" fill="#F48E9F"/>
<path d="M252.656 22.4352C252.984 22.3798 253.314 22.3426 253.646 22.3237C253.923 22.3908 254.186 22.5039 254.426 22.6581C255.328 23.1869 255.999 24.0346 256.307 25.0339C256.737 26.2335 256.887 27.5155 256.746 28.782C256.649 29.659 256.338 30.4987 255.84 31.2274C255.371 31.9484 254.72 32.5324 253.952 32.9204C253.395 33.1991 253.109 33.3663 253.102 33.429C253.351 33.8585 253.646 34.2603 253.98 34.6273C255.383 36.2483 256.343 38.2042 256.767 40.3053C256.818 40.5337 256.837 40.7683 256.823 41.002C256.79 41.1908 256.705 41.3668 256.579 41.5106C256.384 41.7515 256.105 41.9106 255.798 41.9565C255.694 41.971 255.589 41.971 255.485 41.9565C254.962 41.9007 254.551 41.3016 254.231 40.1729C253.898 39.0188 253.383 37.9252 252.705 36.9333C252.083 35.9981 251.288 35.1896 250.364 34.5506C250.05 34.2984 249.703 34.0898 249.333 33.9306C249.103 33.9306 248.936 34.3904 248.825 35.3867L248.657 36.9124L248.504 38.3058C248.484 39.0282 248.318 39.7391 248.016 40.3959C247.891 40.5888 247.716 40.7451 247.511 40.849C247.305 40.953 247.076 41.001 246.846 40.9881C246.6 40.9526 246.372 40.8406 246.193 40.6681C246.014 40.4955 245.894 40.2711 245.85 40.0266C245.724 39.6551 245.943 36.9356 246.505 31.8684C247.067 26.8011 247.45 24.0771 247.654 23.6962C247.766 23.4281 247.963 23.2046 248.215 23.0609C248.467 22.9171 248.76 22.8612 249.048 22.902C249.166 22.9134 249.28 22.9505 249.382 23.0107C249.484 23.0709 249.572 23.1527 249.64 23.2503C249.751 23.4129 249.849 23.4965 249.932 23.5011C250.312 23.4277 250.673 23.2758 250.991 23.0553C251.512 22.7668 252.074 22.5578 252.656 22.4352ZM253.729 25.2638C253.664 25.1612 253.577 25.074 253.475 25.0078C253.373 24.9417 253.257 24.8983 253.137 24.8806C252.52 24.9511 251.943 25.22 251.493 25.6469C250.945 26.0529 250.495 26.5766 250.176 27.1797C249.833 27.9734 249.598 28.8101 249.479 29.6668L249.222 31.1229L250.573 31.1787C252.078 31.2205 253.142 30.8233 253.764 29.9873C254.116 29.4761 254.323 28.879 254.363 28.2595C254.538 27.2167 254.312 26.1462 253.729 25.2638Z" fill="#F48E9F"/>
<path d="M263.777 25.1382C264.676 25.2488 265.581 25.3139 266.487 25.3333C267.441 25.3333 268.124 25.382 268.577 25.4169L268.981 25.4656C269.411 25.4733 269.821 25.6482 270.123 25.9533C270.321 26.18 270.421 26.4754 270.402 26.7754C270.341 27.0607 270.171 27.3108 269.928 27.4721C269.664 27.6413 269.357 27.7308 269.043 27.7299C268.639 27.7299 267.789 27.7299 266.487 27.7299L263.47 27.6114L263.338 29.3532C263.287 30.2821 263.224 31.0415 263.149 31.6313L263.08 32.2235L264.954 32.3977L265.56 32.4534L266.048 32.4952C266.74 32.5009 267.406 32.7641 267.915 33.2337C268.008 33.3697 268.074 33.5229 268.107 33.6843C268.141 33.8458 268.142 34.0124 268.11 34.1743C268.106 34.308 268.073 34.4393 268.014 34.5595C267.956 34.6796 267.872 34.7858 267.769 34.871C267.566 34.9964 266.682 34.9894 265.121 34.871C264.299 34.7507 263.465 34.7414 262.641 34.8431C262.434 35.2415 262.324 35.6831 262.32 36.132C262.272 36.55 262.237 36.8844 262.23 37.1352C262.077 38.5286 262.091 39.3507 262.272 39.6015C262.74 39.9633 263.317 40.1571 263.909 40.1519C264.473 40.2213 265.044 40.2213 265.609 40.1519C266.236 40.0404 266.828 39.9498 267.385 39.8662C267.626 39.8214 267.873 39.8097 268.117 39.8314C268.403 39.8662 268.695 40.1379 268.995 40.6396C269.087 40.804 269.151 40.9831 269.183 41.169C269.136 41.3167 269.066 41.4556 268.974 41.5801C268.639 42.0678 267.671 42.4022 266.069 42.5833C265.25 42.6843 264.421 42.6843 263.602 42.5833C261.568 42.3325 260.293 41.4895 259.778 40.0543C259.603 39.3706 259.584 38.6564 259.722 37.9643C259.833 37.0516 259.945 36.2365 260.056 35.5119C260.523 32.0772 260.802 30.0359 260.878 29.388C261.036 28.3118 261.138 27.2282 261.185 26.1414C261.172 26.007 261.172 25.8718 261.185 25.7373C261.195 25.6213 261.23 25.5086 261.286 25.4066C261.342 25.3047 261.419 25.2156 261.512 25.1452C261.707 25.0058 262.467 24.9989 263.777 25.1382Z" fill="#F48E9F"/>
<path d="M276.106 26.7202C276.956 26.8316 277.855 26.9083 278.81 26.9431C279.764 26.9779 280.454 27.0128 280.9 27.0546L281.304 27.1103C281.732 27.1215 282.137 27.3019 282.432 27.6119C282.531 27.7237 282.605 27.8541 282.652 27.9953C282.699 28.1366 282.716 28.2858 282.704 28.434C282.646 28.7314 282.473 28.9941 282.223 29.1656C281.958 29.3289 281.65 29.4112 281.339 29.4024C280.935 29.4024 280.078 29.4024 278.782 29.3537L275.765 29.2004L275.654 30.9212C275.591 31.8617 275.514 32.6211 275.438 33.2064L275.354 33.7916L277.228 33.9866L277.834 34.0563L278.322 34.1051C279 34.1209 279.649 34.3835 280.147 34.8436C280.241 34.9793 280.306 35.1327 280.338 35.2944C280.371 35.4562 280.37 35.6228 280.335 35.7841C280.331 35.9185 280.297 36.0503 280.237 36.1705C280.177 36.2908 280.092 36.3966 279.987 36.4808C279.778 36.6062 278.9 36.5853 277.333 36.439C276.503 36.2913 275.656 36.2608 274.818 36.3484C274.605 36.7426 274.49 37.1824 274.483 37.6303C274.427 38.0414 274.393 38.3758 274.379 38.6266C274.205 40.02 274.212 40.863 274.379 41.0999C274.846 41.4626 275.418 41.6631 276.009 41.6711C276.574 41.7535 277.147 41.7675 277.716 41.7129C278.343 41.6084 278.935 41.5179 279.492 41.4482C279.735 41.4111 279.982 41.4111 280.224 41.4482C280.51 41.49 280.802 41.7617 281.095 42.2633C281.182 42.4294 281.243 42.608 281.276 42.7928C281.23 42.9442 281.157 43.0858 281.06 43.2108C280.719 43.6915 279.743 44.012 278.141 44.1723C277.322 44.2766 276.493 44.2766 275.675 44.1723C273.645 43.8936 272.382 43.0343 271.885 41.5945C271.727 40.9067 271.727 40.1923 271.885 39.5044C272.01 38.5987 272.128 37.7766 272.254 37.0591C272.765 33.6267 273.062 31.59 273.146 30.9491C273.32 29.8739 273.436 28.7901 273.494 27.7025C273.482 27.5681 273.482 27.4328 273.494 27.2984C273.507 27.1823 273.543 27.0701 273.601 26.9683C273.658 26.8666 273.736 26.7775 273.828 26.7062C274.037 26.5576 274.797 26.5623 276.106 26.7202Z" fill="#F48E9F"/>
<path d="M297.544 35.3516C298.007 35.3034 298.474 35.3034 298.937 35.3516C299.704 35.5166 300.397 35.9275 300.909 36.522C301.257 36.8913 301.48 37.0863 301.606 37.1003C301.731 37.1142 301.933 37.3023 302.219 37.6437C302.339 37.7494 302.435 37.8804 302.498 38.0274C302.562 38.1743 302.593 38.3335 302.588 38.4937C302.588 38.5355 302.532 38.7375 302.428 39.1067C302.274 39.7312 302.04 40.3331 301.731 40.8972C301.495 41.3612 301.327 41.8561 301.229 42.3673C301.104 42.9896 300.818 44.7128 300.372 47.5367C299.899 50.5116 299.557 52.4135 299.341 53.2565C299.16 54.027 298.841 54.7586 298.401 55.4163C297.965 55.9865 297.385 56.4312 296.722 56.7051C296.07 57.0075 295.343 57.114 294.632 57.0117C294.139 56.9445 293.667 56.7707 293.248 56.5024C292.829 56.2341 292.474 55.8777 292.207 55.4581C291.964 55.1777 291.831 54.8189 291.831 54.4479C291.847 54.3224 291.875 54.1987 291.915 54.0786C292.096 53.4748 292.423 53.2101 292.897 53.2844C293.313 53.3894 293.68 53.6356 293.935 53.9811C294.197 54.311 294.567 54.538 294.98 54.622C295.642 54.7265 296.199 54.3225 296.659 53.4237C297.055 52.3475 297.317 51.2267 297.439 50.0866L297.655 48.6932L298.227 44.6872L297.363 45.1261C296.838 45.4016 296.281 45.6122 295.705 45.7532C295.203 45.8646 294.945 45.9622 294.931 46.0458C294.931 46.1294 294.674 46.1294 294.235 46.0458C293.801 45.9649 293.396 45.7746 293.057 45.4929C292.718 45.2112 292.457 44.8476 292.298 44.4364C291.948 43.6003 291.849 42.6805 292.012 41.789C292.284 40.2183 292.983 38.7528 294.033 37.5531C294.873 36.3914 296.132 35.602 297.544 35.3516ZM298.659 40.9251C298.98 40.5092 299.189 40.0172 299.265 39.4969C299.344 39.0962 299.3 38.681 299.139 38.3056C299.071 38.1448 298.962 38.0049 298.822 37.8997C298.683 37.7946 298.518 37.7279 298.345 37.7064C297.911 37.6976 297.485 37.8242 297.126 38.0687C296.623 38.3421 296.174 38.7058 295.802 39.1416C295.026 39.9903 294.517 41.0494 294.339 42.1861C294.214 42.9664 294.339 43.3914 294.743 43.4541C295.147 43.5168 295.781 43.2521 296.687 42.6668C297.444 42.2214 298.112 41.6404 298.659 40.953V40.9251Z" fill="#F48E9F"/>
<path d="M306.531 36.5503C306.643 36.4683 306.772 36.412 306.908 36.3855C307.044 36.359 307.184 36.363 307.319 36.397C307.533 36.4253 307.737 36.503 307.916 36.6239C308.095 36.7448 308.244 36.9056 308.35 37.0937C308.479 37.5274 308.508 37.9849 308.433 38.4314C308.378 39.0863 308.169 40.6817 307.813 43.2037L307.019 48.8887L306.559 49.1604C306.407 49.2737 306.228 49.3463 306.04 49.3712C305.852 49.3962 305.66 49.3726 305.484 49.3029C305.307 49.2331 305.152 49.1194 305.031 48.9725C304.911 48.8257 304.83 48.6505 304.797 48.4637C304.713 48.2408 304.915 46.2273 305.424 42.4373C305.709 40.3473 305.918 38.9539 306.037 38.1806C306.062 37.6042 306.232 37.0434 306.531 36.5503ZM306.671 32.6976C306.93 32.5143 307.246 32.4302 307.562 32.4607C307.894 32.5403 308.185 32.7389 308.381 33.0188C308.576 33.2988 308.662 33.6406 308.621 33.9795C308.526 34.3423 308.308 34.661 308.005 34.8819C307.701 35.1027 307.331 35.2122 306.956 35.1918C306.725 35.1556 306.509 35.0516 306.337 34.8928C306.164 34.7341 306.043 34.5278 305.988 34.3C305.919 34.0937 305.902 33.8734 305.939 33.659C305.984 33.4562 306.072 33.2654 306.197 33.0995C306.322 32.9336 306.481 32.7966 306.664 32.6976H306.671Z" fill="#F48E9F"/>
<path d="M318.646 29.2143C318.837 29.1773 319.033 29.1773 319.224 29.2143C319.778 29.2954 320.288 29.5604 320.673 29.9667C321.058 30.5079 321.313 31.1299 321.419 31.7851C321.616 32.5866 321.68 33.4152 321.607 34.2374C321.607 34.4673 321.558 34.7182 321.509 34.9829C321.497 35.1222 321.453 35.2569 321.382 35.3773C321.311 35.4978 321.214 35.601 321.098 35.6796C320.857 35.842 320.563 35.9044 320.276 35.8538C320.101 35.8221 319.935 35.7544 319.787 35.6548C319.639 35.5553 319.514 35.4261 319.419 35.2755C319.2 34.9378 319.113 34.5308 319.176 34.1329C319.234 33.6983 319.234 33.2578 319.176 32.8232C319.113 32.3912 319.008 32.1613 318.869 32.1265C318.73 32.0916 318.5 32.3424 318.326 32.8789C318.021 33.9075 317.772 34.9517 317.58 36.007L316.981 39.0237L318.291 39.1561L319.169 39.2466C319.521 39.3376 319.823 39.5627 320.012 39.8737C320.223 40.1088 320.34 40.4142 320.339 40.7306C320.251 40.9786 320.091 41.1945 319.879 41.3506C319.721 41.5047 319.519 41.6068 319.301 41.6433C318.938 41.6592 318.574 41.6429 318.214 41.5945L316.981 41.4691L316.8 42.1658C316.712 42.7796 316.668 43.3989 316.667 44.019C316.626 45.071 316.598 46.1508 316.57 47.2655C316.542 48.3802 316.521 48.9724 316.514 49.0491C316.51 49.0814 316.51 49.1142 316.514 49.1466C316.521 49.1787 316.521 49.212 316.514 49.2441C316.487 49.3967 316.43 49.5421 316.345 49.6715C316.26 49.8009 316.149 49.9115 316.02 49.9966C315.894 50.0895 315.751 50.1565 315.599 50.1936C315.447 50.2307 315.289 50.2371 315.135 50.2125C314.522 50.1011 314.173 49.6482 314.104 48.8192C314.104 48.4569 314.104 47.5164 314.139 46.0324C314.173 44.5485 314.229 43.3571 314.292 42.549L314.389 41.2601L313.4 41.0859C312.73 41.0143 312.083 40.798 311.505 40.4519C311.338 40.3143 311.214 40.1313 311.148 39.9248C311.083 39.7183 311.078 39.4973 311.136 39.2884C311.147 39.1248 311.201 38.967 311.293 38.8312C311.384 38.6953 311.511 38.5863 311.658 38.5151C312.171 38.4175 312.7 38.4365 313.205 38.5708L314.536 38.8008L314.94 36.5156C315.205 34.7385 315.707 33.0047 316.431 31.3601C316.865 30.3861 317.659 29.6174 318.646 29.2143Z" fill="#F48E9F"/>
<path d="M328.499 36.1603C328.559 36.043 328.643 35.94 328.747 35.8583C328.85 35.7766 328.97 35.718 329.098 35.6866C329.378 35.5899 329.678 35.5683 329.969 35.6239C330.21 35.6703 330.436 35.778 330.624 35.9366C330.811 36.0952 330.955 36.2994 331.042 36.5296C331.124 36.693 331.156 36.8775 331.132 37.0591C331.094 37.2246 331.033 37.384 330.951 37.5328C330.734 38.0045 330.566 38.497 330.449 39.0028L330.22 39.9155L331.132 39.9921C331.31 40.0021 331.487 40.0254 331.662 40.0618C331.954 40.1254 332.214 40.2878 332.4 40.5216C332.524 40.6597 332.611 40.8257 332.656 41.0054C332.701 41.185 332.702 41.3728 332.658 41.5527C332.622 41.7418 332.554 41.9233 332.456 42.0892C332.219 42.4514 331.557 42.5908 330.463 42.5141L329.523 42.4654L329.258 43.3711C328.475 45.9467 327.833 48.5632 327.335 51.2088C327.22 51.9129 327.069 52.6105 326.882 53.2989C326.798 53.545 326.634 53.7558 326.416 53.8981C326.296 54.001 326.156 54.0768 326.004 54.1201C325.853 54.1634 325.694 54.1732 325.538 54.1489C325.229 54.0701 324.959 53.882 324.778 53.6194C324.62 53.4369 324.529 53.2058 324.521 52.9645C324.555 52.3782 324.622 51.7944 324.723 51.2158L324.841 50.5679C325.05 49.4578 325.373 48.0087 325.81 46.2205C326.246 44.4324 326.555 43.2828 326.736 42.7719L326.931 42.2355L326.039 42.1937C325.343 42.1519 324.834 42.124 324.458 42.117C324.342 42.1316 324.225 42.1316 324.11 42.117C323.976 42.0797 323.851 42.0161 323.742 41.93C323.633 41.8439 323.543 41.7369 323.476 41.6154C323.356 41.4427 323.275 41.2466 323.236 41.0401C323.198 40.8336 323.203 40.6213 323.253 40.4171C323.343 39.9225 323.538 39.6298 323.838 39.5253C324.488 39.4078 325.153 39.4078 325.803 39.5253C326.365 39.6107 326.933 39.6549 327.502 39.6577C327.726 39.1438 327.881 38.6027 327.962 38.0484C328.094 37.4065 328.273 36.7753 328.499 36.1603Z" fill="#F48E9F"/>
<path d="M340.23 41.8104C340.836 41.698 341.457 41.698 342.062 41.8104C342.415 41.852 342.754 41.9692 343.057 42.154C343.361 42.3388 343.62 42.5868 343.819 42.8811C344.017 43.1755 344.15 43.5092 344.207 43.8595C344.265 44.2097 344.246 44.5683 344.152 44.9107C343.923 46.0394 343.456 46.6455 342.829 46.7221C342.681 46.7486 342.53 46.7486 342.383 46.7221C342.217 46.6893 342.061 46.6189 341.927 46.5162C341.793 46.4135 341.684 46.2813 341.61 46.1299C341.432 45.7814 341.387 45.3802 341.484 45.0013C341.531 44.8313 341.545 44.654 341.526 44.4788C341.526 44.4021 341.401 44.3464 341.24 44.3116C340.467 44.3301 339.712 44.5459 339.046 44.9386C338.335 45.1695 337.695 45.577 337.186 46.123V46.1857L337.144 46.2414C337.144 46.3459 337.234 46.4574 337.485 46.5828C337.736 46.7082 338.502 47.0426 339.784 47.5721C340.64 47.8984 341.456 48.3215 342.216 48.8331C342.694 49.2144 343.112 49.6653 343.456 50.1707C343.811 50.6476 344.079 51.1828 344.25 51.7522C344.389 52.3174 344.389 52.9079 344.25 53.473C344.188 53.9093 344.028 54.326 343.783 54.6922C342.905 55.7744 341.28 56.2784 338.906 56.2041C338.466 56.1968 338.026 56.1619 337.59 56.0996C337.166 55.9976 336.755 55.8504 336.363 55.6606C334.831 55.0104 334.013 54.0443 333.911 52.7624C333.901 52.6163 333.901 52.4696 333.911 52.3235C333.939 52.1606 334.002 52.0058 334.096 51.8699C334.19 51.7339 334.312 51.62 334.455 51.5362C334.733 51.3628 335.068 51.3053 335.388 51.376C335.631 51.4265 335.855 51.544 336.035 51.7151C336.215 51.8862 336.343 52.1042 336.405 52.3444C336.588 52.7601 336.922 53.0912 337.339 53.271C337.607 53.3961 337.89 53.4852 338.182 53.5357C338.924 53.6925 339.69 53.6925 340.432 53.5357C341.185 53.3755 341.596 53.1038 341.672 52.7136C341.784 52.1633 341.463 51.585 340.711 50.9859C339.376 50.1317 337.926 49.4724 336.405 49.0282C336.006 48.8943 335.639 48.679 335.327 48.396C335.015 48.113 334.766 47.7684 334.594 47.384C334.428 46.9158 334.406 46.4086 334.531 45.9279C334.629 45.3426 334.868 44.7901 335.228 44.3185C335.797 43.6785 336.488 43.1596 337.262 42.7928C338.197 42.3196 339.197 41.9886 340.23 41.8104Z" fill="#F48E9F"/>
</svg>
