<svg width="346" height="60" viewBox="0 0 346 60" fill="none" xmlns="http://www.w3.org/2000/svg">
<path d="M1.54915 56.7006C2.17344 56.3575 2.78648 55.9976 3.4164 55.6601L5.32302 54.6871C5.96418 54.3778 6.59972 54.0572 7.24651 53.7591L9.20374 52.8986C10.5142 52.3362 11.8303 51.7738 13.1407 51.2788C13.7987 51.0089 14.4736 50.7839 15.1429 50.5477C15.8122 50.3115 16.4871 50.0753 17.162 49.8503C19.8617 48.9504 22.5782 48.0955 25.3228 47.3531C28.0674 46.6107 30.8289 45.9246 33.6129 45.3115C36.3969 44.6985 39.1978 44.1417 42.0493 43.7086L44.1696 43.3993C44.8783 43.3037 45.5926 43.2306 46.3012 43.1462L48.4215 42.9268C49.1358 42.865 49.8557 42.8256 50.57 42.7694C53.4606 42.5724 56.3605 42.5498 59.2538 42.7019C59.9893 42.7549 60.7215 42.8469 61.4473 42.9775C62.1843 43.1039 62.9131 43.2749 63.6295 43.4893C65.1292 43.9135 66.5407 44.603 67.797 45.5252L67.842 45.559C68.0011 45.7 68.117 45.8831 68.1762 46.0872C68.2355 46.2914 68.2357 46.5081 68.1769 46.7123C68.118 46.9166 68.0025 47.0999 67.8437 47.2412C67.6849 47.3825 67.4893 47.4759 67.2796 47.5106C65.8792 47.6512 64.5406 47.7356 63.1964 47.8031L62.1841 47.8649C61.8522 47.8649 61.5091 47.8649 61.1717 47.8987C60.5024 47.938 59.8275 47.9437 59.1526 47.9605H58.1346H57.1166C56.4417 47.9605 55.7556 48.0055 55.075 48.028L53.0278 48.1405L50.9806 48.2924L46.8749 48.6523L44.8164 48.8604L42.7973 49.1585C40.0527 49.496 37.3081 49.8334 34.5747 50.2833C29.1023 51.1439 23.6637 52.2631 18.2925 53.6579C12.9137 55.0101 7.6149 56.6625 2.42091 58.6072C2.17752 58.7097 1.90393 58.7142 1.65732 58.6197C1.41071 58.5252 1.21018 58.339 1.09762 58.1001C0.985065 57.8612 0.969203 57.588 1.05335 57.3377C1.1375 57.0874 1.31514 56.8793 1.54915 56.7568V56.7006Z" fill="#FFD7C5" stroke="#043866" stroke-width="1.37" stroke-miterlimit="10"/>
<path d="M74.8553 42.4093C75.441 42.078 76.0666 41.8229 76.7169 41.65C77.3544 41.4887 78.0003 41.3629 78.6516 41.2732C79.9426 41.0716 81.2485 40.9813 82.5549 41.0032C83.8407 41.0486 85.1184 41.2258 86.3681 41.5319C87.6181 41.8262 88.8152 42.3119 89.917 42.9717L89.9676 43.0054C90.2835 43.1997 90.5094 43.5113 90.5958 43.8718C90.6823 44.2324 90.6222 44.6126 90.4288 44.9289C90.3056 45.1254 90.136 45.2887 89.935 45.4044C89.734 45.5201 89.5076 45.5848 89.2758 45.5926C86.897 45.5751 84.522 45.3985 82.1668 45.0639C81.0082 44.9402 79.8552 44.7658 78.7023 44.6983C77.5341 44.6731 76.3682 44.5849 75.2096 44.434C74.989 44.3992 74.7846 44.2969 74.6245 44.1411C74.4645 43.9853 74.3567 43.7838 74.3159 43.5642C74.2752 43.3445 74.3036 43.1177 74.3972 42.9149C74.4908 42.7121 74.6449 42.5433 74.8384 42.4318L74.8553 42.4093Z" fill="white" stroke="#043866" stroke-width="1.37" stroke-miterlimit="10"/>
<path d="M323.638 21.1172C319.253 18.4993 314.697 16.1806 310 14.1769C305.303 12.1297 300.495 10.313 295.624 8.71013C290.753 7.10722 285.815 5.70679 280.787 4.61569C275.789 3.47314 270.714 2.70053 265.602 2.30412C265.442 2.30412 265.289 2.24072 265.176 2.12786C265.063 2.015 265 1.86194 265 1.70233C265 1.54273 265.063 1.38966 265.176 1.2768C265.289 1.16394 265.442 1.10054 265.602 1.10054H265.652L267.61 1.0443C268.268 1.0443 268.926 0.982428 269.578 1.00493C270.883 1.05554 272.199 1.07242 273.515 1.14553C274.831 1.21865 276.136 1.30863 277.452 1.42674C278.768 1.54485 280.062 1.69671 281.389 1.87106L285.287 2.43348C286.58 2.65283 287.863 2.91154 289.156 3.14776L293.014 3.9689C294.297 4.25011 295.568 4.58194 296.844 4.90815C299.387 5.57743 301.906 6.29171 304.437 7.0791C305.703 7.45593 306.94 7.91149 308.194 8.33893C309.448 8.76637 310.68 9.23319 311.923 9.7C313.166 10.1668 314.392 10.6674 315.624 11.1679C316.863 11.6691 318.071 12.2457 319.24 12.8946C321.649 14.1768 323.824 15.8557 325.674 17.8608L326.04 18.2713C326.343 18.6077 326.515 19.0425 326.524 19.4956C326.532 19.9487 326.376 20.3895 326.085 20.7368C325.794 21.0841 325.387 21.3144 324.939 21.3854C324.492 21.4563 324.034 21.3631 323.65 21.1228L323.638 21.1172Z" fill="#FFD7C5" stroke="#043866" stroke-width="1.06" stroke-miterlimit="10"/>
<path d="M343.256 23.4794C342.221 22.2252 341.197 20.9654 340.078 19.7899L339.246 18.9013L338.38 18.0464C337.817 17.484 337.198 16.9216 336.602 16.3591C334.17 14.1774 331.533 12.2356 328.728 10.5605C323.039 7.223 316.882 4.75837 310.461 3.24903C310.345 3.19658 310.251 3.10659 310.193 2.99369C310.135 2.8808 310.117 2.75162 310.142 2.62717C310.166 2.50271 310.233 2.39029 310.329 2.30817C310.426 2.22604 310.548 2.17904 310.675 2.1748C311.507 2.29854 312.362 2.41665 313.172 2.55725C313.982 2.69786 314.82 2.88908 315.652 3.05781L316.889 3.32215L318.121 3.64273C318.942 3.85083 319.763 4.05892 320.568 4.33451C323.839 5.32866 327.01 6.62795 330.039 8.21524L332.288 9.47506C333.014 9.93625 333.756 10.3806 334.476 10.8474C335.196 11.3142 335.905 11.8204 336.591 12.3378L337.62 13.1308C337.969 13.3895 338.306 13.6539 338.633 13.9407C339.296 14.5031 339.971 15.0656 340.595 15.628C341.256 16.2276 341.876 16.8701 342.451 17.5515C343.625 18.8488 344.563 20.341 345.224 21.9609L345.348 22.2702C345.454 22.5423 345.459 22.8432 345.364 23.1192C345.269 23.3951 345.078 23.6282 344.827 23.7769C344.576 23.9255 344.28 23.98 343.992 23.9307C343.704 23.8814 343.443 23.7314 343.256 23.5075V23.4794Z" fill="white" stroke="#043866" stroke-width="1.06" stroke-miterlimit="10"/>
<path d="M24.8326 19.4401C25.4944 19.337 26.1834 19.1905 26.9049 19.0061C27.6264 18.8216 28.1472 18.6969 28.4672 18.6318L28.7765 18.5829C29.1006 18.499 29.4447 18.5437 29.7367 18.7077C29.8379 18.7663 29.9247 18.8468 29.9906 18.9433C30.0565 19.0399 30.1 19.15 30.1177 19.2656C30.1354 19.3812 30.1269 19.4993 30.0929 19.6112C30.0589 19.7231 30.0002 19.8259 29.9211 19.912C29.7616 20.0971 29.5497 20.2294 29.3135 20.2918C29.0152 20.3948 28.375 20.5739 27.3931 20.8342L25.1092 21.3767L25.4076 22.695C25.5704 23.4111 25.6843 23.9969 25.7548 24.4472L25.8253 24.9029L27.2629 24.6317L27.7295 24.5449C27.9139 24.5123 28.0387 24.4852 28.1038 24.4798C28.6236 24.3351 29.1787 24.3892 29.6607 24.6317C29.7594 24.7136 29.8409 24.8142 29.9005 24.9278C29.9601 25.0414 29.9966 25.1657 30.0079 25.2935C30.0346 25.3972 30.0392 25.5053 30.0214 25.6109C30.0037 25.7165 29.964 25.8172 29.9048 25.9065C29.7746 26.0421 29.1128 26.2266 27.9139 26.449C27.2616 26.5241 26.6228 26.6884 26.0152 26.9372C25.9413 27.2783 25.9525 27.6322 26.0478 27.9679C26.102 28.2934 26.1454 28.5484 26.1942 28.7383C26.3787 29.8233 26.5595 30.4363 26.7367 30.5773C27.1649 30.7503 27.6391 30.7732 28.0821 30.6424C28.521 30.5805 28.9509 30.4657 29.3623 30.3006C29.8072 30.0836 30.2303 29.8829 30.6318 29.7093C30.8023 29.621 30.9852 29.5588 31.1742 29.5249C31.3349 29.5287 31.4927 29.5682 31.6362 29.6404C31.7798 29.7126 31.9055 29.8159 32.0043 29.9426C32.1061 30.047 32.192 30.1658 32.2592 30.2952C32.2555 30.4176 32.2317 30.5386 32.1887 30.6533C32.0404 31.0872 31.3858 31.5429 30.2249 32.0203C29.6349 32.2768 29.0154 32.459 28.3804 32.5628C26.8018 32.8015 25.668 32.4435 24.9791 31.4778C24.7045 31.011 24.5394 30.4879 24.4962 29.948C24.3877 29.2428 24.2955 28.6027 24.225 28.0385C23.8453 25.364 23.6174 23.7745 23.5415 23.2809C23.4319 22.4397 23.278 21.6049 23.0803 20.78C23.0483 20.6791 23.0247 20.5756 23.0098 20.4708C22.9945 20.3813 22.9971 20.2896 23.0176 20.2011C23.0381 20.1126 23.076 20.0291 23.1292 19.9554C23.2594 19.7981 23.8236 19.6245 24.8326 19.4401Z" fill="#F48E9F"/>
<path d="M36.7027 21.0678C37.1219 20.821 37.5838 20.6554 38.0643 20.5796C38.3322 20.5278 38.6078 20.531 38.8745 20.5888C39.1412 20.6466 39.3934 20.7579 39.6158 20.9159C39.8335 21.0845 40.0139 21.2964 40.1456 21.5382C40.2773 21.7801 40.3573 22.0466 40.3807 22.321C40.5037 23.2106 40.3355 23.7694 39.8762 23.9972C39.7727 24.0494 39.6606 24.0825 39.5453 24.0949C39.4152 24.1144 39.2823 24.1035 39.1571 24.063C39.032 24.0225 38.9179 23.9536 38.8238 23.8616C38.6054 23.6495 38.469 23.3671 38.4386 23.0642C38.4311 22.9283 38.396 22.7954 38.3355 22.6736C38.2921 22.6193 38.2108 22.6031 38.0806 22.6248C37.5195 22.837 37.0226 23.1901 36.6376 23.6501C36.174 24.0178 35.8118 24.4977 35.5851 25.0442C35.5851 25.0442 35.5851 25.0768 35.5851 25.0931V25.1419C35.5851 25.2233 35.7153 25.2775 35.9323 25.3046C36.1493 25.3318 36.7949 25.3752 37.8744 25.4403C38.5871 25.4521 39.2957 25.5504 39.9847 25.7332C40.4402 25.8762 40.8717 26.0865 41.265 26.3571C41.6479 26.6183 41.9852 26.9409 42.2631 27.3118C42.5014 27.6981 42.6463 28.1346 42.6863 28.5867C42.7635 28.9204 42.7635 29.2674 42.6863 29.6011C42.3174 30.621 41.265 31.413 39.5182 31.9718C39.1911 32.0792 38.8578 32.1661 38.52 32.2322C38.1828 32.2678 37.8428 32.2678 37.5055 32.2322C36.2144 32.149 35.3645 31.6535 34.9559 30.7458C34.9163 30.6377 34.8837 30.5271 34.8582 30.4149C34.8368 30.2876 34.8432 30.1573 34.8769 30.0328C34.9106 29.9082 34.9709 29.7924 35.0535 29.6934C35.2111 29.494 35.4413 29.3653 35.6936 29.3353C35.8863 29.3092 36.0824 29.3376 36.2597 29.4172C36.4371 29.4967 36.5886 29.6244 36.6972 29.7856C36.9385 30.0419 37.2682 30.197 37.6195 30.2196C37.8482 30.2486 38.0797 30.2486 38.3084 30.2196C38.8948 30.1385 39.4581 29.9372 39.963 29.6283C40.4675 29.319 40.7008 29.0098 40.6574 28.706C40.5977 28.272 40.2125 27.9303 39.5019 27.6862C38.3011 27.4045 37.0663 27.2949 35.8347 27.3607C35.5033 27.3701 35.1737 27.3098 34.8672 27.1836C34.5606 27.0574 34.284 26.8683 34.0553 26.6283C33.8106 26.3286 33.663 25.9615 33.6322 25.5759C33.5305 25.1151 33.5435 24.6363 33.6702 24.1817C33.9222 23.5736 34.2908 23.0207 34.7551 22.5542C35.3256 21.9633 35.9822 21.4622 36.7027 21.0678Z" fill="#F48E9F"/>
<path d="M47.2916 19.6191C47.714 19.3783 48.1776 19.2183 48.6587 19.1472C48.9272 19.1011 49.2023 19.1091 49.4678 19.1705C49.7332 19.232 49.9838 19.3458 50.2048 19.5052C50.4199 19.6781 50.597 19.8936 50.7249 20.1382C50.8528 20.3828 50.9288 20.6512 50.948 20.9265C51.0619 21.8162 50.8883 22.3695 50.4055 22.5919C50.3015 22.642 50.1894 22.6732 50.0746 22.6842C49.9436 22.7031 49.81 22.6909 49.6846 22.6485C49.5592 22.6061 49.4456 22.5347 49.3531 22.44C49.1399 22.2261 49.0092 21.9436 48.9842 21.6426C48.9792 21.5046 48.944 21.3695 48.8811 21.2466C48.8431 21.1978 48.7617 21.1761 48.6315 21.1923C48.0649 21.3946 47.5616 21.7426 47.1723 22.2014C46.6973 22.5588 46.3234 23.0337 46.0873 23.5793V23.6281V23.6823C46.0873 23.7637 46.2066 23.818 46.4236 23.8451C46.6406 23.8722 47.2916 23.9319 48.3657 24.0078C49.0825 24.0309 49.7942 24.1365 50.4868 24.3225C50.9394 24.4798 51.3656 24.7048 51.7508 24.9897C52.134 25.251 52.4697 25.5757 52.7436 25.9499C52.9786 26.3369 53.1198 26.7735 53.1559 27.2248C53.2149 27.5621 53.2 27.9082 53.1125 28.2392C52.7327 29.2519 51.6659 30.0276 49.9118 30.5665C49.5826 30.6697 49.2474 30.7531 48.9082 30.816C48.5727 30.8498 48.2347 30.8498 47.8992 30.816C46.6081 30.7184 45.7636 30.2103 45.3658 29.2917C45.3265 29.1839 45.2956 29.0733 45.2736 28.9607C45.2537 28.8336 45.2619 28.7036 45.2975 28.5799C45.3331 28.4562 45.3953 28.3418 45.4797 28.2447C45.5619 28.144 45.6631 28.0606 45.7776 27.9991C45.8921 27.9377 46.0176 27.8994 46.147 27.8866C46.3396 27.863 46.5349 27.8943 46.7105 27.9769C46.8862 28.0594 47.0349 28.1898 47.1397 28.3532C47.378 28.6129 47.7052 28.7737 48.0565 28.8034C48.2854 28.8299 48.5166 28.8299 48.7455 28.8034C49.3317 28.7377 49.8984 28.5531 50.4109 28.2609C50.9208 27.9626 51.1541 27.6533 51.1161 27.3496C51.0619 26.9101 50.6821 26.5684 49.9769 26.3134C48.7789 26.0128 47.5438 25.8868 46.3097 25.9391C45.9712 25.9411 45.6363 25.8705 45.3274 25.732C45.0186 25.5935 44.7431 25.3903 44.5195 25.1362C44.2802 24.8353 44.1399 24.4676 44.1181 24.0838C44.0438 23.6181 44.0848 23.1412 44.2374 22.695C44.4984 22.0825 44.8803 21.529 45.3604 21.0676C45.9263 20.4889 46.5776 20.0004 47.2916 19.6191Z" fill="#F48E9F"/>
<path d="M56.0466 19.1642C56.2979 18.8033 56.6198 18.497 56.9927 18.2639C57.3657 18.0308 57.782 17.8757 58.2166 17.808C58.6019 17.7685 58.9912 17.8072 59.3612 17.9219C59.8386 18.052 60.2765 18.298 60.6361 18.638C61.0123 19.0478 61.3118 19.5219 61.5203 20.0376C61.6126 20.2496 61.6712 20.4747 61.6939 20.7048C61.7277 21.1252 61.6722 21.5479 61.531 21.9453C61.3899 22.3427 61.1662 22.7056 60.8747 23.0104C60.219 23.7685 59.3459 24.3064 58.3739 24.5511C58.0755 24.6406 57.7709 24.7077 57.4625 24.7518C57.3653 24.765 57.2668 24.765 57.1696 24.7518L56.6976 24.7084L56.8169 25.7934C56.8467 26.3537 57.0104 26.8988 57.2943 27.3829C57.3711 27.5548 57.4884 27.7055 57.6361 27.8223C57.809 27.8878 57.9944 27.9138 58.1786 27.8982H58.3739C58.9184 27.7553 59.4254 27.4962 59.8603 27.1387C60.2953 26.7688 60.7958 26.4836 61.3359 26.2979C61.4343 26.2864 61.5341 26.297 61.6279 26.3289C61.7217 26.3608 61.8073 26.4132 61.8783 26.4823C61.9711 26.5497 62.0489 26.6357 62.1067 26.7346C62.1646 26.8336 62.2014 26.9435 62.2147 27.0574C62.2744 27.5999 61.7102 28.2129 60.5167 28.9723C60.1836 29.1885 59.8355 29.3806 59.4751 29.5474C59.1401 29.6525 58.7944 29.7198 58.4444 29.7481C58.1249 29.7963 57.8015 29.8126 57.4788 29.7969C57.2462 29.7529 57.0237 29.6665 56.8224 29.542C56.3818 29.2689 56.0105 28.8975 55.7374 28.457C55.5168 28.1827 55.3343 27.8797 55.1949 27.5565C55.071 27.0585 54.9804 26.5529 54.9237 26.0429L54.8586 25.457C54.5512 22.6506 54.9472 20.553 56.0466 19.1642ZM59.0737 19.826C58.8899 19.7198 58.6773 19.6742 58.4661 19.6958C58.1782 19.7532 57.9139 19.8948 57.7066 20.1027C57.4414 20.4481 57.2309 20.8324 57.0828 21.2419C56.9036 21.6264 56.8057 22.0438 56.7952 22.4679V22.8856L57.571 22.7717C58.0094 22.6994 58.4317 22.5507 58.8187 22.3323C59.107 22.1355 59.3601 21.8916 59.5674 21.6108C59.7425 21.4246 59.8462 21.1825 59.8603 20.9273C59.8193 20.7051 59.7243 20.4965 59.5836 20.3197C59.452 20.1196 59.2779 19.9511 59.0737 19.826Z" fill="#F48E9F"/>
<path d="M69.2083 17.4763C69.4934 17.1659 69.8764 16.9629 70.2933 16.9012C70.6006 16.851 70.9159 16.8989 71.1945 17.0382C71.473 17.1775 71.7006 17.401 71.8448 17.677C72.2916 18.7069 72.5454 19.8102 72.5934 20.9319C72.7344 22.3568 72.7941 24.5666 72.7724 27.5611C72.7724 28.467 72.474 28.9444 71.9099 28.9987C71.773 29.0278 71.6312 29.0249 71.4957 28.99C71.3602 28.9552 71.2345 28.8895 71.1287 28.798C70.9223 28.5014 70.809 28.1502 70.8032 27.7889C70.7582 27.2839 70.7401 26.7769 70.7489 26.27C70.7731 24.4358 70.7025 22.6015 70.5374 20.7746C70.4452 19.8795 70.3529 19.4401 70.2553 19.4509C70.1576 19.4618 69.6477 20.3297 68.9099 22.0386C68.1721 23.7474 67.5537 25.3857 67.0383 26.921C66.8786 27.4632 66.6698 27.9898 66.4145 28.4942C66.3605 28.6131 66.2785 28.7171 66.1755 28.7974C66.0725 28.8777 65.9516 28.9319 65.8232 28.9553C65.7061 28.9669 65.5878 28.954 65.476 28.9173C65.2543 28.8486 65.0542 28.7235 64.8954 28.5542C64.7366 28.3849 64.6245 28.1773 64.57 27.9517C64.2767 26.9291 64.0948 25.8778 64.0275 24.8161C63.9299 23.8288 63.8594 23.0313 63.8105 22.4129C63.6749 20.5956 63.6152 19.4401 63.6315 18.9573C63.6129 18.5728 63.743 18.1959 63.995 17.9048C64.1248 17.7699 64.3016 17.6902 64.4886 17.6824C64.7302 17.6555 64.9736 17.713 65.1776 17.8452C65.2785 17.9007 65.3656 17.9784 65.4323 18.0723C65.499 18.1663 65.5436 18.2741 65.5628 18.3876C65.617 18.9301 65.6875 19.8578 65.7798 21.2357C65.8394 22.1796 65.8774 22.7221 65.8937 22.8632C65.9371 23.3188 66.0022 23.5413 66.0836 23.5304C66.1649 23.5196 66.4253 22.9337 66.8593 21.7619C67.6622 19.6064 68.4452 18.1779 69.2083 17.4763Z" fill="#F48E9F"/>
<path d="M77.3118 13.8094C77.3329 13.7085 77.3753 13.6133 77.4361 13.5301C77.4969 13.4468 77.5747 13.3775 77.6644 13.3266C77.8559 13.1994 78.0757 13.1212 78.3045 13.0987C78.495 13.0795 78.6872 13.1111 78.8615 13.1901C79.0359 13.2692 79.1862 13.393 79.2973 13.549C79.3952 13.6544 79.4595 13.7866 79.4817 13.9287C79.4812 14.0601 79.4666 14.1911 79.4383 14.3193C79.3771 14.7195 79.3553 15.1247 79.3732 15.5291V16.2614L80.073 16.1258C80.209 16.0971 80.3467 16.0772 80.4853 16.0661C80.7176 16.0538 80.9471 16.1207 81.1363 16.256C81.2575 16.3343 81.3579 16.4408 81.4288 16.5665C81.4997 16.6922 81.5389 16.8333 81.5432 16.9775C81.5592 17.1265 81.5482 17.2773 81.5106 17.4224C81.4075 17.7424 80.941 17.9648 80.1056 18.1601L79.4112 18.3175V19.0552C79.3634 21.1497 79.4341 23.2453 79.6228 25.3318C79.6824 25.8723 79.7132 26.4155 79.715 26.9593C79.7051 27.1602 79.6266 27.3517 79.4926 27.5018C79.4247 27.6035 79.3359 27.6895 79.232 27.7541C79.1281 27.8187 79.0117 27.8602 78.8904 27.8761C78.6422 27.8814 78.4001 27.7988 78.2069 27.6428C78.0516 27.5364 77.9353 27.3821 77.876 27.2034C77.7791 26.7574 77.7066 26.3065 77.659 25.8526L77.6156 25.3427C77.5342 24.4638 77.4745 23.3138 77.4203 21.8762C77.366 20.4386 77.3552 19.5218 77.3823 19.1149L77.4203 18.6701L76.7476 18.8274C76.234 18.9359 75.8326 19.0281 75.5433 19.1041C75.4568 19.1305 75.3676 19.1469 75.2774 19.1529C75.1694 19.1525 75.0624 19.1307 74.9628 19.0888C74.8632 19.0469 74.7728 18.9857 74.697 18.9088C74.572 18.8048 74.4702 18.6758 74.3982 18.53C74.3263 18.3842 74.2858 18.2249 74.2793 18.0625C74.2453 17.9207 74.25 17.7724 74.2929 17.6331C74.3359 17.4937 74.4155 17.3685 74.5234 17.2705C74.9917 17.0529 75.495 16.9206 76.0098 16.8799C76.4501 16.8281 76.8855 16.741 77.3118 16.6195C77.3686 16.1873 77.3686 15.7496 77.3118 15.3175C77.2762 14.8154 77.2762 14.3115 77.3118 13.8094Z" fill="#F48E9F"/>
<path d="M83.8111 13.571C83.9743 13.3832 84.1995 13.26 84.4458 13.2239C84.713 13.2108 84.9745 13.3045 85.1727 13.4842C85.278 13.567 85.3654 13.6703 85.4297 13.7877C85.4941 13.9052 85.534 14.0345 85.547 14.1678C85.5631 14.4436 85.4695 14.7147 85.2866 14.9218C85.2002 15.0522 85.0867 15.1624 84.9537 15.2448C84.8207 15.3272 84.6715 15.3799 84.5163 15.3992C84.3351 15.4137 84.1537 15.3746 83.9946 15.2868C83.8355 15.199 83.7056 15.0665 83.6212 14.9056C83.5273 14.7632 83.473 14.5984 83.4639 14.4282C83.4572 14.2688 83.4848 14.1099 83.5446 13.962C83.6045 13.8142 83.6954 13.6809 83.8111 13.571ZM84.4349 16.5059C84.5015 16.4258 84.5842 16.3607 84.6777 16.3149C84.7712 16.2691 84.8733 16.2436 84.9774 16.2401C85.1437 16.2194 85.3126 16.2376 85.4707 16.2931C85.6288 16.3486 85.7719 16.44 85.8888 16.5601C86.0636 16.8643 86.1691 17.2033 86.198 17.5529C86.2812 18.0628 86.424 19.3051 86.6266 21.2798L87.0985 25.7227L86.8056 26.0157C86.6488 26.1956 86.4299 26.3099 86.1926 26.3357C86.0181 26.3448 85.8448 26.3024 85.6943 26.2136C85.5438 26.1249 85.4228 25.9938 85.3463 25.8367C85.2324 25.6848 85.0154 24.1224 84.6845 21.1659C84.5054 19.5384 84.3915 18.4209 84.3481 17.835C84.2661 17.3916 84.296 16.9348 84.4349 16.5059Z" fill="#F48E9F"/>
<path d="M91.8895 16.489C92.139 16.4067 92.3977 16.3557 92.6598 16.3371C93.067 16.3128 93.4741 16.3853 93.8478 16.5487C94.1874 16.7081 94.5577 16.7914 94.9328 16.7928C95.0703 16.7792 95.2091 16.796 95.3394 16.8419C95.4697 16.8879 95.5883 16.9618 95.6869 17.0586C95.8161 17.1617 95.9138 17.2989 95.969 17.4546C96.0333 17.7503 96.0625 18.0526 96.0558 18.3552C96.148 19.6082 96.3037 20.8557 96.5223 22.0929C96.6482 23.0155 96.8625 23.9238 97.1624 24.8053C97.2079 24.9041 97.2319 25.0113 97.233 25.12C97.2416 25.2461 97.2218 25.3726 97.1748 25.49C97.1278 25.6074 97.055 25.7127 96.9617 25.7981C96.7837 25.9797 96.5475 26.0929 96.2945 26.1181C96.1941 26.1208 96.0943 26.1023 96.0015 26.0639C95.7396 25.9169 95.5308 25.691 95.4048 25.4183C95.1985 25.0452 95.0503 24.6427 94.9654 24.2249C94.8894 23.8071 94.808 23.601 94.7267 23.6064C94.6453 23.6118 94.4609 23.8777 94.1842 24.4039C93.8657 24.9735 93.4445 25.4793 92.9419 25.8957C92.5043 26.2225 91.9793 26.4114 91.4338 26.4382H91.1191C90.7692 26.3629 90.4454 26.1963 90.1806 25.9554C89.8438 25.7141 89.5626 25.4033 89.3561 25.044C88.9866 24.2759 88.771 23.4429 88.7213 22.592C88.6997 22.2668 88.6997 21.9406 88.7213 21.6155C88.8382 20.4598 89.2187 19.3462 89.8334 18.3606C90.2697 17.5084 91.0002 16.8434 91.8895 16.489ZM93.2674 18.3552C93.1339 18.2824 92.989 18.2328 92.8388 18.2087C92.6962 18.2461 92.5606 18.3066 92.4374 18.3877C91.8165 18.7638 91.3391 19.3366 91.0812 20.0152C90.7288 20.7667 90.5738 21.5957 90.6309 22.4238C90.6631 22.7919 90.7341 23.1556 90.8425 23.5088C90.8925 23.8008 91.0054 24.0784 91.1734 24.3225C91.2043 24.3663 91.246 24.4014 91.2945 24.4242C91.343 24.447 91.3966 24.4568 91.4501 24.4527C91.8569 24.4202 92.3343 23.9102 92.8822 22.8849C93.3024 22.0302 93.5861 21.115 93.7231 20.1725C93.7966 19.7989 93.8366 19.4194 93.8424 19.0387C93.8272 18.8799 93.764 18.7295 93.6613 18.6074C93.5586 18.4853 93.4212 18.3973 93.2674 18.3552Z" fill="#F48E9F"/>
<path d="M99.4465 11.542C99.585 11.4585 99.741 11.4084 99.9022 11.3956C100.047 11.394 100.191 11.4215 100.325 11.4765C100.459 11.5315 100.581 11.6128 100.683 11.7156C100.887 11.8725 101.023 12.1016 101.063 12.3558C101.049 12.8017 101.002 13.2459 100.922 13.6849C100.732 15.9793 100.732 18.2855 100.922 20.5799C100.922 20.7101 100.922 20.8837 100.965 21.1224C101.009 21.361 100.998 21.5021 101.003 21.5997C101.193 23.7046 101.508 24.9577 101.937 25.3592C102.053 25.4502 102.15 25.564 102.22 25.6936C102.291 25.8233 102.335 25.9661 102.349 26.1132C102.348 26.344 102.266 26.5671 102.116 26.7425C102.04 26.8522 101.941 26.9446 101.827 27.0137C101.713 27.0829 101.586 27.1273 101.454 27.144C101.067 27.1127 100.708 26.934 100.45 26.6449C99.9269 26.128 99.565 25.4702 99.4085 24.7516C99.1224 23.5044 98.9553 22.2329 98.9094 20.9542C98.866 20.173 98.8389 19.5654 98.8281 19.126C98.7292 17.2485 98.7292 15.3671 98.8281 13.4896C98.9311 12.3883 99.1373 11.759 99.4465 11.542Z" fill="#F48E9F"/>
<path d="M107.496 14.2817C107.938 14.0744 108.414 13.9511 108.901 13.9182C109.173 13.8926 109.446 13.9217 109.706 14.0036C109.966 14.0856 110.207 14.2189 110.415 14.3956C110.616 14.584 110.776 14.8117 110.885 15.0646C110.994 15.3175 111.05 15.5902 111.05 15.8657C111.093 16.7608 110.87 17.3033 110.393 17.4932C110.286 17.5367 110.172 17.5589 110.057 17.5583C109.925 17.5675 109.793 17.5452 109.671 17.4934C109.549 17.4415 109.442 17.3615 109.357 17.2599C109.158 17.031 109.049 16.7384 109.048 16.4353C109.053 16.298 109.029 16.1611 108.977 16.0339C108.945 15.9796 108.858 15.9525 108.728 15.9634C108.148 16.1195 107.62 16.4265 107.198 16.853C106.482 17.4389 106.113 17.8675 106.026 18.1442V18.1984V18.2472C106.026 18.3286 106.14 18.3937 106.357 18.4371C106.574 18.4805 107.209 18.589 108.277 18.7463C108.986 18.8268 109.683 18.9888 110.355 19.2291C110.793 19.4216 111.201 19.6775 111.565 19.9886C111.924 20.2837 112.23 20.6377 112.471 21.0356C112.676 21.4387 112.782 21.8851 112.78 22.3376C112.814 22.679 112.772 23.0238 112.655 23.3466C112.2 24.3285 111.077 25.0229 109.286 25.4189C108.952 25.4962 108.613 25.5542 108.272 25.5925C107.933 25.5936 107.595 25.5608 107.263 25.4949C105.983 25.2959 105.182 24.7245 104.86 23.7806C104.826 23.6694 104.804 23.5548 104.795 23.4388C104.783 23.3115 104.8 23.1832 104.844 23.0631C104.889 22.9431 104.959 22.8343 105.05 22.7444C105.226 22.5596 105.467 22.4506 105.722 22.4407C105.916 22.4332 106.108 22.48 106.277 22.5759C106.446 22.6717 106.584 22.8128 106.677 22.9831C106.888 23.2719 107.203 23.4667 107.556 23.5256C107.783 23.567 108.015 23.5798 108.245 23.5636C108.835 23.5384 109.413 23.3906 109.943 23.1296C110.485 22.8638 110.735 22.5871 110.724 22.2725C110.702 21.8349 110.35 21.4606 109.666 21.1495C108.493 20.7615 107.271 20.5423 106.037 20.4986C105.707 20.4748 105.385 20.383 105.092 20.2289C104.799 20.0749 104.54 19.862 104.334 19.6035C104.12 19.2821 104.009 18.9041 104.013 18.5185C103.978 18.0551 104.054 17.5899 104.236 17.1623C104.545 16.5709 104.969 16.0472 105.484 15.6216C106.083 15.0758 106.761 14.624 107.496 14.2817Z" fill="#F48E9F"/>
<path d="M124.807 7.11514C124.946 7.05073 125.095 7.01212 125.247 7.00122C125.688 6.98568 126.122 7.11946 126.478 7.38096C126.852 7.73615 127.143 8.16963 127.33 8.65037C127.609 9.23183 127.792 9.85473 127.872 10.4948C127.872 10.6738 127.91 10.8691 127.916 11.0807C127.927 11.1879 127.914 11.2961 127.88 11.3981C127.845 11.5001 127.789 11.5935 127.715 11.672C127.553 11.8332 127.336 11.9263 127.107 11.9324C126.97 11.9345 126.833 11.9082 126.706 11.855C126.579 11.8017 126.465 11.7228 126.37 11.6232C126.147 11.4024 126.016 11.1063 126.001 10.7932C125.979 10.452 125.908 10.1157 125.789 9.79502C125.675 9.47495 125.561 9.31221 125.447 9.31763C125.334 9.32306 125.203 9.54005 125.149 9.97404C125.095 10.408 125.073 11.2435 125.073 12.4803V14.8456L126.098 14.7425L126.777 14.6774C127.06 14.6914 127.327 14.8161 127.52 15.0246C127.717 15.1696 127.854 15.3819 127.905 15.6213C127.875 15.8231 127.786 16.0117 127.65 16.1638C127.554 16.3055 127.418 16.4152 127.259 16.4785C126.983 16.5445 126.702 16.588 126.419 16.6087L125.491 16.7117L125.458 17.2542C125.486 17.7375 125.549 18.218 125.648 18.6918C125.784 19.5001 125.93 20.3193 126.082 21.1818C126.234 22.0444 126.315 22.4892 126.315 22.5543C126.312 22.5777 126.312 22.6014 126.315 22.6248C126.319 22.65 126.319 22.6756 126.315 22.7008C126.312 22.9432 126.217 23.1754 126.051 23.3512C125.884 23.5271 125.657 23.6338 125.415 23.6501C124.927 23.6501 124.59 23.3735 124.411 22.7767C124.335 22.5055 124.2 21.7894 123.994 20.6068C123.787 19.4242 123.646 18.5508 123.565 17.8943L123.44 16.8962H122.659C122.136 16.9471 121.608 16.8823 121.113 16.7063C120.964 16.6272 120.842 16.5067 120.76 16.3594C120.678 16.2122 120.641 16.0444 120.652 15.8763C120.632 15.7509 120.647 15.6226 120.695 15.5051C120.743 15.3876 120.822 15.2852 120.923 15.209C121.301 15.0547 121.709 14.9861 122.117 15.0083L123.18 15.0463L123.131 13.2398C123.055 11.8566 123.168 10.4695 123.467 9.11691C123.635 8.30017 124.116 7.58162 124.807 7.11514Z" fill="#F48E9F"/>
<path d="M133.357 13.6632C133.536 13.6322 133.717 13.6122 133.899 13.6035C134.533 13.6093 135.16 13.7325 135.749 13.967C136.33 14.157 136.857 14.4845 137.284 14.9218C137.68 15.3207 137.973 15.8105 138.136 16.3485C138.309 17.1412 138.389 17.9513 138.375 18.7626C138.375 19.6577 138.375 20.2381 138.326 20.5094C138.277 20.858 138.184 21.1989 138.049 21.5238C137.87 21.9972 137.658 22.4576 137.415 22.9017C137.294 23.0615 137.212 23.2473 137.176 23.4442C137.176 23.5419 136.975 23.7534 136.563 24.0789C136.226 24.3522 135.863 24.5903 135.478 24.7896C135.039 25.0082 134.557 25.125 134.067 25.1314C133.42 25.1421 132.782 24.9691 132.228 24.6323C131.653 24.3055 131.183 23.822 130.872 23.2381C130.383 22.2831 130.132 21.2242 130.14 20.1513C130.138 19.6073 130.171 19.0638 130.237 18.5239C130.368 17.5702 130.65 16.6435 131.073 15.7789C131.292 15.2364 131.62 14.7451 132.039 14.3359C132.412 14.0013 132.867 13.7695 133.357 13.6632ZM135.114 15.882C134.797 15.7082 134.445 15.6046 134.084 15.5782C133.892 15.5818 133.705 15.6361 133.541 15.7355C133.342 15.8557 133.17 16.0165 133.037 16.2075C132.908 16.3465 132.819 16.5167 132.776 16.7011C132.717 17.0187 132.632 17.3308 132.521 17.6342C132.343 18.3043 132.24 18.992 132.212 19.6848C132.203 19.8655 132.203 20.0466 132.212 20.2273C132.158 21.128 132.452 22.015 133.031 22.7064C133.167 22.8298 133.327 22.9242 133.5 22.9839C133.674 23.0436 133.857 23.0673 134.04 23.0536C134.257 23.0645 134.474 23.0274 134.675 22.9451C134.901 22.7945 135.104 22.6118 135.277 22.4026C135.432 22.2478 135.572 22.0789 135.695 21.8981C135.774 21.7824 135.842 21.6588 135.896 21.5292C135.928 21.437 135.972 21.2797 136.037 21.0627C136.102 20.8457 136.161 20.6396 136.221 20.4605C136.355 20.042 136.414 19.603 136.395 19.164C136.395 19.0989 136.395 18.9904 136.395 18.8439C136.395 18.6975 136.395 18.5781 136.395 18.4805C136.398 17.856 136.301 17.2351 136.107 16.6414C135.882 16.2741 135.528 16.0035 135.114 15.882Z" fill="#F48E9F"/>
<path d="M140.68 14.2271C140.871 14.0452 141.122 13.9392 141.386 13.9287C141.514 13.9284 141.64 13.9542 141.758 14.0046C141.875 14.055 141.981 14.1288 142.069 14.2217C142.152 14.2958 142.218 14.386 142.265 14.4867C142.312 14.5875 142.337 14.6966 142.341 14.8075C142.341 14.8401 142.324 15.0354 142.292 15.3934L142.221 16.2451L143.051 15.4151C143.405 15.0339 143.811 14.7035 144.255 14.4332C144.628 14.2436 145.042 14.1503 145.46 14.162C145.655 14.162 145.812 14.162 145.926 14.162C147.049 14.2759 147.765 14.6068 148.096 15.1602C148.162 15.2662 148.196 15.3883 148.196 15.5128C148.196 15.6373 148.162 15.7594 148.096 15.8654C148.012 16.0407 147.881 16.189 147.717 16.2935C147.553 16.398 147.363 16.4545 147.169 16.4567C146.953 16.4558 146.739 16.4229 146.534 16.3591C146.22 16.2478 145.891 16.1838 145.557 16.1692C145.015 16.1692 144.532 16.6249 144.049 17.5362C143.734 18.2321 143.494 18.9595 143.333 19.7062C143.129 20.4262 143.005 21.1667 142.964 21.9141C142.959 21.9501 142.959 21.9866 142.964 22.0226C142.964 22.066 142.964 22.0931 142.964 22.1094C142.983 22.1894 142.992 22.2714 142.991 22.3535C142.962 22.584 142.859 22.7988 142.699 22.9665C142.608 23.0881 142.49 23.1868 142.354 23.2546C142.219 23.3224 142.069 23.3576 141.917 23.3571C141.703 23.3492 141.496 23.278 141.322 23.1525C141.148 23.0269 141.016 22.8528 140.941 22.6519C140.561 21.9358 140.333 20.2758 140.241 17.6719C140.209 16.8256 140.192 16.3048 140.187 16.1095C140.172 15.6764 140.208 15.243 140.295 14.8184C140.367 14.5895 140.5 14.3848 140.68 14.2271Z" fill="#F48E9F"/>
<path d="M162.364 14.7587C162.453 14.4307 162.631 14.134 162.879 13.9016C162.985 13.7888 163.113 13.6986 163.254 13.6361C163.396 13.5737 163.549 13.5403 163.704 13.5381C163.848 13.5453 163.989 13.5829 164.118 13.6483C164.247 13.7137 164.361 13.8056 164.452 13.9178C164.544 13.9995 164.612 14.1049 164.649 14.2226C164.685 14.3403 164.688 14.4656 164.658 14.5851C164.418 15.9695 164.311 17.3737 164.338 18.7785C164.338 19.8345 164.338 20.6808 164.338 21.3173C164.338 21.9521 164.338 22.7658 164.338 23.7585C164.302 25.9285 164.103 27.4709 163.741 28.3859C163.564 28.8169 163.313 29.2135 162.998 29.5577C162.708 29.8839 162.343 30.1351 161.935 30.2901C161.508 30.4605 161.049 30.5364 160.59 30.5125C159.452 30.5066 158.343 30.1547 157.411 29.5035C156.733 29.0478 156.402 28.5867 156.407 28.1147C156.414 27.9756 156.45 27.8393 156.511 27.7144C156.573 27.5894 156.659 27.4783 156.765 27.3878C156.836 27.3149 156.92 27.2567 157.013 27.2167C157.106 27.1766 157.206 27.1555 157.308 27.1545C157.667 27.1958 158.004 27.3474 158.273 27.5885C158.908 28.1206 159.702 28.426 160.53 28.4565C160.751 28.4682 160.973 28.4573 161.192 28.4239C161.332 28.3724 161.453 28.2798 161.539 28.1581C161.713 27.9147 161.849 27.6456 161.94 27.3606C162.096 26.8869 162.203 25.0243 162.261 21.773C162.312 21.1803 162.299 20.5837 162.223 19.9937C162.141 19.9937 161.957 20.1564 161.68 20.4928C161.342 20.8983 160.941 21.2464 160.492 21.5235C160.245 21.6989 159.979 21.8462 159.7 21.9629C159.445 22.0259 159.181 22.0497 158.919 22.0334C158.669 22.0398 158.419 22.0142 158.176 21.9575C157.977 21.8866 157.793 21.78 157.633 21.6428C156.906 20.9393 156.462 19.9936 156.385 18.9847C156.287 18.0278 156.257 17.0652 156.293 16.104C156.293 15.1276 156.331 14.5254 156.364 14.3084C156.378 14.1181 156.463 13.9401 156.602 13.8093C156.794 13.6439 157.038 13.5533 157.291 13.5544C157.435 13.5527 157.578 13.5841 157.707 13.6461C157.837 13.7082 157.951 13.7993 158.04 13.9124C158.181 14.085 158.271 14.2935 158.3 14.5146C158.327 14.7316 158.333 15.3337 158.3 16.3102C158.264 18.2776 158.414 19.4675 158.751 19.8798C158.777 19.9163 158.812 19.9452 158.853 19.9633C158.894 19.9815 158.939 19.9882 158.984 19.9828C159.228 19.9828 159.613 19.717 160.145 19.1745C160.648 18.5752 161.071 17.9133 161.403 17.2053C161.818 16.4299 162.14 15.6088 162.364 14.7587Z" fill="#F48E9F"/>
<path d="M169.99 13.9071C170.17 13.8824 170.351 13.8715 170.532 13.8745C171.166 13.9049 171.789 14.0558 172.366 14.3193C172.929 14.5418 173.433 14.8929 173.836 15.3446C174.21 15.7636 174.477 16.2658 174.617 16.8094C174.752 17.6084 174.792 18.4205 174.737 19.2288C174.693 20.1239 174.65 20.7044 174.612 20.9702C174.544 21.3166 174.435 21.6536 174.286 21.9738C174.083 22.4373 173.85 22.8868 173.587 23.3192C173.46 23.4778 173.371 23.6634 173.326 23.8617C173.326 23.9539 173.109 24.1546 172.686 24.4638C172.337 24.7194 171.965 24.941 171.574 25.1257C171.127 25.3216 170.641 25.4143 170.153 25.3969C169.504 25.3781 168.875 25.1769 168.335 24.8165C167.779 24.4497 167.339 23.9323 167.066 23.3246C166.624 22.3447 166.423 21.2733 166.48 20.1999C166.504 19.6545 166.56 19.1111 166.648 18.5724C166.826 17.6233 167.152 16.708 167.614 15.86C167.86 15.3307 168.211 14.8565 168.645 14.4658C169.037 14.1659 169.501 13.9733 169.99 13.9071ZM171.65 16.1855C171.342 15.9957 170.995 15.8771 170.636 15.8383C170.446 15.8337 170.259 15.8786 170.093 15.9685C169.882 16.0756 169.697 16.2274 169.551 16.4133C169.414 16.545 169.316 16.7122 169.268 16.8962C169.19 17.2089 169.089 17.5154 168.965 17.813C168.752 18.4751 168.615 19.1595 168.558 19.8527C168.534 20.0325 168.521 20.2137 168.52 20.3952C168.419 21.2915 168.669 22.1921 169.22 22.9069C169.349 23.0368 169.503 23.1393 169.672 23.2082C169.842 23.2772 170.024 23.3113 170.207 23.3083C170.424 23.3282 170.642 23.3005 170.847 23.227C171.078 23.093 171.288 22.9268 171.471 22.7333C171.633 22.5855 171.782 22.424 171.916 22.2505C172.003 22.1389 172.076 22.0168 172.133 21.887C172.173 21.8002 172.227 21.6483 172.296 21.4313C172.366 21.2143 172.437 21.0136 172.507 20.84C172.66 20.4265 172.741 19.9898 172.746 19.5489C172.746 19.4838 172.746 19.3807 172.746 19.2343V18.8979C172.778 18.2745 172.71 17.65 172.545 17.048C172.361 16.6614 172.043 16.3548 171.65 16.1855Z" fill="#F48E9F"/>
<path d="M184.508 13.8092C184.603 13.7784 184.702 13.7673 184.801 13.7767C185.06 13.7902 185.311 13.8726 185.528 14.0154C185.738 14.1338 185.895 14.3278 185.968 14.5579C186 14.7276 186.01 14.901 185.995 15.0732C185.995 15.4801 185.93 15.9466 185.854 16.4837C185.778 17.0208 185.707 18.1763 185.631 19.9176C185.599 20.65 185.572 21.621 185.55 22.8362C185.528 24.0514 185.512 24.7892 185.496 25.0658C185.481 25.1725 185.446 25.2753 185.392 25.3684C185.338 25.4615 185.267 25.543 185.181 25.6083C185.103 25.6909 185.01 25.7573 184.907 25.8039C184.804 25.8504 184.692 25.8761 184.579 25.8796C184.349 25.8308 184.142 25.709 183.988 25.5324C183.564 25.1418 183.384 24.1563 183.445 22.5758C183.483 21.7784 183.445 21.3824 183.402 21.3769C183.358 21.3715 183.19 21.556 182.962 21.9194C182.578 22.5102 182.144 23.0673 181.666 23.5849C181.337 23.9899 180.932 24.3256 180.472 24.5722C180.177 24.6968 179.859 24.7561 179.539 24.7458C179.119 24.7096 178.717 24.557 178.379 24.3049C178.04 24.0529 177.779 23.7114 177.624 23.319C177.217 22.3771 176.968 21.3746 176.886 20.3516C176.72 18.9113 176.674 17.4596 176.751 16.0117C176.758 15.6339 176.791 15.2569 176.848 14.8834C176.896 14.7013 176.987 14.5336 177.114 14.3951C177.215 14.2783 177.343 14.1874 177.486 14.1298C177.63 14.0723 177.785 14.0498 177.939 14.0642C178.07 14.0637 178.199 14.095 178.315 14.1555C178.432 14.2159 178.531 14.3038 178.606 14.4114C178.8 14.9307 178.858 15.4909 178.774 16.0389C178.697 17.5353 178.762 19.0357 178.97 20.5198C179.17 21.8652 179.431 22.5433 179.756 22.5596C179.838 22.5596 180.12 22.272 180.602 21.6916C181.825 20.2449 182.816 18.122 183.575 15.3228C183.819 14.4548 184.129 13.9394 184.508 13.8092Z" fill="#F48E9F"/>
<path d="M188.338 15.3227C188.541 15.1548 188.797 15.0662 189.06 15.0731C189.188 15.0802 189.313 15.1131 189.428 15.17C189.542 15.2269 189.644 15.3065 189.727 15.4041C189.805 15.4836 189.865 15.5779 189.905 15.6813C189.945 15.7848 189.964 15.8953 189.96 16.0062C189.96 16.0388 189.933 16.2341 189.879 16.5867L189.754 17.433L190.633 16.6572C191.009 16.2965 191.435 15.9915 191.897 15.7512C192.28 15.5823 192.7 15.5132 193.118 15.5505C193.272 15.5583 193.426 15.5765 193.579 15.6048C194.691 15.7838 195.391 16.1473 195.667 16.7277C195.724 16.8384 195.75 16.9622 195.742 17.0863C195.734 17.2103 195.694 17.33 195.624 17.433C195.531 17.6046 195.392 17.7466 195.222 17.8426C195.052 17.9385 194.859 17.9846 194.664 17.9754C194.448 17.9642 194.236 17.9184 194.034 17.8398C193.728 17.7123 193.404 17.6283 193.074 17.5903C192.532 17.5577 192.022 17.9863 191.485 18.8651C191.126 19.5468 190.842 20.2652 190.639 21.0079C190.391 21.7107 190.22 22.4383 190.129 23.1779C190.124 23.2157 190.124 23.254 190.129 23.2918C190.129 23.3298 190.129 23.3569 190.129 23.3732C190.137 23.4561 190.137 23.5398 190.129 23.6227C190.084 23.8501 189.968 24.0573 189.798 24.214C189.701 24.3307 189.577 24.4226 189.438 24.482C189.298 24.5414 189.146 24.5667 188.995 24.5558C188.782 24.5354 188.579 24.4524 188.413 24.3172C188.247 24.1821 188.125 24.0008 188.062 23.7963C187.733 23.073 187.602 21.4021 187.671 18.7837C187.671 17.9375 187.698 17.4167 187.709 17.2214C187.719 16.7866 187.782 16.3547 187.899 15.9357C187.981 15.6923 188.134 15.479 188.338 15.3227Z" fill="#F48E9F"/>
<path d="M209.875 16.2181C210.207 15.9664 210.614 15.8345 211.03 15.8437C211.341 15.8508 211.643 15.955 211.892 16.1417C212.141 16.3285 212.325 16.5885 212.419 16.8853C212.673 17.9807 212.723 19.1136 212.565 20.227C212.339 22.4287 212.002 24.6177 211.556 26.7857C211.388 27.67 211.014 28.0877 210.471 28.0443C210.331 28.0487 210.192 28.0201 210.064 27.9607C209.937 27.9014 209.826 27.8129 209.739 27.7025C209.586 27.376 209.537 27.0107 209.598 26.6555C209.644 26.1508 209.718 25.6491 209.82 25.1528C210.17 23.3589 210.427 21.5482 210.591 19.7279C210.667 18.8328 210.65 18.3826 210.553 18.3772C210.455 18.3717 209.793 19.1312 208.768 20.6827C207.743 22.2342 206.831 23.7261 206.056 25.1691C205.804 25.6741 205.504 26.1536 205.16 26.6013C205.087 26.7091 204.988 26.7975 204.873 26.859C204.758 26.9204 204.629 26.9529 204.499 26.9539C204.381 26.9431 204.267 26.91 204.162 26.8562C203.956 26.7489 203.781 26.5901 203.655 26.3952C203.529 26.2003 203.455 25.976 203.441 25.7441C203.337 24.6864 203.348 23.6205 203.473 22.5652C203.549 21.5724 203.625 20.7695 203.69 20.1565C203.88 18.3446 204.032 17.2 204.135 16.728C204.182 16.3442 204.376 15.9937 204.678 15.7515C204.834 15.6388 205.029 15.592 205.22 15.6213C205.463 15.6412 205.693 15.7425 205.871 15.9088C205.96 15.9804 206.032 16.0713 206.081 16.1747C206.13 16.2781 206.155 16.3912 206.153 16.5056C206.115 17.0481 206.012 17.9703 205.855 19.3482C205.746 20.2867 205.692 20.8292 205.676 20.9757C205.643 21.4259 205.676 21.6592 205.746 21.6646C205.817 21.67 206.186 21.1221 206.831 20.0372C207.985 18.048 208.999 16.775 209.875 16.2181Z" fill="#F48E9F"/>
<path d="M216.617 17.0642C216.939 16.7616 217.319 16.5276 217.734 16.3765C218.149 16.2255 218.59 16.1604 219.031 16.1854C219.413 16.2258 219.782 16.344 220.116 16.5326C220.554 16.754 220.928 17.0847 221.201 17.4928C221.491 17.9668 221.688 18.4914 221.782 19.0389C221.831 19.265 221.844 19.4976 221.82 19.7278C221.768 20.1466 221.627 20.5495 221.407 20.9096C221.188 21.2698 220.894 21.5789 220.545 21.8164C219.75 22.4264 218.785 22.7751 217.784 22.8146C217.473 22.8384 217.161 22.8384 216.85 22.8146C216.753 22.8103 216.656 22.7939 216.563 22.7657L216.107 22.6247L216.01 23.7097C215.926 24.2556 215.975 24.8136 216.151 25.3371C216.194 25.5224 216.279 25.6951 216.4 25.8416C216.551 25.9346 216.719 25.9956 216.894 26.0207H217.089C217.658 25.998 218.214 25.8478 218.717 25.5812C219.224 25.3203 219.776 25.1565 220.344 25.0984C220.442 25.1076 220.536 25.1381 220.62 25.1878C220.705 25.2375 220.777 25.3051 220.832 25.3859C220.909 25.4716 220.968 25.5722 221.004 25.6814C221.04 25.7905 221.054 25.906 221.044 26.0207C220.993 26.5342 220.308 27.0423 218.988 27.545C218.619 27.6891 218.24 27.8052 217.854 27.8922C217.505 27.9359 217.151 27.9359 216.802 27.8922C216.479 27.8732 216.16 27.8242 215.847 27.7458C215.628 27.655 215.427 27.5244 215.256 27.3606C214.872 27.0058 214.578 26.5652 214.398 26.0749C214.246 25.7632 214.135 25.4332 214.067 25.093C214.046 24.5789 214.063 24.064 214.116 23.5523L214.171 22.9665C214.442 20.1636 215.257 18.1962 216.617 17.0642ZM219.444 18.3553C219.293 18.2181 219.103 18.131 218.901 18.1058C218.606 18.0982 218.315 18.1836 218.071 18.3499C217.741 18.6328 217.457 18.966 217.23 19.3372C216.969 19.673 216.784 20.0618 216.688 20.4764L216.623 20.8887L217.404 20.9321C217.848 20.9526 218.292 20.8957 218.717 20.764C219.035 20.6232 219.327 20.4287 219.579 20.1889C219.784 20.0395 219.933 19.8255 220.002 19.5813C220.009 19.3555 219.958 19.1317 219.856 18.9304C219.764 18.7096 219.623 18.5128 219.444 18.3553Z" fill="#F48E9F"/>
<path d="M230.24 18.7572C230.972 18.1442 231.477 17.8567 231.753 17.8838C231.893 17.913 232.028 17.9604 232.155 18.0248C232.297 18.1305 232.401 18.2787 232.453 18.448C232.54 18.6361 232.578 18.8434 232.562 19.0501C232.559 19.0993 232.546 19.1474 232.524 19.1912C232.236 19.6184 231.88 19.9959 231.471 20.3087C230.933 20.8014 230.424 21.3249 229.947 21.8765C229.59 22.2256 229.28 22.6194 229.024 23.0483C229.371 23.8276 229.759 24.5882 230.185 25.3267C230.956 26.8348 231.379 27.7136 231.455 27.9632C231.49 28.1354 231.477 28.314 231.418 28.4795C231.359 28.645 231.255 28.791 231.119 28.9017C230.919 29.0492 230.671 29.1151 230.424 29.0861C230.309 29.0785 230.197 29.049 230.093 28.9993C229.729 28.677 229.441 28.2789 229.247 27.833C228.867 27.1549 228.509 26.493 228.162 25.8529C228.016 25.4996 227.814 25.1718 227.565 24.8819C227.182 25.261 226.836 25.6771 226.534 26.1241C225.9 26.9596 225.45 27.5943 225.167 28.0446C225.004 28.3282 224.791 28.58 224.538 28.7878C224.341 28.9153 224.104 28.9673 223.871 28.9342C223.736 28.9292 223.604 28.8915 223.487 28.8244C223.37 28.7573 223.271 28.6628 223.198 28.5491C223.074 28.3612 223.012 28.1394 223.019 27.9144C223.068 27.4912 223.752 26.4225 225.081 24.692C225.565 24.1277 225.991 23.5151 226.35 22.8638C226.164 22.2886 225.901 21.7412 225.569 21.2363C225.227 20.686 224.922 20.1133 224.657 19.5221C224.532 19.2393 224.476 18.9304 224.495 18.6216C224.504 18.4604 224.56 18.3055 224.656 18.1762C224.753 18.0468 224.885 17.9489 225.037 17.8946C225.205 17.811 225.394 17.7789 225.58 17.8024C225.981 17.8458 226.35 18.2255 226.665 18.9471C226.859 19.3978 227.088 19.8331 227.348 20.249C227.645 20.7373 227.835 20.9868 227.918 20.9977C228.001 21.0085 228.229 20.7861 228.601 20.3304C229.096 19.7553 229.645 19.2285 230.24 18.7572Z" fill="#F48E9F"/>
<path d="M238.415 16.1527C238.455 16.0584 238.515 15.9738 238.591 15.9045C238.667 15.8353 238.756 15.783 238.854 15.7512C239.069 15.6651 239.302 15.6334 239.532 15.659C239.722 15.6795 239.904 15.75 240.058 15.8634C240.213 15.9767 240.334 16.129 240.411 16.3046C240.483 16.4276 240.519 16.5688 240.514 16.7114C240.489 16.8422 240.449 16.9696 240.395 17.0912C240.25 17.4677 240.146 17.8588 240.085 18.2575L239.95 18.979H240.66C240.799 18.9694 240.939 18.9694 241.078 18.979C241.308 19.0182 241.519 19.1305 241.68 19.2991C241.781 19.4024 241.856 19.5279 241.899 19.6654C241.943 19.803 241.953 19.9488 241.93 20.0911C241.911 20.2396 241.869 20.3843 241.805 20.5197C241.637 20.8072 241.132 20.9537 240.275 20.9537H239.565L239.407 21.6752C238.928 23.7162 238.566 25.7828 238.322 27.865C238.274 28.4119 238.192 28.9554 238.078 29.4924C238.026 29.6881 237.912 29.8614 237.753 29.9861C237.672 30.0805 237.573 30.1565 237.46 30.209C237.348 30.2614 237.226 30.289 237.102 30.2899C236.858 30.2462 236.638 30.1151 236.483 29.921C236.353 29.7863 236.269 29.6132 236.245 29.4273C236.245 29.2591 236.245 28.8035 236.31 28.0548L236.369 27.5503C236.471 26.6787 236.642 25.5341 236.885 24.1164C237.123 22.7059 237.302 21.8 237.427 21.4039L237.552 20.9754H236.858C236.315 20.9754 235.925 20.9754 235.626 21.0025C235.538 21.0103 235.449 21.0103 235.36 21.0025C235.251 20.9818 235.146 20.9395 235.053 20.878C234.96 20.8165 234.88 20.7372 234.818 20.6445C234.718 20.5158 234.646 20.368 234.606 20.2103C234.566 20.0526 234.559 19.8883 234.585 19.7277C234.628 19.3425 234.764 19.0984 234.986 19.0062C235.489 18.887 236.009 18.8612 236.521 18.9302C236.962 18.966 237.404 18.966 237.845 18.9302C237.995 18.5217 238.088 18.0946 238.122 17.6608C238.184 17.1518 238.281 16.6478 238.415 16.1527Z" fill="#F48E9F"/>
<path d="M253.615 21.6105C253.975 21.5643 254.339 21.5552 254.7 21.5834C255.301 21.6998 255.847 22.0082 256.257 22.4622C256.528 22.7497 256.702 22.8962 256.8 22.9071C256.897 22.9179 257.06 23.059 257.288 23.3194C257.383 23.4 257.46 23.5006 257.512 23.6139C257.565 23.7273 257.592 23.8508 257.592 23.9758C257.592 24.0083 257.548 24.1711 257.472 24.4532C257.356 24.9438 257.173 25.4165 256.93 25.8582C256.748 26.2222 256.624 26.6119 256.561 27.0137C256.467 27.4983 256.268 28.8437 255.964 31.0498C255.639 33.3716 255.422 34.8472 255.243 35.5199C255.112 36.1195 254.875 36.6908 254.543 37.207C254.213 37.6604 253.767 38.0164 253.252 38.2377C252.756 38.4815 252.2 38.5757 251.651 38.509C251.263 38.466 250.888 38.3396 250.553 38.1383C250.218 37.937 249.93 37.6655 249.709 37.3426C249.516 37.1278 249.406 36.8505 249.4 36.5615C249.412 36.4637 249.434 36.3674 249.465 36.2739C249.595 35.802 249.845 35.5904 250.219 35.6392C250.539 35.7149 250.825 35.8941 251.033 36.1492C251.242 36.4004 251.531 36.5711 251.852 36.632C252.368 36.7025 252.801 36.3824 253.143 35.6772C253.431 34.8331 253.613 33.9567 253.686 33.0678L253.838 31.9829L254.223 28.8581L253.556 29.2108C253.154 29.4344 252.726 29.6058 252.281 29.7207C251.89 29.8129 251.689 29.8943 251.679 29.9594C251.668 30.0245 251.483 30.0299 251.136 29.9594C250.793 29.9093 250.468 29.7703 250.195 29.5562C249.922 29.3421 249.71 29.0603 249.579 28.7388C249.295 28.0931 249.206 27.3783 249.324 26.6828C249.508 25.4556 250.03 24.304 250.832 23.3573C251.157 22.8962 251.57 22.5042 252.048 22.2043C252.526 21.9044 253.059 21.7026 253.615 21.6105ZM254.565 25.9504C254.81 25.6217 254.965 25.2346 255.015 24.8275C255.071 24.5138 255.032 24.1904 254.901 23.8998C254.846 23.7749 254.759 23.6669 254.648 23.5868C254.537 23.5068 254.407 23.4575 254.272 23.4441C253.935 23.4443 253.608 23.5485 253.333 23.7425C252.936 23.9644 252.583 24.2567 252.292 24.6051C251.705 25.2777 251.328 26.1075 251.207 26.992C251.12 27.605 251.234 27.9359 251.537 27.9739C251.841 28.0119 252.346 27.8057 253.046 27.3338C253.632 26.9687 254.146 26.4999 254.565 25.9504Z" fill="#F48E9F"/>
<path d="M261.632 22.4346C261.972 22.1532 262.364 21.9428 262.786 21.8161C263.208 21.6893 263.652 21.6488 264.09 21.6968C264.476 21.7537 264.846 21.8924 265.175 22.1037C265.603 22.354 265.963 22.7062 266.222 23.129C266.48 23.6207 266.646 24.1559 266.71 24.7076C266.745 24.9359 266.745 25.1683 266.71 25.3966C266.634 25.8124 266.469 26.2071 266.228 26.5542C265.986 26.9013 265.674 27.1928 265.31 27.4092C264.48 27.9701 263.497 28.2617 262.495 28.2447C262.183 28.2535 261.871 28.239 261.562 28.2013C261.465 28.1928 261.37 28.169 261.28 28.1307L260.835 27.968L260.672 29.053C260.557 29.6021 260.572 30.1706 260.716 30.713C260.75 30.8993 260.826 31.0755 260.938 31.2283C261.084 31.3282 261.248 31.3983 261.421 31.4345L261.616 31.467C262.177 31.4682 262.732 31.3498 263.244 31.1198C263.77 30.8888 264.335 30.7564 264.909 30.7292C265.006 30.7451 265.099 30.782 265.18 30.8373C265.262 30.8925 265.33 30.9649 265.381 31.0493C265.451 31.1391 265.502 31.242 265.532 31.3519C265.562 31.4618 265.57 31.5766 265.555 31.6894C265.475 32.2066 264.763 32.675 263.417 33.0945C263.04 33.2177 262.653 33.312 262.262 33.3766C261.909 33.3944 261.556 33.3708 261.209 33.3061C260.889 33.2682 260.573 33.1992 260.265 33.0999C260.06 32.996 259.876 32.8543 259.723 32.6822C259.358 32.3087 259.088 31.8528 258.936 31.3531C258.799 31.0329 258.708 30.6951 258.665 30.3495C258.676 29.8353 258.721 29.3224 258.801 28.8143L258.887 28.2338C259.293 25.4201 260.208 23.487 261.632 22.4346ZM264.383 23.8614C264.235 23.7149 264.046 23.6182 263.84 23.5847C263.547 23.5587 263.253 23.6251 262.999 23.7746C262.654 24.0389 262.352 24.3555 262.104 24.7131C261.833 25.0305 261.628 25.3995 261.502 25.798L261.415 26.2049L262.197 26.2971C262.638 26.3429 263.084 26.3117 263.515 26.2049C263.841 26.0735 264.143 25.8903 264.41 25.6624C264.625 25.5244 264.787 25.318 264.871 25.0765C264.89 24.8516 264.851 24.6254 264.757 24.4201C264.673 24.2098 264.545 24.0195 264.383 23.8614Z" fill="#F48E9F"/>
<path d="M272.905 20.9923C272.951 20.9001 273.016 20.8187 273.096 20.7532C273.175 20.6878 273.267 20.6399 273.367 20.6125C273.584 20.5346 273.817 20.5123 274.045 20.5474C274.233 20.579 274.411 20.6584 274.56 20.7781C274.709 20.8977 274.825 21.0537 274.896 21.231C274.961 21.3584 274.989 21.501 274.978 21.6432C274.946 21.7724 274.9 21.8978 274.842 22.0176C274.682 22.3875 274.56 22.7729 274.479 23.1676L274.316 23.8837L275.027 23.9271C275.165 23.9306 275.303 23.9451 275.439 23.9705C275.667 24.0155 275.873 24.1359 276.025 24.3123C276.121 24.4198 276.191 24.5484 276.229 24.6879C276.267 24.8273 276.271 24.9737 276.242 25.1152C276.216 25.2614 276.166 25.4025 276.095 25.5329C275.916 25.8204 275.406 25.9397 274.555 25.9018H273.839L273.649 26.6124C273.085 28.6311 272.634 30.6794 272.298 32.7479C272.225 33.2961 272.12 33.8395 271.983 34.3754C271.921 34.5672 271.799 34.7343 271.636 34.8528C271.543 34.9325 271.436 34.9923 271.319 35.0287C271.202 35.0651 271.079 35.0772 270.958 35.0644C270.718 35.0048 270.506 34.8651 270.356 34.6684C270.23 34.5288 270.153 34.3514 270.139 34.1638C270.139 33.9957 270.177 33.54 270.264 32.7968L270.345 32.2923C270.486 31.4243 270.714 30.2905 271.012 28.8854C271.311 27.4804 271.555 26.5907 271.663 26.173L271.81 25.7499H271.115C270.573 25.7499 270.182 25.7227 269.884 25.7227C269.796 25.7324 269.706 25.7324 269.618 25.7227C269.405 25.6667 269.223 25.5307 269.108 25.343C269.015 25.2106 268.949 25.0605 268.916 24.902C268.882 24.7434 268.881 24.5797 268.913 24.4208C268.978 24.0356 269.124 23.7969 269.352 23.7101C269.86 23.618 270.38 23.618 270.887 23.7101C271.326 23.7684 271.769 23.7902 272.211 23.7752C272.377 23.3722 272.488 22.949 272.542 22.5167C272.625 22.0003 272.747 21.4907 272.905 20.9923Z" fill="#F48E9F"/>
<path d="M281.715 26.3624C281.978 26.3452 282.242 26.3579 282.502 26.4004C282.897 26.48 283.268 26.6488 283.587 26.8941C283.872 27.129 284.205 27.2976 284.564 27.3877C284.7 27.4095 284.829 27.4599 284.944 27.5356C285.06 27.6114 285.157 27.7108 285.231 27.8271C285.332 27.9595 285.394 28.1173 285.41 28.2828C285.412 28.5765 285.381 28.8695 285.318 29.1562C285.106 30.3938 284.958 31.6413 284.873 32.894C284.77 33.8146 284.759 34.7433 284.84 35.6661C284.862 35.7735 284.862 35.8842 284.84 35.9916C284.817 36.1159 284.767 36.2335 284.693 36.3358C284.619 36.4382 284.523 36.5226 284.412 36.5829C284.198 36.7193 283.941 36.7715 283.69 36.7294C283.59 36.7087 283.495 36.6661 283.413 36.6046C283.195 36.3987 283.047 36.1292 282.99 35.8343C282.885 35.4216 282.839 34.9959 282.855 34.5703C282.882 34.1471 282.855 33.9301 282.773 33.9138C282.692 33.8976 282.448 34.1146 282.041 34.554C281.603 35.0319 281.081 35.4253 280.5 35.7149C279.997 35.9194 279.444 35.9722 278.911 35.8668L278.596 35.8126C278.267 35.6544 277.987 35.4085 277.788 35.1019C277.516 34.7879 277.318 34.4172 277.207 34.0169C277.042 33.1806 277.042 32.3198 277.207 31.4835C277.263 31.1616 277.343 30.8442 277.446 30.5342C277.836 29.4466 278.473 28.4643 279.307 27.6644C279.931 26.9593 280.784 26.4981 281.715 26.3624ZM282.594 28.5324C282.485 28.4306 282.358 28.3497 282.22 28.2937C282.07 28.2904 281.922 28.3143 281.781 28.3642C281.09 28.5793 280.491 29.0183 280.077 29.6119C279.551 30.2484 279.194 31.0081 279.041 31.8199C278.983 32.1894 278.963 32.5638 278.981 32.9374C278.97 33.2203 279.016 33.5026 279.117 33.7674C279.137 33.8173 279.169 33.8611 279.211 33.8944C279.253 33.9278 279.303 33.9495 279.356 33.9572C279.757 34.0296 280.348 33.639 281.13 32.7855C281.739 32.0587 282.233 31.2427 282.594 30.366C282.756 30.0164 282.887 29.6534 282.985 29.281C282.999 29.1311 282.969 28.9804 282.9 28.8467C282.831 28.7131 282.725 28.6021 282.594 28.527V28.5324Z" fill="#F48E9F"/>
<path d="M301.571 28.999L301.755 28.9556H301.88C302.025 29.0107 302.156 29.1 302.26 29.216C302.394 29.3369 302.505 29.4801 302.591 29.6392C302.663 29.7558 302.688 29.8953 302.661 30.0298C302.536 30.3798 302.373 30.7147 302.173 31.0279C301.652 31.9899 301.135 33.0261 300.621 34.1364C299.612 36.3606 298.831 37.6915 298.278 38.1291C298.118 38.2579 297.933 38.3512 297.735 38.4026C297.537 38.4541 297.33 38.4626 297.128 38.4275C296.88 38.373 296.646 38.2646 296.445 38.1099C296.243 37.9552 296.078 37.758 295.961 37.5324C295.43 36.5993 295.068 35.1635 294.876 33.225C294.838 32.753 294.773 32.5252 294.687 32.5415C294.284 32.9766 293.921 33.4468 293.602 33.9465C292.448 35.545 291.58 36.5125 290.998 36.8488C290.794 36.9916 290.543 37.0499 290.298 37.0116L290.178 36.9736L290.016 36.9302C289.754 36.8785 289.511 36.7544 289.316 36.5722C288.996 36.2304 288.773 35.4872 288.665 34.4022C288.611 33.9899 288.562 33.5505 288.524 33.0785C288.461 32.4296 288.437 31.7774 288.453 31.1256C288.453 30.0786 288.394 29.3191 288.35 28.8417C288.313 28.4801 288.325 28.1149 288.388 27.7567C288.535 27.0081 288.931 26.6718 289.565 26.8182C289.7 26.8337 289.83 26.8787 289.945 26.9499C290.06 27.0212 290.159 27.117 290.233 27.2305C290.38 27.5724 290.443 27.9443 290.417 28.3155C290.39 29.9864 290.417 31.7332 290.564 33.5668C290.623 34.0387 290.694 34.272 290.781 34.2557C290.867 34.2395 291.475 33.4529 292.56 31.8905C293.645 30.3281 294.263 29.509 294.518 29.2106C294.734 28.9502 295.023 28.7611 295.348 28.6681C295.552 28.5978 295.77 28.5791 295.983 28.6139C296.136 28.655 296.274 28.7385 296.381 28.8546C296.489 28.9707 296.561 29.1148 296.591 29.2703C296.732 29.8819 296.798 30.5087 296.786 31.1364C296.8 32.1344 296.873 33.1306 297.003 34.1201C297.14 35.2051 297.287 35.7693 297.442 35.8127H297.469C297.567 35.8127 297.936 35.0966 298.554 33.7132C299.441 31.8145 300.064 30.5723 300.426 29.9864C300.54 29.7527 300.7 29.5447 300.897 29.375C301.094 29.2052 301.323 29.0773 301.571 28.999Z" fill="#F48E9F"/>
<path d="M308.097 31.4615C308.359 31.4549 308.621 31.4786 308.878 31.5321C309.278 31.6244 309.65 31.8103 309.963 32.0746C310.239 32.3244 310.567 32.5097 310.923 32.617C311.137 32.6694 311.331 32.7857 311.477 32.9504C311.623 33.1152 311.716 33.3206 311.743 33.5393C311.731 33.8321 311.689 34.123 311.618 34.4072C311.362 35.637 311.17 36.8791 311.043 38.1287C310.91 39.0446 310.868 39.9713 310.918 40.8954C310.941 41.0027 310.941 41.1136 310.918 41.2209C310.893 41.3445 310.84 41.4607 310.763 41.5605C310.686 41.6602 310.587 41.7408 310.473 41.7959C310.254 41.9253 309.996 41.9697 309.746 41.9207C309.647 41.8967 309.554 41.8503 309.475 41.7851C309.264 41.5731 309.125 41.2996 309.079 41.0039C308.983 40.588 308.952 40.1598 308.987 39.7345C309.03 39.3113 308.987 39.0889 308.927 39.0726C308.867 39.0564 308.596 39.2625 308.173 39.6911C307.705 40.1532 307.152 40.5215 306.546 40.776C306.037 40.9669 305.484 41.0009 304.956 40.8737L304.647 40.8086C304.325 40.6342 304.058 40.373 303.877 40.0545C303.62 39.7358 303.435 39.3659 303.334 38.9696C303.189 38.129 303.211 37.2681 303.399 36.4361C303.465 36.1168 303.556 35.8031 303.67 35.4976C304.098 34.4242 304.768 33.4643 305.629 32.693C306.278 32.0007 307.154 31.5639 308.097 31.4615ZM308.905 33.6586C308.798 33.55 308.671 33.4634 308.531 33.4036C308.384 33.3975 308.238 33.4159 308.097 33.4579C307.398 33.652 306.782 34.0716 306.345 34.6514C305.803 35.2697 305.43 36.017 305.26 36.8213C305.185 37.1871 305.152 37.5602 305.162 37.9334C305.138 38.2165 305.175 38.5014 305.271 38.7688C305.288 38.82 305.319 38.8656 305.36 38.9009C305.401 38.9362 305.451 38.9599 305.504 38.9696C305.9 39.0509 306.502 38.682 307.31 37.8846C307.946 37.1783 308.469 36.3788 308.862 35.5139C309.035 35.1747 309.176 34.8207 309.285 34.4561C309.307 34.3005 309.283 34.1418 309.216 34C309.148 33.8581 309.04 33.7393 308.905 33.6586Z" fill="#F48E9F"/>
<path d="M320.645 34.2398C320.8 33.9387 321.034 33.6855 321.323 33.5075C321.45 33.4177 321.593 33.3546 321.745 33.322C321.897 33.2893 322.054 33.2878 322.207 33.3176C322.35 33.354 322.482 33.4215 322.596 33.5153C322.709 33.6091 322.801 33.7269 322.863 33.8601C322.938 33.9572 322.984 34.073 322.996 34.1946C323.008 34.3162 322.987 34.4389 322.934 34.549C322.407 35.8499 322.003 37.1976 321.73 38.5743C321.496 39.605 321.317 40.435 321.187 41.0589C321.057 41.6827 320.889 42.4748 320.672 43.4458C320.189 45.5724 319.684 47.0425 319.147 47.8562C318.886 48.241 318.559 48.577 318.182 48.849C317.847 49.1214 317.45 49.3076 317.026 49.3915C316.574 49.4741 316.109 49.4556 315.665 49.3372C314.553 49.1018 313.539 48.5343 312.757 47.7098C312.182 47.1311 311.949 46.6103 312.057 46.1474C312.091 46.0127 312.153 45.8864 312.238 45.7763C312.323 45.6663 312.429 45.5747 312.551 45.5073C312.729 45.3912 312.945 45.3502 313.153 45.3933C313.506 45.5066 313.815 45.7264 314.037 46.0226C314.553 46.6703 315.268 47.1298 316.071 47.33C316.284 47.3862 316.503 47.419 316.722 47.4277C316.87 47.4076 317.008 47.3433 317.118 47.2432C317.332 47.0376 317.515 46.8018 317.661 46.5434C317.907 46.1167 318.388 44.3084 319.104 41.1186C319.274 40.5476 319.383 39.9603 319.429 39.3663C319.348 39.3663 319.137 39.4748 318.789 39.7461C318.376 40.0747 317.913 40.3348 317.417 40.5164C317.14 40.636 316.851 40.7251 316.554 40.7822C316.291 40.7931 316.028 40.7639 315.773 40.6954C315.528 40.6485 315.289 40.572 315.062 40.4676C314.89 40.3592 314.739 40.2194 314.618 40.0553C314.048 39.2201 313.804 38.2046 313.934 37.2018C314.032 36.2439 314.197 35.294 314.428 34.3592C314.645 33.4044 314.786 32.8239 314.856 32.6178C314.909 32.4323 315.031 32.2746 315.198 32.1784C315.417 32.0535 315.674 32.0148 315.92 32.0699C316.061 32.0957 316.195 32.1542 316.31 32.2409C316.425 32.3275 316.518 32.4399 316.581 32.569C316.69 32.7639 316.735 32.9874 316.712 33.2091C316.626 33.8024 316.51 34.3908 316.364 34.9722C315.93 36.8926 315.836 38.0879 316.082 38.558C316.099 38.5918 316.123 38.6217 316.152 38.6459C316.181 38.6702 316.214 38.6883 316.251 38.6991C316.489 38.7533 316.923 38.5689 317.552 38.1566C318.163 37.6707 318.71 37.1093 319.18 36.4857C319.759 35.8005 320.251 35.0461 320.645 34.2398Z" fill="#F48E9F"/>
</svg>
