<svg width="350" height="70" viewBox="0 0 350 70" fill="none" xmlns="http://www.w3.org/2000/svg">
<path d="M19.8761 18.6451C20.3558 18.4478 20.8503 18.2884 21.3549 18.1683C21.4519 18.1683 21.8721 18.1683 22.6155 18.3057C23.4237 18.3645 24.1937 18.6729 24.8191 19.1882C25.4445 19.7036 25.8943 20.4005 26.1065 21.1825C26.1512 21.3214 26.1784 21.4653 26.1873 21.6108C26.218 21.8069 26.2094 22.0072 26.1623 22.1999C26.1151 22.3927 26.0303 22.5743 25.9126 22.7341C25.8086 22.8728 25.6763 22.9879 25.5244 23.0715C25.3725 23.1551 25.2046 23.2053 25.0317 23.219C24.715 23.2373 24.4005 23.1549 24.1334 22.9836C23.8663 22.8124 23.6603 22.5609 23.5448 22.2654C23.3621 21.8809 23.1069 21.5352 22.7933 21.2472C22.5133 21.0826 22.1831 21.0252 21.864 21.0856C21.1829 21.1761 20.531 21.4192 19.9569 21.7967C19.2781 22.2001 18.6851 22.7327 18.2114 23.3644C17.2417 24.6816 16.7972 25.7079 16.8699 26.4594C16.8804 26.6411 16.9454 26.8153 17.0564 26.9595C17.1674 27.1036 17.3193 27.211 17.4922 27.2675C18.4036 27.432 19.3312 27.489 20.2559 27.4372C24.3853 27.3726 27.2944 28.0514 28.9591 29.4736C29.4694 29.8922 29.8888 30.4106 30.1918 30.997C30.4947 31.5834 30.6747 32.2254 30.7208 32.8838C30.8051 33.8449 30.6861 34.8129 30.3714 35.7249C30.0568 36.6369 29.5535 37.4723 28.8945 38.1769C28.1242 39.1844 27.1621 40.0294 26.0636 40.6632C24.9651 41.2971 23.752 41.7072 22.4943 41.8699C21.3755 41.9942 20.2432 41.853 19.1892 41.4578C18.2746 41.139 17.4963 40.5175 16.9831 39.6961C16.7188 39.2848 16.5554 38.8168 16.5063 38.3304C16.4516 37.9596 16.5381 37.5818 16.7487 37.2718C16.8597 37.1315 16.9992 37.0165 17.158 36.9343C17.3169 36.8521 17.4914 36.8046 17.67 36.795C18.2518 36.7385 18.8094 37.1263 19.3589 37.9506C19.6506 38.3785 20.063 38.7099 20.5436 38.9027C21.0243 39.0956 21.5514 39.1411 22.0579 39.0335C22.6796 38.9893 23.2891 38.839 23.86 38.589C24.5065 38.2587 25.1092 37.8488 25.654 37.3688C27.0762 36.1647 27.8439 34.9445 27.9732 33.7485C27.9832 33.5547 27.9832 33.3605 27.9732 33.1667C27.7739 31.1141 25.328 30.1336 20.6357 30.2252C19.4738 30.2885 18.3087 30.2534 17.1528 30.1201C16.4851 29.99 15.8636 29.6861 15.3507 29.2393C14.9724 28.9651 14.658 28.6122 14.4292 28.2048C14.2004 27.7975 14.0627 27.3454 14.0254 26.8796C13.8477 25.0695 14.6019 23.1839 16.2881 21.2229C17.2264 20.0523 18.4672 19.1608 19.8761 18.6451Z" fill="#F48E9F"/>
<path d="M39.4403 23.9948C39.7877 23.8636 40.1526 23.7847 40.5231 23.7605C41.4988 23.6913 42.4664 23.9785 43.2464 24.5686C44.1255 25.1975 44.7955 26.0758 45.1697 27.0898C45.4362 27.8146 45.5967 28.5739 45.6465 29.3444V29.7485C45.7469 30.6294 45.6474 31.5215 45.3556 32.3587C44.797 33.7078 43.877 34.8766 42.6969 35.7365C41.3991 36.6917 39.9062 37.3485 38.3251 37.6598L37.315 37.8537L37.7029 41.6599L38.0504 45.4256L37.4766 46.0155C37.2452 46.3211 36.9179 46.5402 36.5473 46.6378C36.3513 46.6278 36.1593 46.5783 35.9829 46.4922C35.8065 46.4061 35.6494 46.2852 35.521 46.1367C35.1917 45.8945 34.9665 45.5364 34.8907 45.1347L34.8099 44.1892C34.5998 41.7488 34.2765 38.309 33.8402 33.8698C33.4038 29.4306 33.1506 27.0979 33.0805 26.8717C33.0418 26.7427 33.0175 26.6099 33.0078 26.4757C33.0507 26.1322 33.2173 25.8162 33.4765 25.5868C33.8806 25.1666 34.1796 24.9403 34.3735 24.9241C34.7558 24.943 35.1179 25.1011 35.3917 25.3686C35.7055 25.5704 35.9286 25.8862 36.0139 26.2494C36.0139 26.5403 36.1109 26.6777 36.2321 26.6696C36.3533 26.6616 36.5069 26.4919 36.7008 26.1605C37.0127 25.7069 37.3977 25.3082 37.8402 24.9807C38.3221 24.575 38.8613 24.2428 39.4403 23.9948ZM41.5575 27.0737C41.4728 26.9719 41.3681 26.8886 41.25 26.8289C41.1319 26.7691 41.0028 26.7342 40.8706 26.7262C40.6472 26.7715 40.4319 26.8505 40.2322 26.9606C39.3621 27.5283 38.7231 28.388 38.4302 29.3848C38.1042 30.2245 37.858 31.093 37.6948 31.9788C37.5072 32.7459 37.4123 33.5327 37.412 34.3223C37.412 34.5163 37.4766 34.6213 37.5493 34.6537C37.7563 34.6756 37.9656 34.6535 38.1635 34.589C39.4502 34.2952 40.6271 33.6423 41.5575 32.7061C41.9531 32.3408 42.2659 31.8951 42.475 31.3989C42.6841 30.9027 42.7845 30.3675 42.7697 29.8293C42.7175 29.3019 42.5811 28.7862 42.3656 28.302C42.1888 27.8387 41.913 27.4195 41.5575 27.0737Z" fill="#F48E9F"/>
<path d="M52.9923 22.5563C53.2586 22.4975 53.5285 22.457 53.8004 22.435C54.7434 22.3826 55.6876 22.5144 56.5802 22.8229C57.4478 23.0626 58.2457 23.5059 58.9075 24.1159C59.524 24.6844 59.9974 25.3904 60.2894 26.1765C60.613 27.341 60.7948 28.5403 60.8308 29.7483C60.9035 31.0736 60.9197 31.9464 60.9035 32.3504C60.8559 32.8738 60.7447 33.3894 60.5722 33.8858C60.3511 34.6012 60.0811 35.3005 59.7641 35.9788C59.5957 36.2391 59.4906 36.5352 59.4571 36.8434C59.4571 36.9889 59.1823 37.3202 58.6005 37.8293C58.1272 38.2644 57.6099 38.6489 57.057 38.9768C56.4243 39.3391 55.7161 39.5494 54.9883 39.591C54.0244 39.6626 53.0601 39.458 52.2084 39.0011C51.3275 38.542 50.5958 37.8412 50.0993 36.9808C49.3005 35.5943 48.8435 34.0375 48.7659 32.4393C48.7187 31.6319 48.7187 30.8224 48.7659 30.015C48.8686 28.5621 49.2042 27.1351 49.7599 25.7887C50.0431 24.966 50.4913 24.2098 51.0771 23.5664C51.6218 23.0761 52.28 22.729 52.9923 22.5563ZM55.7964 25.7159C55.3114 25.4845 54.7821 25.3604 54.2448 25.3523C53.9557 25.3698 53.6766 25.4647 53.4367 25.627C53.1492 25.8211 52.9067 26.0746 52.7256 26.3705C52.5406 26.5828 52.42 26.8435 52.3781 27.122C52.3086 27.5874 52.2032 28.0467 52.0629 28.4958C51.8486 29.5104 51.7483 30.5458 51.7639 31.5827C51.7507 31.8519 51.7507 32.1216 51.7639 32.3908C51.7551 33.734 52.2612 35.0296 53.1781 36.0111C53.3896 36.1843 53.6339 36.3129 53.8964 36.3893C54.1588 36.4657 54.434 36.4882 54.7054 36.4556C55.0309 36.4663 55.3552 36.4113 55.659 36.2939C55.961 36.0594 56.2325 35.7879 56.4671 35.4858C56.6864 35.2338 56.8838 34.9634 57.057 34.6777C57.1656 34.4991 57.255 34.3095 57.3237 34.1121C57.3614 33.972 57.4179 33.7377 57.4934 33.409C57.5661 33.0777 57.6469 32.7706 57.7196 32.504C57.8861 31.8691 57.9408 31.2101 57.8813 30.5564C57.8813 30.4595 57.8813 30.3059 57.8247 30.0877C57.7681 29.8696 57.7843 29.6918 57.7762 29.5463C57.7259 28.6171 57.5324 27.7012 57.2025 26.8311C56.8861 26.2927 56.3872 25.8856 55.7964 25.6836V25.7159Z" fill="#F48E9F"/>
<path d="M68.0546 17.3926C68.0914 17.2444 68.1586 17.1054 68.2517 16.9844C68.3449 16.8634 68.4621 16.763 68.596 16.6895C68.8882 16.5071 69.2218 16.4015 69.5657 16.3824C69.8514 16.362 70.1373 16.4178 70.3943 16.5441C70.6513 16.6705 70.8701 16.8629 71.0284 17.1016C71.1643 17.2623 71.2513 17.4587 71.2789 17.6673C71.2785 17.8667 71.2513 18.0651 71.1981 18.2572C71.0863 18.8485 71.0348 19.4495 71.0445 20.0512V21.1421L72.095 20.9724C72.298 20.9354 72.5032 20.9111 72.7092 20.8997C73.056 20.8943 73.3945 21.0053 73.6708 21.2149C73.8472 21.3371 73.9915 21.5001 74.0913 21.69C74.1912 21.88 74.2438 22.0912 74.2446 22.3058C74.2519 22.529 74.2274 22.7521 74.1719 22.9684C74.0022 23.4371 73.2991 23.7765 72.0466 24.0028L71.0041 24.2048L70.9556 25.2958C70.782 28.4153 70.782 31.5421 70.9556 34.6616C71.0239 35.4678 71.0455 36.2773 71.0203 37.0859C70.9922 37.3851 70.8706 37.6678 70.6728 37.894C70.5658 38.0425 70.4282 38.1662 70.2693 38.2568C70.1103 38.3474 69.9338 38.4029 69.7516 38.4193C69.3832 38.415 69.0282 38.2805 68.7495 38.0395C68.5228 37.8763 68.3554 37.6437 68.2727 37.3768C68.1484 36.7061 68.0621 36.029 68.0141 35.3485L67.9657 34.5889C67.8902 33.2798 67.8471 31.5558 67.8364 29.4171C67.8364 27.2837 67.8364 25.9099 67.9172 25.3038L67.9899 24.6412L66.9798 24.8432C66.1717 24.9806 65.606 25.1018 65.1777 25.1988C65.0484 25.2341 64.9156 25.2558 64.7817 25.2634C64.4535 25.2469 64.1441 25.1052 63.9171 24.8675C63.7488 24.7046 63.6143 24.5102 63.5214 24.2952C63.4285 24.0803 63.379 23.8491 63.3757 23.6149C63.3323 23.4006 63.3477 23.1785 63.4202 22.9722C63.4928 22.766 63.6198 22.5831 63.7878 22.4432C64.4956 22.145 65.2508 21.9753 66.0181 21.9421C66.675 21.8833 67.3263 21.7725 67.9657 21.6108C68.0689 20.9697 68.0933 20.3184 68.0384 19.6714C67.9878 18.9124 67.9932 18.1507 68.0546 17.3926Z" fill="#F48E9F"/>
<path d="M91.4009 16.3016C91.4378 16.1522 91.5068 16.0126 91.6031 15.8926C91.6994 15.7726 91.8207 15.675 91.9585 15.6066C92.2503 15.4255 92.585 15.3251 92.9283 15.3157C93.2136 15.3007 93.4977 15.3616 93.7518 15.4922C94.0059 15.6228 94.2209 15.8184 94.3747 16.0592C94.5077 16.224 94.5916 16.4227 94.6172 16.6329C94.6088 16.8322 94.579 17.0299 94.5283 17.2228C94.4031 17.81 94.3381 18.4084 94.3343 19.0087V20.1077L95.3849 19.9542C95.5884 19.9243 95.7934 19.9054 95.999 19.8976C96.3482 19.8936 96.688 20.0107 96.9607 20.2289C97.1343 20.3559 97.2749 20.5228 97.3705 20.7154C97.4662 20.9081 97.5141 21.121 97.5102 21.336C97.5193 21.5572 97.492 21.7783 97.4294 21.9906C97.2516 22.4593 96.5324 22.7987 95.2798 22.9765L94.2293 23.1623L94.1646 24.2614C93.9334 27.375 93.8767 30.4992 93.9949 33.6191C94.0393 34.4266 94.0393 35.236 93.9949 36.0434C93.9612 36.3458 93.8308 36.6292 93.6232 36.8515C93.5127 36.9968 93.3728 37.1173 93.2127 37.205C93.0526 37.2927 92.8759 37.3457 92.6939 37.3606C92.3246 37.3506 91.9715 37.2071 91.6999 36.9566C91.4769 36.7897 91.3151 36.554 91.2393 36.2859C91.1828 36.0434 91.11 35.3646 91.0211 34.2575V33.4494C90.9727 32.1403 90.9727 30.4191 91.0211 28.2857C91.0211 26.1523 91.102 24.7785 91.1828 24.1644L91.2636 23.5098L90.2534 23.6957C89.4453 23.8169 88.8797 23.922 88.4433 24.0108C88.3143 24.0469 88.1812 24.0659 88.0473 24.0674C87.7352 24.0382 87.4461 23.8907 87.2392 23.6553C87.0618 23.4918 86.9206 23.2931 86.8245 23.0718C86.7285 22.8505 86.6798 22.6116 86.6816 22.3704C86.6417 22.1559 86.6604 21.9345 86.7357 21.7297C86.8111 21.5248 86.9404 21.3442 87.1099 21.2067C87.8218 20.9183 88.5804 20.7622 89.3484 20.7461C90.0068 20.7001 90.6606 20.6028 91.304 20.4552C91.4256 19.8191 91.4636 19.1698 91.4171 18.5239C91.3559 17.7846 91.3505 17.0417 91.4009 16.3016Z" fill="#F48E9F"/>
<path d="M100.864 13.8046C100.962 13.6876 101.087 13.5952 101.227 13.5349C101.367 13.4745 101.52 13.4479 101.672 13.4571C101.878 13.4449 102.083 13.4792 102.274 13.5576C102.464 13.6359 102.634 13.7563 102.771 13.9097C103.065 14.402 103.241 14.9548 103.289 15.5259C103.423 16.3501 103.746 18.8175 104.258 22.9281C104.705 26.1605 104.94 27.7767 104.961 27.7767L105.309 26.9686C105.636 25.8387 106.144 24.769 106.812 23.8008C107.013 23.511 107.277 23.2713 107.586 23.1003C107.894 22.9293 108.238 22.8317 108.59 22.8149C109.005 22.8035 109.415 22.9088 109.774 23.1188C110.132 23.3287 110.425 23.635 110.618 24.0028C111.227 24.9968 111.654 26.0914 111.879 27.2352C112.186 28.609 112.522 30.8313 112.889 33.902L113.301 37.385L112.808 37.8375C112.583 38.0815 112.274 38.2316 111.943 38.2577C111.678 38.2595 111.42 38.1743 111.208 38.0153C110.875 37.7885 110.639 37.4456 110.545 37.0536C110.432 36.6173 110.262 35.5344 110.052 33.8212C109.449 28.9134 108.978 26.4648 108.638 26.4756C108.299 26.4864 107.86 27.8332 107.321 30.5161C106.861 32.3753 106.54 34.2661 106.359 36.1728C106.354 36.5942 106.231 37.0056 106.004 37.3607C105.838 37.7166 105.552 38.0027 105.196 38.1688C105.045 38.2333 104.882 38.2637 104.719 38.2577C104.501 38.272 104.283 38.2323 104.084 38.1421C103.886 38.0518 103.712 37.9139 103.579 37.7405C103.341 37.3192 103.2 36.8498 103.167 36.3668C103.038 35.5587 102.755 33.498 102.303 30.0959C102.303 29.9989 102.133 28.6332 101.794 25.9988C101.446 23.3564 101.204 21.4654 101.05 20.3421C100.673 17.5892 100.474 15.7629 100.452 14.8632V14.6854C100.539 14.3707 100.678 14.0729 100.864 13.8046Z" fill="#F48E9F"/>
<path d="M118.732 20.3098C119.161 19.813 119.687 19.4085 120.277 19.1209C120.867 18.8334 121.51 18.6688 122.166 18.637C122.745 18.6312 123.318 18.7497 123.847 18.9845C124.537 19.2425 125.149 19.6738 125.625 20.2371C126.12 20.8977 126.492 21.6423 126.724 22.4351C126.825 22.765 126.877 23.1082 126.877 23.4533C126.865 24.0819 126.72 24.7009 126.451 25.2692C126.182 25.8375 125.796 26.3424 125.318 26.7504C124.225 27.7668 122.85 28.4289 121.374 28.6494C120.917 28.7336 120.456 28.7876 119.992 28.811C119.847 28.8295 119.701 28.8295 119.556 28.811L118.861 28.6736V30.2898C118.824 31.1236 118.984 31.9543 119.33 32.7141C119.424 32.9782 119.576 33.2182 119.774 33.4172C120.015 33.5309 120.276 33.5942 120.542 33.603H120.833C121.672 33.4641 122.472 33.1442 123.176 32.6657C123.897 32.1997 124.697 31.8684 125.536 31.6879C125.681 31.6902 125.825 31.723 125.957 31.7843C126.09 31.8455 126.207 31.9338 126.303 32.0434C126.429 32.1589 126.529 32.2987 126.599 32.4543C126.668 32.6099 126.705 32.7781 126.708 32.9485C126.708 33.7566 125.786 34.5647 123.903 35.5263C123.382 35.7957 122.842 36.0279 122.287 36.2213C121.775 36.3315 121.251 36.3803 120.728 36.3667C120.247 36.3913 119.764 36.3642 119.289 36.2859C118.94 36.194 118.612 36.0318 118.328 35.8092C117.7 35.3491 117.193 34.7448 116.849 34.0475C116.573 33.6084 116.36 33.1322 116.218 32.6333C116.102 31.8766 116.045 31.112 116.049 30.3464V29.4737C115.989 25.2554 116.884 22.2008 118.732 20.3098ZM123.111 21.7482C122.861 21.5579 122.553 21.4582 122.239 21.4654C121.798 21.4937 121.379 21.6638 121.043 21.9503C120.594 22.4264 120.226 22.9722 119.952 23.5665C119.624 24.1062 119.415 24.7095 119.338 25.3362V25.9584L120.501 25.9099C121.164 25.8687 121.815 25.7129 122.425 25.4493C122.871 25.1896 123.272 24.8594 123.612 24.4715C123.893 24.2162 124.08 23.8752 124.146 23.5018C124.121 23.1666 124.01 22.8436 123.823 22.5644C123.653 22.2404 123.409 21.9608 123.111 21.7482Z" fill="#F48E9F"/>
<path d="M139.564 13.3278C139.663 13.2131 139.788 13.1239 139.929 13.0676C140.069 13.0114 140.221 12.9897 140.372 13.0045C140.579 12.9992 140.784 13.04 140.972 13.1239C141.161 13.2077 141.329 13.3326 141.463 13.4894C141.73 13.9888 141.884 14.5404 141.916 15.1056C142.029 15.9137 142.279 18.4026 142.651 22.532C142.98 25.7644 143.157 27.4022 143.184 27.4452L143.556 26.6372C143.925 25.5179 144.471 24.4649 145.172 23.5179C145.378 23.2313 145.647 22.9956 145.958 22.8289C146.269 22.6623 146.614 22.569 146.966 22.5562C147.383 22.5605 147.791 22.6806 148.143 22.9032C148.496 23.1259 148.779 23.4422 148.962 23.8169C149.539 24.8325 149.928 25.944 150.11 27.0978C150.376 28.4796 150.643 30.7181 150.918 33.7969L151.217 37.2879L150.7 37.7243C150.469 37.9609 150.157 38.0998 149.827 38.1122C149.564 38.1036 149.309 38.0132 149.1 37.8536C148.777 37.6138 148.555 37.2623 148.477 36.8677C148.291 35.7816 148.161 34.6865 148.09 33.5868C147.642 28.6682 147.252 26.2035 146.918 26.1927C146.603 26.1927 146.11 27.518 145.463 30.1847C144.941 32.0141 144.56 33.8809 144.324 35.7687C144.3 36.1904 144.163 36.5979 143.928 36.9485C143.766 37.3073 143.478 37.5946 143.12 37.7566C142.968 37.8143 142.805 37.8391 142.643 37.8293C142.424 37.8349 142.208 37.787 142.012 37.6899C141.816 37.5927 141.647 37.4492 141.52 37.2717C141.292 36.8429 141.168 36.3671 141.156 35.8818C141.051 35.0737 140.833 33.0131 140.501 29.5867C140.501 29.4897 140.372 28.1241 140.122 25.4735C139.871 22.8229 139.685 20.9239 139.572 19.7602C139.281 16.9965 139.141 15.1648 139.152 14.2652V14.055C139.251 13.7928 139.39 13.5475 139.564 13.3278Z" fill="#F48E9F"/>
<path d="M155.184 16.1318C155.453 15.8741 155.807 15.7245 156.178 15.7115C156.575 15.7411 156.946 15.9156 157.222 16.2019C157.498 16.4881 157.658 16.8659 157.673 17.2631C157.653 17.6736 157.476 18.0608 157.18 18.346C157.037 18.5287 156.854 18.6771 156.646 18.7806C156.437 18.884 156.209 18.9398 155.976 18.9439C155.701 18.9464 155.431 18.866 155.202 18.7133C154.973 18.5605 154.795 18.3425 154.691 18.0874C154.57 17.8618 154.511 17.6079 154.522 17.352C154.54 17.1135 154.609 16.8816 154.723 16.6714C154.837 16.4611 154.994 16.2773 155.184 16.1318ZM155.685 20.5763C155.801 20.464 155.94 20.3778 156.092 20.3234C156.244 20.2691 156.405 20.2478 156.566 20.2611C156.815 20.2551 157.062 20.3067 157.288 20.4118C157.513 20.517 157.712 20.6728 157.867 20.8672C158.083 21.3443 158.19 21.863 158.182 22.3864C158.231 23.1514 158.263 25.0128 158.279 27.9704L158.336 34.6292L157.851 35.017C157.725 35.1402 157.576 35.2372 157.412 35.3024C157.249 35.3676 157.074 35.3997 156.897 35.3968C156.638 35.3861 156.388 35.2991 156.178 35.1467C155.968 34.9943 155.808 34.7833 155.718 34.5403C155.578 34.2978 155.475 31.957 155.411 27.5179C155.411 25.0666 155.411 23.4047 155.411 22.5319C155.339 21.8673 155.433 21.1954 155.685 20.5763Z" fill="#F48E9F"/>
<path d="M171.806 13.8773C171.937 13.7335 172.097 13.6194 172.275 13.5428C172.454 13.4661 172.646 13.4286 172.841 13.4328C173.044 13.4336 173.244 13.4833 173.424 13.5775C173.604 13.6717 173.758 13.8078 173.875 13.9742C174.056 14.2862 174.154 14.6398 174.158 15.0005C174.158 15.4369 174.158 16.6975 174.101 18.7824C173.859 23.9485 174.146 29.1257 174.958 34.2333C175.103 35.1868 175.176 35.6879 175.176 35.7364C175.129 35.9895 175.033 36.231 174.893 36.4475C174.738 36.7463 174.488 36.9851 174.182 37.1263C174.11 37.1411 174.036 37.1411 173.964 37.1263C173.641 37.1067 173.332 36.985 173.083 36.7788C172.812 36.5762 172.611 36.2935 172.509 35.9707C172.38 35.5101 172.202 34.6373 171.984 33.3605C171.828 32.5817 171.723 31.7934 171.669 31.0009C171.669 30.6857 171.669 30.5322 171.54 30.5241C171.41 30.516 171.079 30.9605 170.594 31.8413C168.929 34.9067 167.152 36.4071 165.261 36.3424C164.759 36.3204 164.267 36.1967 163.814 35.9788C162.879 35.4149 162.186 34.5257 161.867 33.4818C161.367 32.1396 161.144 30.7102 161.212 29.2796C161.222 28.7378 161.274 28.1975 161.366 27.6634C161.544 26.0541 162.238 24.5458 163.345 23.3644C163.803 22.8665 164.363 22.4726 164.986 22.2092C165.609 21.9457 166.281 21.8188 166.958 21.837C167.796 21.8568 168.614 22.0935 169.333 22.5239C169.647 22.7067 169.988 22.8376 170.344 22.9118H170.416C170.652 22.1236 170.791 21.3094 170.828 20.4875C171.006 18.9925 171.144 17.538 171.232 16.1319C171.205 15.341 171.404 14.5586 171.806 13.8773ZM168.057 25.1179C167.707 24.845 167.279 24.692 166.836 24.6816C166.524 24.687 166.216 24.7624 165.937 24.9022C165.657 25.042 165.412 25.2428 165.22 25.4897C164.676 26.1482 164.319 26.9408 164.186 27.7847C164.1 28.2161 164.051 28.6541 164.04 29.0938C164.002 30.1157 164.119 31.1376 164.388 32.1241C164.655 33.0777 164.962 33.5626 165.325 33.5706C166.053 33.5706 166.941 32.7625 167.871 31.1463C168.631 30.0232 169.134 28.7454 169.342 27.4048C169.337 26.9717 169.218 26.5476 168.994 26.1765C168.759 25.7621 168.44 25.4014 168.057 25.1179Z" fill="#F48E9F"/>
<path d="M189.125 14.5561C189.259 14.4151 189.421 14.304 189.6 14.2301C189.78 14.1563 189.973 14.1214 190.168 14.1278C190.371 14.1297 190.571 14.1815 190.75 14.2787C190.929 14.3759 191.082 14.5156 191.194 14.6854C191.373 14.9975 191.465 15.3519 191.461 15.7117C191.461 16.1481 191.461 17.4087 191.347 19.4936C191.033 24.6546 191.244 29.8342 191.978 34.9525C192.107 35.9061 192.172 36.4071 192.172 36.4556C192.122 36.7119 192.023 36.9561 191.881 37.1748C191.719 37.4655 191.466 37.6954 191.162 37.8294C191.09 37.8449 191.015 37.8449 190.943 37.8294C190.62 37.8012 190.315 37.671 190.071 37.4576C189.794 37.2619 189.594 36.9763 189.505 36.6495C189.3 35.7827 189.138 34.9062 189.02 34.0232C188.876 33.2435 188.781 32.4553 188.737 31.6636C188.737 31.3484 188.737 31.1949 188.616 31.1868C188.495 31.1787 188.147 31.6151 187.646 32.4959C185.933 35.529 184.134 37.0024 182.248 36.9162C181.747 36.8821 181.258 36.7475 180.81 36.5202C179.896 35.9468 179.227 35.0539 178.935 34.0151C178.451 32.6672 178.247 31.2344 178.337 29.8049C178.359 29.2627 178.418 28.7227 178.515 28.1887C178.72 26.5876 179.434 25.0947 180.551 23.9301C181.016 23.4394 181.58 23.0536 182.206 22.7985C182.831 22.5435 183.504 22.4251 184.18 22.4512C185.02 22.4893 185.838 22.7395 186.555 23.1785C186.865 23.3678 187.203 23.5043 187.557 23.5826H187.63C187.878 22.796 188.027 21.9817 188.075 21.1583C188.277 19.6633 188.43 18.2087 188.543 16.8107C188.517 16.019 188.719 15.2364 189.125 14.5561ZM185.214 25.7402C184.869 25.4578 184.44 25.2986 183.994 25.2877C183.685 25.2867 183.38 25.3543 183.1 25.4857C182.821 25.617 182.574 25.8089 182.378 26.0473C181.822 26.6995 181.454 27.4897 181.311 28.3342C181.216 28.7621 181.16 29.1974 181.141 29.6352C181.094 30.6576 181.197 31.6815 181.448 32.6737C181.701 33.6272 182.009 34.1121 182.369 34.1283C183.097 34.1283 183.986 33.3202 184.947 31.704C185.726 30.6127 186.253 29.3625 186.491 28.0433C186.496 27.6097 186.384 27.1827 186.168 26.8069C185.927 26.3894 185.602 26.0263 185.214 25.7402Z" fill="#F48E9F"/>
<path d="M198.659 21.9582C199.124 21.4929 199.678 21.1257 200.287 20.8786C200.896 20.6315 201.549 20.5095 202.207 20.5198C202.771 20.5636 203.321 20.7202 203.823 20.9804C204.493 21.2889 205.074 21.7614 205.512 22.3542C205.959 23.0485 206.276 23.8178 206.449 24.6249C206.535 24.9598 206.565 25.3065 206.538 25.6512C206.49 26.2742 206.309 26.8797 206.008 27.4273C205.707 27.975 205.293 28.4521 204.793 28.827C203.645 29.7701 202.234 30.3347 200.752 30.4432C200.292 30.504 199.827 30.5257 199.362 30.5079C199.215 30.5074 199.069 30.4884 198.926 30.4513L198.247 30.2654L198.15 31.8816C198.062 32.702 198.164 33.5317 198.449 34.3059C198.527 34.5768 198.662 34.8277 198.845 35.0413C199.077 35.1718 199.333 35.2542 199.597 35.2837H199.888C200.724 35.2102 201.534 34.9566 202.264 34.5403C203.016 34.1272 203.838 33.8535 204.688 33.7322C204.834 33.7416 204.977 33.7835 205.106 33.8548C205.234 33.926 205.346 34.0249 205.431 34.1443C205.549 34.2674 205.641 34.4133 205.701 34.5731C205.761 34.7329 205.787 34.9032 205.779 35.0736C205.741 35.8494 204.75 36.6413 202.805 37.4494C202.261 37.6817 201.702 37.8761 201.132 38.0313C200.611 38.0941 200.085 38.0941 199.564 38.0313C199.083 38.0197 198.605 37.9628 198.134 37.8616C197.804 37.7392 197.499 37.5555 197.237 37.3201C196.644 36.8153 196.181 36.175 195.888 35.4534C195.643 34.998 195.46 34.5114 195.346 34.0069C195.292 33.2429 195.292 32.476 195.346 31.7119L195.395 30.8392C195.605 26.6802 196.693 23.7198 198.659 21.9582ZM202.934 23.6956C202.693 23.4921 202.393 23.3729 202.078 23.3562C201.636 23.3584 201.206 23.4998 200.849 23.7602C200.376 24.2004 199.973 24.7099 199.653 25.2714C199.294 25.7925 199.044 26.3807 198.918 27.0007L198.845 27.6149H200.009C200.672 27.6171 201.331 27.505 201.956 27.2836C202.423 27.0632 202.847 26.7623 203.209 26.3946C203.509 26.1611 203.722 25.834 203.815 25.4653C203.813 25.1279 203.724 24.7968 203.556 24.5037C203.407 24.194 203.196 23.9188 202.934 23.6956Z" fill="#F48E9F"/>
<path d="M218.395 22.8067C218.888 22.4295 219.495 22.2302 220.116 22.241C220.578 22.2457 221.028 22.3957 221.401 22.6698C221.773 22.9439 222.05 23.3282 222.193 23.7684C222.59 25.3966 222.683 27.0842 222.467 28.7462C222.317 30.8688 221.845 34.1282 221.053 38.5242C220.811 39.8495 220.245 40.4798 219.437 40.4152C219.229 40.4244 219.022 40.3846 218.833 40.2989C218.643 40.2133 218.477 40.0843 218.346 39.9223C218.111 39.4355 218.034 38.8871 218.128 38.3545C218.184 37.6032 218.284 36.8558 218.427 36.1161C218.925 33.4427 219.287 30.7455 219.51 28.0351C219.599 26.7018 219.574 26.031 219.429 26.0229C219.283 26.0149 218.314 27.1543 216.803 29.4816C215.291 31.8089 213.958 34.0474 212.811 36.1969C212.44 36.9534 211.999 37.6732 211.493 38.3465C211.385 38.5091 211.239 38.6428 211.067 38.7358C210.895 38.8288 210.703 38.8782 210.508 38.8798C210.333 38.8693 210.162 38.8225 210.007 38.7424C209.703 38.5878 209.444 38.3581 209.255 38.0752C209.065 37.7923 208.951 37.4656 208.924 37.1262C208.753 35.5523 208.753 33.9647 208.924 32.3908C209.031 30.9146 209.128 29.7187 209.215 28.8028C209.473 26.0957 209.683 24.3906 209.829 23.6875C209.901 23.1145 210.19 22.5909 210.637 22.2249C210.872 22.0593 211.161 21.9899 211.445 22.0309C211.805 22.0561 212.147 22.2012 212.415 22.4431C212.548 22.5501 212.655 22.6854 212.729 22.8391C212.803 22.9929 212.842 23.1613 212.843 23.332C212.794 24.0997 212.657 25.5138 212.439 27.5664C212.293 28.9617 212.213 29.7698 212.196 29.9907C212.148 30.6695 212.196 31.0089 212.302 31.017C212.407 31.0251 212.956 30.2089 213.918 28.5927C215.609 25.5704 217.102 23.6417 218.395 22.8067Z" fill="#F48E9F"/>
<path d="M237.642 24.7544C238.121 24.3051 238.685 23.957 239.302 23.7307C239.918 23.5043 240.574 23.4045 241.23 23.4372C241.88 23.52 242.506 23.7356 243.069 24.0706C243.632 24.4057 244.12 24.853 244.503 25.3847C244.931 26.0925 245.224 26.8733 245.367 27.6878C245.441 28.0247 245.46 28.3712 245.424 28.7141C245.349 29.3388 245.142 29.9403 244.816 30.4783C244.49 31.0163 244.052 31.4783 243.533 31.8334C242.344 32.7342 240.91 33.2528 239.42 33.3203C238.957 33.3558 238.492 33.3558 238.03 33.3203C237.882 33.3128 237.736 33.2884 237.593 33.2475L236.923 33.0374L236.777 34.6536C236.661 35.4672 236.733 36.2965 236.987 37.0779C237.055 37.3525 237.182 37.609 237.359 37.8294C237.589 37.9625 237.841 38.0528 238.102 38.0961H238.393C239.239 38.052 240.065 37.8289 240.818 37.4416C241.572 37.0473 242.395 36.8005 243.242 36.7143C243.387 36.7279 243.528 36.7734 243.653 36.8474C243.779 36.9214 243.887 37.0222 243.969 37.1426C244.083 37.2708 244.17 37.4205 244.226 37.5828C244.281 37.7451 244.304 37.9169 244.293 38.088C244.217 38.8584 243.199 39.6153 241.238 40.3588C240.687 40.5781 240.119 40.7537 239.541 40.8841C239.02 40.9448 238.494 40.9448 237.973 40.8841C237.493 40.8557 237.017 40.7826 236.551 40.6659C236.224 40.5307 235.926 40.3361 235.67 40.0921C235.096 39.5676 234.656 38.9138 234.385 38.185C234.156 37.7195 233.993 37.2246 233.9 36.7143C233.865 35.9487 233.886 35.1816 233.965 34.4193L234.038 33.5546C234.415 29.3794 235.616 26.446 237.642 24.7544ZM241.852 26.6373C241.627 26.4342 241.345 26.3046 241.044 26.2655C240.602 26.2553 240.167 26.3823 239.8 26.6292C239.313 27.057 238.893 27.5555 238.555 28.108C238.169 28.6103 237.893 29.1886 237.747 29.805L237.65 30.4192L238.814 30.4838C239.478 30.5111 240.142 30.4237 240.777 30.2252C241.243 30.0257 241.674 29.7529 242.054 29.4171C242.365 29.1967 242.589 28.8732 242.684 28.504C242.694 28.1676 242.619 27.8342 242.466 27.5343C242.33 27.1938 242.12 26.8875 241.852 26.6373Z" fill="#F48E9F"/>
<path d="M250.725 20.3259C251.039 20.1954 251.388 20.1788 251.713 20.2792C252.038 20.3796 252.317 20.5906 252.503 20.8755C252.768 21.1508 252.913 21.5197 252.907 21.9017C252.786 22.5557 252.613 23.1989 252.389 23.825C251.574 27.1556 251.033 30.5475 250.773 33.9667C250.773 34.1606 250.733 34.4192 250.717 34.7748C250.701 35.1303 250.717 35.3323 250.668 35.4778C250.442 38.6213 250.604 40.5446 251.145 41.2315C251.295 41.3935 251.411 41.5846 251.485 41.7931C251.559 42.0016 251.589 42.223 251.573 42.4436C251.519 42.782 251.344 43.0893 251.08 43.3083C250.942 43.4506 250.776 43.5629 250.593 43.638C250.409 43.7131 250.212 43.7494 250.014 43.7447C249.454 43.6003 248.972 43.2476 248.664 42.7588C248.01 41.878 247.631 40.8238 247.573 39.7284C247.453 37.8199 247.512 35.9044 247.751 34.0071C247.864 32.8515 247.969 31.9464 248.058 31.2999C248.352 28.5146 248.794 25.7469 249.383 23.0088C249.763 21.4573 250.216 20.5684 250.725 20.3259Z" fill="#F48E9F"/>
<path d="M259.001 26.8473C259.487 26.406 260.058 26.0682 260.679 25.8543C261.3 25.6403 261.958 25.5548 262.613 25.6028C263.184 25.6685 263.734 25.8529 264.229 26.1442C264.883 26.4832 265.44 26.984 265.845 27.5988C266.255 28.3187 266.529 29.1075 266.654 29.9262C266.712 30.2658 266.712 30.6128 266.654 30.9524C266.567 31.5747 266.348 32.1713 266.012 32.7023C265.676 33.2332 265.231 33.6863 264.706 34.0313C263.525 34.9195 262.102 35.4268 260.625 35.4859C260.162 35.5195 259.698 35.5195 259.235 35.4859C259.089 35.4768 258.945 35.4469 258.807 35.397L258.136 35.1788L257.958 36.795C257.815 37.6209 257.873 38.4692 258.128 39.2678C258.189 39.5418 258.31 39.7987 258.484 40.0193C258.708 40.16 258.958 40.256 259.219 40.3021H259.51C260.353 40.273 261.179 40.0636 261.934 39.688C262.694 39.3134 263.515 39.0806 264.359 39.0011C264.503 39.0188 264.643 39.0677 264.767 39.1445C264.891 39.2212 264.997 39.3239 265.078 39.4456C265.294 39.6904 265.409 40.008 265.401 40.3345C265.312 41.1426 264.278 41.8456 262.298 42.5567C261.746 42.7662 261.179 42.931 260.601 43.0497C260.078 43.0938 259.553 43.0802 259.033 43.0093C258.552 42.9709 258.076 42.8871 257.611 42.7588C257.288 42.6187 256.994 42.4185 256.746 42.1689C256.18 41.635 255.75 40.9725 255.494 40.2375C255.277 39.7664 255.122 39.2694 255.033 38.7587C255.015 37.9948 255.05 37.2307 255.138 36.4718L255.235 35.599C255.693 31.4238 256.948 28.5066 259.001 26.8473ZM263.179 28.811C262.958 28.598 262.675 28.4619 262.371 28.4231C261.93 28.4024 261.495 28.5212 261.126 28.7625C260.627 29.1775 260.196 29.6683 259.849 30.2171C259.468 30.7165 259.193 31.2885 259.041 31.8979L258.936 32.5121L260.1 32.601C260.763 32.6382 261.427 32.5617 262.064 32.3747C262.535 32.1771 262.972 31.9041 263.356 31.5666C263.665 31.3473 263.893 31.0318 264.003 30.6696C264.023 30.3316 263.953 29.9943 263.801 29.6918C263.666 29.3532 263.453 29.0514 263.179 28.811Z" fill="#F48E9F"/>
<path d="M289.102 29.498C289.26 29.4781 289.421 29.4781 289.579 29.498C290.021 29.5648 290.436 29.7504 290.781 30.0351C291.125 30.3198 291.386 30.6928 291.534 31.1142C292.084 32.3506 292.181 34.3951 291.817 37.2315C291.745 37.8376 291.534 39.0901 291.195 41.0053C290.699 43.532 290.32 44.9731 290.056 45.3286C289.919 45.515 289.736 45.6629 289.525 45.7577C289.314 45.8526 289.082 45.8913 288.851 45.8701C288.607 45.8421 288.378 45.7374 288.197 45.5711C287.94 45.357 287.744 45.078 287.631 44.763C287.544 44.35 287.544 43.9234 287.631 43.5104C287.631 43.3246 287.801 42.5326 288.076 41.1508C288.472 39.2194 288.746 37.579 288.924 36.2375C289.167 34.29 289.142 33.2476 288.843 33.1102H288.803C288.561 33.1102 288.076 33.6031 287.34 34.7264C286.605 35.8496 285.352 37.8214 283.583 40.779C283.137 41.6229 282.595 42.4121 281.967 43.1306C281.614 43.5228 281.132 43.7752 280.609 43.8417H280.318C279.993 43.7874 279.703 43.6074 279.51 43.3407C279.091 42.8438 278.852 42.2204 278.831 41.571C278.766 40.8033 278.831 38.9527 278.936 36.0113C279.061 34.8158 279.061 33.6107 278.936 32.4152C278.918 32.393 278.892 32.3786 278.863 32.3748C278.742 32.3748 278.411 32.6981 277.853 33.3849C276.828 34.7712 275.886 36.2176 275.033 37.7163C274.219 39.0829 273.522 40.5156 272.948 41.9993C272.826 42.6321 272.522 43.2159 272.075 43.6801C271.862 43.8367 271.617 43.9464 271.358 44.0021C271.099 44.0578 270.831 44.0583 270.572 44.0034C270.371 43.9956 270.175 43.9438 269.996 43.8516C269.817 43.7595 269.661 43.6292 269.538 43.47C269.275 42.9726 269.144 42.4162 269.158 41.8538C268.933 38.7151 269.05 35.5611 269.506 32.4475C269.588 31.663 269.712 30.8834 269.877 30.1121C269.968 29.8096 270.128 29.5327 270.346 29.304C270.495 29.1638 270.673 29.0583 270.868 28.9949C271.062 28.9315 271.268 28.9118 271.471 28.9373C271.674 28.9628 271.869 29.0328 272.042 29.1423C272.215 29.2517 272.362 29.398 272.471 29.5707C272.632 29.863 272.718 30.1906 272.722 30.5243C272.722 30.8637 272.641 31.7445 272.455 33.1667C272.205 35.1628 272.14 36.1648 272.261 36.181C272.731 35.663 273.14 35.0937 273.481 34.4839C274.508 32.6485 275.796 30.9717 277.304 29.5061C277.632 29.1855 278.024 28.9373 278.454 28.7772C278.884 28.6172 279.343 28.5489 279.801 28.5767H279.946C279.981 28.5844 280.017 28.5844 280.051 28.5767C280.501 28.7318 280.901 29.0048 281.21 29.3673C281.518 29.7298 281.724 30.1684 281.805 30.6374C282.124 32.4049 282.192 34.2086 282.007 35.9951L281.902 37.7083L282.403 36.9002C283.582 34.8988 284.903 32.9842 286.354 31.1707C287.059 30.323 288.026 29.7344 289.102 29.498Z" fill="#F48E9F"/>
<path d="M298.258 31.7363C298.761 31.3157 299.344 31.0014 299.972 30.8125C300.599 30.6237 301.259 30.564 301.91 30.6373C302.486 30.7163 303.038 30.9205 303.527 31.2353C304.167 31.5978 304.704 32.118 305.086 32.7465C305.477 33.4748 305.729 34.2694 305.83 35.0899C305.887 35.4324 305.887 35.7819 305.83 36.1243C305.722 36.7417 305.483 37.329 305.131 37.8473C304.778 38.3656 304.32 38.803 303.785 39.1304C302.551 39.9744 301.086 40.4174 299.591 40.3992C299.127 40.4203 298.663 40.4041 298.201 40.3507C298.058 40.3354 297.917 40.3029 297.781 40.2537L297.118 40.0113L296.884 41.6275C296.719 42.4472 296.749 43.2945 296.973 44.1002C297.022 44.3761 297.135 44.6364 297.304 44.8599C297.522 45.0133 297.77 45.1181 298.032 45.1669L298.314 45.2073C299.151 45.2098 299.978 45.0306 300.739 44.6821C301.518 44.3279 302.357 44.125 303.211 44.0841C303.356 44.1041 303.495 44.1567 303.617 44.2378C303.739 44.319 303.84 44.4267 303.915 44.5528C304.022 44.6848 304.102 44.8376 304.147 45.0017C304.193 45.1658 304.205 45.3376 304.181 45.5063C304.068 46.3144 303.018 46.9771 301.013 47.6236C300.454 47.8083 299.881 47.9514 299.3 48.0518C298.776 48.0824 298.249 48.0499 297.733 47.9549C297.253 47.9044 296.779 47.8069 296.318 47.664C295.999 47.511 295.712 47.3 295.47 47.0417C294.924 46.4885 294.52 45.8123 294.29 45.07C294.085 44.5957 293.946 44.0953 293.878 43.5831C293.885 42.8146 293.947 42.0476 294.064 41.2881L294.185 40.4315C294.794 36.2186 296.151 33.3202 298.258 31.7363ZM302.363 33.8374C302.147 33.6135 301.863 33.4684 301.555 33.4253C301.115 33.3889 300.674 33.4905 300.294 33.7162C299.786 34.1178 299.342 34.5947 298.977 35.1303C298.571 35.6 298.271 36.1511 298.096 36.7465L297.967 37.3526L299.123 37.49C299.784 37.5467 300.451 37.4921 301.094 37.3284C301.578 37.1351 302.026 36.8619 302.42 36.5203C302.738 36.3147 302.978 36.007 303.098 35.6475C303.124 35.3126 303.065 34.9766 302.929 34.6697C302.799 34.3661 302.606 34.0934 302.363 33.8697V33.8374Z" fill="#F48E9F"/>
<path d="M317.862 34.2818C318.385 33.9458 319.007 33.8003 319.624 33.8697C320.085 33.9141 320.521 34.1027 320.869 34.4088C321.217 34.7149 321.46 35.1228 321.563 35.5748C321.816 37.2299 321.761 38.9174 321.402 40.5526C321.068 42.6591 320.319 45.8672 319.155 50.1771C318.8 51.4701 318.21 52.0519 317.369 51.9226C317.161 51.9094 316.959 51.8495 316.777 51.7474C316.595 51.6453 316.438 51.5035 316.319 51.3327C316.128 50.8148 316.099 50.2509 316.238 49.7165C316.364 48.9758 316.529 48.2421 316.731 47.5185C317.458 44.8807 318.051 42.2079 318.509 39.5102C318.711 38.193 318.743 37.5223 318.598 37.5061C318.452 37.4899 317.393 38.5405 315.68 40.7385C313.967 42.9365 312.448 45.0457 311.131 47.0902C310.693 47.8114 310.193 48.4928 309.636 49.1266C309.512 49.2771 309.355 49.396 309.176 49.4733C308.998 49.5506 308.804 49.5841 308.609 49.571C308.437 49.5405 308.273 49.4774 308.125 49.3852C307.83 49.2021 307.588 48.9458 307.423 48.6412C307.257 48.3367 307.173 47.9944 307.179 47.6477C307.152 46.0646 307.29 44.4829 307.591 42.9285C307.817 41.4658 308.02 40.286 308.189 39.3809C308.685 36.6872 309.035 35.0064 309.24 34.3384C309.354 33.7747 309.681 33.2767 310.153 32.9484C310.396 32.8052 310.685 32.7591 310.961 32.8191C311.32 32.8735 311.65 33.0471 311.898 33.3121C312.022 33.4298 312.118 33.5735 312.18 33.7328C312.241 33.8921 312.266 34.063 312.254 34.2333C312.135 34.9983 311.866 36.3936 311.446 38.4193C311.179 39.8011 311.034 40.6011 311.001 40.8436C310.896 41.5143 310.904 41.8537 311.001 41.8779C311.098 41.9022 311.721 41.1426 312.795 39.6152C314.805 36.7761 316.494 34.9983 317.862 34.2818Z" fill="#F48E9F"/>
<path d="M330.921 32.0676C330.989 31.9298 331.085 31.808 331.204 31.7104C331.322 31.6128 331.46 31.5418 331.608 31.502C331.932 31.389 332.28 31.3585 332.618 31.4131C332.9 31.4616 333.164 31.5814 333.386 31.761C333.609 31.9407 333.781 32.1742 333.887 32.4394C333.985 32.6284 334.024 32.8421 334 33.0535C333.956 33.247 333.888 33.4342 333.798 33.6111C333.566 34.1625 333.393 34.7367 333.281 35.3243L333.022 36.3829L334.081 36.4556C334.287 36.4604 334.493 36.482 334.695 36.5203C335.036 36.59 335.343 36.7721 335.568 37.0375C335.712 37.1973 335.816 37.3892 335.871 37.5972C335.925 37.8053 335.93 38.0234 335.883 38.2334C335.842 38.4532 335.769 38.6657 335.665 38.8638C335.398 39.284 334.623 39.4618 333.362 39.3971L332.295 39.3567L332.004 40.4153C331.146 43.4185 330.456 46.467 329.936 49.5468C329.816 50.3629 329.655 51.1721 329.451 51.9711C329.352 52.2559 329.169 52.504 328.925 52.6823C328.787 52.8023 328.625 52.8917 328.449 52.9446C328.274 52.9975 328.089 53.0128 327.907 52.9893C327.552 52.8969 327.238 52.6859 327.018 52.3913C326.836 52.1807 326.726 51.9175 326.703 51.6398C326.733 50.9581 326.797 50.2784 326.897 49.6034L327.026 48.8519C327.253 47.5589 327.592 45.87 328.061 43.7851C328.529 41.7002 328.869 40.3749 329.055 39.7931L329.273 39.1628H328.247C327.439 39.1224 326.849 39.1062 326.412 39.1062C326.278 39.1199 326.143 39.1199 326.008 39.1062C325.692 39.0221 325.421 38.8157 325.257 38.5324C325.119 38.3346 325.023 38.1108 324.974 37.8746C324.925 37.6385 324.925 37.3949 324.974 37.1587C325.071 36.5849 325.289 36.2374 325.636 36.1081C326.393 35.9769 327.167 35.9769 327.923 36.1081C328.576 36.2039 329.236 36.2445 329.895 36.2294C330.141 35.6282 330.309 34.9982 330.396 34.3546C330.519 33.5812 330.694 32.8171 330.921 32.0676Z" fill="#F48E9F"/>
<path d="M1.54915 66.7006C2.17344 66.3575 2.78648 65.9976 3.4164 65.6601L5.32302 64.6871C5.96418 64.3778 6.59972 64.0572 7.24651 63.7591L9.20374 62.8986C10.5142 62.3362 11.8303 61.7738 13.1407 61.2788C13.7987 61.0089 14.4736 60.7839 15.1429 60.5477C15.8122 60.3115 16.4871 60.0753 17.162 59.8503C19.8617 58.9504 22.5782 58.0955 25.3228 57.3531C28.0674 56.6107 30.8289 55.9246 33.6129 55.3115C36.3969 54.6985 39.1978 54.1417 42.0493 53.7086L44.1696 53.3993C44.8783 53.3037 45.5926 53.2306 46.3012 53.1462L48.4215 52.9268C49.1358 52.865 49.8557 52.8256 50.57 52.7694C53.4606 52.5724 56.3605 52.5498 59.2538 52.7019C59.9893 52.7549 60.7215 52.8469 61.4473 52.9775C62.1843 53.1039 62.9131 53.2749 63.6295 53.4893C65.1292 53.9135 66.5407 54.603 67.797 55.5252L67.842 55.559C68.0011 55.7 68.117 55.8831 68.1762 56.0872C68.2355 56.2914 68.2357 56.5081 68.1769 56.7123C68.118 56.9166 68.0025 57.0999 67.8437 57.2412C67.6849 57.3825 67.4893 57.4759 67.2796 57.5106C65.8792 57.6512 64.5406 57.7356 63.1964 57.8031L62.1841 57.8649C61.8522 57.8649 61.5091 57.8649 61.1717 57.8987C60.5024 57.938 59.8275 57.9437 59.1526 57.9605H58.1346H57.1166C56.4417 57.9605 55.7556 58.0055 55.075 58.028L53.0278 58.1405L50.9806 58.2924L46.8749 58.6523L44.8164 58.8604L42.7973 59.1585C40.0527 59.496 37.3081 59.8334 34.5747 60.2833C29.1023 61.1439 23.6637 62.2631 18.2925 63.6579C12.9137 65.0101 7.6149 66.6625 2.42091 68.6072C2.17752 68.7097 1.90393 68.7142 1.65732 68.6197C1.41071 68.5252 1.21018 68.339 1.09762 68.1001C0.985065 67.8612 0.969203 67.588 1.05335 67.3377C1.1375 67.0874 1.31514 66.8793 1.54915 66.7568V66.7006Z" fill="#FFD7C5" stroke="#043866" stroke-width="1.37" stroke-miterlimit="10"/>
<path d="M74.8553 52.4093C75.441 52.078 76.0666 51.8229 76.7169 51.65C77.3544 51.4887 78.0003 51.3629 78.6516 51.2732C79.9426 51.0716 81.2485 50.9813 82.5549 51.0032C83.8407 51.0486 85.1184 51.2258 86.3681 51.5319C87.6181 51.8262 88.8152 52.3119 89.917 52.9717L89.9676 53.0054C90.2835 53.1997 90.5094 53.5113 90.5958 53.8718C90.6823 54.2324 90.6222 54.6126 90.4288 54.9289C90.3056 55.1254 90.136 55.2887 89.935 55.4044C89.734 55.5201 89.5076 55.5848 89.2758 55.5926C86.897 55.5751 84.522 55.3985 82.1668 55.0639C81.0082 54.9402 79.8552 54.7658 78.7023 54.6983C77.5341 54.6731 76.3682 54.5849 75.2096 54.434C74.989 54.3992 74.7846 54.2969 74.6245 54.1411C74.4645 53.9853 74.3567 53.7838 74.3159 53.5642C74.2752 53.3445 74.3036 53.1177 74.3972 52.9149C74.4908 52.7121 74.6449 52.5433 74.8384 52.4318L74.8553 52.4093Z" fill="white" stroke="#043866" stroke-width="1.37" stroke-miterlimit="10"/>
<path d="M327.638 21.1172C323.253 18.4993 318.697 16.1806 314 14.1769C309.303 12.1297 304.495 10.313 299.624 8.71013C294.753 7.10722 289.815 5.70679 284.787 4.61569C279.789 3.47314 274.714 2.70053 269.602 2.30412C269.442 2.30412 269.289 2.24072 269.176 2.12786C269.063 2.015 269 1.86194 269 1.70233C269 1.54273 269.063 1.38966 269.176 1.2768C269.289 1.16394 269.442 1.10054 269.602 1.10054H269.652L271.61 1.0443C272.268 1.0443 272.926 0.982428 273.578 1.00493C274.883 1.05554 276.199 1.07242 277.515 1.14553C278.831 1.21865 280.136 1.30863 281.452 1.42674C282.768 1.54485 284.062 1.69671 285.389 1.87106L289.287 2.43348C290.58 2.65283 291.863 2.91154 293.156 3.14776L297.014 3.9689C298.297 4.25011 299.568 4.58194 300.844 4.90815C303.387 5.57743 305.906 6.29171 308.437 7.0791C309.703 7.45593 310.94 7.91149 312.194 8.33893C313.448 8.76637 314.68 9.23319 315.923 9.7C317.166 10.1668 318.392 10.6674 319.624 11.1679C320.863 11.6691 322.071 12.2457 323.24 12.8946C325.649 14.1768 327.824 15.8557 329.674 17.8608L330.04 18.2713C330.343 18.6077 330.515 19.0425 330.524 19.4956C330.532 19.9487 330.376 20.3895 330.085 20.7368C329.794 21.0841 329.387 21.3144 328.939 21.3854C328.492 21.4563 328.034 21.3631 327.65 21.1228L327.638 21.1172Z" fill="#FFD7C5" stroke="#043866" stroke-width="1.06" stroke-miterlimit="10"/>
<path d="M347.256 23.4794C346.221 22.2252 345.197 20.9654 344.078 19.7899L343.246 18.9013L342.38 18.0464C341.817 17.484 341.198 16.9216 340.602 16.3591C338.17 14.1774 335.533 12.2356 332.728 10.5605C327.039 7.223 320.882 4.75837 314.461 3.24903C314.345 3.19658 314.251 3.10659 314.193 2.99369C314.135 2.8808 314.117 2.75162 314.142 2.62717C314.166 2.50271 314.233 2.39029 314.329 2.30817C314.426 2.22604 314.548 2.17904 314.675 2.1748C315.507 2.29854 316.362 2.41665 317.172 2.55725C317.982 2.69786 318.82 2.88908 319.652 3.05781L320.889 3.32215L322.121 3.64273C322.942 3.85083 323.763 4.05892 324.568 4.33451C327.839 5.32866 331.01 6.62795 334.039 8.21524L336.288 9.47506C337.014 9.93625 337.756 10.3806 338.476 10.8474C339.196 11.3142 339.905 11.8204 340.591 12.3378L341.62 13.1308C341.969 13.3895 342.306 13.6539 342.633 13.9407C343.296 14.5031 343.971 15.0656 344.595 15.628C345.256 16.2276 345.876 16.8701 346.451 17.5515C347.625 18.8488 348.563 20.341 349.224 21.9609L349.348 22.2702C349.454 22.5423 349.459 22.8432 349.364 23.1192C349.269 23.3951 349.078 23.6282 348.827 23.7769C348.576 23.9255 348.28 23.98 347.992 23.9307C347.704 23.8814 347.443 23.7314 347.256 23.5075V23.4794Z" fill="white" stroke="#043866" stroke-width="1.06" stroke-miterlimit="10"/>
</svg>
