<svg width="282" height="60" viewBox="0 0 282 60" fill="none" xmlns="http://www.w3.org/2000/svg">
<path d="M35.827 16.8168C35.9021 16.7268 35.9946 16.653 36.099 16.5998C36.2034 16.5467 36.3175 16.5152 36.4345 16.5074C36.6485 16.4888 36.8635 16.5318 37.0538 16.6315C37.2442 16.7312 37.402 16.8833 37.5087 17.0698C37.6845 17.4428 37.7894 17.8452 37.818 18.2566C37.8968 18.8584 38.0486 20.2644 38.2623 22.486L38.4254 24.1733C38.5998 25.9561 38.6785 27.1541 38.6729 27.7728C38.6555 28.458 38.5515 29.1383 38.3636 29.7975C38.205 30.4621 37.8503 31.0636 37.3456 31.5241C36.8795 31.9504 36.2871 32.2131 35.6583 32.2722C35.1232 32.3391 34.5804 32.2415 34.1022 31.9923C33.6239 31.7431 33.2329 31.3542 32.9812 30.8773C32.481 30.1903 32.1513 29.3941 32.0194 28.5545C31.991 28.4017 31.9938 28.2447 32.0276 28.0929C32.0615 27.9412 32.1256 27.7978 32.2163 27.6715C32.2901 27.5714 32.3835 27.4874 32.4908 27.4246C32.5982 27.3617 32.7171 27.3214 32.8406 27.306C32.9805 27.2954 33.1211 27.3167 33.2516 27.3684C33.3822 27.42 33.4993 27.5006 33.5942 27.604C33.8405 27.8596 33.9999 28.1863 34.0498 28.5377C34.1532 28.9172 34.3124 29.2792 34.5222 29.6119C34.6691 29.8959 34.8859 30.1378 35.1521 30.3149C35.2501 30.3546 35.3562 30.37 35.4615 30.3599C35.8102 30.3262 36.1195 30.0056 36.3838 29.4038C36.7269 28.577 36.7775 26.8729 36.5301 24.3082C36.5301 24.1395 36.4794 23.8471 36.4288 23.4365C36.3782 23.0259 36.3445 22.6941 36.322 22.4466C36.0295 19.927 35.8214 18.594 35.7089 18.4365C35.6298 18.2897 35.5783 18.1296 35.5571 17.9641C35.4951 17.5611 35.5919 17.1498 35.827 16.8168Z" fill="#F48E9F"/>
<path d="M43.3353 18.6614C43.52 18.6136 43.708 18.5798 43.8978 18.5601C44.5521 18.5196 45.2083 18.6016 45.8325 18.802C46.439 18.9629 46.9994 19.2634 47.4692 19.6794C47.9042 20.0678 48.2414 20.5534 48.4534 21.0967C48.6879 21.9043 48.8257 22.7369 48.864 23.577C48.9258 24.505 48.954 25.1067 48.9427 25.388C48.9167 25.7517 48.8449 26.1108 48.729 26.4566C48.5746 26.9597 48.3867 27.452 48.1666 27.9301C48.0443 28.1076 47.9671 28.3122 47.9416 28.5263C47.9416 28.6275 47.756 28.8637 47.3792 29.2237C47.052 29.5293 46.696 29.8024 46.3162 30.0392C45.8794 30.2982 45.3885 30.4522 44.882 30.4891C44.2126 30.5501 43.5396 30.4194 42.9416 30.1123C42.3241 29.7986 41.8076 29.3171 41.4512 28.7231C40.8815 27.7674 40.548 26.6896 40.4782 25.5792C40.4435 25.0173 40.4435 24.4538 40.4782 23.8919C40.5469 22.8953 40.7728 21.9158 41.1475 20.9898C41.3336 20.4138 41.6382 19.8831 42.0418 19.4319C42.4012 19.0702 42.8461 18.8051 43.3353 18.6614ZM45.3207 20.8267C44.9787 20.6775 44.6083 20.6046 44.2352 20.613C44.0335 20.6268 43.8392 20.6948 43.6728 20.8098C43.4735 20.9488 43.3066 21.1291 43.1835 21.3385C43.0578 21.4876 42.976 21.6687 42.9473 21.8616C42.9095 22.1946 42.8436 22.5238 42.7504 22.8458C42.6125 23.5532 42.5541 24.2739 42.5761 24.9943C42.5652 25.1816 42.5652 25.3694 42.5761 25.5567C42.5834 26.4931 42.9498 27.3909 43.5997 28.0651C43.7481 28.1825 43.9189 28.2685 44.1017 28.3178C44.2844 28.3671 44.4753 28.3787 44.6627 28.3519C44.8877 28.3517 45.1095 28.2978 45.3095 28.1945C45.5217 28.0335 45.7109 27.8443 45.8719 27.632C46.0209 27.4577 46.1528 27.2693 46.2656 27.0696C46.3411 26.9453 46.4034 26.8133 46.4512 26.6759C46.4512 26.5803 46.513 26.4172 46.558 26.181C46.603 25.9448 46.6593 25.7367 46.7099 25.5454C46.8175 25.1041 46.848 24.6474 46.7999 24.1956C46.7999 24.1281 46.7999 24.0156 46.7549 23.8694C46.7099 23.7232 46.7211 23.5938 46.7155 23.4926C46.6705 22.8463 46.5263 22.2109 46.2881 21.6085C46.0641 21.2453 45.7228 20.9695 45.3207 20.8267Z" fill="#F48E9F"/>
<path d="M50.6922 15.4724C50.8662 15.2816 51.1005 15.1565 51.3559 15.1181C51.4936 15.1109 51.6313 15.1316 51.7608 15.179C51.8903 15.2263 52.0089 15.2994 52.1095 15.3937C52.2202 15.4801 52.3114 15.5889 52.3773 15.7129C52.4432 15.837 52.4823 15.9735 52.4919 16.1136C52.5008 16.2553 52.4816 16.3973 52.4352 16.5315C52.3889 16.6657 52.3164 16.7893 52.222 16.8954C52.1341 17.0321 52.0168 17.1476 51.8787 17.2332C51.7405 17.3188 51.5849 17.3725 51.4233 17.3903C51.2354 17.406 51.0471 17.3658 50.8819 17.2747C50.7168 17.1837 50.5823 17.0458 50.4953 16.8785C50.398 16.7288 50.3418 16.5562 50.3322 16.3779C50.3247 16.2101 50.3529 16.0426 50.415 15.8865C50.477 15.7304 50.5715 15.5893 50.6922 15.4724ZM51.3165 18.5208C51.3865 18.4393 51.4726 18.3732 51.5694 18.3268C51.6662 18.2803 51.7716 18.2544 51.8789 18.2508C52.0504 18.2303 52.2244 18.2495 52.3873 18.3071C52.5501 18.3646 52.6976 18.4589 52.8182 18.5826C52.9993 18.898 53.1088 19.2494 53.1387 19.6119C53.2175 20.1405 53.3637 21.4285 53.5662 23.4757L54.0386 28.0876L53.7349 28.3913C53.57 28.577 53.341 28.6936 53.0937 28.7175C52.9139 28.7251 52.7357 28.6802 52.581 28.5883C52.4262 28.4965 52.3015 28.3616 52.222 28.2001C52.1095 28.0388 51.8864 26.4228 51.5527 23.352C51.3727 21.6647 51.2602 20.5061 51.2152 19.8987C51.1353 19.438 51.1701 18.9648 51.3165 18.5208Z" fill="#F48E9F"/>
<path d="M61.3442 17.4184C61.6464 17.1113 62.0421 16.9134 62.4691 16.856C62.7895 16.8158 63.1144 16.8772 63.3979 17.0316C63.6815 17.186 63.9094 17.4256 64.0495 17.7165C64.4744 18.8029 64.6956 19.9583 64.7019 21.1248C64.7957 22.6246 64.7769 24.9174 64.6457 28.0032C64.6007 28.9369 64.2857 29.4205 63.6952 29.4599C63.5524 29.4839 63.4061 29.4745 63.2675 29.4326C63.129 29.3906 63.002 29.3172 62.8965 29.2181C62.6904 28.9048 62.5863 28.5355 62.5985 28.1607C62.5702 27.6362 62.5702 27.1105 62.5985 26.5859C62.6958 24.6862 62.6958 22.7827 62.5985 20.8829C62.5366 19.9549 62.4578 19.4994 62.3566 19.505C62.2554 19.5106 61.693 20.3936 60.8662 22.1372C60.0394 23.8807 59.3364 25.5511 58.7458 27.1427C58.5602 27.6998 58.3229 28.2383 58.0372 28.7513C57.9771 28.8732 57.8885 28.9788 57.7788 29.0591C57.6691 29.1394 57.5417 29.192 57.4073 29.2124C57.2847 29.2181 57.1623 29.199 57.0473 29.1562C56.8205 29.0783 56.618 28.9422 56.4601 28.7616C56.3022 28.581 56.1944 28.3622 56.1474 28.127C55.8845 27.0565 55.7356 25.9611 55.7031 24.8593C55.6356 23.83 55.5907 22.9977 55.5682 22.3565C55.4932 20.4818 55.4744 19.2857 55.5119 18.7682C55.5042 18.3688 55.6513 17.9818 55.9225 17.6884C56.0632 17.5573 56.2476 17.4831 56.4399 17.4803C56.6928 17.4617 56.9444 17.5291 57.1542 17.6715C57.2541 17.7322 57.3396 17.814 57.4047 17.9111C57.4697 18.0083 57.5129 18.1184 57.531 18.2339C57.5648 18.7964 57.6041 19.7581 57.6491 21.1923C57.6772 22.1709 57.6997 22.7389 57.7054 22.8796C57.7391 23.352 57.7954 23.5826 57.8797 23.577C57.9641 23.5713 58.2565 22.9695 58.7515 21.7716C59.6664 19.5631 60.5306 18.1121 61.3442 17.4184Z" fill="#F48E9F"/>
<path d="M76.5915 17.5591C76.853 17.481 77.1231 17.4356 77.3958 17.4241C77.8186 17.4112 78.2386 17.4979 78.6218 17.6772C78.9715 17.8527 79.3556 17.9487 79.7467 17.9584C79.8887 17.9478 80.0313 17.9685 80.1644 18.019C80.2976 18.0696 80.418 18.1487 80.5172 18.2509C80.6473 18.3647 80.746 18.5099 80.804 18.6727C80.8707 18.9699 80.9047 19.2736 80.9053 19.5782C80.967 20.8793 81.0946 22.1764 81.2877 23.4645C81.3962 24.4188 81.5959 25.3605 81.8839 26.2767C81.9507 26.4523 81.9639 26.6439 81.9219 26.8271C81.8798 27.0103 81.7844 27.1769 81.6477 27.3059C81.4595 27.4879 81.2118 27.5958 80.9503 27.6096C80.8455 27.6137 80.7414 27.5924 80.6466 27.5477C80.3614 27.3964 80.1341 27.1552 79.9998 26.8616C79.7991 26.4681 79.657 26.0475 79.578 25.613C79.5105 25.1743 79.4317 24.9606 79.3474 24.9662C79.263 24.9718 79.0662 25.2362 78.7512 25.7761C78.4054 26.3576 77.9554 26.8704 77.4239 27.289C76.9602 27.6098 76.4128 27.7877 75.8491 27.8008H75.5173C75.1572 27.7129 74.8271 27.5304 74.5611 27.2721C74.2175 27.0147 73.9352 26.6843 73.7344 26.3048C73.2362 25.1844 73.0422 23.9526 73.172 22.7334C73.3235 21.5451 73.7469 20.4076 74.4093 19.4095C74.8909 18.5506 75.6655 17.8938 76.5915 17.5591ZM77.9694 19.5557C77.834 19.4758 77.6855 19.4205 77.5307 19.3926C77.382 19.4287 77.2397 19.4875 77.1089 19.5669C76.4582 19.9404 75.9483 20.5174 75.6579 21.2092C75.2668 21.9722 75.0734 22.8211 75.0954 23.6783C75.1212 24.0587 75.1852 24.4355 75.2867 24.8031C75.3385 25.0926 75.4496 25.3684 75.6129 25.613C75.6457 25.6579 75.689 25.6942 75.7389 25.7187C75.7889 25.7432 75.8441 25.7552 75.8997 25.7536C76.3215 25.7536 76.8277 25.1912 77.4239 24.1619C77.8844 23.2939 78.2034 22.3578 78.3688 21.3892C78.4527 21.0024 78.5035 20.6091 78.5206 20.2137C78.4996 20.0634 78.4368 19.922 78.3394 19.8057C78.2419 19.6893 78.1137 19.6027 77.9694 19.5557Z" fill="#F48E9F"/>
<path d="M89.6795 16.1135C89.9864 15.8207 90.3822 15.6387 90.8043 15.5961C91.1309 15.561 91.4602 15.6324 91.7429 15.7997C92.0257 15.9669 92.2469 16.221 92.3735 16.5241C92.7608 17.6232 92.9419 18.7844 92.9078 19.9493C92.9528 21.4491 92.8534 23.74 92.6097 26.8221C92.531 27.7501 92.2047 28.2282 91.6086 28.245C91.4646 28.2636 91.3182 28.2489 91.1807 28.2021C91.0433 28.1553 90.9183 28.0776 90.8156 27.9751C90.6247 27.6526 90.5346 27.2805 90.5568 26.9065C90.547 26.3828 90.5658 25.8589 90.6131 25.3373C90.7729 23.4408 90.833 21.5372 90.7931 19.6343C90.7649 18.7063 90.7031 18.2451 90.6018 18.2451C90.5006 18.2451 89.9044 19.1113 89.0214 20.8267C88.1384 22.542 87.3735 24.2012 86.7267 25.7591C86.5215 26.3157 86.2654 26.8523 85.9618 27.362C85.8984 27.481 85.8068 27.5827 85.695 27.6582C85.5833 27.7337 85.4548 27.7807 85.3207 27.7951C85.1977 27.7993 85.0752 27.7782 84.9607 27.7332C84.7364 27.6466 84.5386 27.503 84.3867 27.3166C84.2348 27.1302 84.1342 26.9074 84.0946 26.6702C83.8688 25.5902 83.7594 24.489 83.7684 23.3857C83.7346 22.3565 83.7178 21.5241 83.7178 20.8829C83.7178 19.0082 83.7403 17.8121 83.7853 17.2946C83.7964 16.8964 83.957 16.5169 84.2352 16.2317C84.3822 16.1055 84.5702 16.0375 84.7639 16.0404C85.0162 16.0326 85.2638 16.1098 85.4669 16.2598C85.5632 16.3228 85.6451 16.4055 85.7071 16.5025C85.7691 16.5994 85.8099 16.7084 85.8269 16.8222C85.8269 17.3846 85.8269 18.3464 85.8269 19.7806C85.8269 20.7592 85.8269 21.3272 85.8269 21.4678C85.8269 21.9403 85.8887 22.1765 85.9731 22.1709C86.0575 22.1652 86.3724 21.5803 86.9067 20.3992C87.9266 18.2133 88.8508 16.7847 89.6795 16.1135Z" fill="#F48E9F"/>
<path d="M101.794 11.3386C101.879 11.2347 101.987 11.1507 102.108 11.0924C102.229 11.0341 102.362 11.003 102.497 11.0011C102.638 10.994 102.778 11.0209 102.906 11.0797C103.035 11.1384 103.147 11.2272 103.233 11.3386C103.37 11.5509 103.45 11.7951 103.464 12.0472C103.492 12.3509 103.52 13.2283 103.543 14.6794C103.534 18.2784 103.896 21.8687 104.623 25.3935C104.752 26.0516 104.814 26.3947 104.814 26.4284C104.796 26.6075 104.738 26.7804 104.645 26.9346C104.547 27.1463 104.381 27.3187 104.173 27.4239C104.123 27.435 104.071 27.435 104.021 27.4239C103.791 27.4108 103.57 27.3317 103.385 27.196C103.199 27.0603 103.057 26.8738 102.975 26.659C102.868 26.3384 102.716 25.7366 102.525 24.8536C102.393 24.3185 102.296 23.7756 102.232 23.2282C102.232 23.0089 102.193 22.8964 102.126 22.8964C102.058 22.8964 101.822 23.217 101.512 23.8469C100.451 26.0253 99.2609 27.1239 97.9411 27.1427C97.5925 27.1416 97.2479 27.0688 96.9287 26.929C96.2574 26.5645 95.7461 25.9629 95.4945 25.2417C95.1046 24.3238 94.9038 23.3368 94.904 22.3396C94.8992 21.9637 94.9199 21.5879 94.9658 21.2147C95.0389 20.0901 95.4728 19.0191 96.2032 18.1608C96.506 17.7998 96.8824 17.5077 97.3072 17.304C97.7321 17.1003 98.1956 16.9897 98.6666 16.9797C99.2542 16.9701 99.8346 17.1094 100.354 17.3846C100.578 17.5023 100.819 17.5839 101.068 17.6265H101.119C101.264 17.0758 101.335 16.5086 101.332 15.9392C101.411 14.8875 101.456 13.8751 101.473 12.8965C101.431 12.3574 101.542 11.8174 101.794 11.3386ZM99.544 19.2744C99.2923 19.0927 98.9882 18.9979 98.6779 19.0044C98.457 19.0128 98.2409 19.0714 98.046 19.1756C97.8512 19.2799 97.6826 19.4271 97.553 19.6062C97.1945 20.0817 96.971 20.6452 96.9062 21.2372C96.8582 21.5385 96.8375 21.8434 96.8443 22.1484C96.8508 22.8606 96.9646 23.5678 97.1818 24.2462C97.3955 24.8986 97.6261 25.2248 97.8792 25.2192C98.3854 25.2192 98.9534 24.6174 99.5665 23.4363C100.064 22.6456 100.379 21.7542 100.489 20.8267C100.475 20.5249 100.377 20.2329 100.208 19.983C100.04 19.7001 99.8113 19.458 99.5384 19.2744H99.544Z" fill="#F48E9F"/>
<path d="M117.119 15.4612C117.586 15.2718 118.084 15.1707 118.587 15.1631C118.869 15.1495 119.15 15.1922 119.415 15.2888C119.679 15.3854 119.922 15.5339 120.128 15.7255C120.325 15.9332 120.477 16.1793 120.573 16.4484C120.67 16.7175 120.71 17.0037 120.691 17.2891C120.691 18.2171 120.427 18.7626 119.92 18.9257C119.806 18.9641 119.686 18.9813 119.566 18.9764C119.429 18.9768 119.294 18.9455 119.171 18.8851C119.048 18.8246 118.941 18.7365 118.857 18.6276C118.677 18.3899 118.58 18.0993 118.582 17.8009C118.593 17.6583 118.576 17.5149 118.531 17.3791C118.497 17.3228 118.413 17.2947 118.278 17.2891C117.67 17.4249 117.107 17.7133 116.641 18.1271C115.871 18.6895 115.443 19.1113 115.359 19.3982V19.4488L115.331 19.4994C115.331 19.5838 115.438 19.6569 115.657 19.7188C115.877 19.7806 116.535 19.9212 117.631 20.1462C118.36 20.2694 119.071 20.477 119.752 20.7649C120.195 20.9898 120.603 21.2798 120.961 21.6254C121.316 21.947 121.613 22.3276 121.838 22.7502C122.027 23.1801 122.111 23.6483 122.086 24.1169C122.094 24.4581 122.031 24.7973 121.9 25.1124C121.371 26.106 120.17 26.7565 118.295 27.064C117.943 27.1271 117.588 27.1684 117.232 27.1877C116.881 27.1671 116.532 27.1124 116.191 27.0246C114.883 26.7472 114.086 26.1098 113.801 25.1124C113.774 24.9959 113.757 24.8774 113.751 24.7581C113.749 24.6255 113.775 24.4941 113.829 24.3728C113.882 24.2515 113.961 24.1431 114.06 24.055C114.254 23.8752 114.51 23.7766 114.774 23.7795C114.975 23.7821 115.171 23.8409 115.34 23.9493C115.509 24.0576 115.644 24.2112 115.73 24.3925C115.945 24.6829 116.259 24.8833 116.613 24.9549C116.846 25.0071 117.084 25.0335 117.322 25.0337C117.934 25.0358 118.54 24.9153 119.105 24.6793C119.667 24.4375 119.96 24.1563 119.96 23.8357C119.96 23.3801 119.617 22.9696 118.93 22.6152C117.74 22.1425 116.488 21.8432 115.213 21.7266C114.871 21.6856 114.542 21.5733 114.246 21.3969C113.951 21.2206 113.696 20.9842 113.497 20.703C113.3 20.3622 113.207 19.9713 113.227 19.5781C113.217 19.0963 113.325 18.6193 113.542 18.189C113.895 17.5969 114.364 17.0823 114.92 16.676C115.587 16.1617 116.329 15.7521 117.119 15.4612Z" fill="#F48E9F"/>
<path d="M127.885 12.947C127.916 12.8449 127.968 12.7506 128.039 12.671C128.11 12.5913 128.198 12.5281 128.296 12.4858C128.507 12.3745 128.743 12.3184 128.982 12.3227C129.18 12.322 129.375 12.3736 129.547 12.4723C129.718 12.5711 129.861 12.7135 129.96 12.8852C130.047 13.0051 130.096 13.148 130.101 13.2957C130.09 13.4319 130.062 13.5662 130.017 13.6951C129.906 14.0991 129.84 14.514 129.82 14.9324L129.752 15.6917L130.489 15.6298C130.631 15.6175 130.774 15.6175 130.916 15.6298C131.157 15.6417 131.387 15.7349 131.569 15.8941C131.684 15.9881 131.775 16.1079 131.834 16.2438C131.894 16.3797 131.921 16.5278 131.912 16.6759C131.906 16.8292 131.878 16.9809 131.828 17.1258C131.687 17.4464 131.175 17.6489 130.298 17.7333L129.561 17.8176L129.493 18.5825C129.211 20.737 129.051 22.9058 129.015 25.0785C129.015 26.0065 128.965 26.5746 128.931 26.7658C128.901 26.9812 128.798 27.1797 128.639 27.3282C128.557 27.426 128.456 27.5052 128.342 27.5605C128.227 27.6159 128.102 27.6459 127.975 27.6488C127.719 27.6266 127.479 27.5128 127.3 27.3282C127.15 27.2054 127.047 27.0346 127.008 26.8445C126.956 26.3738 126.93 25.9007 126.929 25.4272V24.8929C126.929 23.9818 126.991 22.7857 127.114 21.3046C127.216 19.8198 127.306 18.8694 127.384 18.4475L127.469 17.992L126.754 18.082C126.215 18.1382 125.793 18.1888 125.489 18.2338C125.396 18.2468 125.301 18.2468 125.208 18.2338C125.098 18.2217 124.991 18.1875 124.895 18.1334C124.798 18.0793 124.713 18.0063 124.645 17.9189C124.53 17.797 124.44 17.6528 124.382 17.4952C124.324 17.3376 124.299 17.1698 124.308 17.0021C124.288 16.8521 124.31 16.6995 124.37 16.5607C124.431 16.422 124.528 16.3024 124.651 16.2147C125.157 16.0408 125.691 15.9608 126.226 15.9785C126.684 15.975 127.142 15.9317 127.592 15.8491C127.709 15.4129 127.762 14.962 127.75 14.5106C127.753 13.9866 127.798 13.4638 127.885 12.947Z" fill="#F48E9F"/>
<path d="M137.722 17.1541C137.987 17.0945 138.259 17.0681 138.532 17.0754C138.956 17.0937 139.37 17.2112 139.741 17.4185C140.068 17.6172 140.435 17.7419 140.815 17.7841C140.958 17.7842 141.098 17.8155 141.228 17.8757C141.357 17.9359 141.471 18.0237 141.563 18.1328C141.682 18.2558 141.769 18.4065 141.816 18.5715C141.869 18.874 141.886 19.1817 141.867 19.4882C141.831 20.7882 141.863 22.0892 141.962 23.3858C141.996 24.3462 142.122 25.3011 142.339 26.2373C142.375 26.344 142.388 26.457 142.379 26.5691C142.374 26.6997 142.341 26.8276 142.28 26.9435C142.22 27.0593 142.134 27.1601 142.03 27.2384C141.829 27.4087 141.573 27.5006 141.31 27.4971C141.205 27.4916 141.102 27.4607 141.012 27.4071C140.749 27.2341 140.552 26.9789 140.449 26.6816C140.272 26.2764 140.16 25.8454 140.118 25.4049C140.084 24.9662 140.022 24.7469 139.938 24.7412C139.853 24.7356 139.634 24.9943 139.28 25.5061C138.892 26.061 138.406 26.5396 137.845 26.9178C137.359 27.2031 136.8 27.34 136.237 27.3115H135.905C135.55 27.1978 135.234 26.9897 134.988 26.7097C134.663 26.4256 134.405 26.0719 134.235 25.6749C133.933 24.845 133.798 23.9641 133.835 23.0821C133.848 22.7445 133.884 22.4082 133.942 22.0754C134.183 20.9015 134.691 19.7988 135.427 18.8527C135.963 18.0295 136.778 17.4267 137.722 17.1541ZM138.948 19.2407C138.836 19.1269 138.686 19.0586 138.527 19.0492C138.368 19.0399 138.211 19.0901 138.087 19.1901C137.41 19.5159 136.858 20.0554 136.518 20.7255C136.072 21.456 135.82 22.2886 135.787 23.144C135.782 23.5214 135.816 23.8983 135.888 24.2688C135.919 24.5614 136.009 24.8446 136.152 25.1012C136.18 25.1498 136.221 25.1903 136.269 25.2189C136.317 25.2475 136.372 25.2631 136.428 25.2643C136.852 25.2643 137.397 24.775 138.065 23.7964C138.575 22.9591 138.955 22.0487 139.19 21.0967C139.305 20.7189 139.384 20.3309 139.426 19.9381C139.418 19.7891 139.369 19.6452 139.285 19.5221C139.201 19.399 139.084 19.3017 138.948 19.2407Z" fill="#F48E9F"/>
<path d="M150.865 16.7041C151.201 16.4307 151.619 16.28 152.052 16.2767C152.374 16.2717 152.69 16.3684 152.955 16.5532C153.219 16.7379 153.419 17.0013 153.525 17.3059C153.828 18.4324 153.919 19.6051 153.795 20.7648C153.728 22.2646 153.456 24.5406 152.98 27.5927C152.839 28.515 152.468 28.965 151.855 28.9368C151.711 28.9444 151.567 28.919 151.435 28.8624C151.302 28.8059 151.184 28.7198 151.09 28.6106C150.919 28.2761 150.856 27.8969 150.91 27.5252C150.937 27.0012 150.993 26.4792 151.079 25.9616C151.383 24.0821 151.587 22.1878 151.692 20.2868C151.737 19.3644 151.692 18.8976 151.608 18.892C151.523 18.8863 150.848 19.7019 149.836 21.3441C148.824 22.9864 147.935 24.5668 147.176 26.0854C146.93 26.6185 146.635 27.127 146.293 27.6039C146.22 27.7187 146.121 27.8141 146.003 27.8817C145.886 27.9493 145.753 27.9872 145.618 27.992C145.496 27.9867 145.378 27.9561 145.269 27.902C145.051 27.7992 144.864 27.6414 144.726 27.4441C144.588 27.2469 144.504 27.0169 144.482 26.7771C144.339 25.6844 144.313 24.5796 144.403 23.4813C144.448 22.4521 144.498 21.6197 144.543 20.9786C144.678 19.1038 144.791 17.9133 144.881 17.4072C144.92 17.0094 145.109 16.6415 145.41 16.3779C145.573 16.2612 145.772 16.2073 145.972 16.2261C146.225 16.238 146.467 16.3351 146.658 16.5017C146.752 16.5741 146.828 16.6659 146.882 16.7707C146.937 16.8756 146.968 16.9911 146.973 17.1091C146.973 17.6715 146.878 18.6332 146.759 20.0618C146.681 21.0404 146.641 21.6028 146.63 21.7491C146.63 22.2215 146.63 22.4577 146.726 22.4634C146.821 22.469 147.164 21.9009 147.794 20.7761C148.96 18.6651 149.984 17.3078 150.865 16.7041Z" fill="#F48E9F"/>
<path d="M163.328 12.8458C163.424 12.7504 163.538 12.6757 163.664 12.6263C163.79 12.577 163.925 12.5541 164.06 12.559C164.201 12.5643 164.339 12.6034 164.462 12.6728C164.586 12.7423 164.69 12.8402 164.768 12.9583C164.889 13.1788 164.949 13.4271 164.943 13.6782C164.943 13.9819 164.903 14.8593 164.824 16.3104C164.544 19.8984 164.634 23.5057 165.094 27.0752C165.168 27.7388 165.207 28.0875 165.207 28.1213C165.172 28.2987 165.101 28.4671 164.999 28.6162C164.883 28.8171 164.706 28.975 164.493 29.0661C164.443 29.0785 164.391 29.0785 164.341 29.0661C164.116 29.0442 163.903 28.9517 163.733 28.8018C163.546 28.6631 163.411 28.4648 163.351 28.2394C163.267 27.9132 163.165 27.3001 163.042 26.4059C162.95 25.8626 162.894 25.3141 162.873 24.7636C162.873 24.5424 162.845 24.4299 162.789 24.4261C162.687 24.4261 162.462 24.7186 162.102 25.326C160.884 27.4145 159.615 28.4194 158.295 28.3406C157.947 28.3152 157.608 28.2175 157.299 28.0538C156.66 27.6439 156.197 27.0101 156 26.2765C155.679 25.333 155.553 24.3343 155.629 23.3407C155.652 22.9628 155.7 22.5869 155.775 22.2158C155.931 21.0983 156.446 20.0619 157.243 19.2631C157.571 18.9253 157.968 18.662 158.406 18.4912C158.845 18.3204 159.315 18.2461 159.785 18.2732C160.369 18.3069 160.934 18.4889 161.427 18.8019C161.642 18.9346 161.875 19.0332 162.119 19.0944H162.17C162.353 18.5601 162.467 18.0043 162.507 17.4408C162.665 16.4022 162.788 15.3955 162.878 14.4206C162.874 13.8634 163.031 13.3168 163.328 12.8458ZM160.483 20.6129C160.248 20.4126 159.953 20.2959 159.645 20.2811C159.425 20.2737 159.207 20.3159 159.007 20.4045C158.806 20.4931 158.628 20.6259 158.486 20.7929C158.094 21.2424 157.828 21.7877 157.715 22.3733C157.656 22.6641 157.622 22.9596 157.614 23.2563C157.568 23.9663 157.628 24.6791 157.794 25.371C157.957 26.0403 158.165 26.3778 158.418 26.3946C158.917 26.4284 159.525 25.8772 160.241 24.7411C160.797 23.9903 161.181 23.1262 161.366 22.2102C161.374 21.9093 161.3 21.6117 161.152 21.3497C160.988 21.0561 160.759 20.804 160.483 20.6129Z" fill="#F48E9F"/>
<path d="M177.98 19.4038C178.249 19.359 178.523 19.3477 178.795 19.37C179.217 19.4098 179.624 19.5485 179.982 19.775C180.299 19.9903 180.66 20.1325 181.039 20.1912C181.182 20.1985 181.322 20.237 181.448 20.3041C181.574 20.3711 181.684 20.4651 181.77 20.5792C181.883 20.7081 181.962 20.8626 182.001 21.0292C182.032 21.334 182.032 21.6411 182.001 21.9459C181.898 23.2424 181.862 24.5433 181.894 25.8435C181.88 26.8032 181.959 27.7619 182.13 28.7063C182.156 28.8154 182.156 28.9289 182.13 29.0381C182.121 29.1698 182.082 29.2976 182.016 29.4117C181.95 29.5258 181.858 29.6231 181.748 29.6961C181.542 29.8569 181.283 29.9351 181.022 29.9155C180.917 29.9031 180.815 29.8686 180.724 29.8142C180.48 29.6193 180.305 29.3512 180.224 29.0493C180.072 28.6357 179.985 28.2014 179.965 27.7614C179.965 27.3189 179.914 27.094 179.813 27.0865C179.729 27.0865 179.498 27.3227 179.121 27.8176C178.707 28.3538 178.196 28.8077 177.614 29.1562C177.114 29.4158 176.549 29.5233 175.989 29.4655H175.663C175.313 29.3368 175.006 29.1151 174.774 28.8244C174.466 28.5247 174.226 28.1622 174.071 27.7614C173.813 26.9172 173.723 26.0305 173.807 25.1517C173.834 24.8127 173.887 24.4763 173.964 24.145C174.261 22.9795 174.825 21.8992 175.612 20.9898C176.188 20.1965 177.027 19.6342 177.98 19.4038ZM179.105 21.5522C178.981 21.4592 178.842 21.3887 178.694 21.3441C178.54 21.3588 178.39 21.3987 178.25 21.4622C177.556 21.7497 176.978 22.2604 176.607 22.9133C176.126 23.6212 175.832 24.4398 175.753 25.2923C175.727 25.6791 175.742 26.0674 175.798 26.4509C175.81 26.7452 175.887 27.0331 176.023 27.2946C176.047 27.3444 176.085 27.3868 176.131 27.4174C176.178 27.448 176.231 27.4658 176.287 27.4689C176.703 27.5027 177.277 27.0415 177.974 26.0854C178.544 25.2724 178.983 24.3746 179.273 23.4251C179.409 23.0606 179.509 22.6839 179.571 22.3002C179.572 22.1436 179.527 21.9902 179.444 21.8577C179.36 21.7253 179.24 21.6194 179.099 21.5522H179.105Z" fill="#F48E9F"/>
<path d="M194.667 18.8469C194.867 18.7964 195.075 18.7831 195.28 18.8076C195.853 18.8777 196.381 19.1535 196.765 19.5837C197.261 20.1132 197.635 20.7447 197.862 21.4341C198.008 21.7755 198.1 22.1381 198.132 22.5083C198.132 22.6433 197.985 22.8308 197.693 23.0707C197.412 23.3238 197.204 23.4419 197.069 23.4307C196.703 23.3913 196.321 22.902 195.944 21.9628C195.657 21.2597 195.381 20.8885 195.14 20.8379C194.898 20.7873 194.661 21.0066 194.318 21.4003C193.42 22.566 192.902 23.9797 192.834 25.4498C192.806 25.6757 192.791 25.9028 192.789 26.1303C192.734 26.7901 192.795 27.4543 192.969 28.0932C193.017 28.2677 193.117 28.4235 193.255 28.54C193.394 28.6565 193.565 28.7282 193.745 28.7456C194.491 28.7251 195.22 28.512 195.859 28.1269C196.198 27.9056 196.583 27.7634 196.984 27.7107C197.052 27.7137 197.119 27.729 197.181 27.7557C197.312 27.8005 197.43 27.8744 197.527 27.9719C197.625 28.0694 197.699 28.1878 197.744 28.3182C197.806 28.4586 197.842 28.6091 197.85 28.7625C197.814 28.9035 197.749 29.0356 197.659 29.1505C197.337 29.6417 196.534 30.101 195.252 30.5285C194.701 30.7322 194.111 30.811 193.525 30.7591C192.864 30.7046 192.246 30.4059 191.793 29.9211C191.293 29.3653 190.961 28.6786 190.837 27.9413C190.729 27.0796 190.74 26.2072 190.871 25.3486C190.967 24.1339 191.248 22.941 191.703 21.8109C192.096 20.9168 192.696 20.1285 193.452 19.5106C193.8 19.1973 194.216 18.97 194.667 18.8469Z" fill="#F48E9F"/>
<path d="M201.708 16.1699C201.782 16.1007 201.872 16.05 201.97 16.0217C202.067 15.9933 202.17 15.9882 202.27 16.0068C202.413 16.0175 202.552 16.0605 202.675 16.1326C202.799 16.2047 202.905 16.304 202.985 16.423C203.132 16.7791 203.201 17.1627 203.187 17.5478C203.187 18.129 203.174 19.8594 203.148 22.739C203.148 25.0149 203.148 26.1623 203.148 26.181L203.468 25.6186C203.82 24.8787 204.289 24.2006 204.857 23.6107C205.023 23.4306 205.228 23.2908 205.456 23.2021C205.684 23.1134 205.93 23.0781 206.173 23.0989C206.462 23.1319 206.735 23.2447 206.962 23.4245C207.19 23.6044 207.363 23.8442 207.461 24.1169C207.788 24.8625 207.979 25.6606 208.024 26.4735C208.103 27.4465 208.125 29.0156 208.08 31.1641L208.029 33.605L207.641 33.8637C207.464 34.0121 207.237 34.0867 207.006 34.0718C206.826 34.0472 206.659 33.9665 206.528 33.8412C206.319 33.652 206.188 33.391 206.162 33.1101C206.122 32.3457 206.122 31.5798 206.162 30.8154C206.218 27.3733 206.128 25.6392 205.892 25.613C205.679 25.613 205.245 26.4735 204.593 28.2676C204.105 29.4994 203.705 30.7643 203.395 32.0527C203.349 32.342 203.227 32.6138 203.041 32.8401C202.891 33.065 202.669 33.2317 202.411 33.3125C202.302 33.3399 202.188 33.3399 202.079 33.3125C201.927 33.3036 201.779 33.256 201.65 33.1744C201.521 33.0927 201.415 32.9796 201.342 32.8457C201.214 32.5345 201.161 32.197 201.19 31.8615C201.19 31.2991 201.19 29.848 201.19 27.4577C201.19 27.3902 201.19 26.4285 201.23 24.5837C201.269 22.739 201.23 21.4004 201.269 20.5849C201.269 18.6502 201.308 17.3735 201.376 16.7548V16.6254C201.463 16.4579 201.575 16.3043 201.708 16.1699Z" fill="#F48E9F"/>
<path d="M215.06 23.2676C215.331 23.2366 215.605 23.2366 215.876 23.2676C216.294 23.3246 216.694 23.4808 217.04 23.7232C217.348 23.9536 217.703 24.113 218.08 24.19C218.304 24.2273 218.512 24.3317 218.676 24.4893C218.839 24.6469 218.951 24.8504 218.997 25.073C219.013 25.3776 218.996 25.6831 218.946 25.9841C218.786 27.2757 218.692 28.5748 218.665 29.8761C218.605 30.8351 218.639 31.7977 218.767 32.7501C218.788 32.8596 218.788 32.9724 218.767 33.0819C218.75 33.2124 218.703 33.3373 218.631 33.4474C218.559 33.5574 218.463 33.6498 218.35 33.7174C218.136 33.8679 217.874 33.934 217.614 33.903C217.508 33.8896 217.407 33.8489 217.321 33.7849C217.084 33.586 216.919 33.3156 216.849 33.0144C216.715 32.5924 216.646 32.1523 216.646 31.7096C216.646 31.2709 216.612 31.0459 216.528 31.0347C216.444 31.0234 216.202 31.254 215.797 31.7321C215.362 32.2431 214.836 32.6684 214.245 32.9863C213.735 33.2273 213.165 33.3096 212.608 33.2225L212.282 33.1775C211.939 33.0327 211.641 32.7975 211.421 32.497C211.129 32.1843 210.909 31.812 210.774 31.4059C210.553 30.5506 210.501 29.6601 210.623 28.785C210.667 28.4483 210.736 28.1155 210.831 27.7895C211.179 26.6433 211.79 25.5939 212.614 24.7243C213.232 23.9658 214.099 23.45 215.06 23.2676ZM216.106 25.4667C215.986 25.3663 215.849 25.2882 215.701 25.2361C215.549 25.245 215.399 25.2772 215.257 25.3317C214.56 25.5951 213.967 26.0789 213.57 26.7096C213.038 27.3904 212.69 28.1958 212.557 29.0493C212.515 29.4343 212.515 29.8229 212.557 30.2079C212.557 30.5005 212.619 30.7898 212.737 31.0572C212.76 31.1087 212.796 31.1534 212.841 31.1869C212.887 31.2204 212.94 31.2416 212.996 31.2484C213.412 31.299 214.003 30.8659 214.768 29.9436C215.369 29.164 215.843 28.2947 216.174 27.3677C216.325 27.0043 216.441 26.6278 216.522 26.2428C216.533 26.0875 216.499 25.9324 216.425 25.7952C216.352 25.658 216.241 25.5442 216.106 25.4667Z" fill="#F48E9F"/>
<path d="M228.199 24.0831C228.556 23.842 228.984 23.7308 229.413 23.7682C229.736 23.7932 230.042 23.9191 230.288 24.1282C230.534 24.3372 230.709 24.6186 230.786 24.9324C230.98 26.083 230.959 27.2596 230.724 28.4026C230.514 29.8686 230.027 32.1089 229.262 35.1235C229.031 36.029 228.62 36.4396 228.036 36.3552C227.89 36.349 227.749 36.3098 227.621 36.2406C227.493 36.1714 227.383 36.0741 227.299 35.9559C227.157 35.598 227.131 35.2044 227.226 34.8311C227.304 34.3119 227.411 33.7974 227.546 33.29C228.026 31.4494 228.411 29.5854 228.699 27.7052C228.829 26.7828 228.845 26.316 228.744 26.3047C228.643 26.2935 227.912 27.0359 226.748 28.5544C225.583 30.073 224.549 31.5803 223.643 33.0201C223.349 33.5268 223.008 34.005 222.625 34.4486C222.542 34.5554 222.434 34.6403 222.31 34.6961C222.187 34.7519 222.052 34.777 221.916 34.7692C221.795 34.7517 221.678 34.7096 221.573 34.6455C221.367 34.5215 221.196 34.3459 221.077 34.1358C220.959 33.9258 220.897 33.6886 220.898 33.4475C220.866 32.3454 220.947 31.2429 221.14 30.1573C221.281 29.1393 221.41 28.3126 221.517 27.6827C221.832 25.8079 222.059 24.6343 222.198 24.1619C222.271 23.7686 222.495 23.4195 222.822 23.1889C222.99 23.0859 223.191 23.0498 223.384 23.0877C223.635 23.1228 223.867 23.2417 224.042 23.4251C224.129 23.5054 224.197 23.6042 224.241 23.7142C224.285 23.8242 224.303 23.9425 224.295 24.0607C224.224 24.5968 224.061 25.5717 223.806 26.9853C223.632 27.947 223.536 28.5038 223.514 28.6725C223.452 29.1393 223.457 29.3812 223.542 29.3924C223.626 29.4037 224.031 28.875 224.762 27.8008C226.116 25.8323 227.261 24.5931 228.199 24.0831Z" fill="#F48E9F"/>
<path d="M236.483 24.19C236.688 24.1561 236.897 24.1561 237.101 24.19C237.67 24.2931 238.183 24.5964 238.547 25.0448C239.013 25.6008 239.352 26.2514 239.542 26.9515C239.674 27.2989 239.746 27.6657 239.756 28.0369C239.756 28.1663 239.582 28.3519 239.289 28.5994C238.997 28.8468 238.783 28.9424 238.648 28.9256C238.282 28.8693 237.923 28.3631 237.579 27.4014C237.332 26.6815 237.085 26.2766 236.831 26.2766C236.578 26.2766 236.348 26.4228 235.982 26.839C235.035 27.9508 234.447 29.3234 234.295 30.7759C234.257 31.0013 234.231 31.2285 234.216 31.4565C234.13 32.1123 234.156 32.7781 234.295 33.425C234.334 33.5993 234.425 33.7578 234.555 33.8802C234.686 34.0025 234.85 34.0829 235.026 34.1111C235.792 34.1192 236.547 33.9252 237.214 33.5487C237.569 33.3443 237.964 33.2214 238.372 33.1887C238.44 33.2003 238.506 33.2192 238.569 33.245C238.698 33.3011 238.811 33.3862 238.901 33.4935C238.991 33.6009 239.054 33.7276 239.087 33.8637C239.142 34.0071 239.171 34.1597 239.171 34.3136C239.129 34.4535 239.056 34.5822 238.957 34.6904C238.614 35.1628 237.788 35.5847 236.483 35.9446C235.92 36.1161 235.328 36.164 234.745 36.0852C234.088 35.9913 233.489 35.6614 233.058 35.1572C232.59 34.5756 232.295 33.8738 232.208 33.1325C232.149 32.2664 232.206 31.3964 232.377 30.5453C232.534 29.3355 232.877 28.1574 233.395 27.0527C233.833 26.1777 234.473 25.4199 235.262 24.8424C235.615 24.5362 236.032 24.3132 236.483 24.19Z" fill="#F48E9F"/>
<path d="M244.401 26.8616C244.757 26.5737 245.167 26.3608 245.606 26.2361C246.046 26.1114 246.507 26.0774 246.96 26.1361C247.363 26.1992 247.747 26.3489 248.085 26.5748C248.528 26.8376 248.896 27.2094 249.154 27.6547C249.411 28.1687 249.573 28.7251 249.632 29.2969C249.671 29.5354 249.671 29.7784 249.632 30.0168C249.548 30.4455 249.373 30.8511 249.119 31.2063C248.865 31.5614 248.537 31.8578 248.158 32.0753C247.289 32.6431 246.266 32.9298 245.228 32.8965C244.905 32.9017 244.581 32.881 244.261 32.8346C244.16 32.8266 244.061 32.8019 243.968 32.7615L243.507 32.5815L243.327 33.7063C243.187 34.2715 243.187 34.8622 243.327 35.4274C243.354 35.6298 243.429 35.8229 243.547 35.9898C243.696 36.0983 243.867 36.1748 244.047 36.2148L244.244 36.2485C244.824 36.2601 245.399 36.147 245.931 35.9167C246.481 35.6871 247.068 35.5594 247.663 35.5398C247.764 35.5573 247.859 35.5966 247.943 35.6549C248.026 35.7132 248.096 35.7891 248.147 35.8773C248.219 35.9715 248.272 36.0794 248.301 36.1945C248.33 36.3096 248.335 36.4294 248.316 36.5466C248.226 37.0809 247.484 37.5533 246.066 37.9695C245.674 38.0887 245.273 38.1808 244.868 38.2451C244.502 38.2562 244.136 38.2241 243.777 38.1495C243.446 38.1056 243.121 38.0302 242.804 37.9245C242.59 37.8135 242.399 37.6627 242.242 37.4802C241.851 37.0766 241.566 36.5817 241.415 36.0404C241.281 35.7052 241.194 35.3532 241.156 34.9943C241.173 34.4624 241.227 33.9324 241.319 33.4083L241.421 32.8065C241.916 29.91 242.9 27.9246 244.401 26.8616ZM247.214 28.3858C247.063 28.2279 246.866 28.1233 246.651 28.0877C246.346 28.0566 246.04 28.1215 245.774 28.2733C245.412 28.5422 245.093 28.8646 244.829 29.2295C244.543 29.5577 244.327 29.9403 244.193 30.3543L244.098 30.7761L244.902 30.883C245.361 30.9353 245.825 30.9087 246.274 30.8042C246.611 30.6798 246.926 30.5033 247.208 30.2812C247.431 30.1398 247.602 29.9281 247.692 29.6794C247.716 29.4458 247.681 29.2099 247.59 28.9932C247.512 28.7677 247.387 28.5609 247.225 28.3858H247.214Z" fill="#F48E9F"/>
<path d="M1.54915 56.7006C2.17344 56.3575 2.78648 55.9976 3.4164 55.6601L5.32302 54.6871C5.96418 54.3778 6.59972 54.0572 7.24651 53.7591L9.20374 52.8986C10.5142 52.3362 11.8303 51.7738 13.1407 51.2788C13.7987 51.0089 14.4736 50.7839 15.1429 50.5477C15.8122 50.3115 16.4871 50.0753 17.162 49.8503C19.8617 48.9504 22.5782 48.0955 25.3228 47.3531C28.0674 46.6107 30.8289 45.9246 33.6129 45.3115C36.3969 44.6985 39.1978 44.1417 42.0493 43.7086L44.1696 43.3993C44.8783 43.3037 45.5926 43.2306 46.3012 43.1462L48.4215 42.9268C49.1358 42.865 49.8557 42.8256 50.57 42.7694C53.4606 42.5724 56.3605 42.5498 59.2538 42.7019C59.9893 42.7549 60.7215 42.8469 61.4473 42.9775C62.1843 43.1039 62.9131 43.2749 63.6295 43.4893C65.1292 43.9135 66.5407 44.603 67.797 45.5252L67.842 45.559C68.0011 45.7 68.117 45.8831 68.1762 46.0872C68.2355 46.2914 68.2357 46.5081 68.1769 46.7123C68.118 46.9166 68.0025 47.0999 67.8437 47.2412C67.6849 47.3825 67.4893 47.4759 67.2796 47.5106C65.8792 47.6512 64.5406 47.7356 63.1964 47.8031L62.1841 47.8649C61.8522 47.8649 61.5091 47.8649 61.1717 47.8987C60.5024 47.938 59.8275 47.9437 59.1526 47.9605H58.1346H57.1166C56.4417 47.9605 55.7556 48.0055 55.075 48.028L53.0278 48.1405L50.9806 48.2924L46.8749 48.6523L44.8164 48.8604L42.7973 49.1585C40.0527 49.496 37.3081 49.8334 34.5747 50.2833C29.1023 51.1439 23.6637 52.2631 18.2925 53.6579C12.9137 55.0101 7.6149 56.6625 2.42091 58.6072C2.17752 58.7097 1.90393 58.7142 1.65732 58.6197C1.41071 58.5252 1.21018 58.339 1.09762 58.1001C0.985065 57.8612 0.969203 57.588 1.05335 57.3377C1.1375 57.0874 1.31514 56.8793 1.54915 56.7568V56.7006Z" fill="#FFD7C5" stroke="#043866" stroke-width="1.37" stroke-miterlimit="10"/>
<path d="M74.8553 42.4093C75.441 42.078 76.0666 41.8229 76.7169 41.65C77.3544 41.4887 78.0003 41.3629 78.6516 41.2732C79.9426 41.0716 81.2485 40.9813 82.5549 41.0032C83.8407 41.0486 85.1184 41.2258 86.3681 41.5319C87.6181 41.8262 88.8152 42.3119 89.917 42.9717L89.9676 43.0054C90.2835 43.1997 90.5094 43.5113 90.5958 43.8718C90.6823 44.2324 90.6222 44.6126 90.4288 44.9289C90.3056 45.1254 90.136 45.2887 89.935 45.4044C89.734 45.5201 89.5076 45.5848 89.2758 45.5926C86.897 45.5751 84.522 45.3985 82.1668 45.0639C81.0082 44.9402 79.8552 44.7658 78.7023 44.6983C77.5341 44.6731 76.3682 44.5849 75.2096 44.434C74.989 44.3992 74.7846 44.2969 74.6245 44.1411C74.4645 43.9853 74.3567 43.7838 74.3159 43.5642C74.2752 43.3445 74.3036 43.1177 74.3972 42.9149C74.4908 42.7121 74.6449 42.5433 74.8384 42.4318L74.8553 42.4093Z" fill="white" stroke="#043866" stroke-width="1.37" stroke-miterlimit="10"/>
<path d="M259.638 21.1172C255.253 18.4993 250.697 16.1806 246 14.1769C241.303 12.1297 236.495 10.313 231.624 8.71013C226.753 7.10722 221.815 5.70679 216.787 4.61569C211.789 3.47314 206.714 2.70053 201.602 2.30412C201.442 2.30412 201.289 2.24072 201.176 2.12786C201.063 2.015 201 1.86194 201 1.70233C201 1.54273 201.063 1.38966 201.176 1.2768C201.289 1.16394 201.442 1.10054 201.602 1.10054H201.652L203.61 1.0443C204.268 1.0443 204.926 0.982428 205.578 1.00493C206.883 1.05554 208.199 1.07242 209.515 1.14553C210.831 1.21865 212.136 1.30863 213.452 1.42674C214.768 1.54485 216.062 1.69671 217.389 1.87106L221.287 2.43348C222.58 2.65283 223.863 2.91154 225.156 3.14776L229.014 3.9689C230.297 4.25011 231.568 4.58194 232.844 4.90815C235.387 5.57743 237.906 6.29171 240.437 7.0791C241.703 7.45593 242.94 7.91149 244.194 8.33893C245.448 8.76637 246.68 9.23319 247.923 9.7C249.166 10.1668 250.392 10.6674 251.624 11.1679C252.863 11.6691 254.071 12.2457 255.24 12.8946C257.649 14.1768 259.824 15.8557 261.674 17.8608L262.04 18.2713C262.343 18.6077 262.515 19.0425 262.524 19.4956C262.532 19.9487 262.376 20.3895 262.085 20.7368C261.794 21.0841 261.387 21.3144 260.939 21.3854C260.492 21.4563 260.034 21.3631 259.65 21.1228L259.638 21.1172Z" fill="#FFD7C5" stroke="#043866" stroke-width="1.06" stroke-miterlimit="10"/>
<path d="M279.256 23.4794C278.221 22.2252 277.197 20.9654 276.078 19.7899L275.246 18.9013L274.38 18.0464C273.817 17.484 273.198 16.9216 272.602 16.3591C270.17 14.1774 267.533 12.2356 264.728 10.5605C259.039 7.223 252.882 4.75837 246.461 3.24903C246.345 3.19658 246.251 3.10659 246.193 2.99369C246.135 2.8808 246.117 2.75162 246.142 2.62717C246.166 2.50271 246.233 2.39029 246.329 2.30817C246.426 2.22604 246.548 2.17904 246.675 2.1748C247.507 2.29854 248.362 2.41665 249.172 2.55725C249.982 2.69786 250.82 2.88908 251.652 3.05781L252.889 3.32215L254.121 3.64273C254.942 3.85083 255.763 4.05892 256.568 4.33451C259.839 5.32866 263.01 6.62795 266.039 8.21524L268.288 9.47506C269.014 9.93625 269.756 10.3806 270.476 10.8474C271.196 11.3142 271.905 11.8204 272.591 12.3378L273.62 13.1308C273.969 13.3895 274.306 13.6539 274.633 13.9407C275.296 14.5031 275.971 15.0656 276.595 15.628C277.256 16.2276 277.876 16.8701 278.451 17.5515C279.625 18.8488 280.563 20.341 281.224 21.9609L281.348 22.2702C281.454 22.5423 281.459 22.8432 281.364 23.1192C281.269 23.3951 281.078 23.6282 280.827 23.7769C280.576 23.9255 280.28 23.98 279.992 23.9307C279.704 23.8814 279.443 23.7314 279.256 23.5075V23.4794Z" fill="white" stroke="#043866" stroke-width="1.06" stroke-miterlimit="10"/>
</svg>
