<svg width="350" height="65" viewBox="0 0 350 65" fill="none" xmlns="http://www.w3.org/2000/svg">
<path d="M20.2134 17.8381C20.6969 17.5016 21.2514 17.2808 21.8338 17.1928C22.3335 17.1245 22.8417 17.2243 23.2784 17.4765C23.7151 17.7287 24.0556 18.119 24.2462 18.586C24.4677 19.0666 24.6137 19.5785 24.6788 20.1037C24.7416 20.3689 24.748 20.6444 24.6975 20.9122C24.6469 21.18 24.5406 21.4341 24.3855 21.6582C24.1892 21.8632 23.9321 21.9995 23.6522 22.0468C23.4907 22.0633 23.3276 22.0428 23.1751 21.9869C23.0227 21.931 22.885 21.8412 22.7724 21.7242C22.4894 21.4387 22.3023 21.0723 22.2371 20.6757C22.1125 20.1111 21.9658 19.8398 21.8192 19.8544C21.6725 19.8691 21.3206 20.1844 20.7926 20.8003C19.1307 22.7556 18.417 25.4001 18.6516 28.7339C18.6516 28.8438 18.6516 29.0125 18.6883 29.2325C18.7249 29.4524 18.6883 29.6064 18.6883 29.6944C18.7513 30.5615 18.975 31.4094 19.3482 32.1947C19.6882 32.7904 20.199 33.2706 20.8146 33.5732C21.1616 33.7488 21.548 33.8321 21.9365 33.8151C22.4281 33.7278 22.8854 33.5042 23.2563 33.1699C23.674 32.8851 24.0092 32.4951 24.228 32.0394C24.4469 31.5837 24.5416 31.0783 24.5028 30.5743C24.464 30.2659 24.3603 29.9692 24.1986 29.7038C24.0368 29.4384 23.8206 29.2103 23.5642 29.0345C22.9425 28.5925 22.2071 28.338 21.4452 28.3013C20.5287 28.2279 20.0374 27.8393 19.9788 27.1354C19.9201 26.4315 20.3747 25.9329 21.4086 25.6176C23.391 24.9479 25.4139 24.4042 27.465 23.9899C27.6526 23.9678 27.8421 23.9678 28.0296 23.9899C28.3531 24.0333 28.6539 24.1799 28.8875 24.4078C29.0917 24.7067 29.2062 25.0578 29.2174 25.4197C29.2174 25.5956 29.2541 25.9696 29.2761 26.5415C29.2761 26.7615 29.2761 27.1721 29.3788 27.7587C29.5162 29.7595 29.9232 31.7326 30.5886 33.6245C30.7049 33.9161 30.7933 34.2181 30.8525 34.5264C30.8657 34.6903 30.8458 34.8552 30.7942 35.0114C30.7426 35.1675 30.6602 35.3118 30.5519 35.4356C30.4513 35.5697 30.3249 35.6822 30.1801 35.7666C30.0352 35.851 29.875 35.9055 29.7087 35.9268C29.419 35.9616 29.1267 35.8885 28.8875 35.7215C28.516 35.5162 28.0834 34.4897 27.5897 32.642L27.2304 31.3002L26.7905 32.4147C26.4603 33.1898 26.0126 33.9095 25.4633 34.5484C25.0171 35.1592 24.4379 35.6606 23.7695 36.0148C23.3041 36.2274 22.81 36.3707 22.3031 36.4401C21.0573 36.5783 19.8075 36.2171 18.8276 35.4356C17.7081 34.5817 16.8911 33.3921 16.4959 32.0407C16.3234 31.4601 16.2128 30.8629 16.166 30.259C15.9728 28.842 15.9481 27.4071 16.0926 25.9842C16.3265 24.2639 16.8365 22.5927 17.6031 21.0349C18.1774 19.7586 19.0777 18.656 20.2134 17.8381V17.8381ZM26.8125 27.766C26.7955 27.4797 26.7438 27.1966 26.6585 26.9228C26.62 26.8681 26.5654 26.8267 26.5024 26.8044C26.4393 26.782 26.3709 26.7799 26.3065 26.7981C25.8739 26.8421 25.6613 26.9668 25.6833 27.1647C25.7909 27.464 25.958 27.7384 26.1745 27.9713C26.3503 28.2909 26.5727 28.5825 26.8345 28.8365C26.8797 28.4892 26.8623 28.1365 26.7831 27.7953L26.8125 27.766Z" fill="#F48E9F"/>
<path d="M32.8328 21.9956C33.0681 21.7254 33.3941 21.5506 33.7494 21.5043C33.9219 21.4898 34.0955 21.5095 34.2604 21.5623C34.4253 21.6152 34.578 21.7001 34.7099 21.8123C34.8268 21.8999 34.9252 22.0098 34.9995 22.1356C35.0737 22.2615 35.1223 22.4008 35.1425 22.5455C35.1425 22.5895 35.1425 22.8535 35.1425 23.3374V24.4959L36.1544 23.2714C36.5755 22.7193 37.0687 22.2261 37.6208 21.8049C38.1006 21.5038 38.6469 21.3251 39.2119 21.2844C39.4219 21.2714 39.6325 21.2714 39.8425 21.2844C41.3676 21.2844 42.3721 21.651 42.8634 22.3549C42.9623 22.4898 43.0228 22.649 43.0383 22.8156C43.0538 22.9822 43.0238 23.1499 42.9514 23.3007C42.8607 23.547 42.7026 23.7628 42.4952 23.9235C42.2877 24.0843 42.0393 24.1835 41.7782 24.2099C41.489 24.2402 41.1967 24.2229 40.913 24.1586C40.4738 24.0542 40.0224 24.0098 39.5712 24.0266C38.8746 24.0926 38.2514 24.7599 37.7161 26.0577C37.3823 27.043 37.1513 28.0603 37.0269 29.0932C36.8467 30.0896 36.773 31.1022 36.8069 32.1142C36.8007 32.1628 36.8007 32.2121 36.8069 32.2608V32.3708C36.841 32.4777 36.8607 32.5886 36.8656 32.7007C36.8577 33.0136 36.7469 33.3151 36.5503 33.5586C36.4449 33.7337 36.2996 33.8814 36.1263 33.9897C35.9531 34.098 35.7567 34.1638 35.5531 34.1819C35.2635 34.1996 34.9752 34.131 34.7246 33.9848C34.474 33.8387 34.2724 33.6214 34.1453 33.3606C33.5538 32.4465 33.0332 30.2469 32.5835 26.7616C32.4296 25.6251 32.3416 24.9285 32.3196 24.6645C32.2463 24.0827 32.2463 23.494 32.3196 22.9121C32.3947 22.562 32.5735 22.2426 32.8328 21.9956V21.9956Z" fill="#F48E9F"/>
<path d="M50.5181 20.8737C50.8546 20.7571 51.2044 20.6832 51.5593 20.6538C52.1078 20.6137 52.6581 20.7042 53.165 20.9177C53.6252 21.1272 54.126 21.2323 54.6315 21.2257C54.9288 21.2114 55.2234 21.2879 55.4762 21.4451C55.7289 21.6023 55.9279 21.8326 56.0466 22.1056C56.1475 22.4891 56.2065 22.8825 56.2226 23.2787C56.3546 24.8332 56.5892 26.5196 56.9558 28.3234C57.1429 29.5593 57.4474 30.7746 57.865 31.9528C57.9296 32.0855 57.9646 32.2306 57.9677 32.3781C57.9818 32.5486 57.9576 32.7201 57.8967 32.88C57.8358 33.0399 57.7398 33.1841 57.6157 33.302C57.3817 33.5524 57.0628 33.7066 56.7212 33.7346C56.5833 33.7483 56.4443 33.7255 56.3179 33.6686C55.9632 33.4753 55.6784 33.1751 55.504 32.8107C55.2171 32.3112 55.0117 31.7692 54.8955 31.2049C54.7781 30.6404 54.6681 30.3617 54.5582 30.3764C54.4482 30.3911 54.1989 30.743 53.8249 31.4616C53.4038 32.24 52.839 32.9317 52.1605 33.5C51.5728 33.9382 50.8688 34.1933 50.1368 34.2332H49.7115C49.2344 34.1394 48.7912 33.9191 48.4284 33.5953C47.9706 33.2757 47.5878 32.8604 47.3065 32.3781C46.7929 31.3479 46.4865 30.2268 46.4047 29.0786C46.3716 28.6368 46.3716 28.1932 46.4047 27.7514C46.5471 26.1914 47.049 24.6856 47.8711 23.3521C48.4387 22.2435 49.3746 21.3672 50.5181 20.8737ZM52.4098 23.3961C52.2322 23.2998 52.0383 23.2377 51.8379 23.2127C51.6451 23.2634 51.4618 23.3451 51.2953 23.4547C50.467 23.968 49.8326 24.7417 49.4915 25.6544C49.0227 26.6671 48.8184 27.7821 48.8976 28.8953C48.9485 29.3936 49.0517 29.8851 49.2056 30.3617C49.2882 30.7363 49.4453 31.0903 49.6675 31.4029C49.7111 31.4612 49.7694 31.5068 49.8363 31.5351C49.9033 31.5635 49.9767 31.5735 50.0488 31.5642C50.5914 31.5202 51.2293 30.831 51.9552 29.4232C52.5061 28.2653 52.8723 27.0283 53.0404 25.7571C53.1364 25.252 53.183 24.7387 53.1797 24.2246C53.1504 23.8873 52.8937 23.6014 52.4098 23.3961V23.3961Z" fill="#F48E9F"/>
<path d="M67.4764 18.3294C67.8665 17.9238 68.3843 17.6648 68.9429 17.5962C69.36 17.5409 69.7839 17.6189 70.1539 17.8191C70.524 18.0192 70.8213 18.3313 71.0033 18.7107C71.5646 20.1231 71.8604 21.6269 71.8758 23.1467C72.0078 25.0776 71.9931 28.0667 71.8318 32.1141C71.7805 33.3313 71.3772 33.9619 70.6073 34.0132C70.4206 34.0471 70.2286 34.037 70.0466 33.9835C69.8645 33.93 69.6975 33.8347 69.5588 33.7052C69.2901 33.2968 69.1544 32.8153 69.1702 32.3267C69.1327 31.6454 69.1327 30.9624 69.1702 30.281C69.2854 27.8011 69.2683 25.3168 69.1189 22.8388C69.0382 21.6363 68.9282 21.035 68.7962 21.0423C68.6643 21.0497 67.9384 22.2082 66.8678 24.4885C65.7973 26.7689 64.8881 28.9466 64.1329 31.0289C63.891 31.754 63.5842 32.4559 63.2164 33.126C63.1382 33.2837 63.0237 33.4205 62.8821 33.525C62.7406 33.6296 62.5762 33.6989 62.4025 33.7272C62.2433 33.7342 62.0843 33.7118 61.9332 33.6612C61.6362 33.5592 61.3707 33.382 61.1625 33.1468C60.9544 32.9117 60.8106 32.6266 60.7454 32.3194C60.3996 30.9389 60.2005 29.5257 60.1515 28.1033C60.0561 26.7615 59.9901 25.6764 59.9535 24.8405C59.8508 22.3964 59.8215 20.8395 59.8655 20.1698C59.8526 19.6499 60.0419 19.1453 60.3934 18.762C60.5742 18.586 60.8157 18.4862 61.068 18.4834C61.3976 18.4592 61.7258 18.547 61.9992 18.7327C62.1308 18.811 62.2437 18.9173 62.3298 19.044C62.416 19.1707 62.4733 19.3147 62.4978 19.4659C62.5418 20.1991 62.6004 21.453 62.6591 23.3227C62.7031 24.5985 62.7324 25.3391 62.7471 25.5224C62.7911 26.131 62.8644 26.4389 62.9744 26.4316C63.0844 26.4243 63.4657 25.6397 64.1036 24.0706C65.2914 21.1572 66.4157 19.2435 67.4764 18.3294Z" fill="#F48E9F"/>
<path d="M83.0369 11.4811C83.1413 11.3402 83.2757 11.2243 83.4304 11.1419C83.5852 11.0594 83.7563 11.0125 83.9315 11.0045C84.1163 10.9881 84.3022 11.0169 84.4734 11.0885C84.6446 11.16 84.7958 11.2721 84.914 11.4151C85.1041 11.68 85.2182 11.9919 85.2439 12.3169C85.3026 12.7129 85.3759 13.8567 85.4786 15.7411C85.6517 20.4398 86.3077 25.1081 87.4363 29.6725C87.6343 30.523 87.7369 30.9703 87.7369 31.0143C87.7195 31.2497 87.6546 31.4791 87.5463 31.6889C87.4251 31.9674 87.2167 32.199 86.9524 32.3488C86.8919 32.3744 86.8274 32.3893 86.7617 32.3928C86.4653 32.3971 86.1752 32.3072 85.9332 32.1361C85.6598 31.9676 85.4546 31.7079 85.3539 31.4029C85.1999 30.9923 84.9726 30.2224 84.6794 29.0786C84.4793 28.388 84.325 27.685 84.2174 26.9742C84.2174 26.6882 84.1441 26.5489 84.0634 26.5563C83.9828 26.5636 83.6748 26.9815 83.3302 27.8174C82.0642 30.7063 80.5708 32.1972 78.8502 32.2901C78.3952 32.3059 77.9416 32.2311 77.5157 32.0701C76.6267 31.634 75.9335 30.8805 75.5726 29.9584C75.015 28.785 74.7031 27.51 74.6561 26.2116C74.6224 25.7234 74.6224 25.2334 74.6561 24.7452C74.694 23.2729 75.2086 21.8526 76.1226 20.6978C76.5024 20.2134 76.9817 19.8162 77.5281 19.5328C78.0746 19.2495 78.6754 19.0867 79.2901 19.0553C80.0493 19.0173 80.8058 19.1711 81.4898 19.5026C81.7872 19.6412 82.1035 19.7351 82.4283 19.7812H82.4943C82.6488 19.0587 82.7129 18.3198 82.685 17.5815C82.7363 16.2177 82.7436 14.8906 82.685 13.6148C82.5883 12.8844 82.7108 12.1417 83.0369 11.4811V11.4811ZM80.4999 21.9296C80.1633 21.7098 79.7647 21.6044 79.3634 21.629C79.0767 21.6516 78.7989 21.7393 78.5511 21.8854C78.3034 22.0315 78.0922 22.2322 77.9336 22.4722C77.5043 23.1139 77.2514 23.8574 77.2004 24.6279C77.1626 25.0229 77.1626 25.4207 77.2004 25.8157C77.2448 26.742 77.4277 27.6565 77.743 28.5286C78.051 29.3719 78.3736 29.7825 78.7035 29.7678C79.3292 29.7336 80.0136 28.9344 80.7566 27.3701C81.3616 26.3137 81.7271 25.1373 81.8271 23.924C81.7935 23.5312 81.6513 23.1555 81.4165 22.8388C81.181 22.4725 80.8681 22.1621 80.4999 21.9296V21.9296Z" fill="#F48E9F"/>
<path d="M104.095 16.7677C104.414 16.6617 104.748 16.6048 105.084 16.5991C105.969 16.5723 106.834 16.8666 107.519 17.4276C108.288 18.0376 108.856 18.8656 109.147 19.8033C109.357 20.4728 109.471 21.1692 109.484 21.871V22.2376C109.534 23.0432 109.404 23.8498 109.103 24.5986C108.535 25.7929 107.65 26.8077 106.544 27.5315C105.313 28.3517 103.916 28.8877 102.452 29.1007L101.528 29.2326L101.712 32.6935L101.858 36.1177L101.308 36.6309C101.084 36.8991 100.777 37.0849 100.436 37.1588C100.26 37.1393 100.09 37.0852 99.9351 36.9996C99.7803 36.914 99.644 36.7987 99.5339 36.6603C99.2437 36.4239 99.0548 36.0855 99.006 35.7144V34.8638C98.9327 32.6397 98.7958 29.5113 98.5954 25.4785C98.395 21.4457 98.2703 19.3218 98.2214 19.1067C98.1882 18.99 98.1733 18.8688 98.1774 18.7475C98.2127 18.433 98.3676 18.1442 98.61 17.9409C98.9987 17.5743 99.2773 17.391 99.4533 17.3836C99.7997 17.413 100.122 17.5729 100.355 17.8309C100.629 18.0263 100.816 18.321 100.876 18.6521C100.876 18.9161 100.949 19.0481 101.059 19.0481C101.169 19.0481 101.316 18.8941 101.506 18.6008C101.814 18.1889 102.194 17.8361 102.628 17.5596C103.075 17.2239 103.569 16.957 104.095 16.7677ZM105.876 19.642C105.803 19.547 105.712 19.4681 105.607 19.4101C105.502 19.352 105.387 19.3162 105.268 19.3047C105.063 19.3305 104.864 19.3925 104.681 19.488C103.863 19.9678 103.244 20.7247 102.936 21.6217C102.603 22.3705 102.34 23.1486 102.152 23.9461C101.947 24.6303 101.826 25.337 101.792 26.0504C101.792 26.2264 101.829 26.329 101.902 26.3584C102.088 26.4003 102.281 26.4003 102.467 26.3584C103.643 26.1401 104.734 25.5936 105.612 24.7819C105.989 24.4713 106.295 24.0834 106.508 23.6444C106.722 23.2055 106.839 22.7257 106.852 22.2376C106.816 21.7469 106.704 21.2646 106.522 20.8078C106.393 20.3772 106.173 19.9794 105.876 19.642V19.642Z" fill="#F48E9F"/>
<path d="M112.615 17.0023C112.874 16.7571 113.212 16.6117 113.568 16.5917C113.74 16.5874 113.912 16.6184 114.072 16.6827C114.232 16.747 114.377 16.8433 114.499 16.9656C114.611 17.0642 114.702 17.1845 114.767 17.3194C114.831 17.4543 114.867 17.6009 114.873 17.7502C114.873 17.7942 114.873 18.0582 114.829 18.5421L114.748 19.7006L115.848 18.5568C116.316 18.0329 116.857 17.5786 117.454 17.2076C117.953 16.9378 118.514 16.8014 119.082 16.8117C119.289 16.7992 119.497 16.7992 119.705 16.8117C121.23 16.9363 122.205 17.3689 122.638 18.1095C122.724 18.2547 122.77 18.4207 122.77 18.5897C122.77 18.7588 122.724 18.9248 122.638 19.07C122.526 19.3065 122.351 19.5076 122.133 19.6512C121.914 19.7947 121.66 19.8753 121.399 19.8839C121.108 19.8882 120.819 19.8487 120.541 19.7666C120.111 19.6286 119.665 19.5496 119.214 19.5319C118.48 19.5319 117.843 20.1772 117.205 21.4163C116.801 22.389 116.501 23.4016 116.31 24.4373C116.055 25.4157 115.905 26.4186 115.863 27.4288C115.86 27.4801 115.86 27.5315 115.863 27.5828C115.867 27.6193 115.867 27.6563 115.863 27.6928C115.876 27.8024 115.876 27.9132 115.863 28.0227C115.831 28.3341 115.7 28.6271 115.489 28.8586C115.367 29.0236 115.209 29.1588 115.028 29.254C114.846 29.3493 114.645 29.4021 114.44 29.4086C114.151 29.4024 113.87 29.3107 113.632 29.145C113.395 28.9793 113.211 28.747 113.106 28.4774C112.578 27.4997 112.224 25.2609 112.043 21.761C111.977 20.6245 111.94 19.9206 111.933 19.6566C111.899 19.0699 111.938 18.4812 112.05 17.9042C112.143 17.5536 112.34 17.2393 112.615 17.0023V17.0023Z" fill="#F48E9F"/>
<path d="M126.063 12.5149C126.296 12.2758 126.609 12.1299 126.943 12.1042C127.124 12.1067 127.303 12.1457 127.47 12.2187C127.636 12.2918 127.786 12.3975 127.91 12.5295C128.044 12.6491 128.151 12.7948 128.225 12.9575C128.299 13.1202 128.34 13.2965 128.343 13.4754C128.343 13.6611 128.307 13.8449 128.235 14.0162C128.163 14.1874 128.058 14.3426 127.925 14.4726C127.8 14.643 127.638 14.7831 127.452 14.8821C127.265 14.9811 127.058 15.0367 126.847 15.0445C126.602 15.0503 126.361 14.9839 126.154 14.8535C125.947 14.7231 125.782 14.5345 125.681 14.3113C125.568 14.1125 125.51 13.8873 125.513 13.6587C125.516 13.4396 125.567 13.2237 125.662 13.0262C125.757 12.8287 125.894 12.6542 126.063 12.5149V12.5149ZM126.627 16.533C126.73 16.4285 126.854 16.347 126.99 16.2939C127.127 16.2408 127.273 16.2173 127.419 16.225C127.645 16.2137 127.87 16.2549 128.078 16.3452C128.285 16.4355 128.469 16.5725 128.614 16.7456C128.826 17.1692 128.936 17.636 128.937 18.1094C129.003 18.7986 129.084 20.4924 129.179 23.1687L129.406 29.2105L128.981 29.5771C128.753 29.8051 128.446 29.9364 128.123 29.9437C127.889 29.9418 127.661 29.8713 127.467 29.741C127.273 29.6106 127.121 29.4262 127.031 29.2105C126.899 28.9905 126.737 26.8642 126.569 22.8461C126.473 20.6464 126.429 19.1139 126.415 18.322C126.336 17.7173 126.409 17.1023 126.627 16.533V16.533Z" fill="#F48E9F"/>
<path d="M134.282 16.0049C134.458 16.0049 134.788 16.0049 135.272 16.0049C136.619 16.0347 137.966 15.9464 139.297 15.741H139.415C140.021 15.7626 140.624 15.8362 141.218 15.9609C141.701 16.0139 142.174 16.14 142.619 16.3349C142.867 16.53 143.066 16.7813 143.198 17.0681C143.346 17.3362 143.428 17.6349 143.44 17.9407C143.456 18.0279 143.456 18.1174 143.44 18.2046C143.285 18.5733 143.061 18.9092 142.78 19.1945C141.8 20.3427 140.884 21.5446 140.038 22.7946C139.573 23.4545 138.87 24.4102 137.926 25.6616C137.536 26.1316 137.194 26.6401 136.907 27.1793H136.966C137.039 27.1793 137.398 27.1354 138.058 27.0474C139.378 26.9154 140.646 26.8054 141.856 26.7174C142.846 26.6294 143.579 26.5854 144.056 26.5854C144.396 26.5786 144.734 26.6462 145.046 26.7834C145.298 26.907 145.51 27.1006 145.656 27.3411C145.801 27.5816 145.875 27.8588 145.867 28.1399C145.867 28.303 145.831 28.4641 145.763 28.6122C145.695 28.7603 145.595 28.8918 145.471 28.9978C145.273 29.1517 144.005 29.313 141.644 29.489C139.23 29.6554 136.836 30.0308 134.487 30.6109C134.214 30.6738 133.938 30.7179 133.659 30.7428C133.417 30.7403 133.181 30.6747 132.972 30.5525C132.764 30.4304 132.591 30.2558 132.471 30.0463C132.347 29.8727 132.278 29.6657 132.273 29.4524C132.339 28.9201 132.544 28.4145 132.867 27.9859C133.273 27.3553 134.023 26.3044 135.118 24.833C137.977 20.986 139.461 18.9085 139.569 18.6006C139.569 18.5126 139.569 18.4686 139.407 18.4686C139.307 18.4607 139.207 18.4607 139.107 18.4686C137.315 18.7234 135.504 18.824 133.695 18.7692C133.432 18.7925 133.167 18.7925 132.904 18.7692C132.582 18.6543 132.318 18.4172 132.17 18.1093C131.976 17.8119 131.902 17.4518 131.963 17.102C132.025 16.7521 132.217 16.4386 132.5 16.2249C132.792 16.0265 133.138 15.924 133.49 15.9316C133.776 15.9683 134.033 15.9829 134.282 16.0049Z" fill="#F48E9F"/>
<path d="M151.147 16.372C151.545 15.9261 152.03 15.5662 152.573 15.314C153.115 15.0619 153.702 14.9229 154.3 14.9055C154.823 14.9101 155.338 15.0277 155.811 15.2501C156.431 15.5018 156.976 15.9082 157.394 16.4306C157.832 17.0407 158.153 17.727 158.34 18.4543C158.431 18.7559 158.471 19.0708 158.457 19.3856C158.433 19.95 158.29 20.503 158.037 21.0084C157.784 21.5138 157.428 21.9602 156.991 22.3185C155.979 23.2402 154.706 23.8244 153.347 23.9902C152.932 24.0596 152.513 24.0988 152.093 24.1075C151.96 24.1096 151.827 24.0973 151.697 24.0709L151.074 23.9242V25.3907C151.022 26.1425 151.147 26.8961 151.44 27.5904C151.517 27.8316 151.647 28.0522 151.822 28.2356C152.035 28.3481 152.27 28.4132 152.511 28.4263H152.775C153.528 28.3374 154.253 28.0874 154.901 27.693C155.548 27.2849 156.263 26.999 157.013 26.8498C157.146 26.8524 157.276 26.8839 157.395 26.9422C157.514 27.0005 157.619 27.0841 157.702 27.1871C157.813 27.2952 157.9 27.4241 157.961 27.5663C158.021 27.7085 158.053 27.8612 158.054 28.0157C158.054 28.7489 157.174 29.4821 155.444 30.2887C154.971 30.5228 154.48 30.7214 153.977 30.8826C153.509 30.9689 153.031 31.0009 152.555 30.9779C152.118 30.987 151.68 30.9527 151.25 30.8753C150.948 30.7763 150.667 30.6222 150.421 30.4207C149.864 29.9876 149.419 29.4268 149.123 28.7856C148.883 28.3803 148.7 27.9435 148.581 27.4877C148.495 26.7972 148.46 26.1011 148.478 25.4054V24.6135C148.53 20.7714 149.409 18.0437 151.147 16.372ZM155.085 17.7798C154.858 17.6083 154.584 17.5109 154.3 17.5012C153.9 17.5267 153.516 17.6723 153.2 17.9191C152.788 18.3385 152.442 18.8181 152.174 19.3416C151.865 19.8246 151.661 20.3664 151.572 20.9327L151.536 21.4899L152.614 21.5046C153.215 21.481 153.808 21.3545 154.366 21.1306C154.779 20.9102 155.151 20.62 155.466 20.2728C155.728 20.0492 155.909 19.7449 155.979 19.4075C155.962 19.1011 155.869 18.8037 155.708 18.5423C155.558 18.2418 155.339 17.9806 155.07 17.7798H155.085Z" fill="#F48E9F"/>
<path d="M166.288 15.8361C166.905 15.6059 167.558 15.4891 168.217 15.4915C168.586 15.4841 168.952 15.551 169.295 15.6883C169.638 15.8256 169.949 16.0305 170.211 16.2908C170.463 16.5646 170.655 16.8879 170.775 17.2402C170.895 17.5924 170.94 17.9658 170.908 18.3365C170.908 19.5463 170.526 20.2502 169.866 20.4555C169.714 20.4989 169.555 20.5162 169.397 20.5068C169.219 20.5051 169.045 20.4618 168.887 20.3803C168.729 20.2988 168.592 20.1814 168.488 20.0376C168.244 19.7082 168.127 19.3022 168.158 18.8937C168.179 18.7088 168.161 18.5216 168.107 18.3438C168.063 18.2631 167.953 18.2265 167.777 18.2191C166.976 18.388 166.233 18.762 165.621 19.3043C164.602 20.0376 164.03 20.5581 163.912 20.9248V20.9908V21.0567C163.912 21.1667 164.052 21.262 164.33 21.35C164.609 21.438 165.467 21.636 166.889 21.9586C167.836 22.142 168.758 22.4322 169.639 22.8238C170.211 23.1291 170.735 23.517 171.193 23.975C171.643 24.3992 172.02 24.8947 172.308 25.4415C172.539 26.0105 172.634 26.6256 172.587 27.2379C172.6 27.6992 172.51 28.1578 172.323 28.5797C171.604 29.8653 170.02 30.6816 167.571 31.0287C167.11 31.0976 166.645 31.1392 166.178 31.1533C165.724 31.1242 165.274 31.0455 164.836 30.9187C163.128 30.5227 162.109 29.6722 161.764 28.3597C161.736 28.2072 161.718 28.0528 161.713 27.8978C161.711 27.7248 161.748 27.5536 161.82 27.3964C161.892 27.2392 161.998 27.0999 162.131 26.9886C162.387 26.757 162.724 26.6358 163.069 26.6513C163.331 26.6594 163.585 26.7407 163.803 26.8858C164.02 27.031 164.193 27.2342 164.301 27.4725C164.562 27.8712 164.966 28.1547 165.43 28.2644C165.733 28.3406 166.042 28.3824 166.354 28.389C167.154 28.4133 167.951 28.271 168.693 27.9711C169.426 27.6705 169.815 27.3112 169.83 26.8933C169.83 26.2993 169.404 25.7641 168.517 25.2801C166.979 24.6367 165.357 24.2146 163.7 24.0263C163.258 23.9614 162.834 23.8054 162.455 23.5681C162.077 23.3308 161.751 23.0174 161.5 22.6479C161.248 22.2025 161.136 21.6915 161.178 21.1814C161.177 20.5535 161.328 19.9347 161.617 19.3776C162.096 18.6121 162.721 17.9492 163.458 17.4273C164.317 16.7592 165.271 16.2229 166.288 15.8361V15.8361Z" fill="#F48E9F"/>
<path d="M188.695 18.3808C189.041 18.3067 189.397 18.2795 189.751 18.3001C190.301 18.3313 190.836 18.4921 191.312 18.7694C191.737 19.0366 192.215 19.2068 192.713 19.268C192.899 19.2714 193.083 19.3159 193.25 19.3983C193.417 19.4807 193.564 19.5989 193.681 19.7446C193.835 19.9036 193.944 20.1011 193.996 20.3165C194.044 20.7135 194.044 21.1147 193.996 21.5117C193.909 23.2068 193.909 24.9052 193.996 26.6003C194.02 27.8501 194.163 29.0947 194.421 30.3178C194.47 30.4564 194.488 30.6042 194.473 30.7504C194.464 30.9224 194.417 31.0904 194.335 31.2415C194.252 31.3927 194.136 31.5231 193.996 31.6229C193.732 31.8388 193.398 31.9509 193.057 31.9382C192.92 31.931 192.787 31.8908 192.669 31.8209C192.326 31.5895 192.068 31.2521 191.936 30.8604C191.714 30.3278 191.578 29.7636 191.532 29.1886C191.496 28.6167 191.422 28.3234 191.312 28.3234C191.202 28.3234 190.909 28.646 190.44 29.3059C189.923 30.0217 189.277 30.6337 188.533 31.1097C187.895 31.4735 187.162 31.6394 186.429 31.5863H186.004C185.544 31.4332 185.136 31.1567 184.823 30.787C184.408 30.4128 184.081 29.9523 183.863 29.4379C183.482 28.3488 183.322 27.1946 183.393 26.043C183.417 25.602 183.473 25.1633 183.562 24.7306C183.899 23.2066 184.584 21.7812 185.564 20.5658C186.3 19.4744 187.416 18.6956 188.695 18.3808V18.3808ZM190.242 21.1304C190.077 21.0097 189.89 20.9225 189.692 20.8738C189.495 20.8969 189.304 20.9539 189.127 21.0424C188.247 21.4555 187.525 22.1457 187.074 23.0075C186.479 23.9518 186.134 25.0315 186.07 26.1457C186.053 26.6513 186.088 27.1574 186.172 27.6561C186.207 28.0366 186.319 28.406 186.502 28.7413C186.536 28.8059 186.587 28.8604 186.648 28.8991C186.71 28.9377 186.781 28.9592 186.854 28.9613C187.404 28.9613 188.13 28.36 189.054 27.0842C189.752 26.0058 190.278 24.8261 190.616 23.5867C190.77 23.0961 190.883 22.5933 190.953 22.0836C190.943 21.8719 190.87 21.6681 190.743 21.4982C190.616 21.3284 190.442 21.2003 190.242 21.1304V21.1304Z" fill="#F48E9F"/>
<path d="M215.78 18.5274C215.863 18.5072 215.944 18.4802 216.022 18.4467H216.154C216.363 18.4901 216.557 18.586 216.719 18.7253C216.918 18.8654 217.092 19.0391 217.232 19.2386C217.349 19.3831 217.406 19.5665 217.393 19.7519C217.279 20.2417 217.114 20.7185 216.902 21.1743C216.374 22.5455 215.861 24.0266 215.355 25.5737C214.38 28.7339 213.558 30.6477 212.898 31.3369C212.709 31.5321 212.48 31.6857 212.228 31.788C211.975 31.8902 211.704 31.9388 211.432 31.9308C211.09 31.8997 210.759 31.7935 210.462 31.6199C210.166 31.4463 209.911 31.2095 209.716 30.9263C208.844 29.7678 208.125 27.898 207.568 25.3317C207.429 24.7012 207.304 24.4079 207.194 24.4445C206.732 25.0978 206.332 25.7924 205.999 26.5196C204.723 28.861 203.726 30.3055 203.007 30.853C202.754 31.0753 202.427 31.1955 202.091 31.1902H201.929L201.695 31.1536C201.336 31.1278 200.991 31.0035 200.698 30.7943C200.214 30.391 199.803 29.4598 199.458 28.0007C199.319 27.4654 199.18 26.8789 199.04 26.2556C198.848 25.3948 198.709 24.5231 198.623 23.6453C198.403 22.2448 198.227 21.233 198.087 20.6024C197.974 20.1223 197.93 19.6286 197.955 19.1359C198.021 18.1021 198.498 17.6108 199.37 17.6695C199.555 17.6693 199.736 17.7093 199.904 17.7865C200.071 17.8637 200.219 17.9764 200.338 18.1168C200.598 18.5637 200.747 19.0667 200.771 19.5832C201.02 21.8269 201.384 24.1659 201.863 26.6002C202.025 27.2308 202.157 27.5241 202.274 27.4874C202.391 27.4508 203.066 26.2923 204.254 24.0119C205.442 21.7316 206.131 20.5291 206.453 20.0891C206.693 19.693 207.049 19.3805 207.473 19.1946C207.733 19.0693 208.02 19.0089 208.308 19.0186C208.516 19.0433 208.713 19.1249 208.877 19.2542C209.042 19.3836 209.167 19.5558 209.24 19.7519C209.53 20.5537 209.72 21.3887 209.804 22.2375C209.992 23.5768 210.259 24.9038 210.603 26.2116C210.97 27.6781 211.263 28.4113 211.483 28.4113C211.623 28.3746 211.997 27.3701 212.613 25.4051C213.47 22.7068 214.079 20.9397 214.475 20.0891C214.687 19.417 215.156 18.8558 215.78 18.5274V18.5274Z" fill="#F48E9F"/>
<path d="M224.931 20.7199C225.282 20.6615 225.639 20.6467 225.994 20.6759C226.544 20.7277 227.074 20.9086 227.541 21.2038C227.955 21.4846 228.426 21.6699 228.92 21.7464C229.216 21.7807 229.494 21.9042 229.718 22.1007C229.942 22.2972 230.101 22.5573 230.174 22.8463C230.217 23.241 230.217 23.6393 230.174 24.0341C230.049 25.5959 229.998 27.2896 230.034 29.1227C230.016 30.3738 230.119 31.6236 230.342 32.8548C230.372 32.9975 230.372 33.1448 230.342 33.2874C230.329 33.4595 230.276 33.6261 230.188 33.7748C230.101 33.9234 229.98 34.0501 229.836 34.1453C229.566 34.3504 229.229 34.4495 228.891 34.4239C228.753 34.414 228.62 34.3712 228.502 34.2993C228.185 34.0487 227.954 33.7051 227.842 33.3168C227.642 32.7754 227.526 32.2067 227.497 31.6303C227.497 31.0584 227.417 30.7651 227.307 30.7505C227.197 30.7358 226.896 31.0584 226.398 31.7037C225.87 32.4008 225.215 32.9927 224.469 33.4488C223.817 33.7872 223.081 33.9274 222.35 33.852L221.925 33.8154C221.472 33.6395 221.073 33.3489 220.766 32.9722C220.366 32.5816 220.056 32.1087 219.857 31.5863C219.406 30.0554 219.358 28.4339 219.718 26.879C220.105 25.3679 220.838 23.9674 221.859 22.7876C222.608 21.7585 223.696 21.0263 224.931 20.7199V20.7199ZM226.398 23.5282C226.235 23.4038 226.051 23.3094 225.855 23.2495C225.658 23.2688 225.465 23.3182 225.283 23.3962C224.378 23.7767 223.623 24.444 223.135 25.2952C222.505 26.2173 222.122 27.2849 222.02 28.3968C221.987 28.901 222.007 29.4072 222.079 29.9073C222.1 30.2892 222.197 30.6632 222.365 31.0071C222.398 31.0716 222.447 31.1264 222.507 31.1663C222.568 31.2061 222.637 31.2296 222.709 31.2344C223.259 31.2784 224.007 30.6771 224.946 29.4307C225.683 28.3797 226.249 27.2192 226.625 25.9918C226.799 25.5158 226.929 25.0249 227.014 24.5253C227.019 24.3163 226.963 24.1101 226.852 23.9327C226.741 23.7554 226.581 23.6146 226.39 23.5282H226.398Z" fill="#F48E9F"/>
<path d="M235.336 20.8958C235.448 20.8036 235.579 20.7363 235.719 20.6984C235.859 20.6604 236.006 20.6528 236.15 20.6758C236.375 20.685 236.595 20.7477 236.791 20.8586C236.988 20.9695 237.155 21.1255 237.279 21.3137C237.451 21.7542 237.516 22.229 237.47 22.6995C237.47 23.3985 237.374 25.0874 237.184 27.7661L236.788 33.7933L236.326 34.1159C236.077 34.3197 235.759 34.4196 235.439 34.3945C235.205 34.3647 234.985 34.2678 234.805 34.1155C234.626 33.9633 234.494 33.7622 234.427 33.5366C234.319 33.3118 234.383 31.1854 234.617 27.1575C234.759 24.9432 234.867 23.4401 234.94 22.6482C234.921 22.0399 235.057 21.4368 235.336 20.8958V20.8958ZM235.175 16.841C235.437 16.6335 235.763 16.5222 236.098 16.5257C236.279 16.5457 236.453 16.6022 236.61 16.6917C236.768 16.7812 236.906 16.9018 237.015 17.0463C237.136 17.1791 237.229 17.3356 237.287 17.506C237.345 17.6763 237.367 17.8568 237.352 18.0362C237.332 18.2203 237.276 18.3987 237.186 18.561C237.097 18.7233 236.976 18.8664 236.832 18.982C236.689 19.138 236.514 19.2603 236.319 19.3402C236.124 19.4201 235.913 19.4555 235.702 19.444C235.456 19.4202 235.222 19.3249 235.029 19.1699C234.837 19.0149 234.693 18.8068 234.617 18.5714C234.527 18.3587 234.492 18.1268 234.515 17.8969C234.546 17.6847 234.62 17.4814 234.734 17.2996C234.847 17.1179 234.997 16.9617 235.175 16.841V16.841Z" fill="#F48E9F"/>
<path d="M245.601 17.435C245.652 17.305 245.731 17.1878 245.832 17.0916C245.934 16.9954 246.055 16.9224 246.187 16.8777C246.474 16.7563 246.786 16.7084 247.096 16.7384C247.355 16.7603 247.604 16.8506 247.816 17C248.029 17.1495 248.198 17.3527 248.306 17.589C248.404 17.7553 248.452 17.9461 248.445 18.1389C248.419 18.3155 248.369 18.488 248.299 18.6522C248.109 19.1639 247.976 19.6951 247.903 20.2359L247.734 21.2185H248.665C248.853 21.2053 249.042 21.2053 249.23 21.2185C249.543 21.2551 249.834 21.4004 250.051 21.6291C250.191 21.7655 250.296 21.9329 250.358 22.1177C250.421 22.3024 250.439 22.4993 250.411 22.6923C250.389 22.8952 250.334 23.0933 250.249 23.2788C250.029 23.6748 249.347 23.8801 248.196 23.8948L247.228 23.9314L247.03 24.9066C246.44 27.6834 246.007 30.4912 245.733 33.3168C245.675 34.0548 245.577 34.7891 245.439 35.5164C245.362 35.7734 245.209 36.001 244.999 36.169C244.881 36.2855 244.74 36.3757 244.584 36.4338C244.429 36.4919 244.263 36.5166 244.097 36.5063C243.768 36.4502 243.469 36.2787 243.254 36.0224C243.075 35.8417 242.959 35.6075 242.924 35.3551C242.913 34.7386 242.932 34.1219 242.983 33.5074L243.049 32.8182C243.174 31.6377 243.379 30.0832 243.672 28.1695C243.965 26.2558 244.185 25.0313 244.325 24.5033L244.486 23.9241L243.555 23.9607C242.822 23.9607 242.286 23.9974 241.89 24.0267C241.768 24.0373 241.646 24.0373 241.524 24.0267C241.376 24.0021 241.235 23.9478 241.109 23.8672C240.983 23.7865 240.875 23.6812 240.791 23.5575C240.653 23.3863 240.551 23.1888 240.492 22.977C240.432 22.7652 240.417 22.5436 240.446 22.3256C240.44 22.1281 240.486 21.9326 240.58 21.7587C240.674 21.5849 240.813 21.439 240.981 21.3358C241.657 21.1706 242.357 21.1235 243.049 21.1965C243.647 21.2437 244.247 21.2437 244.845 21.1965C245.032 20.6392 245.146 20.06 245.183 19.4734C245.275 18.7852 245.415 18.1041 245.601 17.435V17.435Z" fill="#F48E9F"/>
<path d="M254.371 22.8242C254.484 22.7305 254.616 22.6629 254.758 22.6262C254.9 22.5894 255.048 22.5844 255.192 22.6115C255.417 22.6278 255.636 22.6957 255.83 22.8102C256.025 22.9247 256.19 23.0825 256.314 23.2714C256.475 23.717 256.531 24.194 256.475 24.6646C256.475 25.3978 256.329 27.0402 256.094 29.7165L255.595 35.7363L255.126 36.0516C254.877 36.253 254.558 36.3479 254.239 36.3156C254.004 36.2842 253.784 36.1838 253.607 36.0272C253.429 35.8705 253.302 35.6647 253.242 35.4357C253.132 35.2011 253.242 33.0821 253.55 29.064C253.726 26.8496 253.858 25.3489 253.946 24.5619C253.942 23.9564 254.088 23.3594 254.371 22.8242V22.8242ZM254.29 18.7621C254.555 18.554 254.886 18.4497 255.222 18.4688C255.4 18.4903 255.572 18.5483 255.727 18.6391C255.882 18.7299 256.017 18.8516 256.123 18.9967C256.241 19.1332 256.33 19.2917 256.385 19.4629C256.44 19.6341 256.461 19.8146 256.446 19.9939C256.394 20.3635 256.202 20.6991 255.911 20.9324C255.763 21.0839 255.584 21.2017 255.387 21.2776C255.19 21.3536 254.978 21.3859 254.767 21.3724C254.523 21.3467 254.292 21.2495 254.102 21.093C253.913 20.9365 253.775 20.7276 253.704 20.4925C253.617 20.279 253.584 20.0472 253.608 19.8179C253.641 19.6039 253.719 19.3992 253.837 19.2173C253.954 19.0353 254.109 18.8802 254.29 18.7621V18.7621Z" fill="#F48E9F"/>
<path d="M267.466 23.8141C267.928 23.491 268.487 23.3358 269.049 23.3742C269.467 23.3968 269.867 23.5507 270.192 23.814C270.518 24.0773 270.751 24.4366 270.86 24.8406C271.14 26.3357 271.14 27.8696 270.86 29.3646C270.626 31.2857 270.049 34.2186 269.13 38.1634C268.859 39.3439 268.338 39.8938 267.568 39.7985C267.379 39.7957 267.194 39.7492 267.026 39.6627C266.858 39.5762 266.712 39.452 266.6 39.2999C266.412 38.8475 266.369 38.3482 266.476 37.8701C266.565 37.1943 266.69 36.5237 266.85 35.8611C267.427 33.4421 267.877 30.9946 268.199 28.5288C268.346 27.3263 268.346 26.7177 268.199 26.703C267.979 26.703 267.136 27.6855 265.662 29.7166C264.188 31.7476 262.876 33.7274 261.739 35.6264C261.367 36.2924 260.935 36.9231 260.449 37.5108C260.343 37.6525 260.204 37.7665 260.044 37.843C259.885 37.9196 259.709 37.9566 259.532 37.9508C259.373 37.9352 259.22 37.8825 259.085 37.7968C258.812 37.6417 258.583 37.4181 258.423 37.1482C258.262 36.8782 258.174 36.5711 258.168 36.257C258.091 34.8234 258.165 33.3857 258.388 31.9676C258.55 30.6331 258.696 29.5553 258.814 28.7267C259.18 26.2851 259.437 24.7526 259.605 24.122C259.694 23.6081 259.975 23.1469 260.39 22.8316C260.609 22.6968 260.87 22.6472 261.123 22.6922C261.45 22.7304 261.755 22.8777 261.988 23.1102C262.102 23.2137 262.192 23.3408 262.252 23.4827C262.311 23.6245 262.339 23.7777 262.333 23.9314C262.252 24.628 262.062 25.9038 261.776 27.7515C261.578 29.0127 261.468 29.7459 261.439 29.9512C261.365 30.5671 261.387 30.8751 261.497 30.8898C261.607 30.9044 262.12 30.2005 263.044 28.7854C264.78 26.1702 266.253 24.5131 267.466 23.8141Z" fill="#F48E9F"/>
<path d="M278.779 26.0652C279.265 26.0016 279.757 25.9868 280.246 26.0212C281.058 26.1786 281.796 26.5954 282.35 27.2091C282.724 27.5904 282.959 27.7883 283.083 27.803C283.208 27.8177 283.435 28.0083 283.743 28.3529C283.873 28.4631 283.977 28.6002 284.048 28.7547C284.119 28.9093 284.155 29.0774 284.154 29.2475C284.114 29.4651 284.063 29.6805 284 29.8927C283.844 30.5565 283.597 31.1955 283.267 31.7918C283.027 32.2855 282.862 32.8117 282.775 33.3535C282.658 34.0086 282.397 35.827 281.991 38.8088C281.571 41.947 281.255 43.9634 281.045 44.8579C280.866 45.6803 280.538 46.4631 280.077 47.1676C279.634 47.7818 279.034 48.2655 278.339 48.5681C277.659 48.9076 276.894 49.0377 276.14 48.942C275.626 48.8731 275.133 48.6948 274.694 48.4191C274.255 48.1433 273.88 47.7765 273.595 47.3436C273.332 47.0539 273.181 46.6792 273.17 46.2877C273.187 46.1556 273.216 46.0255 273.258 45.8991C273.427 45.2539 273.771 44.9679 274.27 45.0339C274.706 45.1279 275.097 45.3685 275.377 45.7158C275.659 46.0576 276.055 46.2866 276.492 46.361C277.191 46.4588 277.77 46.0262 278.229 45.0632C278.617 43.9219 278.863 42.7375 278.963 41.5364L279.161 40.0699L279.659 35.8465L278.765 36.3231C278.221 36.6384 277.639 36.8847 277.034 37.0564C276.506 37.181 276.242 37.291 276.228 37.379C276.213 37.467 275.956 37.4743 275.458 37.379C275 37.3072 274.568 37.1182 274.204 36.8305C273.841 36.5427 273.558 36.1659 273.383 35.7365C272.994 34.8653 272.869 33.8991 273.024 32.9576C273.273 31.2927 273.978 29.7293 275.062 28.4409C275.941 27.192 277.277 26.3388 278.779 26.0652V26.0652ZM280.092 31.9311C280.418 31.4872 280.625 30.9672 280.693 30.4206C280.765 29.9935 280.709 29.5548 280.532 29.1595C280.455 28.9929 280.336 28.8492 280.187 28.7425C280.038 28.6358 279.864 28.5697 279.681 28.5509C279.224 28.5517 278.778 28.6952 278.405 28.9615C277.882 29.2646 277.418 29.6596 277.034 30.1273C276.239 31.0379 275.729 32.1624 275.568 33.3609C275.458 34.1894 275.612 34.6294 276.022 34.6807C276.433 34.732 277.115 34.4461 278.061 33.8081C278.848 33.3131 279.536 32.6767 280.092 31.9311V31.9311Z" fill="#F48E9F"/>
<path d="M303.292 30.1342C303.471 29.7094 303.766 29.3435 304.143 29.0783C304.304 28.947 304.491 28.85 304.692 28.7932C304.892 28.7365 305.102 28.7212 305.308 28.7484C305.502 28.7815 305.687 28.8563 305.849 28.9677C306.011 29.0791 306.147 29.2245 306.247 29.3936C306.356 29.5183 306.427 29.6707 306.455 29.8338C306.482 29.9969 306.463 30.1643 306.401 30.3175C305.828 32.1282 305.428 33.9891 305.206 35.8754C304.986 37.2905 304.817 38.4197 304.707 39.2702C304.597 40.1208 304.443 41.2133 304.238 42.5404C303.783 45.4733 303.233 47.4751 302.588 48.6262C302.271 49.1676 301.865 49.6511 301.386 50.056C300.951 50.4444 300.431 50.7256 299.868 50.8772C299.265 51.0242 298.637 51.0392 298.028 50.9212C296.504 50.7034 295.082 50.0285 293.951 48.9855C293.13 48.2523 292.77 47.5777 292.866 46.9471C292.9 46.7622 292.972 46.5862 293.076 46.4299C293.181 46.2736 293.316 46.1402 293.474 46.0379C293.586 45.951 293.715 45.888 293.853 45.8527C293.99 45.8174 294.133 45.8106 294.273 45.8326C294.746 45.9444 295.171 46.2008 295.491 46.5658C296.243 47.3929 297.249 47.9473 298.35 48.1423C298.644 48.2048 298.945 48.2295 299.245 48.2156C299.441 48.1744 299.62 48.0747 299.758 47.9297C300.038 47.6349 300.27 47.2985 300.447 46.9325C300.74 46.3312 301.229 43.8578 301.914 39.5122C302.089 38.7273 302.18 37.926 302.185 37.1218C302.075 37.1218 301.804 37.2905 301.364 37.6938C300.831 38.17 300.227 38.5608 299.575 38.8523C299.213 39.0403 298.832 39.1878 298.438 39.2922C298.086 39.3333 297.729 39.3159 297.382 39.2409C297.046 39.2069 296.715 39.1279 296.4 39.0062C296.159 38.8728 295.944 38.6992 295.762 38.493C294.912 37.4189 294.486 36.0697 294.567 34.7022C294.606 33.4011 294.741 32.1047 294.97 30.8234C295.168 29.5183 295.307 28.7264 295.388 28.4331C295.441 28.1809 295.591 27.9597 295.806 27.8172C296.09 27.6262 296.435 27.5478 296.774 27.5972C296.966 27.6225 297.151 27.6911 297.313 27.7978C297.476 27.9044 297.612 28.0464 297.712 28.2131C297.865 28.4705 297.946 28.7642 297.947 29.0637C297.947 29.3643 297.837 30.1708 297.639 31.4686C297.228 34.1009 297.214 35.7214 297.58 36.3373C297.607 36.3812 297.642 36.4193 297.684 36.4495C297.725 36.4797 297.772 36.5014 297.822 36.5133C298.152 36.5573 298.717 36.2713 299.531 35.6407C300.31 34.9291 300.995 34.1209 301.569 33.2357C302.264 32.2736 302.842 31.2325 303.292 30.1342V30.1342Z" fill="#F48E9F"/>
<path d="M313.652 30.3835C313.897 30.3862 314.142 30.4058 314.385 30.4422C315.225 30.6052 316.028 30.9208 316.754 31.3734C317.468 31.7733 318.079 32.336 318.535 33.0158C318.956 33.6472 319.225 34.3675 319.32 35.1202C319.352 36.2094 319.264 37.2988 319.056 38.3684C318.829 39.5562 318.667 40.3261 318.565 40.6781C318.413 41.1295 318.206 41.5605 317.949 41.9612C317.59 42.5437 317.193 43.1022 316.761 43.633C316.556 43.8259 316.4 44.0646 316.306 44.3296C316.306 44.4542 315.962 44.6889 315.338 45.0188C314.828 45.3014 314.29 45.5299 313.733 45.7007C313.097 45.8856 312.427 45.9207 311.775 45.8034C310.913 45.6607 310.11 45.2768 309.458 44.6962C308.774 44.1138 308.266 43.352 307.991 42.4965C307.582 41.1062 307.509 39.6385 307.779 38.2144C307.915 37.486 308.094 36.7662 308.314 36.0587C308.724 34.8241 309.326 33.6613 310.096 32.6126C310.517 31.9425 311.071 31.366 311.724 30.9188C312.311 30.5812 312.974 30.3971 313.652 30.3835V30.3835ZM315.456 33.7711C315.077 33.4604 314.633 33.2376 314.158 33.1185C313.898 33.0652 313.628 33.0881 313.381 33.1845C313.084 33.2961 312.815 33.4684 312.589 33.6904C312.303 33.9544 312.149 34.145 312.127 34.277C311.966 34.6817 311.775 35.0739 311.555 35.4502C311.149 36.2997 310.842 37.1926 310.638 38.1118C310.572 38.3527 310.52 38.5976 310.484 38.845C310.188 40.0288 310.359 41.2811 310.961 42.3425C311.109 42.544 311.296 42.7131 311.512 42.8392C311.728 42.9653 311.967 43.0458 312.215 43.0757C312.5 43.1344 312.795 43.1344 313.08 43.0757C313.414 42.9349 313.727 42.75 314.011 42.5258C314.256 42.3567 314.484 42.1652 314.693 41.9539C314.828 41.8203 314.949 41.6728 315.052 41.514L315.353 40.9274C315.485 40.6488 315.617 40.4044 315.749 40.1942C316.025 39.6665 316.211 39.0965 316.299 38.5077C316.299 38.4271 316.299 38.2804 316.35 38.0825C316.402 37.8845 316.394 37.7232 316.416 37.5912C316.576 36.7647 316.601 35.9179 316.49 35.0835C316.316 34.535 315.948 34.0684 315.456 33.7711V33.7711Z" fill="#F48E9F"/>
<path d="M333.119 32.9279C333.251 32.8949 333.39 32.8949 333.522 32.9279C333.863 32.9944 334.182 33.1486 334.446 33.3751C334.703 33.5649 334.879 33.8453 334.937 34.1597C334.951 34.3911 334.931 34.6232 334.878 34.8489C334.763 35.4768 334.617 36.0984 334.438 36.7113C334.241 37.4446 333.925 38.955 333.507 41.272C333.326 42.2496 333.111 43.5475 332.862 45.1655C332.605 46.7859 332.451 47.7758 332.385 48.1424C332.284 48.4232 332.096 48.6643 331.848 48.8305C331.6 48.9967 331.305 49.0793 331.007 49.0662C330.705 48.9682 330.446 48.7687 330.274 48.5017C329.782 47.8931 329.724 46.5439 330.105 44.4396C330.303 43.3837 330.354 42.8411 330.266 42.8265C330.178 42.8118 329.951 43.0244 329.577 43.4717C328.957 44.1943 328.275 44.8616 327.539 45.4661C327.027 45.9475 326.423 46.3214 325.764 46.5659C325.344 46.681 324.904 46.7035 324.474 46.6319C323.418 46.4413 322.651 45.6861 322.172 44.3662C321.801 43.0359 321.652 41.6535 321.732 40.2748C321.771 38.3255 321.975 36.3829 322.34 34.4676C322.419 33.9718 322.532 33.4818 322.678 33.0012C322.777 32.7662 322.93 32.5578 323.125 32.3926C323.282 32.2573 323.469 32.1609 323.67 32.1112C323.871 32.0615 324.081 32.06 324.283 32.1066C324.46 32.1289 324.628 32.194 324.774 32.2963C324.92 32.3985 325.038 32.5348 325.119 32.6932C325.283 33.433 325.258 34.2022 325.046 34.9296C324.661 36.9179 324.469 38.9388 324.474 40.9641C324.474 42.7971 324.723 43.7577 325.163 43.8383C325.266 43.8383 325.698 43.523 326.446 42.8265C328.353 41.1205 330.064 38.4613 331.579 34.8489C332.077 33.6611 332.583 33.0305 333.119 32.9279Z" fill="#F48E9F"/>
<path d="M1.54915 61.7006C2.17344 61.3575 2.78648 60.9976 3.4164 60.6601L5.32302 59.6871C5.96418 59.3778 6.59972 59.0572 7.24651 58.7591L9.20374 57.8986C10.5142 57.3362 11.8303 56.7738 13.1407 56.2788C13.7987 56.0089 14.4736 55.7839 15.1429 55.5477C15.8122 55.3115 16.4871 55.0753 17.162 54.8503C19.8617 53.9504 22.5782 53.0955 25.3228 52.3531C28.0674 51.6107 30.8289 50.9246 33.6129 50.3115C36.3969 49.6985 39.1978 49.1417 42.0493 48.7086L44.1696 48.3993C44.8783 48.3037 45.5926 48.2306 46.3012 48.1462L48.4215 47.9268C49.1358 47.865 49.8557 47.8256 50.57 47.7694C53.4606 47.5724 56.3605 47.5498 59.2538 47.7019C59.9893 47.7549 60.7215 47.8469 61.4473 47.9775C62.1843 48.1039 62.9131 48.2749 63.6295 48.4893C65.1292 48.9135 66.5407 49.603 67.797 50.5252L67.842 50.559C68.0011 50.7 68.117 50.8831 68.1762 51.0872C68.2355 51.2914 68.2357 51.5081 68.1769 51.7123C68.118 51.9166 68.0025 52.0999 67.8437 52.2412C67.6849 52.3825 67.4893 52.4759 67.2796 52.5106C65.8792 52.6512 64.5406 52.7356 63.1964 52.8031L62.1841 52.8649C61.8522 52.8649 61.5091 52.8649 61.1717 52.8987C60.5024 52.938 59.8275 52.9437 59.1526 52.9605H58.1346H57.1166C56.4417 52.9605 55.7556 53.0055 55.075 53.028L53.0278 53.1405L50.9806 53.2924L46.8749 53.6523L44.8164 53.8604L42.7973 54.1585C40.0527 54.496 37.3081 54.8334 34.5747 55.2833C29.1023 56.1439 23.6637 57.2631 18.2925 58.6579C12.9137 60.0101 7.6149 61.6625 2.42091 63.6072C2.17752 63.7097 1.90393 63.7142 1.65732 63.6197C1.41071 63.5252 1.21018 63.339 1.09762 63.1001C0.985065 62.8612 0.969203 62.588 1.05335 62.3377C1.1375 62.0874 1.31514 61.8793 1.54915 61.7568V61.7006Z" fill="#FFD7C5" stroke="#043866" stroke-width="1.37" stroke-miterlimit="10"/>
<path d="M74.8553 47.4093C75.441 47.078 76.0666 46.8229 76.7169 46.65C77.3544 46.4887 78.0003 46.3629 78.6516 46.2732C79.9426 46.0716 81.2485 45.9813 82.5549 46.0032C83.8407 46.0486 85.1184 46.2258 86.3681 46.5319C87.6181 46.8262 88.8152 47.3119 89.917 47.9717L89.9676 48.0054C90.2835 48.1997 90.5094 48.5113 90.5958 48.8718C90.6823 49.2324 90.6222 49.6126 90.4288 49.9289C90.3056 50.1254 90.136 50.2887 89.935 50.4044C89.734 50.5201 89.5076 50.5848 89.2758 50.5926C86.897 50.5751 84.522 50.3985 82.1668 50.0639C81.0082 49.9402 79.8552 49.7658 78.7023 49.6983C77.5341 49.6731 76.3682 49.5849 75.2096 49.434C74.989 49.3992 74.7846 49.2969 74.6245 49.1411C74.4645 48.9853 74.3567 48.7838 74.3159 48.5642C74.2752 48.3445 74.3036 48.1177 74.3972 47.9149C74.4908 47.7121 74.6449 47.5433 74.8384 47.4318L74.8553 47.4093Z" fill="white" stroke="#043866" stroke-width="1.37" stroke-miterlimit="10"/>
<path d="M327.638 21.1172C323.253 18.4993 318.697 16.1806 314 14.1769C309.303 12.1297 304.495 10.313 299.624 8.71013C294.753 7.10722 289.815 5.70679 284.787 4.61569C279.789 3.47314 274.714 2.70053 269.602 2.30412C269.442 2.30412 269.289 2.24072 269.176 2.12786C269.063 2.015 269 1.86194 269 1.70233C269 1.54273 269.063 1.38966 269.176 1.2768C269.289 1.16394 269.442 1.10054 269.602 1.10054H269.652L271.61 1.0443C272.268 1.0443 272.926 0.982428 273.578 1.00493C274.883 1.05554 276.199 1.07242 277.515 1.14553C278.831 1.21865 280.136 1.30863 281.452 1.42674C282.768 1.54485 284.062 1.69671 285.389 1.87106L289.287 2.43348C290.58 2.65283 291.863 2.91154 293.156 3.14776L297.014 3.9689C298.297 4.25011 299.568 4.58194 300.844 4.90815C303.387 5.57743 305.906 6.29171 308.437 7.0791C309.703 7.45593 310.94 7.91149 312.194 8.33893C313.448 8.76637 314.68 9.23319 315.923 9.7C317.166 10.1668 318.392 10.6674 319.624 11.1679C320.863 11.6691 322.071 12.2457 323.24 12.8946C325.649 14.1768 327.824 15.8557 329.674 17.8608L330.04 18.2713C330.343 18.6077 330.515 19.0425 330.524 19.4956C330.532 19.9487 330.376 20.3895 330.085 20.7368C329.794 21.0841 329.387 21.3144 328.939 21.3854C328.492 21.4563 328.034 21.3631 327.65 21.1228L327.638 21.1172Z" fill="#FFD7C5" stroke="#043866" stroke-width="1.06" stroke-miterlimit="10"/>
<path d="M347.256 23.4794C346.221 22.2252 345.197 20.9654 344.078 19.7899L343.246 18.9013L342.38 18.0464C341.817 17.484 341.198 16.9216 340.602 16.3591C338.17 14.1774 335.533 12.2356 332.728 10.5605C327.039 7.223 320.882 4.75837 314.461 3.24903C314.345 3.19658 314.251 3.10659 314.193 2.99369C314.135 2.8808 314.117 2.75162 314.142 2.62717C314.166 2.50271 314.233 2.39029 314.329 2.30817C314.426 2.22604 314.548 2.17904 314.675 2.1748V2.1748C315.507 2.29854 316.362 2.41665 317.172 2.55725C317.982 2.69786 318.82 2.88908 319.652 3.05781L320.889 3.32215L322.121 3.64273C322.942 3.85083 323.763 4.05892 324.568 4.33451C327.839 5.32866 331.01 6.62795 334.039 8.21524L336.288 9.47506C337.014 9.93625 337.756 10.3806 338.476 10.8474C339.196 11.3142 339.905 11.8204 340.591 12.3378L341.62 13.1308C341.969 13.3895 342.306 13.6539 342.633 13.9407C343.296 14.5031 343.971 15.0656 344.595 15.628C345.256 16.2276 345.876 16.8701 346.451 17.5515C347.625 18.8488 348.563 20.341 349.224 21.9609L349.348 22.2702C349.454 22.5423 349.459 22.8432 349.364 23.1192C349.269 23.3951 349.078 23.6282 348.827 23.7769C348.576 23.9255 348.28 23.98 347.992 23.9307C347.704 23.8814 347.443 23.7314 347.256 23.5075V23.4794Z" fill="white" stroke="#043866" stroke-width="1.06" stroke-miterlimit="10"/>
</svg>
