<svg width="118" height="86" viewBox="0 0 118 86" fill="none" xmlns="http://www.w3.org/2000/svg">
<g id="tickets" clip-path="url(#clip0_566_7717)">
<path id="Vector" d="M103.384 7.12087C103.621 7.71705 104.085 8.19531 104.673 8.45118C105.262 8.70706 105.928 8.71973 106.526 8.48645L108.039 12.332C107.742 12.4488 107.471 12.623 107.241 12.8445C107.011 13.066 106.828 13.3305 106.7 13.623C106.573 13.9155 106.504 14.2302 106.499 14.5491C106.493 14.868 106.55 15.1849 106.667 15.4818C106.784 15.7786 106.958 16.0495 107.18 16.279C107.401 16.5086 107.666 16.6922 107.959 16.8195C108.251 16.9468 108.566 17.0152 108.885 17.0209C109.205 17.0266 109.522 16.9694 109.819 16.8526L111.337 20.6982C111.031 20.808 110.75 20.9781 110.511 21.1985C110.272 21.4189 110.079 21.685 109.945 21.9811C109.811 22.2773 109.737 22.5973 109.729 22.9223C109.721 23.2473 109.778 23.5706 109.897 23.8731C110.017 24.1755 110.195 24.451 110.423 24.6831C110.651 24.9152 110.923 25.0992 111.223 25.2242C111.524 25.3492 111.846 25.4127 112.171 25.4108C112.497 25.409 112.818 25.3419 113.117 25.2135L114.546 28.8759L11.9017 69.2468L10.4672 65.6314C11.0647 65.3957 11.5444 64.9331 11.8015 64.3448C12.0585 63.7565 12.072 63.0904 11.8388 62.4922C11.6019 61.8959 11.1388 61.4174 10.5505 61.1606C9.96224 60.9039 9.29628 60.8898 8.69761 61.1214L7.17412 57.2601C7.77162 57.0244 8.25138 56.5618 8.50844 55.9734C8.7655 55.3851 8.77893 54.719 8.54579 54.1208C8.30994 53.5237 7.84703 53.0442 7.25835 52.7873C6.66966 52.5304 6.00313 52.517 5.40457 52.75L3.88631 48.8992C4.48471 48.6646 4.96538 48.2021 5.22261 47.6134C5.47984 47.0247 5.49256 46.358 5.25798 45.7599C5.02213 45.1628 4.55922 44.6833 3.97054 44.4264C3.38185 44.1695 2.71532 44.1561 2.11676 44.3891L0.6875 40.758L103.327 0.334839L104.756 3.99731C104.162 4.2331 103.686 4.69313 103.429 5.27776C103.172 5.8624 103.156 6.52457 103.384 7.12087Z" fill="#F9B84E" stroke="#043866" stroke-miterlimit="10"/>
<path id="Vector_2" d="M92.7495 8.69912L14.0957 39.6465L22.4655 60.8921L101.119 29.9447L92.7495 8.69912Z" fill="#1471D0" stroke="#043866" stroke-miterlimit="10"/>
<path id="free ticket" d="M37.12 37.4398C37.1827 37.3807 37.2438 37.3394 37.3034 37.316C37.5118 37.234 37.7228 37.224 37.9365 37.286C38.1041 37.3404 38.3047 37.4893 38.5382 37.7326C38.7791 37.9731 38.9651 38.2266 39.0959 38.4932C39.1356 38.5721 39.1746 38.66 39.2127 38.7567C39.2596 38.8758 39.2613 38.9783 39.2178 39.0642C39.1653 39.1709 39.0869 39.2448 38.9827 39.2858C38.8561 39.3356 38.7254 39.3312 38.5905 39.2725C38.4527 39.2064 38.3492 39.0967 38.2802 38.9433C38.2111 38.7899 38.1212 38.6491 38.0104 38.5207C37.9071 38.3895 37.8294 38.3341 37.7772 38.3546C37.7103 38.381 37.7015 38.5005 37.7509 38.7132C37.7974 38.9184 37.9247 39.3068 38.1327 39.8783L38.5261 40.9744L38.9819 40.7563C39.1695 40.6652 39.2708 40.6167 39.2857 40.6109C39.3974 40.5669 39.531 40.5788 39.6867 40.6465C39.8423 40.7142 39.9348 40.7852 39.9642 40.8596C39.9877 40.9192 39.979 41.0172 39.9382 41.1536C39.908 41.2515 39.8637 41.3248 39.8056 41.3735C39.7519 41.4118 39.6312 41.4765 39.4435 41.5676L39.0324 41.7681L39.1069 42.0225C39.1258 42.0924 39.2347 42.3032 39.4335 42.6548C39.6323 43.0064 39.8392 43.3677 40.0542 43.7388C40.2663 44.1023 40.3782 44.299 40.39 44.3288C40.3929 44.3362 40.3973 44.3474 40.4032 44.3623C40.4165 44.3742 40.4246 44.3839 40.4275 44.3914C40.4716 44.503 40.4665 44.6211 40.4124 44.7456C40.3628 44.8597 40.2821 44.9387 40.1705 44.9826C39.9471 45.0706 39.744 44.9915 39.561 44.7454C39.4814 44.6306 39.2965 44.3251 39.0063 43.8289C38.7206 43.3223 38.5057 42.9298 38.3615 42.6512L38.1364 42.2111L37.7791 42.3517C37.4441 42.4836 37.1965 42.5424 37.0361 42.5282C36.8727 42.5065 36.7544 42.4026 36.6811 42.2166C36.6224 42.0677 36.6275 41.9497 36.6962 41.8624C36.765 41.7751 36.9371 41.6773 37.2126 41.5689L37.6927 41.3798L37.3671 40.5537C37.0489 39.7246 36.8695 39.0731 36.8288 38.599C36.7926 38.1146 36.8897 37.7282 37.12 37.4398ZM40.9077 39.8563C40.9767 39.7259 41.0671 39.6388 41.1787 39.5948C41.2978 39.5479 41.4197 39.5516 41.5442 39.6057C41.6583 39.6554 41.7345 39.7286 41.7726 39.8253C41.7785 39.8402 41.8062 39.9324 41.8559 40.102L41.9764 40.506L42.2064 39.9769C42.3372 39.6761 42.461 39.4555 42.5776 39.315C42.7016 39.1716 42.8716 39.0574 43.0875 38.9724C43.1768 38.9372 43.249 38.9131 43.304 38.9001C43.8382 38.75 44.2258 38.7736 44.467 38.971C44.5706 39.0592 44.6131 39.1671 44.5946 39.2947C44.5608 39.5144 44.4546 39.6594 44.2759 39.7297C44.1792 39.7678 44.0765 39.791 43.968 39.7993C43.751 39.816 43.5904 39.8448 43.4862 39.8858C43.248 39.9796 43.0994 40.2788 43.0403 40.7836C43.0153 41.0255 43.0357 41.4044 43.1014 41.9202C43.1716 42.4256 43.2478 42.7825 43.3299 42.9909C43.3358 43.0058 43.3431 43.0244 43.3519 43.0467C43.3652 43.0587 43.3734 43.0684 43.3763 43.0758C43.3955 43.1026 43.4139 43.1384 43.4315 43.1831C43.4608 43.2575 43.4528 43.3681 43.4075 43.5149C43.3576 43.6721 43.262 43.7785 43.1206 43.8342C42.9345 43.9074 42.7431 43.8581 42.5463 43.6863C42.246 43.4262 41.8426 42.708 41.336 41.5319C41.1686 41.1507 41.0672 40.9155 41.032 40.8262C40.9235 40.5508 40.8606 40.3477 40.8435 40.2169C40.8338 40.0831 40.8552 39.9629 40.9077 39.8563ZM47.537 37.6206C47.4316 37.5933 47.3306 37.5987 47.2338 37.6368C47.1221 37.6807 47.0184 37.7774 46.9225 37.9269C46.8564 38.0647 46.8056 38.2739 46.77 38.5544C46.7389 38.8246 46.746 39.0281 46.7914 39.165L46.855 39.3592L47.2079 39.2074C47.4254 39.1046 47.6051 38.9823 47.7469 38.8405C47.8516 38.7133 47.9363 38.5682 48.001 38.4051C48.0628 38.2346 48.079 38.1122 48.0497 38.0378C48.0174 37.9559 47.9458 37.8723 47.8348 37.7871C47.7312 37.6989 47.632 37.6434 47.537 37.6206ZM46.0166 37.6903C46.2196 37.2235 46.5072 36.9169 46.8794 36.7704C47.0506 36.703 47.2365 36.6728 47.437 36.6798C47.7059 36.6857 47.9359 36.7456 48.127 36.8595C48.3255 36.9705 48.5267 37.1536 48.7304 37.4087C48.7954 37.4863 48.8513 37.5846 48.8983 37.7037C49.042 38.0684 49.0103 38.4678 48.803 38.9019C48.5958 39.336 48.2649 39.6855 47.8104 39.9504C47.6434 40.0505 47.5079 40.121 47.4036 40.1621C47.3367 40.1884 47.2905 40.2023 47.2653 40.2036L47.0355 40.2425L47.2291 40.7337C47.3611 41.0686 47.5041 41.3004 47.6579 41.429C47.757 41.5275 47.831 41.5844 47.8799 41.5995C47.926 41.6072 48.0115 41.595 48.1364 41.563L48.2258 41.5278C48.3746 41.4692 48.5776 41.2862 48.8348 40.9786C49.1232 40.6415 49.327 40.4495 49.4461 40.4026C49.5355 40.3674 49.6283 40.3739 49.7246 40.4219C49.8388 40.4716 49.9164 40.5485 49.9575 40.6527C50.0513 40.8909 49.8637 41.2656 49.3945 41.777C49.2003 41.9824 49.0607 42.1191 48.9757 42.187C48.8877 42.2474 48.7321 42.3215 48.5088 42.4095C48.2929 42.4944 48.1411 42.5456 48.0533 42.563C47.9701 42.5699 47.8565 42.5545 47.7126 42.5165C47.5152 42.4739 47.2944 42.3502 47.0503 42.1453C46.8727 42.0003 46.7523 41.8801 46.6889 41.7847C46.6255 41.6893 46.5182 41.4607 46.367 41.0989L46.2614 40.831C45.7509 39.5359 45.6693 38.4891 46.0166 37.6903ZM51.7351 35.9679C51.6298 35.9406 51.5287 35.946 51.4319 35.9841C51.3203 36.0281 51.2165 36.1248 51.1207 36.2743C51.0546 36.4121 51.0037 36.6212 50.9681 36.9018C50.937 37.1719 50.9442 37.3755 50.9895 37.5124L51.0532 37.7066L51.4061 37.5547C51.6235 37.4519 51.8032 37.3296 51.9451 37.1878C52.0497 37.0606 52.1344 36.9155 52.1991 36.7525C52.2609 36.582 52.2771 36.4595 52.2478 36.3851C52.2155 36.3032 52.1439 36.2197 52.0329 36.1344C51.9294 36.0462 51.8301 35.9907 51.7351 35.9679ZM50.2148 36.0377C50.4177 35.5709 50.7053 35.2642 51.0775 35.1177C51.2487 35.0503 51.4346 35.0201 51.6352 35.0271C51.9041 35.0331 52.1341 35.093 52.3251 35.2069C52.5237 35.3179 52.7248 35.5009 52.9285 35.756C52.9935 35.8336 53.0495 35.932 53.0964 36.051C53.2402 36.4157 53.2084 36.8151 53.0012 37.2492C52.7939 37.6833 52.463 38.0328 52.0085 38.2977C51.8416 38.3978 51.706 38.4684 51.6018 38.5094C51.5348 38.5358 51.4887 38.5496 51.4634 38.551L51.2336 38.5898L51.4273 39.0811C51.5593 39.416 51.7022 39.6477 51.8561 39.7763C51.9551 39.8749 52.0291 39.9317 52.0781 39.9468C52.1241 39.9545 52.2096 39.9424 52.3346 39.9104L52.4239 39.8752C52.5728 39.8166 52.7758 39.6335 53.0329 39.3259C53.3214 38.9888 53.5252 38.7968 53.6443 38.7499C53.7336 38.7148 53.8264 38.7212 53.9228 38.7693C54.0369 38.8189 54.1145 38.8958 54.1556 39C54.2495 39.2382 54.0618 39.613 53.5927 40.1244C53.3985 40.3298 53.2589 40.4664 53.1738 40.5343C53.0858 40.5947 52.9302 40.6689 52.7069 40.7568C52.491 40.8418 52.3392 40.8929 52.2514 40.9103C52.1682 40.9173 52.0546 40.9018 51.9107 40.8639C51.7133 40.8212 51.4925 40.6975 51.2484 40.4927C51.0709 40.3476 50.9504 40.2274 50.887 40.132C50.8236 40.0366 50.7163 39.808 50.5651 39.4463L50.4595 39.1783C49.9491 37.8833 49.8675 36.8364 50.2148 36.0377ZM57.3625 31.5602C57.3497 31.4621 57.3813 31.368 57.4576 31.2778C57.5338 31.1876 57.624 31.122 57.7283 31.0809C57.9069 31.0106 58.0843 31.0353 58.2605 31.1551C58.3316 31.2045 58.3774 31.2553 58.3979 31.3074C58.4126 31.3446 58.4249 31.4085 58.4349 31.4992C58.4475 31.6404 58.4933 31.833 58.5723 32.077L58.682 32.4207L58.9926 32.2597C59.0418 32.2318 59.1036 32.2032 59.178 32.1739C59.2748 32.1358 59.3862 32.1349 59.5123 32.1712C59.6488 32.212 59.7464 32.3069 59.8051 32.4558C59.8315 32.5227 59.8467 32.5941 59.8508 32.6699C59.847 32.8347 59.6603 33.0157 59.2908 33.2127L58.9846 33.3849L59.0831 33.733C59.3486 34.7118 59.6734 35.6887 60.0577 36.6637C60.2191 37.073 60.3114 37.329 60.3346 37.4316C60.3549 37.5268 60.3448 37.6211 60.3042 37.7144C60.253 37.8463 60.1753 37.9328 60.0711 37.9738C59.9743 38.0119 59.8562 38.0068 59.7168 37.9586C59.616 37.9209 59.5434 37.8678 59.4992 37.7992C59.455 37.7306 59.358 37.5281 59.2081 37.1916L59.1157 36.9571C58.9573 36.5552 58.7639 36.0209 58.5355 35.3543C58.3146 34.6846 58.1823 34.2509 58.1388 34.0532L58.0931 33.839L57.798 34.0067C57.5715 34.1303 57.3957 34.2296 57.2705 34.3047C57.2437 34.3238 57.2042 34.3437 57.1521 34.3642C57.0702 34.3964 56.967 34.3855 56.8425 34.3313C56.6972 34.2682 56.5923 34.1547 56.5277 33.991C56.4573 33.8123 56.4602 33.6779 56.5365 33.5877C56.6098 33.4901 56.8244 33.3583 57.1804 33.1924C57.5557 33.0102 57.7479 32.9088 57.7569 32.888C57.7734 32.8644 57.7143 32.6598 57.5795 32.2744C57.4448 31.8889 57.3725 31.6509 57.3625 31.5602ZM61.0542 31.835C61.0874 31.7446 61.1635 31.676 61.2826 31.6291C61.4538 31.5617 61.6113 31.5685 61.755 31.6495C61.8364 31.7034 61.9315 31.8465 62.0403 32.0788C62.1536 32.3007 62.4003 32.8613 62.7806 33.7605L63.6417 35.7816L63.5449 35.9615C63.4878 36.0785 63.4072 36.1576 63.303 36.1986C63.1467 36.2601 62.9901 36.2229 62.8333 36.0869C62.7593 36.03 62.4316 35.3294 61.85 33.985C61.5314 33.242 61.3193 32.7366 61.2137 32.4687C61.0758 32.1189 61.0227 31.9077 61.0542 31.835ZM60.3387 30.5434C60.4077 30.413 60.4906 30.3288 60.5874 30.2907C60.7065 30.2438 60.8335 30.2497 60.9684 30.3084C61.1033 30.367 61.1943 30.4559 61.2412 30.575C61.2881 30.6941 61.2837 30.8248 61.228 30.967C61.1663 31.1375 61.0684 31.2491 60.9344 31.3019C60.7632 31.3693 60.5992 31.335 60.4424 31.199C60.3787 31.1466 60.3308 31.0795 60.2985 30.9977C60.2457 30.8637 60.2591 30.7123 60.3387 30.5434ZM63.8877 29.9458C63.9579 29.8838 64.0413 29.8338 64.1381 29.7957C64.3763 29.7019 64.64 29.7056 64.9292 29.8066C65.2229 29.8973 65.5125 30.0757 65.7979 30.3416C66.0034 30.5358 66.1194 30.6664 66.1458 30.7334C66.1693 30.793 66.1501 30.908 66.0883 31.0784C66.0236 31.2415 65.9615 31.3347 65.9019 31.3582C65.7382 31.4226 65.4706 31.3001 65.0992 30.9907C64.8256 30.7545 64.6329 30.6584 64.5213 30.7023C64.4319 30.7375 64.3584 30.8782 64.3007 31.1245C64.1641 31.6941 64.2498 32.3697 64.5578 33.1512C64.6106 33.2851 64.6539 33.3841 64.6878 33.4482C64.8759 33.8384 65.0447 34.1029 65.1941 34.2419C65.3405 34.3734 65.4956 34.4069 65.6594 34.3424C65.8752 34.2575 66.1291 34.0071 66.421 33.5913C66.5976 33.3412 66.7268 33.2 66.8087 33.1678C66.8459 33.1531 66.8771 33.1451 66.9024 33.1438C67.0333 33.1267 67.1534 33.1697 67.2628 33.2727C67.3427 33.3445 67.3899 33.399 67.4046 33.4362C67.4193 33.4734 67.4204 33.5417 67.408 33.6412C67.3799 33.9188 67.1425 34.2873 66.6959 34.7469C66.4823 34.9685 66.2564 35.1262 66.0182 35.22C65.713 35.3402 65.4068 35.3489 65.0998 35.2462C64.8002 35.1406 64.5242 34.9312 64.2717 34.6179C64.1255 34.4433 63.9424 34.0769 63.7224 33.5187C63.4701 32.8786 63.3288 32.3238 63.2985 31.8543C63.2727 31.3744 63.3523 30.9218 63.5372 30.4965C63.659 30.2164 63.7758 30.0329 63.8877 29.9458ZM66.0622 27.0135C66.1208 26.8787 66.2097 26.7878 66.3288 26.7409C66.433 26.6999 66.5422 26.7042 66.6563 26.7538C66.7497 26.7944 66.9064 27.0938 67.1264 27.652L67.3861 28.3107L67.9713 29.7955L68.0833 29.687C68.3968 29.3916 68.7526 28.9635 69.1507 28.4027C69.3961 28.0654 69.5895 27.8689 69.731 27.8132C69.8352 27.7722 69.9332 27.7809 70.025 27.8393C70.1317 27.8919 70.2056 27.9702 70.2467 28.0744C70.3112 28.2382 70.2514 28.4681 70.0671 28.7642C69.8873 29.0499 69.5569 29.4551 69.0758 29.9798C68.6858 30.4084 68.481 30.6524 68.4614 30.7117C68.4569 30.7221 68.4576 30.7347 68.4634 30.7496C68.481 30.7942 68.6375 30.853 68.9328 30.9259C69.5383 31.0658 70.3124 31.35 71.2552 31.7785C71.6525 31.9574 71.9141 32.0865 72.04 32.1659C72.1733 32.2424 72.2561 32.3216 72.2884 32.4035C72.3353 32.5225 72.334 32.6391 72.2844 32.7532C72.2392 32.857 72.1571 32.9323 72.038 32.9792C71.9562 33.0114 71.8262 32.9981 71.6482 32.9392C71.4702 32.8803 71.0921 32.7282 70.5139 32.483C69.6451 32.1114 69.115 31.9117 68.9235 31.8839L68.694 31.8582L69.1523 32.89L69.5995 33.9262L69.5115 34.1285C69.4529 34.2634 69.3715 34.3513 69.2672 34.3923C69.1109 34.4539 68.9477 34.4107 68.7776 34.2627C68.6977 34.191 68.4392 33.6006 68.0021 32.4916C67.6736 31.6581 67.1904 30.3996 66.5527 28.7162C66.2742 27.966 66.1123 27.5225 66.0669 27.3856C66.0261 27.2383 66.0245 27.1143 66.0622 27.0135ZM73.8271 27.2711C73.7218 27.2438 73.6207 27.2492 73.5239 27.2873C73.4123 27.3312 73.3085 27.4279 73.2127 27.5775C73.1466 27.7152 73.0957 27.9244 73.0601 28.2049C73.029 28.4751 73.0362 28.6786 73.0815 28.8155L73.1452 29.0097L73.4981 28.8579C73.7155 28.7551 73.8952 28.6328 74.0371 28.491C74.1417 28.3638 74.2264 28.2187 74.2911 28.0556C74.3529 27.8852 74.3691 27.7627 74.3398 27.6883C74.3075 27.6064 74.2359 27.5228 74.1249 27.4376C74.0214 27.3494 73.9221 27.2939 73.8271 27.2711ZM72.3068 27.3408C72.5097 26.874 72.7973 26.5674 73.1695 26.4209C73.3407 26.3535 73.5266 26.3233 73.7272 26.3303C73.9961 26.3362 74.2261 26.3961 74.4171 26.5101C74.6157 26.621 74.8168 26.8041 75.0205 27.0592C75.0855 27.1368 75.1415 27.2351 75.1884 27.3542C75.3322 27.7189 75.3004 28.1183 75.0932 28.5524C74.8859 28.9865 74.555 29.336 74.1005 29.6009C73.9336 29.701 73.798 29.7715 73.6938 29.8126C73.6268 29.8389 73.5807 29.8528 73.5554 29.8541L73.3256 29.893L73.5193 30.3842C73.6513 30.7191 73.7942 30.9509 73.9481 31.0795C74.0471 31.178 74.1211 31.2349 74.1701 31.25C74.2161 31.2577 74.3016 31.2455 74.4266 31.2135L74.5159 31.1784C74.6648 31.1197 74.8678 30.9367 75.1249 30.6291C75.4134 30.292 75.6172 30.1 75.7363 30.0531C75.8256 30.0179 75.9184 30.0244 76.0148 30.0724C76.1289 30.1221 76.2065 30.199 76.2476 30.3032C76.3415 30.5414 76.1538 30.9161 75.6847 31.4275C75.4905 31.633 75.3509 31.7696 75.2658 31.8375C75.1779 31.8979 75.0222 31.9721 74.7989 32.06C74.583 32.1449 74.4312 32.1961 74.3434 32.2135C74.2602 32.2204 74.1466 32.205 74.0027 32.1671C73.8053 32.1244 73.5845 32.0007 73.3404 31.7958C73.1629 31.6508 73.0424 31.5306 72.979 31.4352C72.9156 31.3398 72.8083 31.1112 72.6571 30.7494L72.5515 30.4815C72.0411 29.1864 71.9595 28.1396 72.3068 27.3408ZM76.6631 23.9623C76.6502 23.8642 76.6819 23.77 76.7581 23.6798C76.8343 23.5896 76.9246 23.524 77.0288 23.483C77.2074 23.4127 77.3849 23.4374 77.5611 23.5572C77.6321 23.6066 77.6779 23.6573 77.6985 23.7094C77.7131 23.7467 77.7254 23.8106 77.7354 23.9013C77.748 24.0424 77.7938 24.235 77.8728 24.4791L77.9825 24.8228L78.2931 24.6618C78.3423 24.6339 78.4041 24.6052 78.4785 24.5759C78.5753 24.5378 78.6867 24.5369 78.8129 24.5733C78.9493 24.6141 79.0469 24.709 79.1056 24.8578C79.132 24.9248 79.1472 24.9962 79.1513 25.072C79.1475 25.2368 78.9608 25.4178 78.5914 25.6148L78.2851 25.7869L78.3837 26.135C78.6491 27.1139 78.9739 28.0908 79.3582 29.0657C79.5196 29.4751 79.6119 29.7311 79.6351 29.8337C79.6554 29.9289 79.6453 30.0231 79.6047 30.1165C79.5535 30.2484 79.4758 30.3349 79.3716 30.3759C79.2748 30.414 79.1567 30.4089 79.0173 30.3606C78.9165 30.3229 78.8439 30.2698 78.7997 30.2013C78.7555 30.1327 78.6585 29.9302 78.5086 29.5937L78.4162 29.3592C78.2578 28.9573 78.0644 28.423 77.836 27.7563C77.6151 27.0867 77.4828 26.653 77.4393 26.4552L77.3936 26.2411L77.0985 26.4088C76.8721 26.5324 76.6962 26.6317 76.571 26.7067C76.5442 26.7259 76.5047 26.7458 76.4526 26.7663C76.3707 26.7985 76.2675 26.7875 76.143 26.7334C75.9977 26.6702 75.8928 26.5568 75.8282 26.393C75.7578 26.2144 75.7608 26.08 75.837 25.9898C75.9103 25.8922 76.1249 25.7604 76.4809 25.5945C76.8562 25.4123 77.0484 25.3109 77.0574 25.2901C77.0739 25.2664 77.0148 25.0619 76.88 24.6764C76.7453 24.291 76.673 24.053 76.6631 23.9623Z" fill="white"/>
<path id="Vector_3" d="M111.693 48.58C111.776 49.2152 112.108 49.7916 112.615 50.1836C113.122 50.5757 113.763 50.7515 114.4 50.6729L114.923 54.7801C114.601 54.8122 114.289 54.9082 114.005 55.0624C113.721 55.2167 113.47 55.4261 113.268 55.6784C113.066 55.9307 112.916 56.2208 112.828 56.5317C112.739 56.8426 112.714 57.168 112.753 57.4888C112.792 57.8097 112.895 58.1195 113.055 58.4001C113.216 58.6807 113.43 58.9265 113.687 59.1231C113.944 59.3196 114.237 59.4629 114.55 59.5446C114.863 59.6263 115.189 59.6447 115.509 59.5988L116.033 63.7008C115.711 63.7329 115.399 63.8289 115.115 63.9832C114.831 64.1374 114.58 64.3468 114.378 64.5991C114.176 64.8514 114.026 65.1415 113.938 65.4524C113.849 65.7633 113.824 66.0887 113.863 66.4095C113.902 66.7304 114.005 67.0402 114.165 67.3208C114.325 67.6015 114.54 67.8473 114.797 68.0438C115.054 68.2403 115.347 68.3836 115.66 68.4653C115.973 68.547 116.299 68.5655 116.619 68.5196L117.09 72.3965L7.56135 85.6861L7.09017 81.8091C7.72573 81.7256 8.3025 81.3944 8.69477 80.8877C9.08704 80.381 9.26301 79.7399 9.18431 79.1041C9.10201 78.4694 8.7717 77.893 8.26553 77.5008C7.75935 77.1087 7.11847 76.9327 6.48286 77.0113L5.95933 72.9041C6.59446 72.8218 7.17122 72.4917 7.5636 71.9858C7.95598 71.48 8.1321 70.8395 8.05347 70.2043C8.01587 69.8877 7.91608 69.5816 7.75984 69.3036C7.6036 69.0255 7.39398 68.7811 7.143 68.5842C6.89202 68.3874 6.60462 68.242 6.29728 68.1563C5.98994 68.0707 5.66872 68.0466 5.35202 68.0853L4.82849 63.9833C5.46405 63.8998 6.04083 63.5686 6.43309 63.0619C6.82536 62.5552 7.00133 61.9141 6.92263 61.2783C6.84403 60.64 6.51572 60.0588 6.00948 59.6617C5.50325 59.2646 4.86029 59.084 4.22118 59.1593L3.75 55.2876L113.274 41.998L113.745 45.875C113.118 45.9698 112.552 46.3055 112.169 46.8107C111.786 47.316 111.615 47.9508 111.693 48.58V48.58Z" fill="#66CCB4" stroke="#043866" stroke-miterlimit="10"/>
<path id="Vector_4" d="M101.009 47.432L17.0947 57.6101L19.8474 80.2767L103.762 70.0985L101.009 47.432Z" fill="#1471D0" stroke="#043866" stroke-miterlimit="10"/>
<path id="free ticket_2" d="M37.2528 61.0019C37.3283 60.9604 37.3978 60.9358 37.4613 60.928C37.6836 60.9007 37.8904 60.9438 38.0818 61.0573C38.2304 61.1519 38.3874 61.3462 38.5526 61.6403C38.7257 61.9334 38.8423 62.2253 38.9023 62.5162C38.921 62.6026 38.9367 62.6973 38.9495 62.8006C38.9651 62.9276 38.9411 63.0273 38.8775 63.0996C38.7999 63.1897 38.7056 63.2416 38.5944 63.2552C38.4594 63.2718 38.3339 63.2348 38.218 63.1443C38.1011 63.0458 38.0284 62.9137 37.9999 62.7479C37.9714 62.5821 37.9196 62.4233 37.8444 62.2713C37.7772 62.1183 37.7158 62.0453 37.6602 62.0521C37.5888 62.0609 37.5504 62.1744 37.545 62.3927C37.5387 62.603 37.5648 63.0109 37.6233 63.6163L37.7299 64.7759L38.2257 64.6788C38.4302 64.6375 38.5404 64.6159 38.5563 64.614C38.6754 64.5994 38.8018 64.6443 38.9356 64.7488C39.0694 64.8533 39.1412 64.9452 39.151 65.0246C39.1588 65.0881 39.1259 65.1808 39.0522 65.3027C38.9985 65.3899 38.9373 65.4498 38.8688 65.4824C38.8073 65.5061 38.6742 65.5385 38.4697 65.5797L38.0215 65.671L38.03 65.936C38.0309 66.0084 38.0835 66.2397 38.188 66.6299C38.2925 67.0201 38.4025 67.4217 38.5179 67.8347C38.6322 68.2398 38.6914 68.4582 38.6953 68.4899C38.6963 68.4979 38.6978 68.5098 38.6997 68.5257C38.7096 68.5406 38.7151 68.552 38.716 68.5599C38.7307 68.679 38.6963 68.7921 38.6127 68.8991C38.5361 68.9971 38.4383 69.0535 38.3192 69.0681C38.081 69.0973 37.9041 68.97 37.7885 68.6859C37.7401 68.5548 37.6375 68.2128 37.4807 67.6598C37.3308 67.0979 37.221 66.664 37.151 66.3583L37.0432 65.8758L36.6621 65.9226C36.3048 65.9665 36.0502 65.9615 35.8985 65.9075C35.7458 65.8457 35.6572 65.7155 35.6328 65.517C35.6132 65.3582 35.6476 65.2452 35.7361 65.1779C35.8245 65.1106 36.0156 65.0589 36.3094 65.0229L36.8216 64.96L36.713 64.0787C36.6123 63.1963 36.6016 62.5206 36.6808 62.0515C36.767 61.5734 36.9577 61.2236 37.2528 61.0019ZM40.3155 64.2892C40.4149 64.1803 40.5242 64.1185 40.6433 64.1039C40.7703 64.0883 40.8874 64.1222 40.9944 64.2058C41.0925 64.2824 41.1479 64.3724 41.1606 64.4756C41.1626 64.4915 41.1664 64.5877 41.172 64.7643L41.1877 65.1856L41.5427 64.7309C41.7446 64.4724 41.9196 64.2897 42.0677 64.1829C42.2236 64.075 42.4168 64.007 42.647 63.9787C42.7423 63.967 42.8182 63.9617 42.8748 63.9628C43.4295 63.9512 43.799 64.071 43.9831 64.3225C44.0613 64.4338 44.0755 64.5489 44.0257 64.6679C43.938 64.8721 43.7989 64.9859 43.6083 65.0093C43.5051 65.0219 43.3999 65.0187 43.2927 64.9996C43.0785 64.9615 42.9157 64.9492 42.8046 64.9629C42.5505 64.9941 42.3317 65.2466 42.1483 65.7205C42.0636 65.9485 41.9885 66.3204 41.9231 66.8363C41.8646 67.3432 41.8491 67.7078 41.8765 67.9301C41.8784 67.946 41.8809 67.9658 41.8838 67.9896C41.8937 68.0045 41.8991 68.016 41.9001 68.0239C41.912 68.0547 41.9208 68.0939 41.9267 68.1415C41.9365 68.2209 41.9011 68.326 41.8205 68.4568C41.7329 68.5966 41.6137 68.6757 41.4628 68.6942C41.2643 68.7186 41.0913 68.6229 40.9438 68.4073C40.7182 68.0804 40.5072 67.2841 40.311 66.0186C40.2442 65.6077 40.205 65.3546 40.1932 65.2593C40.157 64.9655 40.147 64.7532 40.1631 64.6222C40.1871 64.4903 40.2379 64.3793 40.3155 64.2892ZM47.2933 63.783C47.1981 63.7302 47.0989 63.7102 46.9957 63.7229C46.8766 63.7375 46.7519 63.8052 46.6217 63.9259C46.5233 64.0428 46.4217 64.2326 46.317 64.4953C46.2193 64.7491 46.1753 64.948 46.185 65.0919L46.198 65.2958L46.5777 65.2371C46.814 65.1919 47.0185 65.1185 47.1914 65.0166C47.3245 64.9197 47.4428 64.8004 47.5463 64.6587C47.6487 64.5091 47.6951 64.3946 47.6853 64.3152C47.6745 64.2279 47.6261 64.1291 47.5399 64.0187C47.4617 63.9074 47.3795 63.8289 47.2933 63.783ZM45.8038 63.4702C46.1171 63.069 46.4723 62.8441 46.8693 62.7953C47.0519 62.7729 47.2394 62.7902 47.4319 62.8472C47.6907 62.9202 47.8984 63.0357 48.0549 63.1938C48.2194 63.3509 48.3683 63.5785 48.5018 63.8765C48.5453 63.9678 48.5748 64.077 48.5905 64.2041C48.6384 64.5931 48.5078 64.9719 48.1985 65.3403C47.8892 65.7088 47.4814 65.9644 46.9751 66.1071C46.7884 66.1623 46.6395 66.1967 46.5284 66.2103C46.4569 66.2191 46.4088 66.221 46.384 66.216L46.1518 66.1961L46.2164 66.7202C46.2604 67.0775 46.3408 67.3376 46.4576 67.5006C46.5289 67.6208 46.5863 67.6943 46.6299 67.7212C46.6725 67.7402 46.7584 67.7498 46.8874 67.7501L46.9826 67.7384C47.1414 67.7189 47.3838 67.5924 47.7097 67.3589C48.0733 67.1047 48.3187 66.9698 48.4457 66.9542C48.541 66.9425 48.6293 66.972 48.7105 67.0426C48.8086 67.1192 48.8645 67.2131 48.8782 67.3243C48.9095 67.5784 48.6341 67.8943 48.0519 68.272C47.8125 68.4223 47.6431 68.5197 47.5438 68.5641C47.4435 68.6006 47.2743 68.6335 47.0361 68.6627C46.8058 68.691 46.646 68.7026 46.5567 68.6974C46.4744 68.6834 46.3683 68.64 46.2384 68.5672C46.058 68.4766 45.8752 68.3015 45.6901 68.0422C45.5545 67.8573 45.4679 67.7108 45.4304 67.6025C45.3929 67.4943 45.3462 67.2461 45.2903 66.8581L45.2551 66.5722C45.0848 65.1907 45.2678 64.1567 45.8038 63.4702ZM51.7714 63.2332C51.6762 63.1804 51.577 63.1603 51.4738 63.173C51.3547 63.1876 51.23 63.2553 51.0998 63.3761C51.0013 63.493 50.8998 63.6828 50.7951 63.9455C50.6974 64.1993 50.6534 64.3981 50.6631 64.542L50.6761 64.7459L51.0558 64.6872C51.2921 64.6421 51.4966 64.5686 51.6694 64.4668C51.8026 64.3699 51.9209 64.2506 52.0243 64.1089C52.1268 63.9593 52.1732 63.8448 52.1634 63.7654C52.1526 63.678 52.1042 63.5792 52.018 63.4689C51.9398 63.3576 51.8576 63.279 51.7714 63.2332ZM50.2819 62.9204C50.5952 62.5192 50.9504 62.2942 51.3474 62.2455C51.53 62.2231 51.7175 62.2404 51.9099 62.2973C52.1688 62.3703 52.3765 62.4859 52.533 62.644C52.6975 62.8011 52.8464 63.0287 52.9798 63.3266C53.0233 63.418 53.0529 63.5272 53.0686 63.6542C53.1165 64.0433 52.9859 64.422 52.6766 64.7905C52.3673 65.1589 51.9595 65.4145 51.4532 65.5573C51.2665 65.6125 51.1176 65.6469 51.0065 65.6605C50.935 65.6693 50.8869 65.6712 50.8621 65.6661L50.6299 65.6463L50.6945 66.1703C50.7385 66.5276 50.8189 66.7878 50.9357 66.9507C51.0069 67.071 51.0644 67.1445 51.108 67.1714C51.1506 67.1903 51.2364 67.2 51.3654 67.2002L51.4607 67.1885C51.6195 67.169 51.8619 67.0426 52.1878 66.8091C52.5514 66.5549 52.7968 66.42 52.9238 66.4044C53.0191 66.3927 53.1074 66.4221 53.1886 66.4928C53.2867 66.5694 53.3426 66.6633 53.3563 66.7744C53.3876 67.0285 53.1122 67.3444 52.53 67.7222C52.2906 67.8725 52.1212 67.9699 52.0219 68.0143C51.9216 68.0508 51.7524 68.0837 51.5142 68.1129C51.2839 68.1412 51.1241 68.1527 51.0348 68.1476C50.9525 68.1335 50.8464 68.0901 50.7165 68.0174C50.5361 67.9267 50.3533 67.7517 50.1682 67.4923C50.0326 67.3075 49.946 67.1609 49.9085 67.0527C49.8709 66.9445 49.8242 66.6963 49.7684 66.3082L49.7331 66.0224C49.5629 64.6408 49.7458 63.6068 50.2819 62.9204ZM58.3225 60.3735C58.3346 60.2753 58.3888 60.1921 58.4852 60.1238C58.5816 60.0556 58.6854 60.0146 58.7965 60.0009C58.9871 59.9776 59.1527 60.0459 59.2933 60.2059C59.3498 60.2715 59.3814 60.3321 59.3883 60.3877C59.3932 60.4274 59.3891 60.4924 59.376 60.5827C59.3529 60.7225 59.3491 60.9205 59.3645 61.1765L59.3847 61.5367L59.7258 61.4586C59.7804 61.4438 59.8474 61.4315 59.9268 61.4218C60.03 61.4091 60.1381 61.4361 60.2511 61.5029C60.373 61.5766 60.4438 61.6928 60.4634 61.8516C60.4722 61.9231 60.4691 61.996 60.454 62.0704C60.4091 62.229 60.1831 62.3575 59.7761 62.4559L59.4366 62.5459L59.4449 62.9076C59.457 63.9217 59.5271 64.9488 59.6553 65.9889C59.7091 66.4256 59.7344 66.6966 59.7312 66.8017C59.7271 66.899 59.6937 66.9877 59.631 67.0679C59.5485 67.1828 59.4516 67.2471 59.3404 67.2608C59.2372 67.2735 59.1241 67.239 59.0012 67.1573C58.913 67.0956 58.8561 67.0261 58.8304 66.9486C58.8048 66.8712 58.7615 66.6508 58.7006 66.2875L58.6698 66.0374C58.617 65.6086 58.5634 65.0429 58.509 64.3403C58.4626 63.6367 58.4431 63.1837 58.4504 62.9813L58.4597 62.7626L58.1321 62.8512C57.8819 62.9141 57.6868 62.9663 57.5468 63.0077C57.5161 63.0195 57.4729 63.0288 57.4173 63.0357C57.3299 63.0464 57.2328 63.01 57.1257 62.9264C57.0009 62.8289 56.9277 62.6928 56.9062 62.5181C56.8827 62.3275 56.9191 62.1981 57.0155 62.1299C57.1109 62.0537 57.3517 61.9798 57.7378 61.9082C58.1468 61.8257 58.3583 61.7756 58.3722 61.7578C58.394 61.739 58.388 61.5261 58.354 61.1192C58.3199 60.7123 58.3095 60.4638 58.3225 60.3735ZM61.8281 61.5631C61.8828 61.4839 61.9737 61.4365 62.1007 61.4209C62.2833 61.3984 62.4341 61.4444 62.553 61.5588C62.6183 61.6313 62.6746 61.7937 62.7218 62.0458C62.776 62.289 62.8746 62.8935 63.0178 63.8593L63.3459 66.0315L63.2072 66.1815C63.1227 66.2805 63.0248 66.3369 62.9137 66.3505C62.7469 66.371 62.6047 66.2958 62.4869 66.1249C62.4295 66.0513 62.2874 65.2909 62.0607 63.8438C61.9381 63.0448 61.8592 62.5024 61.8239 62.2165C61.778 61.8433 61.7793 61.6255 61.8281 61.5631ZM61.4585 60.1335C61.5579 60.0246 61.6592 59.9638 61.7624 59.9511C61.8895 59.9355 62.011 59.973 62.1269 60.0635C62.2429 60.1541 62.3087 60.2629 62.3243 60.3899C62.34 60.517 62.303 60.6424 62.2135 60.7662C62.111 60.9158 61.9883 60.9994 61.8454 61.017C61.6628 61.0394 61.5126 60.9651 61.3948 60.7942C61.3463 60.7276 61.3166 60.6507 61.3059 60.5633C61.2883 60.4204 61.3391 60.2771 61.4585 60.1335ZM65.0441 60.4429C65.1275 60.4004 65.2208 60.3728 65.3241 60.3601C65.5782 60.3289 65.8326 60.3984 66.0873 60.5687C66.349 60.73 66.5847 60.9751 66.7945 61.3039C66.9449 61.5434 67.0245 61.6989 67.0334 61.7703C67.0412 61.8338 66.9939 61.9404 66.8914 62.09C66.7879 62.2317 66.7044 62.3064 66.6409 62.3142C66.4662 62.3356 66.2378 62.1501 65.9557 61.7576C65.7498 61.4604 65.5873 61.3192 65.4682 61.3338C65.3729 61.3455 65.2666 61.4634 65.1491 61.6873C64.8743 62.2047 64.7882 62.8802 64.891 63.7139C64.9086 63.8568 64.9257 63.9635 64.9425 64.034C65.0271 64.4589 65.1243 64.7572 65.2341 64.9291C65.343 65.0931 65.4848 65.1643 65.6595 65.1429C65.8897 65.1146 66.1982 64.9357 66.5848 64.6061C66.8183 64.4082 66.9788 64.3039 67.0661 64.2931C67.1058 64.2883 67.1381 64.2883 67.1629 64.2933C67.2938 64.3095 67.3994 64.3812 67.4795 64.5084C67.5389 64.5978 67.5711 64.6623 67.576 64.702C67.5808 64.7417 67.5648 64.8082 67.528 64.9014C67.4313 65.1631 67.1092 65.4606 66.5618 65.7938C66.2996 65.9549 66.0414 66.0511 65.7873 66.0823C65.4618 66.1223 65.1632 66.0542 64.8916 65.878C64.628 65.7008 64.4131 65.4289 64.247 65.0624C64.1492 64.8568 64.0635 64.4563 63.9902 63.8608C63.906 63.1779 63.908 62.6054 63.9962 62.1432C64.0913 61.6721 64.2815 61.2538 64.567 60.8883C64.755 60.6476 64.914 60.4991 65.0441 60.4429ZM67.883 58.1478C67.9735 58.0319 68.0823 57.9661 68.2093 57.9505C68.3205 57.9369 68.4251 57.9684 68.5232 58.045C68.6035 58.1077 68.6803 58.4368 68.7537 59.0323L68.8403 59.7349L69.0354 61.319L69.171 61.2419C69.5485 61.0343 70.0001 60.7089 70.5258 60.2655C70.8478 60.0003 71.0842 59.8584 71.2351 59.8399C71.3462 59.8262 71.439 59.8592 71.5132 59.9387C71.6034 60.0163 71.6553 60.1107 71.669 60.2218C71.6906 60.3965 71.5751 60.6041 71.3226 60.8447C71.0771 61.0763 70.6558 61.386 70.0587 61.7736C69.5739 62.0911 69.3146 62.2761 69.2807 62.3286C69.2738 62.3375 69.2713 62.3499 69.2732 62.3658C69.2791 62.4134 69.4159 62.5095 69.6836 62.6539C70.2348 62.9409 70.9132 63.4097 71.7188 64.0604C72.0587 64.333 72.2797 64.5235 72.3817 64.6319C72.4916 64.7393 72.552 64.8366 72.5628 64.924C72.5784 65.051 72.548 65.1636 72.4714 65.2616C72.4018 65.3508 72.3034 65.4031 72.1764 65.4187C72.089 65.4295 71.9666 65.384 71.809 65.2825C71.6514 65.1809 71.3233 64.9391 70.8249 64.557C70.0767 63.9799 69.6133 63.6539 69.4348 63.5791L69.2191 63.4968L69.4047 64.6105L69.5784 65.7256L69.4426 65.8995C69.3521 66.0154 69.2513 66.0801 69.1401 66.0938C68.9734 66.1143 68.8262 66.0316 68.6985 65.8458C68.6391 65.7563 68.5365 65.1201 68.3908 63.937C68.2812 63.0478 68.1283 61.7084 67.9319 59.919C67.85 59.1231 67.8042 58.6531 67.7945 58.5093C67.7918 58.3564 67.8213 58.236 67.883 58.1478ZM75.3366 60.3397C75.2414 60.287 75.1422 60.2669 75.039 60.2796C74.9199 60.2942 74.7952 60.3619 74.665 60.4827C74.5666 60.5995 74.465 60.7893 74.3603 61.052C74.2627 61.3058 74.2186 61.5047 74.2283 61.6486L74.2413 61.8525L74.621 61.7938C74.8573 61.7487 75.0618 61.6752 75.2347 61.5734C75.3678 61.4764 75.4861 61.3571 75.5896 61.2154C75.692 61.0658 75.7384 60.9513 75.7286 60.8719C75.7178 60.7846 75.6694 60.6858 75.5832 60.5754C75.505 60.4641 75.4228 60.3856 75.3366 60.3397ZM73.8471 60.0269C74.1604 59.6258 74.5156 59.4008 74.9126 59.3521C75.0952 59.3296 75.2828 59.3469 75.4752 59.4039C75.734 59.4769 75.9417 59.5924 76.0982 59.7505C76.2627 59.9077 76.4116 60.1352 76.5451 60.4332C76.5886 60.5245 76.6181 60.6338 76.6338 60.7608C76.6817 61.1499 76.5511 61.5286 76.2418 61.897C75.9325 62.2655 75.5247 62.5211 75.0184 62.6638C74.8317 62.719 74.6828 62.7534 74.5717 62.7671C74.5002 62.7758 74.4521 62.7777 74.4273 62.7727L74.1951 62.7528L74.2597 63.2769C74.3037 63.6342 74.3841 63.8943 74.5009 64.0573C74.5722 64.1775 74.6296 64.2511 74.6732 64.2779C74.7158 64.2969 74.8017 64.3065 74.9307 64.3068L75.0259 64.2951C75.1848 64.2756 75.4271 64.1491 75.753 63.9157C76.1166 63.6614 76.362 63.5265 76.489 63.5109C76.5843 63.4992 76.6726 63.5287 76.7538 63.5993C76.8519 63.6759 76.9078 63.7698 76.9215 63.881C76.9528 64.1351 76.6774 64.451 76.0952 64.8288C75.8558 64.979 75.6865 65.0764 75.5871 65.1208C75.4869 65.1573 75.3176 65.1902 75.0794 65.2195C74.8491 65.2477 74.6893 65.2593 74.6 65.2541C74.5177 65.2401 74.4116 65.1967 74.2817 65.124C74.1013 65.0333 73.9185 64.8582 73.7334 64.5989C73.5978 64.414 73.5112 64.2675 73.4737 64.1592C73.4362 64.051 73.3895 63.8029 73.3336 63.4148L73.2984 63.1289C73.1281 61.7474 73.3111 60.7134 73.8471 60.0269ZM78.9101 57.8457C78.9222 57.7475 78.9764 57.6642 79.0728 57.596C79.1692 57.5277 79.2729 57.4868 79.3841 57.4731C79.5747 57.4497 79.7403 57.518 79.8809 57.6781C79.9373 57.7437 79.969 57.8043 79.9758 57.8599C79.9807 57.8996 79.9767 57.9646 79.9636 58.0548C79.9405 58.1947 79.9367 58.3926 79.9521 58.6486L79.9723 59.0089L80.3133 58.9307C80.3679 58.916 80.4349 58.9037 80.5143 58.894C80.6176 58.8813 80.7257 58.9083 80.8387 58.975C80.9606 59.0487 81.0314 59.165 81.0509 59.3238C81.0597 59.3952 81.0566 59.4682 81.0416 59.5425C80.9967 59.7012 80.7707 59.8297 80.3637 59.928L80.0241 60.0181L80.0324 60.3798C80.0445 61.3938 80.1147 62.421 80.2428 63.4611C80.2966 63.8978 80.322 64.1687 80.3188 64.2739C80.3147 64.3711 80.2813 64.4599 80.2186 64.5401C80.136 64.655 80.0392 64.7193 79.928 64.7329C79.8248 64.7456 79.7117 64.7111 79.5888 64.6295C79.5006 64.5678 79.4437 64.4982 79.418 64.4208C79.3923 64.3433 79.3491 64.1229 79.2882 63.7597L79.2574 63.5096C79.2045 63.0808 79.1509 62.5151 79.0966 61.8125C79.0502 61.1089 79.0307 60.6559 79.038 60.4535L79.0473 60.2347L78.7197 60.3233C78.4695 60.3863 78.2744 60.4385 78.1344 60.4798C78.1036 60.4917 78.0605 60.501 78.0049 60.5078C77.9175 60.5185 77.8203 60.4821 77.7133 60.3985C77.5885 60.301 77.5153 60.1649 77.4937 59.9903C77.4703 59.7997 77.5067 59.6703 77.6031 59.602C77.6985 59.5258 77.9393 59.4519 78.3254 59.3804C78.7344 59.2979 78.9458 59.2478 78.9598 59.2299C78.9816 59.2111 78.9756 58.9983 78.9415 58.5914C78.9075 58.1845 78.897 57.9359 78.9101 57.8457Z" fill="white"/>
</g>
<defs>
<clipPath id="clip0_566_7717">
<rect width="117" height="86" fill="white" transform="translate(0.326172)"/>
</clipPath>
</defs>
</svg>
