<svg width="153" height="136" viewBox="0 0 153 136" fill="none" xmlns="http://www.w3.org/2000/svg">
<g id="tng" clip-path="url(#clip0_566_7712)">
<path id="Vector" d="M104.135 124.993L84.8108 117.217L62.5707 108.268C61.9918 108.033 61.5296 107.578 61.2855 107.003C61.0414 106.428 61.0352 105.78 61.2685 105.2L89.7138 34.4578C89.947 33.8784 90.4008 33.4154 90.9753 33.1706C91.5499 32.9258 92.1981 32.9193 92.7775 33.1525L134.343 49.8846C134.63 49.9999 134.891 50.1706 135.112 50.3869C135.332 50.6032 135.508 50.8608 135.629 51.1451C135.749 51.4294 135.813 51.7347 135.816 52.0436C135.819 52.3525 135.76 52.6589 135.645 52.9452L113.188 108.77L107.188 123.686C106.955 124.262 106.503 124.724 105.931 124.969C105.359 125.214 104.714 125.222 104.135 124.993V124.993Z" fill="url(#paint0_linear_566_7712)" stroke="#043866" stroke-miterlimit="10"/>
<path id="Vector_2" d="M90.3594 118.045L69.6746 120.534L45.8749 123.395C45.2551 123.468 44.6315 123.293 44.1412 122.906C43.6509 122.52 43.3339 121.955 43.2599 121.335L34.1594 45.6375C34.0852 45.0178 34.2599 44.394 34.6452 43.9031C35.0306 43.4123 35.595 43.0944 36.2146 43.0194L80.7034 37.6725C81.3232 37.5991 81.9467 37.7748 82.4371 38.161C82.9274 38.5471 83.2444 39.1121 83.3183 39.7319L90.5005 99.4693L92.4188 115.43C92.4922 116.05 92.3165 116.673 91.9303 117.164C91.5442 117.654 90.9792 117.971 90.3594 118.045V118.045Z" fill="#F48E9F" stroke="#043866" stroke-miterlimit="10"/>
<path id="Vector_3" d="M90.3588 118.045L69.674 120.534C69.6052 120.007 69.5571 119.468 69.5435 118.936C69.3155 113.975 71.0666 109.126 74.4119 105.456C77.7572 101.786 82.4231 99.5938 87.3838 99.3621C88.4311 99.3162 89.4804 99.3571 90.521 99.4844L92.4394 115.445C92.5081 116.066 92.3275 116.688 91.9374 117.176C91.5472 117.663 90.9794 117.976 90.3588 118.045V118.045Z" fill="white" stroke="#043866" stroke-miterlimit="10"/>
<path id="Vector_4" d="M85.6398 106.607L77.1143 107.511C76.254 107.602 75.6306 108.374 75.7219 109.234L76.0755 112.567C76.1668 113.428 76.9381 114.051 77.7984 113.96L86.3239 113.055C87.1842 112.964 87.8076 112.193 87.7163 111.332L87.3627 107.999C87.2715 107.139 86.5001 106.515 85.6398 106.607Z" fill="#005DAA" stroke="white" stroke-width="0.443233" stroke-miterlimit="10"/>
</g>
<defs>
<linearGradient id="paint0_linear_566_7712" x1="97.7646" y1="23.2465" x2="62.0861" y2="121.432" gradientUnits="userSpaceOnUse">
<stop stop-color="#FFB35C"/>
<stop offset="1" stop-color="#F9D43A"/>
</linearGradient>
<clipPath id="clip0_566_7712">
<rect width="106.154" height="112.676" fill="white" transform="translate(66.1885) rotate(35.9745)"/>
</clipPath>
</defs>
</svg>
