<svg width="1647" height="926" viewBox="0 0 1647 926" fill="none" xmlns="http://www.w3.org/2000/svg">
<g clip-path="url(#clip0_444_9898)">
<rect width="1646.22" height="926" fill="white"/>
<path d="M1652.67 353.268H1652.67C1679.4 353.268 1705.04 363.872 1723.95 382.747C1742.86 401.622 1753.49 427.224 1753.5 453.925C1753.49 477.559 1745.17 500.438 1729.97 518.559C1714.78 536.68 1693.7 548.888 1670.4 553.048L1669.99 553.121V553.54V775.5H1239.97L1306.45 660.744L1305.73 660.084C1290.33 670.832 1272.12 676.838 1253.33 677.36C1234.55 677.882 1216.03 672.898 1200.06 663.022C1184.08 653.146 1171.35 638.812 1163.44 621.791C1155.53 604.77 1152.78 585.807 1155.54 567.244C1158.3 548.682 1166.45 531.334 1178.97 517.342C1191.49 503.351 1207.84 493.33 1226 488.517C1244.16 483.704 1263.33 484.311 1281.15 490.261C1298.97 496.211 1314.65 507.245 1326.26 521.999L1326.76 522.628L1327.1 521.908C1332.25 511.278 1340.29 502.311 1350.31 496.038C1360.32 489.764 1371.9 486.437 1383.72 486.439C1387.17 486.447 1390.62 486.732 1394.02 487.291L1395.08 487.465L1394.53 486.543C1385.87 471.946 1381.31 455.288 1381.33 438.321V438.321C1381.33 425.864 1383.79 413.529 1388.57 402.023C1393.35 390.516 1400.35 380.062 1409.17 371.258C1417.99 362.454 1428.47 355.472 1439.99 350.712C1451.52 345.952 1463.87 343.507 1476.34 343.515H1476.34C1499.74 343.488 1522.32 352.122 1539.71 367.749L1540.49 368.446L1540.55 367.405C1541.24 355.004 1546.65 343.338 1555.69 334.801C1564.72 326.265 1576.68 321.505 1589.11 321.5C1599.24 321.512 1609.11 324.678 1617.34 330.556C1625.58 336.434 1631.78 344.733 1635.07 354.295L1635.21 354.695L1635.63 354.626C1641.26 353.691 1646.96 353.237 1652.67 353.268Z" fill="#D2D9A5" stroke="#043866"/>
<path d="M497.143 625.717L497.07 626.28L497.638 626.282C517.245 626.334 536.032 634.168 549.878 648.066C563.724 661.963 571.5 680.79 571.5 700.418C571.5 715.088 567.153 729.429 559.008 741.626C550.863 753.822 539.287 763.326 525.745 768.935L525.437 769.063V769.397V1000.5H-20.516V672.42V671.839L-21.0909 671.926C-25.6522 672.617 -30.2589 672.964 -34.872 672.963C-46.7735 672.963 -58.5583 670.617 -69.5537 666.057C-80.5492 661.498 -90.5399 654.816 -98.9555 646.392C-115.952 629.379 -125.5 606.304 -125.5 582.243C-125.5 558.181 -115.952 535.105 -98.9564 518.089C-81.9607 501.074 -58.9092 491.513 -34.872 491.509H-34.8717C-22.6437 491.498 -10.5407 493.971 0.70459 498.779C11.9499 503.587 22.1035 510.63 30.5506 519.48L31.2515 520.214L31.4064 519.211C33.0883 508.321 38.6071 498.393 46.9649 491.222C55.3226 484.05 65.9677 480.109 76.9756 480.11H76.9767C84.071 480.096 91.0727 481.723 97.4347 484.866C103.797 488.008 109.347 492.581 113.651 498.226L114.087 498.797L114.471 498.19C126.858 478.665 143.973 462.588 164.226 451.454C184.479 440.319 207.214 434.488 230.32 434.5C258.792 434.517 286.554 443.394 309.763 459.902C332.972 476.41 350.479 499.733 359.862 526.642L360.046 527.171L360.551 526.927C376.105 519.431 393.392 516.279 410.587 517.806C427.782 519.333 444.246 525.481 458.239 535.601C472.231 545.721 483.233 559.437 490.081 575.299C496.929 591.162 499.369 608.581 497.143 625.717Z" fill="#D2D9A5" stroke="#043866"/>
<path d="M244.977 669.774C238.596 662.822 236.521 652.653 240.567 644.144C243.317 638.437 244.044 632.004 242.746 625.83C241.398 619.656 238.077 614.104 233.252 610.005C231.177 608.241 229.724 605.855 229.049 603.209C228.375 600.563 228.531 597.761 229.516 595.219C230.398 592.884 230.762 590.342 230.554 587.851C230.347 585.361 229.62 582.922 228.375 580.743C227.13 578.564 225.418 576.697 223.394 575.192C221.319 573.739 218.984 572.753 216.546 572.287C214.055 571.82 211.513 571.923 209.126 572.598C206.688 573.22 204.457 574.414 202.485 576.022C200.566 577.63 199.009 579.654 197.92 581.937C196.83 584.22 196.311 586.71 196.311 589.2C196.311 591.639 196.83 594.077 197.868 596.308C200.255 601.548 198.906 607.515 194.807 611.562C190.656 615.661 187.906 620.953 186.817 626.712C185.779 632.471 186.506 638.385 188.944 643.677C190.916 647.932 191.538 652.653 190.864 657.219C190.137 661.836 188.114 666.142 184.949 669.567C177.997 677.038 174.106 686.792 174.002 697.013C173.794 718.752 191.279 737.326 212.966 738.363C221.059 738.778 229.101 736.703 236.054 732.552C243.006 728.35 248.557 722.176 251.982 714.86C255.406 707.493 256.599 699.296 255.354 691.254C254.057 683.212 250.477 675.741 244.977 669.774Z" fill="#5A8A15" stroke="#043866" stroke-miterlimit="10" stroke-linecap="round"/>
<path d="M215 619L215 818Z" fill="#5A8A15"/>
<path d="M215 619L215 818" stroke="#043866" stroke-miterlimit="10" stroke-linecap="round"/>
<path d="M214.834 717.091L192.316 694.522Z" fill="#5A8A15"/>
<path d="M214.834 717.091L192.316 694.522" stroke="#043866" stroke-miterlimit="10" stroke-linecap="round"/>
<path d="M214.833 689.075L228.323 675.585Z" fill="#5A8A15"/>
<path d="M214.833 689.075L228.323 675.585" stroke="#043866" stroke-miterlimit="10" stroke-linecap="round"/>
<path d="M214.832 640.201L202.899 628.268Z" fill="#5A8A15"/>
<path d="M214.832 640.201L202.899 628.268" stroke="#043866" stroke-miterlimit="10" stroke-linecap="round"/>
<path d="M214.833 640.201L228.167 626.867Z" fill="#5A8A15"/>
<path d="M214.833 640.201L228.167 626.867" stroke="#043866" stroke-miterlimit="10" stroke-linecap="round"/>
<path d="M451.844 696.685C454.688 691.175 456.199 684.955 456.021 678.734C455.577 659.183 439.581 642.831 420.03 642.032C413.454 641.765 406.966 643.187 401.19 646.208C395.325 649.23 390.437 653.762 386.882 659.272C383.327 664.782 381.283 671.091 381.017 677.668C380.661 684.244 382.083 690.731 385.016 696.596C390.081 706.372 387.949 718.547 379.595 725.656C372.841 731.344 367.331 738.453 363.688 746.54C359.955 754.538 358.089 763.336 358.178 772.223C358.444 803.771 383.772 830.342 415.231 832.031C427.85 832.742 440.381 829.454 451.045 822.611C461.709 815.768 469.973 805.815 474.595 793.995C479.216 782.265 480.104 769.29 476.994 757.027C473.884 744.763 467.041 733.743 457.265 725.656C449.001 718.369 446.868 706.372 451.844 696.685Z" fill="#50741C" stroke="#043866" stroke-miterlimit="10" stroke-linecap="round"/>
<path d="M418 674L418 901" stroke="#043866" stroke-miterlimit="10" stroke-linecap="round"/>
<path d="M418.518 798.083L449.355 767.246" stroke="#043866" stroke-miterlimit="10" stroke-linecap="round"/>
<path d="M418.521 762.092L396.215 739.786" stroke="#043866" stroke-miterlimit="10" stroke-linecap="round"/>
<path d="M418.518 698.374L434.247 682.644" stroke="#043866" stroke-miterlimit="10" stroke-linecap="round"/>
<path d="M1560.66 559.954C1554.39 553.131 1552.36 543.152 1556.33 534.801C1559.03 529.2 1559.74 522.887 1558.47 516.828C1557.14 510.768 1553.88 505.32 1549.15 501.298C1547.11 499.567 1545.69 497.224 1545.02 494.628C1544.36 492.031 1544.52 489.281 1545.48 486.787C1546.35 484.495 1546.7 482 1546.5 479.556C1546.3 477.112 1545.58 474.719 1544.36 472.581C1543.14 470.442 1541.46 468.609 1539.47 467.133C1537.44 465.707 1535.15 464.739 1532.75 464.281C1530.31 463.823 1527.81 463.925 1525.47 464.587C1523.08 465.198 1520.89 466.369 1518.96 467.947C1517.07 469.526 1515.54 471.511 1514.47 473.752C1513.41 475.992 1512.9 478.436 1512.9 480.88C1512.9 483.273 1513.41 485.666 1514.42 487.856C1516.77 492.998 1515.44 498.854 1511.42 502.825C1507.35 506.848 1504.65 512.041 1503.58 517.693C1502.56 523.345 1503.27 529.149 1505.67 534.343C1507.6 538.518 1508.21 543.152 1507.55 547.632C1506.84 552.164 1504.85 556.39 1501.75 559.751C1494.92 567.083 1491.1 576.655 1491 586.686C1490.8 608.02 1507.96 626.248 1529.24 627.266C1537.18 627.674 1545.08 625.637 1551.9 621.564C1558.72 617.439 1564.17 611.38 1567.53 604.201C1570.89 596.971 1572.06 588.926 1570.84 581.034C1569.57 573.142 1566.05 565.81 1560.66 559.954Z" fill="#5A8A15" stroke="#043866" stroke-miterlimit="10" stroke-linecap="round"/>
<path d="M1531.07 509.801V687.756Z" fill="#5A8A15"/>
<path d="M1531.07 509.801V687.756" stroke="#043866" stroke-miterlimit="10" stroke-linecap="round"/>
<path d="M1531.07 606.39L1508.98 584.242Z" fill="#5A8A15"/>
<path d="M1531.07 606.39L1508.98 584.242" stroke="#043866" stroke-miterlimit="10" stroke-linecap="round"/>
<path d="M1531.07 578.895L1544.31 565.657Z" fill="#5A8A15"/>
<path d="M1531.07 578.895L1544.31 565.657" stroke="#043866" stroke-miterlimit="10" stroke-linecap="round"/>
<path d="M1531.07 530.932L1519.36 519.221Z" fill="#5A8A15"/>
<path d="M1531.07 530.932L1519.36 519.221" stroke="#043866" stroke-miterlimit="10" stroke-linecap="round"/>
<path d="M1531.07 530.932L1544.16 517.846Z" fill="#5A8A15"/>
<path d="M1531.07 530.932L1544.16 517.846" stroke="#043866" stroke-miterlimit="10" stroke-linecap="round"/>
<path d="M1497.03 559.771C1499 555.966 1500.04 551.669 1499.92 547.372C1499.61 533.868 1488.56 522.574 1475.06 522.022C1470.51 521.838 1466.03 522.82 1462.04 524.907C1457.99 526.994 1454.62 530.124 1452.16 533.93C1449.71 537.736 1448.29 542.094 1448.11 546.636C1447.86 551.178 1448.85 555.659 1450.87 559.71C1454.37 566.462 1452.9 574.871 1447.13 579.782C1442.46 583.71 1438.66 588.621 1436.14 594.206C1433.56 599.731 1432.27 605.808 1432.34 611.946C1432.52 633.736 1450.01 652.089 1471.74 653.255C1480.46 653.746 1489.11 651.475 1496.48 646.749C1503.84 642.023 1509.55 635.148 1512.74 626.984C1515.94 618.882 1516.55 609.92 1514.4 601.449C1512.25 592.979 1507.53 585.368 1500.78 579.782C1495.07 574.749 1493.59 566.462 1497.03 559.771Z" fill="#50741C" stroke="#043866" stroke-miterlimit="10" stroke-linecap="round"/>
<path d="M1474 543.296L1474 722" stroke="#043866" stroke-miterlimit="10" stroke-linecap="round"/>
<path d="M1474.01 629.808L1495.31 608.508" stroke="#043866" stroke-miterlimit="10" stroke-linecap="round"/>
<path d="M1474.01 604.948L1458.61 589.542" stroke="#043866" stroke-miterlimit="10" stroke-linecap="round"/>
<path d="M1474.01 560.938L1484.88 550.073" stroke="#043866" stroke-miterlimit="10" stroke-linecap="round"/>
<path d="M-9.95255 935.316L1669.7 933.686V841.198C1689.27 840.278 1708.24 834.229 1724.74 823.655C1741.24 813.081 1754.67 798.353 1763.7 780.944C1772.73 763.536 1777.04 744.058 1776.19 724.458C1775.35 704.859 1769.38 685.826 1758.88 669.263C1748.39 652.7 1733.73 639.188 1716.39 630.08C1699.04 620.971 1679.61 616.585 1660.04 617.361C1640.47 618.136 1621.45 624.045 1604.87 634.498C1588.3 644.95 1574.76 659.578 1565.6 676.92C1562.1 672.443 1557.66 668.788 1552.6 666.211C1547.54 663.634 1541.97 662.198 1536.3 662.004C1530.62 661.81 1524.97 662.861 1519.75 665.086C1514.52 667.31 1509.84 670.653 1506.04 674.88C1498.21 665.575 1487.97 658.606 1476.45 654.737C1464.92 650.868 1452.56 650.247 1440.71 652.942C1428.86 655.637 1417.98 661.544 1409.25 670.017C1400.53 678.491 1394.3 689.205 1391.24 700.987H1383.25C1375.9 696.214 1367.42 693.476 1358.68 693.05C1349.93 692.625 1341.23 694.527 1333.46 698.563C1333.07 680.928 1328.54 663.633 1320.22 648.086C1311.9 632.54 1300.03 619.181 1285.58 609.097C1271.13 599.014 1254.51 592.491 1237.07 590.061C1219.63 587.63 1201.86 589.36 1185.21 595.109C1174.03 576.738 1156.54 563.087 1136.02 556.718C1115.5 550.35 1093.36 551.702 1073.77 560.521C1054.18 569.339 1038.47 585.019 1029.6 604.615C1020.72 624.212 1019.3 646.378 1025.58 666.954C1015.65 665.898 1005.61 666.99 996.132 670.157C986.019 673.529 976.804 679.16 969.182 686.624C961.561 694.087 955.733 703.188 952.138 713.239C948.504 723.248 947.223 733.962 948.393 744.548L948.475 745.123L947.915 745.041C934.878 742.692 921.439 745.484 910.41 752.832C899.381 760.18 891.615 771.516 888.738 784.467L888.574 785.193L888.082 784.631C874.282 770.09 855.49 761.334 835.497 760.13C815.504 758.925 795.799 765.363 780.36 778.143L779.799 778.54L779.553 778.786L779.307 778.54C775.246 775.133 770.515 772.619 765.422 771.161C760.314 769.671 754.953 769.256 749.678 769.942H749.35L749.268 769.627C740.253 734.89 718.231 704.964 687.773 686.059C657.314 667.155 620.758 660.725 585.692 668.103C550.626 675.481 519.743 696.102 499.452 725.684C479.162 755.267 471.023 791.54 476.724 826.974V827.138L476.56 827.303C461.392 843.102 449.624 861.852 441.982 882.391L441.818 882.801L441.408 882.637C425.715 876.904 408.979 874.598 392.324 875.876C375.668 877.153 359.478 881.984 344.839 890.043C346.974 881.306 348.052 872.343 348.05 863.348C348.052 848.636 345.161 834.067 339.541 820.474C333.922 806.881 325.684 794.53 315.299 784.126C304.914 773.722 292.585 765.47 279.015 759.839C265.446 754.208 250.902 751.31 236.215 751.31C219.752 751.296 203.491 754.933 188.599 761.961C183.961 755.98 178.017 751.143 171.222 747.821C164.428 744.498 156.964 742.779 149.403 742.795C145.122 742.794 140.859 743.346 136.72 744.438C134.144 736.672 129.194 729.915 122.571 725.124C115.949 720.333 107.989 717.751 99.8195 717.743C93.2169 717.713 86.7159 719.372 80.9319 722.562C71.5175 704.308 57.2702 689 39.7503 678.315C22.2303 667.631 2.11305 661.981 -18.3986 661.984C-48.0606 661.984 -76.5079 673.786 -97.4833 694.794C-118.459 715.803 -130.244 744.296 -130.248 774.008C-130.248 803.722 -118.464 832.22 -97.4881 853.231C-76.5123 874.242 -48.063 886.046 -18.3986 886.046C-15.5286 886.046 -12.6996 885.895 -9.88421 885.69V935.302" fill="#7F9B4E"/>
<path d="M-9.95255 935.316L1669.7 933.686V841.198C1689.27 840.278 1708.24 834.229 1724.74 823.655C1741.24 813.081 1754.67 798.353 1763.7 780.944C1772.73 763.536 1777.04 744.058 1776.19 724.458C1775.35 704.859 1769.38 685.826 1758.88 669.263C1748.39 652.7 1733.73 639.188 1716.39 630.08C1699.04 620.971 1679.61 616.585 1660.04 617.361C1640.47 618.136 1621.45 624.045 1604.87 634.498C1588.3 644.95 1574.76 659.578 1565.6 676.92C1562.1 672.443 1557.66 668.788 1552.6 666.211C1547.54 663.634 1541.97 662.198 1536.3 662.004C1530.62 661.81 1524.97 662.861 1519.75 665.086C1514.52 667.31 1509.84 670.653 1506.04 674.88C1498.21 665.575 1487.97 658.606 1476.45 654.737C1464.92 650.868 1452.56 650.247 1440.71 652.942C1428.86 655.637 1417.98 661.544 1409.25 670.017C1400.53 678.491 1394.3 689.205 1391.24 700.987H1383.25C1375.9 696.214 1367.42 693.476 1358.68 693.05C1349.93 692.625 1341.23 694.527 1333.46 698.563C1333.07 680.928 1328.54 663.633 1320.22 648.086C1311.9 632.54 1300.03 619.181 1285.58 609.097C1271.13 599.014 1254.51 592.491 1237.07 590.061C1219.63 587.63 1201.86 589.36 1185.21 595.109C1174.03 576.738 1156.54 563.087 1136.02 556.718C1115.5 550.35 1093.36 551.702 1073.77 560.521C1054.18 569.339 1038.47 585.019 1029.6 604.615C1020.72 624.212 1019.3 646.378 1025.58 666.954C1015.65 665.898 1005.61 666.99 996.132 670.157C986.019 673.529 976.804 679.16 969.182 686.624C961.561 694.087 955.733 703.188 952.138 713.239C948.504 723.248 947.223 733.962 948.393 744.548L948.475 745.123L947.915 745.041C934.878 742.692 921.439 745.484 910.41 752.832C899.381 760.18 891.615 771.516 888.738 784.467L888.574 785.193L888.082 784.631C874.282 770.09 855.49 761.334 835.497 760.13C815.504 758.925 795.799 765.363 780.36 778.143L779.799 778.54L779.553 778.786L779.307 778.54C775.246 775.133 770.515 772.619 765.422 771.161C760.314 769.671 754.953 769.256 749.678 769.942H749.35L749.268 769.627C740.253 734.89 718.231 704.964 687.773 686.059C657.314 667.155 620.758 660.725 585.692 668.103C550.626 675.481 519.743 696.102 499.452 725.684C479.162 755.267 471.023 791.54 476.724 826.974V827.138L476.56 827.303C461.392 843.102 449.624 861.852 441.982 882.391L441.818 882.801L441.408 882.637C425.715 876.904 408.979 874.598 392.324 875.876C375.668 877.153 359.478 881.984 344.839 890.043C346.974 881.306 348.052 872.343 348.05 863.348C348.052 848.636 345.161 834.067 339.541 820.474C333.922 806.881 325.684 794.53 315.299 784.126C304.914 773.722 292.585 765.47 279.015 759.839C265.446 754.208 250.902 751.31 236.215 751.31C219.752 751.296 203.491 754.933 188.599 761.961C183.961 755.98 178.017 751.143 171.222 747.821C164.428 744.498 156.964 742.779 149.403 742.795C145.122 742.794 140.859 743.346 136.72 744.438C134.144 736.672 129.194 729.915 122.571 725.124C115.949 720.333 107.989 717.751 99.8195 717.743C93.2169 717.713 86.7159 719.372 80.9319 722.562C71.5175 704.308 57.2702 689 39.7503 678.315C22.2303 667.631 2.11305 661.981 -18.3986 661.984C-48.0606 661.984 -76.5079 673.786 -97.4833 694.794C-118.459 715.803 -130.244 744.296 -130.248 774.008C-130.248 803.722 -118.464 832.22 -97.4881 853.231C-76.5123 874.242 -48.063 886.046 -18.3986 886.046C-15.5286 886.046 -12.6996 885.895 -9.88421 885.69V935.302" stroke="#043866" stroke-linecap="round"/>
<path d="M783.98 386.092C784.119 390.167 785.225 394.151 787.207 397.714V397.714C787.724 398.684 788.328 399.605 789.01 400.466V400.466C791.47 403.538 794.611 405.994 798.186 407.641C801.76 409.288 805.669 410.08 809.603 409.953H810.172H812.07H813.494H814.11H814.537H815.154L815.914 409.716H816.246C816.53 409.716 817.432 409.194 817.527 409.1L818.049 408.862L818.713 408.435C819.014 408.29 819.3 408.115 819.567 407.914L820.042 407.582L820.611 407.155L821.417 406.443L821.797 406.064C821.967 405.918 822.125 405.759 822.271 405.589H822.509L822.936 405.067C823.109 404.874 823.267 404.667 823.41 404.451L823.79 403.929L824.122 403.36L824.549 402.648L824.834 402.031V401.794L825.071 401.272L825.356 400.561C825.356 400.561 825.356 400.134 825.593 399.897C825.62 399.771 825.62 399.642 825.593 399.517C825.614 399.423 825.614 399.326 825.593 399.232C825.615 399.091 825.615 398.947 825.593 398.805V398.189V397.382C825.613 397.13 825.613 396.876 825.593 396.623C825.593 396.623 825.593 396.102 825.593 395.864V395.01C825.589 390.851 824.037 386.843 821.239 383.765C818.441 380.687 814.597 378.76 810.457 378.36H808.843H805.427H804.526H805.427H804.384H803.292H802.153L801.062 378.597C799.531 380.615 798.713 383.085 798.737 385.618C798.711 387.138 798.968 388.651 799.496 390.077V390.077H800.113L801.394 389.65L802.581 389.318L804.715 388.844H805.57H806.471H807.373H810.599C812.127 388.985 813.546 389.69 814.581 390.822C815.617 391.953 816.193 393.43 816.198 394.963V395.343C816.198 395.343 816.198 395.58 816.198 395.675C816.097 396.645 815.755 397.575 815.202 398.379V398.379C815.223 398.488 815.223 398.601 815.202 398.711L814.917 399.043C814.622 399.321 814.305 399.575 813.968 399.802V399.802H813.588L813.161 400.039H812.64H812.26H811.833H811.501H810.03C807.737 400.079 805.471 399.549 803.434 398.497C801.397 397.446 799.653 395.906 798.358 394.014V394.014C797.747 393.15 797.252 392.209 796.887 391.215V391.215C796.203 389.347 795.865 387.37 795.89 385.381C795.884 383.45 796.238 381.536 796.934 379.735V379.735C797.54 378.206 798.407 376.794 799.496 375.561V375.561C801.894 372.976 805.113 371.3 808.606 370.817C809.555 370.767 810.505 370.767 811.453 370.817C814.299 370.871 817.137 371.125 819.947 371.576C822.651 371.956 825.403 372.43 828.25 372.904C827.87 369.014 827.538 365.314 827.159 361.567C822.463 360.67 817.703 360.146 812.924 360.001C809.282 359.972 805.654 360.467 802.153 361.472C798.161 362.281 794.41 364.002 791.193 366.5C787.205 370.618 784.744 375.973 784.218 381.68V381.68C784.171 382.581 784.171 383.484 784.218 384.384C784.218 384.859 784.218 385.333 784.218 385.808L783.98 386.092Z" fill="#66CCB4"/>
<path d="M874.936 362.421L862.979 374.565C862.945 374.623 862.928 374.688 862.928 374.755C862.928 374.822 862.945 374.887 862.979 374.945L868.388 391.074C868.388 391.406 868.103 391.69 867.819 391.501L839.349 369.299C839.29 369.267 839.24 369.219 839.206 369.16C839.172 369.102 839.153 369.035 839.153 368.967C839.153 368.9 839.172 368.833 839.206 368.775C839.24 368.716 839.29 368.668 839.349 368.635L874.746 361.804C874.808 361.821 874.866 361.853 874.912 361.897C874.959 361.942 874.994 361.998 875.013 362.06C875.032 362.121 875.034 362.187 875.021 362.25C875.008 362.314 874.978 362.372 874.936 362.421Z" fill="#F9B84E"/>
<path d="M844.569 448.662C842.434 448.994 840.203 449.279 837.926 449.516V460H848.555V447.951L844.569 448.662Z" fill="#1471D0"/>
<path d="M873.229 421.243C872.617 417.201 870.547 413.523 867.409 410.901C864.271 408.28 860.283 406.896 856.195 407.012C851.759 406.827 847.413 408.298 844.001 411.139L843.716 411.376L843.1 411.945C839.991 415.028 838.132 419.15 837.88 423.52C837.88 423.9 837.88 424.279 837.88 424.611V432.391C839.209 432.391 840.49 432.107 841.724 431.869C843.764 431.537 846.136 431.063 848.461 430.541V424.754V424.137C848.47 423.251 848.655 422.375 849.005 421.56C849.355 420.746 849.864 420.009 850.501 419.393L850.834 419.014C852.183 417.948 853.859 417.378 855.579 417.401C856.405 417.309 857.242 417.383 858.04 417.618C858.838 417.853 859.582 418.245 860.227 418.771C860.872 419.296 861.405 419.945 861.797 420.679C862.188 421.413 862.429 422.218 862.506 423.046C862.67 424.604 862.347 426.174 861.582 427.542C860.818 428.909 859.649 430.007 858.236 430.683C856.031 431.578 853.763 432.308 851.451 432.866L848.177 433.672C845.994 434.194 843.859 434.621 842.008 434.905L837.596 435.522C836.504 435.522 835.413 435.759 834.322 435.807C828.337 436.301 822.323 436.301 816.338 435.807H814.963H813.207H812.163C806.478 435.011 800.935 433.414 795.698 431.063C792.469 429.745 789.57 427.731 787.208 425.164C784.846 422.598 783.079 419.542 782.033 416.215C781.371 413.651 781.274 410.974 781.749 408.369C782.224 405.765 783.26 403.294 784.785 401.13C784.548 400.75 784.311 400.371 784.121 399.991C782.265 396.717 781.087 393.104 780.657 389.365C779.243 390.847 777.943 392.432 776.766 394.109C774.13 397.633 772.331 401.713 771.509 406.037C770.687 410.361 770.862 414.815 772.022 419.061C772.216 419.786 772.454 420.499 772.733 421.196C774.427 425.564 776.979 429.548 780.239 432.913C783.499 436.278 787.4 438.956 791.713 440.788C796.729 442.975 801.984 444.567 807.371 445.531C811.692 446.232 816.048 446.707 820.419 446.955V446.955C822.791 446.955 825.164 446.955 827.442 446.955C829.719 446.955 832.186 446.955 834.654 446.955L837.927 446.67C840.063 446.67 842.103 446.196 844.049 445.911L848.793 445.057L852.067 444.346C855.793 443.511 859.444 442.368 862.98 440.93C866.64 439.262 869.637 436.418 871.495 432.85C873.352 429.283 873.962 425.197 873.229 421.243Z" fill="#1471D0"/>
<path d="M692.202 772.257C684.092 763.422 681.455 750.499 686.598 739.685C690.092 732.432 691.015 724.256 689.367 716.41C687.653 708.563 683.433 701.508 677.301 696.299C674.663 694.058 672.817 691.025 671.96 687.662C671.103 684.299 671.301 680.739 672.553 677.508C673.674 674.541 674.136 671.31 673.872 668.145C673.608 664.98 672.685 661.881 671.103 659.112C669.52 656.342 667.345 653.969 664.773 652.057C662.136 650.21 659.169 648.958 656.07 648.364C652.905 647.771 649.674 647.903 646.641 648.76C643.542 649.551 640.707 651.068 638.201 653.112C635.761 655.156 633.783 657.727 632.399 660.628C631.014 663.529 630.355 666.694 630.355 669.859C630.355 672.958 631.014 676.057 632.333 678.892C635.366 685.552 633.651 693.134 628.443 698.277C623.168 703.486 619.673 710.212 618.288 717.531C616.97 724.85 617.893 732.366 620.992 739.092C623.497 744.498 624.289 750.499 623.431 756.301C622.508 762.169 619.937 767.642 615.915 771.994C607.079 781.488 602.134 793.884 602.002 806.874C601.739 834.501 623.959 858.106 651.52 859.424C661.806 859.952 672.026 857.314 680.861 852.039C689.697 846.699 696.752 838.852 701.104 829.555C705.455 820.192 706.972 809.775 705.389 799.555C703.741 789.335 699.192 779.84 692.202 772.257Z" fill="#5A8A15" stroke="#043866" stroke-miterlimit="10" stroke-linecap="round"/>
<path d="M653.893 707.311V937.756Z" fill="#5A8A15"/>
<path d="M653.893 707.311V937.756" stroke="#043866" stroke-miterlimit="10" stroke-linecap="round"/>
<path d="M653.893 832.391L625.277 803.709Z" fill="#5A8A15"/>
<path d="M653.893 832.391L625.277 803.709" stroke="#043866" stroke-miterlimit="10" stroke-linecap="round"/>
<path d="M653.893 796.785L671.036 779.642Z" fill="#5A8A15"/>
<path d="M653.893 796.785L671.036 779.642" stroke="#043866" stroke-miterlimit="10" stroke-linecap="round"/>
<path d="M653.893 734.674L638.728 719.509Z" fill="#5A8A15"/>
<path d="M653.893 734.674L638.728 719.509" stroke="#043866" stroke-miterlimit="10" stroke-linecap="round"/>
<path d="M653.893 734.674L670.838 717.729Z" fill="#5A8A15"/>
<path d="M653.893 734.674L670.838 717.729" stroke="#043866" stroke-miterlimit="10" stroke-linecap="round"/>
<path d="M59.0553 808.531C52.2327 801.098 50.014 790.227 54.3405 781.13C57.2803 775.028 58.0568 768.15 56.6701 761.549C55.2279 754.949 51.678 749.014 46.5195 744.632C44.3008 742.746 42.7476 740.194 42.0265 737.365C41.3054 734.536 41.4718 731.541 42.5257 728.823C43.4687 726.327 43.857 723.609 43.6351 720.947C43.4132 718.284 42.6367 715.677 41.3055 713.348C39.9742 711.018 38.1438 709.021 35.9805 707.413C33.7618 705.859 31.2657 704.806 28.6587 704.306C25.9962 703.807 23.2783 703.918 20.7268 704.639C18.1198 705.305 15.7346 706.581 13.6268 708.3C11.5745 710.02 9.91045 712.183 8.74561 714.623C7.58078 717.064 7.02612 719.726 7.02612 722.389C7.02612 724.996 7.5808 727.603 8.69016 729.988C11.2417 735.59 9.79951 741.969 5.41753 746.296C0.980072 750.678 -1.95969 756.335 -3.12452 762.492C-4.23388 768.649 -3.45734 774.973 -0.850336 780.631C1.25745 785.179 1.92304 790.227 1.20196 795.108C0.425404 800.044 -1.73787 804.648 -5.12143 808.309C-12.5542 816.297 -16.7143 826.725 -16.8252 837.652C-17.0471 860.893 1.64569 880.751 24.8314 881.86C33.4844 882.304 42.082 880.085 49.5147 875.647C56.9474 871.155 62.8826 864.554 66.5435 856.733C70.2044 848.856 71.4801 840.092 70.1489 831.495C68.7622 822.897 64.9349 814.91 59.0553 808.531Z" fill="#5A8A15" stroke="#043866" stroke-miterlimit="10" stroke-linecap="round"/>
<path d="M27 754L27 926Z" fill="#5A8A15"/>
<path d="M27 754L27 926" stroke="#043866" stroke-miterlimit="10" stroke-linecap="round"/>
<path d="M26.8281 859.118L2.75488 834.989Z" fill="#5A8A15"/>
<path d="M26.8281 859.118L2.75488 834.989" stroke="#043866" stroke-miterlimit="10" stroke-linecap="round"/>
<path d="M26.8281 829.165L41.2498 814.743Z" fill="#5A8A15"/>
<path d="M26.8281 829.165L41.2498 814.743" stroke="#043866" stroke-miterlimit="10" stroke-linecap="round"/>
<path d="M26.827 776.914L14.0693 764.156Z" fill="#5A8A15"/>
<path d="M26.827 776.914L14.0693 764.156" stroke="#043866" stroke-miterlimit="10" stroke-linecap="round"/>
<path d="M26.8281 776.914L41.0834 762.659Z" fill="#5A8A15"/>
<path d="M26.8281 776.914L41.0834 762.659" stroke="#043866" stroke-miterlimit="10" stroke-linecap="round"/>
<path d="M1045.48 825.952C1039.41 819.343 1037.44 809.675 1041.28 801.586C1043.9 796.161 1044.59 790.044 1043.36 784.175C1042.07 778.305 1038.92 773.028 1034.33 769.131C1032.36 767.454 1030.98 765.185 1030.33 762.67C1029.69 760.154 1029.84 757.491 1030.78 755.074C1031.62 752.854 1031.96 750.437 1031.76 748.07C1031.57 745.702 1030.88 743.384 1029.69 741.312C1028.51 739.241 1026.88 737.465 1024.96 736.035C1022.99 734.653 1020.77 733.716 1018.45 733.272C1016.08 732.828 1013.66 732.927 1011.39 733.568C1009.08 734.16 1006.95 735.295 1005.08 736.824C1003.26 738.353 1001.78 740.276 1000.74 742.447C999.704 744.617 999.211 746.984 999.211 749.352C999.211 751.67 999.704 753.989 1000.69 756.109C1002.96 761.091 1001.68 766.763 997.781 770.611C993.835 774.507 991.221 779.538 990.185 785.013C989.198 790.488 989.889 796.111 992.207 801.142C994.081 805.187 994.673 809.675 994.032 814.016C993.342 818.406 991.418 822.5 988.409 825.755C981.8 832.858 978.1 842.131 978.002 851.848C977.804 872.514 994.427 890.172 1015.04 891.159C1022.74 891.553 1030.38 889.58 1036.99 885.635C1043.6 881.639 1048.88 875.77 1052.14 868.815C1055.39 861.811 1056.53 854.018 1055.34 846.373C1054.11 838.727 1050.71 831.625 1045.48 825.952Z" fill="#5A8A15" stroke="#043866" stroke-miterlimit="10" stroke-linecap="round"/>
<path d="M1016.82 777.368V949.756Z" fill="#5A8A15"/>
<path d="M1016.82 777.368V949.756" stroke="#043866" stroke-miterlimit="10" stroke-linecap="round"/>
<path d="M1016.82 870.936L995.413 849.48Z" fill="#5A8A15"/>
<path d="M1016.82 870.936L995.413 849.48" stroke="#043866" stroke-miterlimit="10" stroke-linecap="round"/>
<path d="M1016.82 844.301L1029.64 831.477Z" fill="#5A8A15"/>
<path d="M1016.82 844.301L1029.64 831.477" stroke="#043866" stroke-miterlimit="10" stroke-linecap="round"/>
<path d="M1016.82 797.838L1005.47 786.493Z" fill="#5A8A15"/>
<path d="M1016.82 797.838L1005.47 786.493" stroke="#043866" stroke-miterlimit="10" stroke-linecap="round"/>
<path d="M1016.82 797.838L1029.5 785.161Z" fill="#5A8A15"/>
<path d="M1016.82 797.838L1029.5 785.161" stroke="#043866" stroke-miterlimit="10" stroke-linecap="round"/>
<path d="M1373.01 786.963C1365.77 779.073 1363.42 767.533 1368.01 757.876C1371.13 751.399 1371.95 744.098 1370.48 737.091C1368.95 730.084 1365.18 723.784 1359.71 719.132C1357.35 717.13 1355.7 714.421 1354.94 711.419C1354.17 708.416 1354.35 705.236 1355.47 702.351C1356.47 699.701 1356.88 696.816 1356.65 693.99C1356.41 691.163 1355.59 688.396 1354.17 685.923C1352.76 683.45 1350.82 681.33 1348.52 679.623C1346.16 677.974 1343.52 676.855 1340.75 676.325C1337.92 675.795 1335.04 675.913 1332.33 676.678C1329.56 677.385 1327.03 678.739 1324.79 680.565C1322.61 682.39 1320.85 684.686 1319.61 687.277C1318.37 689.868 1317.78 692.694 1317.78 695.521C1317.78 698.288 1318.37 701.055 1319.55 703.587C1322.26 709.534 1320.73 716.306 1316.08 720.898C1311.37 725.55 1308.25 731.556 1307.01 738.092C1305.83 744.628 1306.66 751.34 1309.42 757.346C1311.66 762.174 1312.37 767.533 1311.6 772.714C1310.78 777.955 1308.48 782.842 1304.89 786.728C1297 795.207 1292.58 806.277 1292.46 817.876C1292.23 842.547 1312.07 863.627 1336.68 864.805C1345.87 865.276 1355 862.92 1362.89 858.21C1370.78 853.441 1377.08 846.434 1380.96 838.131C1384.85 829.77 1386.2 820.467 1384.79 811.34C1383.32 802.214 1379.26 793.735 1373.01 786.963Z" fill="#5A8A15" stroke="#043866" stroke-miterlimit="10" stroke-linecap="round"/>
<path d="M1338.8 728.965V934.756Z" fill="#5A8A15"/>
<path d="M1338.8 728.965V934.756" stroke="#043866" stroke-miterlimit="10" stroke-linecap="round"/>
<path d="M1338.8 840.663L1313.25 815.05Z" fill="#5A8A15"/>
<path d="M1338.8 840.663L1313.25 815.05" stroke="#043866" stroke-miterlimit="10" stroke-linecap="round"/>
<path d="M1338.8 808.867L1354.11 793.558Z" fill="#5A8A15"/>
<path d="M1338.8 808.867L1354.11 793.558" stroke="#043866" stroke-miterlimit="10" stroke-linecap="round"/>
<path d="M1338.8 753.401L1325.26 739.858Z" fill="#5A8A15"/>
<path d="M1338.8 753.401L1325.26 739.858" stroke="#043866" stroke-miterlimit="10" stroke-linecap="round"/>
<path d="M1338.8 753.401L1353.94 738.268Z" fill="#5A8A15"/>
<path d="M1338.8 753.401L1353.94 738.268" stroke="#043866" stroke-miterlimit="10" stroke-linecap="round"/>
<path d="M974.874 810.793C976.995 806.683 978.122 802.043 977.99 797.402C977.658 782.818 965.726 770.62 951.141 770.024C946.236 769.825 941.397 770.885 937.088 773.139C932.712 775.393 929.066 778.774 926.415 782.884C923.763 786.994 922.238 791.701 922.039 796.607C921.774 801.512 922.835 806.352 925.022 810.727C928.801 818.019 927.21 827.101 920.979 832.404C915.94 836.647 911.83 841.95 909.112 847.983C906.328 853.949 904.936 860.512 905.002 867.141C905.201 890.675 924.094 910.496 947.562 911.756C956.975 912.286 966.322 909.833 974.277 904.729C982.232 899.624 988.398 892.2 991.845 883.383C995.292 874.632 995.955 864.954 993.635 855.805C991.314 846.657 986.21 838.437 978.918 832.404C972.753 826.968 971.162 818.019 974.874 810.793Z" fill="#50741C" stroke="#043866" stroke-miterlimit="10" stroke-linecap="round"/>
<path d="M950.014 793.491V950.735" stroke="#043866" stroke-miterlimit="10" stroke-linecap="round"/>
<path d="M950.014 886.432L973.017 863.429" stroke="#043866" stroke-miterlimit="10" stroke-linecap="round"/>
<path d="M950.015 859.584L933.376 842.945" stroke="#043866" stroke-miterlimit="10" stroke-linecap="round"/>
<path d="M950.014 812.053L961.747 800.319" stroke="#043866" stroke-miterlimit="10" stroke-linecap="round"/>
<path d="M131.844 730.685C134.688 725.175 136.199 718.955 136.021 712.734C135.577 693.183 119.581 676.831 100.03 676.032C93.4536 675.765 86.9663 677.187 81.1899 680.208C75.3246 683.23 70.4369 687.762 66.8822 693.272C63.3275 698.782 61.2834 705.091 61.0168 711.668C60.6613 718.244 62.0832 724.731 65.0159 730.596C70.0813 740.372 67.9485 752.547 59.5949 759.656C52.841 765.344 47.3312 772.453 43.6876 780.54C39.9551 788.538 38.089 797.336 38.1778 806.223C38.4444 837.771 63.7717 864.342 95.2309 866.031C107.85 866.742 120.381 863.454 131.045 856.611C141.709 849.768 149.973 839.815 154.595 827.995C159.216 816.265 160.104 803.29 156.994 791.027C153.884 778.763 147.041 767.743 137.265 759.656C129.001 752.369 126.868 740.372 131.844 730.685Z" fill="#50741C" stroke="#043866" stroke-miterlimit="10" stroke-linecap="round"/>
<path d="M98 708L98 935" stroke="#043866" stroke-miterlimit="10" stroke-linecap="round"/>
<path d="M98.5176 832.083L129.355 801.246" stroke="#043866" stroke-miterlimit="10" stroke-linecap="round"/>
<path d="M98.5206 796.092L76.2148 773.786" stroke="#043866" stroke-miterlimit="10" stroke-linecap="round"/>
<path d="M98.5176 732.374L114.247 716.644" stroke="#043866" stroke-miterlimit="10" stroke-linecap="round"/>
<path d="M1545.35 810.728C1547 807.531 1547.87 803.922 1547.77 800.313C1547.51 788.97 1538.23 779.482 1526.89 779.018C1523.07 778.864 1519.31 779.689 1515.96 781.442C1512.55 783.195 1509.72 785.824 1507.66 789.021C1505.59 792.218 1504.41 795.879 1504.25 799.694C1504.05 803.51 1504.87 807.273 1506.57 810.676C1509.51 816.348 1508.27 823.412 1503.43 827.537C1499.51 830.837 1496.31 834.961 1494.2 839.653C1492.03 844.294 1490.95 849.398 1491 854.554C1491.16 872.858 1505.85 888.275 1524.1 889.255C1531.43 889.667 1538.7 887.759 1544.88 883.789C1551.07 879.819 1555.86 874.044 1558.55 867.187C1561.23 860.381 1561.74 852.853 1559.94 845.738C1558.13 838.622 1554.16 832.229 1548.49 827.537C1543.7 823.309 1542.46 816.348 1545.35 810.728Z" fill="#50741C" stroke="#043866" stroke-miterlimit="10" stroke-linecap="round"/>
<path d="M1526 796.889L1526 947" stroke="#043866" stroke-miterlimit="10" stroke-linecap="round"/>
<path d="M1526.01 869.558L1543.9 851.667" stroke="#043866" stroke-miterlimit="10" stroke-linecap="round"/>
<path d="M1526.01 848.677L1513.07 835.735" stroke="#043866" stroke-miterlimit="10" stroke-linecap="round"/>
<path d="M1526.01 811.708L1535.14 802.581" stroke="#043866" stroke-miterlimit="10" stroke-linecap="round"/>
<path d="M986.957 716.148C983.696 712.219 985.141 706.868 989.816 701.718C995.001 695.995 1000.56 694.012 1003.62 696.561C1006.63 699.109 1006.36 704.398 1000.76 710.991C996.172 716.39 989.746 719.473 986.957 716.148Z" fill="#A4C673" stroke="#043866" stroke-miterlimit="10" stroke-linecap="round"/>
<path d="M1003.62 696.561L987.006 716.149" stroke="#043866" stroke-miterlimit="10" stroke-linecap="round"/>
<path d="M1004.95 704.06L997.3 703.966" stroke="#043866" stroke-miterlimit="10" stroke-linecap="round"/>
<path d="M1001.32 710.322L991.237 711.132" stroke="#043866" stroke-miterlimit="10" stroke-linecap="round"/>
<path d="M997.203 696.163L995.364 706.259" stroke="#043866" stroke-miterlimit="10" stroke-linecap="round"/>
<path d="M988.239 703.532L989.455 713.186" stroke="#043866" stroke-miterlimit="10" stroke-linecap="round"/>
<path d="M674.195 152.211C679.243 152.976 681.724 157.931 681.659 164.887C681.596 172.609 678.766 177.786 674.786 177.918C670.844 178.018 667.523 173.892 667.322 165.241C667.154 158.16 669.9 151.583 674.195 152.211Z" fill="#A4C673" stroke="#043866" stroke-miterlimit="10" stroke-linecap="round"/>
<path d="M674.786 177.918L674.158 152.243" stroke="#043866" stroke-miterlimit="10" stroke-linecap="round"/>
<path d="M668.802 173.205L674.576 168.187" stroke="#043866" stroke-miterlimit="10" stroke-linecap="round"/>
<path d="M667.348 166.114L674.336 158.802" stroke="#043866" stroke-miterlimit="10" stroke-linecap="round"/>
<path d="M679.839 173.948L674.496 165.186" stroke="#043866" stroke-miterlimit="10" stroke-linecap="round"/>
<path d="M681.63 162.483L674.301 156.084" stroke="#043866" stroke-miterlimit="10" stroke-linecap="round"/>
<path d="M334.514 371.621C336.641 366.979 342.088 365.96 348.757 367.94C356.162 370.13 360.358 374.277 359.388 378.139C358.397 381.956 353.516 384.011 345.145 381.82C338.292 380.029 332.727 375.577 334.514 371.621Z" fill="#A4C673" stroke="#043866" stroke-miterlimit="10" stroke-linecap="round"/>
<path d="M359.388 378.139L334.534 371.666" stroke="#043866" stroke-miterlimit="10" stroke-linecap="round"/>
<path d="M353.209 382.592L349.977 375.658" stroke="#043866" stroke-miterlimit="10" stroke-linecap="round"/>
<path d="M345.991 382.035L340.889 373.302" stroke="#043866" stroke-miterlimit="10" stroke-linecap="round"/>
<path d="M356.966 372.187L347.071 374.908" stroke="#043866" stroke-miterlimit="10" stroke-linecap="round"/>
<path d="M346.437 367.305L338.266 372.587" stroke="#043866" stroke-miterlimit="10" stroke-linecap="round"/>
<path d="M316.321 613.462C311.28 612.653 308.842 607.676 308.968 600.721C309.099 593 311.974 587.848 315.955 587.751C319.898 587.685 323.183 591.84 323.308 600.492C323.414 607.574 320.611 614.127 316.321 613.462Z" fill="#A4C673" stroke="#043866" stroke-miterlimit="10" stroke-linecap="round"/>
<path d="M315.955 587.751L316.359 613.431" stroke="#043866" stroke-miterlimit="10" stroke-linecap="round"/>
<path d="M321.897 592.515L316.08 597.483" stroke="#043866" stroke-miterlimit="10" stroke-linecap="round"/>
<path d="M323.29 599.619L316.238 606.869" stroke="#043866" stroke-miterlimit="10" stroke-linecap="round"/>
<path d="M310.867 591.676L316.133 600.484" stroke="#043866" stroke-miterlimit="10" stroke-linecap="round"/>
<path d="M308.976 603.126L316.249 609.588" stroke="#043866" stroke-miterlimit="10" stroke-linecap="round"/>
<path d="M980.166 375.133C976.562 371.516 977.514 366.057 981.703 360.503C986.346 354.333 991.7 351.854 994.978 354.115C998.207 356.379 998.423 361.671 993.441 368.745C989.364 374.538 983.245 378.192 980.166 375.133Z" fill="#A4C673" stroke="#043866" stroke-miterlimit="10" stroke-linecap="round"/>
<path d="M994.978 354.115L980.214 375.13" stroke="#043866" stroke-miterlimit="10" stroke-linecap="round"/>
<path d="M996.986 361.462L989.36 362.062" stroke="#043866" stroke-miterlimit="10" stroke-linecap="round"/>
<path d="M993.938 368.028L983.972 369.75" stroke="#043866" stroke-miterlimit="10" stroke-linecap="round"/>
<path d="M988.555 354.301L987.64 364.523" stroke="#043866" stroke-miterlimit="10" stroke-linecap="round"/>
<path d="M980.296 362.454L982.384 371.957" stroke="#043866" stroke-miterlimit="10" stroke-linecap="round"/>
<path d="M1469.95 157.301C1472.07 152.658 1477.52 151.639 1484.19 153.617C1491.59 155.806 1495.79 159.952 1494.82 163.814C1493.83 167.632 1488.95 169.687 1480.58 167.498C1473.73 165.708 1468.16 161.257 1469.95 157.301Z" fill="#A4C673" stroke="#043866" stroke-miterlimit="10" stroke-linecap="round"/>
<path d="M1494.82 163.814L1469.97 157.346" stroke="#043866" stroke-miterlimit="10" stroke-linecap="round"/>
<path d="M1488.64 168.268L1485.41 161.335" stroke="#043866" stroke-miterlimit="10" stroke-linecap="round"/>
<path d="M1481.42 167.713L1476.32 158.981" stroke="#043866" stroke-miterlimit="10" stroke-linecap="round"/>
<path d="M1492.4 157.863L1482.5 160.586" stroke="#043866" stroke-miterlimit="10" stroke-linecap="round"/>
<path d="M1481.87 152.983L1473.7 158.266" stroke="#043866" stroke-miterlimit="10" stroke-linecap="round"/>
<path d="M758.72 851.258C761.366 848.051 765.896 848.412 770.747 851.379C776.119 854.706 778.524 858.875 776.92 861.681C775.317 864.488 771.027 865.089 764.894 861.561C759.883 858.675 756.435 853.984 758.72 851.258Z" fill="#A4C673" stroke="#043866" stroke-miterlimit="10" stroke-linecap="round"/>
<path d="M776.921 861.681L758.721 851.218" stroke="#043866" stroke-miterlimit="10" stroke-linecap="round"/>
<path d="M771.108 863.926L770.025 857.753" stroke="#043866" stroke-miterlimit="10" stroke-linecap="round"/>
<path d="M765.535 861.922L763.37 853.944" stroke="#043866" stroke-miterlimit="10" stroke-linecap="round"/>
<path d="M776.319 856.51L767.94 856.55" stroke="#043866" stroke-miterlimit="10" stroke-linecap="round"/>
<path d="M769.063 850.417L761.486 852.862" stroke="#043866" stroke-miterlimit="10" stroke-linecap="round"/>
<path d="M658.64 439.144C662.298 441.119 662.822 445.633 660.851 450.966C658.627 456.881 655.002 460.048 651.939 459.018C648.875 457.988 647.454 453.897 649.727 447.196C651.589 441.721 655.523 437.43 658.64 439.144Z" fill="#A4C673" stroke="#043866" stroke-miterlimit="10" stroke-linecap="round"/>
<path d="M651.938 459.018L658.679 439.136" stroke="#043866" stroke-miterlimit="10" stroke-linecap="round"/>
<path d="M648.61 453.75L654.457 451.492" stroke="#043866" stroke-miterlimit="10" stroke-linecap="round"/>
<path d="M649.498 447.895L656.905 444.226" stroke="#043866" stroke-miterlimit="10" stroke-linecap="round"/>
<path d="M656.896 457.427L655.234 449.215" stroke="#043866" stroke-miterlimit="10" stroke-linecap="round"/>
<path d="M661.468 449.128L657.602 442.168" stroke="#043866" stroke-miterlimit="10" stroke-linecap="round"/>
<path d="M1246.43 509.499C1248.43 505.855 1252.95 505.365 1258.27 507.375C1264.17 509.643 1267.31 513.29 1266.26 516.346C1265.2 519.402 1261.1 520.793 1254.42 518.47C1248.96 516.569 1244.7 512.604 1246.43 509.499Z" fill="#A4C673" stroke="#043866" stroke-miterlimit="10" stroke-linecap="round"/>
<path d="M1266.26 516.346L1246.42 509.46" stroke="#043866" stroke-miterlimit="10" stroke-linecap="round"/>
<path d="M1260.96 519.636L1258.75 513.772" stroke="#043866" stroke-miterlimit="10" stroke-linecap="round"/>
<path d="M1255.12 518.705L1251.5 511.271" stroke="#043866" stroke-miterlimit="10" stroke-linecap="round"/>
<path d="M1264.7 511.378L1256.48 512.979" stroke="#043866" stroke-miterlimit="10" stroke-linecap="round"/>
<path d="M1256.44 506.744L1249.45 510.559" stroke="#043866" stroke-miterlimit="10" stroke-linecap="round"/>
<path d="M886.044 51.276C888.77 48.1372 893.289 48.6129 898.063 51.7017C903.349 55.1644 905.647 59.3933 903.973 62.1579C902.299 64.9224 897.996 65.4147 891.954 61.7322C887.017 58.7195 883.69 53.9431 886.044 51.276Z" fill="#A4C673" stroke="#043866" stroke-miterlimit="10" stroke-linecap="round"/>
<path d="M903.973 62.1579L886.045 51.236" stroke="#043866" stroke-miterlimit="10" stroke-linecap="round"/>
<path d="M898.105 64.2544L897.18 58.0553" stroke="#043866" stroke-miterlimit="10" stroke-linecap="round"/>
<path d="M892.586 62.1092L890.624 54.0792" stroke="#043866" stroke-miterlimit="10" stroke-linecap="round"/>
<path d="M903.504 56.9728L895.127 56.8001" stroke="#043866" stroke-miterlimit="10" stroke-linecap="round"/>
<path d="M896.404 50.6971L888.768 52.9492" stroke="#043866" stroke-miterlimit="10" stroke-linecap="round"/>
<path d="M1319.42 309.084C1315.7 307.23 1315.03 302.735 1316.82 297.34C1318.85 291.356 1322.37 288.072 1325.46 289C1328.56 289.929 1330.11 293.972 1328.06 300.744C1326.38 306.277 1322.59 310.694 1319.42 309.084Z" fill="#A4C673" stroke="#043866" stroke-miterlimit="10" stroke-linecap="round"/>
<path d="M1325.46 289L1319.38 309.093" stroke="#043866" stroke-miterlimit="10" stroke-linecap="round"/>
<path d="M1328.96 294.157L1323.19 296.605" stroke="#043866" stroke-miterlimit="10" stroke-linecap="round"/>
<path d="M1328.27 300.038L1320.99 303.947" stroke="#043866" stroke-miterlimit="10" stroke-linecap="round"/>
<path d="M1320.56 290.754L1322.49 298.907" stroke="#043866" stroke-miterlimit="10" stroke-linecap="round"/>
<path d="M1316.26 299.198L1320.36 306.027" stroke="#043866" stroke-miterlimit="10" stroke-linecap="round"/>
<path d="M1610.57 577.753C1608.89 581.558 1604.43 582.441 1598.96 580.902C1592.89 579.158 1589.44 575.798 1590.22 572.662C1591 569.526 1594.97 567.783 1601.83 569.513C1607.43 570.931 1612.03 574.509 1610.57 577.753Z" fill="#A4C673" stroke="#043866" stroke-miterlimit="10" stroke-linecap="round"/>
<path d="M1590.22 572.662L1610.58 577.792" stroke="#043866" stroke-miterlimit="10" stroke-linecap="round"/>
<path d="M1595.21 568.924L1597.92 574.572" stroke="#043866" stroke-miterlimit="10" stroke-linecap="round"/>
<path d="M1601.11 569.34L1605.36 576.43" stroke="#043866" stroke-miterlimit="10" stroke-linecap="round"/>
<path d="M1592.2 577.476L1600.26 575.163" stroke="#043866" stroke-miterlimit="10" stroke-linecap="round"/>
<path d="M1600.84 581.371L1607.47 576.961" stroke="#043866" stroke-miterlimit="10" stroke-linecap="round"/>
<path d="M328.738 85.0803C332.302 87.2202 332.619 91.7535 330.406 96.9912C327.914 102.798 324.148 105.796 321.135 104.627C318.121 103.458 316.889 99.3057 319.467 92.7161C321.577 87.3318 325.703 83.2256 328.738 85.0803Z" fill="#A4C673" stroke="#043866" stroke-miterlimit="10" stroke-linecap="round"/>
<path d="M321.135 104.627L328.777 85.0743" stroke="#043866" stroke-miterlimit="10" stroke-linecap="round"/>
<path d="M318.051 99.212L323.995 97.2244" stroke="#043866" stroke-miterlimit="10" stroke-linecap="round"/>
<path d="M319.205 93.4038L326.772 90.0778" stroke="#043866" stroke-miterlimit="10" stroke-linecap="round"/>
<path d="M326.16 103.264L324.875 94.9845" stroke="#043866" stroke-miterlimit="10" stroke-linecap="round"/>
<path d="M331.107 95.1829L327.563 88.0536" stroke="#043866" stroke-miterlimit="10" stroke-linecap="round"/>
<path d="M95.4564 326.784C91.3159 327.161 88.385 323.688 87.0801 318.154C85.6649 311.995 86.9352 307.353 90.0575 306.518C93.1799 305.683 96.6252 308.308 98.4339 315.148C99.9086 320.74 99.0013 326.49 95.4564 326.784Z" fill="#A4C673" stroke="#043866" stroke-miterlimit="10" stroke-linecap="round"/>
<path d="M90.0573 306.518L95.4277 326.812" stroke="#043866" stroke-miterlimit="10" stroke-linecap="round"/>
<path d="M95.7426 309.069L92.1172 314.182" stroke="#043866" stroke-miterlimit="10" stroke-linecap="round"/>
<path d="M98.2395 314.439L94.0938 321.59" stroke="#043866" stroke-miterlimit="10" stroke-linecap="round"/>
<path d="M86.8061 310.584L92.7297 316.509" stroke="#043866" stroke-miterlimit="10" stroke-linecap="round"/>
<path d="M87.5812 320.027L94.6498 323.691" stroke="#043866" stroke-miterlimit="10" stroke-linecap="round"/>
</g>
<defs>
<clipPath id="clip0_444_9898">
<rect width="1646.22" height="926" fill="white"/>
</clipPath>
</defs>
</svg>
