<svg width="177" height="292" viewBox="0 0 177 292" fill="none" xmlns="http://www.w3.org/2000/svg">
<g id="chairlift" filter="url(#filter0_d_444_10183)">
<path id="Vector" d="M134.227 190.286H33.1132C27.5848 190.286 23.1621 194.764 23.1621 200.237V227.105C23.1621 232.633 27.6401 237.056 33.1132 237.056H134.172C139.7 237.056 144.123 232.578 144.123 227.105V200.292C144.178 194.764 139.7 190.286 134.227 190.286Z" fill="#66CCB4" stroke="#043866" stroke-miterlimit="10" stroke-linecap="round"/>
<path id="Vector_2" d="M99.5089 97.0217H81.4863V90.0006H99.5089C105.093 90.0006 115.375 88.9502 121.512 81.8186C126.211 76.4008 127.759 68.2741 126.156 57.6596C124.497 46.7134 123.226 36.0989 121.954 25.8714C121.401 21.2828 120.24 11.8845 120.24 11.8845L127.261 11C127.261 11 128.422 20.4535 128.975 25.0421C130.191 35.2143 131.518 45.7183 133.121 56.6092C135.056 69.3245 132.9 79.3308 126.819 86.4072C120.959 93.2624 111.284 97.0217 99.5089 97.0217Z" fill="#7C848C" stroke="#043866" stroke-miterlimit="10" stroke-linecap="round"/>
<path id="Vector_3" d="M133.233 249.163H34.0534C27.9169 249.163 22.0568 246.73 17.7446 242.418C13.4325 238.106 11 232.246 11 226.109V206.594C11 200.9 11.5528 195.206 12.5479 189.567L24.6551 124.664C25.9819 117.643 29.6859 111.285 35.2143 106.752C40.6874 102.163 47.6532 99.6753 54.7848 99.6753H112.612C119.743 99.6753 126.654 102.163 132.182 106.752C137.655 111.34 141.415 117.643 142.741 124.664L154.849 189.567C155.899 195.206 156.397 200.9 156.452 206.594V226.109C156.452 232.246 154.019 238.106 149.707 242.418C145.229 246.73 139.369 249.163 133.233 249.163ZM54.7848 105.812C49.0906 105.812 43.5622 107.802 39.1395 111.451C34.7721 115.099 31.7867 120.186 30.7363 125.769L18.6292 190.673C17.6341 195.924 17.1365 201.232 17.1365 206.594V226.109C17.1365 230.587 18.9056 234.9 22.112 238.051C25.2632 241.202 29.5754 243.026 34.0534 243.026H133.233C137.711 243.026 142.023 241.257 145.174 238.051C148.325 234.844 150.149 230.587 150.149 226.109V206.594C150.149 201.232 149.652 195.924 148.657 190.673L136.55 125.769C135.499 120.186 132.514 115.099 128.147 111.451C123.779 107.802 118.251 105.812 112.501 105.812H54.7848Z" fill="#7C848C" stroke="#043866" stroke-miterlimit="10" stroke-linecap="round"/>
<path id="Vector_4" d="M91.439 90.0006H75.9043V111.838H91.439V90.0006Z" fill="#7C848C" stroke="#043866" stroke-miterlimit="10" stroke-linecap="round"/>
<path id="Vector_5" d="M79.22 95.0867L77.4509 94.4233L77.1191 92.5436L78.5565 91.3274L80.3256 91.9908L80.6573 93.8705L79.22 95.0867Z" fill="#AFB6BC" stroke="#043866" stroke-miterlimit="10" stroke-linecap="round"/>
<path id="Vector_6" d="M78.8879 94.0364C79.3301 94.0364 79.7171 93.6495 79.7171 93.2072C79.7171 92.7649 79.3301 92.3779 78.8879 92.3779C78.4456 92.3779 78.0586 92.7649 78.0586 93.2072C78.0586 93.6495 78.4456 94.0364 78.8879 94.0364Z" fill="#7C848C" stroke="#043866" stroke-miterlimit="10" stroke-linecap="round"/>
<path id="Vector_7" d="M87.4033 94.8656L86.4082 93.2624L87.2927 91.6039L89.1724 91.5486L90.1675 93.1518L89.2829 94.8103L87.4033 94.8656Z" fill="#AFB6BC" stroke="#043866" stroke-miterlimit="10" stroke-linecap="round"/>
<path id="Vector_8" d="M88.2863 94.0364C88.7286 94.0364 89.1155 93.6495 89.1155 93.2072C89.1155 92.7649 88.7286 92.3779 88.2863 92.3779C87.844 92.3779 87.457 92.7649 87.457 93.2072C87.457 93.6495 87.844 94.0364 88.2863 94.0364Z" fill="#7C848C" stroke="#043866" stroke-miterlimit="10" stroke-linecap="round"/>
<path id="Vector_9" d="M89.0603 98.5697H78.2246V109.405H89.0603V98.5697Z" fill="white" stroke="#043866" stroke-miterlimit="10" stroke-linecap="round"/>
<path id="Vector_10" d="M80.6572 102.163C80.6572 102.495 80.7678 102.771 80.9336 103.048C80.9889 103.103 81.0442 103.214 81.0995 103.269C81.2653 103.49 81.5418 103.711 81.8182 103.822C82.0946 103.932 82.371 103.987 82.7027 103.987H82.758H82.9239H83.0344H83.0897H83.145H83.2003H83.2556L83.3661 103.932H83.4214L83.4767 103.877C83.4767 103.877 83.532 103.877 83.532 103.822H83.5873L83.6426 103.766L83.6978 103.711L83.7531 103.656C83.7531 103.656 83.7531 103.656 83.8084 103.601L83.8637 103.545C83.8637 103.545 83.8637 103.49 83.919 103.49L83.9743 103.435V103.379L84.0295 103.324V103.269V103.214V103.158V103.103C84.0295 103.103 84.0295 103.103 84.0295 103.048C84.0295 103.048 84.0295 103.048 84.0295 102.992V102.937V102.882V102.827V102.771V102.716C84.0295 102.384 83.919 102.108 83.6978 101.831C83.4767 101.61 83.2003 101.444 82.8686 101.389H82.758H82.3157H82.2605H82.3157H82.2605H82.1499H82.0393H81.9287C81.8182 101.555 81.7629 101.721 81.7629 101.942C81.7629 102.053 81.7629 102.163 81.8182 102.274H81.8735L81.9841 102.218H82.0946L82.2605 102.163H82.3157H82.371H82.4263H82.7027C82.8133 102.163 82.9239 102.218 83.0344 102.329C83.0897 102.44 83.145 102.55 83.145 102.661V102.716C83.145 102.771 83.0897 102.882 83.0897 102.937L83.0344 102.992H82.9792H82.9239H82.8686H82.8133H82.758H82.6474C82.4816 102.992 82.3157 102.937 82.1499 102.882C81.984 102.827 81.8735 102.661 81.7629 102.55C81.7076 102.495 81.6523 102.384 81.6523 102.329C81.597 102.163 81.5971 102.053 81.5971 101.887C81.5971 101.721 81.597 101.61 81.6523 101.444C81.7076 101.334 81.7629 101.223 81.8735 101.113C82.0393 100.892 82.3157 100.781 82.5922 100.726C82.6474 100.726 82.758 100.726 82.8133 100.726C83.0344 100.726 83.2556 100.726 83.4767 100.781C83.6978 100.836 83.919 100.836 84.1401 100.892C84.0848 100.615 84.0848 100.283 84.0295 100.007C83.6425 99.9518 83.3108 99.8965 82.9239 99.8965C82.6474 99.8965 82.371 99.9518 82.0946 100.007C81.7629 100.062 81.4865 100.228 81.2653 100.394C80.9336 100.726 80.7678 101.113 80.7125 101.555C80.7125 101.61 80.7125 101.721 80.7125 101.776C80.6572 102.053 80.6572 102.108 80.6572 102.163Z" fill="#66CCB4"/>
<path id="Vector_11" d="M87.6783 100.339L86.7384 101.279L87.1807 102.55C87.1807 102.55 87.1807 102.605 87.1254 102.605L84.9141 100.892L87.6783 100.339C87.6783 100.284 87.6783 100.284 87.6783 100.339C87.6783 100.284 87.6783 100.284 87.6783 100.339C87.6783 100.284 87.6783 100.339 87.6783 100.339Z" fill="#F9B84E"/>
<path id="Vector_12" d="M85.3569 106.973C85.1911 106.973 85.0252 107.028 84.8594 107.028V107.857H85.6886V106.917L85.3569 106.973Z" fill="#043866"/>
<path id="Vector_13" d="M87.5683 104.872C87.513 104.54 87.3471 104.264 87.126 104.098C86.9049 103.877 86.5731 103.766 86.2414 103.822C85.9097 103.822 85.5781 103.932 85.3016 104.153L85.2463 104.209C85.0252 104.43 84.8593 104.761 84.8593 105.093C84.8593 105.148 84.8593 105.148 84.8593 105.204V105.812C84.9699 105.812 85.0805 105.812 85.1358 105.757C85.3016 105.757 85.4675 105.701 85.6333 105.646V105.204V105.148C85.6333 105.093 85.6333 105.038 85.6886 104.927C85.6886 104.872 85.7439 104.817 85.7992 104.761V104.706C85.9097 104.651 86.0203 104.596 86.1862 104.596C86.2414 104.596 86.2967 104.596 86.352 104.596C86.4073 104.596 86.4626 104.651 86.5179 104.706C86.5731 104.761 86.6284 104.817 86.6284 104.872C86.6837 104.927 86.6837 104.983 86.6837 105.038C86.6837 105.148 86.6837 105.259 86.6284 105.37C86.5731 105.48 86.4626 105.535 86.352 105.591C86.1862 105.646 86.0203 105.701 85.8545 105.757L85.5781 105.812C85.4122 105.867 85.2463 105.867 85.0805 105.922L84.7488 105.978C84.6382 105.978 84.5829 105.978 84.4724 105.978C84.0301 106.033 83.5326 106.033 83.0903 105.978H82.9797H82.8691H82.8139C82.3716 105.922 81.9293 105.812 81.5423 105.591C81.2659 105.48 81.0448 105.314 80.8789 105.148C80.7131 104.927 80.5472 104.706 80.4919 104.43C80.4367 104.209 80.4367 104.043 80.4919 103.822C80.5472 103.601 80.6025 103.435 80.713 103.269C80.713 103.214 80.6578 103.214 80.6578 103.158C80.4919 102.882 80.4366 102.605 80.3814 102.329C80.2708 102.44 80.1602 102.55 80.1049 102.716C79.8838 102.992 79.7732 103.324 79.7179 103.656C79.6627 103.987 79.6627 104.319 79.7733 104.651C79.7733 104.706 79.8285 104.761 79.8285 104.817C79.9391 105.148 80.1602 105.48 80.3814 105.701C80.6578 105.978 80.9342 106.144 81.2659 106.309C81.6529 106.475 82.0399 106.586 82.4821 106.696C82.8138 106.752 83.1455 106.807 83.4772 106.807C83.6431 106.807 83.8642 106.807 84.0301 106.807C84.1959 106.807 84.4171 106.807 84.5829 106.807H84.8593C85.0252 106.807 85.1911 106.752 85.3569 106.752L85.7439 106.696L86.0203 106.641C86.2967 106.586 86.5732 106.475 86.8496 106.365C87.126 106.254 87.3471 106.033 87.513 105.757C87.5683 105.48 87.6235 105.204 87.5683 104.872Z" fill="#1471D0"/>
<path id="Vector_14" d="M86.242 249.163H81.1006V267.628H86.242V249.163Z" fill="#AFB6BC" stroke="#043866" stroke-miterlimit="10" stroke-linecap="round"/>
<path id="Vector_15" d="M88.7298 267.628H78.5576V270.447H88.7298V267.628Z" fill="#AFB6BC" stroke="#043866" stroke-miterlimit="10" stroke-linecap="round"/>
<path id="Vector_16" d="M114.27 267.075H88.7285V271H114.27V267.075Z" fill="#043866" stroke="#043866" stroke-miterlimit="10" stroke-linecap="round"/>
<path id="Vector_17" d="M78.5568 267.075H53.0156V271H78.5568V267.075Z" fill="#043866" stroke="#043866" stroke-miterlimit="10" stroke-linecap="round"/>
<path id="Vector_18" d="M67.1637 180.585C69.6683 183.861 70.6821 186.409 70.9207 188.654C71.1592 190.898 70.6821 192.779 70.0261 194.66C69.9069 195.024 69.7876 195.327 69.6683 195.691C69.1316 197.269 68.5353 198.907 68.2968 200.727C67.9986 202.971 68.2968 205.459 69.7876 208.553C72.829 214.923 72.2923 222.506 69.1913 228.33C66.0903 234.154 60.4249 238.28 53.0302 237.855C45.6355 237.43 40.6262 233.608 38.1812 228.33C35.7362 223.052 35.7958 216.257 38.7179 209.766L38.4197 209.645L38.7179 209.766C41.5207 203.517 41.1629 198.967 40.8051 194.842C40.8051 194.538 40.7455 194.174 40.7455 193.871C40.5666 191.687 40.507 189.685 40.984 187.501C41.4611 185.378 42.5345 183.133 44.6814 180.524C46.9475 177.855 51.2412 176.156 55.7138 175.974C60.1864 175.853 64.659 177.248 67.1637 180.585Z" fill="#F48E9F" stroke="#043866" stroke-linecap="round"/>
<g id="Group">
<g id="Group_2">
<path id="Vector_19" d="M47.7921 184.546C48.2604 184.546 48.6507 183.999 48.6507 183.297C48.6507 182.595 48.2604 182.048 47.7921 182.048C47.3238 182.048 46.9336 182.595 46.9336 183.297C46.9336 183.999 47.3238 184.546 47.7921 184.546Z" fill="#043866"/>
<path id="Vector_20" d="M52.7093 184.546C53.1776 184.546 53.5678 183.999 53.5678 183.297C53.5678 182.595 53.1776 182.048 52.7093 182.048C52.241 182.048 51.8508 182.595 51.8508 183.297C51.7727 183.999 52.163 184.546 52.7093 184.546Z" fill="#043866"/>
</g>
</g>
<path id="Vector_21" d="M114.515 179.046C117.87 181.398 119.487 183.509 120.206 185.559C120.925 187.61 120.745 189.6 120.386 191.651C120.326 192.073 120.206 192.495 120.146 192.918C119.847 194.606 119.487 196.355 119.547 198.225C119.607 200.577 120.326 203.05 122.363 205.824C126.556 211.433 127.514 218.912 125.597 225.245C123.681 231.578 118.828 236.704 111.52 237.669C104.152 238.695 98.4608 235.981 95.0462 231.276C91.6317 226.572 90.3737 219.938 92.051 213.062C93.6085 206.428 92.3505 202.025 91.2722 198.104C91.1524 197.803 91.0925 197.501 91.0326 197.2C90.4336 195.149 89.9543 193.159 90.0741 190.988C90.134 188.816 90.793 186.404 92.4104 183.509C95.7651 177.357 105.29 172.592 114.515 179.046Z" fill="#1471D0" stroke="#043866" stroke-linecap="round"/>
<g id="Group_3">
<g id="Group_4">
<path id="Vector_22" d="M95.8898 187.863C96.358 187.863 96.7483 187.317 96.7483 186.614C96.7483 185.912 96.358 185.365 95.8898 185.365C95.4215 185.365 95.0312 185.912 95.0312 186.614C95.0312 187.317 95.4215 187.863 95.8898 187.863Z" fill="white"/>
<path id="Vector_23" d="M100.807 187.863C101.275 187.863 101.665 187.317 101.665 186.614C101.665 185.912 101.275 185.365 100.807 185.365C100.338 185.365 99.9482 185.912 99.9482 186.614C99.9482 187.317 100.338 187.863 100.807 187.863Z" fill="white"/>
</g>
</g>
<g id="Group_5">
<path id="Vector_24" d="M18.7948 243.082C26.811 258.285 39.5815 265.306 58.1569 265.085C68.108 264.974 70.0429 260.717 82.3712 260.994C95.5288 261.27 96.9109 266.08 107.857 266.19C124.553 266.301 137.102 255.244 141.027 251.761C147.274 246.288 155.678 238.88 156.009 227.823C156.286 217.485 149.265 210.022 144.621 205.102C142.41 202.724 130.026 189.567 111.561 188.627C97.132 187.853 95.1971 195.372 78.4461 195.095C64.6251 194.819 63.2983 189.18 51.5229 190.396C44.2254 191.17 31.0125 191.944 20.7297 206.263C12.3266 217.927 13.2664 232.578 18.7948 243.082ZM101.223 214.887C109.018 212.288 119.19 214.002 121.954 218.536C124 221.908 121.512 226.054 116.703 228.652C110.013 232.191 101.942 230.919 101.389 230.864C100.394 230.698 94.9207 229.758 92.8752 226.662C90.3874 222.792 94.0914 217.264 101.223 214.887ZM43.7831 220.636C46.9896 217.762 52.9603 217.319 54.6188 217.209C55.7244 217.098 65.4544 216.49 69.2137 220.968C71.8673 224.119 70.5958 228.542 65.7861 231.085C59.539 234.402 50.1408 233.075 45.718 230.145C42.2904 227.934 40.2449 223.788 43.7831 220.636Z" fill="#FFB35C" stroke="#043866" stroke-miterlimit="10" stroke-linecap="round"/>
<path id="Vector_25" d="M124.553 244.851C124.719 244.685 124.94 244.574 125.106 244.408C126.985 242.75 127.759 239.156 124.498 238.438C122.176 237.94 118.803 239.765 116.868 240.925C115.044 242.031 113.054 242.916 111.285 244.077C110.456 244.63 109.626 245.238 109.239 246.177C109.073 246.62 109.018 247.117 109.073 247.56C109.129 248.057 109.295 248.499 109.571 248.886C111.285 251.153 113.994 250.158 116.15 249.384C119.135 248.334 122.065 246.841 124.553 244.851Z" fill="#66CCB4" stroke="#043866" stroke-miterlimit="10" stroke-linecap="round"/>
<path id="Vector_26" d="M128.313 208.806C129.474 208.087 130.027 206.373 129.695 205.046C129.308 203.609 127.705 202.835 126.544 202.006C124.664 200.679 122.784 199.407 120.794 198.246C119.412 197.417 117.754 196.09 116.095 196.09C113.442 196.146 110.456 198.855 112.391 201.508C113.276 202.724 114.879 203.72 116.04 204.604C117.588 205.765 119.246 206.815 120.905 207.811C123.393 209.248 125.604 210.464 128.313 208.806Z" fill="#66CCB4" stroke="#043866" stroke-miterlimit="10" stroke-linecap="round"/>
<path id="Vector_27" d="M77.1741 207.755C76.0684 210.464 73.5253 209.856 69.3238 208.142C65.5645 206.594 61.2523 205.765 60.2572 204.106C59.2621 202.503 59.4832 199.131 63.519 198.689C66.449 198.357 72.4749 201.398 74.7416 203.001C76.9529 204.604 77.8928 205.876 77.1741 207.755Z" fill="#66CCB4" stroke="#043866" stroke-miterlimit="10" stroke-linecap="round"/>
<path id="Vector_28" d="M78.6121 239.101C77.4511 236.392 74.8528 237.111 70.7618 238.991C67.0577 240.649 62.8009 241.699 61.8611 243.358C60.9212 245.016 61.3082 248.389 65.3439 248.665C68.274 248.886 74.1894 245.625 76.4007 243.911C78.6121 242.197 79.386 240.925 78.6121 239.101Z" fill="#66CCB4" stroke="#043866" stroke-miterlimit="10" stroke-linecap="round"/>
</g>
</g>
<defs>
<filter id="filter0_d_444_10183" x="0.5" y="0.441284" width="176.452" height="291.059" filterUnits="userSpaceOnUse" color-interpolation-filters="sRGB">
<feFlood flood-opacity="0" result="BackgroundImageFix"/>
<feColorMatrix in="SourceAlpha" type="matrix" values="0 0 0 0 0 0 0 0 0 0 0 0 0 0 0 0 0 0 127 0" result="hardAlpha"/>
<feOffset dx="5" dy="5"/>
<feGaussianBlur stdDeviation="7.5"/>
<feComposite in2="hardAlpha" operator="out"/>
<feColorMatrix type="matrix" values="0 0 0 0 0 0 0 0 0 0 0 0 0 0 0 0 0 0 0.15 0"/>
<feBlend mode="normal" in2="BackgroundImageFix" result="effect1_dropShadow_444_10183"/>
<feBlend mode="normal" in="SourceGraphic" in2="effect1_dropShadow_444_10183" result="shape"/>
</filter>
</defs>
</svg>
