<svg width="260" height="294" viewBox="0 0 260 294" fill="none" xmlns="http://www.w3.org/2000/svg">
<g id="river float" filter="url(#filter0_d_444_10263)">
<path id="float" d="M34.4262 83.5031C22.4484 112.405 27.2625 137.405 48.7447 161.13C60.2058 173.787 68.298 171.202 81.889 187.375C96.4427 204.69 91.3451 212.324 103.705 226.569C122.546 248.285 152.068 250.967 161.395 251.805C176.099 253.138 195.897 254.947 211.521 241.914C226.193 229.665 228.544 211.489 230.095 199.483C230.841 193.703 234.987 161.655 215.355 136.668C200.032 117.163 187.387 123.832 168.778 101.859C153.408 83.7197 159.795 75.0768 144.671 61.4218C135.29 52.9526 119.166 36.8398 87.7152 41.033C61.9211 44.4356 42.711 63.549 34.4262 83.5031ZM165.147 157.758C178.862 163.306 186.08 180.733 179.548 193.617C174.696 203.191 163.307 208.169 152.835 206.653C138.305 204.549 132.383 190.931 131.997 189.995C131.283 188.275 127.424 178.949 131.805 169.83C137.192 158.624 152.596 152.665 165.168 157.747L165.147 157.758ZM92.2666 90.1298C101.577 88.8007 108.864 96.0946 110.894 98.1334C112.258 99.5069 123.867 111.584 118.507 125.815C114.763 135.736 104.18 142.891 93.6838 141.382C80.0968 139.428 72.9585 123.878 74.3563 111.92C75.4351 102.786 81.9417 91.6028 92.2883 90.1183L92.2666 90.1298Z" fill="#F9B84E" stroke="#043866" stroke-miterlimit="10"/>
<path id="Vector" d="M138.854 240.51C139.289 240.585 139.724 240.648 140.154 240.704C144.775 241.293 150.651 237.91 147.669 232.581C145.511 228.718 138.881 226.357 134.892 225.082C131.153 223.89 127.506 222.21 123.655 221.194C121.889 220.73 119.994 220.357 118.26 220.938C117.422 221.233 116.673 221.736 116.084 222.401C115.494 223.066 115.084 223.87 114.892 224.738C113.813 229.881 118.521 232.405 122.236 234.422C127.422 237.238 133.013 239.539 138.854 240.51Z" fill="#1471D0" stroke="#043866" stroke-miterlimit="10"/>
<path id="Vector_2" d="M208.033 188.89C210.468 189.661 213.492 188.282 214.9 186.209C216.417 183.984 215.52 180.703 215.277 178.088C214.892 173.873 214.304 169.684 213.513 165.522C212.969 162.644 212.8 158.692 210.741 156.419C207.447 152.786 200.078 151.999 198.723 157.89C198.125 160.545 198.656 164.048 198.92 166.774C199.25 170.35 199.774 173.913 200.447 177.441C201.435 182.515 202.413 187.111 208.033 188.89Z" fill="#1471D0" stroke="#043866" stroke-miterlimit="10"/>
<path id="Vector_3" d="M149.03 114.922C143.931 116.752 141.625 112.422 138.863 104.544C136.406 97.5004 132.317 90.4223 133.348 87.0745C134.38 83.7267 139.318 79.9174 144.843 84.9965C148.817 88.6517 152.085 100.719 152.575 105.769C153.066 110.818 152.475 113.687 149.03 114.922Z" fill="#1471D0" stroke="#043866" stroke-miterlimit="10"/>
<path id="Vector_4" d="M90.6936 169.865C92.9588 164.943 88.8493 162.268 81.2429 158.834C74.4307 155.774 67.7447 151.078 64.3203 151.818C60.8958 152.557 56.6698 157.141 61.2499 163.09C64.5462 167.366 76.2852 171.654 81.2662 172.598C86.2473 173.541 89.154 173.199 90.6936 169.865Z" fill="#1471D0" stroke="#043866" stroke-miterlimit="10"/>
<path id="Vector_5" d="M185.001 177.253L185.001 177.253L185.004 177.263C186.286 180.893 186.795 184.751 186.499 188.589C185.868 195.068 183.074 199.736 179.025 202.915C174.962 206.105 169.604 207.821 163.826 208.316C152.252 209.308 139.179 205.386 131.893 198.913C123.168 191.154 118.806 178.384 122.184 167.27L122.184 167.27L122.186 167.263C122.912 164.754 124.108 162.406 125.71 160.344C127.753 157.797 130.51 155.914 133.318 154.037L133.318 154.036C141.355 148.654 151.208 144.304 160.428 148.593C164.5 150.51 168.858 154.003 172.805 158.195C178.358 164.097 183.031 171.308 185.001 177.253Z" fill="#F48E9F" stroke="#043866"/>
<g id="staring eyes" clip-path="url(#clip0_444_10263)">
<path id="Vector_6" d="M137.782 171.539C136.902 172.038 136.756 173.443 137.455 174.676C138.155 175.909 139.435 176.504 140.315 176.005C141.195 175.506 141.341 174.102 140.642 172.868C139.942 171.635 138.662 171.04 137.782 171.539Z" fill="#043866"/>
<path id="Vector_7" d="M128.817 176.628C127.937 177.127 127.791 178.531 128.49 179.764C129.19 180.998 130.47 181.593 131.35 181.094C132.23 180.594 132.376 179.19 131.677 177.957C130.977 176.724 129.697 176.129 128.817 176.628Z" fill="#043866"/>
</g>
<path id="Vector_8" d="M81.2907 144.469L81.2909 144.469C99.388 146.459 118.172 135.097 124.826 118.135C129.346 106.607 128.277 96.4339 123.937 87.4611C119.587 78.4679 111.939 70.6585 103.266 63.9204L103.266 63.9204C101.65 62.6642 100.029 61.3579 98.3973 60.043C92.4097 55.2179 86.2787 50.2773 79.7228 47.2764C75.5684 45.3747 71.2716 44.2684 66.7676 44.4716C62.2669 44.6747 57.5246 46.1868 52.4785 49.5754C42.6646 56.1704 37.055 68.9385 39.3858 80.5892C40.8322 87.8189 44.7781 94.054 49.0771 100.279C49.6029 101.04 50.1341 101.802 50.6665 102.565C54.4686 108.014 58.3295 113.548 60.6813 119.751M81.2907 144.469L60.2137 119.928M81.2907 144.469C77.3715 144.039 73.4513 142.996 70.4432 140.601M81.2907 144.469L70.1316 140.992M60.6813 119.751L60.2137 119.928M60.6813 119.751C60.6812 119.751 60.6811 119.751 60.6811 119.751L60.2137 119.928M60.6813 119.751C61.389 121.612 61.9784 123.559 62.5573 125.494C62.5871 125.593 62.6169 125.693 62.6467 125.792C63.1967 127.632 63.7423 129.456 64.3809 131.21C65.7276 134.908 67.4668 138.23 70.4432 140.601M60.2137 119.928C60.9507 121.866 61.5596 123.902 62.169 125.94C63.8763 131.649 65.5878 137.372 70.1316 140.992M70.4432 140.601C70.4431 140.601 70.4431 140.601 70.4431 140.601L70.1316 140.992M70.4432 140.601L70.1316 140.992" fill="#66CCB4" stroke="#043866"/>
<g id="smiley eyes" clip-path="url(#clip1_444_10263)">
<path id="Vector_9" d="M54.8395 74.0984C54.4534 73.5366 54.2664 72.8582 54.3097 72.1762C54.3531 71.4943 54.6242 70.8501 55.0777 70.3513C55.5313 69.8525 56.1399 69.5293 56.8019 69.4356C57.4639 69.3418 58.1392 69.4832 58.7152 69.8363" stroke="#043866" stroke-miterlimit="10" stroke-linecap="round"/>
<path id="Vector_10" d="M63.0054 65.5011C62.6266 64.9384 62.4452 64.2624 62.4912 63.5841C62.5371 62.9057 62.8076 62.2654 63.2581 61.7684C63.7087 61.2714 64.3126 60.9473 64.9706 60.8492C65.6286 60.751 66.3015 60.8848 66.8789 61.2285" stroke="#043866" stroke-miterlimit="10" stroke-linecap="round"/>
</g>
</g>
<defs>
<filter id="filter0_d_444_10263" x="17.5127" y="29.8489" width="233.956" height="243.382" filterUnits="userSpaceOnUse" color-interpolation-filters="sRGB">
<feFlood flood-opacity="0" result="BackgroundImageFix"/>
<feColorMatrix in="SourceAlpha" type="matrix" values="0 0 0 0 0 0 0 0 0 0 0 0 0 0 0 0 0 0 127 0" result="hardAlpha"/>
<feOffset dx="5" dy="5"/>
<feGaussianBlur stdDeviation="7.5"/>
<feComposite in2="hardAlpha" operator="out"/>
<feColorMatrix type="matrix" values="0 0 0 0 0 0 0 0 0 0 0 0 0 0 0 0 0 0 0.15 0"/>
<feBlend mode="normal" in2="BackgroundImageFix" result="effect1_dropShadow_444_10263"/>
<feBlend mode="normal" in="SourceGraphic" in2="effect1_dropShadow_444_10263" result="shape"/>
</filter>
<clipPath id="clip0_444_10263">
<rect width="13.9722" height="5.12091" fill="white" transform="translate(141.909 175.103) rotate(150.438)"/>
</clipPath>
<clipPath id="clip1_444_10263">
<rect width="17.8645" height="13.9799" fill="white" transform="matrix(0.980511 -0.195954 0.195433 0.980814 50.6016 62.0774)"/>
</clipPath>
</defs>
</svg>
