<svg width="264" height="303" viewBox="0 0 264 303" fill="none" xmlns="http://www.w3.org/2000/svg">
<g id="speed racer" clip-path="url(#clip0_444_10280)" filter="url(#filter0_d_444_10280)">
<g id="Group 41">
<path id="Vector" d="M165.244 23.8356L165.244 23.8356L165.247 23.8344C166.802 23.13 168.76 23.1486 170.656 23.6616C172.55 24.1738 174.311 25.1604 175.447 26.2984C176.952 27.818 178.035 29.6444 179.099 31.5573C179.223 31.7797 179.347 32.0035 179.471 32.2281C180.404 33.9177 181.362 35.6525 182.603 37.1945C185.206 40.4335 188.709 42.7342 192.175 44.9572C192.312 45.0448 192.448 45.1323 192.585 45.2197C195.934 47.3659 199.219 49.4704 201.766 52.3281C203.73 54.5452 205.2 57.2399 205.339 60.0852L205.339 60.0854C205.462 62.5688 204.622 64.4737 203.193 65.7747C201.753 67.0849 199.672 67.8213 197.258 67.8632L197.257 67.8632C193.353 67.9363 191.201 65.7736 188.517 63.0761C188.185 62.7419 187.844 62.3995 187.491 62.0521L187.491 62.052C179.663 54.3576 172.791 45.8043 165.923 37.2543L165.909 37.2374L165.908 37.2359C164.43 35.4104 162.945 33.284 162.302 31.1268C161.67 29.0052 161.856 26.8773 163.696 24.9316L163.696 24.9314C164.132 24.47 164.658 24.0973 165.244 23.8356ZM197.268 68.3631C202.281 68.2761 206.097 65.3017 205.839 60.062L197.268 68.3631Z" fill="#1471D0" stroke="#043866"/>
<g id="smiley eyes" clip-path="url(#clip1_444_10280)">
<path id="Vector_2" d="M197.864 56.6391C198.044 56.5214 198.26 56.4677 198.477 56.4871C198.693 56.5065 198.896 56.5977 199.052 56.7456C199.208 56.8935 199.307 57.0891 199.333 57.2998C199.359 57.5104 199.311 57.7233 199.196 57.903" stroke="white" stroke-width="0.667333" stroke-miterlimit="10" stroke-linecap="round"/>
<path id="Vector_3" d="M200.549 59.2987C200.73 59.1833 200.946 59.1314 201.161 59.1516C201.376 59.1717 201.578 59.2628 201.733 59.4097C201.888 59.5566 201.988 59.7508 202.016 59.9602C202.043 60.1695 201.997 60.3818 201.885 60.562" stroke="white" stroke-width="0.667333" stroke-miterlimit="10" stroke-linecap="round"/>
</g>
<path id="Vector_4" d="M205.837 70.3743L209.56 74.5823L208.111 76.8082L203.903 72.027C202.971 70.9678 202.506 69.5908 202.612 68.1988C202.718 66.8067 203.385 65.5136 204.468 64.6037L208.922 60.8637L209.522 63.6828L206.147 66.5207C205.867 66.7559 205.637 67.0429 205.47 67.3652C205.304 67.6876 205.204 68.0389 205.177 68.3992C205.149 68.7595 205.195 69.1215 205.311 69.4647C205.427 69.8079 205.612 70.1254 205.854 70.3991L205.837 70.3743Z" fill="#F9D43A" stroke="#043866" stroke-miterlimit="10"/>
<path id="Vector_5" d="M207.082 86.2736C205.473 86.3016 203.803 85.6577 202.31 84.3726C188.06 72.0975 153.863 30.3984 148.569 23.9162C148.399 23.7073 148.322 23.4413 148.353 23.1767C148.384 22.9122 148.521 22.6705 148.734 22.5049L153.172 19.0638C153.385 18.8993 153.656 18.8238 153.926 18.8539C154.196 18.884 154.443 19.0171 154.614 19.2243C159.462 25.1577 190.561 63.0246 205.268 76.7883C205.398 76.9092 205.557 76.9951 205.731 77.0375C205.904 77.08 206.086 77.0775 206.259 77.0304C206.431 76.9833 206.587 76.8932 206.713 76.7689C206.838 76.6446 206.929 76.4905 206.975 76.3217C207.49 74.2754 207.821 72.1888 207.965 70.0857C208.306 65.8449 208.107 61.9844 207.704 59.8377C207.656 59.5916 207.704 59.3371 207.839 59.1241C207.973 58.9112 208.185 58.7552 208.431 58.687L213.892 57.1617C214.028 57.1216 214.171 57.1095 214.312 57.1263C214.454 57.1431 214.59 57.1884 214.712 57.2593C214.834 57.3302 214.941 57.4251 215.024 57.5381C215.106 57.6511 215.165 57.7797 215.194 57.9157C216.008 61.6523 216.004 67.2706 215.601 71.4937C214.887 78.995 213.097 83.5314 210.124 85.3657C209.216 85.9379 208.163 86.2523 207.082 86.2736Z" fill="#F9D43A" stroke="#043866" stroke-miterlimit="10"/>
</g>
<g id="Vector_6">
<path d="M37.4512 -88.7213C72.3764 -88.7213 395.435 315.628 456.758 392.468C541.413 486.026 608.877 486.025 641.714 486.025H862.367V507.411H592.484C546.015 507.411 491.955 474.281 433.841 403.567C386.873 346.409 49.9363 -63.5043 37.4512 -63.5043" fill="#F48E9F"/>
<path d="M37.4512 -88.7213C72.3764 -88.7213 395.435 315.628 456.758 392.468C541.413 486.025 608.877 486.025 641.714 486.025H862.367V507.411H592.484C546.015 507.411 491.955 474.281 433.841 403.567C386.873 346.409 49.9363 -63.5043 37.4512 -63.5043" stroke="#043866" stroke-miterlimit="10"/>
</g>
<g id="Group 40">
<path id="Vector_7" d="M144.823 29.9057L144.823 29.905C144.745 29.7834 144.668 29.6619 144.591 29.5405C143.235 27.405 141.914 25.325 140.003 23.8287L144.823 29.9057ZM144.823 29.9057C147.261 33.722 149.926 37.4866 153.26 40.6598C156.568 43.8077 160.46 46.3039 164.296 48.7644C164.764 49.0652 165.233 49.3655 165.699 49.6663C169.997 52.4405 174.136 55.2708 177.35 59.0652C178.702 60.6656 179.801 62.475 179.599 64.3311L179.599 64.333M144.823 29.9057L179.599 64.333M179.599 64.333C179.428 65.9568 178.218 67.4242 176.659 68.2082C175.104 68.9908 173.237 69.1581 171.42 68.9641C165.852 68.3689 161.117 64.7273 156.871 60.8939C147.971 52.8577 140.122 43.7784 133.503 33.8629L133.503 33.8621M179.599 64.333L133.503 33.8621M133.503 33.8621C132.446 32.286 131.802 30.482 131.626 28.6087C131.543 27.669 131.603 26.7226 131.806 25.8006M133.503 33.8621L131.806 25.8006M131.806 25.8006C132.295 23.6151 133.56 22.5625 135.035 22.2985C136.554 22.0267 138.397 22.5746 140.003 23.8284L131.806 25.8006Z" fill="#66CCB4" stroke="#043866"/>
<g id="staring eyes" clip-path="url(#clip2_444_10280)">
<path id="Vector_8" d="M172.285 61.1668C172.599 61.4668 173.202 61.3617 173.632 60.9321C174.061 60.5025 174.155 59.911 173.84 59.611C173.526 59.3111 172.923 59.4161 172.494 59.8457C172.064 60.2754 171.971 60.8668 172.285 61.1668Z" fill="#043866"/>
<path id="Vector_9" d="M175.488 64.2237C175.802 64.5237 176.405 64.4186 176.835 63.989C177.264 63.5594 177.358 62.9679 177.044 62.6679C176.729 62.3679 176.126 62.473 175.697 62.9026C175.267 63.3322 175.174 63.9237 175.488 64.2237Z" fill="#043866"/>
</g>
<path id="Vector_10" d="M179.468 72.3978L183.175 76.6061L181.725 78.8163L177.517 74.035C176.585 72.9759 176.12 71.5989 176.226 70.2068C176.332 68.8148 176.999 67.5217 178.082 66.6118L182.536 62.8717L183.136 65.6909L179.761 68.5287C179.198 69.0035 178.851 69.6774 178.796 70.4027C178.741 71.128 178.982 71.8455 179.468 72.3978Z" fill="#1471D0" stroke="#043866" stroke-miterlimit="10"/>
<path id="Vector_11" d="M180.706 88.2847C179.097 88.3126 177.427 87.6688 175.934 86.3837C161.684 74.1086 127.503 32.4092 122.193 25.9179C122.023 25.7094 121.946 25.4439 121.977 25.1799C122.008 24.9158 122.145 24.6747 122.358 24.5096L126.796 21.0686C127.009 20.9041 127.28 20.8286 127.55 20.8587C127.82 20.8887 128.067 21.0219 128.237 21.229C133.086 27.1624 164.185 65.0294 178.892 78.7931C179.022 78.9139 179.181 78.9998 179.355 79.0423C179.528 79.0847 179.71 79.0823 179.883 79.0352C180.055 78.9881 180.211 78.898 180.337 78.7737C180.462 78.6494 180.553 78.4952 180.599 78.3264C181.114 76.2801 181.445 74.1936 181.589 72.0905C181.93 67.8496 181.731 63.9891 181.328 61.8425C181.28 61.5964 181.328 61.3418 181.463 61.1289C181.597 60.9159 181.809 60.76 182.055 60.6917L187.516 59.1665C187.652 59.1263 187.795 59.1143 187.936 59.1311C188.078 59.1479 188.214 59.1932 188.336 59.2641C188.459 59.3349 188.565 59.4299 188.648 59.5429C188.731 59.6559 188.789 59.7844 188.818 59.9204C189.632 63.657 189.628 69.2754 189.225 73.4984C188.511 80.9998 186.721 85.5362 183.748 87.3704C182.841 87.9449 181.788 88.2614 180.706 88.2847Z" fill="#1471D0" stroke="#043866" stroke-miterlimit="10"/>
</g>
<g id="Vector_12">
<path d="M7.34277 -88.7213C42.268 -88.7213 365.326 315.628 426.65 392.468C511.305 486.026 578.769 486.025 611.606 486.025H862.367V507.411H562.376C515.906 507.411 461.847 474.281 403.733 403.567C356.764 346.409 19.8279 -63.5043 7.34277 -63.5043" fill="#F9D43A"/>
<path d="M7.34277 -88.7213C42.268 -88.7213 365.326 315.628 426.65 392.468C511.305 486.025 578.769 486.025 611.606 486.025H862.367V507.411H562.376C515.906 507.411 461.847 474.281 403.733 403.567C356.764 346.409 19.8279 -63.5043 7.34277 -63.5043" stroke="#043866" stroke-miterlimit="10"/>
</g>
<g id="Group 39">
<path id="Vector_13" d="M143.683 82.9722L143.682 82.9713C139.876 77.5425 136.871 71.6192 134.754 65.3754C134.708 65.2366 134.66 65.0936 134.61 64.9468C134.211 63.7633 133.729 62.3356 133.508 60.9289C133.257 59.3347 133.366 57.9099 134.168 56.932C135.687 55.0925 137.681 54.8323 139.83 55.3246C142.006 55.8231 144.246 57.0781 146.105 58.1574C151.07 61.0489 155.503 64.5519 159.947 68.0866L159.947 68.0871C160.584 68.5921 161.253 69.1154 161.944 69.6559C166.156 72.9507 171.182 76.8828 174.729 81.2061C176.79 83.7175 178.319 86.3242 178.907 88.9748C179.49 91.6069 179.152 94.3096 177.429 97.0576L177.429 97.0578C175.931 99.4506 173.367 100.864 170.425 101.383C167.481 101.902 164.201 101.516 161.352 100.352L161.352 100.351C160.097 99.8384 158.699 99.2091 157.419 98.4618C156.133 97.7116 154.995 96.8597 154.234 95.9126C152.755 94.0724 151.255 92.2736 149.645 90.4816L149.645 90.4814C147.502 88.0998 145.51 85.592 143.683 82.9722Z" fill="#F48E9F" stroke="#043866"/>
<g id="smiley eyes_2" clip-path="url(#clip3_444_10280)">
<path id="Vector_14" d="M170.637 87.9302C170.931 87.8114 171.258 87.7948 171.564 87.8834C171.87 87.9719 172.135 88.1601 172.316 88.4166C172.497 88.6732 172.582 88.9824 172.558 89.2928C172.534 89.6032 172.402 89.8958 172.183 90.122" stroke="#043866" stroke-width="1.05" stroke-miterlimit="10" stroke-linecap="round"/>
<path id="Vector_15" d="M173.72 92.5094C174.014 92.3941 174.339 92.3799 174.643 92.4692C174.947 92.5585 175.211 92.7461 175.391 93.0011C175.571 93.256 175.658 93.5633 175.636 93.8723C175.614 94.1812 175.485 94.4736 175.271 94.7014" stroke="#043866" stroke-width="1.05" stroke-miterlimit="10" stroke-linecap="round"/>
</g>
<path id="Vector_16" d="M177.227 105.166L180.934 109.368L179.485 111.594L175.277 106.813C174.344 105.754 173.88 104.377 173.986 102.985C174.092 101.593 174.759 100.3 175.842 99.3898L180.296 95.6498L180.896 98.469L177.521 101.307C177.241 101.542 177.011 101.829 176.844 102.151C176.678 102.474 176.578 102.825 176.551 103.185C176.523 103.546 176.569 103.908 176.685 104.251C176.801 104.594 176.986 104.912 177.228 105.185L177.227 105.166Z" fill="#66CCB4" stroke="#043866" stroke-miterlimit="10"/>
<path id="Vector_17" d="M178.471 121.066C176.863 121.094 175.192 120.45 173.699 119.165C159.45 106.89 125.252 65.1905 119.958 58.7052C119.789 58.4963 119.711 58.2303 119.742 57.9657C119.773 57.7012 119.91 57.4595 120.124 57.2939L124.561 53.8559C124.774 53.6906 125.045 53.6147 125.316 53.6448C125.586 53.6749 125.833 53.8085 126.003 54.0164C130.852 59.9498 161.951 97.8136 176.661 111.577C176.791 111.698 176.95 111.784 177.123 111.827C177.297 111.869 177.478 111.867 177.65 111.82C177.822 111.773 177.979 111.682 178.104 111.558C178.229 111.434 178.319 111.279 178.364 111.111C178.88 109.064 179.211 106.978 179.355 104.875C179.699 100.637 179.497 96.7765 179.094 94.6299C179.047 94.3835 179.096 94.1292 179.23 93.9161C179.365 93.703 179.575 93.5462 179.821 93.476L185.281 91.9507C185.418 91.9116 185.561 91.9004 185.702 91.9178C185.843 91.9352 185.979 91.9809 186.101 92.052C186.223 92.123 186.33 92.218 186.413 92.3308C186.496 92.4437 186.554 92.572 186.584 92.7078C187.398 96.4413 187.393 102.063 186.991 106.286C186.28 113.787 184.487 118.324 181.514 120.158C180.606 120.73 179.553 121.044 178.471 121.066Z" fill="#66CCB4" stroke="#043866" stroke-miterlimit="10"/>
</g>
<g id="Vector_18">
<path d="M-22.7646 -88.7213C12.1606 -88.7213 335.219 315.628 396.542 392.468C481.197 486.026 548.661 486.025 581.499 486.025H862.367V507.411H532.269C485.799 507.411 431.739 474.281 373.625 403.567C326.657 346.409 -10.2795 -63.5043 -22.7646 -63.5043" fill="#1471D0"/>
<path d="M-22.7646 -88.7213C12.1606 -88.7213 335.219 315.628 396.542 392.468C481.197 486.025 548.661 486.025 581.499 486.025H862.367V507.411H532.269C485.799 507.411 431.739 474.281 373.625 403.567C326.657 346.409 -10.2795 -63.5043 -22.7646 -63.5043" stroke="#043866" stroke-miterlimit="10"/>
</g>
<g id="Group 38">
<path id="Vector_19" d="M70.9174 21.7285L70.9174 21.7285L94.8481 32.4437L94.4556 32.7525C94.4557 32.7526 94.4558 32.7528 94.4559 32.7529C98.3629 37.713 103.525 43.4396 109.95 45.5012C110.71 45.746 111.491 45.9292 112.249 46.1067C112.373 46.136 112.497 46.165 112.621 46.1942C113.502 46.403 114.348 46.6183 115.149 46.9338L115.15 46.9344C118.17 48.1119 120.269 50.7887 121.168 53.8826C122.067 56.9779 121.746 60.433 119.994 63.122C116.463 68.5417 108.397 70.3439 102.368 67.5657C99.6101 66.2941 97.2836 64.2554 95.0152 62.1264L95.0146 62.1258C88.925 56.4301 83.2922 50.286 78.1661 43.7481C77.5835 43.0025 76.936 42.2165 76.2601 41.3961C74.4905 39.2483 72.5266 36.8648 71.0277 34.3533C68.9596 30.8881 67.8901 27.356 69.3792 24.063C69.7689 23.2141 70.2873 22.4271 70.9174 21.7285ZM115.331 46.4687C121.714 48.9579 124.099 57.7385 120.413 63.3956C116.727 69.0527 108.38 70.886 102.16 68.0197L115.331 46.4687Z" fill="#F9D43A" stroke="#043866"/>
<g id="smiley eyes_3" clip-path="url(#clip4_444_10280)">
<path id="Vector_20" d="M112.559 52.5823C112.819 52.4127 113.13 52.3354 113.442 52.3633C113.753 52.3912 114.046 52.5226 114.27 52.7357C114.495 52.9487 114.638 53.2304 114.675 53.5338C114.713 53.8372 114.643 54.1438 114.477 54.4026" stroke="#043866" stroke-width="1.05" stroke-miterlimit="10" stroke-linecap="round"/>
<path id="Vector_21" d="M116.425 56.413C116.685 56.2467 116.995 56.172 117.305 56.201C117.615 56.2301 117.906 56.3612 118.129 56.5728C118.353 56.7845 118.497 57.0641 118.536 57.3656C118.576 57.6672 118.51 57.9729 118.348 58.2325" stroke="#043866" stroke-width="1.05" stroke-miterlimit="10" stroke-linecap="round"/>
</g>
<path id="Vector_22" d="M118.34 72.1624L122.048 76.3707L120.598 78.5809L116.396 73.787C115.464 72.7278 114.999 71.3509 115.105 69.9588C115.211 68.5668 115.878 67.2736 116.961 66.3637L121.415 62.6237L122.015 65.4428L118.64 68.2807C118.36 68.5159 118.13 68.8029 117.963 69.1253C117.797 69.4476 117.697 69.799 117.67 70.1592C117.643 70.5195 117.688 70.8816 117.805 71.2247C117.921 71.5679 118.105 71.8854 118.347 72.1591L118.34 72.1624Z" fill="#F48E9F" stroke="#043866" stroke-miterlimit="10"/>
<path id="Vector_23" d="M119.574 88.0495C117.965 88.0774 116.295 87.4336 114.799 86.1485C100.562 73.8732 66.365 32.1741 61.0741 25.6825C60.9895 25.5796 60.9266 25.4613 60.8891 25.3346C60.8516 25.2079 60.8401 25.0752 60.8555 24.9442C60.8709 24.8132 60.9127 24.6865 60.9786 24.5715C61.0444 24.4565 61.1331 24.3555 61.2393 24.2742L65.677 20.8332C65.8901 20.6687 66.1612 20.5932 66.4313 20.6233C66.7014 20.6533 66.9485 20.7865 67.1188 20.9936C71.9706 26.927 103.067 64.794 117.777 78.5576C117.906 78.6786 118.065 78.7646 118.239 78.8072C118.412 78.8497 118.594 78.8473 118.766 78.8002C118.938 78.753 119.094 78.6628 119.22 78.5384C119.345 78.4141 119.435 78.2598 119.48 78.091C119.997 76.045 120.328 73.9583 120.47 71.8551C120.814 67.6142 120.616 63.7537 120.213 61.607C120.165 61.3614 120.212 61.1072 120.346 60.8943C120.48 60.6814 120.691 60.5252 120.937 60.4564L126.4 58.931C126.536 58.8904 126.68 58.878 126.821 58.8945C126.963 58.9111 127.099 58.9563 127.221 59.0273C127.344 59.0983 127.45 59.1934 127.533 59.3067C127.616 59.4199 127.674 59.5487 127.703 59.685C128.52 63.4215 128.515 69.0399 128.113 73.2629C127.399 80.7643 125.606 85.3007 122.633 87.135C121.721 87.7125 120.662 88.0292 119.574 88.0495Z" fill="#F48E9F" stroke="#043866" stroke-miterlimit="10"/>
</g>
<g id="Vector_24">
<path d="M-52.873 -88.7213C-17.9478 -88.7213 305.11 315.628 366.434 392.468C451.089 486.026 518.553 486.025 551.39 486.025H862.508V507.411H502.16C455.691 507.411 401.631 474.281 343.517 403.567C296.549 346.409 -40.3879 -63.5043 -52.873 -63.5043" fill="#66CCB4"/>
<path d="M-52.873 -88.7213C-17.9478 -88.7213 305.11 315.628 366.434 392.468C451.089 486.025 518.553 486.025 551.39 486.025H862.508V507.411H502.16C455.691 507.411 401.631 474.281 343.517 403.567C296.549 346.409 -40.3879 -63.5043 -52.873 -63.5043" stroke="#043866" stroke-miterlimit="10"/>
</g>
</g>
<defs>
<filter id="filter0_d_444_10280" x="0" y="0" width="263.1" height="303" filterUnits="userSpaceOnUse" color-interpolation-filters="sRGB">
<feFlood flood-opacity="0" result="BackgroundImageFix"/>
<feColorMatrix in="SourceAlpha" type="matrix" values="0 0 0 0 0 0 0 0 0 0 0 0 0 0 0 0 0 0 127 0" result="hardAlpha"/>
<feOffset dx="5" dy="5"/>
<feGaussianBlur stdDeviation="7.5"/>
<feComposite in2="hardAlpha" operator="out"/>
<feColorMatrix type="matrix" values="0 0 0 0 0 0 0 0 0 0 0 0 0 0 0 0 0 0 0.15 0"/>
<feBlend mode="normal" in2="BackgroundImageFix" result="effect1_dropShadow_444_10280"/>
<feBlend mode="normal" in="SourceGraphic" in2="effect1_dropShadow_444_10280" result="shape"/>
</filter>
<clipPath id="clip0_444_10280">
<rect width="233.1" height="273" fill="white" transform="translate(10 10)"/>
</clipPath>
<clipPath id="clip1_444_10280">
<rect width="5.67139" height="4.43345" fill="white" transform="matrix(0.17924 0.984195 -0.985106 0.169803 201.702 55.3951)"/>
</clipPath>
<clipPath id="clip2_444_10280">
<rect width="5.99272" height="2.19708" fill="white" transform="matrix(0.724179 0.691373 -0.706237 0.706257 173.271 59.0679)"/>
</clipPath>
<clipPath id="clip3_444_10280">
<rect width="8.31802" height="6.50925" fill="white" transform="matrix(-0.021249 0.999675 -0.999857 -0.0218236 176.528 87.217)"/>
</clipPath>
<clipPath id="clip4_444_10280">
<rect width="8.16864" height="6.38562" fill="white" transform="matrix(0.179241 0.984195 -0.985106 0.169802 118.086 50.7905)"/>
</clipPath>
</defs>
</svg>
