<svg width="235" height="286" viewBox="0 0 235 286" fill="none" xmlns="http://www.w3.org/2000/svg">
<g id="tubbies" filter="url(#filter0_d_444_10220)">
<g id="tubby 4">
<path id="Vector" d="M165.819 51.7598C177.23 51.7598 181.405 53.4296 181.405 55.4855C181.405 57.5414 174.428 59.2079 165.819 59.2079C157.211 59.2079 150.233 57.5414 150.233 55.4855C150.233 53.4296 155.263 51.7598 165.819 51.7598ZM214.172 57.7691C214.152 57.4787 214.123 57.1883 214.086 56.8979C214.086 56.8022 214.063 56.7131 214.05 56.6207C214.052 56.6142 214.052 56.6074 214.05 56.6009C214.024 56.4161 213.997 56.2346 213.964 56.0531C213.931 55.8716 213.895 55.6604 213.855 55.4624C213.835 55.37 213.816 55.2776 213.793 55.1852C213.769 55.0961 213.75 55.0037 213.727 54.9113C213.68 54.7232 213.634 54.5351 213.581 54.3503L213.502 54.0698C213.472 53.9774 213.446 53.885 213.416 53.7926L213.324 53.5088C213.264 53.3339 213.205 53.1623 213.139 52.9907C213.037 52.7102 212.921 52.433 212.809 52.1558L212.69 51.8885C212.647 51.7961 212.608 51.707 212.565 51.6212C212.522 51.5354 212.489 51.4661 212.452 51.3869C212.452 51.3638 212.429 51.3407 212.416 51.3143C212.334 51.1526 212.248 50.9843 212.159 50.8259C212.112 50.7401 212.066 50.651 212.013 50.5652C211.961 50.4794 211.928 50.4101 211.885 50.3375C211.624 49.8953 211.34 49.4564 211.036 49.0175C210.918 48.8525 210.799 48.6875 210.68 48.5324C210.485 48.2783 210.284 48.0308 210.073 47.78C210.003 47.7008 209.937 47.6183 209.865 47.5391C209.71 47.3609 209.535 47.186 209.386 47.0144C209.33 46.9484 209.267 46.8857 209.205 46.823C209.036 46.6481 208.874 46.4732 208.683 46.2983C208.492 46.1234 208.409 46.0376 208.264 45.9056C208.119 45.7736 207.914 45.5756 207.732 45.4337C207.551 45.2918 207.386 45.14 207.204 44.9948L206.93 44.777L206.716 44.6087C206.504 44.447 206.29 44.2787 206.056 44.1302L205.818 43.9586C205.386 43.655 204.937 43.358 204.465 43.0676L204.21 42.9125L203.841 42.6914L203.511 42.5066C202.294 41.8164 201.039 41.1972 199.751 40.652C199.484 40.5365 199.213 40.4243 198.939 40.322C198.771 40.256 198.609 40.1933 198.434 40.124L197.682 39.8402C197.091 39.6257 196.48 39.4145 195.856 39.2099L195.387 39.0614L194.919 38.9162L194.519 38.7941L193.958 38.6324L193.466 38.4938L193.031 38.3783C192.344 38.1935 191.638 38.0186 190.912 37.847L190.38 37.7282C189.72 37.5764 189.031 37.4323 188.314 37.2959L187.73 37.1837L187.212 37.0913C186.591 36.9791 185.961 36.8702 185.317 36.7613L184.7 36.6656L183.429 36.4841L182.769 36.4016C181.471 36.2333 180.128 36.0716 178.738 35.9594L178.042 35.9C177.808 35.8769 177.57 35.8604 177.336 35.8406L176.623 35.7878L175.9 35.735L175.537 35.7119L174.929 35.6723C173.718 35.603 172.474 35.5436 171.203 35.504L170.45 35.4809H169.836L169.113 35.4644H168.925H168.153H167.849C167.466 35.4644 167.077 35.4644 166.684 35.4644H164.961C164.591 35.4644 164.222 35.4644 163.855 35.4644H163.588H162.888L162.152 35.4809L161.446 35.5007C160.614 35.5238 159.795 35.5568 158.99 35.5964L158.416 35.6261L157.713 35.6657L157.099 35.7053C156.144 35.7647 155.208 35.8362 154.293 35.9198C154.072 35.9363 153.851 35.9594 153.633 35.9792L152.973 36.0452C152.534 36.0881 152.101 36.1343 151.672 36.1838L150.722 36.296L150.279 36.3521L149.675 36.4313C149.081 36.5105 148.497 36.5952 147.923 36.6854H147.893C147.31 36.7734 146.733 36.868 146.163 36.9692L145.546 37.0814L144.487 37.2827L144.394 37.3025C144.014 37.3751 143.638 37.4543 143.269 37.5335C142.711 37.6523 142.163 37.7744 141.618 37.9064C141.437 37.946 141.258 37.9889 141.08 38.0351L140.552 38.1671L140.027 38.3024C139.506 38.441 138.994 38.5829 138.492 38.7281L138.04 38.8634L137.809 38.9327C137.542 39.0119 137.274 39.0977 137.014 39.1802L136.532 39.3353L136.06 39.4937C135.428 39.7137 134.814 39.9337 134.218 40.1537L133.776 40.322L133.327 40.5035C133.046 40.619 132.772 40.7312 132.498 40.8335H132.478L131.693 41.1635L131.237 41.3747L130.835 41.5661L130.435 41.7608L130.046 41.9555L129.663 42.1535L129.283 42.3548L128.914 42.5561L128.544 42.764L128.187 42.9686L127.831 43.1798L127.501 43.3943C127.27 43.5362 127.045 43.6781 126.821 43.8266C126.491 44.0411 126.161 44.2622 125.831 44.4866C125.623 44.6351 125.415 44.7869 125.213 44.9387C125.012 45.0905 124.814 45.2456 124.619 45.4007C124.425 45.5558 124.233 45.7142 124.045 45.8726L124.025 45.8891C123.399 46.4213 122.802 46.9864 122.236 47.582L121.998 47.8328L121.767 48.0869L121.546 48.3443L121.328 48.5984C121.259 48.6875 121.186 48.7733 121.117 48.8591L120.912 49.1198C120.843 49.2056 120.774 49.2947 120.711 49.3838C120.648 49.4729 120.569 49.5719 120.503 49.6676C120.437 49.7633 120.384 49.8326 120.328 49.9151C120.203 50.0933 120.084 50.2715 119.968 50.4497L119.797 50.7236L119.632 50.9942L119.473 51.2681L119.322 51.5453C119.269 51.6377 119.223 51.7268 119.173 51.8192C119.123 51.9116 119.077 52.0073 119.031 52.0997C118.985 52.1921 118.942 52.2845 118.899 52.3736C118.679 52.8466 118.481 53.3218 118.305 53.7992L118.117 54.3503C118.054 54.5549 117.991 54.7595 117.939 54.9641L117.859 55.2545C117.83 55.37 117.803 55.4855 117.777 55.601C117.75 55.7165 117.74 55.766 117.721 55.8452C117.701 55.9244 117.691 55.9838 117.681 56.0531C117.671 56.1224 117.641 56.2445 117.625 56.3402L117.595 56.5217C117.595 56.5943 117.569 56.6669 117.559 56.7428L117.519 56.9969C117.519 57.0695 117.503 57.1487 117.493 57.2246C117.483 57.3005 117.473 57.3764 117.466 57.4556C117.46 57.5348 117.443 57.68 117.433 57.7856C117.394 58.241 117.374 58.703 117.374 59.165C117.374 77.2128 126.946 92.5348 165.783 92.5348C204.907 92.5348 214.189 73.9887 214.189 59.165C214.225 58.7261 214.198 58.2443 214.172 57.7691Z" fill="#66CCB4" stroke="#043866" stroke-miterlimit="10"/>
<path id="Vector_2" d="M214.225 59.2079C214.225 72.3485 192.552 83.0009 165.819 83.0009C139.086 83.0009 117.41 72.3485 117.41 59.2079C117.41 58.7459 117.43 58.2838 117.47 57.8251C118.724 70.4147 139.892 80.4368 165.819 80.4368C191.747 80.4368 212.977 70.385 214.172 57.769C214.198 58.2442 214.225 58.7261 214.225 59.2079Z" fill="#005DAA" stroke="#043866" stroke-miterlimit="10"/>
<path id="Vector_3" d="M165.819 56.8747C157.211 56.8747 150.233 55.2049 150.233 53.149C150.233 51.0931 155.264 49.4266 165.819 49.4266C177.23 49.4266 181.406 51.0766 181.406 53.149C181.406 55.2214 174.428 56.8747 165.819 56.8747ZM214.086 56.9044C214.086 56.8087 214.063 56.7196 214.05 56.6272C214.052 56.6207 214.052 56.6139 214.05 56.6074C214.024 56.4226 213.997 56.2411 213.964 56.0596C213.931 55.8781 213.895 55.6669 213.855 55.4689C213.836 55.3765 213.816 55.2841 213.793 55.1917C213.77 55.1026 213.75 55.0102 213.727 54.9178C213.68 54.7297 213.634 54.5416 213.581 54.3568L213.502 54.0763C213.472 53.9839 213.446 53.8915 213.416 53.7991L213.324 53.5153C213.265 53.3404 213.202 53.1688 213.139 52.9972C213.037 52.7167 212.921 52.4395 212.809 52.1623L212.69 51.895C212.647 51.8026 212.608 51.7135 212.565 51.6277C212.522 51.5419 212.489 51.4726 212.453 51.3934C212.453 51.3703 212.429 51.3472 212.416 51.3208C212.334 51.1591 212.248 50.9908 212.159 50.8324C212.113 50.7466 212.066 50.6575 212.014 50.5717C211.961 50.4859 211.928 50.4166 211.885 50.344C211.624 49.9018 211.34 49.4629 211.037 49.024C210.918 48.859 210.799 48.694 210.68 48.5389C210.485 48.2848 210.284 48.0373 210.073 47.7865C210.003 47.7073 209.937 47.6248 209.865 47.5456C209.71 47.3674 209.535 47.1925 209.386 47.0209C209.33 46.9549 209.267 46.8922 209.205 46.8295C209.036 46.6546 208.875 46.4797 208.683 46.3048L208.264 45.9121C208.089 45.7537 207.914 45.5821 207.732 45.4402C207.551 45.2983 207.386 45.1465 207.204 45.0013L206.93 44.7835L206.716 44.6152C206.505 44.4535 206.29 44.2852 206.056 44.1367L205.818 43.9651C205.386 43.6615 204.937 43.3645 204.465 43.0741L204.211 42.919L203.841 42.6979L203.511 42.5131C202.294 41.8229 201.039 41.2036 199.751 40.6584C199.484 40.5429 199.21 40.4307 198.939 40.3284C198.771 40.2624 198.609 40.1997 198.434 40.1304L197.682 39.8466C197.091 39.6321 196.48 39.4209 195.856 39.2163L195.388 39.0678L194.919 38.9226L194.519 38.8005L193.958 38.6388L193.467 38.5002L193.031 38.3847C192.344 38.1999 191.638 38.025 190.912 37.8534L190.38 37.7346C189.72 37.5828 189.031 37.4387 188.314 37.3023L187.73 37.1901L187.212 37.0977C186.591 36.9855 185.961 36.8766 185.317 36.7677L184.7 36.672L183.429 36.4905L182.769 36.408C181.472 36.2397 180.128 36.078 178.739 35.9658L178.042 35.9064C177.808 35.8833 177.57 35.8668 177.336 35.847L176.623 35.7942L175.9 35.7414L175.537 35.7183L174.93 35.6787C173.718 35.6094 172.474 35.55 171.203 35.5104L170.45 35.4873H169.836L169.114 35.4708H168.925H168.153H167.849C167.467 35.4708 167.077 35.4708 166.684 35.4708H164.961C164.592 35.4708 164.222 35.4708 163.855 35.4708H163.588H162.888L162.152 35.4873L161.446 35.5071C160.614 35.5302 159.796 35.5632 158.99 35.6028L158.416 35.6325L157.713 35.6721L157.099 35.7117C156.144 35.7711 155.209 35.8426 154.293 35.9262C154.072 35.9427 153.851 35.9658 153.633 35.9856L152.973 36.0516C152.534 36.0945 152.101 36.1407 151.672 36.1902L150.722 36.3024L150.279 36.3585L149.675 36.4377C149.081 36.5169 148.497 36.6016 147.923 36.6918H147.893C147.31 36.7798 146.733 36.8744 146.163 36.9756L145.546 37.0878L144.487 37.2891L144.394 37.3089C144.015 37.3815 143.638 37.4607 143.269 37.5399C142.711 37.6587 142.163 37.7808 141.618 37.9128C141.437 37.9524 141.258 37.9953 141.08 38.0415L140.552 38.1735L140.027 38.3088C139.506 38.4474 138.994 38.5893 138.492 38.7345L138.04 38.8698L137.809 38.9391C137.542 39.0183 137.274 39.1041 137.014 39.1866L136.532 39.3417L136.06 39.5001C135.428 39.7201 134.814 39.9401 134.218 40.1601L133.776 40.3284L133.327 40.5099C133.046 40.6221 132.772 40.7376 132.498 40.8399H132.478C132.214 40.9521 131.95 41.0709 131.693 41.1699L131.237 41.3811L130.835 41.5725L130.435 41.7672L130.046 41.9619L129.663 42.16L129.283 42.3613L128.914 42.5626L128.544 42.7705L128.187 42.9751L127.831 43.1863L127.501 43.4008C127.27 43.5427 127.045 43.6846 126.821 43.8331C126.491 44.0476 126.161 44.2687 125.831 44.4931C125.623 44.6416 125.415 44.7934 125.213 44.9452C125.012 45.097 124.814 45.2521 124.619 45.4072C124.425 45.5623 124.233 45.7207 124.045 45.8791L124.025 45.8956C123.398 46.4268 122.801 46.992 122.236 47.5885L121.998 47.8393L121.767 48.0934L121.546 48.3508L121.328 48.6049C121.259 48.694 121.187 48.7798 121.117 48.8656L120.913 49.1263C120.843 49.2121 120.774 49.3012 120.711 49.3903C120.649 49.4794 120.569 49.5784 120.503 49.6741C120.437 49.7698 120.384 49.8391 120.328 49.9216C120.203 50.0998 120.084 50.278 119.969 50.4562L119.797 50.7301L119.632 51.0007L119.473 51.2746L119.322 51.5518C119.269 51.6442 119.223 51.7333 119.173 51.8257C119.124 51.9181 119.077 52.0138 119.031 52.1062C118.985 52.1986 118.942 52.291 118.899 52.3801C118.679 52.8531 118.481 53.3283 118.305 53.8057C118.239 53.9905 118.176 54.1753 118.117 54.3568C118.057 54.5383 117.991 54.766 117.939 54.9706L117.859 55.261C117.83 55.3765 117.803 55.492 117.777 55.6075C117.75 55.723 117.741 55.7725 117.721 55.8517C117.701 55.9309 117.691 55.9903 117.681 56.0596C117.671 56.1289 117.641 56.251 117.625 56.3467L117.595 56.5282C117.595 56.6008 117.569 56.6734 117.559 56.7493L117.519 57.0034C117.519 57.076 117.503 57.1552 117.493 57.2311C117.483 57.307 117.473 57.3829 117.467 57.4621C117.46 57.5413 117.443 57.6865 117.434 57.7921C118.691 70.3817 139.859 80.4005 165.783 80.4005C191.707 80.4005 212.941 70.3487 214.136 57.7327C214.152 57.4786 214.123 57.2047 214.086 56.8978V56.9044Z" fill="#F9D43A" stroke="#043866" stroke-miterlimit="10"/>
<path id="Vector_4" d="M181.171 12.1389L181.171 12.1389C176.444 9.61986 170.809 10.1106 166.193 12.8883L166.193 12.8886C161.383 15.7773 159.209 20.7523 157.193 26.12C157.012 26.6014 156.832 27.0861 156.652 27.5726C154.844 32.4539 152.972 37.5097 149.113 41.1225C145.518 44.4892 141.929 49.5917 140.316 55.0307C138.706 60.4563 139.073 66.1628 143.285 70.8665C145.615 73.4679 148.798 74.7295 152.018 75.5056C163.061 78.1574 175.537 75.1206 183.064 65.1794C184.596 63.1536 185.902 60.8603 186.514 58.2806C187.131 55.6806 187.02 52.9867 186.744 50.2081C186.674 49.5019 186.593 48.788 186.512 48.0691C186.276 45.9854 186.035 43.86 186.042 41.7589M181.171 12.1389L186.542 41.7607M181.171 12.1389L181.179 12.143C183.248 13.1985 184.974 14.8203 186.156 16.8191M181.171 12.1389L186.588 16.5684M186.042 41.7589L186.542 41.7607M186.042 41.7589C186.042 41.759 186.042 41.7591 186.042 41.7592L186.542 41.7607M186.042 41.7589C186.049 39.5701 186.324 37.4198 186.661 35.2977C186.771 34.6034 186.887 33.9148 187.003 33.2289C187.243 31.8051 187.482 30.3926 187.66 28.964C188.188 24.7386 188.091 20.2306 186.156 16.8191M186.542 41.7607C186.551 38.9155 187.022 36.1223 187.494 33.3257C187.735 31.8958 187.976 30.4651 188.156 29.026C188.688 24.7723 188.608 20.1258 186.588 16.5684M186.156 16.8191C186.156 16.8203 186.157 16.8215 186.158 16.8228L186.588 16.5684M186.156 16.8191C186.155 16.8178 186.154 16.8166 186.154 16.8153L186.588 16.5684" fill="#66CCB4" stroke="#043866"/>
<g id="smiley eyes" clip-path="url(#clip0_444_10220)">
<path id="Vector_5" d="M167.975 21.1696C168.155 20.841 168.441 20.5838 168.787 20.4411C169.133 20.2983 169.518 20.2785 169.876 20.385C170.235 20.4915 170.547 20.718 170.759 21.0264C170.971 21.3349 171.07 21.7067 171.041 22.0798" stroke="#043866" stroke-miterlimit="10" stroke-linecap="round"/>
<path id="Vector_6" d="M174.246 23.1799C174.427 22.8548 174.714 22.601 175.059 22.4604C175.404 22.3198 175.786 22.3006 176.143 22.4061C176.5 22.5115 176.811 22.7354 177.024 23.0408C177.237 23.3461 177.34 23.7149 177.316 24.0866" stroke="#043866" stroke-miterlimit="10" stroke-linecap="round"/>
</g>
</g>
<g id="tubby 3">
<path id="Vector_7" d="M138.941 107.365C152.012 107.365 156.792 109.276 156.792 111.629C156.792 113.981 148.801 115.895 138.941 115.895C129.082 115.895 121.091 113.985 121.091 111.629C121.091 109.272 126.844 107.365 138.941 107.365ZM194.318 114.245C194.295 113.915 194.265 113.585 194.223 113.255C194.223 113.147 194.196 113.041 194.18 112.925C194.181 112.919 194.181 112.912 194.18 112.906C194.15 112.694 194.117 112.483 194.081 112.275C194.044 112.067 194.001 111.826 193.955 111.615L193.886 111.285C193.863 111.18 193.84 111.077 193.813 110.972C193.76 110.757 193.704 110.539 193.645 110.328C193.615 110.219 193.585 110.114 193.552 109.998C193.519 109.883 193.49 109.787 193.457 109.668C193.424 109.549 193.387 109.45 193.351 109.338C193.285 109.14 193.213 108.942 193.14 108.744C193.021 108.414 192.892 108.104 192.754 107.787L192.615 107.48C192.569 107.378 192.523 107.276 192.473 107.173L192.344 106.909L192.305 106.827C192.209 106.639 192.107 106.451 192.011 106.266L191.846 105.969L191.694 105.705C191.397 105.197 191.074 104.698 190.724 104.21C190.588 104.022 190.453 103.837 190.314 103.656C190.094 103.365 189.863 103.078 189.621 102.794C189.542 102.702 189.463 102.606 189.38 102.517C189.202 102.315 189.021 102.113 188.836 101.913L188.628 101.695C188.43 101.497 188.235 101.296 188.027 101.098C187.872 100.946 187.697 100.795 187.548 100.646C187.4 100.498 187.149 100.283 186.941 100.108C186.733 99.9333 186.542 99.7782 186.337 99.6033C186.235 99.5175 186.129 99.4349 186.007 99.3524C185.885 99.2699 185.845 99.2238 185.759 99.161C185.522 98.9729 185.271 98.7914 185.02 98.6099L184.749 98.4185C184.254 98.0687 183.738 97.7277 183.201 97.3955C183.106 97.3328 183.007 97.2767 182.908 97.2173L182.485 96.9632L182.125 96.752C180.737 95.9618 179.304 95.2522 177.834 94.6268L176.903 94.2407L176.326 94.013C176.045 93.9041 175.758 93.7952 175.464 93.683C174.789 93.4322 174.092 93.1913 173.375 92.9603L172.84 92.792L172.302 92.6237L171.843 92.4851L171.183 92.297L170.622 92.1419L170.124 92.0066C169.338 91.7987 168.526 91.5941 167.694 91.3994L167.087 91.2608C166.319 91.0892 165.53 90.9242 164.72 90.7658L164.06 90.6404L163.466 90.5315C162.757 90.4061 162.033 90.284 161.294 90.1652L160.588 90.0563C160.106 89.9837 159.621 89.9177 159.132 89.8517L158.393 89.7527C156.907 89.5613 155.367 89.393 153.772 89.2478L152.97 89.1785L152.161 89.1125L151.346 89.0498L150.517 88.9937L150.101 88.9673L149.405 88.9211C148.022 88.8386 146.596 88.7726 145.137 88.7264L144.279 88.7L143.576 88.6802C143.302 88.6802 143.024 88.6802 142.747 88.6637H142.533H141.645H141.298H139.978H137.997C137.572 88.6637 137.149 88.6637 136.73 88.6637H136.426H135.621L134.779 88.6835L133.97 88.7066C133.016 88.733 132.082 88.7693 131.161 88.8155L130.501 88.8518L129.696 88.8947L128.993 88.9409C127.9 89.0135 126.831 89.0927 125.778 89.1851L125.022 89.2544L124.263 89.3303C123.761 89.3798 123.273 89.4326 122.774 89.4887C122.408 89.5316 122.045 89.5712 121.685 89.6174L121.18 89.6834L120.487 89.7725C119.807 89.8649 119.138 89.9617 118.48 90.0629H118.447C117.787 90.1685 117.127 90.2741 116.466 90.3929L115.757 90.5216C115.351 90.5942 114.942 90.6701 114.545 90.7526L114.44 90.7724C114.004 90.8582 113.572 90.9473 113.149 91.0397C112.509 91.175 111.885 91.3169 111.264 91.4621L110.651 91.6106L110.043 91.7657L109.446 91.9208C108.845 92.0792 108.261 92.2508 107.686 92.4092L107.168 92.561L106.904 92.6402L105.993 92.924L105.442 93.1022L104.901 93.2837C104.178 93.5312 103.478 93.782 102.791 94.046L102.283 94.2407L101.768 94.4453L100.821 94.8446H100.798C100.494 94.9722 100.194 95.1042 99.8966 95.2406L99.3751 95.4815L98.9163 95.7026L98.4608 95.9204L98.0152 96.1448L97.5728 96.3725L97.1405 96.6035L96.7147 96.8345L96.2955 97.0721L95.8829 97.3064L95.4769 97.5473L95.0775 97.7915C94.8135 97.9565 94.556 98.1215 94.3018 98.2865C93.9189 98.5373 93.5459 98.7881 93.1861 99.0488C92.9485 99.2204 92.7108 99.3788 92.4798 99.5669C92.2487 99.755 92.021 99.9201 91.7965 100.098C91.5721 100.276 91.3542 100.455 91.1364 100.636L91.1133 100.653C90.3955 101.263 89.7101 101.911 89.0602 102.593L88.7896 102.88C88.7004 102.976 88.6146 103.075 88.5288 103.174L88.2713 103.464C88.1855 103.563 88.103 103.659 88.0238 103.758C87.9445 103.857 87.8587 103.956 87.7795 104.058L87.5452 104.355C87.4659 104.454 87.39 104.557 87.3141 104.659L87.0797 104.989L86.8784 105.276C86.7365 105.481 86.5978 105.685 86.4658 105.89C86.3998 105.992 86.3337 106.094 86.271 106.2C86.2083 106.306 86.1424 106.408 86.0829 106.51L85.8981 106.84L85.7264 107.154C85.667 107.259 85.6109 107.365 85.5548 107.484C85.4987 107.602 85.4459 107.695 85.3931 107.814C85.3402 107.932 85.2907 108.025 85.2412 108.144C84.9857 108.675 84.7587 109.219 84.5613 109.774C84.4853 109.985 84.4128 110.193 84.3467 110.407C84.2807 110.622 84.2048 110.873 84.1388 111.107L84.0496 111.437C84.0166 111.569 83.9836 111.704 83.9572 111.833C83.9308 111.962 83.911 112.021 83.8912 112.114C83.8714 112.206 83.8582 112.272 83.845 112.351C83.8318 112.43 83.802 112.572 83.7822 112.681C83.7624 112.79 83.7559 112.82 83.746 112.886C83.7361 112.952 83.7162 113.057 83.7063 113.14C83.6964 113.222 83.6767 113.335 83.6635 113.43C83.6503 113.526 83.6403 113.605 83.6271 113.691C83.6139 113.777 83.6074 113.869 83.6008 113.958L83.5611 114.344C83.5149 114.866 83.4951 115.394 83.4951 115.925C83.4951 136.593 94.4669 154.139 138.948 154.139C183.756 154.139 194.401 132.9 194.401 115.925C194.374 115.341 194.355 114.793 194.312 114.245H194.318Z" fill="#F48E9F" stroke="#043866" stroke-miterlimit="10"/>
<path id="Vector_8" d="M194.374 115.895C194.374 130.944 169.553 143.144 138.922 143.144C108.29 143.144 83.4688 130.934 83.4688 115.895C83.4688 115.364 83.4885 114.836 83.5347 114.311C84.9706 128.729 109.215 140.207 138.908 140.207C168.602 140.207 192.915 128.696 194.285 114.245C194.355 114.793 194.374 115.341 194.374 115.895Z" fill="#F9D43A" stroke="#043866" stroke-miterlimit="10"/>
<path id="Vector_9" d="M138.942 113.213C129.082 113.213 121.091 111.302 121.091 108.949C121.091 106.596 126.851 104.685 138.942 104.685C152.013 104.685 156.792 106.593 156.792 108.949C156.792 111.305 148.795 113.213 138.942 113.213ZM194.223 113.249C194.223 113.14 194.197 113.034 194.18 112.919C194.182 112.912 194.182 112.906 194.18 112.899C194.15 112.688 194.117 112.477 194.081 112.269C194.045 112.061 194.002 111.82 193.956 111.609L193.886 111.279C193.863 111.173 193.84 111.071 193.814 110.965C193.761 110.751 193.705 110.533 193.645 110.322C193.616 110.213 193.586 110.107 193.553 109.992C193.52 109.876 193.49 109.78 193.457 109.662C193.424 109.543 193.388 109.444 193.352 109.332C193.286 109.134 193.213 108.936 193.14 108.738C193.021 108.408 192.893 108.097 192.754 107.781L192.615 107.474C192.569 107.371 192.523 107.269 192.473 107.167L192.345 106.903L192.305 106.82C192.209 106.632 192.107 106.444 192.011 106.259L191.846 105.962L191.695 105.698C191.397 105.19 191.074 104.692 190.724 104.203C190.589 104.015 190.453 103.831 190.315 103.649C190.095 103.359 189.864 103.072 189.622 102.788C189.542 102.695 189.463 102.6 189.381 102.511C189.202 102.308 189.021 102.107 188.836 101.907L188.628 101.689C188.43 101.491 188.235 101.286 188.027 101.092C187.872 100.94 187.697 100.788 187.549 100.639C187.4 100.491 187.149 100.276 186.941 100.102C186.733 99.9266 186.542 99.7715 186.337 99.5966C186.235 99.5108 186.129 99.4284 186.007 99.3459C185.885 99.2634 185.846 99.2171 185.76 99.1544C185.522 98.9663 185.271 98.7848 185.02 98.6033L184.75 98.4119C184.255 98.0621 183.739 97.7211 183.202 97.3889C183.106 97.3262 183.007 97.2701 182.908 97.2107L182.485 96.9566L182.126 96.7454C180.737 95.9552 179.305 95.2456 177.835 94.6202C177.531 94.4915 177.217 94.3595 176.904 94.2341L176.326 94.0064C176.046 93.8975 175.758 93.7886 175.465 93.6764C174.789 93.4256 174.093 93.1847 173.375 92.9537L172.841 92.7854L172.303 92.6171L171.844 92.4785L171.184 92.2904L170.622 92.1353L170.124 92C169.338 91.7921 168.527 91.5875 167.695 91.3928L167.087 91.2542C166.319 91.0826 165.531 90.9176 164.721 90.7592L164.061 90.6338L163.466 90.5249C162.758 90.3995 162.034 90.2774 161.294 90.1586L160.588 90.0497C160.106 89.9771 159.621 89.9111 159.132 89.8451L158.393 89.7461C156.908 89.5547 155.367 89.3864 153.772 89.2412L152.97 89.1719L152.161 89.1059L151.346 89.0432L150.518 88.9871L150.102 88.9607L149.405 88.9145C148.022 88.832 146.596 88.766 145.137 88.7198L144.279 88.6934L143.576 88.6736C143.302 88.6736 143.025 88.6736 142.748 88.6571H142.533H141.645H141.298H139.978H137.998C137.572 88.6571 137.149 88.6571 136.73 88.6571H136.427H135.621L134.779 88.6769L133.971 88.7C133.017 88.7264 132.083 88.7627 131.162 88.8089L130.502 88.8452L129.696 88.8881L128.993 88.9343C127.901 89.0069 126.831 89.0861 125.778 89.1785L125.022 89.2478L124.263 89.3237C123.762 89.3732 123.273 89.426 122.775 89.4821C122.408 89.525 122.045 89.5646 121.685 89.6108L121.18 89.6768L120.487 89.7659C119.807 89.8583 119.138 89.9551 118.48 90.0563H118.447C117.787 90.1619 117.127 90.2675 116.467 90.3863L115.757 90.515C115.351 90.5876 114.945 90.6635 114.546 90.746L114.44 90.7658C114.004 90.8516 113.572 90.9407 113.15 91.0331C112.509 91.1684 111.885 91.3103 111.265 91.4555L110.651 91.604L110.044 91.7591L109.446 91.9142C108.845 92.0726 108.261 92.2442 107.687 92.4026L107.169 92.5544L106.905 92.6336L105.993 92.9174L105.442 93.0956L104.901 93.2771C104.178 93.5246 103.478 93.7754 102.792 94.0394L102.283 94.2341L101.769 94.4387C101.438 94.5674 101.135 94.7027 100.821 94.838H100.798C100.494 94.9656 100.194 95.0976 99.897 95.234L99.3754 95.4749L98.9167 95.696L98.4612 95.9138L98.0156 96.1382L97.5732 96.3659L97.1409 96.5969L96.7151 96.8279L96.2959 97.0655L95.8833 97.2998L95.4773 97.5407L95.0779 97.7849C94.8139 97.9499 94.5564 98.1149 94.3022 98.2799C93.9193 98.5274 93.5463 98.7815 93.1865 99.0422C92.9489 99.2138 92.7112 99.3722 92.4802 99.5604C92.2491 99.7485 92.0214 99.9134 91.7969 100.092C91.5725 100.27 91.3546 100.448 91.1368 100.63L91.1137 100.646C90.3951 101.256 89.7097 101.903 89.0606 102.586L88.79 102.874C88.7008 102.969 88.615 103.068 88.5292 103.167L88.2717 103.458C88.1859 103.557 88.1034 103.652 88.0242 103.751C87.9449 103.85 87.8591 103.949 87.7799 104.052L87.5456 104.349C87.4663 104.448 87.3904 104.55 87.3145 104.652L87.0801 104.982L86.8788 105.269C86.7369 105.474 86.5982 105.679 86.4662 105.883C86.4002 105.985 86.3342 106.088 86.2714 106.193C86.2087 106.299 86.1428 106.401 86.0834 106.504L85.8985 106.834L85.7268 107.147C85.6674 107.253 85.6113 107.358 85.5552 107.477C85.4991 107.596 85.4463 107.688 85.3935 107.807C85.3407 107.926 85.2912 108.018 85.2416 108.137C84.9875 108.669 84.7605 109.213 84.5617 109.767C84.4857 109.978 84.4132 110.19 84.3471 110.401C84.2811 110.612 84.2052 110.866 84.1392 111.1L84.05 111.43C84.017 111.562 83.984 111.698 83.9576 111.826C83.9312 111.955 83.9114 112.015 83.8916 112.107C83.8718 112.199 83.8586 112.265 83.8454 112.345C83.8322 112.424 83.8025 112.566 83.7826 112.675C83.7628 112.783 83.7563 112.813 83.7464 112.879C83.7365 112.945 83.7166 113.051 83.7067 113.133C83.6968 113.216 83.6771 113.328 83.6639 113.424C83.6507 113.519 83.6407 113.599 83.6275 113.684C83.6143 113.77 83.6078 113.863 83.6012 113.952L83.5615 114.338C85.0007 128.756 109.245 140.23 138.935 140.23C168.675 140.23 192.942 128.719 194.312 114.269C194.289 113.912 194.259 113.579 194.216 113.249H194.223Z" fill="#66CCB4" stroke="#043866" stroke-miterlimit="10"/>
<path id="Vector_10" d="M119.556 64.3045L119.556 64.3045C122.569 64.365 125.516 65.4365 128.241 66.9077C132.673 69.3013 136.467 72.6441 140.198 76.1835C140.912 76.8612 141.624 77.5466 142.339 78.2337C145.341 81.1219 148.374 84.0402 151.706 86.5391L151.706 86.5391C153.022 87.5259 154.396 88.4562 155.757 89.3778C156.453 89.8488 157.145 90.3176 157.824 90.7904C159.847 92.1985 161.788 93.6624 163.493 95.3994C166.907 98.8775 169.245 103.837 168.065 108.438C167.073 112.303 163.801 115.222 160.199 117.133L160.199 117.133C153.315 120.787 144.482 121.858 135.723 120.954C126.966 120.051 118.338 117.181 111.886 113.014C107.067 109.899 104.158 104.454 102.756 98.3864C101.356 92.3227 101.478 85.7015 102.663 80.3333L102.663 80.3331C103.549 76.3119 105.627 72.2457 108.566 69.2149C111.502 66.1871 115.271 64.2157 119.556 64.3045Z" fill="#F48E9F" stroke="#043866"/>
<g id="staring eyes" clip-path="url(#clip1_444_10220)">
<path id="Vector_11" d="M115.972 77.9487C116.551 77.9487 117.02 77.2907 117.02 76.4789C117.02 75.6671 116.551 75.009 115.972 75.009C115.392 75.009 114.923 75.6671 114.923 76.4789C114.923 77.2907 115.392 77.9487 115.972 77.9487Z" fill="#043866"/>
<path id="Vector_12" d="M121.874 77.9487C122.453 77.9487 122.923 77.2907 122.923 76.4789C122.923 75.6671 122.453 75.009 121.874 75.009C121.295 75.009 120.825 75.6671 120.825 76.4789C120.825 77.2907 121.295 77.9487 121.874 77.9487Z" fill="#043866"/>
</g>
</g>
<g id="tubby 2">
<path id="Vector_13" d="M121.084 156.898C135.812 156.898 141.199 159.05 141.199 161.703C141.199 164.356 132.191 166.511 121.084 166.511C109.977 166.511 100.982 164.356 100.982 161.703C100.982 159.05 107.462 156.898 121.084 156.898ZM183.468 164.653C183.442 164.277 183.406 163.901 183.359 163.528C183.359 163.406 183.33 163.287 183.313 163.168C183.313 163.16 183.313 163.153 183.313 163.145C183.283 162.907 183.244 162.67 183.204 162.435C183.165 162.201 183.115 161.931 183.062 161.676L182.983 161.317C182.957 161.198 182.93 161.079 182.901 160.96C182.841 160.719 182.779 160.475 182.713 160.234C182.679 160.116 182.643 159.997 182.61 159.875C182.577 159.753 182.538 159.637 182.498 159.518C182.458 159.399 182.422 159.271 182.379 159.152C182.307 158.928 182.227 158.703 182.145 158.492C182.006 158.129 181.864 157.769 181.706 157.413L181.554 157.066C181.501 156.951 181.448 156.835 181.392 156.736C181.336 156.637 181.293 156.538 181.247 156.436L181.201 156.344C181.095 156.132 180.98 155.921 180.871 155.713C180.811 155.601 180.752 155.486 180.686 155.383L180.517 155.086C180.187 154.515 179.818 153.951 179.422 153.4C179.273 153.189 179.118 152.981 178.963 152.776C178.712 152.446 178.454 152.116 178.18 151.806C178.091 151.7 178.002 151.595 177.91 151.493C177.712 151.265 177.504 151.04 177.296 150.813L177.062 150.569C176.84 150.344 176.619 150.116 176.385 149.909C176.21 149.74 176.032 149.579 175.844 149.4C175.655 149.222 175.395 148.994 175.16 148.793C174.926 148.592 174.711 148.414 174.48 148.226L174.124 147.942L173.847 147.727C173.576 147.519 173.295 147.311 173.012 147.107C172.909 147.038 172.81 146.962 172.708 146.889C172.15 146.496 171.566 146.114 170.962 145.737L170.632 145.539L170.156 145.252L169.747 145.015C168.178 144.123 166.558 143.324 164.895 142.622C164.565 142.474 164.205 142.328 163.849 142.183L163.188 141.929C162.858 141.804 162.548 141.685 162.218 141.563C161.456 141.282 160.67 141.008 159.861 140.748L159.261 140.556L158.657 140.368L158.138 140.213L157.412 140.002L156.782 139.824L156.221 139.675C155.333 139.441 154.418 139.21 153.481 138.989L152.798 138.834C151.928 138.64 151.039 138.454 150.131 138.276L149.378 138.134L148.718 138.012C147.916 137.87 147.104 137.732 146.272 137.6L145.473 137.477C144.932 137.395 144.387 137.319 143.823 137.243L142.991 137.134C141.317 136.914 139.584 136.725 137.792 136.567L136.888 136.487L135.977 136.412C135.673 136.388 135.366 136.362 135.056 136.342L134.125 136.276L133.657 136.247L132.871 136.197C131.313 136.105 129.706 136.029 128.062 135.976L127.095 135.946L126.302 135.923L125.368 135.907H125.127H124.137H123.758L122.252 135.89H120.028C119.552 135.89 119.074 135.89 118.602 135.907H118.272H117.364L116.417 135.93L115.502 135.953C114.433 135.986 113.377 136.025 112.337 136.078L111.594 136.118L110.69 136.167L109.898 136.217C108.666 136.299 107.458 136.388 106.267 136.494L105.415 136.573L104.56 136.656L102.88 136.837C102.468 136.883 102.058 136.93 101.656 136.982L101.085 137.055L100.302 137.157C99.5365 137.26 98.784 137.365 98.0413 137.487H98.005C97.2502 137.602 96.5064 137.724 95.7737 137.854L94.9749 137.999C94.5161 138.085 94.0573 138.167 93.6083 138.26L93.4896 138.283C92.9978 138.378 92.4993 138.481 92.0339 138.583C91.3143 138.735 90.6113 138.913 89.9148 139.061L89.2217 139.226L88.5384 139.401L87.8617 139.576C87.1884 139.754 86.5282 139.937 85.8813 140.124L85.2971 140.299L84.9967 140.385L83.9734 140.715L83.3496 140.916L82.739 141.121C81.927 141.398 81.1359 141.683 80.3657 141.975L79.7914 142.196L79.1972 142.345C78.8342 142.49 78.481 142.639 78.1278 142.79H78.1014C77.7713 142.939 77.4215 143.087 77.0881 143.239C76.8867 143.328 76.6953 143.421 76.5005 143.51L75.979 143.757L75.4674 144.005L74.9623 144.259L74.4672 144.516L73.9787 144.774L73.5001 145.034L73.0281 145.302L72.5627 145.569L72.1039 145.84L71.655 146.114C71.3579 146.298 71.0675 146.483 70.7803 146.671C70.3402 146.951 69.921 147.237 69.5227 147.529L68.7272 148.113C68.4665 148.311 68.209 148.509 67.9581 148.711C67.7073 148.912 67.4597 149.113 67.2221 149.318L67.1923 149.338C66.3848 150.025 65.6136 150.755 64.8818 151.522L64.5782 151.852L64.2811 152.182C64.1821 152.291 64.0863 152.403 63.9939 152.512C63.9015 152.621 63.8025 152.733 63.7134 152.842L63.4394 153.172C63.3503 153.281 63.2612 153.397 63.1753 153.502C63.0895 153.608 63.0004 153.727 62.9146 153.832C62.8287 153.938 62.7364 154.073 62.6506 154.195C62.5647 154.317 62.4954 154.41 62.4227 154.525C62.2643 154.756 62.1092 154.987 61.9607 155.218C61.8848 155.334 61.8122 155.449 61.7395 155.568L61.525 155.918C61.4556 156.037 61.3864 156.156 61.3203 156.274L61.1256 156.627C61.0563 156.75 60.9935 156.865 60.9341 156.984C60.8747 157.103 60.8087 157.225 60.7493 157.347C60.6899 157.469 60.6338 157.581 60.5777 157.7C60.2905 158.307 60.033 158.921 59.8119 159.541C59.7261 159.776 59.6468 160.013 59.5709 160.251C59.495 160.488 59.4092 160.779 59.3366 161.04C59.3036 161.165 59.2672 161.29 59.2342 161.419C59.2012 161.548 59.1616 161.716 59.1319 161.865C59.1022 162.013 59.0824 162.076 59.056 162.195C59.0296 162.313 59.0197 162.373 59.0032 162.459C58.9867 162.544 58.9537 162.709 58.9339 162.831L58.8943 163.062C58.8943 163.158 58.8613 163.254 58.8481 163.35C58.8349 163.445 58.815 163.571 58.7985 163.68C58.782 163.788 58.7722 163.878 58.7623 163.973C58.7524 164.069 58.7391 164.175 58.7292 164.274C58.7193 164.373 58.6995 164.564 58.6863 164.709C58.6335 165.3 58.6104 165.891 58.6104 166.491C58.6104 189.779 70.975 209.553 121.084 209.553C171.586 209.553 183.557 185.618 183.557 166.491C183.557 165.887 183.531 165.267 183.501 164.653H183.468Z" fill="#005DAA" stroke="#043866" stroke-miterlimit="10"/>
<path id="Vector_14" d="M183.557 166.511C183.557 183.467 155.587 197.201 121.084 197.201C86.581 197.201 58.6104 183.453 58.6104 166.511C58.6104 165.911 58.6335 165.317 58.6863 164.726C60.3037 180.975 87.6241 193.905 121.071 193.905C154.58 193.905 181.93 180.935 183.455 164.653C183.534 165.267 183.557 165.887 183.557 166.511Z" fill="#F9D43A" stroke="#043866" stroke-miterlimit="10"/>
<path id="Vector_15" d="M121.084 163.488C109.974 163.488 100.969 161.337 100.969 158.683C100.969 156.03 107.462 153.895 121.084 153.895C135.812 153.895 141.199 156.047 141.199 158.7C141.199 161.353 132.191 163.488 121.084 163.488ZM183.376 163.528C183.376 163.406 183.346 163.287 183.33 163.168C183.329 163.16 183.329 163.153 183.33 163.145C183.3 162.907 183.26 162.67 183.221 162.435C183.181 162.201 183.132 161.931 183.079 161.676L183 161.317C182.973 161.198 182.947 161.079 182.917 160.96C182.858 160.719 182.795 160.475 182.729 160.234C182.696 160.116 182.66 159.997 182.627 159.875C182.594 159.753 182.554 159.637 182.514 159.518C182.475 159.399 182.438 159.271 182.396 159.152C182.323 158.928 182.24 158.703 182.161 158.492C182.026 158.129 181.881 157.769 181.722 157.413L181.57 157.066C181.518 156.951 181.465 156.835 181.409 156.736C181.352 156.637 181.31 156.538 181.263 156.436L181.217 156.344C181.112 156.132 180.996 155.921 180.887 155.713C180.828 155.601 180.768 155.486 180.702 155.383L180.534 155.086C180.204 154.515 179.834 153.951 179.438 153.4C179.29 153.189 179.134 152.981 178.979 152.776C178.728 152.446 178.471 152.116 178.197 151.806C178.108 151.7 178.019 151.595 177.926 151.493C177.728 151.265 177.52 151.04 177.312 150.813L177.078 150.569C176.857 150.344 176.636 150.116 176.401 149.909C176.226 149.74 176.045 149.579 175.86 149.4C175.675 149.222 175.411 148.994 175.177 148.793C174.942 148.592 174.728 148.414 174.497 148.226L174.14 147.942L173.863 147.727C173.592 147.519 173.312 147.311 173.028 147.107C172.926 147.038 172.827 146.962 172.724 146.889C172.167 146.496 171.582 146.114 170.978 145.737L170.648 145.539L170.173 145.252L169.764 145.015C168.194 144.123 166.574 143.324 164.911 142.622C164.581 142.474 164.218 142.325 163.865 142.183L163.205 141.929C162.875 141.804 162.565 141.685 162.235 141.563C161.472 141.282 160.686 141.008 159.878 140.748L159.277 140.556L158.673 140.368L158.155 140.213L157.429 140.002L156.798 139.824L156.237 139.675C155.349 139.441 154.435 139.21 153.497 138.989L152.814 138.834C151.945 138.64 151.056 138.454 150.147 138.276L149.395 138.134L148.734 138.012C147.932 137.87 147.12 137.732 146.289 137.6L145.49 137.477C144.949 137.395 144.404 137.319 143.839 137.243L143.008 137.134C141.333 136.914 139.6 136.725 137.809 136.567L136.905 136.487L135.994 136.412C135.69 136.388 135.383 136.362 135.073 136.342L134.142 136.276L133.673 136.247L132.887 136.197C131.33 136.105 129.722 136.029 128.078 135.976L127.111 135.946L126.319 135.923L125.385 135.907H125.144H124.154H123.758L122.252 135.89H120.028C119.552 135.89 119.074 135.89 118.602 135.907H118.272H117.364L116.417 135.93L115.502 135.953C114.433 135.986 113.377 136.025 112.337 136.078L111.594 136.118L110.69 136.167L109.898 136.217C108.667 136.299 107.458 136.388 106.267 136.494L105.415 136.573L104.56 136.656L102.88 136.837C102.468 136.883 102.058 136.93 101.656 136.982L101.085 137.055L100.302 137.157C99.5366 137.26 98.7841 137.365 98.0414 137.487H98.0051C97.2503 137.602 96.5066 137.724 95.7738 137.854L94.975 137.999C94.5162 138.085 94.0607 138.167 93.6085 138.26L93.4897 138.283C92.9979 138.378 92.4994 138.481 92.034 138.583C91.3144 138.735 90.6114 138.913 89.9149 139.061L89.2218 139.226L88.5386 139.401L87.8619 139.576C87.1885 139.754 86.5284 139.937 85.8814 140.124L85.2972 140.299L84.9968 140.385L83.9736 140.715L83.3498 140.916L82.7391 141.121C81.9271 141.398 81.136 141.683 80.3659 141.975L79.7915 142.196L79.1974 142.345C78.8343 142.487 78.4811 142.639 78.128 142.79H78.1015C77.7714 142.936 77.4216 143.087 77.0882 143.239C76.8869 143.328 76.6954 143.421 76.5007 143.51L75.9792 143.757L75.4675 144.005L74.9625 144.259L74.4674 144.516L73.9789 144.774L73.5003 145.034L73.0283 145.302L72.5628 145.569L72.1041 145.84L71.6551 146.114C71.3581 146.298 71.0676 146.486 70.7805 146.671C70.3404 146.951 69.9211 147.237 69.5229 147.529L68.7274 148.113C68.4666 148.311 68.2092 148.509 67.9583 148.711C67.7074 148.912 67.4599 149.113 67.2222 149.318L67.1925 149.338C66.3849 150.025 65.6137 150.755 64.882 151.522L64.5783 151.852L64.2813 152.182C64.1823 152.291 64.0865 152.403 63.9941 152.512C63.9017 152.621 63.8027 152.733 63.7136 152.842L63.4396 153.172C63.3505 153.281 63.2613 153.397 63.1755 153.502C63.0897 153.608 63.0006 153.727 62.9147 153.832C62.8289 153.938 62.7366 154.073 62.6507 154.195C62.5649 154.317 62.4955 154.41 62.4229 154.525C62.2645 154.756 62.1094 154.987 61.9608 155.218C61.8849 155.334 61.8123 155.449 61.7397 155.568L61.5251 155.918C61.4558 156.037 61.3865 156.156 61.3205 156.274L61.1257 156.627C61.0564 156.75 60.9937 156.865 60.9343 156.984C60.8749 157.103 60.8089 157.225 60.7495 157.347C60.6901 157.469 60.634 157.581 60.5779 157.7C60.2896 158.307 60.0343 158.921 59.8121 159.541C59.7262 159.779 59.6437 160.013 59.5711 160.251C59.4985 160.488 59.4094 160.779 59.3368 161.04C59.3038 161.165 59.2674 161.29 59.2344 161.419C59.2014 161.548 59.1618 161.716 59.1321 161.865C59.1024 162.013 59.0826 162.076 59.0562 162.195C59.0298 162.313 59.0199 162.373 59.0034 162.459C58.9869 162.544 58.9539 162.709 58.9341 162.831L58.8944 163.062C58.8944 163.158 58.8615 163.254 58.8483 163.35C58.8351 163.445 58.8152 163.571 58.7987 163.68C58.7822 163.788 58.7723 163.878 58.7624 163.973C58.7525 164.069 58.7393 164.175 58.7294 164.274C58.7195 164.373 58.6997 164.564 58.6865 164.709C60.3072 180.955 87.6276 193.885 121.071 193.885C154.58 193.885 181.93 180.916 183.455 164.633C183.458 164.277 183.422 163.901 183.376 163.528Z" fill="#F48E9F" stroke="#043866" stroke-miterlimit="10"/>
<path id="Vector_16" d="M105.522 172.312L105.522 172.312C103.125 171.183 100.282 170.574 97.3014 170.142C95.8084 169.925 94.2711 169.753 92.7301 169.583C92.5934 169.568 92.4568 169.553 92.3201 169.538C90.9127 169.384 89.5048 169.23 88.1153 169.044C81.9832 168.226 76.4179 166.817 73.297 162.401C72.2422 160.908 71.9066 159.37 72.0874 157.804C72.27 156.223 72.9824 154.588 74.0706 152.933C76.2514 149.616 79.8565 146.343 83.3331 143.431C84.1526 142.745 84.9626 142.081 85.7429 141.443C85.8077 141.39 85.8723 141.337 85.9366 141.285C86.6469 140.704 87.3313 140.144 87.9708 139.61C89.3599 138.451 90.5615 137.397 91.3768 136.493C93.1828 134.517 94.8973 132.389 96.6001 130.268C96.6509 130.205 96.7017 130.141 96.7526 130.078C98.4077 128.016 100.054 125.965 101.781 124.046C105.34 120.089 109.201 116.739 114.062 115.078L114.062 115.078C121.924 112.391 131.323 115.329 136.368 122.088L136.368 122.088C137.976 124.24 139.148 126.679 140.276 129.202C140.455 129.602 140.633 130.005 140.812 130.409C141.752 132.536 142.708 134.698 143.9 136.715L143.9 136.715C145.172 138.867 146.722 140.874 148.247 142.847C148.773 143.527 149.295 144.203 149.802 144.88C151.794 147.539 153.569 150.235 154.513 153.344L154.513 153.344C156.908 161.203 152.969 170.246 146.281 174.946L146.281 174.946C140.161 179.251 133.105 180.071 125.995 179.07C118.877 178.068 111.744 175.245 105.522 172.312Z" fill="#1471D0" stroke="#043866"/>
<g id="smiley eyes_2" clip-path="url(#clip2_444_10220)">
<path id="Vector_17" d="M113.687 129.852C113.8 129.495 114.031 129.188 114.343 128.981C114.655 128.774 115.028 128.68 115.401 128.716C115.774 128.751 116.123 128.913 116.39 129.175C116.658 129.436 116.828 129.782 116.871 130.154" stroke="white" stroke-miterlimit="10" stroke-linecap="round"/>
<path id="Vector_18" d="M120.227 130.615C120.342 130.261 120.575 129.957 120.886 129.752C121.197 129.548 121.569 129.455 121.94 129.49C122.311 129.524 122.659 129.684 122.927 129.942C123.195 130.201 123.367 130.543 123.415 130.912" stroke="white" stroke-miterlimit="10" stroke-linecap="round"/>
</g>
</g>
<g id="tubby 1">
<path id="Vector_19" d="M80.519 206.431C96.904 206.431 102.898 208.827 102.898 211.777C102.898 214.727 92.8771 217.127 80.519 217.127C68.161 217.127 58.1365 214.731 58.1365 211.777C58.1365 208.824 65.352 206.431 80.519 206.431ZM149.947 215.061C149.914 214.642 149.875 214.226 149.822 213.807C149.806 213.67 149.79 213.538 149.772 213.411C149.772 213.411 149.772 213.391 149.772 213.381C149.736 213.117 149.693 212.856 149.65 212.596C149.607 212.335 149.551 212.031 149.492 211.748C149.465 211.616 149.432 211.484 149.403 211.348C149.404 211.343 149.404 211.337 149.403 211.332C149.373 211.2 149.343 211.068 149.31 210.936C149.244 210.668 149.175 210.398 149.102 210.131C149.066 209.995 149.026 209.863 148.987 209.728C148.947 209.593 148.908 209.464 148.865 209.332C148.822 209.2 148.779 209.058 148.733 208.923C148.65 208.675 148.561 208.424 148.469 208.18C148.32 207.774 148.158 207.378 147.983 206.979L147.812 206.593C147.752 206.464 147.696 206.336 147.633 206.21C147.571 206.085 147.525 205.989 147.472 205.88L147.419 205.778C147.3 205.544 147.178 205.306 147.053 205.075C146.987 204.95 146.917 204.824 146.845 204.702C146.772 204.58 146.719 204.478 146.656 204.372C146.28 203.735 145.877 203.108 145.438 202.494C145.27 202.26 145.108 202.032 144.927 201.801C144.646 201.438 144.359 201.079 144.055 200.722L143.758 200.372C143.534 200.118 143.306 199.867 143.072 199.62C142.986 199.524 142.9 199.435 142.811 199.346C142.567 199.095 142.319 198.841 142.062 198.594C141.867 198.406 141.666 198.217 141.458 198.026C141.25 197.835 140.956 197.574 140.695 197.366C140.435 197.158 140.197 196.944 139.939 196.732L139.543 196.402L139.233 196.162C138.933 195.931 138.622 195.7 138.306 195.475L137.975 195.231C137.355 194.792 136.708 194.366 136.035 193.947L135.668 193.726C135.493 193.617 135.318 193.515 135.137 193.396L134.685 193.132C132.939 192.14 131.137 191.251 129.288 190.469C128.902 190.304 128.515 190.139 128.119 189.984C127.882 189.885 127.641 189.793 127.396 189.697C127.04 189.558 126.68 189.426 126.317 189.291C125.469 188.977 124.591 188.677 123.693 188.387L123.033 188.172L122.356 187.961L121.782 187.789L120.977 187.555L120.27 187.357L119.646 187.189C118.656 186.922 117.646 186.671 116.603 186.43C116.349 186.367 116.095 186.311 115.841 186.255C114.877 186.037 113.886 185.833 112.87 185.635C112.593 185.582 112.312 185.526 112.031 185.476C111.751 185.427 111.536 185.384 111.289 185.341C110.398 185.179 109.493 185.011 108.566 184.882L107.678 184.744C107.077 184.654 106.466 184.569 105.852 184.486L104.928 184.364C103.067 184.122 101.138 183.911 99.1419 183.73L98.1517 183.645L97.1384 183.559L96.1118 183.483L95.0754 183.41L94.5539 183.377L93.6824 183.321C91.9462 183.218 90.1627 183.135 88.3319 183.074L87.2526 183.041L86.3713 183.018C86.0412 183.018 85.6814 183.018 85.3349 182.998H85.0642C84.6945 182.998 84.3248 182.981 83.9518 182.981H83.5161H81.8459H79.3704H77.7827H77.3998C77.0697 182.981 76.7397 182.981 76.4096 182.998L75.3534 183.021L74.3367 183.047C73.1451 183.084 71.9734 183.133 70.8148 183.186L69.9896 183.232L68.9994 183.288L68.118 183.341C66.7493 183.429 65.4048 183.532 64.0845 183.651L63.1372 183.737L62.1833 183.829C61.5561 183.891 60.9345 183.958 60.3184 184.031L58.9551 184.192L58.3181 184.275L57.45 184.387C56.5984 184.503 55.7567 184.621 54.9348 184.75H54.8919C54.0535 184.879 53.2415 185.017 52.4097 185.159L51.5185 185.321C51.0102 185.413 50.5019 185.509 50.0002 185.608L49.8681 185.635C49.3235 185.743 48.7822 185.852 48.2508 185.965C47.4498 186.132 46.6631 186.309 45.8907 186.496C45.63 186.555 45.3758 186.621 45.1216 186.684L44.3591 186.875L43.6066 187.07C42.8573 187.268 42.1245 187.469 41.405 187.681L40.7448 187.872L40.4147 187.971L39.276 188.327L38.5828 188.552L37.9028 188.779C36.9984 189.087 36.1182 189.405 35.2622 189.733L34.6219 189.981L33.9783 190.238L32.7899 190.733H32.7603C32.3807 190.898 32.0044 191.063 31.6314 191.231L30.9712 191.532L30.3936 191.809C30.2021 191.898 30.0107 191.99 29.8226 192.086L29.2614 192.367L28.7102 192.65L28.1689 192.937L27.6342 193.228L27.1093 193.525L26.5912 193.822L26.0828 194.125L25.5811 194.432C25.251 194.634 24.921 194.842 24.5909 195.053C24.1156 195.363 23.6469 195.68 23.1947 196.003C22.8943 196.221 22.5972 196.435 22.3067 196.663C22.0162 196.891 21.7324 197.105 21.4519 197.323C21.1713 197.541 20.8973 197.769 20.6333 197.983L20.6002 198.01C19.7011 198.774 18.8428 199.584 18.0289 200.438L17.6989 200.801C17.5866 200.92 17.4777 201.042 17.3688 201.168C17.2599 201.293 17.1509 201.412 17.0387 201.534L16.7252 201.9L16.4215 202.276C16.3225 202.399 16.2234 202.524 16.1277 202.649C16.032 202.775 15.933 202.9 15.8373 203.029C15.7415 203.158 15.6392 203.296 15.5435 203.432C15.4477 203.567 15.3718 203.669 15.2893 203.788C15.111 204.045 14.9395 204.303 14.7744 204.56C14.6919 204.689 14.6094 204.818 14.5302 204.95C14.451 205.082 14.3684 205.21 14.2925 205.339C14.2166 205.468 14.1406 205.603 14.0647 205.735C13.9888 205.867 13.9162 205.999 13.8469 206.131C13.7776 206.263 13.7017 206.392 13.6324 206.524C13.5631 206.656 13.4937 206.791 13.4277 206.926C13.3617 207.062 13.2989 207.19 13.2362 207.322C12.9193 207.995 12.6355 208.677 12.3847 209.368C12.2923 209.632 12.2031 209.893 12.1173 210.16C12.0315 210.428 11.9357 210.744 11.8565 211.038C11.8202 211.177 11.7806 211.315 11.7443 211.457C11.708 211.599 11.6618 211.787 11.6288 211.955C11.5958 212.124 11.5727 212.19 11.5463 212.305C11.5199 212.421 11.5034 212.503 11.4869 212.602L11.4077 213.015C11.4077 213.104 11.3779 213.19 11.3647 213.272C11.3515 213.355 11.3284 213.487 11.3119 213.602C11.2954 213.718 11.2756 213.846 11.2591 213.965C11.2426 214.084 11.2327 214.186 11.2162 214.295C11.1997 214.404 11.1898 214.52 11.1798 214.625C11.1633 214.787 11.1469 214.955 11.1337 215.11C11.0743 215.77 11.0479 216.43 11.0479 217.09C11.0479 243.002 24.8055 265 80.5554 265C136.731 265 150.06 238.372 150.06 217.09C150.013 216.434 149.99 215.744 149.937 215.061H149.947Z" fill="#F9D43A" stroke="#043866" stroke-miterlimit="10"/>
<path id="Vector_20" d="M150.014 217.126C150.014 235.993 118.894 251.288 80.5094 251.288C42.1248 251.288 11.002 235.993 11.002 217.126C11.002 216.466 11.0284 215.806 11.0878 215.146C12.8867 233.217 43.2834 247.615 80.5193 247.615C117.818 247.615 148.228 233.184 149.947 215.071C149.99 215.744 150.014 216.433 150.014 217.126Z" fill="#66CCB4" stroke="#043866" stroke-miterlimit="10"/>
<path id="Vector_21" d="M80.5196 213.764C68.1582 213.764 58.1371 211.368 58.1371 208.418C58.1371 205.468 65.3526 203.065 80.5196 203.065C96.9046 203.065 102.899 205.458 102.899 208.411C102.899 211.365 92.8677 213.764 80.5196 213.764ZM149.836 213.807C149.82 213.67 149.804 213.538 149.786 213.411C149.786 213.411 149.786 213.391 149.786 213.381C149.75 213.117 149.707 212.856 149.664 212.596C149.621 212.335 149.565 212.031 149.506 211.748C149.479 211.616 149.446 211.484 149.416 211.348C149.418 211.343 149.418 211.337 149.416 211.332C149.387 211.2 149.357 211.068 149.324 210.936C149.258 210.668 149.189 210.398 149.116 210.131C149.08 209.995 149.04 209.863 149.001 209.728C148.961 209.593 148.921 209.464 148.878 209.332C148.836 209.2 148.793 209.058 148.746 208.923C148.664 208.675 148.571 208.424 148.482 208.18C148.334 207.774 148.172 207.378 147.997 206.979L147.825 206.593C147.766 206.464 147.71 206.336 147.647 206.21C147.585 206.085 147.538 205.989 147.485 205.88L147.433 205.778C147.314 205.543 147.192 205.306 147.066 205.075C147 204.95 146.931 204.824 146.858 204.702C146.786 204.58 146.733 204.478 146.67 204.372C146.294 203.735 145.891 203.108 145.452 202.494C145.284 202.26 145.122 202.032 144.941 201.801C144.66 201.438 144.373 201.079 144.069 200.722L143.772 200.372C143.548 200.118 143.32 199.867 143.086 199.62C143 199.524 142.914 199.435 142.825 199.346C142.581 199.095 142.333 198.841 142.076 198.594L141.471 198.026C141.225 197.806 140.971 197.586 140.709 197.366C140.461 197.155 140.211 196.944 139.953 196.732L139.557 196.402L139.247 196.162C138.946 195.931 138.636 195.7 138.319 195.475L137.989 195.231C137.369 194.792 136.722 194.366 136.048 193.947L135.682 193.726C135.507 193.617 135.332 193.515 135.151 193.396L134.698 193.132C132.953 192.14 131.151 191.251 129.302 190.469C128.914 190.304 128.525 190.142 128.133 189.984C127.895 189.885 127.655 189.793 127.41 189.697C127.054 189.558 126.694 189.426 126.331 189.291C125.483 188.977 124.605 188.677 123.707 188.387L123.047 188.172L122.37 187.961L121.796 187.789L120.99 187.555L120.284 187.357L119.66 187.189C118.67 186.922 117.66 186.671 116.617 186.43C116.363 186.367 116.108 186.311 115.854 186.255C114.89 186.037 113.9 185.833 112.884 185.635C112.606 185.582 112.326 185.526 112.045 185.476C111.765 185.427 111.55 185.384 111.302 185.341C110.411 185.179 109.507 185.011 108.579 184.882L107.691 184.744C107.091 184.654 106.48 184.569 105.866 184.486L104.942 184.364C103.08 184.122 101.152 183.911 99.1557 183.73L98.1654 183.645L97.1521 183.559L96.1256 183.483L95.0891 183.41L94.5676 183.377L93.6962 183.321C91.96 183.218 90.1765 183.135 88.3457 183.074L87.2663 183.041L86.385 183.018C86.055 183.018 85.6951 183.018 85.3486 182.998H85.0779C84.7083 182.998 84.3385 182.981 83.9656 182.981H83.5299H81.8597H79.3841H77.7964H77.4136C77.0835 182.981 76.7534 182.981 76.4234 182.998L75.3671 183.021L74.3505 183.047C73.1589 183.084 71.9871 183.133 70.8285 183.186L70.0033 183.232L69.0131 183.288L68.1318 183.341C66.7631 183.429 65.4186 183.532 64.0983 183.651L63.1509 183.737L62.197 183.829C61.5699 183.891 60.9483 183.958 60.3321 184.031L58.9689 184.192L58.3319 184.275L57.4637 184.387C56.6121 184.503 55.7705 184.621 54.9486 184.75H54.9056C54.0672 184.879 53.2552 185.017 52.4234 185.159L51.5323 185.321C51.0239 185.413 50.519 185.509 50.014 185.608L49.8819 185.635C49.3372 185.743 48.796 185.852 48.2645 185.965C47.4635 186.132 46.6768 186.309 45.9044 186.496C45.6437 186.555 45.3896 186.621 45.1354 186.684L44.3729 186.875L43.6203 187.07C42.8711 187.268 42.1383 187.469 41.4187 187.681L40.7586 187.872L40.4285 187.971L39.2898 188.327L38.5966 188.552L37.9166 188.779C37.0122 189.087 36.132 189.405 35.276 189.733L34.6357 189.981L33.992 190.238C33.5893 190.4 33.1965 190.568 32.8037 190.733H32.7741C32.3945 190.895 32.0181 191.063 31.6452 191.231L30.985 191.532L30.4074 191.809C30.2159 191.898 30.0245 191.99 29.8363 192.086L29.2752 192.367L28.724 192.65L28.1827 192.937L27.648 193.228L27.1231 193.525L26.6049 193.822L26.0966 194.125L25.5949 194.432C25.2648 194.634 24.9348 194.842 24.6047 195.053C24.1261 195.36 23.6607 195.68 23.2085 196.003C22.9081 196.221 22.611 196.435 22.3205 196.663C22.03 196.891 21.7462 197.105 21.4657 197.323C21.1851 197.541 20.9111 197.769 20.6471 197.983L20.614 198.01C19.7141 198.773 18.8557 199.583 18.0427 200.438L17.7126 200.801C17.6004 200.92 17.4915 201.042 17.3826 201.168C17.2736 201.293 17.1647 201.412 17.0525 201.534L16.7389 201.9L16.4353 202.276C16.3363 202.399 16.2372 202.524 16.1415 202.649C16.0458 202.775 15.9468 202.9 15.851 203.029C15.7553 203.158 15.653 203.296 15.5572 203.431C15.4615 203.567 15.3856 203.669 15.3031 203.788C15.1248 204.045 14.9533 204.303 14.7882 204.56C14.7057 204.689 14.6232 204.818 14.544 204.95C14.4647 205.082 14.3822 205.21 14.3062 205.339C14.2303 205.468 14.1544 205.603 14.0785 205.735C14.0026 205.867 13.93 205.999 13.8607 206.131C13.7914 206.263 13.7154 206.392 13.6461 206.524C13.5768 206.656 13.5075 206.791 13.4415 206.926C13.3755 207.062 13.3127 207.19 13.25 207.322C12.9331 207.995 12.6493 208.677 12.3985 209.368C12.3038 209.632 12.2147 209.896 12.1311 210.16C12.0354 210.451 11.9495 210.744 11.8703 211.038C11.834 211.177 11.7944 211.315 11.7581 211.457C11.7217 211.599 11.6756 211.787 11.6426 211.955C11.6096 212.124 11.5865 212.19 11.5601 212.305C11.5337 212.421 11.5171 212.503 11.5006 212.602L11.4214 213.015C11.4214 213.104 11.3917 213.19 11.3785 213.272C11.3653 213.355 11.3422 213.487 11.3257 213.602C11.3092 213.718 11.2894 213.846 11.2729 213.965C11.2563 214.084 11.2465 214.186 11.23 214.295C11.2135 214.404 11.2035 214.52 11.1936 214.625C11.1771 214.787 11.1607 214.955 11.1475 215.11C12.8903 233.221 43.287 247.615 80.5196 247.615C117.818 247.615 148.228 233.184 149.948 215.071C149.905 214.642 149.865 214.226 149.812 213.807H149.836Z" fill="#005DAA" stroke="#043866" stroke-miterlimit="10"/>
<path id="Vector_22" d="M113.241 202.879L113.241 202.878C116.937 196.69 117.895 187.768 116.314 179.358C114.733 170.946 110.636 163.171 104.369 159.208C98.1526 155.279 90.5699 153.386 83.8239 154.454C77.1038 155.517 71.1945 159.516 68.2352 167.438L68.2351 167.439C67.9904 168.092 67.7783 168.756 67.562 169.432C67.5013 169.622 67.4403 169.813 67.3781 170.005C67.0969 170.873 66.7951 171.755 66.4064 172.609L66.4063 172.609C65.3081 175.016 63.5874 177.058 61.8234 178.935C58.8033 182.149 56.2284 183.997 53.4214 185.36C51.1611 186.458 48.7503 187.239 45.8729 188.172C45.2056 188.389 44.5133 188.613 43.7918 188.852L43.7916 188.852C40.4988 189.938 36.952 191.368 33.8961 193.37C30.8413 195.371 28.305 197.926 26.9853 201.253L113.241 202.879ZM113.241 202.879C110.414 207.622 105.572 212.168 100.126 216.055C94.6858 219.937 88.6787 223.135 83.5622 225.197C71.3027 230.135 57.279 230.891 44.726 226.642L44.7259 226.642M113.241 202.879L44.7259 226.642M44.7259 226.642C39.16 224.76 33.8101 221.887 30.167 217.386C26.5235 212.885 24.8862 206.552 26.9852 201.253L44.7259 226.642Z" fill="#F9D43A" stroke="#043866"/>
<g id="smiley eyes_3" clip-path="url(#clip3_444_10220)">
<path id="Vector_23" d="M74.1158 170.107C74.2342 169.674 74.4976 169.294 74.8621 169.032C75.2266 168.769 75.6701 168.64 76.1186 168.665C76.567 168.69 76.9932 168.868 77.3261 169.17C77.659 169.471 77.8784 169.878 77.9476 170.322" stroke="#043866" stroke-miterlimit="10" stroke-linecap="round"/>
<path id="Vector_24" d="M81.9942 170.72C82.1163 170.29 82.3809 169.914 82.7447 169.655C83.1084 169.395 83.5497 169.267 83.996 169.291C84.4422 169.315 84.8669 169.491 85.2002 169.788C85.5336 170.086 85.7558 170.488 85.8304 170.929" stroke="#043866" stroke-miterlimit="10" stroke-linecap="round"/>
</g>
</g>
</g>
<defs>
<filter id="filter0_d_444_10220" x="0.501953" y="0.00012207" width="234.223" height="285.5" filterUnits="userSpaceOnUse" color-interpolation-filters="sRGB">
<feFlood flood-opacity="0" result="BackgroundImageFix"/>
<feColorMatrix in="SourceAlpha" type="matrix" values="0 0 0 0 0 0 0 0 0 0 0 0 0 0 0 0 0 0 127 0" result="hardAlpha"/>
<feOffset dx="5" dy="5"/>
<feGaussianBlur stdDeviation="7.5"/>
<feComposite in2="hardAlpha" operator="out"/>
<feColorMatrix type="matrix" values="0 0 0 0 0 0 0 0 0 0 0 0 0 0 0 0 0 0 0.15 0"/>
<feBlend mode="normal" in2="BackgroundImageFix" result="effect1_dropShadow_444_10220"/>
<feBlend mode="normal" in="SourceGraphic" in2="effect1_dropShadow_444_10220" result="shape"/>
</filter>
<clipPath id="clip0_444_10220">
<rect width="10" height="7.64706" fill="white" transform="translate(172.819 16.152) rotate(52.3304)"/>
</clipPath>
<clipPath id="clip1_444_10220">
<rect width="8" height="2.93206" fill="white" transform="translate(114.924 75.009)"/>
</clipPath>
<clipPath id="clip2_444_10220">
<rect width="10" height="7.64706" fill="white" transform="translate(117.471 123.995) rotate(41.2071)"/>
</clipPath>
<clipPath id="clip3_444_10220">
<rect width="12" height="9.17647" fill="white" transform="translate(78.3828 162.908) rotate(39.0026)"/>
</clipPath>
</defs>
</svg>
