<svg width="218" height="234" viewBox="0 0 218 234" fill="none" xmlns="http://www.w3.org/2000/svg">
<g id="wave ball" filter="url(#filter0_d_444_10256)">
<path id="Vector" d="M104 213C155.363 213 197 171.269 197 119.792C197 68.3145 155.363 26.5839 104 26.5839C52.6375 26.5839 11 68.3145 11 119.792C11 171.269 52.6375 213 104 213Z" fill="#1471D0" stroke="#043866" stroke-miterlimit="10"/>
<path id="Vector_2" d="M154.441 40.6228C149.581 43.1816 138.522 37.3344 133.662 35.0169C128.802 32.6994 119.43 27.5978 114.447 29.3037C109.464 31.0096 109.715 35.6284 104.004 35.7411C98.293 35.6231 98.5445 30.9989 93.5613 29.3037C88.5782 27.6085 79.2113 32.7048 74.3512 35.0169C69.4911 37.329 58.4275 43.1816 53.5674 40.6228C53.5674 35.6284 55.9974 32.0932 56.4791 26.9808C56.9608 21.8685 61.5854 16.3806 67.1841 19.5456C72.7829 22.7107 73.5162 25.1086 83.1025 23.3008C96.8371 20.7473 94.771 11 104.009 11C113.248 11 111.182 20.7473 124.911 23.3008C134.503 25.0872 135.241 22.6946 140.835 19.5456C146.428 16.3967 151.047 21.8631 151.54 26.9808C152.032 32.0986 154.441 35.6284 154.441 40.6228Z" fill="#F9D43A" stroke="#043866" stroke-miterlimit="10"/>
<path id="Vector_3" d="M179.993 66.0503C179.993 72.1175 145.967 77.0314 103.987 77.0314C62.0074 77.0314 27.9814 72.1175 27.9814 66.0503" stroke="#043866" stroke-miterlimit="10"/>
</g>
<defs>
<filter id="filter0_d_444_10256" x="0.5" y="0.5" width="217" height="233" filterUnits="userSpaceOnUse" color-interpolation-filters="sRGB">
<feFlood flood-opacity="0" result="BackgroundImageFix"/>
<feColorMatrix in="SourceAlpha" type="matrix" values="0 0 0 0 0 0 0 0 0 0 0 0 0 0 0 0 0 0 127 0" result="hardAlpha"/>
<feOffset dx="5" dy="5"/>
<feGaussianBlur stdDeviation="7.5"/>
<feComposite in2="hardAlpha" operator="out"/>
<feColorMatrix type="matrix" values="0 0 0 0 0 0 0 0 0 0 0 0 0 0 0 0 0 0 0.15 0"/>
<feBlend mode="normal" in2="BackgroundImageFix" result="effect1_dropShadow_444_10256"/>
<feBlend mode="normal" in="SourceGraphic" in2="effect1_dropShadow_444_10256" result="shape"/>
</filter>
</defs>
</svg>
