<svg xmlns="http://www.w3.org/2000/svg" viewBox="0 0 1000 600"><defs><style>.cls-1{fill:#50741c;}.cls-1,.cls-2,.cls-3,.cls-4,.cls-7{stroke:#043866;stroke-miterlimit:10;}.cls-1,.cls-2,.cls-3,.cls-7{stroke-linecap:round;}.cls-2{fill:none;}.cls-3,.cls-4{fill:#5a8a15;}.cls-5{fill:#7f9b4e;}.cls-6{fill:#043866;}.cls-7{fill:#a4c673;}</style></defs><g id="Layer_2" data-name="Layer 2"><g id="prizes_bg_dark_1" data-name="prizes bg dark 1"><g id="tree-2"><path id="Vector" class="cls-1" d="M64.86,57.1a18.38,18.38,0,0,0,2.08-8.94A18.89,18.89,0,0,0,49,29.88,18.67,18.67,0,0,0,32.5,38.47a18.27,18.27,0,0,0-2.92,9.16,18.76,18.76,0,0,0,2,9.43,11.88,11.88,0,0,1-2.7,14.47,30,30,0,0,0-10.67,23.2,30.3,30.3,0,0,0,28.42,29.79,30,30,0,0,0,20.93-53A12,12,0,0,1,64.86,57.1Z"/><path id="Vector_2" data-name="Vector 2" class="cls-2" d="M48.25,45.22V174.1"/><path id="Vector_3" data-name="Vector 3" class="cls-2" d="M48.26,107.61,63.62,92.25"/><path id="Vector_4" data-name="Vector 4" class="cls-2" d="M48.26,89.68,37.15,78.57"/><path id="Vector_5" data-name="Vector 5" class="cls-2" d="M48.26,57.94l7.84-7.83"/></g><g id="tree-3"><path id="Vector-2" data-name="Vector" class="cls-3" d="M886,87.6c-4.85-5.29-6.43-13-3.36-19.48a21.66,21.66,0,0,0-5.56-25.95,10.11,10.11,0,0,1-2.84-11.24,12.74,12.74,0,0,0,.79-5.6,13,13,0,0,0-1.65-5.4,13.78,13.78,0,0,0-3.79-4.22,13.37,13.37,0,0,0-5.2-2.21,12.33,12.33,0,0,0-5.64.23,13.11,13.11,0,0,0-5,2.61,13.4,13.4,0,0,0-3.47,4.49,13,13,0,0,0,0,10.93,10.24,10.24,0,0,1-2.33,11.59,21.9,21.9,0,0,0-6.07,11.52,21.55,21.55,0,0,0,1.62,12.89,18.17,18.17,0,0,1,1.45,10.29,17.9,17.9,0,0,1-4.49,9.39,31,31,0,0,0-8.32,20.86A31.1,31.1,0,1,0,886,87.6Z"/><g id="Vector_2-2" data-name="Vector 2"><path class="cls-4" d="M863.1,48.75v0Z"/><path class="cls-2" d="M863.1,48.75V186.58"/></g><g id="Vector_3-2" data-name="Vector 3"><path class="cls-4" d="M863.1,123.56,846,106.41Z"/><path class="cls-2" d="M863.1,123.56,846,106.41"/></g><g id="Vector_4-2" data-name="Vector 4"><path class="cls-4" d="M863.1,102.27,873.36,92Z"/><path class="cls-2" d="M863.1,102.27,873.36,92"/></g><g id="Vector_5-2" data-name="Vector 5"><path class="cls-4" d="M863.1,65.12,854,56.05Z"/><path class="cls-2" d="M863.1,65.12,854,56.05"/></g><g id="Vector_6" data-name="Vector 6"><path class="cls-4" d="M863.1,65.12,873.24,55Z"/><path class="cls-2" d="M863.1,65.12,873.24,55"/></g></g><path class="cls-5" d="M-.5,599.5V158.31l.39-.09A55.22,55.22,0,0,1,11.49,157,53.9,53.9,0,0,1,48.3,171.43a110.61,110.61,0,0,1,175.53-2.91,54.31,54.31,0,0,1,94.44,23.06,114.85,114.85,0,0,1,173.94-9.43,46,46,0,0,1,39.28-22.22,45.37,45.37,0,0,1,33,14,58.74,58.74,0,0,1,69.06-6,110.64,110.64,0,0,1,183.17,4,104.27,104.27,0,0,1,141,33.38,54.47,54.47,0,0,1,42.24-47.11l.61-.13V599.5Z"/><path class="cls-6" d="M723.77,121.86a110,110,0,0,1,92.76,50.76A103.79,103.79,0,0,1,958,206.83a53.68,53.68,0,0,1,42-48.12V599H0V158.71a54.36,54.36,0,0,1,11.49-1.23,53.47,53.47,0,0,1,36.88,14.69,110.12,110.12,0,0,1,175.45-2.86A53.82,53.82,0,0,1,318,192.74,114.37,114.37,0,0,1,492.31,183a45.31,45.31,0,0,1,72.12-8.33,58.25,58.25,0,0,1,69.23-6,110,110,0,0,1,90.11-46.8m0-1a111.33,111.33,0,0,0-90.39,46.47,59.23,59.23,0,0,0-68.89,5.93,45.87,45.87,0,0,0-33-13.83,46.48,46.48,0,0,0-39.36,21.91A115.43,115.43,0,0,0,357,158.76a116.4,116.4,0,0,0-38.52,31.69,54.82,54.82,0,0,0-94.68-22.71A111.16,111.16,0,0,0,86.15,138.55a112.07,112.07,0,0,0-37.92,32.13,54.43,54.43,0,0,0-36.74-14.2,55.52,55.52,0,0,0-11.7,1.26l-.79.17V600H1001V157.47l-1.22.27a54.69,54.69,0,0,0-42.47,46.16,104.79,104.79,0,0,0-140.47-32.63,110.71,110.71,0,0,0-93.07-50.41Z"/><g id="leaf"><path id="Vector-3" data-name="Vector" class="cls-7" d="M937.94,116.51c3.16-2.7,7.56-1.57,11.83,2.19,4.72,4.2,6.37,8.72,4.31,11.21s-6.39,2.35-11.83-2.19C937.81,124,935.22,118.81,937.94,116.51Z"/><path id="Vector_2-3" data-name="Vector 2" class="cls-2" d="M954.08,129.91,938,116.47"/><path id="Vector_3-3" data-name="Vector 3" class="cls-2" d="M948,131.12v-6.26"/><path id="Vector_4-3" data-name="Vector 4" class="cls-2" d="M942.82,128.19l-.76-8.23"/><path id="Vector_5-3" data-name="Vector 5" class="cls-2" d="M954.38,124.71l-8.26-1.4"/><path id="Vector_6-2" data-name="Vector 6" class="cls-2" d="M948.28,117.46l-7.89,1.11"/></g><g id="leaf-2" data-name="leaf"><path id="Vector-4" data-name="Vector" class="cls-7" d="M82.4,33.45c-.76-4.09,2.41-7.34,7.8-9.16,6-2,10.74-1.17,11.87,1.86s-1.16,6.71-7.8,9.16C88.84,37.31,83,37,82.4,33.45Z"/><path id="Vector_2-4" data-name="Vector 2" class="cls-2" d="M102.07,26.15l-19.7,7.27"/><path id="Vector_3-4" data-name="Vector 3" class="cls-2" d="M100.07,32.05l-5.44-3.12"/><path id="Vector_4-4" data-name="Vector 4" class="cls-2" d="M95,35.05,87.45,31.6"/><path id="Vector_5-4" data-name="Vector 5" class="cls-2" d="M97.71,23.3l-5.34,6.46"/><path id="Vector_6-3" data-name="Vector 6" class="cls-2" d="M88.38,25l-3,7.38"/></g></g></g></svg>