<svg xmlns="http://www.w3.org/2000/svg" viewBox="0 0 1000 600"><defs><style>.cls-1,.cls-2{fill:#5a8a15;}.cls-1,.cls-2,.cls-3,.cls-4,.cls-7{stroke:#043866;stroke-miterlimit:10;}.cls-1,.cls-3,.cls-4,.cls-7{stroke-linecap:round;}.cls-3{fill:none;}.cls-4{fill:#50741c;}.cls-5{fill:#7f9b4e;}.cls-6{fill:#043866;}.cls-7{fill:#a4c673;}</style></defs><g id="Layer_2" data-name="Layer 2"><g id="prizes_bg_dark_2" data-name="prizes bg dark 2"><g id="tree-3"><path id="Vector" class="cls-1" d="M116.19,87.31c-4.85-5.28-6.43-13-3.35-19.48a21.66,21.66,0,0,0-5.56-25.95,10.11,10.11,0,0,1-2.84-11.24,12.87,12.87,0,0,0,.79-5.6,13,13,0,0,0-1.66-5.4,13.63,13.63,0,0,0-3.78-4.22,13.35,13.35,0,0,0-5.21-2.21,12.21,12.21,0,0,0-5.64.24,13.16,13.16,0,0,0-5,2.6,13.53,13.53,0,0,0-3.47,4.49,13,13,0,0,0,0,10.93,10.23,10.23,0,0,1-2.32,11.59A21.64,21.64,0,0,0,73.6,67.47a18.22,18.22,0,0,1,1.46,10.3,17.87,17.87,0,0,1-4.49,9.38A31,31,0,0,0,62.24,108a31.11,31.11,0,1,0,54-20.7Z"/><g id="Vector_2" data-name="Vector 2"><path class="cls-2" d="M93.28,48.47v0Z"/><path class="cls-3" d="M93.28,48.47V186.29"/></g><g id="Vector_3" data-name="Vector 3"><path class="cls-2" d="M93.28,123.28,76.17,106.12Z"/><path class="cls-3" d="M93.28,123.28,76.17,106.12"/></g><g id="Vector_4" data-name="Vector 4"><path class="cls-2" d="M93.28,102l10.25-10.25Z"/><path class="cls-3" d="M93.28,102l10.25-10.25"/></g><g id="Vector_5" data-name="Vector 5"><path class="cls-2" d="M93.28,64.83l-9.07-9.07Z"/><path class="cls-3" d="M93.28,64.83l-9.07-9.07"/></g><g id="Vector_6" data-name="Vector 6"><path class="cls-2" d="M93.28,64.83,103.41,54.7Z"/><path class="cls-3" d="M93.28,64.83,103.41,54.7"/></g></g><g id="tree-2"><path id="Vector-2" data-name="Vector" class="cls-4" d="M915.18,101.89a13.36,13.36,0,0,0,1.52-6.53A13.79,13.79,0,0,0,903.61,82a13.61,13.61,0,0,0-12.06,6.28A13.27,13.27,0,0,0,889.41,95a13.72,13.72,0,0,0,1.46,6.89,8.68,8.68,0,0,1-2,10.57,22,22,0,0,0-7.79,16.95,22.13,22.13,0,0,0,20.76,21.76,21.93,21.93,0,0,0,15.3-38.71A8.74,8.74,0,0,1,915.18,101.89Z"/><path id="Vector_2-2" data-name="Vector 2" class="cls-3" d="M903.05,93.21v94.15"/><path id="Vector_3-2" data-name="Vector 3" class="cls-3" d="M903.06,138.79l11.22-11.22"/><path id="Vector_4-2" data-name="Vector 4" class="cls-3" d="M903.06,125.69l-8.12-8.12"/><path id="Vector_5-2" data-name="Vector 5" class="cls-3" d="M903.06,102.51l5.72-5.73"/></g><path class="cls-5" d="M-.5,599.5v-449l.33-.12a99.93,99.93,0,0,1,116.38,35,56.17,56.17,0,0,1,69.24,1.3,45.1,45.1,0,0,1,74.85-7.81,110.66,110.66,0,0,1,125,17.13,58,58,0,0,1,99.19,5.22,54.1,54.1,0,0,1,76.35-12.37,114.86,114.86,0,0,1,185.54-8.57A51.31,51.31,0,0,1,821,191.64a83.05,83.05,0,0,1,123.37,10.52,100.63,100.63,0,0,1,55.44-51.79l.67-.26V599.5Z"/><path class="cls-6" d="M656.7,137.75A114.12,114.12,0,0,1,746.27,181a50.82,50.82,0,0,1,74.66,11.4,82.56,82.56,0,0,1,123.56,10.72,99.64,99.64,0,0,1,55.51-52.3V599H0V150.83a99.46,99.46,0,0,1,116.1,35.29,55.67,55.67,0,0,1,69.51,1.37,44.59,44.59,0,0,1,74.55-8,110.17,110.17,0,0,1,125.2,17.26,57.5,57.5,0,0,1,99,5.42,53.61,53.61,0,0,1,76.53-12.62,114.25,114.25,0,0,1,95.77-51.84m0-1a115.1,115.1,0,0,0-96,51.41,54.61,54.61,0,0,0-76.16,12.15,58.49,58.49,0,0,0-99.33-5,111.15,111.15,0,0,0-124.76-17,45.59,45.59,0,0,0-75.14,7.66,56.66,56.66,0,0,0-69-1.23A100.44,100.44,0,0,0-.35,149.9l-.65.24V600H1001V149.39l-1.35.51a101.19,101.19,0,0,0-55.37,51.29,84.14,84.14,0,0,0-28-23.4,83.6,83.6,0,0,0-95.2,13.09,51.8,51.8,0,0,0-74.67-11.27,114.79,114.79,0,0,0-89.73-42.86Z"/><g id="leaf"><path id="Vector-3" data-name="Vector" class="cls-7" d="M972.28,30.57c3,2.92,2.21,7.4-1.17,12-3.78,5.07-8.15,7.1-10.8,5.26s-2.88-6.17,1.17-12C964.79,31.09,969.76,28.06,972.28,30.57Z"/><path id="Vector_2-3" data-name="Vector 2" class="cls-3" d="M960.31,47.8l12-17.22"/><path id="Vector_3-3" data-name="Vector 3" class="cls-3" d="M958.58,41.81l6.24-.54"/><path id="Vector_4-3" data-name="Vector 4" class="cls-3" d="M961.06,36.43,969.2,35"/><path id="Vector_5-3" data-name="Vector 5" class="cls-3" d="M965.51,47.65l.69-8.35"/><path id="Vector_6-2" data-name="Vector 6" class="cls-3" d="M972.21,41l-1.77-7.76"/></g><g id="leaf-2" data-name="leaf"><path id="Vector-4" data-name="Vector" class="cls-7" d="M175.86,131.66c2.94-2.94,7.41-2.16,12,1.25,5,3.82,7,8.2,5.18,10.84s-6.19,2.84-12-1.25C176.32,139.15,173.33,134.16,175.86,131.66Z"/><path id="Vector_2-4" data-name="Vector 2" class="cls-3" d="M193,143.75l-17.14-12.13"/><path id="Vector_3-4" data-name="Vector 3" class="cls-3" d="M187,145.44l-.5-6.25"/><path id="Vector_4-4" data-name="Vector 4" class="cls-3" d="M181.64,142.92l-1.4-8.15"/><path id="Vector_5-4" data-name="Vector 5" class="cls-3" d="M192.88,138.55l-8.34-.75"/><path id="Vector_6-3" data-name="Vector 6" class="cls-3" d="M186.24,131.8l-7.78,1.72"/></g></g></g></svg>