<svg xmlns="http://www.w3.org/2000/svg" viewBox="0 0 520 272.24"><defs><style>.cls-1{fill:#d2d9a5;}.cls-2{fill:#043866;}.cls-3{fill:#7f9b4e;}.cls-4{fill:#a4c673;}.cls-4,.cls-5{stroke:#043866;stroke-linecap:round;stroke-miterlimit:10;}.cls-5{fill:none;}</style></defs><g id="Layer_2" data-name="Layer 2"><g id="fyg_bushes" data-name="fyg bushes"><path class="cls-1" d="M-.5,273.74v-190l.83.71a30.08,30.08,0,0,1,10.52,22.88,29.94,29.94,0,0,1-1.43,9.2,37.55,37.55,0,0,1,12-1.94c.71,0,1.45,0,2.2.06A69.69,69.69,0,0,1,154.12,67.57a28,28,0,0,1,44,26.51A30.18,30.18,0,0,1,226.61,100a59.83,59.83,0,0,1,79.23-4A49.85,49.85,0,0,1,347.9,68.1,74.13,74.13,0,0,1,420.2,9.38c1.91,0,3.84.07,5.75.22A74.25,74.25,0,0,1,494.07,78a30.12,30.12,0,0,1,26.26,6.53l.17.15V273.74Z"/><path class="cls-2" d="M420.21,9.88c1.88,0,3.79.07,5.7.22a73.48,73.48,0,0,1,67.7,68.47A29.63,29.63,0,0,1,520,84.86V273.24H0V84.86a29.55,29.55,0,0,1,10.35,22.5,29.33,29.33,0,0,1-1.74,10,37.17,37.17,0,0,1,12.8-2.25c1,0,1.91,0,2.85.11a69.19,69.19,0,0,1,129.66-46.9,27.53,27.53,0,0,1,44,22.09,26.54,26.54,0,0,1-.36,4.39,29.66,29.66,0,0,1,29.11,5.82A59.32,59.32,0,0,1,306,96.75a49.44,49.44,0,0,1,42.3-28.17,73.49,73.49,0,0,1,71.9-58.7m0-1a74.64,74.64,0,0,0-72.72,58.74,50.35,50.35,0,0,0-41.82,27.57,60.33,60.33,0,0,0-79.08,4.08,30.66,30.66,0,0,0-19.54-7,30.22,30.22,0,0,0-8.32,1.15,29.24,29.24,0,0,0,.15-3,28.56,28.56,0,0,0-28.53-28.53,28.27,28.27,0,0,0-16,4.93A70.19,70.19,0,0,0,23,114.15l-1.55,0a38.23,38.23,0,0,0-11.23,1.67,30.53,30.53,0,0,0,1.17-8.43A30.58,30.58,0,0,0,.65,84.1L-1,82.69V274.24H521V84.4l-.34-.3a30.62,30.62,0,0,0-26.13-6.76A74.5,74.5,0,0,0,426,9.1c-1.92-.15-3.87-.22-5.78-.22Z"/><path class="cls-3" d="M-.5,271.74V103.92H0A33.55,33.55,0,0,1,30.86,124.1a51.37,51.37,0,0,1,62.23-10.5A45.68,45.68,0,0,1,182.22,118a41.46,41.46,0,0,1,53.14-1.81,58.05,58.05,0,0,1,53.58-36.29,57.34,57.34,0,0,1,54.83,39.78,41.45,41.45,0,0,1,56.36-11.42,18.85,18.85,0,0,1,35.57-5.89,37.57,37.57,0,0,1,26.88-11.18,38,38,0,0,1,34.35,21.85A33.47,33.47,0,0,1,520,103.92h.5V271.74Z"/><path class="cls-2" d="M288.94,80.42a57.19,57.19,0,0,1,54.67,40.42,40.95,40.95,0,0,1,56.93-11.7,18.35,18.35,0,0,1,35-5.89,37.42,37.42,0,0,1,61.21,10.66A33.07,33.07,0,0,1,520,104.42V271.24H0V104.42A33.16,33.16,0,0,1,30.7,125a50.86,50.86,0,0,1,62.71-10.67A45.18,45.18,0,0,1,181.87,119a41,41,0,0,1,53.71-2,57.19,57.19,0,0,1,53.36-36.6m0-1a58.2,58.2,0,0,0-53.8,36,42,42,0,0,0-52.58,1.65,46.18,46.18,0,0,0-89.78-4.19A51.87,51.87,0,0,0,31,123.21,34,34,0,0,0,0,103.42H-1V272.24H521V103.42h-1a34,34,0,0,0-22.91,8.81,38.48,38.48,0,0,0-34.51-21.52,38,38,0,0,0-26.74,10.84,19.36,19.36,0,0,0-36.09,5.9,42,42,0,0,0-55.82,11.16,58.74,58.74,0,0,0-20.09-27.56,57.67,57.67,0,0,0-34.9-11.63Z"/><g id="leaf"><path id="Vector" class="cls-4" d="M-4.63,140.6c4.24-2.43,9.07-.15,13.18,5.12,4.53,5.89,5.44,11.47,2.52,13.89s-7.9,1.31-13.18-5.12C-6.43,149.24-8.27,142.65-4.63,140.6Z"/><path id="Vector_2" data-name="Vector 2" class="cls-5" d="M11.07,159.61-4.61,140.56"/><path id="Vector_3" data-name="Vector 3" class="cls-5" d="M3.74,159.67l1.37-7.24"/><path id="Vector_5" data-name="Vector 5" class="cls-5" d="M12.55,153.68l-9.23-3.43"/><path id="Vector_6" data-name="Vector 6" class="cls-5" d="M7.09,144l-9.34-.45"/></g><g id="leaf-2" data-name="leaf"><path id="Vector-2" data-name="Vector" class="cls-4" d="M515.37,140.6c4.24-2.43,9.07-.15,13.18,5.12,4.53,5.89,5.44,11.47,2.52,13.89s-7.9,1.31-13.18-5.12C513.57,149.24,511.73,142.65,515.37,140.6Z"/><path id="Vector_2-2" data-name="Vector 2" class="cls-5" d="M531.07,159.61l-15.68-19.05"/><path id="Vector_4" data-name="Vector 4" class="cls-5" d="M518.44,155.16l.93-9.68"/><path id="Vector_6-2" data-name="Vector 6" class="cls-5" d="M527.09,144l-9.34-.45"/></g><g id="leaf-3" data-name="leaf"><path id="Vector-3" data-name="Vector" class="cls-4" d="M309.84,21.89c4.24-2.43,9.07-.15,13.18,5.12,4.53,5.89,5.44,11.47,2.52,13.9s-7.9,1.3-13.18-5.12C308,30.53,306.19,24,309.84,21.89Z"/><path id="Vector_2-3" data-name="Vector 2" class="cls-5" d="M325.54,40.91,309.85,21.85"/><path id="Vector_3-2" data-name="Vector 3" class="cls-5" d="M318.21,41l1.37-7.24"/><path id="Vector_4-2" data-name="Vector 4" class="cls-5" d="M312.91,36.45l.93-9.67"/><path id="Vector_5-2" data-name="Vector 5" class="cls-5" d="M327,35l-9.23-3.43"/><path id="Vector_6-3" data-name="Vector 6" class="cls-5" d="M321.56,25.26l-9.34-.45"/></g><g id="leaf-4" data-name="leaf"><path id="Vector-4" data-name="Vector" class="cls-4" d="M505.63,45.82c-2.54-4.18-.38-9.07,4.8-13.3,5.78-4.67,11.34-5.72,13.83-2.85s1.49,7.87-4.81,13.3C514.31,47.41,507.76,49.41,505.63,45.82Z"/><path id="Vector_2-4" data-name="Vector 2" class="cls-5" d="M524.26,29.67,505.58,45.8"/><path id="Vector_3-3" data-name="Vector 3" class="cls-5" d="M524.49,37l-7.27-1.19"/><path id="Vector_4-3" data-name="Vector 4" class="cls-5" d="M520.1,42.4l-9.69-.7"/><path id="Vector_5-3" data-name="Vector 5" class="cls-5" d="M518.29,28.33l-3.21,9.31"/><path id="Vector_6-4" data-name="Vector 6" class="cls-5" d="M508.71,34l-.23,9.35"/></g><g id="leaf-5" data-name="leaf"><path id="Vector-5" data-name="Vector" class="cls-4" d="M-14.37,45.82c-2.54-4.18-.38-9.07,4.8-13.3,5.78-4.67,11.34-5.72,13.83-2.85S5.75,37.54-.55,43C-5.69,47.41-12.24,49.41-14.37,45.82Z"/><path id="Vector_2-5" data-name="Vector 2" class="cls-5" d="M4.26,29.67-14.42,45.8"/><path id="Vector_3-4" data-name="Vector 3" class="cls-5" d="M4.49,37-2.78,35.8"/><path id="Vector_4-4" data-name="Vector 4" class="cls-5" d="M.1,42.4l-9.69-.7"/></g><g id="leaf-6" data-name="leaf"><path id="Vector-6" data-name="Vector" class="cls-4" d="M246.21,216c3.56,3.35,2.79,8.64-1.06,14.1-4.32,6-9.39,8.54-12.56,6.45s-3.55-7.18,1.06-14.1C237.43,216.78,243.19,213.1,246.21,216Z"/><path id="Vector_2-6" data-name="Vector 2" class="cls-5" d="M232.59,236.54,246.26,216"/><path id="Vector_3-5" data-name="Vector 3" class="cls-5" d="M230.4,229.55l7.33-.8"/><path id="Vector_4-5" data-name="Vector 4" class="cls-5" d="M233.18,223.16l9.53-1.92"/><path id="Vector_5-4" data-name="Vector 5" class="cls-5" d="M238.7,236.23l.6-9.83"/><path id="Vector_6-5" data-name="Vector 6" class="cls-5" d="M246.41,228.19l-2.29-9.08"/></g></g></g></svg>