<svg xmlns="http://www.w3.org/2000/svg" viewBox="0 0 1500 750"><defs><style>.cls-1,.cls-5{fill:#7f9b4e;}.cls-2{fill:#043866;}.cls-3,.cls-4,.cls-8{fill:none;}.cls-3,.cls-5,.cls-6,.cls-7,.cls-8{stroke:#043866;}.cls-3,.cls-4,.cls-5,.cls-6,.cls-7,.cls-8{stroke-miterlimit:10;}.cls-3{stroke-width:66.26px;}.cls-4{stroke:#1471d0;stroke-width:64.26px;}.cls-6{fill:#536d32;}.cls-7{fill:#a4c673;}.cls-7,.cls-8{stroke-linecap:round;}</style></defs><g id="Layer_2" data-name="Layer 2"><g id="fyg_deets" data-name="fyg deets"><path class="cls-1" d="M879,669.67a97.93,97.93,0,0,1-88-54.91,57.6,57.6,0,0,1-76.13-46.21,141.74,141.74,0,0,1-167.73.47,48.52,48.52,0,0,1-91.68,12,72.5,72.5,0,0,1-81.36,9.82,75.36,75.36,0,0,1-142.25,10.3,55.48,55.48,0,0,1-84.74-11.36A126.34,126.34,0,0,1-.18,631.43l-.32-.13V33.83l.66.23A152.92,152.92,0,0,1,103.92,178.94c0,4.25-.17,8.53-.52,12.74A64.9,64.9,0,0,1,153,226.1a81.55,81.55,0,0,1,96.79-30,59.55,59.55,0,0,1,29.06-85.06,51.74,51.74,0,0,1-5.41-23.19,52.38,52.38,0,0,1,93.22-32.8,34.36,34.36,0,0,1,46.83,2.7,68.24,68.24,0,0,1,105.24,3,86.07,86.07,0,0,1,115.2,50.46,32.35,32.35,0,0,1,54.92,23.16,32.46,32.46,0,0,1-3.73,15.12A59.77,59.77,0,0,1,717.32,197a55.53,55.53,0,0,1,77.55,32.15,124.41,124.41,0,0,1,176.67,36.89,145.59,145.59,0,0,1,42.51-9,41.83,41.83,0,0,1,71.39-24.93A90.66,90.66,0,0,1,1185,199.3,95.83,95.83,0,0,1,1320.44,99.13a153.15,153.15,0,0,1,179.72-65.07l.34.11V631.7l-.68-.27a126.3,126.3,0,0,1-75-151.61,89.36,89.36,0,0,1-89-40.47,113.38,113.38,0,0,1-121,46.53,71.16,71.16,0,0,1-44.6,94.41,68.47,68.47,0,1,1-132.3-31.92,148.5,148.5,0,0,1-15,.76,145.53,145.53,0,0,1-51.25-9.23A98,98,0,0,1,879,669.67Z"/><path class="cls-2" d="M1451,26.47a152.18,152.18,0,0,1,49,8.06V631a125.83,125.83,0,0,1-74.5-151.76,88.81,88.81,0,0,1-89.67-40.77,112.85,112.85,0,0,1-121.9,46.72,70.66,70.66,0,0,1-44.22,94.76,68,68,0,1,1-131.09-32.12,149.25,149.25,0,0,1-15.76.84,145.38,145.38,0,0,1-52.08-9.58,97.43,97.43,0,0,1-179.51,75.09,57.1,57.1,0,0,1-76-46.5,141.21,141.21,0,0,1-168.47.49,48,48,0,0,1-91.15,12.1,72,72,0,0,1-81.86,9.9,74.86,74.86,0,0,1-141.74,10.18,55,55,0,0,1-84.88-11.39A125.82,125.82,0,0,1,0,631V34.53A152.52,152.52,0,0,1,103.42,178.94q0,6.66-.56,13.18a64.61,64.61,0,0,1,50,34.95,81.07,81.07,0,0,1,98-29.93,59,59,0,0,1,28.56-85.81,51.88,51.88,0,0,1,87.05-55.54,33.87,33.87,0,0,1,46.91,2.73,67.75,67.75,0,0,1,105.07,2.86,85.58,85.58,0,0,1,115.15,50.77,31.85,31.85,0,0,1,50.71,37.57,59,59,0,0,1,32.49,48.07A55,55,0,0,1,794.6,230a123.93,123.93,0,0,1,176.73,36.71,145,145,0,0,1,43.17-9.13,41.33,41.33,0,0,1,71-24.63A90.19,90.19,0,0,1,1185.63,200a95.33,95.33,0,0,1,135-100.24A152.34,152.34,0,0,1,1451,26.47m0-1a153.29,153.29,0,0,0-130.7,73,95.32,95.32,0,0,0-40.36-8.85,96.33,96.33,0,0,0-95.47,109,91.37,91.37,0,0,0-68.05,6.44,92,92,0,0,0-31,26.34,42.33,42.33,0,0,0-71.78,25.21,146,146,0,0,0-41.85,8.86,124.81,124.81,0,0,0-106.06-58.91,124.06,124.06,0,0,0-70.56,21.84,56,56,0,0,0-53-37.73,56.31,56.31,0,0,0-24.44,5.6,60.29,60.29,0,0,0-32-47,32.86,32.86,0,0,0-29.28-47.74,32.55,32.55,0,0,0-22.36,8.79A86.57,86.57,0,0,0,518.85,60.16,68.75,68.75,0,0,0,413.43,57a34.88,34.88,0,0,0-46.74-2.67,52.88,52.88,0,0,0-88.56,56.44,60.06,60.06,0,0,0-29.5,84.36,82.05,82.05,0,0,0-95.61,30,65.39,65.39,0,0,0-49.08-33.89c.32-4.08.48-8.21.48-12.31A153.4,153.4,0,0,0,.32,33.59L-1,33.14v598.5l.63.25a126.07,126.07,0,0,0,46.6,8.84,125.24,125.24,0,0,0,57.85-14,127.93,127.93,0,0,0,43-36.09A56,56,0,0,0,231.69,602,75.85,75.85,0,0,0,374.44,591.6a73,73,0,0,0,80.87-9.74,49,49,0,0,0,92.2-12,142.25,142.25,0,0,0,167-.44,58.11,58.11,0,0,0,76.25,45.93,98.43,98.43,0,0,0,181.65-74.64,146.28,146.28,0,0,0,50.44,8.89c4.72,0,9.51-.23,14.28-.68a69,69,0,1,0,133.49,31.72,72.21,72.21,0,0,0,35.53-25.33,71.69,71.69,0,0,0,9.43-68.74,113.93,113.93,0,0,0,120.22-46.34,89.88,89.88,0,0,0,88.31,40.17,126.73,126.73,0,0,0,75.51,151.46l1.37.54V33.82l-.68-.23A152.92,152.92,0,0,0,1451,25.47Z"/><path class="cls-3" d="M449.79,134.39c121.06-34.91,188.3,70.73,192.74,137.41C649.64,378.26,551,463.28,407,498.15,99,572.78-24.77,361.05-24.77,361.05"/><path class="cls-4" d="M449.79,134.39c121.06-34.91,188.3,70.73,192.74,137.41C649.64,378.26,551,463.28,407,498.15,99,572.78-24.77,361.05-24.77,361.05"/><path class="cls-3" d="M1021.42,617.53c104.11-31.87,97.08-130.45,86.16-166.15-23.2-75.85-113.78-99.07-197.54-86-65.13,10.19-293.63,147.72-446.31,89.15C328.27,402.54,243,194,449.79,134.39"/><path class="cls-4" d="M1021.42,617.53c104.11-31.87,97.08-130.45,86.16-166.15-23.2-75.85-113.78-99.07-197.54-86-65.13,10.19-293.63,147.72-446.31,89.15C328.27,402.54,243,194,449.79,134.39"/><path class="cls-3" d="M1637.25,121.73c-101.37-8-216.43,185.73-394,240.06-127.91,39.15-190.7-70.37-312.66-33C860,350.35,830.42,396.42,821.17,441.69c-6.75,32.95-2.72,65.45,4.09,87.75,17.1,55.89,70.51,126.55,196.13,88.11"/><path class="cls-4" d="M1637.25,121.73c-101.37-8-216.43,185.73-394,240.06-127.91,39.15-190.7-70.37-312.66-33C860,350.35,830.42,396.42,821.17,441.69c-6.75,32.95-2.72,65.45,4.09,87.75,17.1,55.89,70.51,126.55,196.13,88.11"/><path class="cls-5" d="M435,179.8a20.47,20.47,0,0,0-39.33,8c0,.41,0,.81.06,1.21a36,36,0,0,0-40.38,52.85,21.16,21.16,0,0,0,.24,29.06,29.64,29.64,0,0,0,23.14,48.18"/><path class="cls-5" d="M155.69,445.26A20,20,0,0,0,178,476.63c.34-.12.66-.27,1-.4a55.75,55.75,0,0,0,84,11.47,38.82,38.82,0,0,0,62.81-16.34"/><path class="cls-5" d="M1143.43,423.46a19.75,19.75,0,0,0-2.65,38,16.94,16.94,0,0,0,17.69,26.92"/><path class="cls-5" d="M858,446.12a16.45,16.45,0,0,0-9.64,29.8,22.58,22.58,0,0,0,1.82,39.31,17.44,17.44,0,0,0-.18,2.42,17.88,17.88,0,0,0,23.27,17.05"/><path class="cls-5" d="M1164.07,330.7a20.23,20.23,0,0,0,38.76,9.33,49.89,49.89,0,0,0,65.38-21,22.11,22.11,0,0,0,37.3-9.25,22.83,22.83,0,0,0,2.35.27,24.47,24.47,0,0,0,23.74-34.87"/><path class="cls-6" d="M79.7,401.08a94.19,94.19,0,0,0,14.89-51A94.33,94.33,0,0,0,61.9,278.6a57.25,57.25,0,0,0,12.22-35.42,57.43,57.43,0,0,0-20.54-44.06,62.26,62.26,0,0,0,1.49-13.47A61.78,61.78,0,0,0-6.71,123.87a61.77,61.77,0,0,0-61.77,61.78,61.69,61.69,0,0,0,27.84,51.61,57.94,57.94,0,0,0-.3,5.92,57.31,57.31,0,0,0,3.59,20,94.6,94.6,0,0,0-57.24,86.92,94.52,94.52,0,0,0,46.8,81.63,51,51,0,0,0-21.77,41.8,51,51,0,0,0,51,51A51,51,0,0,0,31,485.79a49,49,0,0,0,48.7-84.71Z"/><path class="cls-6" d="M1594.59,350.12a94.33,94.33,0,0,0-32.69-71.52,57.49,57.49,0,0,0-8.32-79.48,61.77,61.77,0,1,0-122-15.91h-.06A61.77,61.77,0,0,0,1416.85,305a94.64,94.64,0,0,0,35.36,126.76,51,51,0,1,0,69.5,10.45A94.62,94.62,0,0,0,1594.59,350.12Z"/><g id="leaf"><path id="Vector" class="cls-7" d="M1138.55,98.75c1.59,4.62-1.57,8.93-7.52,12-6.64,3.33-12.3,3.17-14.12-.16s.22-8,7.53-12C1130.41,95.34,1137.23,94.78,1138.55,98.75Z"/><path id="Vector_2" data-name="Vector 2" class="cls-8" d="M1116.91,110.55l21.68-11.78"/><path id="Vector_3" data-name="Vector 3" class="cls-8" d="M1118.24,103.34l6.85,2.72"/><path id="Vector_4" data-name="Vector 4" class="cls-8" d="M1123.68,99l9.32,2.75"/><path id="Vector_5" data-name="Vector 5" class="cls-8" d="M1122.46,113.13l5.12-8.41"/><path id="Vector_6" data-name="Vector 6" class="cls-8" d="M1133,109.62l2.22-9.09"/></g><g id="leaf-2" data-name="leaf"><path id="Vector-2" data-name="Vector" class="cls-7" d="M1490.58,235.15c3.72-3.18,8.89-1.84,13.9,2.59,5.54,4.94,7.48,10.26,5,13.18s-7.52,2.75-13.9-2.59C1490.42,244,1487.38,237.84,1490.58,235.15Z"/><path id="Vector_2-2" data-name="Vector 2" class="cls-8" d="M1509.53,250.92l-18.94-15.82"/><path id="Vector_4-2" data-name="Vector 4" class="cls-8" d="M1496.3,248.88l-.88-9.68"/><path id="Vector_5-2" data-name="Vector 5" class="cls-8" d="M1509.88,244.81l-9.7-1.66"/><path id="Vector_6-2" data-name="Vector 6" class="cls-8" d="M1502.73,236.28l-9.27,1.29"/></g><g id="leaf-3" data-name="leaf"><path id="Vector-3" data-name="Vector" class="cls-7" d="M1361.17,616.7c4.84-.71,8.5,3.18,10.38,9.6,2.06,7.13.86,12.67-2.75,13.84s-7.82-1.68-10.38-9.59C1356.33,624.08,1357,617.27,1361.17,616.7Z"/><path id="Vector_2-3" data-name="Vector 2" class="cls-8" d="M1368.8,640.14l-7.6-23.47"/><path id="Vector_3-2" data-name="Vector 3" class="cls-8" d="M1362,637.51l3.93-6.23"/><path id="Vector_4-3" data-name="Vector 4" class="cls-8" d="M1358.69,631.37l4.41-8.66"/><path id="Vector_5-3" data-name="Vector 5" class="cls-8" d="M1372.36,635.16l-7.33-6.57"/><path id="Vector_6-3" data-name="Vector 6" class="cls-8" d="M1370.85,624.13l-8.54-3.85"/></g><g id="leaf-4" data-name="leaf"><path id="Vector-4" data-name="Vector" class="cls-7" d="M213.92,311.91c2.18,4.38-.38,9.07-5.88,12.86-6.15,4.17-11.78,4.76-14,1.69s-.84-8,5.89-12.85C205.4,309.61,212.09,308.15,213.92,311.91Z"/><path id="Vector_2-4" data-name="Vector 2" class="cls-8" d="M194,326.46,214,311.93"/><path id="Vector_3-3" data-name="Vector 3" class="cls-8" d="M194.39,319.15l7.15,1.79"/><path id="Vector_4-4" data-name="Vector 4" class="cls-8" d="M199.21,314.12l9.6,1.5"/><path id="Vector_5-4" data-name="Vector 5" class="cls-8" d="M199.86,328.29l4-9"/><path id="Vector_6-4" data-name="Vector 6" class="cls-8" d="M209.87,323.42l1-9.31"/></g><g id="leaf-5" data-name="leaf"><path id="Vector-5" data-name="Vector" class="cls-7" d="M492.36,680.37c0-4.89,4.41-7.93,11-8.83,7.36-1,12.65,1,13.28,4.78s-2.83,7.49-11,8.84C498.93,686.26,492.3,684.55,492.36,680.37Z"/><path id="Vector_2-5" data-name="Vector 2" class="cls-8" d="M516.68,676.32l-24.35,4"/><path id="Vector_3-4" data-name="Vector 3" class="cls-8" d="M513.06,682.69l-5.58-4.82"/><path id="Vector_4-5" data-name="Vector 4" class="cls-8" d="M506.49,685l-7.9-5.65"/><path id="Vector_5-5" data-name="Vector 5" class="cls-8" d="M512.28,672.06l-7.59,6.27"/><path id="Vector_6-5" data-name="Vector 6" class="cls-8" d="M501.15,671.91l-5.08,7.86"/></g><g id="leaf-6" data-name="leaf"><path id="Vector-6" data-name="Vector" class="cls-7" d="M72.94,583.21c0-4.89,4.42-7.93,11-8.84,7.37-1,12.66,1,13.28,4.79s-2.83,7.49-11,8.84C79.52,589.09,72.89,587.39,72.94,583.21Z"/><path id="Vector_2-6" data-name="Vector 2" class="cls-8" d="M97.26,579.16l-24.35,4"/><path id="Vector_3-5" data-name="Vector 3" class="cls-8" d="M93.64,585.53l-5.58-4.82"/><path id="Vector_4-6" data-name="Vector 4" class="cls-8" d="M87.08,587.85l-7.91-5.65"/><path id="Vector_5-6" data-name="Vector 5" class="cls-8" d="M92.87,574.9l-7.6,6.27"/><path id="Vector_6-6" data-name="Vector 6" class="cls-8" d="M81.73,574.75l-5.08,7.86"/></g><g id="leaf-7" data-name="leaf"><path id="Vector-7" data-name="Vector" class="cls-7" d="M489.4,280.66c1.46-4.67,6.55-6.28,13.15-5.21,7.32,1.24,11.79,4.71,11.29,8.48s-4.91,6.32-13.15,5.2C494,288.21,488.12,284.64,489.4,280.66Z"/><path id="Vector_2-7" data-name="Vector 2" class="cls-8" d="M513.84,283.93l-24.46-3.32"/><path id="Vector_3-6" data-name="Vector 3" class="cls-8" d="M508.5,289l-3.91-6.24"/><path id="Vector_4-7" data-name="Vector 4" class="cls-8" d="M501.55,289.24l-5.9-7.72"/><path id="Vector_5-7" data-name="Vector 5" class="cls-8" d="M510.89,278.57l-9.11,3.76"/><path id="Vector_6-7" data-name="Vector 6" class="cls-8" d="M500.29,275.15l-7.17,6"/></g><g id="leaf-8" data-name="leaf"><path id="Vector-8" data-name="Vector" class="cls-7" d="M799,42.62c-4.11,2.65-9.06.63-13.43-4.42-4.83-5.64-6-11.17-3.25-13.74s7.82-1.72,13.43,4.42C800.35,33.9,802.54,40.38,799,42.62Z"/><path id="Vector_2-8" data-name="Vector 2" class="cls-8" d="M782.33,24.46,799,42.67"/><path id="Vector_3-7" data-name="Vector 3" class="cls-8" d="M789.64,24l-1,7.3"/><path id="Vector_4-8" data-name="Vector 4" class="cls-8" d="M795.17,28.25,794.76,38"/><path id="Vector_5-8" data-name="Vector 5" class="cls-8" d="M781.16,30.47l9.4,2.94"/><path id="Vector_6-8" data-name="Vector 6" class="cls-8" d="M787.12,39.88l9.36,0"/></g><g id="leaf-9" data-name="leaf"><path id="Vector-9" data-name="Vector" class="cls-7" d="M85.66,113.52c2.52-4.19,7.85-4.55,14-1.94,6.82,2.94,10.34,7.38,9,10.92s-6.26,5-14,1.93C88.29,121.94,83.47,117.08,85.66,113.52Z"/><path id="Vector_2-9" data-name="Vector 2" class="cls-8" d="M108.62,122.5l-23-9"/><path id="Vector_3-8" data-name="Vector 3" class="cls-8" d="M102.25,126.11l-2.33-7"/><path id="Vector_4-9" data-name="Vector 4" class="cls-8" d="M95.42,124.74l-3.89-8.9"/><path id="Vector_5-9" data-name="Vector 5" class="cls-8" d="M107,116.59l-9.74,1.49"/><path id="Vector_6-9" data-name="Vector 6" class="cls-8" d="M97.54,110.75l-8.39,4.16"/></g></g></g></svg>