<svg xmlns="http://www.w3.org/2000/svg" viewBox="0 0 1000 600"><defs><style>.cls-1,.cls-2{fill:#5a8a15;}.cls-1,.cls-2,.cls-3,.cls-4,.cls-5{stroke:#043866;stroke-miterlimit:10;}.cls-1,.cls-3,.cls-4,.cls-5{stroke-linecap:round;}.cls-3{fill:none;}.cls-4{fill:#50741c;}.cls-5{fill:#a4c673;}.cls-6{fill:#d2d9a5;}.cls-7{fill:#043866;}</style></defs><g id="Layer_2" data-name="Layer 2"><g id="prizes_bg_light_2" data-name="prizes bg light 2"><g id="tree-3"><path id="Vector" class="cls-1" d="M11.45,105.16a16.15,16.15,0,0,1-3-17.72A19.81,19.81,0,0,0,9.91,74.78,20,20,0,0,0,3.34,63.84,9.19,9.19,0,0,1,.76,53.62a11.78,11.78,0,0,0,.72-5.09A12,12,0,0,0,0,43.61a12.63,12.63,0,0,0-3.44-3.84,12.5,12.5,0,0,0-4.74-2,11.24,11.24,0,0,0-5.13.22,12.06,12.06,0,0,0-4.59,2.37,12.17,12.17,0,0,0-3.15,4.09,11.53,11.53,0,0,0-1.12,5,11.63,11.63,0,0,0,1.08,4.91,9.31,9.31,0,0,1-2.12,10.55,19.82,19.82,0,0,0-5.52,10.47,19.69,19.69,0,0,0,1.47,11.73A16.61,16.61,0,0,1-26,96.48,16.26,16.26,0,0,1-30,105a28.19,28.19,0,0,0-7.57,19,28.6,28.6,0,0,0,26.94,28.59,28.35,28.35,0,0,0,16-4,28.31,28.31,0,0,0,11-12.23A28.37,28.37,0,0,0,18.62,120,28.56,28.56,0,0,0,11.45,105.16Z"/><g id="Vector_4" data-name="Vector 4"><path class="cls-2" d="M-9.39,118.51l9.32-9.33Z"/><path class="cls-3" d="M-9.39,118.51l9.32-9.33"/></g><g id="Vector_6" data-name="Vector 6"><path class="cls-2" d="M-9.39,84.72-.17,75.5Z"/><path class="cls-3" d="M-9.39,84.72-.17,75.5"/></g></g><g id="tree-3-2" data-name="tree-3"><path id="Vector-2" data-name="Vector" class="cls-1" d="M1011.45,105.16a16.15,16.15,0,0,1-3.05-17.72,19.7,19.7,0,0,0-5.06-23.6,9.19,9.19,0,0,1-2.58-10.22,11.78,11.78,0,0,0,.72-5.09,12,12,0,0,0-1.51-4.92,11.82,11.82,0,0,0-8.18-5.85,11.24,11.24,0,0,0-5.13.22,11.89,11.89,0,0,0-7.74,6.46,11.76,11.76,0,0,0,0,9.93,9.31,9.31,0,0,1-2.12,10.55,19.7,19.7,0,0,0-4,22.2A16.61,16.61,0,0,1,974,96.48,16.26,16.26,0,0,1,970,105a28.19,28.19,0,0,0-7.57,19,28.31,28.31,0,0,0,42.9,24.57,28.28,28.28,0,0,0,6.17-43.4Z"/><g id="Vector_2" data-name="Vector 2"><path class="cls-2" d="M990.61,69.83v0Z"/><path class="cls-3" d="M990.61,69.83V195.19"/></g><g id="Vector_3" data-name="Vector 3"><path class="cls-2" d="M990.61,137.87,975,122.27Z"/><path class="cls-3" d="M990.61,137.87,975,122.27"/></g><g id="Vector_4-2" data-name="Vector 4"><path class="cls-2" d="M990.61,118.51l9.32-9.33Z"/><path class="cls-3" d="M990.61,118.51l9.32-9.33"/></g><g id="Vector_5" data-name="Vector 5"><path class="cls-2" d="M990.61,84.72l-8.25-8.25Z"/><path class="cls-3" d="M990.61,84.72l-8.25-8.25"/></g><g id="Vector_6-2" data-name="Vector 6"><path class="cls-2" d="M990.61,84.72l9.22-9.22Z"/><path class="cls-3" d="M990.61,84.72l9.22-9.22"/></g></g><g id="tree-3-3" data-name="tree-3"><path id="Vector-3" data-name="Vector" class="cls-1" d="M376,126.15a14.48,14.48,0,0,1-2.73-15.88,17.68,17.68,0,0,0-4.53-21.16A8.21,8.21,0,0,1,366.41,80a10.46,10.46,0,0,0,.65-4.57,10.7,10.7,0,0,0-1.35-4.4,11.3,11.3,0,0,0-3.09-3.44,11,11,0,0,0-4.24-1.8,10.05,10.05,0,0,0-4.6.19,10.94,10.94,0,0,0-4.12,2.12,10.81,10.81,0,0,0-2.82,3.67,10.37,10.37,0,0,0-1,4.5,10.48,10.48,0,0,0,1,4.4,8.36,8.36,0,0,1-1.89,9.46,17.67,17.67,0,0,0-3.64,19.9,14.65,14.65,0,0,1-2.47,16A25.31,25.31,0,0,0,332,143a25.35,25.35,0,0,0,48.32,11.05A25.33,25.33,0,0,0,376,126.15Z"/><g id="Vector_2-2" data-name="Vector 2"><path class="cls-2" d="M357.32,94.48v0Z"/><path class="cls-3" d="M357.32,94.48V206.84"/></g><g id="Vector_3-2" data-name="Vector 3"><path class="cls-2" d="M357.32,155.47l-14-14Z"/><path class="cls-3" d="M357.32,155.47l-14-14"/></g><g id="Vector_4-3" data-name="Vector 4"><path class="cls-2" d="M357.32,138.11l8.35-8.36Z"/><path class="cls-3" d="M357.32,138.11l8.35-8.36"/></g><g id="Vector_5-2" data-name="Vector 5"><path class="cls-2" d="M357.32,107.82l-7.4-7.39Z"/><path class="cls-3" d="M357.32,107.82l-7.4-7.39"/></g><g id="Vector_6-3" data-name="Vector 6"><path class="cls-2" d="M357.32,107.82l8.26-8.26Z"/><path class="cls-3" d="M357.32,107.82l8.26-8.26"/></g></g><g id="tree-2"><path id="Vector-4" data-name="Vector" class="cls-4" d="M84.41,88.46a15.93,15.93,0,0,0,1.78-7.66A16.19,16.19,0,0,0,70.82,65.13a16,16,0,0,0-14.15,7.36,15.63,15.63,0,0,0-2.5,7.85,16.13,16.13,0,0,0,1.71,8.08,10.19,10.19,0,0,1-2.32,12.41,25.68,25.68,0,0,0-9.14,19.87,26,26,0,0,0,24.36,25.54,25.72,25.72,0,0,0,17.94-45.41A10.26,10.26,0,0,1,84.41,88.46Z"/><path id="Vector_2-3" data-name="Vector 2" class="cls-3" d="M70.17,78.28V188.72"/><path id="Vector_3-3" data-name="Vector 3" class="cls-3" d="M70.18,131.74l13.16-13.16"/><path id="Vector_4-4" data-name="Vector 4" class="cls-3" d="M70.18,116.38l-9.52-9.52"/><path id="Vector_5-3" data-name="Vector 5" class="cls-3" d="M70.18,89.18l6.71-6.72"/></g><g id="tree-2-2" data-name="tree-2"><path id="Vector-5" data-name="Vector" class="cls-4" d="M788.81,99.41a15.8,15.8,0,0,0,1.79-7.66,16.19,16.19,0,0,0-15.37-15.67,16,16,0,0,0-14.15,7.36,15.57,15.57,0,0,0-2.5,7.86,16.16,16.16,0,0,0,1.7,8.08,10.16,10.16,0,0,1-2.31,12.4,25.72,25.72,0,0,0-9.14,19.88,26,26,0,0,0,24.35,25.53,25.72,25.72,0,0,0,18-45.41A10.27,10.27,0,0,1,788.81,99.41Z"/><path id="Vector_2-4" data-name="Vector 2" class="cls-3" d="M774.58,89.23V199.68"/><path id="Vector_3-4" data-name="Vector 3" class="cls-3" d="M774.59,142.7l13.16-13.16"/><path id="Vector_4-5" data-name="Vector 4" class="cls-3" d="M774.59,127.34l-9.52-9.53"/><path id="Vector_5-4" data-name="Vector 5" class="cls-3" d="M774.59,100.13l6.71-6.71"/></g><g id="leaf"><path id="Vector-6" data-name="Vector" class="cls-5" d="M216.63,32.86c-3.66-2-4.19-6.49-2.22-11.82,2.21-5.92,5.83-9.09,8.9-8.06s4.49,5.11,2.22,11.81C223.68,30.27,219.75,34.57,216.63,32.86Z"/><path id="Vector_2-5" data-name="Vector 2" class="cls-3" d="M223.31,13l-6.72,19.88"/><path id="Vector_3-5" data-name="Vector 3" class="cls-3" d="M226.64,18.24,220.8,20.5"/><path id="Vector_4-6" data-name="Vector 4" class="cls-3" d="M225.76,24.1l-7.4,3.67"/><path id="Vector_5-5" data-name="Vector 5" class="cls-3" d="M218.35,14.57,220,22.78"/><path id="Vector_6-4" data-name="Vector 6" class="cls-3" d="M213.79,22.88l3.87,7"/></g><path class="cls-6" d="M-.5,600V170.87l.2-.15a92.62,92.62,0,0,1,142.44,39.4,54.75,54.75,0,0,1,86.49,10.73,66.49,66.49,0,0,1,125-22.06,84.09,84.09,0,0,1,110.08,2.09A116.86,116.86,0,0,1,557,154.05a115.68,115.68,0,0,1,91.35,44.29,93.13,93.13,0,0,1,128.26-4.84,54.83,54.83,0,0,1,54.82-11.16A88.47,88.47,0,0,1,970,209.91a92.6,92.6,0,0,1,29.72-39.19l.8-.62V600Z"/><path class="cls-7" d="M56,152.12A92.14,92.14,0,0,1,142,211a54.25,54.25,0,0,1,87,11.41,66,66,0,0,1,124.53-22.86,83.57,83.57,0,0,1,110.31,2,115.84,115.84,0,0,1,184.53-2.53,92.62,92.62,0,0,1,128.31-4.92,54.3,54.3,0,0,1,54.92-11.27A88,88,0,0,1,970,211.17a92.19,92.19,0,0,1,30-40V599.5H0V171.12a91.64,91.64,0,0,1,56-19m0-1A92.2,92.2,0,0,0-.61,170.32l-.39.3V600.5H1001V169.09l-1.61,1.23a93.13,93.13,0,0,0-29.45,38.37,89,89,0,0,0-138.62-26.92,55.32,55.32,0,0,0-54.7,11.06,93.64,93.64,0,0,0-128.22,4.75,116.93,116.93,0,0,0-144.89-31.09,117.87,117.87,0,0,0-39.87,33.66A84.57,84.57,0,0,0,353.8,198a67,67,0,0,0-125.47,21.36,55.26,55.26,0,0,0-86-10.15A93.12,93.12,0,0,0,56,151.12Z"/><g id="leaf-2" data-name="leaf"><path id="Vector-7" data-name="Vector" class="cls-5" d="M916.2,229.8c-1.1,4-5.38,5.54-11,4.82-6.26-.83-10.16-3.65-9.85-6.86s4-5.53,11-4.83C912.1,223.51,917.17,226.37,916.2,229.8Z"/><path id="Vector_2-6" data-name="Vector 2" class="cls-3" d="M895.33,227.76l20.89,2.07"/><path id="Vector_3-6" data-name="Vector 3" class="cls-3" d="M899.71,223.33l3.52,5.18"/><path id="Vector_4-7" data-name="Vector 4" class="cls-3" d="M905.61,222.87l5.25,6.38"/><path id="Vector_5-6" data-name="Vector 5" class="cls-3" d="M898,232.23l7.62-3.48"/><path id="Vector_6-5" data-name="Vector 6" class="cls-3" d="M907.11,234.81l5.91-5.34"/></g></g></g></svg>