<svg xmlns="http://www.w3.org/2000/svg" viewBox="0 0 1000 600"><defs><style>.cls-1,.cls-2{fill:#5a8a15;}.cls-1,.cls-2,.cls-3,.cls-4,.cls-5{stroke:#043866;stroke-miterlimit:10;}.cls-1,.cls-3,.cls-4,.cls-5{stroke-linecap:round;}.cls-3{fill:none;}.cls-4{fill:#50741c;}.cls-5{fill:#a4c673;}.cls-6{fill:#d2d9a5;}.cls-7{fill:#043866;}</style></defs><g id="Layer_2" data-name="Layer 2"><g id="prizes_bg_light_1" data-name="prizes bg light 1"><g id="tree-3"><path id="Vector" class="cls-1" d="M91.59,143.52a15.35,15.35,0,0,1-2.9-16.83,18.72,18.72,0,0,0-4.8-22.43,8.7,8.7,0,0,1-2.45-9.71A11.28,11.28,0,0,0,80.69,85a12,12,0,0,0-3.28-3.65,11.73,11.73,0,0,0-4.5-1.91,10.81,10.81,0,0,0-4.87.21,11.28,11.28,0,0,0-4.36,2.25,11.55,11.55,0,0,0-3,3.88,11.18,11.18,0,0,0,0,9.44,8.85,8.85,0,0,1-2,10,18.89,18.89,0,0,0-5.24,10,18.62,18.62,0,0,0,1.39,11.14,15.63,15.63,0,0,1,1.26,8.9,15.4,15.4,0,0,1-3.88,8.11,26.8,26.8,0,0,0-7.19,18,26.88,26.88,0,1,0,46.62-17.9Z"/><g id="Vector_2" data-name="Vector 2"><path class="cls-2" d="M71.79,110v0Z"/><path class="cls-3" d="M71.79,110V229.07"/></g><g id="Vector_3" data-name="Vector 3"><path class="cls-2" d="M71.79,174.61,57,159.78Z"/><path class="cls-3" d="M71.79,174.61,57,159.78"/></g><g id="Vector_4" data-name="Vector 4"><path class="cls-2" d="M71.79,156.2l8.86-8.86Z"/><path class="cls-3" d="M71.79,156.2l8.86-8.86"/></g><g id="Vector_5" data-name="Vector 5"><path class="cls-2" d="M71.79,124.1,64,116.26Z"/><path class="cls-3" d="M71.79,124.1,64,116.26"/></g><g id="Vector_6" data-name="Vector 6"><path class="cls-2" d="M71.79,124.1l8.76-8.76Z"/><path class="cls-3" d="M71.79,124.1l8.76-8.76"/></g></g><g id="tree-2"><path id="Vector-2" data-name="Vector" class="cls-4" d="M915,136.67a13.4,13.4,0,0,0,1.52-6.54,13.82,13.82,0,0,0-13.12-13.38,13.62,13.62,0,0,0-6.87,1.52,13.79,13.79,0,0,0-5.21,4.76,13.34,13.34,0,0,0-2.14,6.71,13.73,13.73,0,0,0,1.46,6.9,8.68,8.68,0,0,1-2,10.59,21.89,21.89,0,0,0-7.8,17A22.17,22.17,0,0,0,901.66,186,22,22,0,0,0,917,147.23,8.76,8.76,0,0,1,915,136.67Z"/><path id="Vector_2-2" data-name="Vector 2" class="cls-3" d="M902.85,128v94.31"/><path id="Vector_3-2" data-name="Vector 3" class="cls-3" d="M902.86,173.63l11.24-11.24"/><path id="Vector_4-2" data-name="Vector 4" class="cls-3" d="M902.86,160.51l-8.13-8.13"/><path id="Vector_5-2" data-name="Vector 5" class="cls-3" d="M902.86,137.29l5.73-5.74"/></g><g id="leaf"><path id="Vector-3" data-name="Vector" class="cls-5" d="M956.08,57.82c-4.32,2.28-9.07-.16-13-5.58-4.31-6.05-5-11.66-2-14s7.94-1,13,5.58C958.19,49.25,959.8,55.9,956.08,57.82Z"/><path id="Vector_2-3" data-name="Vector 2" class="cls-3" d="M941.07,38.27l15,19.6"/><path id="Vector_3-3" data-name="Vector 3" class="cls-3" d="M948.39,38.47l-1.62,7.18"/><path id="Vector_4-3" data-name="Vector 4" class="cls-3" d="M953.53,43.17l-1.27,9.63"/><path id="Vector_5-3" data-name="Vector 5" class="cls-3" d="M939.38,44.15l9.1,3.75"/><path id="Vector_6-2" data-name="Vector 6" class="cls-3" d="M944.48,54.05l9.33.78"/></g><path class="cls-6" d="M-.5,599.5V217.71l.25-.15A118.56,118.56,0,0,1,140.52,235.2a55.09,55.09,0,0,1,49.6-30.61A55.71,55.71,0,0,1,240,235.83a100,100,0,0,1,148.38-21,50.27,50.27,0,0,1,90,26.63,30.34,30.34,0,0,1,51.95-4.24,111.68,111.68,0,0,1,171.77-1.4,31.44,31.44,0,0,1,53.79,3.4,44.32,44.32,0,0,1,62.27-11.29,107.53,107.53,0,0,1,134.28,39.45,118.48,118.48,0,0,1,47.28-49.79l.75-.43V599.5Z"/><path class="cls-7" d="M323.53,191.4a99.15,99.15,0,0,1,65,24.13,49.77,49.77,0,0,1,89.53,28,29.83,29.83,0,0,1,52.3-5.48,111.16,111.16,0,0,1,171.84-1.41,30.94,30.94,0,0,1,53.69,3.57,43.8,43.8,0,0,1,62.27-11.71,107,107,0,0,1,134.4,39.88A118.51,118.51,0,0,1,1000,218V599H0V218a118,118,0,0,1,140.66,18,55,55,0,0,1,99.31.81,99.43,99.43,0,0,1,83.56-45.45m0-1a100.21,100.21,0,0,0-83.43,44.43,56,56,0,0,0-99.72-.46A119.05,119.05,0,0,0-.5,217.13l-.5.28V600H1001V216.27l-1.5.86a118.9,118.9,0,0,0-47.08,49.22,108,108,0,0,0-134.18-39A44.81,44.81,0,0,0,756,238.23,31.95,31.95,0,0,0,702.09,235a112.18,112.18,0,0,0-171.71,1.41,30.83,30.83,0,0,0-51.63,3.32,50.77,50.77,0,0,0-90.4-25.62,100.54,100.54,0,0,0-64.82-23.68Z"/><g id="leaf-2" data-name="leaf"><path id="Vector-4" data-name="Vector" class="cls-5" d="M88.56,263.9c.89-4.8,5.75-7,12.43-6.73,7.42.36,12.27,3.27,12.22,7.07s-4.12,6.87-12.43,6.74C94,270.86,87.76,268,88.56,263.9Z"/><path id="Vector_2-4" data-name="Vector 2" class="cls-3" d="M113.21,264.24l-24.67-.38"/><path id="Vector_3-4" data-name="Vector 3" class="cls-3" d="M108.51,269.86l-4.63-5.73"/><path id="Vector_4-4" data-name="Vector 4" class="cls-3" d="M101.64,271l-6.77-7"/><path id="Vector_5-4" data-name="Vector 5" class="cls-3" d="M109.64,259.27l-8.59,4.82"/><path id="Vector_6-3" data-name="Vector 6" class="cls-3" d="M98.71,257.14,92.32,264"/></g></g></g></svg>